<!-- Generator: Adobe Illustrator 21.1.0, SVG Export Plug-In  -->
<svg version="1.1"
	 xmlns="http://www.w3.org/2000/svg" xmlns:xlink="http://www.w3.org/1999/xlink" xmlns:a="http://ns.adobe.com/AdobeSVGViewerExtensions/3.0/"
	 x="0px" y="0px" width="88.4px" height="36.3px" viewBox="0 0 88.4 36.3" style="enable-background:new 0 0 88.4 36.3;"
	 xml:space="preserve">
<style type="text/css">
	.st0{fill:#040404;}
</style>
<defs>
</defs>
<g>
	<path class="st0" d="M88.4,17.6c-0.3,0.2-0.5,0.6-0.8,0.9C82.7,24,77.9,29.4,73,34.9c-0.2,0.2-0.3,0.3-0.6,0.3
		c-2.3,0.7-4.5,0.2-6.7-0.6c-1.4-0.5-2.3-1.6-3.2-2.8c-1.2-1.8-2.1-3.7-3-5.7c-0.7-1.4-1.4-2.7-2.2-4c-1.8-2.7-4.3-3.8-7.5-3.6
		c-0.7,0-1.5,0.2-2.2,0.3c-0.2,0-0.4,0.1-0.5,0.3c-0.6,0.7-1.2,1.3-1.8,2c-0.2,0.2-0.2,0.4,0,0.7c3.4,3.9,6.9,7.9,10.3,11.8
		c0.5,0.6,1,1.2,1.5,1.8c0.2,0.2,0.2,0.3-0.1,0.5c-0.9,0.6-0.9,0.6-1.6-0.2c-3.7-4.3-7.5-8.5-11.2-12.8c-0.2-0.3-0.3-0.3-0.6,0
		c-3.7,4.2-7.5,8.3-11.2,12.5c-0.4,0.5-1.2,0.4-1.6-0.1c-0.1-0.2,0-0.2,0.1-0.3c0.5-0.6,1-1.2,1.5-1.8c3.4-3.8,6.8-7.6,10.2-11.4
		c0.2-0.3,0.3-0.4,0-0.7c-0.5-0.5-0.9-1-1.4-1.5c-0.2-0.2-0.4-0.4-0.7-0.4c-1.5-0.3-3-0.4-4.5-0.2c-2.1,0.3-3.7,1.5-4.9,3.2
		s-2.1,3.6-3,5.4c-0.5,1.1-1.1,2.2-1.7,3.3c-1.4,2.4-3.4,3.9-6.2,4.5c-1.6,0.3-3.1,0.1-4.6-0.2c-0.2,0-0.2-0.1-0.3-0.2
		c-5-5.7-10-11.4-15-17.2c-0.1-0.1-0.1-0.2-0.3-0.2c0-0.1,0-0.1,0-0.2c0.8-0.1,1.7,0.2,2.5,0.2c2.3,0.1,4.4-0.3,6.1-2
		c1.1-1,1.8-2.3,2.5-3.5c1.1-2.1,2-4.2,3.2-6.3c0.7-1.3,1.6-2.5,2.8-3.4c1.9-1.3,4.1-1.7,6.4-1.5c0.2,0,0.4,0,0.6,0.1
		c0.3,0,0.6,0.2,0.8-0.3c0.1-0.3,0.5-0.4,0.8-0.5c0.2-0.1,0.3,0.1,0.4,0.2c1.7,1.9,3.4,3.8,5.1,5.7c4.1,4.7,8.2,9.3,12.3,14
		c0.3,0.3,0.4,0.2,0.6,0C50,13.5,55.9,6.9,61.8,0.4C61.9,0.2,62-0.1,62.3,0c0.4,0.1,0.8,0.3,0.9,0.6c0.1,0.4,0.3,0.3,0.5,0.3
		c0.9-0.1,1.9-0.2,2.8-0.1c2.8,0.2,5,1.4,6.5,3.8c1.2,1.8,2.1,3.9,3,5.8c0.7,1.4,1.5,2.9,2.4,4.1c1.8,2.4,4.2,3.3,7.1,3.1
		c0.8-0.1,1.6-0.2,2.4-0.2C88.4,17.5,88.4,17.6,88.4,17.6z M81.8,17.3c-1.5-0.6-2.5-1.7-3.5-2.9c-0.2-0.3-0.3-0.2-0.5,0
		c-0.8,0.9-1.7,1.8-2.5,2.8c-0.2,0.2-0.3,0.2-0.5,0c-0.2-0.3-0.3-0.5-0.5-0.8c-0.5-0.9-0.9-1.8-1.4-2.7s-0.3-0.8-1-0.1
		s-1.3,1.4-2,2.1c-0.5,0.6-0.5,0.6-0.9-0.1c-0.6-1.1-1.1-2.3-1.8-3.4c-0.2-0.3-0.3-0.4-0.6-0.1c-0.8,0.9-1.6,1.7-2.3,2.6
		c-0.4,0.4-0.4,0.4-0.8,0c-0.8-1-1.8-1.9-3-2.5c-0.2-0.1-0.4-0.1-0.6,0.1c-0.7,0.8-1.4,1.6-2.1,2.4c-0.2,0.2-0.3,0.4-0.4,0.5
		c-0.2,0.3-0.2,0.5,0.2,0.7c0.3,0.1,0.6,0.3,0.9,0.5c0.7,0.6,1.4,1.2,2,1.9c0.2,0.3,0.4,0.3,0.7,0c0.7-0.9,1.5-1.7,2.3-2.6
		c0.5-0.6,0.5-0.6,0.9,0.1c0.6,1.1,1.2,2.3,1.8,3.4c0.3,0.6,0.2,0.6,0.7,0.1c0.7-0.8,1.4-1.5,2.1-2.3c0.5-0.5,0.5-0.5,0.9,0.1
		c0.6,1.2,1.1,2.4,1.8,3.5c0.2,0.3,0.3,0.4,0.5,0.1c0.7-0.8,1.5-1.7,2.2-2.5c0.6-0.6,0.6-0.6,1.2,0c0.7,0.9,1.6,1.6,2.6,2.2
		c0.5,0.3,0.5,0.3,0.2,0.8c-0.7,0.9-1.5,1.8-2.2,2.7c-0.3,0.4-0.3,0.5,0.2,0.7c0.1,0,0.2,0.1,0.3,0.1c1.5,0.3,2.9,0.3,4.4,0.1
		c0.3,0,0.6-0.2,0.9-0.4c0.9-0.8,1.7-1.7,2.5-2.7c0.1-0.1,0.2-0.2,0.2-0.4c-0.4,0-0.8,0-1.2,0.1c-1.2,0.1-2.5,0.1-3.7-0.2
		c-0.9-0.2-0.9-0.2-0.3-1C80.2,19.2,81,18.3,81.8,17.3z M24.8,15.4c0.1,0.1,0.1,0.1,0.2,0.1c0.8,0.9,1.5,1.8,2.3,2.6
		c0.6,0.7,0.6,0.7,1.2,0c0.7-0.8,1.4-1.6,2.4-2c0.7-0.3,0.6-0.5,0.2-1c-0.7-0.9-1.5-1.8-2.3-2.7c-0.2-0.2-0.4-0.3-0.6-0.1
		c-1.2,0.6-2.2,1.5-3,2.5c-0.2,0.3-0.4,0.3-0.6,0c-0.8-0.9-1.6-1.8-2.3-2.6c-0.4-0.4-0.4-0.4-0.7,0.1c-0.8,1.1-1.3,2.4-2,3.6
		c-0.2,0.3-0.3,0.3-0.5,0.1c-0.7-0.8-1.4-1.6-2.2-2.4c-0.6-0.7-0.6-0.7-1,0.1c-0.6,1.1-1.1,2.3-1.8,3.4c-0.2,0.3-0.3,0.3-0.6,0
		c-0.8-0.9-1.6-1.7-2.3-2.7c-0.3-0.4-0.5-0.3-0.7,0c-0.9,1.1-1.9,2-3.1,2.6c-0.3,0.1-0.2,0.2,0,0.4c0.8,0.9,1.6,1.8,2.4,2.7
		c0.4,0.5,0.4,0.6-0.3,0.7c-1.3,0.3-2.6,0.4-4,0.2c-0.4,0-0.8-0.1-1.2,0c1,1.2,1.9,2.3,3.1,3.3c0.1,0.1,0.3,0.1,0.4,0.2
		c1.6,0.3,3.2,0.2,4.8-0.1c0.5-0.1,0.6-0.3,0.2-0.7c-0.7-0.9-1.5-1.8-2.2-2.7c-0.4-0.4-0.3-0.4,0.1-0.7c0.2-0.1,0.3-0.2,0.5-0.3
		c0.8-0.6,1.6-1.3,2.3-2.1c0.4-0.5,0.4-0.5,0.9,0c0.7,0.8,1.4,1.6,2.2,2.4c0.5,0.6,0.5,0.6,0.9-0.1c0.7-1.1,1.2-2.3,1.8-3.5
		c0.2-0.3,0.3-0.4,0.6-0.1c0.7,0.8,1.4,1.6,2.1,2.4c0.2,0.2,0.4,0.4,0.6,0.6C23.3,18.4,23.9,16.8,24.8,15.4z M78.6,28.2
		c-0.5,0.1-1,0.1-1.4,0.1c-1.4,0.1-2.9,0.1-4.3-0.4c-0.3-0.1-0.4-0.2-0.1-0.4c0.8-0.9,1.6-1.9,2.5-2.8c0.3-0.3,0.2-0.4-0.1-0.6
		c-1.1-0.6-1.9-1.4-2.7-2.3c-0.6-0.7-0.6-0.7-1.2,0c-0.8,0.9-1.6,1.8-2.5,2.8c-1-1.5-1.6-3.1-2.4-4.6c-0.2,0.2-0.4,0.4-0.6,0.7
		c-0.7,0.7-1.3,1.5-2,2.2c-0.5,0.6-0.5,0.6-0.8-0.1c-0.3-0.6-0.6-1.3-0.9-1.9c-0.3-0.6-0.6-1.2-1-1.7c-0.1-0.2-0.2-0.3-0.5-0.1
		c-0.9,1-1.7,1.9-2.6,2.9c-0.1,0.1-0.1,0.2,0,0.4c0.8,1.3,1.5,2.6,2.1,4c0.2,0.3,0.3,0.3,0.5,0.1c0.7-0.8,1.4-1.5,2.1-2.3
		c0.2-0.2,0.4-0.4,0.6-0.6c0.1,0.2,0.2,0.3,0.2,0.5c0.6,1.2,1.1,2.4,1.8,3.5c0.4,0.6,0.4,0.6,0.9,0.1c0.8-0.9,1.6-1.7,2.4-2.6
		c0.2-0.2,0.3-0.2,0.5,0c0.8,1.1,1.9,2,3,2.7c0.3,0.2,0.3,0.3,0.1,0.5c-0.8,0.9-1.6,1.9-2.5,2.8c-0.3,0.4-0.3,0.4,0.1,0.5
		c1.8,0.6,3.7,0.4,5.5,0.2c0.1,0,0.2-0.1,0.2-0.1C76.5,30.4,77.5,29.4,78.6,28.2z M10.1,28.1c0.8,0.9,1.5,1.6,2.1,2.5
		c0.6,0.8,1.2,1.1,2.2,1.2c1.4,0.1,2.9,0.2,4.3-0.3c0.5-0.2,0.5-0.2,0.2-0.6c-0.8-0.9-1.5-1.8-2.3-2.7c-0.3-0.3-0.2-0.5,0.1-0.6
		c1.2-0.6,2.1-1.5,3-2.6c0.2-0.3,0.3-0.3,0.6,0c0.7,0.8,1.3,1.5,2,2.2c0.8,0.8,0.7,1.2,1.4-0.2c0.6-1.1,1.2-2.3,1.8-3.5
		c0.2,0.1,0.4,0.4,0.6,0.6c0.7,0.7,1.3,1.5,2,2.2c0.4,0.4,0.4,0.4,0.6-0.1c0.6-1.3,1.3-2.6,2.1-3.8c0.1-0.2,0.1-0.3-0.1-0.5
		c-0.7-0.8-1.4-1.6-2.1-2.5c-0.6-0.7-0.6-0.7-1.1,0.1c-0.7,1.1-1.3,2.3-1.8,3.4c-0.1,0.3-0.2,0.3-0.5,0.1c-0.8-0.9-1.5-1.7-2.3-2.6
		c-0.2-0.2-0.3-0.4-0.5-0.5c-0.8,1.5-1.5,3.1-2.5,4.5c-0.1-0.1-0.2-0.2-0.2-0.3c-0.8-1-1.7-1.9-2.5-2.9c-0.2-0.2-0.4-0.3-0.6,0
		c-0.1,0.1-0.2,0.2-0.2,0.2c-0.8,1-1.8,1.8-2.9,2.4c-0.3,0.2-0.3,0.3-0.1,0.5c0.8,1,1.7,1.9,2.5,2.9c0.2,0.2,0.1,0.3-0.1,0.4
		C14.9,27.9,14,28,13,28C12.1,28.4,11.2,28.2,10.1,28.1z M13.3,9.3c0,0.3,0.1,0.4,0.3,0.6c0.6,0.8,1.3,1.6,2,2.4
		c0.6,0.6,0.6,0.6,1-0.1c0.6-1.1,1.1-2.3,1.8-3.4c0.2-0.3,0.3-0.3,0.6,0c0.8,0.9,1.6,1.8,2.3,2.7c0.4,0.5,0.4,0.5,0.9,0
		c0.8-1,1.7-1.8,2.8-2.3c0.3-0.2,0.4-0.4,0.1-0.7c-0.7-0.9-1.5-1.8-2.3-2.6c-0.5-0.5-0.6-0.5-1.2-0.2c-1.1,0.6-1.9,1.5-2.7,2.4
		c-0.2,0.3-0.3,0.3-0.5,0c-0.8-0.9-1.6-1.8-2.4-2.7c-0.3-0.3-0.4-0.3-0.6,0.1c-0.7,1.1-1.3,2.3-1.9,3.5C13.4,9,13.4,9.2,13.3,9.3z
		 M75.6,9.3c0-0.1-0.1-0.2-0.1-0.4c-0.5-1.2-1.2-2.4-1.8-3.6c-0.2-0.4-0.4-0.4-0.7-0.1c-0.9,0.9-1.7,1.8-2.5,2.7
		c-0.2,0.2-0.3,0.2-0.4,0c-0.3-0.4-0.7-0.8-1.1-1.1c-0.6-0.6-1.2-1.1-1.9-1.5c-0.2-0.1-0.4-0.3-0.7,0c-0.9,1-1.9,1.9-2.7,3
		c-0.2,0.2-0.1,0.3,0.1,0.5c1.2,0.6,2.1,1.5,3,2.6c0.3,0.4,0.5,0.3,0.7,0c0.8-0.9,1.6-1.8,2.4-2.7c0.2-0.3,0.4-0.2,0.5,0.1
		s0.3,0.5,0.4,0.7c0.5,1,1.1,2.1,1.6,3.1c0.1,0.3,0.3,0.3,0.5,0.1c0.8-0.9,1.6-1.7,2.3-2.6C75.4,9.7,75.5,9.5,75.6,9.3z M66.1,34.5
		c0.3,0,0.5-0.2,0.7-0.4c0.8-0.8,1.6-1.7,2.3-2.6c0.2-0.2,0.2-0.3-0.1-0.4c-0.7-0.3-1.2-0.7-1.7-1.2s-1-1-1.5-1.6
		c-0.1-0.1-0.2-0.2-0.3,0c-0.9,1-1.8,2-2.7,3.1c-0.1,0.1-0.1,0.2,0,0.3c0.9,1,1.7,2,2.8,2.6C65.7,34.4,65.9,34.5,66.1,34.5z
		 M22.5,34.6c0.3,0,0.5-0.2,0.7-0.3c1.1-0.7,1.9-1.6,2.7-2.5c0.2-0.2,0-0.3-0.1-0.4c-0.8-1-1.7-1.9-2.5-2.9c-0.2-0.2-0.3-0.3-0.5,0
		c-0.9,1.1-1.9,2.1-3.2,2.7c-0.2,0.1-0.2,0.2-0.1,0.4c0.8,1,1.5,2,2.5,2.8C22.1,34.5,22.3,34.6,22.5,34.6z M54.3,11.6
		c0.1,0,0.2,0,0.2,0c1.9-0.3,3.7-0.2,5.5,0.3c0.2,0.1,0.3,0,0.4-0.2c0.8-0.9,1.6-1.8,2.3-2.6c0.5-0.6,0.5-0.7-0.3-0.8
		c-1.7-0.4-3.4-0.3-5-0.1c-0.2,0-0.3,0.2-0.4,0.3c-0.7,0.7-1.3,1.5-2,2.2C54.9,11,54.6,11.3,54.3,11.6z M34.5,11.8
		c-0.2-0.2-0.3-0.4-0.5-0.6c-0.6-0.7-1.3-1.4-1.9-2.1c-0.4-0.5-0.8-0.7-1.4-0.8c-1.5-0.2-3-0.2-4.5,0.2c-0.6,0.1-0.6,0.2-0.2,0.7
		c0.8,0.9,1.6,1.8,2.3,2.7c0.2,0.2,0.4,0.3,0.7,0.2c1.4-0.3,2.9-0.5,4.4-0.3C33.7,11.8,34,11.9,34.5,11.8z M28.3,4.7
		c-0.8-1-1.6-2-2.6-2.9c-0.4-0.3-0.8-0.5-1.3-0.6c-1.5-0.2-3-0.1-4.5,0.2c-0.4,0.1-0.4,0.2-0.2,0.5c0.8,1,1.7,2,2.5,3
		c0.1,0.2,0.3,0.2,0.5,0.1c1.7-0.5,3.4-0.6,5.2-0.3C28,4.8,28.1,4.9,28.3,4.7z M60.5,4.7c0.2,0,0.3,0,0.4,0c1.8-0.3,3.6-0.2,5.3,0.4
		c0.2,0.1,0.3,0,0.4-0.1c0.8-1,1.7-2,2.5-3c0.3-0.4,0.3-0.4-0.2-0.5c-1.3-0.2-2.6-0.4-4-0.3c-0.6,0-1.2,0.1-1.7,0.5
		C62.3,2.5,61.5,3.6,60.5,4.7z M48.3,18.4c0.1,0,0.1,0.1,0.1,0.1c0.1,0,0.3,0,0.4,0c1.7-0.2,3.4-0.1,5,0.5c0.3,0.1,0.4,0,0.5-0.2
		c0.8-0.9,1.6-1.8,2.4-2.7c0.4-0.4,0.4-0.4-0.2-0.6c-0.1,0-0.2-0.1-0.3-0.1c-1.6-0.4-3.1-0.4-4.7-0.2c-0.2,0-0.3,0.1-0.5,0.2
		C50,16.3,49.1,17.3,48.3,18.4z M40.6,18.8c-0.7-0.9-1.4-1.7-2.1-2.5c-0.6-0.7-1.2-1-2.1-1.1c-1.4-0.1-2.8-0.1-4.1,0.3
		c-0.5,0.2-0.5,0.2-0.2,0.6c0.8,0.9,1.6,1.8,2.4,2.7c0.2,0.2,0.3,0.3,0.6,0.2c1.5-0.5,3-0.6,4.6-0.4C39.9,18.7,40.2,18.7,40.6,18.8z
		"/>
</g>
</svg>
