<!-- Generator: Adobe Illustrator 21.1.0, SVG Export Plug-In  -->
<svg version="1.1"
	 xmlns="http://www.w3.org/2000/svg" xmlns:xlink="http://www.w3.org/1999/xlink" xmlns:a="http://ns.adobe.com/AdobeSVGViewerExtensions/3.0/"
	 x="0px" y="0px" width="43.4px" height="35.4px" viewBox="0 0 43.4 35.4" style="enable-background:new 0 0 43.4 35.4;"
	 xml:space="preserve">
<style type="text/css">
	.st0{fill:#0B0C0C;}
	.st1{fill:#070707;}
</style>
<defs>
</defs>
<g>
	<path class="st0" d="M43.4,18c-0.2,0.3-0.2,0.6-0.2,0.8c-0.1,0.9-0.6,1.7-1,2.4c-0.2,0.3-0.4,0.4-0.6,0.7c-1.2,1.4-2.7,2.4-4.2,3.4
		c-0.2,0.1-0.5,0.3-0.7,0.5c-0.1-0.1-0.1-0.1,0-0.2c0.8-1.5,0.8-3.1,1-4.7c0.1-1.3,0.2-2.7,0.7-3.9c0.1-0.1,0.1-0.3,0.2-0.5
		c0,0.5,0,0.9,0.1,1.2c0.1,0.7,0.2,1.5,0.3,2.2c0.2,1.1,0,2.1-0.4,3c0,0.1-0.1,0.1,0,0.2c0.2-0.2,0.4-0.5,0.5-0.7
		c0.6-1,1.5-1.8,2.3-2.6c0.7-0.8,1.4-1.6,1.6-2.6c0-0.2,0-0.3,0.1-0.6c0.2,0.2,0,0.5,0.2,0.7C43.4,17.5,43.4,17.8,43.4,18z"/>
	<path class="st0" d="M4.8,23.3c-0.2-0.8-0.5-1.6-0.4-2.4c0.1-0.6,0.1-1.2,0.3-1.8C4.9,18.4,4.8,17.7,5,17c0.5,0.9,0.5,1.9,0.7,2.8
		c0.2,0.9,0.2,1.8,0.3,2.7c0.2,1.2,0.3,2.3,0.9,3.4c0,0,0.1,0.1,0,0.1c-1.5-1.1-3.3-2-4.6-3.3c-0.8-0.8-1.4-1.7-1.8-2.8
		c-0.1-0.3-0.1-0.7-0.2-1c0-0.1,0-0.3-0.2-0.3c0-0.1,0-0.3,0-0.4c0.2-0.1,0-0.4,0.2-0.6c0.6,1.7,2,2.8,3.1,4
		c0.5,0.5,0.9,1.2,1.4,1.8c0.1,0.1,0,0.2,0.1,0.2C4.9,23.5,4.9,23.3,4.8,23.3z"/>
	<path class="st0" d="M0,12.8c0.3-0.6,0.3-1.3,0.6-1.9c-0.2,1.8,0.8,3.3,1.4,4.9c0.3,0.7,0.4,1.5,0.5,2.2c0,0.1,0,0.3,0.2,0.3
		s0.1-0.2,0.1-0.3c0-0.7-0.1-1.4,0.2-2.1c0.1-0.3,0.3-0.6,0.4-0.9c0.5-1.1,1.3-2,1.7-3.2c0,0.5-0.1,1.1-0.1,1.6
		c-0.2,1.7-0.7,3.4-1.2,5c-0.2,0.5-0.1,1-0.1,1.5c0,0.3,0,0.7,0,1.1c-0.4-0.5-0.6-0.9-0.9-1.3c-0.8-0.9-1.6-1.8-2.1-3
		c-0.3-0.9-0.4-1.8-0.6-2.7c0-0.1,0-0.2-0.1-0.2C0,13.5,0,13.2,0,12.8z"/>
	<path class="st1" d="M21.8,5c0.7,0.1,1.2,0.4,1.8,0.6c2,0.8,3.8,1.9,5.2,3.5c1.5,1.6,2.6,3.5,2.8,5.7c0.2,2.3,0,4.6-1.5,6.5
		c-0.5,0.6-0.5,0.6,0.1,1.2c0.4,0.4,0.8,0.7,1.2,1.1c0.3,0.3,0.3,0.5,0.1,0.8c-0.2,0.3-0.4,0.5-0.6,0.7c-0.5,0.4-0.7,0.3-1.2-0.1
		c-0.5-0.5-1-1-1.5-1.5c-0.2-0.3-0.4-0.3-0.7-0.1c-1.4,0.7-2.9,0.8-4.3,0.6c-1.6-0.2-3-0.8-4.4-1.6c-0.8-0.5-1.5-1-2.2-1.6
		c-0.2-0.1-0.4-0.3-0.6-0.2s-0.1,0.3,0,0.5c0.1,0.5-0.1,0.8-0.7,0.8c-0.4,0-0.6,0.2-0.8,0.5c-0.4,1-0.9,1.9-1.8,2.5
		c-0.1,0-0.1,0.1-0.2,0.1c-0.4,0.2-0.8,0.4-1.2,0.1c-0.3-0.2-0.3-1,0-1.4c0.5-0.8,1.2-1.4,2-1.9c0.1-0.1,0.3-0.1,0.4-0.2
		c0.4-0.2,0.5-0.5,0.5-0.9C14.1,20,14.4,19.8,15,20c0.3,0.1,0.3-0.1,0.4-0.2c0.5-0.7,0.5-0.7,1.4-0.3c1.4,0.7,2.8,1.3,4.3,1.6
		c1.4,0.3,2.7,0.3,4.1,0c0.6-0.1,0.7-0.3,0.2-0.7c-1.8-1.8-3.6-3.7-5.4-5.5c-0.6-0.6-1.2-1.2-1.7-1.8c-0.3-0.3-0.5-0.3-0.7,0
		c-0.5,0.5-0.9,0.9-1.4,1.4c-0.3,0.3-0.5,0.4-0.8,0c-0.4-0.5-0.9-0.9-1.3-1.3c-0.2-0.2-0.2-0.3,0-0.5c1.3-1.3,2.6-2.7,3.9-3.9
		c0.3-0.2,0.5-0.3,0.8-0.2c0.8,0.2,1.7,0.4,2.6,0.6c-0.6,0.6-1.1,1-1.6,1.5c-0.2,0.2-0.4,0.4-0.6,0.6c-0.3,0.3-0.2,0.5,0,0.7
		c2.4,2.3,4.8,4.6,7.3,6.8c0.1,0.1,0.1,0.1,0.2,0.2c0.8,0.8,0.7,0.7,1.2-0.1c0.8-1.4,1.1-3,1-4.7c-0.3-2.8-1.8-4.8-3.7-6.7
		c-1-0.9-2-1.7-3.1-2.5C21.9,5.2,21.8,5.1,21.8,5z"/>
	<path class="st0" d="M34.8,31.8c-0.1,0.3-0.3,0.4-0.4,0.4c-0.8,0.4-1.6,0.9-2.4,1.3c-1,0.5-2,0.3-2.9,0.1c-1.4-0.4-2.7-1.2-3.9-2
		c-0.6-0.4-1.2-0.8-2-0.6c-0.1,0-0.3,0-0.4,0.2c0,0.2,0.2,0.2,0.3,0.2c1.4,0.8,2.8,1.7,4,2.8c0.5,0.4,0,0.6-0.2,0.8
		c-0.2,0.3-0.4,0.3-0.7,0c-1.2-1.2-2.5-2.4-4-3.3c-0.4-0.3-0.8-0.2-1.2,0.1c-1.5,0.9-2.8,2-4,3.4c-0.2,0.2-0.3,0.2-0.5,0.1
		c-0.2-0.2-0.4-0.4-0.7-0.6c1.3-1.3,2.8-2.4,4.5-3.2c0.1-0.1,0.3-0.1,0.3-0.3c0-0.2-0.2-0.1-0.4-0.2c-0.4,0-0.8,0.1-1.2,0.3
		c-0.9,0.6-1.8,1.1-2.7,1.7c-1.1,0.7-2.3,1-3.6,1.1c-1.2,0-2.3-0.4-3.3-1.1c-0.4-0.2-0.8-0.5-1.1-0.9c0.6,0.1,1,0.3,1.4,0.5
		c1.5,0.4,2.9,0.1,4.3-0.5c1.1-0.5,2.2-1,3.4-1.3c1.2-0.2,2.5-0.3,3.7,0c0.3,0.1,0.7,0.1,1,0c0.5-0.2,1.1-0.1,1.6-0.3
		c0.3-0.1,0.5,0.1,0.8,0.1c1.8,0.1,3.4,1.1,5.1,1.6c0.8,0.3,1.6,0.4,2.4,0.4C33.1,32.4,33.9,32.3,34.8,31.8z"/>
	<path class="st0" d="M1.6,23.1c0.8,1.4,2.1,2,3.4,2.7c1.2,0.7,2.5,1.2,3.6,2c-0.3-0.4-0.5-0.8-0.8-1.2c-0.5-0.8-0.7-1.8-0.9-2.7
		c-0.1-0.8-0.2-1.7-0.5-2.4c0-0.1-0.1-0.2,0-0.4C7,21.9,7.6,22.7,8,23.5c0.7,1.5,1.3,3,2,4.5c0.2,0.5,0.5,1.1,1,1.4
		C9.6,29,8.1,29,6.7,28.5c-1.1-0.4-1.9-0.9-2.8-1.7C2.8,25.8,2,24.6,1.6,23.1C1.6,23.2,1.6,23.2,1.6,23.1z"/>
	<path class="st0" d="M36.9,21.1c-0.2,0.8-0.4,1.7-0.4,2.5c-0.1,1.1-0.4,2.1-1,3.1C35.3,27,35,27.2,35,27.5c0.2,0.1,0.3,0,0.4-0.1
		c1.4-0.8,2.9-1.7,4.3-2.5c0.8-0.5,1.4-1.2,2-2c0.1,0.3-0.1,0.8-0.3,1.2c-0.5,0.7-0.9,1.3-1.4,1.9c-0.2,0.2-0.3,0.4-0.5,0.6
		c-1.3,1-2.6,1.9-4.3,2.1c-0.9,0.1-1.8,0.3-2.7,0.6c1.4-1.4,1.8-3.2,2.4-5C35.3,23.1,36.2,22.1,36.9,21.1z"/>
	<path class="st0" d="M26.9,30.4c1.3-0.4,2.5-0.8,3.5-1.8c1-1.1,2.1-2.1,3.3-3c0.1,0,0.1-0.1,0.2-0.1c-0.6,1.1-0.9,2.3-1.7,3.2
		c-0.4,0.5-0.9,0.9-1.5,1.1c-0.1,0-0.3,0.1-0.2,0.3c0,0.1,0.2,0.1,0.3,0c1-0.3,2.1-0.2,3.1-0.4c1.3-0.2,2.7-0.2,3.9-1.1
		c0.2-0.2,0.5-0.3,0.7-0.6c-0.1,0.4-0.3,0.7-0.6,1c-1.1,1.2-2.4,2.1-4,2.3c-0.8,0.1-1.7,0.2-2.6,0c-1.4-0.3-2.8-0.7-4.2-0.8
		C27,30.5,26.9,30.5,26.9,30.4z"/>
	<path class="st0" d="M9.6,25.6c0.7,0.4,1.2,1,1.9,1.6c0.8,0.7,1.5,1.4,2.3,2.1c0.7,0.6,1.5,0.9,2.4,1.1c0.1,0,0.3,0.1,0.4,0.1
		c-1.3,0.3-2.6,0.7-3.9,0.9c-2.6,0.5-4.9,0.1-6.8-1.9c-0.2-0.2-0.4-0.5-0.6-0.7c0,0,0-0.1,0.1-0.1c1.1,0.8,2.4,1,3.8,1.2
		c1.3,0.1,2.7,0.2,4,0.5c0.1,0,0.2,0,0.3-0.1c-0.5-0.2-1-0.4-1.4-0.7c-0.7-0.5-1.1-1.2-1.5-1.9C10.2,26.9,9.8,26.3,9.6,25.6
		C9.5,25.7,9.5,25.6,9.6,25.6z"/>
	<path class="st0" d="M39.8,20.7c0.3-1.6-0.3-3-0.7-4.4c-0.4-1.4-0.7-2.8-0.8-4.3c0-0.1,0-0.1,0.1-0.3c0.9,2,2.3,3.7,2.5,5.9
		c0.3-1.7,1.2-3.2,1.7-4.8c0.2-0.7,0.2-1.5,0.2-2.4c0.3,0.7,0.4,1.3,0.5,2c0.3,2-0.3,3.7-1.2,5.4c-0.4,0.8-1,1.4-1.6,2.1
		C40.2,20.1,40,20.4,39.8,20.7z"/>
	<path class="st0" d="M40.9,15c-0.3-1.3-1.1-2.3-1.8-3.3c-0.5-0.8-1.1-1.5-1.6-2.3c-0.3-0.6-0.4-1.2-0.6-1.8c0.8,1,1.9,1.7,2.7,2.7
		c0.5,0.5,0.8,1.2,1,2c0-0.3,0-0.6,0-1c-0.1-1.3,0.2-2.6,0.2-3.9c0-0.8-0.1-1.6-0.5-2.4c0.4,0.6,0.9,1.1,1.2,1.7
		c0.8,1.9,0.9,3.9,0.1,5.8C41.3,13.2,41.1,14.1,40.9,15z"/>
	<path class="st0" d="M2.7,5.4C2.3,6.3,2.4,7.3,2.5,8.3c0.1,1.1,0.3,2.3,0.2,3.4c0,0.3-0.2,0.6-0.1,1c0.1-0.2,0.1-0.4,0.2-0.5
		c0.2-0.9,0.7-1.7,1.3-2.3c0.5-0.5,1-1,1.5-1.5C5.8,8.2,6,7.9,6.3,7.6C6.1,9,5.5,10.1,4.8,11.2c-0.7,1-1.3,1.9-1.9,3
		c-0.1,0.3-0.2,0.7-0.4,1c-0.4-1.6-1.2-3.1-1.4-4.7C0.9,8.6,1.4,6.9,2.7,5.4L2.7,5.4z"/>
	<path class="st0" d="M35,3.5c1,1.6,2.9,2.1,4,3.6c0,0,0.1,0,0.3,0.1c-0.8-1.7-0.6-3.7-2.1-5.1c1.6,0.5,2.3,1.6,2.8,3
		c0.1,0.3,0.1,0.6,0.1,1c0,1.2,0,2.4,0,3.7c-0.2-0.3-0.4-0.5-0.6-0.7c-0.9-1-2-1.8-3-2.6c-0.8-0.7-1.2-1.7-1.5-2.7
		C35,3.7,35,3.6,35,3.5z"/>
	<path class="st0" d="M8.2,3.8C8,5.3,7.1,6.4,6.1,7.3C5.4,7.9,4.7,8.4,4.1,9c-0.3,0.3-0.6,0.6-0.8,1C3.4,9,3,8,3.1,7
		c0.1-1.5,0.4-3,1.7-4C4.9,2.9,5,2.8,5.1,2.8c0.2-0.1,0.4-0.2,0.7-0.3C4.6,4.1,4.7,6,4.1,7.7C5.1,6,7.1,5.4,8.2,3.8z"/>
	<path class="st0" d="M33.1,0.1c0.8,0.3,1.6,0.6,2.4,1c1.1,0.7,1.7,1.8,2.2,3.1C37.9,4.6,38,5,38.1,5.5C37,4.7,36,3.8,35.2,2.8
		C34.5,1.9,33.9,0.9,33.1,0.1L33.1,0.1z"/>
	<path class="st0" d="M5.2,5.5C5.7,2.7,7.4,1,10.1,0.3c-0.7,0.8-1.4,1.6-2,2.5C7.4,3.9,6.4,4.8,5.2,5.5C5.3,5.5,5.2,5.5,5.2,5.5z"/>
	<path class="st0" d="M5.2,28.5c-0.1,0.1-0.1,0.1-0.1,0.1L5,28.5h0.1C5.1,28.4,5.2,28.5,5.2,28.5z"/>
	<path class="st0" d="M33.1,0.1L33,0C33,0,33.1,0,33.1,0.1L33.1,0.1z"/>
	<path class="st0" d="M2.6,5.3c0,0,0.1-0.1,0.1,0C2.8,5.3,2.8,5.4,2.6,5.3C2.7,5.4,2.7,5.4,2.6,5.3z"/>
	<path class="st0" d="M5.3,5.5c0,0-0.1,0.1-0.1,0C5.1,5.5,5.1,5.5,5.3,5.5C5.2,5.5,5.3,5.5,5.3,5.5z"/>
	<path class="st0" d="M9.5,25.7l-0.1-0.1C9.4,25.5,9.5,25.5,9.5,25.7C9.5,25.6,9.5,25.7,9.5,25.7z"/>
	<path class="st0" d="M5.3,28.8c0,0-0.1,0-0.1-0.1S5.3,28.7,5.3,28.8L5.3,28.8z"/>
</g>
</svg>
