<!-- Generator: Adobe Illustrator 21.1.0, SVG Export Plug-In  -->
<svg version="1.1"
	 xmlns="http://www.w3.org/2000/svg" xmlns:xlink="http://www.w3.org/1999/xlink" xmlns:a="http://ns.adobe.com/AdobeSVGViewerExtensions/3.0/"
	 x="0px" y="0px" width="82.3px" height="34.8px" viewBox="0 0 82.3 34.8" style="enable-background:new 0 0 82.3 34.8;"
	 xml:space="preserve">
<style type="text/css">
	.st0{fill:#010101;}
</style>
<defs>
</defs>
<g>
	<polygon class="st0" points="7.4,34.7 9.1,34.7 34.6,12.1 	"/>
	<path class="st0" d="M60.2,16.4V9.1l4.4-4.4L59.9,0l-4.7,4.7l4.4,4.4v6.8L55,12.1l4.6,4.1V18h0.6v-1.3l20.4,18.1h1.7L60.2,16.4z
		 M58.8,4.3v2.6h-0.4V4.3V4V3.9h3l-0.8-0.8l0.3-0.3l1,1l0,0l0.3,0.3l0,0l0,0l-0.3,0.3l0,0l-1,1l-0.3-0.3l0.8-0.8L58.8,4.3z"/>
	<polygon class="st0" points="9.8,27.7 9.8,25.5 16.5,25.5 11.9,17.8 13.8,17.8 10.1,11.7 11.9,11.7 8.3,5.6 4.6,11.7 6.4,11.7
		2.8,17.8 4.7,17.8 0,25.5 6.7,25.5 6.7,27.7 	"/>
	<polygon class="st0" points="23.2,13.7 23.2,15.1 25.2,15.1 25.2,13.7 29.5,13.7 26.5,8.6 27.8,8.6 25.4,4.7 26.6,4.7 24.2,0.7
		21.8,4.7 22.9,4.7 20.6,8.6 21.8,8.6 18.8,13.7 	"/>
	<polygon class="st0" points="73.7,20.8 73.7,22.6 76.1,22.6 76.1,20.8 81.5,20.8 77.8,14.7 79.3,14.7 76.4,9.8 77.8,9.8 74.9,4.9
		72,9.8 73.4,9.8 70.5,14.7 72,14.7 68.3,20.8 	"/>
	<path class="st0" d="M37.3,11.8l-22.2,23H43l0.3-7.6h3.3l0.3,7.6h28l-22.2-23H37.3z M43.9,12.9H46l0.1,3.1h-2.4L43.9,12.9z
		 M43.4,24.9l0.3-7.6h2.4l0.3,7.6H43.4z"/>
</g>
</svg>
