<!-- Generator: Adobe Illustrator 21.1.0, SVG Export Plug-In  -->
<svg version="1.1"
	 xmlns="http://www.w3.org/2000/svg" xmlns:xlink="http://www.w3.org/1999/xlink" xmlns:a="http://ns.adobe.com/AdobeSVGViewerExtensions/3.0/"
	 x="0px" y="0px" width="71.7px" height="36px" viewBox="0 0 71.7 36" style="enable-background:new 0 0 71.7 36;"
	 xml:space="preserve">
<style type="text/css">
	.st0{fill:#0B0B0B;}
</style>
<defs>
</defs>
<g>
	<path class="st0" d="M46.1,0.6c1.1,0.1,2.1,0.4,3.2,0.6c0.6,0.1,1.1,0.2,1.7,0.3c0.7,0.1,1.4,0.4,2.1,0.6c0.6,0.2,1.2,0.3,1.8,0.5
		c1,0.3,2,0.7,2.9,1.1c1.6,0.6,3.1,1.3,4.5,2.1c2.7,1.5,5.3,3.4,7.2,5.9c0.7,1,1.3,2.1,1.7,3.3c0,0.1,0.9,2.2,0.1,4.9
		c-0.2,1-0.6,2-1.2,2.9c-0.3,0.6-0.6,1.1-1.1,1.6c-0.8,0.9-1.6,1.7-2.5,2.5c-0.7,0.6-1.5,1.1-2.3,1.7c-1.4,0.9-2.9,1.7-4.4,2.5
		c-0.8,0.4-1.7,0.7-2.6,1.1c-0.8,0.3-1.6,0.6-2.4,0.9c-0.7,0.2-1.4,0.5-2.1,0.6c-0.6,0.1-1.1,0.3-1.7,0.5c-0.3,0.1-0.6,0.1-0.9,0.2
		c-0.6,0.1-1.2,0.3-1.9,0.4c-0.2,0-0.5,0.1-0.7,0.1c-0.7,0.1-1.4,0.2-2.1,0.3C38.6,36,33,36.5,25.2,35.1c-11.3-2.1-15.7-4.7-17-5.6
		c-2.3-1.4-4.4-3.1-6-5.3c-0.7-1-1.3-2.1-1.7-3.3c-0.2-0.7-0.3-1.4-0.5-2.1c0-0.5-0.1-1,0-1.5c0.2-0.7,0.2-1.4,0.5-2
		c0.3-0.8,0.6-1.6,1.1-2.3c0.7-1.1,1.5-2.1,2.5-3c1.2-1.2,2.6-2.2,4-3.1c0.8-0.5,1.7-1,2.6-1.4c1.2-0.6,2.5-1.1,3.7-1.6
		c0.7-0.3,1.5-0.5,2.2-0.7c0.4-0.1,0.7-0.3,1.1-0.4c0.5-0.2,1-0.3,1.5-0.4C20,2.2,20.8,2,21.7,1.8c0.3-0.1,0.7-0.1,1-0.2
		c0.7-0.2,1.5-0.3,2.3-0.5C25.5,1,26.1,1,26.7,0.9c1-0.2,2-0.2,3.1-0.4C30.7,0.1,39.7-0.4,46.1,0.6z M46.4,33.9
		c0.7-0.1,1.4-0.2,2.1-0.3c0.9-0.2,1.7-0.4,2.6-0.6c1-0.2,2-0.5,3-0.8c1.4-0.4,2.8-0.9,4.1-1.5c1.6-0.7,3.2-1.5,4.7-2.4
		c2.1-1.3,4-2.8,5.4-4.9c0.9-1.3,1.5-2.7,1.8-4.2c0.3-2.4-0.3-4.5-1.6-6.4c-1-1.6-2.4-2.9-3.9-4c-1.5-1.1-3-2-4.6-2.8
		c-1.9-0.9-3.9-1.7-5.9-2.3c-0.6-0.2-1.3-0.4-1.9-0.5s-1.1-0.3-1.7-0.5c-0.9-0.2-1.7-0.3-2.6-0.5c-1.8-0.4-3.6-0.6-5.3-0.7
		c-1.2-0.1-2.4-0.2-3.5-0.2c-2.6-0.1-5.1-0.1-7.7,0.1c-0.9,0.1-1.7,0.2-2.6,0.2c-0.6,0-1.2,0.2-1.8,0.2c-0.4,0-0.8,0.1-1.1,0.2
		c-1.1,0.2-2.1,0.4-3.2,0.6C21.9,2.8,21,3,20.2,3.2c-0.8,0.2-1.6,0.5-2.4,0.7c-0.9,0.3-1.8,0.6-2.6,0.9C13.8,5.4,12.3,6,11,6.7
		C9.6,7.5,8.3,8.3,7,9.3c-1.9,1.5-3.4,3.3-4.3,5.6c-0.5,1.5-0.7,2.9-0.5,4.5c0.3,1.8,1.1,3.3,2.2,4.7c1.1,1.4,2.4,2.5,3.8,3.5
		c1.3,0.9,2.7,1.8,4.2,2.5c1.1,0.5,2.3,1,3.5,1.4c1.1,0.4,2.2,0.8,3.3,1.1c0.7,0.2,1.4,0.4,2.1,0.5c0.9,0.2,1.7,0.4,2.6,0.6
		c1.1,0.2,2.2,0.4,3.3,0.5C32.7,35.2,43.5,34.6,46.4,33.9z"/>
	<path class="st0" d="M2.7,18.2c0-1.9,0.5-3.3,1.3-4.7c1.3-2.1,3-3.6,5-5c1.2-0.8,2.5-1.5,3.8-2.1s2.5-1.1,3.9-1.5
		c1-0.3,1.9-0.7,2.9-0.9c0.6-0.2,1.3-0.3,1.9-0.5c1-0.2,1.9-0.4,2.9-0.6c0.9-0.2,1.7-0.3,2.6-0.4c1.4-0.2,2.9-0.3,4.4-0.4
		c2.1-0.1,4.1-0.2,6.2-0.2c1.4,0,2.7,0.1,4.1,0.2c0.8,0.1,1.6,0.2,2.4,0.2C45,2.4,46,2.6,46.9,2.8c0.9,0.1,1.8,0.4,2.8,0.5
		c0.6,0.1,1.1,0.2,1.7,0.4s1.3,0.3,1.9,0.5C55,4.7,56.6,5.3,58.2,6c1.9,0.8,3.7,1.7,5.4,2.9c0.9,0.7,1.8,1.4,2.6,2.2
		c0.8,0.9,1.6,1.8,2.1,2.9c0.4,0.7,0.6,1.4,0.8,2.2c0.2,0.8,0.2,1.6,0.1,2.4c-0.1,1.1-0.5,2.1-1,3.1c-0.9,1.6-2.1,2.9-3.5,4.1
		c-1.8,1.5-3.9,2.7-6.1,3.6c-1.3,0.6-2.7,1.1-4.1,1.6c-1.1,0.3-2.2,0.7-3.3,0.9c-1,0.2-2,0.4-3.1,0.7c-2,0.5-4,0.7-6,0.9
		c-3.3,0.4-6.5,0.3-9.8,0.2c-1.8,0-3.6-0.3-5.4-0.5c-0.8-0.1-1.5-0.2-2.3-0.4c-0.9-0.2-1.9-0.4-2.8-0.6c-1.3-0.3-2.5-0.6-3.8-1
		c-2-0.6-4-1.4-5.9-2.3c-1.3-0.6-2.5-1.3-3.6-2.1c-1.1-0.8-2.2-1.7-3.1-2.7c-0.8-0.9-1.5-1.8-2-2.9C3,20.2,2.6,19.1,2.7,18.2z
		 M46.4,26.9c0.6,0,1.2,0,1.8,0c0.7,0,1.3-0.3,2-0.5c1.2-0.3,2.4-0.8,3.5-1.4c1-0.6,1.9-1.4,2.5-2.5c0.5-1,0.8-2.1,0.9-3.2
		c0-0.1,0-0.3,0-0.4c-0.4-1.2-1-2.1-2.3-2.3c-0.3,0-0.7-0.1-0.7-0.5c-0.1-0.4,0.1-0.7,0.5-0.9c0.1-0.1,0.2-0.1,0.3-0.2
		c0.3-0.2,0.5-0.5,0.7-0.8c0.4-0.9,0.5-1.8,0.4-2.8c-0.1-0.4-0.2-0.8-0.6-1.1c-0.7-0.4-1.4-0.7-2.2-0.7C52.1,9.5,51,9.5,50,10.2
		c-0.4,0.3-0.8,0.6-1.2,0.9c-0.5,0.5-1,0.9-1.3,1.5c-0.2,0.3-0.1,0.5,0.2,0.5c0.4,0,0.8,0,1.1-0.3c1-0.7,2.1-1.5,3.4-1.6
		c0.3,0,0.7-0.1,0.9,0.2c0.2,0.3,0.3,0.7,0.3,1.1c-0.1,1.4-0.8,2.4-2,3.1c-0.8,0.5-1.7,0.9-2.6,1.4c-0.2,0.1-0.3,0.2-0.4,0.3
		c-0.1,0.3,0.1,0.9,0.5,1.2c0.3,0.3,0.6,0.1,0.8-0.1c0.3-0.2,0.6-0.3,1-0.3s0.8,0.2,1.2,0.3c0.7,0.3,1.3,1.5,1,2.3
		c-0.1,0.4-0.4,0.7-0.6,1c-0.5,0.6-1.1,1.1-1.7,1.5c-1,0.7-2,1.3-3.3,1.6c-0.8,0.2-1.7,0.3-2.5,0.2c-1.3-0.1-2.6-0.2-3.9-0.4
		c-0.8-0.1-1.5-0.2-2.3-0.2c-1.2-0.1-2.4-0.3-3.6-0.3c-0.1,0-0.1,0-0.2,0c-0.8-0.2-1.5-0.1-2.3-0.2c-1.1-0.1-2.2-0.1-3.3,0.3
		c-0.5,0.2-1.1,0.3-1.5,0.8s-1,0.9-1.5,1.3c-0.2,0.2-0.4,0.4-0.6,0.7c-0.2,0.3-0.1,0.5,0.3,0.5c0.3,0,0.7-0.2,1-0.3
		c0.9-0.4,1.9-0.8,2.9-0.9c1.6-0.2,3.2-0.1,4.8,0c1.2,0.1,2.4,0.2,3.6,0.3c1.1,0.1,2.2,0.2,3.4,0.2C43.1,26.6,44.7,26.9,46.4,26.9z
		 M38.2,19.6c0,0.7,0,1.2,0.2,1.7c0.4,1.1,1.2,1.8,2.2,2.2c0.9,0.3,1.8,0.1,2.6-0.4c0.6-0.4,1.1-0.9,1.5-1.4
		c0.3-0.4,0.6-0.8,0.6-1.3c0-0.3-0.1-0.4-0.5-0.4c-0.6,0.1-1.2,0.4-1.8,0.6c-0.7,0.3-1.9-0.4-1.9-1.2c0-0.3,0.1-0.5,0.1-0.8
		c0.2-0.8,0.6-1.4,0.9-2.2c0.4-0.9,0.9-1.7,1.8-2.1c0.8-0.4,1.4-0.9,1.9-1.6c0.3-0.5,0.4-0.9,0.4-1.5c-0.1-1-1-1.4-1.9-1.2
		c-0.5,0.1-0.9,0.3-1.4,0.4c-1,0.3-2,0.7-2.9,1.3c-0.6,0.4-1.1,0.8-1.4,1.4c-0.2,0.5-0.5,0.9-0.8,1.3c-0.3,0.4-0.5,0.4-0.8,0
		c-0.3-0.3-0.5-0.6-0.9-0.8c-0.8-0.5-1.8-0.3-2.3,0.2s-0.6,1.2-0.7,1.8c0,0.3,0.1,0.4,0.4,0.4c0.5,0,0.9,0,1.4-0.1
		c0.4-0.1,0.8,0.1,0.8,0.6s-0.1,1.1-0.4,1.5c-0.6,0.8-1.4,1.4-2.3,1.7c-0.8,0.3-1.5,0.2-2-0.7c-0.1-0.2-0.2-0.4-0.3-0.5
		c-0.1-0.2-0.2-0.3-0.4-0.3s-0.3,0.1-0.4,0.3c-0.2,0.4-0.2,0.8-0.5,1.2s-0.3,0.9-0.2,1.3c0.1,0.3,0.1,0.7,0.2,1
		c0.1,0.4,0.4,0.7,0.9,0.9c1,0.3,1.9,0.2,2.8-0.4c1.1-0.6,2-1.4,2.6-2.6c0.4-0.8,0.9-1.6,1.3-2.4c0.1-0.3,0.3-0.3,0.6-0.1
		c0.2,0.2,0.3,0.4,0.4,0.7C38.4,18.5,38.2,19.1,38.2,19.6z M29.2,5.4c-0.9,0-1.5,0-2.2,0s-1.4,0-2.1,0.3c-1.6,0.5-3.1,1.2-4.3,2.4
		c-0.7,0.7-1.5,1.4-2,2.4c-1,1.7-0.3,3.5,1,4.6c0.7,0.6,1.5,0.8,2.4,0.5c1-0.3,2-0.8,2.8-1.5c0.6-0.5,1.2-1.1,1.5-1.9
		c0.1-0.2,0.2-0.4,0-0.6c-0.2-0.2-0.4-0.1-0.7,0c-0.1,0.1-0.2,0.1-0.3,0.2c-0.3,0.2-0.6,0.4-1,0.5c-0.7,0.3-1.7,0-2.1-0.6
		c-0.3-0.5-0.2-1-0.1-1.6c0.2-0.9,0.8-1.5,1.5-2c0.7-0.4,1.4-0.8,2.2-0.9C26.5,7.1,27.3,7,28,7c2-0.2,4,0,5.9,0.1
		c1,0.1,2.1,0.1,3.1,0.2c1,0.1,2,0.1,2.9,0.2c1.9,0.1,3.8,0.2,5.7,0.1c1.3-0.1,2.5-0.4,3.8-0.7c0.2,0,0.3-0.1,0.5-0.2
		c0.4-0.2,0.4-0.8,0.1-1s-0.6-0.2-1-0.2c-1.1,0.3-2.2,0.6-3.3,0.7c-1.6,0.1-3.2,0.1-4.8-0.2c-0.9-0.1-1.8-0.2-2.7-0.3
		c-1.5-0.1-3-0.2-4.5-0.3C32.3,5.5,30.6,5.3,29.2,5.4z M20.6,23.4c0.5,0,1,0,1.5-0.2c1.1-0.4,2.2-1,3-1.9c0.5-0.5,0.9-1.1,1.4-1.7
		c0.4-0.5,0.8-1,1.1-1.5c0.6-1.1,1.3-2.2,2-3.3c1.3-1.8,2.7-3.4,4.4-4.9c0.1-0.1,0.2-0.2,0.2-0.4c0.1-0.3,0-0.6-0.4-0.6
		c-0.2,0-0.5,0-0.7,0.1c-1.1,0.3-1.8,1-2.4,1.9c-0.5,0.7-1,1.5-1.6,2.1c-0.9,1-1.8,2.1-2.7,3.1c-0.6,0.7-1.3,1.5-2.1,2.1
		c-0.6,0.5-1.4,0.9-2.2,1c-0.8,0.2-1.5,0.1-2.2-0.2c-0.5-0.2-0.9-0.5-1.4-0.7c-0.6-0.3-0.9-0.1-0.9,0.6c0,0.4,0.1,0.8,0.1,1.2
		c0,0.5,0.1,1,0.3,1.5C18.6,22.7,19.3,23.5,20.6,23.4z M67.2,18.2c0-0.9-0.2-1.7-0.7-2.4c-0.7-1-1.5-1.7-2.8-1.8
		c-0.2,0-0.4-0.1-0.4,0.1c0,0.2,0.1,0.3,0.3,0.4c0.8,0.5,1.5,1.1,2,1.9c0.2,0.3,0.3,0.6,0.3,0.9c0.1,0.8-0.1,1.5-0.5,2.2
		c-0.1,0.2-0.2,0.2-0.4,0.1c-1-0.9-1.9-1.9-2.9-2.7c-0.1-0.1-0.1-0.2,0-0.3c0.2-0.3,0.5-0.5,0.7-0.8c0.2-0.2,0.1-0.5-0.1-0.5
		c-0.4,0-0.9-0.1-1.3-0.1c-0.2,0-0.4,0-0.5,0.1s-0.2,0-0.4,0c-0.1-0.1-0.2-0.3-0.4-0.1c-0.2,0.2-0.5,0.4-0.4,0.7
		c0.2,0.4,0,0.5-0.2,0.7s-0.3,0.3-0.5,0.5s-0.2,0.3,0,0.5c0.3,0.2,0.5,0.4,0.8,0.6c0.2,0.2,0.3,0.1,0.5,0c0.2-0.2,0.3-0.5,0.6-0.5
		c0.3,0,0.4,0.3,0.6,0.5c0.9,0.8,1.8,1.7,2.7,2.6c0.1,0.1,0.1,0.2,0,0.2c-0.3,0.2-0.6,0.5-1,0.5s-0.8-0.1-1.1-0.3
		c-0.2-0.1-0.5-0.2-0.6-0.5c-0.3-0.5-0.4-0.5-0.9-0.2c-0.2,0.1-0.3,0.3-0.3,0.5s-0.2,0.4-0.4,0.5c-0.5,0.3-0.9,0.6-1.4,0.9
		c-0.4,0.1-0.4,0.3-0.3,0.5s0.3,0.3,0.5,0.4c0.4,0.4,0.5,0.4,0.8-0.1c0.3-0.4,0.6-0.8,1-1.2c0.2-0.2,0.4-0.4,0.8-0.1
		c1.1,0.8,2.3,0.9,3.6,0.2c0.3-0.2,0.5,0,0.7,0.1c0.4,0.3,0.5,0.3,0.7-0.1c0.1-0.1,0.1-0.2,0.2-0.3c0.2-0.2,0.2-0.5-0.1-0.7
		c-0.1-0.1-0.3-0.2-0.2-0.3c0.3-0.4,0.4-0.8,0.6-1.2C67.1,19.3,67.3,18.8,67.2,18.2z M9.7,11.4c-0.8,0.1-1.6,0.4-2.1,1.1
		c-0.8,0.9-1.2,2.1-1.2,3.3c0,0.2,0,0.4,0.1,0.7c0.2,0.7,0.6,1.3,1,1.9c0.2,0.3,0.1,0.4-0.1,0.6c-0.2,0.2-0.2,0.4,0,0.6
		c0.1,0.1,0.2,0.2,0.3,0.4c0.2,0.2,0.4,0.3,0.6,0c0.3-0.4,0.7-0.4,1.1-0.1l0,0c0.6,0.2,1.2,0.3,1.8,0.1c0.5-0.2,0.9-0.5,1.3-0.8
		c0.3-0.2,0.4-0.2,0.6,0c0.5,0.4,0.9,0.9,1.3,1.4c0.2,0.3,0.4,0.2,0.5,0c0.2-0.2,0.4-0.4,0.5-0.6c0.2-0.2,0.2-0.3-0.1-0.5
		c-0.7-0.5-1.6-0.7-2.1-1.6c-0.3-0.5-0.8-0.4-1,0.1c-0.1,0.2-0.3,0.4-0.5,0.5s-0.5,0.2-0.7,0.3c-0.5,0.1-1,0.1-1.4-0.2
		c-0.1-0.1-0.2-0.2,0-0.3c0.9-1,1.8-2,2.7-3c0.4-0.4,0.4-0.4,0.8-0.1l0.1,0.1c0.2,0.2,0.4,0.2,0.6,0c0.2-0.2,0.4-0.4,0.6-0.6
		c0.2-0.2,0.2-0.4,0-0.6c-0.2-0.2-0.4-0.4-0.7-0.6c-0.1-0.1-0.2-0.2-0.1-0.3c0.3-0.4-0.1-0.5-0.2-0.8c-0.2-0.2-0.3-0.2-0.5,0
		c-0.1,0.2-0.3,0.2-0.5,0.1c-0.1,0-0.1-0.1-0.2,0c-0.5,0.1-1,0.2-1.6,0.4c-0.3,0.1-0.3,0.2-0.1,0.4s0.5,0.5,0.7,0.7
		c0.2,0.1,0.2,0.3,0,0.4c-0.1,0.2-0.3,0.3-0.4,0.5c-0.7,0.9-1.5,1.6-2.2,2.5c-0.1,0.1-0.2,0.2-0.3,0c-0.8-1.3-1.1-2.7,0.1-4.1
		c0.4-0.4,0.9-0.8,1.3-1.2c0.1-0.1,0.2-0.2,0.1-0.3C9.9,11.4,9.8,11.4,9.7,11.4z M20.8,29.4c0.2,0.3,0.1,0.6,0.1,0.9
		c0,0.2,0,0.3,0.2,0.4c0.2,0,0.2-0.1,0.3-0.2c0.1-0.3,0.3-0.5,0.5-0.8c0,0.4,0.1,0.7-0.4,0.9c-0.2,0.1-0.1,0.2,0,0.3
		c0.3,0.1,0.5,0.2,0.8,0.2c0.1,0,0.2-0.1,0.2-0.2c-0.2-0.4,0.1-0.9,0.1-1.3c0.1-0.3,0-0.6,0.3-0.9c0.2-0.2,0.2-0.3-0.1-0.4
		c-0.4-0.2-0.6-0.1-0.8,0.3c-0.1,0.2-0.2,0.3-0.3,0.5c0,0.1,0,0.2-0.2,0.1c-0.1,0-0.1-0.1-0.1-0.2c0-0.2,0-0.5,0-0.7
		c0-0.4-0.6-0.7-0.9-0.5c-0.1,0-0.1,0.1-0.1,0.2c0.2,0.5,0,1-0.2,1.4c-0.1,0.2,0,0.5-0.3,0.7c-0.1,0-0.1,0.2,0,0.3
		c0.2,0.2,0.4,0.1,0.6,0.1c0.1,0,0.1-0.1,0.1-0.2C20.6,30,20.7,29.7,20.8,29.4z M18.6,28.5c-0.1,0.3-0.1,0.6-0.3,0.8
		c-0.4,0.5-0.4,0.5,0.2,0.7c0.1,0,0.2,0.1,0.3,0.1c0.2,0,0.3-0.1,0.3-0.3c-0.1-0.2,0-0.4,0.1-0.6c0.2-0.4,0.2-0.9,0.6-1.3
		c0.1-0.1,0.1-0.4-0.2-0.5c-0.2,0-0.3-0.1-0.5-0.2s-0.4-0.1-0.4,0.2c0,0.2,0.2,0.4-0.1,0.5c-0.2,0.1-0.3,0.3-0.5,0.3
		c-0.1,0-0.2,0-0.2-0.1c0.1-0.2,0.1-0.4,0.3-0.5c0.4-0.5,0.4-0.6-0.3-0.7h-0.1c-0.3,0-0.4,0.1-0.3,0.4c0,0.1,0.1,0.2,0.1,0.3
		c-0.1,0.3-0.2,0.6-0.3,0.8c-0.1,0.2-0.1,0.5-0.4,0.6c-0.2,0.1-0.2,0.3,0,0.4s0.4,0.2,0.6,0.2c0.2,0,0.3-0.1,0.3-0.3
		c0-0.2,0-0.3,0.1-0.4C18.1,28.8,18.3,28.7,18.6,28.5z M28.5,30.9c-0.1,0.3,0,0.6-0.2,0.8c-0.2,0.3-0.1,0.4,0.2,0.4
		c0.2,0.1,0.4,0,0.6,0c0.1,0,0.2-0.1,0.1-0.2c-0.2-0.2-0.1-0.5,0-0.7c0.1-0.4,0-0.9,0.3-1.3c0-0.1,0.1-0.1,0-0.2
		c-0.2-0.1-0.4-0.2-0.6-0.2c-0.2,0-0.3,0.1-0.3,0.3c-0.1,0.2-0.2,0.4-0.3,0.6c0,0.1,0,0.1-0.1,0.1s-0.1-0.1-0.1-0.1
		c0-0.2-0.1-0.5-0.1-0.7c0-0.3-0.6-0.6-0.8-0.4c-0.1,0.1-0.1,0.1-0.1,0.2c0.2,0.7-0.1,1.4-0.4,2c-0.1,0.2-0.1,0.4,0.2,0.4
		c0.1,0,0.2,0,0.3,0c0.3,0,0.4-0.1,0.2-0.3c-0.1-0.3,0.1-0.6,0.1-0.9c0,0.3,0.2,0.6,0.2,0.9c0,0.1-0.1,0.3,0.1,0.4
		c0.2,0,0.2-0.1,0.3-0.3C28.2,31.4,28.2,31.1,28.5,30.9z M37.3,31.2c0,0.8,0.6,1.4,1.3,1.4c0.6,0,1.2-0.6,1.2-1.3
		c0-0.7-0.6-1.3-1.2-1.3C37.9,29.9,37.3,30.5,37.3,31.2z M44.8,32c0.7,0,1.2-0.5,1.1-1.3s-0.5-1.3-1.2-1.3c-0.6,0-1.2,0.6-1.1,1.3
		C43.7,31.5,44.2,32,44.8,32z M32.7,31.1c0-0.1,0-0.2,0-0.4c-0.1-0.7-0.8-1.1-1.5-0.7c-0.6,0.3-0.9,1.4-0.5,2s1.1,0.7,1.6,0.3
		C32.6,32,32.7,31.6,32.7,31.1z M47.9,29c-0.2,0.1-0.5,0.1-0.8,0.2c-0.1,0-0.2,0.1-0.1,0.3c0.3,0.3,0.3,0.7,0.4,1.1
		c0.1,0.3,0.2,0.6,0.1,0.9c-0.1,0.2,0.2,0.2,0.3,0.2c0.2-0.1,0.4-0.1,0.6-0.2c0.7-0.2,0.9-0.8,0.4-1.3c-0.1-0.1-0.1-0.1-0.1-0.2
		C48.8,29.4,48.5,29,47.9,29z M35.9,32.5c0.4,0,0.5-0.1,0.3-0.5c-0.1-0.3-0.3-0.6-0.4-0.9s-0.2-0.6-0.3-0.9
		c-0.1-0.2-0.2-0.3-0.4-0.3c-0.2,0-0.3,0.2-0.3,0.3c-0.1,0.2-0.2,0.4-0.3,0.6c-0.2,0.5-0.3,1-0.7,1.4c-0.1,0.1,0,0.3,0.2,0.4
		c0.3,0.1,0.5,0,0.6-0.3s0.2-0.6,0.3-0.8c0-0.1,0-0.2,0.1-0.2s0.1,0.1,0.1,0.2c0.1,0.2,0.2,0.5,0.3,0.7
		C35.5,32.4,35.7,32.5,35.9,32.5z M50.5,31c0.2,0,0.4,0,0.5-0.2s0-0.3-0.1-0.4s0-0.2,0.1-0.2c0.1-0.1,0.2-0.1,0.3-0.1
		c0.1,0,0.1,0.1,0.1,0.2s-0.1,0.3,0.1,0.3s0.4,0,0.7-0.1c0.2-0.1,0.2-0.2,0.1-0.4c-0.5-0.5-0.8-1-1.2-1.6c-0.1-0.1-0.1-0.2-0.3-0.2
		c-0.2,0-0.2,0.2-0.2,0.3c-0.1,0.7,0,1.4-0.2,2.1C50.2,30.9,50.2,31,50.5,31z M42.1,30.3c0.1,0,0.2,0.1,0.2,0.2
		c0.1,0.2,0.2,0.2,0.3,0.1c0.2-0.1,0.2-0.2,0.1-0.3c-0.1-0.5-0.1-0.5-0.6-0.5c-0.1,0-0.3,0-0.4,0c-0.3-0.1-0.6,0-0.9,0.1
		c-0.2,0.1-0.3,0.6-0.1,0.8c0.1,0.1,0.2,0.1,0.3,0c0.1-0.1,0-0.4,0.2-0.3s0,0.3,0.1,0.4c0,0,0,0,0,0.1c0,0.4,0.2,0.8-0.1,1.3
		c-0.1,0.1,0,0.2,0.1,0.2c0.2,0,0.5,0,0.7,0s0.3-0.2,0.1-0.3L42,32C42.1,31.4,42,30.8,42.1,30.3z M25,30.8c0.3,0.1,0.4-0.1,0.4-0.4
		c0-0.2,0-0.4-0.3-0.4c-0.2,0-0.4-0.1-0.6-0.2c-0.1,0-0.3,0-0.4,0c-0.2,0-0.2,0.2-0.2,0.3c0,0.1-0.1,0.4,0.1,0.4
		C24.4,30.6,24.7,30.8,25,30.8z"/>
	<path class="st0" d="M39.7,16.6c-0.2,0-0.3-0.1-0.4-0.4c-0.4-0.9-0.1-1.7,0.4-2.4c0.5-0.6,0.9-1.1,1.6-1.5c0.3-0.2,0.7-0.3,1.1-0.2
		c0.3,0.1,0.3,0.2,0.1,0.4c-0.2,0.3-0.4,0.6-0.7,0.8c-0.7,0.7-1.2,1.5-1.5,2.4C40.4,16.4,40,16.6,39.7,16.6z"/>
	<path class="st0" d="M38.9,31.2c0,0.2,0,0.4,0,0.5c0,0.2-0.2,0.4-0.4,0.3c-0.1,0-0.3-0.1-0.3-0.4c0-0.4-0.1-0.7,0-1.1
		c0-0.2,0.1-0.3,0.3-0.3c0.2,0,0.3,0.1,0.4,0.2C39,30.8,38.9,31,38.9,31.2z"/>
	<path class="st0" d="M45.2,30.9c0,0.3,0,0.7-0.4,0.7c-0.3,0-0.3-0.4-0.4-0.7c-0.1-0.3-0.1-0.6,0-0.9c0-0.1,0.1-0.2,0.2-0.2
		c0.1-0.1,0.2,0,0.3,0.1C45.2,30.2,45.2,30.6,45.2,30.9z"/>
	<path class="st0" d="M31.9,31.1c0,0.2,0,0.5-0.1,0.8c0,0.1-0.1,0.2-0.2,0.2c-0.1,0-0.2-0.1-0.2-0.2c-0.1-0.2,0-1.3,0.1-1.5
		c0.1-0.1,0.2-0.2,0.3-0.1c0.1,0,0.2,0.2,0.2,0.3C31.9,30.7,31.9,30.9,31.9,31.1z"/>
	<path class="st0" d="M48.3,30.8c0,0.2,0,0.3-0.1,0.3c-0.3-0.1-0.1-0.4-0.2-0.5c0,0,0-0.1,0.1-0.1C48.2,30.5,48.3,30.7,48.3,30.8z"
		/>
	<path class="st0" d="M47.7,29.7c0-0.1,0-0.2,0.1-0.2c0.2,0,0.1,0.2,0.1,0.3c0,0.1,0,0.2-0.1,0.2S47.7,29.8,47.7,29.7z"/>
	<path class="st0" d="M50.8,29.5c0-0.1,0-0.2,0.1-0.2c0.2,0,0.1,0.2,0.1,0.3c0,0.1,0,0.2-0.1,0.2C50.8,29.7,50.8,29.6,50.8,29.5z"/>
</g>
</svg>
