<!-- Generator: Adobe Illustrator 21.1.0, SVG Export Plug-In  -->
<svg version="1.1"
	 xmlns="http://www.w3.org/2000/svg" xmlns:xlink="http://www.w3.org/1999/xlink" xmlns:a="http://ns.adobe.com/AdobeSVGViewerExtensions/3.0/"
	 x="0px" y="0px" width="25.8px" height="35.1px" viewBox="0 0 25.8 35.1" style="enable-background:new 0 0 25.8 35.1;"
	 xml:space="preserve">
<style type="text/css">
	.st0{fill:#020202;}
</style>
<defs>
</defs>
<path class="st0" d="M25.4,29.1c-1.4-1.3-2.5-2.8-3.4-4.5c-0.4-0.8-0.7-1.6-1-2.5c0-0.1,0-0.2,0.1-0.2c0.1-0.1,0.2-0.2,0.3-0.3
	c0.3-0.5,0-1.3-0.6-1.3c0-0.1,0.1,0,0.1-0.1c0.3-0.1,0.5-0.3,0.6-0.7c0.1-0.3,0-0.6-0.3-0.9c-0.1-0.1-0.3-0.1-0.4-0.2h0.1
	c0.4-0.1,0.7-0.5,0.7-1c0-0.4-0.4-0.7-0.9-0.8c0-0.9,0-1.7,0.1-2.6c0.1-1,0.1-1.9,0.3-2.9c0.2-1.2,0.5-2.5,0.9-3.7
	c0.6-1.7,1.4-3.2,2.7-4.4C24.8,2.9,25,2.8,25,2.6l0,0l0,0l0,0c-0.1,0-0.1,0-0.1,0.1c-1.5,0.9-2.8,1.9-4,3.2c-0.6,0.6-1.1,1.2-1.5,2
	c-0.6,1.2-1.1,2.4-1.5,3.7c-0.1,0.4-0.2,0.9-0.3,1.3v-0.1c0-0.5,0-1.1,0-1.6c0-0.9,0.1-1.9,0.3-2.8c0.2-1.1,0.6-2.2,1-3.3
	c0.8-1.8,1.7-3.4,3-4.9c0,0,0.1,0,0-0.1l-0.1,0.1c-0.9,0.6-1.7,1.4-2.4,2.2c-1.1,1.1-2,2.4-2.8,3.7c-0.6,1-1.1,2-1.4,3s-0.4,2-0.6,3
	c0,0.3-0.1,0.6-0.1,0.9c0-0.1,0-0.2,0-0.3c0-0.9-0.1-1.7-0.1-2.6c-0.1-1.2-0.1-2.3,0-3.5c0.1-1.1,0.2-2.2,0.5-3.3
	c0.2-0.9,0.6-1.7,1-2.5c0.2-0.3,0.3-0.5,0.5-0.8l0,0c0,0-0.1,0-0.1,0.1c-0.6,0.5-1,1-1.5,1.6c-1.1,1.4-1.8,3-2.3,4.7
	c-0.1,0.2-0.1,0.5-0.2,0.8c-0.7-1.9-1.5-3.8-2.8-5.4c1,2.6,1.2,5.3,1.1,8c-0.2-0.7-0.4-1.5-0.7-2.2C9.4,6.5,8.8,5.4,8.1,4.4
	C7.3,3.4,6.4,2.6,5.3,2C5,1.9,4.7,1.7,4.4,1.7c0.1,0,0.1,0.1,0.2,0.1s0.1,0.1,0.2,0.1c1,0.8,1.8,1.8,2.3,2.9c0.6,1.4,0.9,2.9,1,4.4
	c0,0.8,0,1.7,0,2.5c0-0.1-0.1-0.1-0.1-0.2c-0.2-0.5-0.4-1-0.6-1.4c-0.5-1-1-1.8-1.7-2.6C5.1,6.8,4.3,6.2,3.5,5.7
	c-1-0.6-2.1-1-3.2-1.3c-0.1,0-0.2,0-0.3-0.1l0.1,0.1c1.5,0.9,2.7,2.2,3.5,3.8c0.7,1.4,1.1,2.9,1.3,4.5C5,13.3,5,13.9,5.1,14.5
	c0,0.7,0.1,1.4,0.1,2.1h0.1H5.2c-0.6,0-1,0.5-0.8,1.1c0.1,0.4,0.4,0.6,0.7,0.6H5c-0.4,0.1-0.7,0.4-0.7,0.8c0,0.4,0.2,0.7,0.6,0.9H5
	c-0.3,0-0.6,0.3-0.7,0.7s0.1,0.8,0.4,0.9c0.1,0.1,0.1,0.1,0.1,0.2C4.5,23,4,24.1,3.3,25.2c-0.8,1.4-1.8,2.6-3,3.6
	c-0.1,0.1-0.1,0.1,0,0.2c0.3,0.4,0.7,0.8,1,1.2c0.1,0.1,0.1,0.1,0.2,0C1.7,30,2,29.7,2.2,29.5c1-1,1.8-2.1,2.6-3.3
	C4.9,26,5,25.8,5.1,25.6v0.1c-0.2,0.6-0.3,1.1-0.5,1.6c-0.5,1.4-1.1,2.8-1.8,4.2c0,0.1,0,0.1,0,0.2C3.2,32,3.6,32.3,4,32.6
	c0.1,0,0.1,0,0.1,0c0.2-0.3,0.4-0.6,0.5-0.8c1-1.6,1.8-3.3,2.5-5.1c0.6-1.6,1-3.2,1.3-4.9c0.1,0,0,0.1,0,0.1
	c-0.1,0.9-0.2,1.8-0.4,2.7c-0.2,1.3-0.5,2.5-0.9,3.8c-0.5,1.7-1.1,3.5-1.9,5.1c0,0.1,0,0.1,0.1,0.2c0.5,0.2,0.9,0.5,1.4,0.7
	c0.1,0,0.1,0,0.1,0C7,34,7.3,33.6,7.5,33.1c0.7-1.3,1.3-2.7,1.8-4.1c0.1-0.4,0.3-0.7,0.4-1.1V28c-0.1,1-0.3,2.1-0.4,3.1
	c-0.2,1.2-0.4,2.3-0.6,3.5c0,0.1,0,0.1,0.1,0.1c0.5,0.1,1,0.2,1.5,0.3c0.1,0,0.2,0,0.2-0.1c0.6-2,1.1-4.1,1.5-6.1
	c0.1-0.4,0.1-0.8,0.3-1.2c0,0,0,0,0,0.1c0,2.4,0,4.8,0,7.2c0,0.1,0,0.1,0.1,0.1c0.5,0,1,0,1.5,0c0.1,0,0.2,0,0.2-0.2
	c0-2.4,0-4.7,0-7.1v-0.1c0.1,0.4,0.1,0.7,0.2,1.1c0.3,1.3,0.6,2.7,0.9,4c0.2,0.8,0.4,1.5,0.6,2.3c0,0.1,0,0.1,0.1,0.1
	c0.5-0.1,1-0.2,1.5-0.3c0.1,0,0.1,0,0.1-0.1c-0.1-0.2-0.1-0.5-0.1-0.7c-0.2-0.8-0.3-1.7-0.4-2.5c-0.1-0.7-0.2-1.5-0.3-2.2
	c-0.1-0.4-0.1-0.8-0.2-1.3c0.1,0.4,0.3,0.8,0.4,1.1c0.7,1.8,1.5,3.6,2.5,5.3c0,0.1,0.1,0.1,0.1,0c0.5-0.2,0.9-0.5,1.4-0.7
	c0.1,0,0.1-0.1,0.1-0.1c-0.5-1.1-0.9-2.2-1.3-3.3c-0.5-1.5-0.9-3-1.3-4.5c-0.2-0.8-0.3-1.7-0.5-2.5c-0.1-0.4-0.1-0.9-0.2-1.3v-0.1
	c0,0.2,0,0.3,0.1,0.5c0.2,1.2,0.5,2.4,0.9,3.6c0.4,1.2,0.9,2.4,1.4,3.6c0.6,1.1,1.2,2.2,1.9,3.3c0,0.1,0.1,0.1,0.2,0
	c0.4-0.3,0.7-0.5,1.1-0.8c0.3-0.2,0.3-0.2,0.1-0.5c-0.8-1.6-1.5-3.3-2-5c-0.1-0.2-0.2-0.4-0.2-0.6l0,0c0.4,0.7,0.8,1.3,1.3,2
	c0.7,0.9,1.4,1.7,2.2,2.4c0.1,0.1,0.1,0.1,0.2,0c0.3-0.4,0.6-0.7,0.9-1C25.6,29.3,25.6,29.3,25.4,29.1z"/>
</svg>
