<!-- Generator: Adobe Illustrator 21.1.0, SVG Export Plug-In  -->
<svg version="1.1"
	 xmlns="http://www.w3.org/2000/svg" xmlns:xlink="http://www.w3.org/1999/xlink" xmlns:a="http://ns.adobe.com/AdobeSVGViewerExtensions/3.0/"
	 x="0px" y="0px" width="20.8px" height="35.8px" viewBox="0 0 20.8 35.8" style="enable-background:new 0 0 20.8 35.8;"
	 xml:space="preserve">
<style type="text/css">
	.st0{fill:#050606;}
</style>
<defs>
</defs>
<g>
	<path class="st0" d="M20.8,5.8c0-1-0.3-2-1-2.8c-1.3-1.5-3-2.1-5-1.8c-0.9,0.1-1.7,0.6-2.2,1.3c-0.5,0.6-0.6,1.3-0.7,2
		c0,0.1,0,0.1-0.2,0.1c-0.5-0.1-1-0.1-1.5-0.1c-0.1,0-0.1-0.1-0.1-0.2c0-0.4,0.1-0.8,0.1-1.1c0.2-1.5-0.8-2.8-2.1-3.1
		C7.9,0.1,7.7,0,7.5,0C7.2,0,6.9,0,6.7,0H6.6C5.4,0.2,4.3,0.7,3.3,1.5c-1,0.9-1.5,1.9-1.4,3.3c0.1,0.9,0.5,1.6,1.4,2
		c0,0,0.1,0,0.1,0.1C2.7,7.5,2.1,8.2,1.7,9c-0.6,1.2-0.8,2.5-0.5,3.8c0.3,1.5,1.2,2.6,2.5,3.3c0.1,0.1,0.1,0.1,0.1,0.3
		c-0.8,1-1.5,2-2.2,3.1s-1.3,2.3-1.5,3.7c-0.1,0.7-0.2,1.3,0,2c0.3,0.8,0.6,1.5,1.3,2c0.5,0.4,1,0.3,1.3-0.3
		c0.1-0.1,0.1-0.2,0.2-0.4c0,0,0-0.1,0.1-0.1c0.3,0.3,0.4,0.5,0.3,0.9c0,0.1-0.1,0.3-0.2,0.4C3,28,2.9,28.3,2.9,28.6
		c0,0.5,0.1,1.1,0.4,1.6c0.4,0.9,1.1,1.5,2.1,1.8c0.1,0,0.1,0.1,0.1,0.2c-0.1,0.4-0.2,0.7-0.2,1.1C5.4,33.7,5.6,34,6,34
		c0.3,0,0.6-0.1,0.9-0.2c0.6-0.2,1.1-0.5,1.7-0.7c0.1,0,0.1-0.1,0.2,0c-0.1,0.3-0.1,0.5-0.2,0.7c-0.2,1,0.2,1.7,1.1,1.9
		c0.1,0,0.2,0,0.3,0.1c0.3,0,0.6,0,0.9,0c0,0,0,0,0.1,0c1.1-0.1,2.2-0.6,3.1-1.2c0.2-0.2,0.4-0.4,0.6-0.6c0-0.1,0.1-0.1,0.1-0.2
		c0-0.3,0.1-0.7,0.1-1c0-0.6,0.2-1.1,0.6-1.6c0.2-0.3,0.4-0.5,0.6-0.8c0.3-0.4,0.6-0.9,0.7-1.4c0.1-0.3,0.1-0.6,0.1-0.9
		c0.1-0.4,0.1-0.8,0-1.2c-0.1-0.7-0.4-1.4-0.7-2.1c-0.4-0.7-0.8-1.4-1.1-2.2c-0.1-0.2-0.2-0.4-0.2-0.6c-0.2-1.1-0.1-2.3,0-3.4
		c0-0.4,0.2-0.7,0.5-0.9c0.2-0.2,0.4-0.3,0.7-0.5c0.3-0.2,0.6-0.4,0.9-0.5c0.2-0.2,0.5-0.3,0.7-0.5c0.7-0.8,1.1-1.8,1.1-2.9
		c0-1.1-0.3-2.1-0.6-3.1C18.1,10,18,9.7,17.9,9.5c0.1,0,0.1,0,0.2,0c1-0.2,1.7-0.7,2.2-1.6C20.7,7.3,20.8,6.6,20.8,5.8z M1.4,26.7
		C1.3,26.6,1.4,26.6,1.4,26.7c0.2-0.1,0.2-0.1,0.2,0c0,0.2,0.1,0.4,0.1,0.6C1.5,27.1,1.5,26.9,1.4,26.7z M1.6,27.3L1.6,27.3
		L1.6,27.3L1.6,27.3z M2.1,26.6c0,0.2-0.1,0.5-0.1,0.7l0,0c0-0.2,0-0.5-0.1-0.7C1.9,26.5,2,26.5,2.1,26.6
		C2.1,26.5,2.1,26.5,2.1,26.6z M2.3,27.3C2.3,27.3,2.3,27.4,2.3,27.3C2.2,27.3,2.2,27.3,2.3,27.3c-0.1-0.2,0-0.3,0-0.5
		c0-0.3,0-0.3,0.3-0.2C2.5,26.8,2.4,27,2.3,27.3z M5.9,33.3c-0.1,0.1-0.1,0.2-0.2,0.3l0,0c0-0.1,0.1-0.2,0.1-0.3
		C5.8,33.2,5.8,33.2,5.9,33.3C6,33.2,6,33.3,5.9,33.3z M6,33.7L6,33.7c0.1-0.1,0.2-0.2,0.2-0.3c0.1-0.1,0.1,0,0.1,0s0.1,0.1,0,0.1
		C6.3,33.6,6.2,33.6,6,33.7z M6.9,33.7c-0.2,0.1-0.3,0.1-0.5,0.2l0,0c0.1-0.1,0.3-0.2,0.4-0.3C6.9,33.5,6.9,33.5,6.9,33.7
		C7,33.7,6.9,33.7,6.9,33.7z M9.9,34.8c-0.1,0.2-0.3,0.4-0.4,0.5l0,0c0.1-0.2,0.1-0.4,0.2-0.6C9.7,34.6,9.8,34.7,9.9,34.8
		C9.8,34.7,9.9,34.7,9.9,34.8z M10,35.5L10,35.5c0.1-0.2,0.3-0.4,0.5-0.6c0,0,0-0.1,0.1-0.1c0.1,0.1,0.1,0.1,0.2,0.2
		c0,0,0,0.1-0.1,0.1C10.4,35.2,10.2,35.4,10,35.5z M11.5,35.4c-0.3,0.1-0.6,0.2-0.9,0.3l0,0c0.3-0.2,0.5-0.4,0.8-0.6
		C11.6,35,11.6,35.2,11.5,35.4C11.7,35.4,11.6,35.4,11.5,35.4z M11.8,28.1c0.1-0.2,0.1-0.3,0.2-0.5c0-0.1,0.1,0,0.2,0
		c0.1,0,0.1,0.1,0,0.1C12.1,27.8,12,28,11.8,28.1z M12.2,28.4L12.2,28.4L12.2,28.4L12.2,28.4c0.1-0.2,0.3-0.4,0.5-0.6
		c0.1-0.1,0.1,0.1,0.2,0.1c0.1,0,0,0.1,0,0.1C12.6,28.1,12.4,28.2,12.2,28.4z M12.9,28.5c0.2-0.1,0.4-0.3,0.6-0.4c0.1,0,0.1,0,0.1,0
		c0,0.1,0.1,0.1,0.1,0.2C13.4,28.4,13.2,28.5,12.9,28.5z M14.4,23.2L14.4,23.2c-0.4,0.3-0.7,0.6-0.8,0.9c-0.3,0.5-0.4,1.1-0.6,1.6
		c-0.1,0.2-0.1,0.4-0.2,0.5c0,0.1-0.1,0.2-0.2,0.2c-0.1,0-0.1-0.2-0.1-0.3c0.1-0.8,0.3-1.5,0.7-2.2c0.2-0.3,0.3-0.5,0.6-0.7
		C14,23,14.2,23,14.5,23h0.1C14.4,23.2,14.4,23.2,14.4,23.2z M19.9,7.4c-0.2,0.9-0.8,1.3-1.7,1.4c-0.4,0-0.8,0-1.2,0
		c-0.1,0-0.2,0-0.3,0s-0.1,0-0.1,0.1c0.3,0.5,0.6,1.1,0.9,1.7c0.3,0.7,0.6,1.4,0.7,2.1c0.3,2-1.1,4-3.1,4.4c-0.3,0.1-0.6,0-0.9-0.1
		c-0.3,0-0.6-0.1-1-0.1c-0.7-0.1-1.4,0.2-1.9,0.7c-0.7,0.6-1.2,1.4-1.5,2.3C9.1,22,9.2,24,10,26c0.2,0.5,0.4,1,0.6,1.5
		c0.1,0.3,0.1,0.6-0.1,0.9c-0.3,0.4-0.5,0.8-0.7,1.2c-0.2,0.3-0.2,0.6-0.3,0.9c0,0.5,0,1-0.1,1.5c0,0.1,0,0.3-0.1,0.4
		c-0.1,0.2-0.3,0.3-0.5,0.2c-0.2-0.1-0.3-0.2-0.4-0.3c-1.2-1-2.2-2-3.1-3.3c-0.9-1.4-1.6-2.9-1.8-4.5c-0.2-1.3-0.1-2.7,0.3-4
		c0.3-1.4,0.9-2.8,1.5-4.1c0-0.1,0.1-0.1,0-0.2c-1.6-0.4-2.6-1.5-3-3.1S2.1,10,3.1,8.6c0.5-0.7,1.2-1.2,2.1-1.4
		c0.1,0,0.2-0.1,0.2-0.2c0-0.1-0.1-0.1-0.2-0.2C4.8,6.7,4.5,6.5,4.1,6.4C3.4,6.2,3,5.7,2.9,5C2.7,4,3,3.2,3.6,2.4
		c0.8-1,1.9-1.5,3.2-1.6c0.4,0,0.8,0,1.1,0c0.9,0.1,1.4,0.7,1.6,1.6C9.6,3,9.6,3.6,9.4,4.2C9.3,4.4,9.3,4.6,9.3,4.8
		C9.3,5,9.4,5,9.6,5c0.9,0.1,1.8,0.1,2.6,0.5c0.3,0.1,0.6,0.2,1,0.4c-0.2-0.4-0.3-0.8-0.3-1.2c-0.1-0.4-0.1-0.8,0-1.2
		c0.1-0.7,0.6-1.1,1.2-1.4c0.9-0.4,1.8-0.5,2.8-0.2c1.3,0.3,2.3,0.9,2.9,2.1C20.1,5.2,20.2,6.3,19.9,7.4z"/>
	<path class="st0" d="M14.9,10.5C14.8,10.5,14.8,10.5,14.9,10.5c-0.1-0.2-0.1-0.4,0-0.5c0.1-0.7,0-1.4-0.5-2c-0.3-0.3-0.6-0.6-1-0.9
		c-0.8-0.5-1.7-0.8-2.6-0.9c-1-0.1-2-0.1-3,0.2c-1,0.4-1.6,1-1.7,2.1c0,0.1,0,0.2-0.1,0.3C6,8.9,5.9,9,5.8,9C5.4,9,5.1,9.1,4.7,9.2
		c-1,0.3-1.7,1-2,2.1C2.5,12.2,2.6,13.2,3,14c0.2,0.6,0.6,1,1.1,1.3c0.4,0.2,0.8,0.5,1.2,0.8c0.2,0.1,0.3,0.3,0.3,0.5
		c0,0.8,0.1,1.5,0.2,2.3C6,20,6.3,21.1,6.9,22.1c0.2,0.3,0.2,0.3,0.3,0c0.5-0.7,0.8-1.4,1.2-2.2c0.3-0.7,0.7-1.4,1.2-1.9
		c0.6-0.6,1.2-1.1,2.1-1.3c0.5-0.1,1.1-0.1,1.6-0.1s1,0,1.5-0.1c0.8-0.1,1.4-0.5,1.7-1.1c0.5-1,0.7-2,0.4-3.1
		C16.6,11.3,16,10.6,14.9,10.5z M7.9,8.8c0.2-0.3,0.5-0.4,0.9-0.4c0.3,0,0.5,0.1,0.6,0.4C9.5,9,9.6,9.2,9.6,9.5c0,0.1,0,0.1-0.1,0.1
		s-0.1,0-0.2,0c-0.1,0-0.2,0-0.2-0.1C9,9.3,8.9,9,8.6,9S8.2,9.2,8.1,9.5v0.1C7.8,9.3,7.7,9,7.9,8.8z M11.7,14.4
		c-0.6,0.4-1.2,0.5-1.8,0.5c-0.8,0-1.5-0.2-2.2-0.7c-1.3-1-1.3-2.6,0-3.6C8.4,10.1,9.2,10,10,10c0.6,0,1.2,0.2,1.7,0.5
		C13.2,11.5,13.2,13.4,11.7,14.4z M13.3,10.2C13.3,10.3,13.3,10.3,13.3,10.2c-0.2,0.1-0.3,0.2-0.4,0c-0.1-0.2-0.2-0.3-0.3-0.4
		c-0.2-0.2-0.4-0.2-0.6,0c-0.1,0.1-0.2,0.2-0.3,0.3c0,0.1-0.1,0.1-0.2,0.1c-0.1,0-0.2,0-0.2-0.2c0-0.6,0.3-0.9,0.9-0.9
		c0.6,0,1,0.4,1,1C13.3,10.1,13.3,10.1,13.3,10.2z"/>
	<path class="st0" d="M18,3.2c-0.8-0.7-1.7-1-2.8-0.8c-1.2,0.2-2.1,1-2,2.3c0,0.2,0,0.4,0.1,0.6c0.1,0.2,0.1,0.4,0.4,0.5
		c0.2,0.1,0.4,0,0.5-0.2c0.1-0.1,0.1-0.3,0.1-0.5c0-0.3,0-0.5,0.2-0.8c0.3-0.5,0.7-0.7,1.3-0.8c1,0,2,0.6,2.5,1.6
		c0.3,0.6,0.2,1.2-0.1,1.8c-0.3,0.5-0.7,0.9-1.1,1.2c-0.1,0.1-0.1,0.3,0,0.4c0.1,0.1,0.2,0.1,0.3,0.1c1.2,0.1,2.4-0.5,2.5-2.1
		C19.7,5.2,19,4.1,18,3.2z"/>
	<path class="st0" d="M5.6,6.6C5.5,6.4,5.4,6.3,5.3,6.2C5.1,6,4.9,5.7,4.7,5.5C4.5,5.2,4.3,4.9,4.3,4.6c0-0.2,0-0.4,0.1-0.7
		c0.4-1,1.7-1.7,2.7-1.4c0.8,0.2,1.2,0.9,1,1.8C8.1,4.5,8,4.7,8,4.9C8,5,8.1,5.2,8.2,5.2c0.1,0.1,0.3,0,0.4-0.1C8.7,5,8.7,5,8.8,4.9
		C9.1,4.3,9.3,3.7,9.1,3C8.8,1.8,7.7,1.2,6.5,1.3c-1.1,0.1-2,0.6-2.7,1.5C3.4,3.3,3.1,3.9,3.1,4.6s0.2,1.2,0.7,1.6
		C4.3,6.7,4.8,6.8,5.6,6.6C5.7,6.8,5.7,6.7,5.6,6.6z"/>
	<path class="st0" d="M8.6,24c-0.4-0.2-0.8-0.2-1.2,0.1c-0.1,0.1-0.1,0.1-0.2,0c-0.4-0.3-0.9-0.3-1.3,0c-0.1,0.1-0.2,0.1-0.2,0
		c-0.5-0.4-1.2-0.2-1.5,0.2c-0.3,0.5-0.2,1.2,0.3,1.5c0.2,0.1,0.4,0.2,0.3,0.5c0,0.5,0.2,0.8,0.6,1c0.4,0.2,0.8,0.1,1.1-0.1
		c0.1-0.1,0.1-0.1,0.2,0c0.4,0.3,0.9,0.3,1.3,0.1c0.4-0.2,0.6-0.7,0.5-1.2c0-0.1,0-0.1,0.1-0.2C9,25.7,9.3,25.4,9.3,25
		C9.2,24.5,9,24.2,8.6,24z M4.8,25.6c-0.3-0.1-0.5-0.4-0.5-0.7c0-0.2,0.1-0.4,0.4-0.6c0.3-0.1,0.5-0.1,0.7,0.1
		c0.1,0.1,0.1,0.1,0.1,0.2c-0.1,0.2-0.1,0.4,0,0.5c0,0.1,0,0.1-0.1,0.1s-0.2,0.1-0.3,0.2C5,25.6,4.9,25.6,4.8,25.6z M6.3,26.6
		c0,0.1,0,0.2-0.1,0.2C6,27,5.7,27,5.5,26.9c-0.3-0.1-0.4-0.3-0.4-0.6c0-0.3,0.1-0.4,0.3-0.5c0.1-0.1,0.3-0.2,0.4-0.2
		c0.1,0,0.2,0.2,0.4,0.2c0.1,0,0.2,0.1,0.2,0.3C6.2,26.3,6.2,26.4,6.3,26.6z M6.2,25.3c-0.1,0-0.2-0.1-0.1-0.3c0-0.1,0-0.3,0-0.4
		c0-0.1,0-0.2,0.1-0.3s0.3-0.1,0.4-0.1c0.2,0,0.3,0.1,0.4,0.2c0.1,0.1,0.2,0.2,0.1,0.3c0,0.1,0,0.3,0,0.4c0,0.1,0,0.2-0.1,0.2
		C6.7,25.4,6.4,25.4,6.2,25.3z M7.6,27c-0.3,0.1-0.6,0-0.8-0.2c0-0.1-0.1-0.1-0.1-0.2c0.1-0.2,0.1-0.4,0-0.6c0-0.1,0-0.1,0.1-0.1
		l0,0c0.2,0,0.3-0.3,0.5-0.2c0.2,0.1,0.3,0.2,0.5,0.3C8,26.1,8,26.2,8,26.4C8,26.6,7.8,26.9,7.6,27z M8.4,25.5
		c-0.2,0.1-0.3,0.1-0.5,0c-0.3-0.2-0.3-0.3-0.3-0.6c0-0.1-0.1-0.3,0-0.4c0.1-0.1,0.3-0.2,0.5-0.2c0.4,0,0.7,0.3,0.7,0.7
		C8.8,25.2,8.6,25.4,8.4,25.5z"/>
	<path class="st0" d="M11.7,11.5c-0.2,0.1-0.4,0.4-0.5,0.6c-0.4,0.4-0.9,0.5-1.4,0.3c-0.6-0.3-1-0.7-1.3-1.3c-0.1-0.1-0.1-0.1-0.2,0
		c-0.2,0.1-0.2,0.3-0.1,0.5c0.1,0.8,0.5,1.3,1.3,1.6c0.3,0.1,0.6,0.2,0.9,0.2c0.1,0,0.2,0,0.3,0c0.8-0.1,1.6-0.7,1.5-1.7
		C11.9,11.4,11.9,11.4,11.7,11.5z"/>
	<path class="st0" d="M10.4,11.6c0.2,0,0.3,0,0.5-0.1c0.3-0.2,0.4-0.6,0.1-0.8c-0.4-0.4-1-0.5-1.5-0.4s-0.6,0.5-0.2,0.9
		C9.6,11.4,10,11.5,10.4,11.6z"/>
</g>
</svg>
