<!-- Generator: Adobe Illustrator 21.1.0, SVG Export Plug-In  -->
<svg version="1.1"
	 xmlns="http://www.w3.org/2000/svg" xmlns:xlink="http://www.w3.org/1999/xlink" xmlns:a="http://ns.adobe.com/AdobeSVGViewerExtensions/3.0/"
	 x="0px" y="0px" width="33.4px" height="35.3px" viewBox="0 0 33.4 35.3" style="enable-background:new 0 0 33.4 35.3;"
	 xml:space="preserve">
<style type="text/css">
	.st0{fill:#050505;}
	.st1{fill:#0E0E0E;}
</style>
<defs>
</defs>
<g>
	<path class="st0" d="M14.1,28.7c0.4-2.4,0.8-4.7,1.2-6.9c0.1-0.5,0.2-0.7,0.7-0.6c0.7,0.2,1.5-0.3,1.9,0.2c0.4,0.4,0.3,1.3,0.4,2
		c0.3,1.7,0.6,3.5,0.9,5.3c1.7-1.2,3.3-2.4,4.8-3.6c0.3-0.2,0.5-0.5,0.9,0s0,0.6-0.3,0.9c-1.5,1.1-3,2.3-4.5,3.4
		c-0.4,0.3-0.6,0.5-0.4,1c0.3,0.6,0.2,1.3,0,1.9c-0.1,0.3-0.2,0.6,0.3,0.6c0.8-0.1,0.8,0.4,0.7,0.9c0,0.3,0,0.6,0,0.9
		c0.1,0.5-0.2,0.6-0.7,0.6c-2.4,0-4.8,0-7.2,0c-0.5,0-0.7-0.1-0.7-0.6c0-0.4,0-0.7,0-1.1c0-0.5,0-0.8,0.6-0.7
		c0.6,0.1,0.6-0.2,0.5-0.7c-0.1-0.4-0.2-1,0-1.3c0.4-1-0.1-1.4-0.8-1.8c-1.3-0.9-2.6-1.9-3.9-2.9c-0.3-0.2-0.8-0.3-0.4-0.9
		c0.4-0.6,0.7-0.2,1,0C10.9,26.3,12.4,27.4,14.1,28.7z"/>
	<path class="st0" d="M12.6,16.6c0-2.3,1.8-4.1,4.1-4.1s4.1,1.8,4.1,4.1s-1.9,4.2-4.2,4.1C14.4,20.7,12.6,18.9,12.6,16.6z"/>
	<path class="st0" d="M3.6,5.5c1.9,0,3.5,1.7,3.5,3.6c-0.1,2-1.7,3.5-3.6,3.5C1.6,12.6,0,10.9,0,9C0,7,1.6,5.5,3.6,5.5z"/>
	<path class="st0" d="M33.4,9.1c0,2-1.6,3.5-3.6,3.5c-1.9,0-3.5-1.6-3.5-3.6c0-1.9,1.6-3.5,3.6-3.5C31.8,5.5,33.4,7.1,33.4,9.1z"/>
	<path class="st0" d="M13.6,3.1C13.6,1.4,15,0,16.7,0c1.7,0,3.1,1.4,3.1,3.1c0,1.7-1.5,3.2-3.2,3.2C15,6.2,13.6,4.8,13.6,3.1z"/>
	<path class="st0" d="M31,22.9c0,1.7-1.4,3.1-3.1,3.1c-1.7,0-3.1-1.4-3.1-3.1c0-1.7,1.4-3.2,3.2-3.1C29.7,19.8,31,21.2,31,22.9z"/>
	<path class="st0" d="M8.6,22.9c0,1.7-1.3,3.1-3,3.2c-1.7,0-3.1-1.3-3.2-3c0-1.8,1.3-3.2,3.1-3.2C7.2,19.8,8.6,21.1,8.6,22.9z"/>
	<path class="st0" d="M2.1,35.1c-1.7,0-1.7,0-1.2-1.6c0.8-2.3,1.6-4.6,2.3-6.9c0.2-0.5,0.3-0.7,0.8-0.4c0.1,0.1,0.3,0.1,0.4,0.2
		c0.4,0.2,1.1-0.1,1.3,0.4c0.1,0.3-0.2,0.9-0.3,1.3c-0.5,2-1,3.9-1.4,5.9c-0.2,1-0.5,1.4-1.5,1.2C2.4,35.1,2.2,35.1,2.1,35.1z"/>
	<path class="st0" d="M31.3,35.1c-1.6,0-1.6,0-2-1.6c-0.5-2.1-1-4.3-1.6-6.4c-0.1-0.5-0.1-0.6,0.4-0.6c0.3,0,0.6,0,0.8-0.1
		c1.1-0.7,1.2,0,1.5,0.8c0.7,2.3,1.5,4.6,2.3,6.9c0.4,1.1,0.3,1.1-0.8,1.1C31.7,35.1,31.5,35.1,31.3,35.1z"/>
	<path class="st1" d="M20.4,4.2c0.1,0.1,0.3,0.1,0.4,0.2c1.6,0.8,3.3,1.5,4.9,2.2c0.4,0.2,0.6,0.3,0.4,0.8c-0.3,0.7-0.6,0.3-0.9,0.2
		c-1.7-0.8-3.3-1.5-5-2.3c-0.2-0.1-0.6-0.1-0.4-0.5C20,4.6,20,4.2,20.4,4.2z"/>
	<path class="st1" d="M13.6,4.9c0,0.3-0.2,0.3-0.4,0.4c-1.7,0.8-3.4,1.6-5.1,2.3C7.8,7.8,7.6,7.8,7.4,7.4S7.2,6.8,7.7,6.6
		c1.7-0.8,3.4-1.5,5.1-2.3C13.5,4,13.3,4.7,13.6,4.9z"/>
	<path class="st1" d="M26.5,11.2c0.1,0.2-0.2,0.3-0.3,0.4c-1.6,0.9-3.2,1.8-4.8,2.8c-0.5,0.3-0.6,0-0.8-0.3c-0.4-0.5,0-0.5,0.3-0.7
		c1.5-0.9,3.1-1.7,4.6-2.7C26.2,10.2,26.2,10.9,26.5,11.2z"/>
	<path class="st1" d="M13,13.9c-0.3,0.2-0.2,1-0.9,0.5c-1.6-0.9-3.1-1.9-4.7-2.7c-0.5-0.3-0.3-0.5-0.1-0.8c0.2-0.4,0.4-0.3,0.7-0.2
		c1.6,0.9,3.2,1.9,4.8,2.8C12.8,13.6,13,13.6,13,13.9z"/>
	<path class="st1" d="M29.8,13.5c-0.3,1.9-0.5,3.7-0.8,5.5c-0.1,0.4-0.3,0.3-0.6,0.2c-0.2-0.1-0.6,0.1-0.6-0.4
		c0.3-1.8,0.5-3.7,0.8-5.5c0.1-0.4,0.3-0.4,0.6-0.3C29.7,13,29.9,13.1,29.8,13.5z"/>
	<path class="st1" d="M5.4,18.9c0.1,0.4-0.3,0.3-0.6,0.4c-0.4,0.2-0.5-0.1-0.6-0.4c-0.3-1.8-0.5-3.6-0.8-5.4
		c-0.1-0.4,0.2-0.4,0.5-0.4c0.2,0,0.6-0.3,0.7,0.2C4.9,15.1,5.2,16.9,5.4,18.9z"/>
	<path class="st1" d="M16.1,9.3c0-0.7,0-1.4,0-2c0-0.4,0-0.6,0.5-0.6s0.6,0.2,0.6,0.6c0,1.4,0,2.7,0,4.1c0,0.5-0.2,0.6-0.6,0.6
		c-0.5,0-0.5-0.3-0.5-0.6C16.1,10.7,16.1,10,16.1,9.3z"/>
	<path class="st1" d="M12.2,18.4c0.4,0,0.4,0.3,0.5,0.5c0.2,0.2,0.2,0.4-0.1,0.5c-1.1,0.7-2.3,1.3-3.4,2c-0.3,0.2-0.4-0.1-0.5-0.3
		s-0.5-0.4-0.1-0.6C9.8,19.8,11,19.1,12.2,18.4z"/>
	<path class="st1" d="M21.1,18.4c0.2,0.1,0.4,0.2,0.5,0.3c0.9,0.6,1.9,1.1,2.9,1.6c0.4,0.2,0.5,0.4,0.3,0.9
		c-0.3,0.5-0.5,0.3-0.8,0.1c-1-0.6-2-1.2-3-1.7c-0.2-0.1-0.4-0.2-0.2-0.5C20.8,18.8,20.9,18.5,21.1,18.4z"/>
</g>
</svg>
