<!-- Generator: Adobe Illustrator 21.1.0, SVG Export Plug-In  -->
<svg version="1.1"
	 xmlns="http://www.w3.org/2000/svg" xmlns:xlink="http://www.w3.org/1999/xlink" xmlns:a="http://ns.adobe.com/AdobeSVGViewerExtensions/3.0/"
	 x="0px" y="0px" width="34.1px" height="34.9px" viewBox="0 0 34.1 34.9" style="enable-background:new 0 0 34.1 34.9;"
	 xml:space="preserve">
<style type="text/css">
	.st0{fill:#020202;}
</style>
<defs>
</defs>
<path class="st0" d="M29.8,34.9c-0.6,0-0.9-0.4-1-0.6c-0.2-0.3-1-1.8-1-1.8c-0.6-1.1-1.2-2.2-1.8-3.3L25.3,28
	c-0.5-0.9-1.1-1.8-1.6-2.7l-0.1-0.1c-0.2,0.1-0.4,0.2-0.7,0.2c-0.7,0-1.1-0.5-1.3-0.7c-1-1.3-1.9-2.6-2.7-3.9
	c-0.3-0.6-0.4-1.2-0.3-1.8c0,0,0-0.1-0.2-0.2c-0.2-0.2-0.4-0.4-0.5-0.6c-0.2-0.2-0.4-0.4-0.6-0.6c-0.1-0.1-0.1-0.1-0.2-0.2l0,0
	c-0.3,0.3-0.6,0.6-0.9,0.9c0,0.1-0.1,0.1-0.2,0.2v0.2l-0.3,0.4c-0.1,0.1-0.1,0.1-0.2,0.2c0,0.3,0,0.5-0.1,0.8s-0.3,0.6-0.4,0.8
	L14.9,21c-0.2,0.3-0.4,0.7-0.6,1s-0.4,0.7-0.6,1l-0.2,0.3c-0.2,0.2-0.3,0.5-0.4,0.7c-0.1,0.3-0.4,0.7-0.8,1
	c-0.1,0.1-0.4,0.4-0.9,0.4c-0.2,0-0.4-0.1-0.6-0.2c-0.1,0.2-0.2,0.4-0.4,0.6c-0.1,0.2-0.2,0.3-0.3,0.5C10,26.6,9.8,26.8,9.7,27
	s-0.2,0.4-0.4,0.6c-0.1,0.2-0.2,0.5-0.4,0.7c-0.1,0.1-0.2,0.3-0.3,0.4c-0.2,0.4-0.5,0.8-0.7,1.3c-0.3,0.5-0.5,0.9-0.8,1.4L7,31.5
	c-0.4,0.8-0.9,1.6-1.4,2.4c-0.1,0.1-0.1,0.2-0.2,0.3c-0.3,0.6-0.8,0.7-1,0.7c-0.4,0-0.7-0.2-0.9-0.3c-0.5-0.4-0.8-0.8-1.2-1.2
	L2,33.1c-0.1-0.1-0.2-0.2-0.2-0.2c-0.2-0.2-0.4-0.3-0.5-0.5l0,0c0,0,0,0-0.1,0c-0.1-0.1-0.3-0.2-0.5-0.5c-0.1-0.1-0.2-0.1-0.3-0.3
	c-0.6-0.7-0.5-1.6,0.2-2.3c0.1-0.1,0.2-0.2,0.3-0.3c0.2-0.2,0.4-0.4,0.5-0.5C1.7,28.3,2,28,2.2,27.7c0.1-0.1,2.7-2.6,3.3-3.2
	l0.2-0.2C6,24,6.4,23.8,6.8,23.7L7,23.6c0.1-0.1,0.3-0.1,0.5-0.2l0.2-0.2c0,0,0-0.1,0.1-0.1c-0.2-0.1-0.3-0.3-0.4-0.4
	c-0.1-0.3-0.1-0.6,0-0.9c0.2-0.4,0.4-0.7,0.7-0.8c0.1-0.2,0.2-0.3,0.3-0.4v-0.2c0-0.6,0.3-1,0.6-1.2c0.2-0.2,0.5-0.3,0.8-0.3
	c0.1-0.2,0.3-0.5,0.6-0.6c0,0,0.1-0.1,0.2-0.2c0.1-0.2,0.3-0.4,0.5-0.6c0.1-0.1,0.2-0.2,0.3-0.3l0,0c0-0.2,0-0.3,0.1-0.5
	c0.1-0.3,0.4-0.6,0.7-0.7c0.6-0.2,1-0.7,1.5-1.3c0.2-0.2,0.4-0.3,0.6-0.3l0,0c-0.2-0.3-0.4-0.5-0.7-0.8c-0.2-0.2-0.3-0.3-0.5-0.5
	l-2.6-2.9c-0.9-1-3.4-3.8-3.7-4.1C6.3,5.7,6.2,5.2,6.3,4.7C6.1,4.5,5.9,4.3,5.7,4.1C5.4,3.8,5.1,3.6,4.9,3.3
	C4.6,3.1,4.4,2.8,4.2,2.5L4.1,2.4C3.8,2.1,3.7,1.6,3.8,1.1s0.4-0.8,0.8-1L4.8,0h0.3c0.4,0,0.6,0.2,0.7,0.2C6,0.3,6.2,0.5,6.5,0.8
	C6.7,1,7,1.2,7.1,1.3c0.1,0,0.3,0.1,0.4,0.2h0.4l0.2,0.6c0.4,0.1,0.6,0.4,0.7,0.5c0.2,0.2,0.6,0.5,0.7,1c0.2,0.3,0.8,0.9,1.1,1.2
	C10.8,5,11,5.2,11.1,5.4c0.1,0.2,0.3,0.3,0.5,0.5C11.7,6,11.9,6.2,12,6.3c0.3,0.3,2.2,2.3,2.2,2.3c0.4,0.5,0.9,0.9,1.3,1.3
	c0.3,0.2,0.5,0.5,0.7,0.8c0.3,0.3,0.6,0.7,1,1c0,0,0,0,0.1,0.1l0.1-0.1c0.4-0.3,0.8-0.7,1.1-1c0.8-0.8,3.1-2.8,4.2-3.8l0.6-0.5
	c0.4-0.3,1.6-1.5,1.9-1.7c0.1-0.7,0.5-1.2,1.2-1.4c0.1,0,0.3-0.1,0.5-0.4L27,2.8l0.1-0.1l0.2-0.2c0.2-0.6,0.7-1,1.3-1l0,0
	c0.1-0.1,0.3-0.2,0.4-0.4c0.2-0.2,0.5-0.4,0.6-0.6C29.9,0.2,30.3,0,30.7,0c0.1,0,0.1,0,0.2,0c0.5,0,0.9,0.3,1,0.8
	c0.2,0.5,0.1,1-0.2,1.4c-0.2,0.3-0.5,0.5-0.7,0.7c-0.4,0.3-2.3,2.1-2.6,2.4l0,0c0,0.2,0,0.3,0,0.5c-0.2,0.6-1.1,1.3-1.4,1.6
	c-0.2,0.2-0.4,0.5-0.8,0.9l-0.1,0.1c-0.2,0.3-0.8,0.8-1.6,1.5c-0.4,0.4-0.9,0.8-1,0.9c-0.4,0.4-2.1,2.1-2.6,2.6
	c-0.1,0.1-0.3,0.3-0.4,0.4c-0.1,0.1-0.2,0.2-0.2,0.3c0.1,0.1,0.1,0.1,0.2,0.2c0.2,0.2,0.3,0.5,0.3,0.8c0.1,0,0.1,0,0.2,0
	c0.3,0,0.6,0.2,0.9,0.5s0.4,0.6,0.3,1c0,0.2-0.1,0.3-0.2,0.4l0.1,0.1c0.1,0.1,0.2,0.2,0.3,0.3c0.1,0.1,0.2,0.2,0.3,0.3
	c0.6,0.3,0.9,0.7,1,1.3c0.6,0.1,1,0.4,1.2,0.7c0.1,0.2,0.3,0.5,0.2,0.9c0.2,0.3,0.3,0.5,0.4,0.7c0.3,0.1,0.5,0.4,0.6,0.8
	c0.1,0.3,0,0.6-0.2,0.9l0,0c0.1,0.1,0.3,0.2,0.4,0.3c0,0,0,0,0,0.1c0.2,0.1,0.3,0.2,0.5,0.4c0.1,0.1,0.1,0.2,0.4,0.2
	c0.7,0.1,1.1,0.6,1.4,0.9l0.4,0.5c0.3,0.3,0.6,0.7,1,0.9c0.4,0.3,0.7,0.6,1,1c0.2,0.2,0.3,0.4,0.5,0.5l0.3,0.3
	c0.3,0.3,0.5,0.5,0.8,0.8c0.1,0.1,0.2,0.2,0.3,0.3c0.3,0.3,0.6,0.6,0.8,1c0.6,0.6,0.3,1.3,0.2,1.5c-0.2,0.4-3.2,2.9-3.5,3.1
	C30.4,34.7,30.1,34.9,29.8,34.9z"/>
</svg>
