<!-- Generator: Adobe Illustrator 21.1.0, SVG Export Plug-In  -->
<svg version="1.1"
	 xmlns="http://www.w3.org/2000/svg" xmlns:xlink="http://www.w3.org/1999/xlink" xmlns:a="http://ns.adobe.com/AdobeSVGViewerExtensions/3.0/"
	 x="0px" y="0px" width="60.4px" height="35.2px" viewBox="0 0 60.4 35.2" style="enable-background:new 0 0 60.4 35.2;"
	 xml:space="preserve">
<style type="text/css">
	.st0{fill:#070707;}
</style>
<defs>
</defs>
<g>
	<path class="st0" d="M59.4,0c-4.3,0-8.7,0-13,0c-0.6,0.3-0.9,0.9-0.9,1.6c0,10.7,0,21.3,0,32c0,1.2,0.4,1.6,1.6,1.6
		c3.9,0,7.8,0,11.7,0c1.2,0,1.6-0.4,1.6-1.6c0-10.7,0-21.4,0-32C60.4,0.7,60.1,0.2,59.4,0z M53,26.3c-0.4,0-0.8-0.4-0.7-0.7
		c0-0.4,0.3-0.7,0.7-0.7s0.8,0.3,0.8,0.7C53.7,25.9,53.4,26.2,53,26.3z M53,23.6c-0.5,0-1-0.5-1-1s0.5-0.9,1-0.9s1,0.5,0.9,1
		C53.9,23.2,53.5,23.6,53,23.6z M58.7,12.5c-1.9,0-3.9,0-5.8,0c-1.9,0-3.8,0-5.7,0c-0.4,0-0.5-0.1-0.5-0.5c0-0.5,0-1.1,0-1.6
		c0-0.3,0.1-0.4,0.4-0.4c3.9,0,7.7,0,11.6,0c0.3,0,0.4,0.1,0.4,0.4c0,0.5,0,1.1,0,1.7C59.2,12.4,59.1,12.5,58.7,12.5z M58.6,7.5
		c-3.8,0-7.6,0-11.3,0c-0.4,0-0.6-0.1-0.5-0.5c0-0.5,0-1,0-1.5c0-0.4,0.1-0.5,0.5-0.5c1.9,0,3.8,0,5.7,0s3.8,0,5.7,0
		c0.4,0,0.6,0.1,0.5,0.5c0,0.5,0,1,0,1.5C59.2,7.4,59,7.5,58.6,7.5z"/>
	<path class="st0" d="M39.5,0.1c-12.7,0-25.5,0-38.2,0C0.8,0.1,0.4,0.2,0,0.5C0,9.7,0,19,0,28.2c0.3,0.4,0.7,0.5,1.2,0.5
		c4.6,0,9.3,0,13.9,0c0.5,0,0.6,0.1,0.6,0.6c0,1.2,0,2.4,0,3.7c0,0.4-0.1,0.5-0.5,0.5c-1.4,0-2.8,0-4.2,0c-0.5,0-0.9,0-1.4,0
		c-0.6,0-0.9,0.3-0.9,0.8s0.3,0.8,0.9,0.8c0.1,0,0.2,0,0.3,0c7,0,14,0,21.1,0c0.2,0,0.4,0,0.6,0c0.4-0.1,0.6-0.3,0.6-0.7
		c0-0.4-0.2-0.6-0.5-0.8c-0.2-0.1-0.4-0.1-0.6-0.1c-1.8,0-3.6,0-5.4,0c-0.4,0-0.5-0.1-0.5-0.5c0-1.2,0-2.4,0-3.7
		c0-0.5,0.1-0.6,0.6-0.6c4.6,0,9.2,0,13.9,0c1,0,1.2-0.2,1.2-1.2c0-8.7,0-17.5,0-26.2C40.8,0.3,40.6,0.1,39.5,0.1z M39.2,26.5
		c0,0.5-0.1,0.6-0.6,0.6c-12.1,0-24.3,0-36.4,0c-0.5,0-0.6-0.1-0.6-0.6c0-8.1,0-16.2,0-24.3c0-0.5,0.1-0.6,0.6-0.6
		c6.1,0,12.2,0,18.3,0c6,0,12.1,0,18.1,0c0.5,0,0.6,0.1,0.6,0.6C39.2,10.4,39.2,18.5,39.2,26.5z"/>
</g>
</svg>
