<!-- Generator: Adobe Illustrator 21.1.0, SVG Export Plug-In  -->
<svg version="1.1"
	 xmlns="http://www.w3.org/2000/svg" xmlns:xlink="http://www.w3.org/1999/xlink" xmlns:a="http://ns.adobe.com/AdobeSVGViewerExtensions/3.0/"
	 x="0px" y="0px" width="35.4px" height="35.2px" viewBox="0 0 35.4 35.2" style="enable-background:new 0 0 35.4 35.2;"
	 xml:space="preserve">
<style type="text/css">
	.st0{fill:#020202;}
</style>
<defs>
</defs>
<g>
	<path class="st0" d="M28.1,5.3c0,10,0,20,0,29.9c1.5,0,2.9,0,4.4,0c0-10,0-20,0-29.9C31,5.3,29.6,5.3,28.1,5.3z"/>
	<path class="st0" d="M26.8,35.2c0-7.9,0-15.8,0-23.7c0-0.4-0.1-0.5-0.5-0.5c-1.1,0-2.3,0-3.5,0c-0.3,0-0.5,0.1-0.5,0.4
		c0,7.6,0,15.2,0,22.8c0,0.3,0.1,0.6,0,0.9C23.9,35.2,25.4,35.2,26.8,35.2z"/>
	<path class="st0" d="M21.2,35.2c0-7.5,0-15.1,0-22.6c0-0.1,0-0.3,0-0.4c0-0.2-0.1-0.3-0.3-0.3c-1.3,0-2.5,0-3.8,0
		c-0.2,0-0.3,0.1-0.3,0.3c0,0.1,0,0.2,0,0.4c0,7.5,0,15.1,0,22.6C18.3,35.2,19.8,35.2,21.2,35.2z"/>
	<path class="st0" d="M15.6,35.2c0-2.3,0-4.6,0-6.9c0-3.3,0-6.6,0-9.9c0-0.4-0.1-0.5-0.5-0.5c-1.1,0-2.3,0-3.5,0
		c-0.4,0-0.5,0.1-0.5,0.5c0,5.6,0,11.2,0,16.7C12.7,35.2,14.1,35.2,15.6,35.2z"/>
	<path class="st0" d="M9.9,35.2c0-4.8,0-9.5,0-14.3c0-0.4-0.1-0.5-0.4-0.5c-1.1,0-2.3,0-3.4,0c-0.5,0-0.5,0-0.5,0.5
		c0,4.7,0,9.5,0,14.2C7,35.2,8.5,35.2,9.9,35.2z"/>
	<path class="st0" d="M4.3,35.2c0-3.1,0-6.2,0-9.3c0-0.1,0-0.3,0-0.4c0-0.2-0.1-0.3-0.3-0.3c-1.2,0-2.4,0-3.6,0
		c-0.3,0-0.4,0.1-0.4,0.4c0,3.2,0,6.3,0,9.5C1.4,35.2,2.9,35.2,4.3,35.2z"/>
	<path class="st0" d="M28.1,5.3c1.5,0,2.9,0,4.4,0c1,0,2,0,2.9,0c0-0.1-0.1-0.2-0.1-0.2c-1.6-1.6-3.2-3.3-4.9-4.9
		c-0.1-0.1-0.2-0.3-0.4-0.1c-1.7,1.7-3.4,3.4-5.1,5.1C26,5.3,27.1,5.3,28.1,5.3z"/>
</g>
</svg>
