<!-- Generator: Adobe Illustrator 21.1.0, SVG Export Plug-In  -->
<svg version="1.1"
	 xmlns="http://www.w3.org/2000/svg" xmlns:xlink="http://www.w3.org/1999/xlink" xmlns:a="http://ns.adobe.com/AdobeSVGViewerExtensions/3.0/"
	 x="0px" y="0px" width="43.9px" height="35.5px" viewBox="0 0 43.9 35.5" style="enable-background:new 0 0 43.9 35.5;"
	 xml:space="preserve">
<style type="text/css">
	.st0{fill:#020202;}
</style>
<defs>
</defs>
<path class="st0" d="M0.1,0c0.3,0.3,1.5,0.7,1.8,0.7c0.5,0.1,2.5,0.4,3,0S6,0.2,6.7,0.2c5.9,0,11.7,0,17.6,0c0.9,0,1.8,0.1,2.9,0
	c0.4,0,0.5,0,0.5,0.4c0,2.3,0,4.6,0,6.9c1.3,0.1,9.9-0.2,10.5-0.7c0.2-0.2,0.4-0.4,0.6-0.5c1-0.6,2.1-0.9,3.2-1.3
	c0.7-0.3,1.4,0.1,1.6,0.8c0,0,0.7,6.8,0,9.9c-0.4,1.5-0.6,1.6-2,1.3c-2.7-0.5-3.4-1.6-3.4-1.7c-0.3-0.2-9.4-0.9-10.4-0.9
	c0,1.5,0,5,0,5.7c0,0.2,0,0.4-0.2,0.4c-0.8,0.1-3.3,0-3.3,0c0,0.2,0,0.8,0,1c0,4.2,0,8.3,0,12.5c0,0.7-0.2,1-0.9,1.2
	c-1.5,0.4-3,0.3-4.4,0c-1.3-0.3-1.3-0.4-1.3-1.8c0-2.2,0-4.4,0-6.6c-0.1,0-0.1,0-0.2,0c-1.1,1.3-2,2.7-3.3,3.7
	c-1.6,1.3-3.3,2.1-5.3,1.9c-2.1-0.3-4.2-0.9-6.2-1.6c-0.3-0.1-0.9-0.3-0.6-0.7c0.2-0.4,0.6-0.8,1.2-0.5c1.4,0.6,2.8,0.9,4.2,1.5
	c0.7,0.3,3.7,1.7,6.6-1.4c1-1,1.5-2.1,2.1-3.3c0.4-0.9,0.7-1.9,1.2-2.7c0.2-0.3,0.2-0.5,0.1-0.8c-0.7-1.2-1.8-1.4-3-1.5
	c-1.1,0-3.5,0-4.6,0c-0.3,0-0.1-2.9-0.1-3.9c-0.2,0-4.5,0.1-5.4,0c-0.3,0,0-12.7,0.1-13.5c-0.4,0-3.3,0.4-4,1.3
	C0.1,5.6-0.2-0.2,0.1,0z"/>
</svg>
