<!-- Generator: Adobe Illustrator 21.1.0, SVG Export Plug-In  -->
<svg version="1.1"
	 xmlns="http://www.w3.org/2000/svg" xmlns:xlink="http://www.w3.org/1999/xlink" xmlns:a="http://ns.adobe.com/AdobeSVGViewerExtensions/3.0/"
	 x="0px" y="0px" width="36.7px" height="35.2px" viewBox="0 0 36.7 35.2" style="enable-background:new 0 0 36.7 35.2;"
	 xml:space="preserve">
<style type="text/css">
	.st0{fill:#020202;}
</style>
<defs>
</defs>
<g>
	<path class="st0" d="M18.6,0c1,1.8,2,3.5,3.1,5.3c0.9,1.6,1.8,3.2,2.8,4.8c0.1,0.2,0.3,0.4,0.6,0.4c2.1,0.6,4.3,1.3,6.4,1.9
		c1.6,0.5,3.3,1,4.9,1.5c0.1,0,0.2,0.1,0.3,0.1c-1,1.1-2,2.3-2.9,3.4c-1.4,1.6-4.5,5.2-4.6,5.3c-0.4,0.4-0.3,0.2-0.3,0.8
		c0,0.8,0.2,10.8,0.3,11.7c-0.9-0.4-1.8-0.7-2.7-1.1c-1.7-0.7-3.4-1.5-5.2-2.2c-1-0.4-2-0.9-3-1.3c-0.4-0.2-0.7-0.1-1,0
		c-2.2,0.9-4.6,1.7-6.8,2.6c-1.2,0.5-2.5,0.9-3.7,1.4c-0.2,0.1-0.3,0.2-0.3-0.2c0.1-1,0.8-10.4,0.9-11.6c0-0.3-0.3-0.5-0.5-0.8
		c-0.8-1.1-1.7-2.1-2.5-3.2c-0.8-1-1.6-2-2.4-3c-0.7-0.9-1.3-1.7-2-2.6C-0.1,13,0,13,0.1,12.9c1.3-0.3,2.6-0.5,3.9-0.8
		s2.6-0.6,4-0.8c1.2-0.3,2.5-0.5,3.7-0.7c0.2,0,0.3-0.2,0.4-0.3c0.8-1.2,1.5-2.3,2.3-3.5c1.1-1.7,2.2-3.3,3.3-5
		C17.8,1.1,18.2,0.6,18.6,0z"/>
</g>
</svg>
