<?xml version="1.0" encoding="utf-8"?>
<!-- Generator: Adobe Illustrator 18.1.1, SVG Export Plug-In . SVG Version: 6.00 Build 0)  -->
<svg version="1.1" id="Isolation_Mode" xmlns="http://www.w3.org/2000/svg" xmlns:xlink="http://www.w3.org/1999/xlink" x="0px"
	 y="0px" viewBox="0 0 612 792" enable-background="new 0 0 612 792" xml:space="preserve">
<rect x="250.6" y="419.4" fill="#7A8D8A" width="1.8" height="0.3"/>
<path fill="#7A8D8A" d="M173.3,440.7h-0.8c0,0-0.1-0.1-0.2-0.1c-0.1,0.1-0.1,0.4-0.1,0.6c0,0.1,0.1,0.1,0.2,0.1
	c0.1-0.1,0.1-0.1,0.1-0.1h0.9L173.3,440.7z"/>
<path fill="#7A8D8A" d="M172.6,428.6c0.4,0,1-0.1,1-0.1v-1.8l0.8-1.7c0,0-0.1-0.1-0.2-0.2c-0.1,0-0.2,0.1-0.2,0.3
	c-0.1,0.2-0.5,0.8-1,1.3c-0.4,0.6-0.3,1-0.3,1s-0.6-0.1-0.7,0.3C171.9,428.2,172.2,428.6,172.6,428.6z M172.2,428
	c0-0.1,0.1-0.3,0.3-0.3c0.1,0,0.3,0.1,0.3,0.3s-0.1,0.3-0.3,0.3C172.3,428.3,172.2,428.2,172.2,428z"/>
<g>
	<polygon fill="#010703" points="278.3,448.8 279.4,450.3 274.2,450.2 274.3,449.1 	"/>
	<path fill="#010703" d="M172.6,446.3c0.7,0,1.1,0.1,1.1,0.1v0.7h1.2c0,0-0.1,1,0.2,1.1c0.3,0.1,0.8-0.1,0.8-0.1h2.2
		c0,0-1.1,0.5-1.1,0.7s0.8,0.2,2.2-0.1c1.4-0.4,1.7-0.7,1.7-0.7h4.3v-1.6h2.2l4.2-2.2l6.3-2.2c0,0,0.2,1.6,0.3,1.7
		c0.1,0.1,4.3,7.4,4.3,7.4s16.2-0.9,23.6-1.2c7.4-0.4,10.6-0.5,14.3-0.8c3.8-0.2,5.9-0.1,5.9-0.1s0,0.2,0.2,0.4
		c0.1,0.2,0.7,0.3,2.7,0.6c2,0.3,2.1,0.5,2.1,0.5h1.2c0,0,0-1.3,0-1.6c0-0.3,0-0.3,0.8-0.3c0.8,0,0.7,0.7,0.7,0.7l0,0.8l0.3,0l0,0.9
		h0.2c0,0,0,0.1,0,0.3c0.1,0.5,0.4,0.4,0.4,0.4s2.8-0.1,8.5-0.5c5.7-0.3,9.2-0.4,9.2-0.4s0.4-1.2,1.7-1.6c1-0.3,1.5-0.4,2.5-1.3
		c0.6,0.1,1.5,0.2,1.6,0.2l0.2-1l-0.9-0.2c1.7-1.8,7.7-0.8,7.7-0.8s1.6-1.2,3.9-0.3c2.3,0.9,6.1-0.2,6.1-0.2s0.3-0.1,1.2-0.7
		c0.9-0.6,1.1-0.4,1.1-0.4h2.1v-1.7c0,0-1.6,0-2.3,0c-0.7,0-1,0-1.2,0.1s-1.1,0.4-1.1,0.4s-1.1-3.3-1.4-4.3c-0.3-1-0.6-2.1-0.4-2.5
		s0.6-0.1,1,0s0.6,0.3,1.6,0.4c1,0.1,1.5-0.1,1.5-0.1c0.2-0.5-0.1-0.7-0.7-0.9c-0.6-0.2-1.7-1.6-4.9-3.6c-3.7-2.2-6.8-2.7-6.8-2.7
		l-1.1-1.5l-1.3-8.3c0,0-20.6-0.1-26.6-0.1c-5.9-0.1-7.9-0.2-8.5-0.2c-0.5,0-0.5-0.4-0.5-0.4s-1.3-5.5-1.6-7.1c-0.3-1.6-0.3-3-0.3-3
		l-1.3-0.3c0,0-40.4-4.3-49.7-3.4c-9.3,1-9.1,13.7-9.1,13.7l0.2,2.9c0,0-7.1,0.7-9.5,2.1c-2.4,1.4-1.9,4.5-1.9,4.5s0.1,7.2-0.1,10.5
		c-0.2,3.3-1.2,6.1-1.4,6.6C171.8,446,171.9,446.3,172.6,446.3z M288.5,443.4l0.5-0.4l0.9,0.1l0.4,0.7L288.5,443.4z M260.5,447.3
		l0.3,0c0,0,0.1,1.1,0.5,1.7c0.5,0.7,0.6,0.7,0.6,0.7l-1.4,0.2L260.5,447.3z M228.4,419.5c0-0.1-0.1-6.7-0.1-7.1
		c0-0.2,0.1-0.3,0.3-0.3c0.2,0,14.1-0.3,14.1-0.3c0.3,0,0.4,0.7,0.4,0.7s1.3,6.5,1.4,6.9c0,0.4-0.3,0.4-0.3,0.4s-15.1,0-15.4,0
		S228.4,419.7,228.4,419.5z M219.9,419.6l0.1-8.1l3.1,0l0.1,8.2L219.9,419.6z M203.8,418.9l0.3-7.8l14,0.4l0.1,0.3l-0.2,7.5
		l-0.2,0.3c0,0-13.5-0.4-13.7-0.4C203.8,419.1,203.8,418.9,203.8,418.9z M193.6,417.7l1.4-4.3l5.4-2l0.1,7.7c0,0,0,0.2-0.3,0.2
		c-0.3,0-6.1,0.1-6.1,0.1l-0.6-0.9c0,0,0.1-0.2,0.1-0.5C193.7,417.8,193.6,417.7,193.6,417.7z M192.3,419.5l0-1.4l0.8,1.3
		L192.3,419.5z M192.2,416.4l0-2l2-0.7l-1.2,3.9L192.2,416.4z"/>
</g>
<path fill="#001600" d="M173.7,446.3c0,0-0.4-0.1-1.1-0.1c-0.7,0-0.8-0.3-0.6-0.7c0.2-0.4,1.2-3.2,1.4-6.6
	c0.2-3.3,0.1-10.5,0.1-10.5s-0.5-3,1.9-4.5c2.4-1.4,9.2-2.1,9.5-2.1l3.9,10.8l-8.5,14.6l-3.3,1.4c0-0.2,1.1-0.7,1.1-0.7h-2.2
	c0,0-0.5,0.2-0.8,0.1c-0.3-0.1-0.2-1.1-0.2-1.1h-1.2L173.7,446.3L173.7,446.3z"/>
<path fill="#001418" d="M173.5,430.6L173.5,430.6l13.5,0.2v0.7l-13.5-0.2l0,0l0,0c-0.2,0-0.3-0.2-0.3-0.4
	C173.1,430.8,173.3,430.6,173.5,430.6z"/>
<path fill="#536F74" d="M173.5,430.7C173.5,430.7,173.5,430.7,173.5,430.7l13.4,0.2v0.5l-13.4-0.2l0,0c-0.1,0-0.2-0.1-0.2-0.2
	C173.3,430.8,173.4,430.7,173.5,430.7z"/>
<path fill="#193136" d="M173.6,426.5c5.1-1.5,11.6-2.3,11.6-2.3h0.1l0.1,0.7h-0.1c-0.1,0-6.6,0.7-11.7,2.3c0,0-0.1,0-0.1,0
	c-0.2,0-0.3-0.1-0.4-0.4C173.2,426.6,173.5,426.5,173.6,426.5z"/>
<path fill="#536F74" d="M185.3,424.3l0.1,0.5c-0.1,0-6.6,0.7-11.7,2.3c-0.1,0-0.3,0-0.3-0.2c0-0.2,0.2-0.3,0.3-0.3
	C178.8,425,185.2,424.3,185.3,424.3z"/>
<g>
	<path fill="#504C00" d="M188.4,433.9l0.1,0.5C188.6,434.4,188.4,434.2,188.4,433.9z"/>
	<path fill="#504C00" d="M184.8,420.4l5.3,0.2l22.2-1.2c2.8,0.1,5.3,0.2,5.3,0.2l0.2-0.3v-0.2l2-0.1v0.6l3.3,0.1v-1l5.2-0.3
		c0,0.6,0,1,0,1c0,0.1,0,0.4,0.4,0.4c0.4,0,15.4,0,15.4,0s0.3,0,0.3-0.4c0-0.1-0.1-0.9-0.3-1.9l1.9-0.1c0.4,1.9,0.8,2,1.2,2
		c0.5,0,2.5,0.1,8.5,0.2c5.9,0.1,26.6,0.1,26.6,0.1l0.2,2.2l1.3,8.3l1.1,1.5c0,0-7.9-0.7-15.2,4.3c-6.7,4.7-12.7,8.6-12.7,8.6
		l-41.1,0.5c0,0-5-19-21.7-14.6c-3.7,1-6.5,3.5-6.4,3.3c0,0-1.4-2.1-2.1-6.5C185,423.2,184.8,420.4,184.8,420.4z"/>
	<path fill="#504C00" d="M246.6,418.5c0,0.1,0,0.2,0.1,0.2C246.6,418.6,246.6,418.5,246.6,418.5z"/>
</g>
<path fill="#3B3900" d="M184.8,420.4l1.1,0.1l3.2,0.8l0.9,2.5c0,0-0.4,1.9,0.4,4.1c0.8,2.2,3.7,1.9,3.7,1.9l-1.9,1.6
	c-2.7,1.2-4.5,2.8-4.3,2.6c0,0-1.4-2.1-2.1-6.5C185,423.2,184.8,420.4,184.8,420.4z"/>
<path fill="#504C00" d="M246.6,418.5c0,0.1,0,0.2,0.1,0.2C246.6,418.6,246.6,418.5,246.6,418.5z"/>
<path fill="#183000" d="M183.7,404.1c0,0-0.4,0.1-0.4,1c0.1,0.6,0.2,1.9,0.4,3.6c0.5,4.3,1.1,11.9,1.1,11.9s1.1,0.6,2.2,0.6
	s0.9-5.2,0.9-5.2l-0.1-4.8L183.7,404.1z"/>
<g>
	<path fill="#504C00" d="M258.1,438.4c0,0.4,0.4,0.8,0.8,0.8h19.8c0.4,0,0.8-0.4,0.8-0.8v-10.3c0-0.4-0.4-0.8-0.8-0.8h-19.8
		c-0.4,0-0.8,0.4-0.8,0.8V438.4z"/>
	<path fill="#1C1E00" d="M257.9,438.4v-10.3c0-0.5,0.4-1,1-1h19.8c0.5,0,1,0.4,1,1v10.3c0,0.5-0.4,1-1,1h-19.8
		C258.4,439.4,257.9,438.9,257.9,438.4z M258.9,427.5c-0.4,0-0.6,0.3-0.6,0.6v10.3c0,0.4,0.3,0.6,0.6,0.6h19.8
		c0.4,0,0.6-0.3,0.6-0.6v-10.3c0-0.4-0.3-0.6-0.6-0.6H258.9z"/>
</g>
<path fill="#333400" d="M287,423.4c1.1-0.4,1.5-0.1,1.5-0.1s0.2,0.1,0.2,0.3v6.3c0,0.9-0.9,0.8-1.9,0.4c-1.7-0.7-2.4-2.3-2.2-4
	C284.9,424.9,286.1,423.7,287,423.4z"/>
<ellipse fill="#FFFFFF" cx="172.3" cy="440.7" rx="0.1" ry="0.1"/>
<path fill="#000600" d="M187.4,411.1c0,0-0.8,6-0.5,7.9c0.3,1.9,0.5,3.6,2.2,4.4c1.7,0.8,2.4,0.7,2.4,0.7s-2.5-0.9-3-2.5
	s-1.1-5.1-1.1-5.1l0.3-4.5l0-0.9L187.4,411.1z"/>
<g>
	<g>
		<path fill="#1C1E00" d="M259.4,438h0.4v-9.5c0-0.1,0-0.1,0-0.1s0.1,0,0.1,0c0.1,0,0.1,0.1,0.2,0.1l0.2-0.3
			c-0.1-0.1-0.1-0.1-0.2-0.1c-0.1-0.1-0.3-0.1-0.4,0c-0.1,0-0.2,0.1-0.2,0.4L259.4,438L259.4,438z"/>
		<path fill="#1C1E00" d="M260.3,438h0.4v-9.5c0-0.1,0-0.1,0-0.1c0,0,0.1,0,0.1,0c0.1,0,0.1,0.1,0.2,0.1l0.2-0.3
			c-0.1-0.1-0.1-0.1-0.2-0.1c-0.1-0.1-0.3-0.1-0.4,0c-0.1,0-0.2,0.1-0.2,0.4L260.3,438L260.3,438z"/>
		<path fill="#1C1E00" d="M261.3,438h0.4v-9.5c0-0.1,0-0.1,0-0.1c0,0,0.1,0,0.1,0c0.1,0,0.1,0.1,0.2,0.1l0.2-0.3
			c-0.1-0.1-0.1-0.1-0.2-0.1c-0.1-0.1-0.3-0.1-0.4,0c-0.1,0-0.2,0.1-0.2,0.4L261.3,438L261.3,438z"/>
		<path fill="#1C1E00" d="M262.2,438h0.4v-9.5c0-0.1,0-0.1,0-0.1c0,0,0.1,0,0.1,0c0.1,0,0.1,0.1,0.2,0.1l0.2-0.3
			c-0.1-0.1-0.1-0.1-0.2-0.1c-0.1-0.1-0.3-0.1-0.4,0c-0.1,0-0.2,0.1-0.2,0.4L262.2,438L262.2,438z"/>
		<path fill="#1C1E00" d="M263.2,438h0.4v-9.5c0-0.1,0-0.1,0-0.1s0.1,0,0.1,0c0.1,0,0.1,0.1,0.2,0.1l0.2-0.3
			c-0.1-0.1-0.1-0.1-0.2-0.1c-0.1-0.1-0.3-0.1-0.4,0c-0.1,0-0.2,0.1-0.2,0.4L263.2,438L263.2,438z"/>
		<path fill="#1C1E00" d="M264.1,438h0.4v-9.5c0-0.1,0-0.1,0-0.1c0,0,0.1,0,0.1,0c0.1,0,0.1,0.1,0.2,0.1l0.2-0.3
			c-0.1-0.1-0.1-0.1-0.2-0.1c-0.1-0.1-0.3-0.1-0.4,0c-0.1,0-0.2,0.1-0.2,0.4L264.1,438L264.1,438z"/>
		<path fill="#1C1E00" d="M265.1,438h0.4v-9.5c0-0.1,0-0.1,0-0.1c0,0,0.1,0,0.1,0c0.1,0,0.1,0.1,0.2,0.1l0.2-0.3
			c-0.1-0.1-0.1-0.1-0.2-0.1c-0.1-0.1-0.3-0.1-0.4,0c-0.1,0-0.2,0.1-0.2,0.4L265.1,438L265.1,438z"/>
		<path fill="#1C1E00" d="M266,438h0.4v-9.5c0-0.1,0-0.1,0-0.1c0,0,0.1,0,0.1,0c0.1,0,0.1,0.1,0.2,0.1l0.2-0.3
			c-0.1-0.1-0.1-0.1-0.2-0.1c-0.1-0.1-0.3-0.1-0.4,0c-0.1,0-0.2,0.1-0.2,0.4L266,438L266,438z"/>
		<path fill="#1C1E00" d="M267,438h0.4v-9.5c0-0.1,0-0.1,0-0.1c0,0,0.1,0,0.1,0c0.1,0,0.1,0.1,0.2,0.1l0.2-0.3
			c-0.1-0.1-0.1-0.1-0.2-0.1c-0.1-0.1-0.3-0.1-0.4,0c-0.1,0-0.2,0.1-0.2,0.4L267,438L267,438z"/>
		<path fill="#1C1E00" d="M267.9,438h0.4v-9.5c0-0.1,0-0.1,0-0.1c0,0,0.1,0,0.1,0c0.1,0,0.1,0.1,0.2,0.1l0.2-0.3
			c-0.1-0.1-0.1-0.1-0.2-0.1c-0.1-0.1-0.3-0.1-0.4,0c-0.1,0-0.2,0.1-0.2,0.4L267.9,438L267.9,438z"/>
		<path fill="#1C1E00" d="M268.8,438h0.4v-9.5c0-0.1,0-0.1,0-0.1c0,0,0.1,0,0.1,0c0.1,0,0.1,0.1,0.2,0.1l0.2-0.3
			c-0.1-0.1-0.1-0.1-0.2-0.1c-0.1-0.1-0.3-0.1-0.4,0c-0.1,0-0.2,0.1-0.2,0.4L268.8,438L268.8,438z"/>
		<path fill="#1C1E00" d="M269.8,438h0.4v-9.5c0-0.1,0-0.1,0-0.1c0,0,0.1,0,0.1,0c0.1,0,0.1,0.1,0.2,0.1l0.2-0.3
			c-0.1-0.1-0.1-0.1-0.2-0.1c-0.1-0.1-0.3-0.1-0.4,0c-0.1,0-0.2,0.1-0.2,0.4L269.8,438L269.8,438z"/>
		<path fill="#1C1E00" d="M270.8,438h0.4v-9.5c0-0.1,0-0.1,0-0.1c0,0,0.1,0,0.1,0c0.1,0,0.1,0.1,0.2,0.1l0.2-0.3
			c-0.1-0.1-0.1-0.1-0.2-0.1c-0.1-0.1-0.3-0.1-0.4,0c-0.1,0-0.2,0.1-0.2,0.4L270.8,438L270.8,438z"/>
		<path fill="#1C1E00" d="M271.7,438h0.4v-9.5c0-0.1,0-0.1,0-0.1c0,0,0.1,0,0.1,0c0.1,0,0.1,0.1,0.2,0.1l0.2-0.3
			c-0.1-0.1-0.1-0.1-0.2-0.1c-0.1-0.1-0.3-0.1-0.4,0c-0.1,0-0.2,0.1-0.2,0.4L271.7,438L271.7,438z"/>
		<path fill="#1C1E00" d="M272.7,438h0.4v-9.5c0-0.1,0-0.1,0-0.1c0,0,0.1,0,0.1,0c0.1,0,0.1,0.1,0.2,0.1l0.2-0.3
			c-0.1-0.1-0.1-0.1-0.2-0.1c-0.1-0.1-0.3-0.1-0.4,0c-0.1,0-0.2,0.1-0.2,0.4L272.7,438L272.7,438z"/>
		<path fill="#1C1E00" d="M273.6,438h0.4v-9.5c0-0.1,0-0.1,0-0.1c0,0,0.1,0,0.1,0c0.1,0,0.1,0.1,0.2,0.1l0.2-0.3
			c-0.1-0.1-0.1-0.1-0.2-0.1c-0.1-0.1-0.3-0.1-0.4,0c-0.1,0-0.2,0.1-0.2,0.4L273.6,438L273.6,438z"/>
		<path fill="#1C1E00" d="M274.5,438h0.4v-9.5c0-0.1,0-0.1,0-0.1c0,0,0.1,0,0.1,0c0.1,0,0.1,0.1,0.2,0.1l0.2-0.3
			c-0.1-0.1-0.1-0.1-0.2-0.1c-0.1-0.1-0.3-0.1-0.4,0c-0.1,0-0.2,0.1-0.2,0.4L274.5,438L274.5,438z"/>
		<path fill="#1C1E00" d="M275.5,438h0.4v-9.5c0-0.1,0-0.1,0-0.1s0.1,0,0.1,0c0.1,0,0.1,0.1,0.2,0.1l0.2-0.3
			c-0.1-0.1-0.1-0.1-0.2-0.1c-0.1-0.1-0.3-0.1-0.4,0c-0.1,0-0.2,0.1-0.2,0.4L275.5,438L275.5,438z"/>
		<path fill="#1C1E00" d="M276.4,438h0.4v-9.5c0-0.1,0-0.1,0-0.1c0,0,0.1,0,0.1,0c0.1,0,0.1,0.1,0.2,0.1l0.2-0.3
			c-0.1-0.1-0.1-0.1-0.2-0.1c-0.1-0.1-0.3-0.1-0.4,0c-0.1,0-0.2,0.1-0.2,0.4L276.4,438L276.4,438z"/>
		<path fill="#1C1E00" d="M277.4,438h0.4v-9.5c0-0.1,0-0.1,0-0.1c0,0,0.1,0,0.1,0c0.1,0,0.1,0.1,0.2,0.1l0.2-0.3
			c-0.1-0.1-0.1-0.1-0.2-0.1c-0.1-0.1-0.3-0.1-0.4,0c-0.1,0-0.2,0.1-0.2,0.4L277.4,438L277.4,438z"/>
	</g>
	<g>
		<path fill="#010703" d="M283,431c0,0-9.5,0-15.6,6.1s-6.5,7.6-6.5,7.6s15.4-5.5,17.4-7.4C280.2,435.5,283,431,283,431z"/>
		<path fill="#010703" d="M260.7,444.7c0-0.1,0.4-1.7,6.6-7.7c6.1-6,15.6-6.1,15.7-6.1h0.2l-0.1,0.2c0,0.1-2.7,4.5-4.7,6.4
			c-2,1.9-16.8,7.2-17.5,7.4l-0.2,0.1L260.7,444.7z M267.4,437.1c-4.8,4.7-6.1,6.7-6.4,7.4c2-0.7,15.3-5.6,17.1-7.3
			c1.7-1.6,4-5.3,4.6-6.1C281.3,431.1,273,431.7,267.4,437.1z"/>
	</g>
</g>
<path fill="#3B3900" d="M246.5,424.4c0,0-0.5,0.3-1.4,0.2c-0.9,0-2.9-0.3-4.1-0.1c-1.2,0.1-2.9,0.2-3.8,0.2c-0.9,0-3.3-0.3-4.4-0.2
	c-1.1,0.1-2.8,0.1-4,0c-1.3-0.1-3.4,0-4.4,0c-1,0-1.9,0.2-2.9,0.1c-1-0.1-3,0-4.1,0c-1.1,0.1-2.3-0.3-3.1-0.4
	c-0.9-0.1-3.5-0.4-5.3-0.1c-1.7,0.3-3.3,0.1-4.1,0.1c-0.8,0-1.4,0.1-2.2,0.1c-0.8-0.1-3.5,0.1-4.6,0s-2.2-0.1-3.3-0.1
	c-1.1,0.1-2.2,0.1-3-0.1c-0.8-0.1-1.5-0.5-1.5-0.5s4.1,0.2,5.8,0.2c1.7,0,11.5-0.5,14.8-0.5c3.2,0,4.3,0.1,6,0.2
	c1.6,0.1,6.9,0.1,11.6-0.2c4.7-0.3,6.6-0.3,8.7-0.3c2.1,0,7.8,1,7.8,1l1.6,0.1L246.5,424.4z"/>
<rect x="246.2" y="423.9" fill="#1C1E00" width="0.2" height="18.5"/>
<rect x="226.5" y="423.9" fill="#1C1E00" width="0.2" height="18.5"/>
<rect x="222.5" y="423.9" fill="#1C1E00" width="0.2" height="18.5"/>
<rect x="202.1" y="423.9" fill="#1C1E00" width="0.2" height="5.6"/>
<rect x="282.9" y="419.6" fill="#7A8D8A" width="1.8" height="0.3"/>
<path fill="#8DB1B0" d="M285.5,430.1c0,0,0-9.5,0-9.7s0-0.5-0.4-0.5c-0.5,0-2.7,0-2.7,0v9.9L285.5,430.1z"/>
<path fill="#8DB1B0" d="M284.9,419.7h-2.1c0,0-0.1-0.3,0.2-0.5c0.3-0.2,1.3-0.2,1.6,0C285.1,419.4,284.9,419.7,284.9,419.7z"/>
<path fill="#8DB1B0" d="M252.5,419.4h-2.1c0,0-0.1-0.3,0.2-0.5s1.3-0.2,1.6,0C252.8,419.1,252.5,419.4,252.5,419.4z"/>
<linearGradient id="SVGID_1_" gradientUnits="userSpaceOnUse" x1="640.2632" y1="-130.4" x2="640.2633" y2="-163.9" gradientTransform="matrix(-0.2954 0 0 -0.2954 471.365 381.3793)">
	<stop  offset="0.2848" style="stop-color:#242200"/>
	<stop  offset="0.5687" style="stop-color:#202200"/>
	<stop  offset="0.8674" style="stop-color:#132200"/>
	<stop  offset="1" style="stop-color:#0B2200"/>
</linearGradient>
<polygon fill="url(#SVGID_1_)" points="282.2,419.9 282.2,429.7 282.3,429.8 282.3,419.9 "/>
<path fill="#1C1E00" d="M282.2,424v-0.2c0,0-3.6-0.1-7.2,0c-2,0-6.9,0-11.3-0.1c-3.5,0-6.9-0.1-8.2-0.1c-3,0-4.5-0.3-6.4-0.9
	c-1.9-0.6-2.6-4.3-2.6-4.3l-0.2,0.1c0,0.1,0.8,3.8,2.7,4.5c1.9,0.6,3.4,1,6.5,0.9c1.3,0,4.6,0,8.2,0.1c4.3,0.1,9.2,0.1,11.3,0.1
	C278.6,424,282.2,424,282.2,424z"/>
<path fill="#262D00" d="M296.2,436.3c-1.3-0.1-1.7-0.4-4.7-1.9c-3-1.4-12.2-4.4-21.8,1.6c-9.7,6.1-14.8,11.5-17.7,12
	c-2.9,0.5-37.2,0.1-37.2,0.1s-0.5,0.3-0.9-2.2c-0.5-3.7-2.5-14-14.7-14.2c-12.2-0.1-14.5,9.7-16.9,13.7c-0.9,1.4-1.9,2.4-2.8,2.9
	c-0.1,0-0.2,0.1-0.3,0.1c-1.4,0.4-2.2,0.3-2.2,0.1c0-0.2,1.1-0.7,1.1-0.7c1.6-0.5,2.5-1.7,5.1-7.7c3.2-7.3,9.2-13,19.6-11.1
	s12.9,14,12.9,14l41.6-0.1c0,0,1-0.9,3.8-3.2s8.4-7.9,15.3-9.9c3.2-0.9,6.8-0.5,9.7-0.1c1.2,0.3,3.2,1.1,5.4,2.5
	c3.3,2,4.3,3.3,4.9,3.6c0.4,0.1,0.6,0.2,0.7,0.4C297,436.4,296.7,436.4,296.2,436.3z"/>
<path fill="#191919" d="M188.7,422.8c1.8,1.9,5.3,1.2,7,1.2s5.1,0.1,6.7,0.3c1.6,0.1,2.5,0.1,5.4-0.3c2.9-0.4,5.7-0.1,7.6,0.1
	c1.9,0.2,2.4,0.4,3.7,0.2c1.3-0.1,2.7-0.1,3.9-0.1c1.2,0,3.1,0,4.5,0.1c1.4,0.1,2.2,0,4.3,0c2.1,0,4,0,6,0.1
	c1.9,0.1,3.3-0.1,5.3-0.1s3.4,0.1,3.4,0.1s-0.1-1.5-0.2-2.6s-0.1-4.6-0.1-4.6s-0.6-2.6-1.1-5.1c-0.5-2.5-0.4-3.5-0.4-3.5
	s-4,0.3-12.7-0.7c-8.7-1-32.8-1.3-37.7-1.3c-4.8,0.1-6.8,3.9-6.8,3.9s-0.5,4.9-0.5,6.3C187.1,418.3,186.9,421,188.7,422.8z
	 M228.4,419.5c0-0.1-0.1-6.7-0.1-7.1c0-0.2,0.1-0.3,0.3-0.3c0.2,0,14.1-0.3,14.1-0.3c0.3,0,0.4,0.7,0.4,0.7s1.3,6.5,1.4,6.9
	c0,0.4-0.3,0.4-0.3,0.4s-15.1,0-15.4,0S228.4,419.7,228.4,419.5z M219.9,419.6l0.1-8.1l3.1,0l0.1,8.2L219.9,419.6z M203.8,418.9
	l0.3-7.8l14,0.4l0.1,0.3l-0.2,7.5l-0.2,0.3c0,0-13.5-0.4-13.7-0.4C203.8,419.1,203.8,418.9,203.8,418.9z M193.6,417.7l1.4-4.3l5.4-2
	l0.1,7.7c0,0,0,0.2-0.3,0.2c-0.3,0-6.1,0.1-6.1,0.1l-0.6-0.9c0,0,0.1-0.2,0.1-0.5C193.7,417.8,193.6,417.7,193.6,417.7z
	 M192.3,419.5l0-1.4l0.8,1.3L192.3,419.5z M192.2,416.5l0-2.1l2-0.7l-1.2,3.9L192.2,416.5z"/>
<path fill="#556F5D" d="M177.1,448.9c4.1-0.3,5.5-3.1,7.2-6.6c0.7-1.4,1.4-2.8,2.3-4.3c4.2-6.5,13.1-7.4,18.9-4.5
	c3.2,1.6,7.2,5.1,8.2,12.5l0,0.1c0.2,1.5,0.4,2.3,1.3,2.3c0.8,0,16.2,0,26.2,0.1c1.3,0,2.4,0,3.3,0c6.8,0,7.2,0,9.4-1.2
	c1.5-0.8,3.3-2.2,5.7-4c2.1-1.6,4.5-3.4,7.5-5.4c6-4,9.6-5.3,15.7-5.3c2.4,0,6.3,0.6,11.3,3.5c0.1,0.1,0.2,0.1,0.3,0.1
	c0.6,0.3,2.2,0.3,2.2,0.3v-0.4c-0.4,0-1.7-0.1-2.1-0.3c-0.1,0-0.1-0.1-0.2-0.1c-5.1-3-9.1-3.6-11.5-3.6c-6.1,0-9.9,1.2-15.9,5.3
	c-2.9,2-5.3,3.8-7.5,5.4c-2.3,1.7-4.2,3.1-5.6,3.9c-2.2,1.2-2.5,1.2-9.2,1.1c-1,0-2.1,0-3.3,0c-10,0-25.4-0.1-26.2-0.1
	c-0.6,0-0.7-0.3-1-1.9l0-0.1c-1-7.6-5.1-11.1-8.4-12.8c-6-3-15.1-2-19.4,4.6c-1,1.5-1.7,3-2.4,4.3c-1.7,3.4-3,6.2-6.9,6.4
	L177.1,448.9z"/>
<polygon fill="#556F5D" points="214.9,443.4 257.4,443.4 257.4,443.1 214.6,443.1 "/>
<linearGradient id="SVGID_2_" gradientUnits="userSpaceOnUse" x1="811.6995" y1="-149.889" x2="823.5013" y2="-149.889" gradientTransform="matrix(-0.2954 0 0 -0.2954 471.365 381.3793)">
	<stop  offset="0.4303" style="stop-color:#A5ADAD"/>
	<stop  offset="0.9939" style="stop-color:#C9D1D0"/>
</linearGradient>
<path fill="url(#SVGID_2_)" d="M231.5,425.4c0,0-0.4,0.3-1.4,0.2c-0.6-0.1-0.9-0.2-1.2-0.3c-0.3-0.1-0.5-0.1-0.6,0
	c-0.3,0.2-0.2,0.6,0,0.6c0.2,0.1,0.4,0,0.4-0.3c0.2,0.1,0.8,0.3,1.7,0.2c0.9-0.1,1.1-0.2,1.2-0.4
	C231.6,425.6,231.7,425.3,231.5,425.4z"/>
<linearGradient id="SVGID_3_" gradientUnits="userSpaceOnUse" x1="893.4995" y1="-148.989" x2="905.3013" y2="-148.989" gradientTransform="matrix(-0.2954 0 0 -0.2954 471.365 381.3793)">
	<stop  offset="0.4303" style="stop-color:#A5ADAD"/>
	<stop  offset="0.9939" style="stop-color:#C9D1D0"/>
</linearGradient>
<path fill="url(#SVGID_3_)" d="M207.3,425.1c0,0-0.4,0.3-1.4,0.2c-0.6-0.1-0.9-0.2-1.2-0.3c-0.3-0.1-0.5-0.1-0.6,0
	c-0.3,0.2-0.2,0.6,0,0.6c0.2,0.1,0.4,0,0.4-0.3c0.2,0.1,0.8,0.3,1.7,0.2c0.9-0.1,1.1-0.2,1.2-0.4C207.4,425.3,207.5,425,207.3,425.1
	z"/>
<path fill="#203934" d="M240.1,420L240.1,420c0.2,0,0.4,0,0.6,0H240.1z"/>
<path fill="#203934" d="M243.4,415.8c0.4,0,0.4,0.4-0.3,1.4s-1.8,2.7-1.8,2.7h-0.6c-0.2,0-0.4,0-0.6,0c0,0,0.6-1,1.7-2.5
	C242.9,416,243.2,415.8,243.4,415.8z"/>
<linearGradient id="SVGID_4_" gradientUnits="userSpaceOnUse" x1="771.9808" y1="-123.8208" x2="780.6901" y2="-123.8208" gradientTransform="matrix(-0.2954 0 0 -0.2954 471.365 381.3793)">
	<stop  offset="0.2121" style="stop-color:#5A7671"/>
	<stop  offset="0.6121" style="stop-color:#3A5550"/>
	<stop  offset="0.9939" style="stop-color:#203934"/>
</linearGradient>
<path fill="url(#SVGID_4_)" d="M243.4,416.4c0,0.4-2.5,3.4-2.5,3.4l-0.1-0.1c0,0,1.4-2.3,1.9-2.9C243.2,416.1,243.4,416,243.4,416.4
	z"/>
<path fill="#000600" d="M226.3,409.4c0,2.8,0,3.5,0.1,7.1c0,3-0.1,5.9-0.1,6.6c0,0.7-0.1,1.3-0.1,1.3h-0.8c0,0,0.2-1,0.3-1.9
	c0.1-0.9,0.1-4.9,0-6.4c-0.1-1.5-0.7-3.6-1.2-4.9c-0.5-1.3-0.9-1.5-0.9-1.5l1.7-0.3L226.3,409.4z"/>
<path fill="#08100A" d="M223.1,409.4c0,0,0.1,1.7,0,2.5l0,0v-0.2h-0.7c0.1-0.3,0.1-0.9-0.6-1c-1-0.3-2.6-0.1-4.6-0.4
	c-2-0.4-1.4,0.3-2.9,0.3s-2-0.5-4.4-0.6s-4.7,0-5.5-0.2c-0.8-0.2-1.9-1.1-1.9-1.1l-0.3-0.7L223.1,409.4z"/>
<path fill="#000600" d="M202.2,407.5c0,0,0.1,6.5,0.2,7.7c0.1,1.2,0,6.1-0.1,7.1c-0.1,1-0.1,1.2,0.1,1.4c0.3,0.2,1.1,0.6,1.1,0.6
	s-0.9,0.1-1.2,0s-0.2,0-0.4-0.4c-0.2-0.4-0.5-0.8-0.4-1.7c0.2-0.9-0.1-2.8,0.1-4.7c0.2-1.9-0.1-4.1-0.1-5.7c0-1.6-0.2-3.7-0.3-3.9
	C201.3,407.8,202.2,407.5,202.2,407.5z"/>
<path fill="#000600" d="M222.3,421.2c0.3-0.1,0.2-0.2-0.2-0.6c-0.3-0.3-0.7-0.7-0.9-0.9l2,0.1c0,0-0.1,3.6-0.1,4
	c0,0.4,0.3,0.6,0.3,0.6h-1.2c0,0-0.1,0-0.1-0.2c0-0.3-0.4-1-0.8-1.6c-0.4-0.5-0.8-0.9-0.8-1.2C220.4,421.1,222,421.3,222.3,421.2z"
	/>
<path fill="#000600" d="M221.1,419.6L221.1,419.6l2.1,0.2l-2-0.1C221.1,419.6,221.1,419.6,221.1,419.6z"/>
<image overflow="visible" enable-background="new    " width="150" height="38" xlink:href="9C55180B.png"  transform="matrix(6.899768e-002 0 0 5.782971e-002 236.9422 406.7321)">
</image>
<path fill="#1C1E00" d="M245.9,439.1c0,0.1,0.1,0.2,0.3,0.2l0,0c0.1,0,0.3-0.1,0.3-0.2v-1.4c0-0.1-0.1-0.2-0.3-0.2l0,0
	c-0.1,0-0.3,0.1-0.3,0.2V439.1z"/>
<path fill="#585A00" d="M246.1,439c0,0.1,0.1,0.2,0.2,0.2l0,0c0.1,0,0.2-0.1,0.2-0.2v-1.3c0-0.1-0.1-0.2-0.2-0.2l0,0
	c-0.1,0-0.2,0.1-0.2,0.2V439z"/>
<path fill="#1C1E00" d="M245.9,427.1c0,0.1,0.1,0.2,0.3,0.2l0,0c0.1,0,0.3-0.1,0.3-0.2v-1.4c0-0.1-0.1-0.2-0.3-0.2l0,0
	c-0.1,0-0.3,0.1-0.3,0.2V427.1z"/>
<path fill="#585A00" d="M246.1,426.9c0,0.1,0.1,0.2,0.2,0.2l0,0c0.1,0,0.2-0.1,0.2-0.2v-1.3c0-0.1-0.1-0.2-0.2-0.2l0,0
	c-0.1,0-0.2,0.1-0.2,0.2V426.9z"/>
<path fill="#1C1E00" d="M222.3,439.1c0,0.1,0.1,0.2,0.3,0.2l0,0c0.1,0,0.3-0.1,0.3-0.2v-1.4c0-0.1-0.1-0.2-0.3-0.2l0,0
	c-0.1,0-0.3,0.1-0.3,0.2V439.1z"/>
<path fill="#585A00" d="M222.5,439c0,0.1,0.1,0.2,0.2,0.2l0,0c0.1,0,0.2-0.1,0.2-0.2v-1.3c0-0.1-0.1-0.2-0.2-0.2l0,0
	c-0.1,0-0.2,0.1-0.2,0.2V439z"/>
<path fill="#1C1E00" d="M222.3,427.1c0,0.1,0.1,0.2,0.3,0.2l0,0c0.1,0,0.3-0.1,0.3-0.2v-1.4c0-0.1-0.1-0.2-0.3-0.2l0,0
	c-0.1,0-0.3,0.1-0.3,0.2V427.1z"/>
<path fill="#585A00" d="M222.5,426.9c0,0.1,0.1,0.2,0.2,0.2l0,0c0.1,0,0.2-0.1,0.2-0.2v-1.3c0-0.1-0.1-0.2-0.2-0.2l0,0
	c-0.1,0-0.2,0.1-0.2,0.2V426.9z"/>
<path fill="#0D2420" d="M241.3,420h-1.2l0,0C240.5,420,240.9,419.9,241.3,420C241.3,420,241.3,420,241.3,420z"/>
<path fill="#0D2420" d="M240.9,419.4c0,0.3,0.4,0.1,0.7-0.3c0.4-0.4,1.9-2.5,1.8-3c0-0.2-0.3-0.1-0.5,0c0.3-0.3,0.4-0.3,0.5-0.3
	c0.4,0,0.4,0.4-0.3,1.4s-1.8,2.7-1.8,2.7c-0.4,0-0.8,0-1.2,0c0,0,0.4-0.6,1.1-1.6C241.1,418.6,240.9,419.1,240.9,419.4z"/>
<circle fill="#000600" cx="225" cy="423.7" r="0.2"/>
<path fill="#333400" d="M257.6,443.1c0.3-0.3,1.4-1.3,3.6-3.1c2.8-2.3,8.2-8,15.2-9.9c3.2-0.9,6.8-0.6,9.7-0.1
	c1.2,0.3,3.2,1,5.4,2.3c3,1.8,4.1,3.1,4.8,3.5c-0.3,0-1-0.2-2.4-0.8c-3.3-1.4-10.5-6-19.2-2.5c-8.7,3.5-15.7,10.2-16.7,10.7
	C257.8,443.3,257.7,443.3,257.6,443.1z"/>
<linearGradient id="SVGID_5_" gradientUnits="userSpaceOnUse" x1="872.9633" y1="-182.5925" x2="945.1633" y2="-182.5925" gradientTransform="matrix(-0.2954 0 0 -0.2954 471.365 381.3793)">
	<stop  offset="0" style="stop-color:#BBB745"/>
	<stop  offset="0.166" style="stop-color:#B1AD3E"/>
	<stop  offset="0.451" style="stop-color:#95912D"/>
	<stop  offset="0.8185" style="stop-color:#696510"/>
	<stop  offset="1" style="stop-color:#504C00"/>
</linearGradient>
<path fill="url(#SVGID_5_)" d="M192.2,431.3c0,0,6.9-3,13.7,0c5.8,2.6,7.6,9.3,7.6,9.3s-2.6-6.9-8.9-9.2
	C198.3,429.3,192.2,431.3,192.2,431.3z"/>
<linearGradient id="SVGID_6_" gradientUnits="userSpaceOnUse" x1="599.0633" y1="-173.5922" x2="677.8633" y2="-173.5922" gradientTransform="matrix(-0.2954 0 0 -0.2954 471.365 381.3793)">
	<stop  offset="0" style="stop-color:#BBB745"/>
	<stop  offset="0.166" style="stop-color:#B1AD3E"/>
	<stop  offset="0.451" style="stop-color:#95912D"/>
	<stop  offset="0.8185" style="stop-color:#696510"/>
	<stop  offset="1" style="stop-color:#504C00"/>
</linearGradient>
<path fill="url(#SVGID_6_)" d="M271.1,433.4c0,0,6.4-4.2,13.2-2.9s10.1,4.5,10.1,4.5s-5.9-3.8-11.6-4.1
	C276.6,430.6,271.1,433.4,271.1,433.4z"/>
<path fill="#4B4B4B" d="M219.5,424.3c0,0-1,0.1-1.8,0.1c-0.8-0.1-3.4-0.4-3.4-0.4s1.9,0.1,2.4,0.1
	C217.3,424.2,219.4,424.4,219.5,424.3z"/>
<path fill="#4B4B4B" d="M241,424.4c0,0-1.8,0.2-3.3,0.1c-1.6-0.1-3.5,0-3.5,0c0.1,0,2.7-0.3,3.5-0.2
	C238.5,424.2,241,424.4,241,424.4z"/>
<path fill="#4B4B4B" d="M246.4,422.7c0,0,0,0.8,0.1,1.1c0.1,0.2,0.1,0.7,0.1,0.7s0-0.1-0.7-0.1s-2.1-0.1-2-0.1c0.1,0,1.7,0,2.1-0.1
	s0.4,0,0.4,0S246.3,423.1,246.4,422.7z"/>
<path fill="#4B4B4B" d="M202.6,419.4c0,0-0.1,2.5-0.2,2.9c-0.1,0.4-0.1,1,0,1.2c0,0.1,0.9,0.5,0.9,0.5s-0.6-0.3-0.8-0.8
	C202.4,422.6,202.8,420.4,202.6,419.4z"/>
<path fill="#4B4B4B" d="M195.7,424.1c0,0-1.9-0.1-2.8-0.1s-1.9,0-2.7-0.3c-0.8-0.4-0.9-0.6-0.9-0.6s0.8,0.4,1.9,0.6
	C192.5,423.9,195.7,424.1,195.7,424.1z"/>
<path fill="#00100D" d="M241.3,420h-1.2l0,0C240.5,420,240.9,419.9,241.3,420C241.3,420,241.3,420,241.3,420z"/>
<path fill="#00100D" d="M240.8,419.9c0.7,0,2.9-3.5,2.8-3.8c-0.1-0.3-0.3-0.2-0.5-0.2c0.1-0.1,0.2-0.1,0.3-0.1
	c0.4,0,0.4,0.4-0.3,1.4s-1.8,2.7-1.8,2.7c-0.4,0-0.8,0-1.2,0c0,0,0.1-0.1,0.2-0.3C240.3,419.8,240.4,419.9,240.8,419.9z"/>
<polygon fill="#001418" points="192.3,418.2 187.5,411.1 188.1,410.6 196.7,423.4 196.1,423.8 192.9,419 192.3,418.1 "/>
<polygon fill="#001418" points="192.3,418.1 192.9,419 192.3,418.2 "/>
<path fill="#001418" d="M195.9,407.9l0.7,0.2l-1.5,5.3l-0.1,0l-1.4,4.3c0,0,0.1,0.1,0.1,0.4c0,0.1,0,0.2,0,0.3l0,0.1
	c0,0.1,0,0.1,0,0.1l0,0l-0.1,0.4l-0.7-0.2L195.9,407.9z"/>
<path fill="#001418" d="M193.6,418.4l0,0.1l0,0C193.6,418.5,193.6,418.5,193.6,418.4z"/>
<path fill="#001418" d="M195.1,413.4l-1.4,4.9c0-0.1,0-0.2,0-0.3c0-0.3-0.1-0.4-0.1-0.4L195.1,413.4L195.1,413.4z"/>
<path fill="#536F74" d="M195.8,408.6l0.4-0.1l-2.4,8.4l-0.3,0.8c0,0,0,0,0,0l-0.3,1l-0.4-0.2L195.8,408.6z"/>
<path fill="#536F74" d="M193.6,417.7C193.6,417.7,193.6,417.7,193.6,417.7l0.2-0.8L193.6,417.7z"/>
<path fill="#001418" d="M192.5,418.4c-0.1-0.4-0.2-0.8,0.4-0.9l0.1,0.1l0.1-0.2c0.2,0,0.4,0.1,0.5,0.2l0,0.1c0,0,0.1,0.1,0.1,0.4
	c0,0.3-0.1,0.5-0.1,0.5l0.1,0.1c-0.1,0.3-0.3,0.5-0.3,0.5S192.6,418.7,192.5,418.4z"/>
<path fill="#001418" d="M192.9,417.4L192.9,417.4c0.1,0,0.1,0,0.2,0l-0.1,0.2L192.9,417.4z"/>
<path fill="#001418" d="M193.7,418c0-0.3-0.1-0.4-0.1-0.4l0-0.1c0.2,0.2,0.2,0.4,0.2,0.6c0,0.1-0.1,0.2-0.1,0.4l-0.1-0.1
	C193.6,418.5,193.7,418.3,193.7,418z"/>
<path fill="#536F74" d="M188.1,410.8l4.6,6.8c0,0,0.1-0.1,0.3-0.1c0,0,0,0,0,0l0.1,0.1l0-0.1c0.5,0,0.7,0.4,0.6,0.8
	c0,0.1-0.1,0.2-0.1,0.2c0,0.1-0.1,0.1-0.1,0.2l3.2,4.8l-0.3,0.3l-8.6-12.8C187.9,410.8,188.1,410.8,188.1,410.8z"/>
<path fill="#536F74" d="M193,417.5C193,417.5,193,417.5,193,417.5L193,417.5L193,417.5z"/>
<path fill="#536F74" d="M193.6,418.3c0,0.1,0,0.1-0.1,0.2C193.6,418.5,193.6,418.4,193.6,418.3L193.6,418.3z"/>
<circle fill="#001418" cx="193.1" cy="418.1" r="0.3"/>
<path fill="#728E93" d="M193,417.6L193,417.6c0.1-0.1,0.2-0.1,0.3,0c0.2,0.1,0.3,0.4,0.3,0.4s-0.1-0.3-0.4-0.4s-0.4-0.1-0.4-0.1
	S192.9,417.6,193,417.6L193,417.6z"/>
<path fill="#728E93" d="M193,417.6C193,417.6,193,417.6,193,417.6L193,417.6L193,417.6z"/>
<path fill="#000600" d="M196,424.2c0,0,0.1,0.2,0.4,0.3c0.3,0.1,0.6-0.2,0.6-0.2s-0.1-0.1-0.4-0.1c-0.2,0-0.4,0-0.4,0L196,424.2z"/>
<circle fill="#001418" cx="196.7" cy="423.8" r="0.6"/>
<circle fill="#536F74" cx="196.7" cy="423.8" r="0.4"/>
<circle fill="#001418" cx="196.7" cy="423.8" r="0.3"/>
<circle fill="#637664" cx="225" cy="423.7" r="0.2"/>
<ellipse fill="#9CB19E" cx="225.1" cy="423.6" rx="0.1" ry="0.1"/>
<circle fill="#000600" cx="228.7" cy="423.7" r="0.2"/>
<circle fill="#637664" cx="228.8" cy="423.7" r="0.2"/>
<ellipse fill="#9CB19E" cx="228.8" cy="423.6" rx="0.1" ry="0.1"/>
<circle fill="#000600" cx="244.5" cy="423.7" r="0.2"/>
<path fill="#637664" d="M244.3,423.6c0,0.1,0.1,0.2,0.2,0.2s0.2-0.1,0.2-0.2c0-0.1-0.1-0.2-0.2-0.2
	C244.4,423.4,244.3,423.5,244.3,423.6z"/>
<ellipse fill="#9CB19E" cx="244.5" cy="423.6" rx="0.1" ry="0.1"/>
<circle fill="#000600" cx="218.7" cy="423.6" r="0.2"/>
<circle fill="#637664" cx="218.7" cy="423.6" r="0.2"/>
<ellipse fill="#9CB19E" cx="218.7" cy="423.5" rx="0.1" ry="0.1"/>
<circle fill="#000600" cx="203.6" cy="423.5" r="0.2"/>
<circle fill="#637664" cx="203.7" cy="423.4" r="0.2"/>
<ellipse fill="#9CB19E" cx="203.7" cy="423.4" rx="0.1" ry="0.1"/>
<circle fill="#000600" cx="201.3" cy="423.4" r="0.2"/>
<circle fill="#637664" cx="201.3" cy="423.4" r="0.2"/>
<ellipse fill="#9CB19E" cx="201.3" cy="423.3" rx="0.1" ry="0.1"/>
<circle fill="#000600" cx="189.1" cy="421.7" r="0.2"/>
<circle fill="#637664" cx="189.1" cy="421.7" r="0.2"/>
<ellipse fill="#9CB19E" cx="189.1" cy="421.6" rx="0.1" ry="0.1"/>
<path fill="#000600" d="M194.4,410.8c0.2-0.8-0.2-1.1-0.2-1.1h0.4c0.2,0.1,0.4,0.9,0.4,0.9l-0.9,3.1l-0.6,0.2
	C193.6,413.9,194.2,411.5,194.4,410.8z"/>
<polygon fill="#000600" points="187.4,411.5 187.4,411 192.3,418.2 192.3,418.3 192.3,418.6 "/>
<polygon fill="#000600" points="192.3,418.2 192.3,418.3 192.3,418.2 "/>
<path fill="#000600" d="M193.1,419.4l2.9,4.3c0,0,0,0.2,0.1,0.3c0.1,0.1,0.1,0.1,0.1,0.1l-0.4-0.1c0,0,0-0.2,0-0.3
	c0-0.1,0-0.1,0-0.1l-3.1-4.3L193.1,419.4z"/>
<path fill="#788372" d="M181.7,433.1c0,0-0.1-0.2-0.4-0.1c-0.3,0-0.3,0.2-0.3,0.2s0,2.3,0,2.5c0,0.1,0.4,0.3,0.8,0.1
	C181.8,435.7,181.7,433.1,181.7,433.1z"/>
<path fill="#26290C" d="M183.5,434.3c-0.3-0.4-0.5-1-1.2-1.2c-0.6-0.2-0.9-0.1-0.9-0.1v2.8c0,0,0.7,0.1,1.2-0.2
	c0.2-0.1,0.3-0.2,0.4-0.3c0,0,0.1,0.1,0.1,0.1l1.6,2.1l0.8-1.2C185.5,436.2,183.8,434.7,183.5,434.3z"/>
<path fill="#000600" d="M244.7,409.4c0,0-2.7,1.1-4.9,1.1s-6.3,0.3-7.7,0.3c-1.4,0-2.4-0.2-4.3-0.4s-4.7-0.2-4.7-0.2
	s-1.6,0.1-3.3-0.1c-1.7-0.1-7.6-0.6-9.5-0.9c-1.9-0.3-7.2-0.4-8-0.4c-0.8,0.1-1.6-0.1-3.2,0.1c-1.6,0.1-2.6,0.5-2.6,0.5l0.4-1.2
	l0.6-0.5c0,0,20.1,0.7,24.7,1c4.7,0.3,9.2,0.8,13.4,0.7c4.1-0.1,8.1-0.3,8.1-0.3l1.1-0.1L244.7,409.4L244.7,409.4z"/>
<path fill="#000600" d="M195,410.7c0,0-0.1-1.1-1.7-1.1s-2.8,0.8-3.5,1c-0.6,0.1-1.2,0.7-1.2,0.7l-0.4-0.8c0,0,1.9-1.3,3.4-1.6
	c1.5-0.3,4.2-0.6,4.2-0.6L195,410.7z"/>
<linearGradient id="SVGID_7_" gradientUnits="userSpaceOnUse" x1="724.9033" y1="-232.264" x2="729.6873" y2="-232.264" gradientTransform="matrix(-0.2954 0 0 -0.2954 471.365 381.3793)">
	<stop  offset="1.212120e-002" style="stop-color:#5C726E"/>
	<stop  offset="1" style="stop-color:#B5C0C0"/>
</linearGradient>
<path fill="url(#SVGID_7_)" d="M257.3,449.8l-1.2,0c0,0-0.2,0.3-0.1,0.3c0.1,0,1.4,0,1.4,0V449.8z"/>
<path fill="#5E7F40" d="M229.1,405c0,0,3.4,0.9,7.9,1.7c4.5,0.7,8.5,1.1,9.3,1.2c0.8,0.1,1.5,0.5,1.1,0.8c-0.4,0.4-1.4,0.4-3.7,0.6
	c-2.2,0.2-14.7,0.6-20,0.4c-5.3-0.2-18.1-1.4-23-1.5c-4.9-0.1-9.7,1-11.3,1.7c-1.7,0.7-2.1,1.1-2.1,1.1s-4.8-5.8-3.9-6.8
	s1.3,0.3,5.4-0.4c6.6-1.1,8.4-2.1,9.5-2.4c1.1-0.3,1.7,1,15.3,2.4c3.1,0.3,7.2,0.6,9.9,0.9C227,405,228.9,404.9,229.1,405z"/>
<path fill="#484A00" d="M181.9,433.2c0,0,0.5,0.2,0.6,0.6c0.2,0.4,0.1,0.6,0.1,0.6s-0.3-0.1-0.6,0c-0.2,0.1-0.5,0.1-0.5-0.1
	s0-0.9,0.1-1C181.8,433.1,181.9,433.2,181.9,433.2z"/>
<path fill="#333400" d="M184.9,436.8l-0.1,0.4l-1.3-1.7c0,0,0.9,0.8,1.1,1C184.8,436.7,184.9,436.8,184.9,436.8z"/>
<linearGradient id="SVGID_8_" gradientUnits="userSpaceOnUse" x1="967.9482" y1="-180.3" x2="978.7988" y2="-180.3" gradientTransform="matrix(-0.2954 0 0 -0.2954 471.365 381.3793)">
	<stop  offset="0" style="stop-color:#BBB745"/>
	<stop  offset="0.166" style="stop-color:#B1AD3E"/>
	<stop  offset="0.451" style="stop-color:#95912D"/>
	<stop  offset="0.8185" style="stop-color:#696510"/>
	<stop  offset="1" style="stop-color:#504C00"/>
</linearGradient>
<path fill="url(#SVGID_8_)" d="M182.3,433c0,0,0.6,0.1,1.1,0.9c0.4,0.8,2.1,2.2,2.1,2.2s-1.1-0.7-1.9-1.8
	C183,433.9,183.2,433.6,182.3,433z"/>
<linearGradient id="SVGID_9_" gradientUnits="userSpaceOnUse" x1="970.3213" y1="-186.0888" x2="976.374" y2="-186.0888" gradientTransform="matrix(-0.2954 0 0 -0.2954 471.365 381.3793)">
	<stop  offset="0" style="stop-color:#BBB745"/>
	<stop  offset="0.166" style="stop-color:#B1AD3E"/>
	<stop  offset="0.451" style="stop-color:#95912D"/>
	<stop  offset="0.8185" style="stop-color:#696510"/>
	<stop  offset="1" style="stop-color:#504C00"/>
</linearGradient>
<path fill="url(#SVGID_9_)" d="M183,435.3c0,0,0.1,0,0.5,0.6c0.3,0.5,1.2,1.6,1.2,1.6l0.1-0.1c0,0-1-1.2-1.3-1.7
	C183.2,435.3,183.2,435.3,183,435.3z"/>
<path fill="#51682F" d="M244.4,409.2c0,0-5.8-0.1-8.9,0.1s-9.4,0.4-9.4,0.4S241.7,409.8,244.4,409.2z"/>
<linearGradient id="SVGID_10_" gradientUnits="userSpaceOnUse" x1="642.2633" y1="-133.5001" x2="754.9633" y2="-133.5001" gradientTransform="matrix(-0.2954 0 0 -0.2954 471.365 381.3793)">
	<stop  offset="0" style="stop-color:#BBB745"/>
	<stop  offset="0.166" style="stop-color:#B1AD3E"/>
	<stop  offset="0.451" style="stop-color:#95912D"/>
	<stop  offset="0.8185" style="stop-color:#696510"/>
	<stop  offset="1" style="stop-color:#504C00"/>
</linearGradient>
<path fill="url(#SVGID_10_)" d="M281.7,421.4c0,0-29.4,0-30.2,0c-2.3,0-3.1-1.1-3.1-1.1l33.3,0V421.4z"/>
<path fill="#1C1E00" d="M255.7,419.3c0.2,0,0.3,0.1,0.3,0.3v22.6c0,0.2-0.1,0.3-0.3,0.3c-0.2,0-0.3-0.1-0.3-0.3v-22.6
	C255.3,419.5,255.5,419.3,255.7,419.3z"/>
<path fill="#504C00" d="M255.5,442.3c0,0.1,0.1,0.2,0.2,0.2l0,0c0.1,0,0.2-0.1,0.2-0.2v-22.6c0-0.1-0.1-0.2-0.2-0.2l0,0
	c-0.1,0-0.2,0.1-0.2,0.2V442.3z"/>
<linearGradient id="SVGID_11_" gradientUnits="userSpaceOnUse" x1="630.2256" y1="-133.5" x2="639.2363" y2="-133.5" gradientTransform="matrix(-0.2954 0 0 -0.2954 471.365 381.3793)">
	<stop  offset="1.212120e-002" style="stop-color:#FFFFFF"/>
	<stop  offset="0.1699" style="stop-color:#FAFBFB"/>
	<stop  offset="0.3685" style="stop-color:#EAF1F0"/>
	<stop  offset="0.589" style="stop-color:#D0DFDF"/>
	<stop  offset="0.8237" style="stop-color:#ADC7C6"/>
	<stop  offset="1" style="stop-color:#8DB1B0"/>
</linearGradient>
<path fill="url(#SVGID_11_)" d="M282.5,420.2h2.4c0,0,0.2,0,0.2,0.3s0,0.8,0,0.8h-2.7V420.2z"/>
<image overflow="visible" enable-background="new    " width="138" height="100" xlink:href="9C551809.png"  transform="matrix(6.831963e-002 0 0 6.734363e-002 188.65 401.6158)">
</image>
<image overflow="visible" enable-background="new    " width="225" height="54" xlink:href="9C55180F.png"  transform="matrix(6.962780e-002 0 0 6.432432e-002 212.8604 404.6526)">
</image>
<image overflow="visible" enable-background="new    " width="163" height="50" xlink:href="9C551808.png"  transform="matrix(6.871355e-002 0 0 6.521699e-002 196.356 404.8093)">
</image>
<image overflow="visible" enable-background="new    " width="142" height="42" xlink:href="9C551806.png"  transform="matrix(6.889118e-002 0 0 6.244897e-002 227.1909 407.3515)">
</image>
<linearGradient id="SVGID_12_" gradientUnits="userSpaceOnUse" x1="622.0677" y1="-142.5256" x2="622.0677" y2="-151.1806" gradientTransform="matrix(-0.2954 0 0 -0.2954 471.365 381.3793)">
	<stop  offset="0" style="stop-color:#BBB745"/>
	<stop  offset="0.166" style="stop-color:#B1AD3E"/>
	<stop  offset="0.451" style="stop-color:#95912D"/>
	<stop  offset="0.8185" style="stop-color:#696510"/>
	<stop  offset="1" style="stop-color:#504C00"/>
</linearGradient>
<path fill="url(#SVGID_12_)" d="M287.9,426c0,0-0.7-2.1-0.4-2.4c0.2-0.2,0.4-0.1,0.4-0.1V426z"/>
<path fill="#8DB1B0" d="M288.1,430.5v-7.3c0.4,0,0.5,0.1,0.5,0.1s0.2,0.1,0.2,0.3v6.3C288.8,430.3,288.5,430.5,288.1,430.5z"/>
<linearGradient id="SVGID_13_" gradientUnits="userSpaceOnUse" x1="619.3633" y1="-142.0866" x2="619.3633" y2="-152.8825" gradientTransform="matrix(-0.2954 0 0 -0.2954 471.365 381.3793)">
	<stop  offset="1.212120e-002" style="stop-color:#FFFFFF"/>
	<stop  offset="0.1699" style="stop-color:#FAFBFB"/>
	<stop  offset="0.3685" style="stop-color:#EAF1F0"/>
	<stop  offset="0.589" style="stop-color:#D0DFDF"/>
	<stop  offset="0.8237" style="stop-color:#ADC7C6"/>
	<stop  offset="1" style="stop-color:#8DB1B0"/>
</linearGradient>
<path fill="url(#SVGID_13_)" d="M288.2,423.4c0,0,0.5-0.1,0.5,0.2c0,0.1-0.1,1.1-0.2,1.6c-0.1,0.6-0.4,1.4-0.4,1.4V423.4z"/>
<polygon fill="#4D8F9F" points="193.1,417.4 193.1,417.4 194.2,413.8 "/>
<path fill="#4D8F9F" d="M193.6,414l0.6-0.2L193.6,414z"/>
<polygon fill="#4D8F9F" points="192.9,417.4 192.9,417.5 192.7,417.2 192.7,417.2 "/>
<polygon fill="#4D8F9F" points="193,417.6 192.9,417.4 193.1,417.4 "/>
<polygon fill="#4D8F9F" points="193.6,414 194.2,413.8 193.1,417.4 192.9,417.4 192.7,417.2 "/>
<polygon fill="#4D8F9F" points="192.3,418.5 192.3,418.2 192.3,418.2 192.3,418.6 "/>
<polygon fill="#4D8F9F" points="193.1,419.5 192.8,419.5 192.8,419.4 193.1,419.4 "/>
<polygon fill="#4D8F9F" points="192.3,418.1 193.1,419.4 193.1,419.4 192.3,418.2 "/>
<polygon fill="#4D8F9F" points="192.3,418.2 193.1,419.4 192.8,419.4 192.3,418.6 "/>
<g>
	<ellipse fill="#182121" cx="199.1" cy="445.7" rx="5.5" ry="5.6"/>
	<ellipse fill="#203131" cx="199.1" cy="445.7" rx="5.1" ry="5.2"/>
	<path fill="#131400" d="M199,433.2c-6.8,0-12.3,5.6-12.3,12.6c0,6.9,5.5,12.6,12.3,12.6c6.8,0,12.3-5.6,12.3-12.6
		C211.2,438.8,205.7,433.2,199,433.2z M199,453.6c-4.3,0-7.7-3.6-7.7-8c0-4.4,3.5-8,7.7-8c4.3,0,7.7,3.6,7.7,8
		S203.2,453.6,199,453.6z"/>
	<path fill="#131400" d="M199,436.3c-4.9,0-8.9,4.1-8.9,9.2c0,5.1,4,9.2,8.9,9.2c4.9,0,8.9-4.1,8.9-9.2
		C207.9,440.5,203.9,436.3,199,436.3z M199,454.2c-4.6,0-8.4-3.9-8.4-8.7c0-4.8,3.8-8.7,8.4-8.7c4.6,0,8.4,3.9,8.4,8.7
		C207.3,450.3,203.6,454.2,199,454.2z"/>
	<path fill="#556F5D" d="M199,436.9c-4.6,0-8.4,3.9-8.4,8.7c0,4.8,3.8,8.7,8.4,8.7c4.6,0,8.4-3.9,8.4-8.7
		C207.3,440.8,203.6,436.9,199,436.9z M199,453.6c-4.3,0-7.7-3.6-7.7-8c0-4.4,3.5-8,7.7-8c4.3,0,7.7,3.6,7.7,8
		S203.2,453.6,199,453.6z"/>
	
		<linearGradient id="SVGID_14_" gradientUnits="userSpaceOnUse" x1="672.9149" y1="-234.5144" x2="672.9149" y2="-175.3144" gradientTransform="matrix(0.2954 0 0 -0.2954 0 381.3793)">
		<stop  offset="0" style="stop-color:#131400"/>
		<stop  offset="8.112125e-002" style="stop-color:#181702"/>
		<stop  offset="0.5105" style="stop-color:#2C240A"/>
		<stop  offset="0.8" style="stop-color:#33290D"/>
	</linearGradient>
	<path fill="url(#SVGID_14_)" d="M199,433.2c-6.6,0-12,5.3-12.2,12c0.1,1.3,0.4,2.3,0.6,2.6c0.8,1.5,1.9,1.3,1.9,1.3s-1-2.6-0.4-5.7
		c0.8-3.8,4.5-9.1,10.9-8.5c5.5,0.5,9.1,5.3,9.5,9.2c0.4,4-0.9,6.5-0.9,6.5c2.1-1.2,2.2-4.4,2.3-4.9
		C211.5,438.8,205.7,433.2,199,433.2z"/>
	<path fill="#000304" d="M201.1,456.6c-8.5,1.8-13.1-6.2-13.9-9c-0.3-1.1-0.4-2.1-0.5-2.8c0,0.3,0,0.6,0,0.9
		c0,6.9,5.5,12.6,12.3,12.6c6.6,0,11.9-5.3,12.2-12C210.7,448.8,208.8,455.1,201.1,456.6z"/>
	<polygon fill="#556F5D" points="207.1,445.6 207.1,445.4 199.3,445.5 205.4,440.7 205.3,440.5 199.2,445.3 201.4,437.9 
		201.2,437.8 198.9,445.2 196.7,437.8 196.4,437.9 198.7,445.3 192.4,440.8 192.3,441 198.6,445.5 190.8,445.7 190.8,445.9 
		198.6,445.8 192.5,450.6 192.6,450.8 198.7,446 196.5,453.4 196.7,453.5 198.9,446.1 201.2,453.5 201.5,453.4 199.2,446 
		205.5,450.5 205.6,450.3 199.3,445.8 	"/>
	<polygon fill="#556F5D" points="191.3,447.6 191.1,447.4 193.1,445.7 191.1,444.3 191.2,444.1 193.5,445.7 	"/>
	<polygon fill="#556F5D" points="207,447.4 207.2,447.2 205.2,445.5 207.3,444.1 207.1,443.9 204.8,445.5 	"/>
	<polygon fill="#556F5D" points="191.6,442.8 191.6,442.5 194.2,442.3 193.3,439.9 193.6,439.8 194.5,442.5 	"/>
	<polygon fill="#556F5D" points="204.4,451.9 204.7,451.8 204,449.3 206.5,449.3 206.5,449 203.7,449.1 	"/>
	<polygon fill="#556F5D" points="194.7,438.5 194.9,438.3 197.1,439.7 197.9,437.3 198.1,437.4 197.2,440.1 	"/>
	<polygon fill="#556F5D" points="199.5,453.9 199.8,454 200.8,451.6 202.8,453.2 203,453 200.7,451.2 	"/>
	<polygon fill="#556F5D" points="199.5,437.4 199.7,437.4 200.7,439.7 202.7,438.2 202.9,438.4 200.6,440.1 	"/>
	<polygon fill="#556F5D" points="194.8,452.8 195,453 197.1,451.6 197.9,454 198.1,454 197.3,451.2 	"/>
	<polygon fill="#556F5D" points="204.3,439.2 204.5,439.2 203.9,441.8 206.4,441.7 206.4,442 203.6,442 	"/>
	<polygon fill="#556F5D" points="191.5,449 191.5,449.3 194.1,449.4 193.3,451.8 193.5,451.9 194.4,449.2 	"/>
	<ellipse fill="#6E4400" cx="199" cy="445.7" rx="2.2" ry="2.2"/>
	<ellipse fill="#AF9126" cx="199" cy="445.7" rx="2" ry="2.1"/>
	<g>
		<path fill="#6E4400" d="M199,444.6c-0.6,0-1.1,0.5-1.1,1.1c0,0.6,0.5,1.1,1.1,1.1c0.6,0,1.1-0.5,1.1-1.1
			C200.1,445.1,199.6,444.6,199,444.6z M199,446.6c-0.5,0-0.9-0.4-0.9-1s0.4-1,0.9-1c0.5,0,0.9,0.4,0.9,1S199.5,446.6,199,446.6z"/>
		<path fill="#6E4400" d="M199,444.3c-0.7,0-1.3,0.6-1.3,1.3c0,0.7,0.6,1.3,1.3,1.3c0.7,0,1.3-0.6,1.3-1.3
			C200.3,444.9,199.7,444.3,199,444.3z M199,446.9c-0.6,0-1.2-0.5-1.2-1.2c0-0.6,0.5-1.2,1.2-1.2s1.2,0.5,1.2,1.2
			C200.2,446.3,199.7,446.9,199,446.9z"/>
	</g>
</g>
<g>
	<ellipse fill="#182121" cx="281.9" cy="445.7" rx="5.5" ry="5.6"/>
	<ellipse fill="#203131" cx="281.9" cy="445.7" rx="5.1" ry="5.2"/>
	<path fill="#131400" d="M281.8,433.2c-6.8,0-12.3,5.6-12.3,12.6c0,6.9,5.5,12.6,12.3,12.6c6.8,0,12.3-5.6,12.3-12.6
		C294,438.8,288.6,433.2,281.8,433.2z M281.8,453.6c-4.3,0-7.7-3.6-7.7-8c0-4.4,3.5-8,7.7-8c4.3,0,7.7,3.6,7.7,8
		S286,453.6,281.8,453.6z"/>
	<path fill="#131400" d="M281.8,436.3c-4.9,0-8.9,4.1-8.9,9.2c0,5.1,4,9.2,8.9,9.2c4.9,0,8.9-4.1,8.9-9.2
		C290.7,440.5,286.7,436.3,281.8,436.3z M281.8,454.2c-4.6,0-8.4-3.9-8.4-8.7c0-4.8,3.8-8.7,8.4-8.7c4.6,0,8.4,3.9,8.4,8.7
		C290.1,450.3,286.4,454.2,281.8,454.2z"/>
	<path fill="#556F5D" d="M281.8,436.9c-4.6,0-8.4,3.9-8.4,8.7c0,4.8,3.8,8.7,8.4,8.7c4.6,0,8.4-3.9,8.4-8.7
		C290.1,440.8,286.4,436.9,281.8,436.9z M281.8,453.6c-4.3,0-7.7-3.6-7.7-8c0-4.4,3.5-8,7.7-8c4.3,0,7.7,3.6,7.7,8
		S286,453.6,281.8,453.6z"/>
	
		<linearGradient id="SVGID_15_" gradientUnits="userSpaceOnUse" x1="953.2959" y1="-234.5144" x2="953.2959" y2="-175.3144" gradientTransform="matrix(0.2954 0 0 -0.2954 0 381.3793)">
		<stop  offset="0" style="stop-color:#131400"/>
		<stop  offset="8.112125e-002" style="stop-color:#181702"/>
		<stop  offset="0.5105" style="stop-color:#2C240A"/>
		<stop  offset="0.8" style="stop-color:#33290D"/>
	</linearGradient>
	<path fill="url(#SVGID_15_)" d="M281.8,433.2c-6.6,0-12,5.3-12.2,12c0.1,1.3,0.4,2.3,0.6,2.6c0.8,1.5,1.9,1.3,1.9,1.3
		s-1-2.6-0.4-5.7c0.8-3.8,4.5-9.1,10.9-8.5c5.5,0.5,9.1,5.3,9.5,9.2c0.4,4-0.9,6.5-0.9,6.5c2.1-1.2,2.2-4.4,2.3-4.9
		C294.3,438.8,288.6,433.2,281.8,433.2z"/>
	<path fill="#000304" d="M283.9,456.6c-8.5,1.8-13.1-6.2-13.9-9c-0.3-1.1-0.4-2.1-0.5-2.8c0,0.3,0,0.6,0,0.9
		c0,6.9,5.5,12.6,12.3,12.6c6.6,0,11.9-5.3,12.2-12C293.5,448.8,291.6,455.1,283.9,456.6z"/>
	<polygon fill="#556F5D" points="289.9,445.6 289.9,445.4 282.1,445.5 288.3,440.7 288.1,440.5 282,445.3 284.2,437.9 284,437.8 
		281.8,445.2 279.5,437.8 279.2,437.9 281.6,445.3 275.3,440.8 275.1,441 281.4,445.5 273.6,445.7 273.6,445.9 281.4,445.8 
		275.3,450.6 275.4,450.8 281.6,446 279.3,453.4 279.5,453.5 281.8,446.1 284.1,453.5 284.3,453.4 282,446 288.3,450.5 288.4,450.3 
		282.1,445.8 	"/>
	<polygon fill="#556F5D" points="274.1,447.6 274,447.4 275.9,445.7 273.9,444.3 274,444.1 276.3,445.7 	"/>
	<polygon fill="#556F5D" points="289.8,447.4 290,447.2 288,445.5 290.1,444.1 289.9,443.9 287.6,445.5 	"/>
	<polygon fill="#556F5D" points="274.5,442.8 274.4,442.5 277,442.3 276.1,439.9 276.4,439.8 277.4,442.5 	"/>
	<polygon fill="#556F5D" points="287.3,451.9 287.5,451.8 286.8,449.3 289.3,449.3 289.3,449 286.5,449.1 	"/>
	<polygon fill="#556F5D" points="277.6,438.5 277.7,438.3 279.9,439.7 280.7,437.3 280.9,437.4 280,440.1 	"/>
	<polygon fill="#556F5D" points="282.3,453.9 282.6,454 283.6,451.6 285.6,453.2 285.8,453 283.5,451.2 	"/>
	<polygon fill="#556F5D" points="282.3,437.4 282.5,437.4 283.5,439.7 285.5,438.2 285.7,438.4 283.4,440.1 	"/>
	<polygon fill="#556F5D" points="277.6,452.8 277.8,453 280,451.6 280.7,454 281,454 280.1,451.2 	"/>
	<polygon fill="#556F5D" points="287.1,439.2 287.3,439.2 286.7,441.8 289.2,441.7 289.3,442 286.4,442 	"/>
	<polygon fill="#556F5D" points="274.3,449 274.3,449.3 276.9,449.4 276.1,451.8 276.3,451.9 277.2,449.2 	"/>
	<ellipse fill="#6E4400" cx="281.8" cy="445.7" rx="2.2" ry="2.2"/>
	<ellipse fill="#AF9126" cx="281.8" cy="445.7" rx="2" ry="2.1"/>
	<g>
		<path fill="#6E4400" d="M281.8,444.6c-0.6,0-1.1,0.5-1.1,1.1c0,0.6,0.5,1.1,1.1,1.1c0.6,0,1.1-0.5,1.1-1.1
			C282.9,445.1,282.4,444.6,281.8,444.6z M281.8,446.6c-0.5,0-0.9-0.4-0.9-1s0.4-1,0.9-1c0.5,0,0.9,0.4,0.9,1
			S282.3,446.6,281.8,446.6z"/>
		<path fill="#6E4400" d="M281.8,444.3c-0.7,0-1.3,0.6-1.3,1.3c0,0.7,0.6,1.3,1.3,1.3c0.7,0,1.3-0.6,1.3-1.3
			C283.1,444.9,282.5,444.3,281.8,444.3z M281.8,446.9c-0.6,0-1.2-0.5-1.2-1.2c0-0.6,0.5-1.2,1.2-1.2s1.2,0.5,1.2,1.2
			C283,446.3,282.5,446.9,281.8,446.9z"/>
	</g>
</g>
</svg>
