<?xml version="1.0" encoding="utf-8"?>
<!-- Generator: Adobe Illustrator 18.1.1, SVG Export Plug-In . SVG Version: 6.00 Build 0)  -->
<svg version="1.1" id="Isolation_Mode" xmlns="http://www.w3.org/2000/svg" xmlns:xlink="http://www.w3.org/1999/xlink" x="0px"
	 y="0px" viewBox="0 0 612 792" enable-background="new 0 0 612 792" xml:space="preserve">
<path fill="#070B07" d="M465.9,515.3v2.9h0.4v1.1h7.6v2.6h3.7l0.3,0.4h0.3l0.6-0.5h10.5c0,0,3.9-3.3,9.5-3.2
	c5.6,0.1,9.5,7.9,9.5,7.9L533,524v1.8h-4.3c0,0-1,0.1-1.2,0.5c-0.2,0.4,0.2,0.6,0.2,0.6s0.1-0.1,0.5-0.2c0.4-0.1,1-0.1,1-0.1h9.7
	l0.1,0.2h1v0.6l13.1,0.1V527h2.2v0.7h3l0.3-0.4v-0.8h0.6v0.7l0.6,0.9l0.5-0.8c0,0,0.1,0,0.4,0.3c0.4,0.3,1,0.6,1,0.6l10.5,0.3
	c0,0,0.1-0.4,0.2-1.2l-8.5-0.1l-0.1-3.5h0.4l0.4,2.9c0,0,0.2,0.2,0.6,0.2c0.3,0,7.1,0,7.4,0c0.6-2.1,1.8-5.7,4.4-7.4
	c3.8-2.4,10.8-0.9,10.8-0.9l1-4c0,0-1.4-1.6-5.1-2.2c-5.4-0.9-9.4,1.4-13.6,4.5c-3.4,2.4-6.1,4-6.1,4l-30.2-0.9l-1.7-0.1v-3.7
	L465.9,515.3z M520.6,524.2l0.1-0.8l0.3-0.2l5,0.1l-0.1,0.5L520.6,524.2z M516.2,522.9l3.1,0.1l0.7,0.4l-0.1,0.7l-0.2,0.2
	L516.2,522.9z M510.6,524.8h0.3v-0.4h4.2l0,0.4l-4.4,0.3L510.6,524.8z"/>
<linearGradient id="SVGID_1_" gradientUnits="userSpaceOnUse" x1="1668.0763" y1="-478.2501" x2="1773.4762" y2="-478.2501" gradientTransform="matrix(-0.2954 0 0 -0.2954 1056.8745 381.3793)">
	<stop  offset="0" style="stop-color:#343533"/>
	<stop  offset="1" style="stop-color:#0E1014"/>
</linearGradient>
<path fill="url(#SVGID_1_)" d="M564.2,520.3l-30.8-0.4l-0.4,0.3l0.1,4.8l19.6,0.3c0,0,4.1-0.1,7.6-2.2
	C563.9,521.1,564.2,520.3,564.2,520.3z"/>
<path fill="#3A4C37" d="M531.5,505.9c0.1,0.3,0.3,0.5,0.3,0.5s-0.1,3.5,0.4,7c0.5,3.5,1,5.9,1,5.9h0.3c0,0,0,0.4,0,0.6
	c0,0.1-0.2-0.1-0.2,0.8c0,0.9,0,4.8,0,4.8h19.9c0,0,5.2-0.2,10.8-4.5c5.7-4.3,10.2-6.8,14.1-8.3c1.7-0.7,3.5-0.9,3.5-0.9l0.1-7.2
	l-20-0.6c0,0-2.1-0.1-4-0.4c-1.9-0.3-3-0.8-3-0.8v-7.8c0,0,0.1-0.3,0.5-0.5c0.4-0.3,0.6-0.4,0.6-0.4s0.6,0,1.1-0.2
	c0.6-0.2,0.8-0.4,0.8-0.4l-1.9-1.6c0,0-0.1-0.5-0.4-0.6c-0.3-0.1-8.7-1.6-13.3-2c-4.5-0.4-7.7-0.3-7.7-0.3s-1.2,0-1.9,0.9
	c-0.7,0.9-0.8,1.6-0.9,3.8c-0.1,2.3-0.1,8.1,0,8.7c0,1.1,0.2,1.4,0.2,1.4s-0.4,0.1-0.4,0.7C531.3,505.3,531.4,505.6,531.5,505.9z
	 M536.4,493.7c0.4-0.3,1-0.3,1-0.3l14.2,0.2c0,0,0.5,0,0.7,0.4c0.2,0.4,0.1,0.8,0.1,0.8v7.1c0,0,0,0.6-0.3,0.8
	c-0.3,0.2-0.4,0.2-1,0.2c-0.6,0-14,0-14,0s-0.6,0-0.8-0.3c-0.3-0.4-0.3-0.7-0.3-0.7v-7.3C536,494.7,536,494,536.4,493.7z"/>
<g>
	<path fill="#11180F" d="M563.7,517.2V510c0-0.4,0.3-0.6,0.6-0.6h13.9c0.4,0,0.6,0.3,0.6,0.6v7.3c0,0.4-0.3,0.6-0.6,0.6h-13.9
		C564,517.9,563.7,517.6,563.7,517.2z M564.3,509.5c-0.3,0-0.5,0.2-0.5,0.5v7.3c0,0.3,0.2,0.5,0.5,0.5h13.9c0.3,0,0.5-0.2,0.5-0.5
		V510c0-0.3-0.2-0.5-0.5-0.5H564.3z"/>
	<g>
		<g>
			<path fill="#11180F" d="M564.7,517h0.1v-6.6c0,0,0-0.1,0-0.1c0,0,0.1,0,0.1,0c0,0,0.1,0.1,0.1,0.1l0.1-0.1l0-0.1
				c-0.1,0-0.1-0.1-0.1-0.1c-0.1-0.1-0.2-0.1-0.3,0c-0.1,0-0.1,0.1-0.1,0.2L564.7,517L564.7,517z"/>
			<path fill="#11180F" d="M565.3,517h0.1v-6.6c0,0,0-0.1,0-0.1c0,0,0.1,0,0.1,0c0,0,0.1,0.1,0.1,0.1l0.1-0.1
				c-0.1,0-0.1-0.1-0.1-0.1c-0.1-0.1-0.2-0.1-0.3,0c-0.1,0-0.1,0.1-0.1,0.2L565.3,517L565.3,517z"/>
			<path fill="#11180F" d="M566,517h0.1v-6.6c0,0,0-0.1,0-0.1c0,0,0.1,0,0.1,0c0,0,0.1,0.1,0.1,0.1l0.1-0.1c-0.1,0-0.1-0.1-0.1-0.1
				c-0.1-0.1-0.2-0.1-0.3,0c-0.1,0-0.1,0.1-0.1,0.2L566,517L566,517z"/>
			<path fill="#11180F" d="M566.7,517h0.1v-6.6c0,0,0-0.1,0-0.1c0,0,0.1,0,0.1,0c0,0,0.1,0.1,0.1,0.1l0.1-0.1
				c-0.1,0-0.1-0.1-0.1-0.1c-0.1-0.1-0.2-0.1-0.3,0c-0.1,0-0.1,0.1-0.1,0.2L566.7,517L566.7,517z"/>
			<path fill="#11180F" d="M567.3,517h0.1v-6.6c0,0,0-0.1,0-0.1c0,0,0.1,0,0.1,0c0,0,0.1,0.1,0.1,0.1l0.1-0.1
				c-0.1,0-0.1-0.1-0.1-0.1c-0.1-0.1-0.2-0.1-0.3,0c-0.1,0-0.1,0.1-0.1,0.2L567.3,517L567.3,517z"/>
			<path fill="#11180F" d="M568,517h0.1v-6.6c0,0,0-0.1,0-0.1c0,0,0.1,0,0.1,0c0,0,0.1,0.1,0.1,0.1l0.1-0.1c-0.1,0-0.1-0.1-0.1-0.1
				c-0.1-0.1-0.2-0.1-0.3,0c-0.1,0-0.1,0.1-0.1,0.2L568,517L568,517z"/>
			<path fill="#11180F" d="M568.7,517h0.1v-6.6c0,0,0-0.1,0-0.1c0,0,0.1,0,0.1,0c0,0,0.1,0.1,0.1,0.1l0.1-0.1
				c-0.1,0-0.1-0.1-0.1-0.1c-0.1-0.1-0.2-0.1-0.3,0c-0.1,0-0.1,0.1-0.1,0.2L568.7,517L568.7,517z"/>
			<path fill="#11180F" d="M569.3,517h0.1v-6.6c0,0,0-0.1,0-0.1c0,0,0.1,0,0.1,0c0,0,0.1,0.1,0.1,0.1l0.1-0.1
				c-0.1,0-0.1-0.1-0.1-0.1c-0.1-0.1-0.2-0.1-0.3,0c-0.1,0-0.1,0.1-0.1,0.2L569.3,517L569.3,517z"/>
			<path fill="#11180F" d="M570,517h0.1v-6.6c0,0,0-0.1,0-0.1c0,0,0.1,0,0.1,0c0,0,0.1,0.1,0.1,0.1l0.1-0.1c-0.1,0-0.1-0.1-0.1-0.1
				c-0.1-0.1-0.2-0.1-0.3,0c-0.1,0-0.1,0.1-0.1,0.2L570,517L570,517z"/>
			<path fill="#11180F" d="M570.7,517h0.1v-6.6c0,0,0-0.1,0-0.1c0,0,0.1,0,0.1,0c0,0,0.1,0.1,0.1,0.1l0.1-0.1
				c-0.1,0-0.1-0.1-0.1-0.1c-0.1-0.1-0.2-0.1-0.3,0c-0.1,0-0.1,0.1-0.1,0.2L570.7,517L570.7,517z"/>
			<path fill="#11180F" d="M571.3,517h0.1v-6.6c0,0,0-0.1,0-0.1c0,0,0.1,0,0.1,0c0,0,0.1,0.1,0.1,0.1l0.1-0.1
				c-0.1,0-0.1-0.1-0.1-0.1c-0.1-0.1-0.2-0.1-0.3,0c-0.1,0-0.1,0.1-0.1,0.2L571.3,517L571.3,517z"/>
			<path fill="#11180F" d="M572,517h0.1v-6.6c0,0,0-0.1,0-0.1c0,0,0.1,0,0.1,0c0,0,0.1,0.1,0.1,0.1l0.1-0.1c-0.1,0-0.1-0.1-0.1-0.1
				c-0.1-0.1-0.2-0.1-0.3,0c-0.1,0-0.1,0.1-0.1,0.2L572,517L572,517z"/>
			<path fill="#11180F" d="M572.7,517h0.1v-6.6c0,0,0-0.1,0-0.1c0,0,0.1,0,0.1,0c0,0,0.1,0.1,0.1,0.1l0.1-0.1l0-0.1
				c-0.1,0-0.1-0.1-0.1-0.1c-0.1-0.1-0.2-0.1-0.3,0c-0.1,0-0.1,0.1-0.1,0.2L572.7,517L572.7,517z"/>
			<path fill="#11180F" d="M573.3,517h0.1v-6.6c0,0,0-0.1,0-0.1c0,0,0.1,0,0.1,0c0,0,0.1,0.1,0.1,0.1l0.1-0.1
				c-0.1,0-0.1-0.1-0.1-0.1c-0.1-0.1-0.2-0.1-0.3,0c-0.1,0-0.1,0.1-0.1,0.2L573.3,517L573.3,517z"/>
			<path fill="#11180F" d="M574,517h0.1v-6.6c0,0,0-0.1,0-0.1c0,0,0.1,0,0.1,0c0,0,0.1,0.1,0.1,0.1l0.1-0.1c-0.1,0-0.1-0.1-0.1-0.1
				c-0.1-0.1-0.2-0.1-0.3,0c-0.1,0-0.1,0.1-0.1,0.2L574,517L574,517z"/>
			<path fill="#11180F" d="M574.7,517h0.1v-6.6c0,0,0-0.1,0-0.1c0,0,0.1,0,0.1,0c0,0,0.1,0.1,0.1,0.1l0.1-0.1
				c-0.1,0-0.1-0.1-0.1-0.1c-0.1-0.1-0.2-0.1-0.3,0c-0.1,0-0.1,0.1-0.1,0.2L574.7,517L574.7,517z"/>
			<path fill="#11180F" d="M575.3,517h0.1v-6.6c0,0,0-0.1,0-0.1c0,0,0.1,0,0.1,0c0,0,0.1,0.1,0.1,0.1l0.1-0.1
				c-0.1,0-0.1-0.1-0.1-0.1c-0.1-0.1-0.2-0.1-0.3,0c-0.1,0-0.1,0.1-0.1,0.2L575.3,517L575.3,517z"/>
			<path fill="#11180F" d="M576,517h0.1v-6.6c0,0,0-0.1,0-0.1c0,0,0.1,0,0.1,0c0,0,0.1,0.1,0.1,0.1l0.1-0.1c-0.1,0-0.1-0.1-0.1-0.1
				c-0.1-0.1-0.2-0.1-0.3,0c-0.1,0-0.1,0.1-0.1,0.2L576,517L576,517z"/>
			<path fill="#11180F" d="M576.7,517h0.1v-6.6c0,0,0-0.1,0-0.1c0,0,0.1,0,0.1,0c0,0,0.1,0.1,0.1,0.1l0.1-0.1l0-0.1
				c-0.1,0-0.1-0.1-0.1-0.1c-0.1-0.1-0.2-0.1-0.3,0c-0.1,0-0.1,0.1-0.1,0.2L576.7,517L576.7,517z"/>
			<path fill="#11180F" d="M577.4,517h0.1v-6.6c0,0,0-0.1,0-0.1c0,0,0.1,0,0.1,0c0,0,0.1,0.1,0.1,0.1l0.1-0.1
				c-0.1,0-0.1-0.1-0.1-0.1c-0.1-0.1-0.2-0.1-0.3,0c-0.1,0-0.1,0.1-0.1,0.2L577.4,517L577.4,517z"/>
		</g>
	</g>
</g>
<linearGradient id="SVGID_2_" gradientUnits="userSpaceOnUse" x1="1892.5762" y1="-457.2285" x2="1892.5763" y2="-446.7881" gradientTransform="matrix(-0.2954 0 0 -0.2954 1056.8745 381.3793)">
	<stop  offset="0" style="stop-color:#B2B19D"/>
	<stop  offset="5.523817e-002" style="stop-color:#A09F8D"/>
	<stop  offset="0.2218" style="stop-color:#706F63"/>
	<stop  offset="0.3876" style="stop-color:#484740"/>
	<stop  offset="0.5495" style="stop-color:#292825"/>
	<stop  offset="0.7066" style="stop-color:#131212"/>
	<stop  offset="0.8565" style="stop-color:#060506"/>
	<stop  offset="0.9918" style="stop-color:#010002"/>
</linearGradient>
<rect x="467.2" y="513.3" fill="url(#SVGID_2_)" width="61.3" height="3.1"/>
<path fill="#010002" d="M584.9,506.6c0.8-0.2,1.1-0.1,1.1-0.1s0.1,0.1,0.2,0.2v4.5c0,0.6-0.6,0.6-1.4,0.3c-1.2-0.5-1.7-1.7-1.6-2.9
	C583.3,507.7,584.2,506.9,584.9,506.6z"/>
<linearGradient id="SVGID_3_" gradientUnits="userSpaceOnUse" x1="1598.3896" y1="-424.3827" x2="1598.3896" y2="-435.4971" gradientTransform="matrix(-0.2954 0 0 -0.2954 1056.8745 381.3793)">
	<stop  offset="0" style="stop-color:#B2B19D"/>
	<stop  offset="0.1059" style="stop-color:#8E8D7D"/>
	<stop  offset="0.2505" style="stop-color:#636258"/>
	<stop  offset="0.3977" style="stop-color:#403F39"/>
	<stop  offset="0.5456" style="stop-color:#242321"/>
	<stop  offset="0.6945" style="stop-color:#111010"/>
	<stop  offset="0.8451" style="stop-color:#050405"/>
	<stop  offset="1" style="stop-color:#010002"/>
</linearGradient>
<path fill="url(#SVGID_3_)" d="M585.5,510c0,0-2-0.9-1.2-2.6c0.4-0.7,1.2-0.7,1.2-0.7V510z"/>
<path fill="#8DB1B0" d="M585.6,511.8v-5.3c0.3,0,0.4,0,0.4,0s0.1,0.1,0.2,0.2v4.5C586.2,511.7,585.9,511.8,585.6,511.8z"/>
<linearGradient id="SVGID_4_" gradientUnits="userSpaceOnUse" x1="1594.6262" y1="-424.0055" x2="1594.6262" y2="-431.8164" gradientTransform="matrix(-0.2954 0 0 -0.2954 1056.8745 381.3793)">
	<stop  offset="1.212120e-002" style="stop-color:#FFFFFF"/>
	<stop  offset="0.1699" style="stop-color:#FAFBFB"/>
	<stop  offset="0.3685" style="stop-color:#EAF1F0"/>
	<stop  offset="0.589" style="stop-color:#D0DFDF"/>
	<stop  offset="0.8237" style="stop-color:#ADC7C6"/>
	<stop  offset="1" style="stop-color:#8DB1B0"/>
</linearGradient>
<path fill="url(#SVGID_4_)" d="M585.7,506.6c0,0,0.4-0.1,0.4,0.1c0,0.1-0.1,0.8-0.1,1.2c-0.1,0.4-0.3,1-0.3,1V506.6z"/>
<polygon fill="#010002" points="581.5,504.5 583.6,504.5 583.6,511.8 581.5,511.8 "/>
<path fill="#050505" d="M590.9,515.5c0,0,0.1,0.5-0.9,0.4c-1.1-0.1-1.9-0.8-4.9-1.6c-3-0.8-6.8-0.7-10.1,0.9s-9.3,6.1-13.1,8.2
	c-5,2.8-9.2,2.9-9.2,2.9v-1c0,0,3.1-0.5,8-3c4.9-2.5,10.2-7.5,13.8-9.5c3.6-2,8.5-1.9,12-0.7C589.6,513.2,591.1,515.1,590.9,515.5z"
	/>
<rect x="531.7" y="506.9" fill="#11180F" width="49.9" height="0.1"/>
<path fill="#11180F" d="M553.3,504.6v-0.1c-0.2,0-18.9-0.1-19.5-0.1c-0.6,0-1.2-0.1-1.7-0.3c-0.4-0.1-0.4-0.3-0.4-0.3l-0.1,0.1
	c0,0,0.1,0.2,0.5,0.3c0.6,0.2,1.1,0.4,1.8,0.4C534.5,504.5,553.2,504.6,553.3,504.6z"/>
<path fill="#11180F" d="M558.4,506.7v-0.1c-1.8,0-2.5-0.4-3-0.9c-0.8-0.6-0.8-1.6-0.8-1.7v-1.4h-0.1v1.4c0,0.1,0,1.1,0.9,1.7
	C555.9,506.2,556.6,506.7,558.4,506.7z"/>
<path fill="#110F0F" d="M556.6,493.9c0,0-0.8,0-1.2-0.2c-0.5-0.3-0.6-1.2-0.6-1.2h-0.2v2.6c0,0,0.3-0.6,1.1-0.9
	C556.3,493.9,556.6,493.9,556.6,493.9z"/>
<linearGradient id="SVGID_5_" gradientUnits="userSpaceOnUse" x1="1708.037" y1="-380.9499" x2="1763.4297" y2="-380.9499" gradientTransform="matrix(-0.2954 0 0 -0.2954 1056.8745 381.3793)">
	<stop  offset="6.967210e-002" style="stop-color:#283224"/>
	<stop  offset="1" style="stop-color:#273123"/>
</linearGradient>
<path fill="url(#SVGID_5_)" d="M552.2,494c-0.2-0.4-0.7-0.4-0.7-0.4l-14.2-0.2c0,0-0.6,0-1,0.3c-0.2,0.2-0.3,0.4-0.3,0.6
	c0,0,0-0.1,0-0.1c0-1.2,0.9-1.2,0.9-1.2s13.6,0.2,14.6,0.2c0.9,0,0.9,0.7,0.9,0.7v0.7l0,0C552.4,494.6,552.4,494.3,552.2,494z"/>
<path fill="#110F0F" d="M554.6,492.7c0,0-0.2,0-0.2-0.1c-0.1-0.1-0.1-0.2-0.1-0.2l-19.6-0.3l0.1,0.3L554.6,492.7z"/>
<path fill="#A4A9A3" d="M534.6,492.1l19.6,0.3c0,0-0.1-0.1-0.1-0.2c0-0.1,0.1-0.3,0.1-0.3l-19.6-0.2c0,0-0.1,0-0.1,0.2
	C534.5,492,534.6,492.1,534.6,492.1z"/>
<linearGradient id="SVGID_6_" gradientUnits="userSpaceOnUse" x1="1733.7761" y1="-364.0291" x2="1733.7762" y2="-374.1839" gradientTransform="matrix(-0.2954 0 0 -0.2954 1056.8745 381.3793)">
	<stop  offset="0" style="stop-color:#686868"/>
	<stop  offset="0.1789" style="stop-color:#5E5E5E"/>
	<stop  offset="0.4862" style="stop-color:#424243"/>
	<stop  offset="0.8823" style="stop-color:#161617"/>
	<stop  offset="1" style="stop-color:#070709"/>
</linearGradient>
<path fill="url(#SVGID_6_)" d="M534.7,488.9l-0.1,2.7l19.8,0.2l0.5-0.8c0,0-2.1-0.6-9.1-1.5C538.7,488.7,534.7,488.9,534.7,488.9z"
	/>
<linearGradient id="SVGID_7_" gradientUnits="userSpaceOnUse" x1="1610.0763" y1="-417.7" x2="1699.3762" y2="-417.7" gradientTransform="matrix(-0.2954 0 0 -0.2954 1056.8745 381.3793)">
	<stop  offset="0" style="stop-color:#4A5B42"/>
	<stop  offset="0.8566" style="stop-color:#8A9D8F"/>
	<stop  offset="1" style="stop-color:#8B9E93"/>
</linearGradient>
<path fill="url(#SVGID_7_)" d="M581.3,504.9l-0.1,1.3l-22.7-0.8c0,0-1.9,0-2.6-0.7s-0.9-1.3-0.9-1.3s2.1,0.6,4.3,0.8
	C561.3,504.3,581.3,504.9,581.3,504.9z"/>
<linearGradient id="SVGID_8_" gradientUnits="userSpaceOnUse" x1="1580.2729" y1="-463.964" x2="1705.2764" y2="-463.964" gradientTransform="matrix(-0.2954 0 0 -0.2954 1056.8745 381.3793)">
	<stop  offset="0" style="stop-color:#515150"/>
	<stop  offset="1" style="stop-color:#0E1014"/>
</linearGradient>
<path fill="url(#SVGID_8_)" d="M590.1,514.7c0,0,0.1,0.6-0.7,0.2c-0.8-0.4-3.8-2.4-8.5-2.2c-4.7,0.2-7.8,2.1-11.2,4.7
	c-3.4,2.7-6.9,5-11.3,6.8c-3.3,1.3-5.1,1.1-5.1,1.1s4.5-0.3,11.3-4.8c6.8-4.5,9.7-9.1,17.2-9C587.5,511.6,590,514.3,590.1,514.7z"/>
<path fill="#A3A3A3" d="M590.1,515.6c0,0-0.6-0.2-1.8-0.6c-1.1-0.4-2.8-1.1-4.2-1.4c-2.9-0.6-7.5-0.1-10.9,2.1
	c-3.5,2.3-6.2,4.3-9.6,6.3s-6.1,3-7.7,3.5c-1.6,0.4-3.1,0.5-3.1,0.5l-0.1,0.1c0,0,1.4,0.1,3.4-0.6c2.6-0.9,4.6-1.7,7.7-3.5
	c3.1-1.8,5.7-3.8,7.6-4.9c1.9-1.2,4.2-3.2,9.2-3.5C585.7,513.3,588.6,515.7,590.1,515.6z"/>
<path fill="#828682" d="M534.5,491.9c0-0.1,0.1-0.2,0.1-0.2h0.1c-0.1,0.1,0,0.2,0.4,0.2s17.7,0.1,19.1,0.2c0,0,0,0,0,0.1
	c0,0.1,0.1,0.2,0.1,0.2l-19.6-0.3C534.6,492.1,534.5,492,534.5,491.9z"/>
<polygon fill="#A3A3A3" points="533.2,525.1 552.8,525.4 552.8,526.1 533.2,525.9 "/>
<linearGradient id="SVGID_9_" gradientUnits="userSpaceOnUse" x1="1699.9763" y1="-418.9999" x2="1777.1907" y2="-418.9999" gradientTransform="matrix(-0.2954 0 0 -0.2954 1056.8745 381.3793)">
	<stop  offset="0" style="stop-color:#4A5B42"/>
	<stop  offset="0.5697" style="stop-color:#8A9D8F"/>
	<stop  offset="0.7839" style="stop-color:#889B8D"/>
	<stop  offset="0.8627" style="stop-color:#839586"/>
	<stop  offset="0.9191" style="stop-color:#798B7A"/>
	<stop  offset="0.9645" style="stop-color:#6B7D6A"/>
	<stop  offset="1" style="stop-color:#5B6C56"/>
</linearGradient>
<path fill="url(#SVGID_9_)" d="M535.6,504.6c-2.7,0-3.7-0.2-3.7-0.2s-0.1,0.8,1.3,1.2c0.7,0.2,12,0.2,14.8,0.2
	c2.8,0,6.7,0.1,6.7,0.1l-0.7-1C554,504.9,538.4,504.6,535.6,504.6z"/>
<rect x="466.5" y="500.1" fill="#3A4C37" width="62.6" height="12.3"/>
<rect x="466.5" y="512.6" fill="#3A4C37" width="62.6" height="0.7"/>
<rect x="528.2" y="513" fill="#596157" width="0.9" height="3.3"/>
<rect x="507.8" y="513" fill="#596157" width="0.9" height="3.3"/>
<rect x="487.3" y="513" fill="#596157" width="0.9" height="3.3"/>
<rect x="466.6" y="513" fill="#596157" width="0.9" height="3.3"/>
<rect x="528.2" y="514.6" fill="#0F120F" width="0.9" height="1.7"/>
<rect x="507.8" y="514.6" fill="#0F120F" width="0.9" height="1.7"/>
<rect x="487.3" y="514.6" fill="#0F120F" width="0.9" height="1.7"/>
<rect x="466.6" y="514.6" fill="#0F120F" width="0.9" height="1.7"/>
<linearGradient id="SVGID_10_" gradientUnits="userSpaceOnUse" x1="1605.6262" y1="-417.7705" x2="1605.6262" y2="-423.7197" gradientTransform="matrix(-0.2954 0 0 -0.2954 1056.8745 381.3793)">
	<stop  offset="0" style="stop-color:#B2B19D"/>
	<stop  offset="5.523817e-002" style="stop-color:#A09F8D"/>
	<stop  offset="0.2218" style="stop-color:#706F63"/>
	<stop  offset="0.3876" style="stop-color:#484740"/>
	<stop  offset="0.5495" style="stop-color:#292825"/>
	<stop  offset="0.7066" style="stop-color:#131212"/>
	<stop  offset="0.8565" style="stop-color:#060506"/>
	<stop  offset="0.9918" style="stop-color:#010002"/>
</linearGradient>
<path fill="url(#SVGID_10_)" d="M583.5,504.8c-0.1,0-1.7,0-1.7,0l0,1.7h1.7V504.8z"/>
<linearGradient id="SVGID_11_" gradientUnits="userSpaceOnUse" x1="1665.0763" y1="-467.7" x2="1771.5874" y2="-467.7" gradientTransform="matrix(-0.2954 0 0 -0.2954 1056.8745 381.3793)">
	<stop  offset="3.278690e-002" style="stop-color:#4A5B42"/>
	<stop  offset="0.6967" style="stop-color:#8A9D8F"/>
	<stop  offset="1" style="stop-color:#4A5B42"/>
</linearGradient>
<path fill="url(#SVGID_11_)" d="M565.1,519.6l-31.5-0.6c0,0-0.1,0.3,0.3,0.4c0.4,0.1,30.6,0.6,30.6,0.6L565.1,519.6z"/>
<rect x="561.6" y="508.5" fill="#11180F" width="19.9" height="0.1"/>
<rect x="561.5" y="503.9" fill="#11180F" width="0.1" height="16.2"/>
<path fill="#11180F" d="M581.6,507.2V507l-48.9-1c-0.1,0-1.1,0.1-1.4-0.8l-0.1,0.1c0.4,1,1.5,0.9,1.5,0.9L581.6,507.2z"/>
<rect x="539.7" y="506" transform="matrix(1.307517e-002 -0.9999 0.9999 1.307517e-002 40.1281 1052.7662)" fill="#11180F" width="27.4" height="0.1"/>
<g>
	<path fill="#3A4C37" d="M553.1,508.1c0,0.1,0.1,0.2,0.2,0.2l0,0c0.1,0,0.2-0.1,0.2-0.2v-0.9c0-0.1-0.1-0.2-0.2-0.2l0,0
		c-0.1,0-0.2,0.1-0.2,0.2V508.1z"/>
	<path fill="#11180F" d="M553,508.1v-0.9c0-0.2,0.1-0.3,0.3-0.3c0.2,0,0.3,0.1,0.3,0.3v0.9c0,0.2-0.1,0.3-0.3,0.3
		C553.2,508.4,553,508.3,553,508.1z M553.2,507.2v0.9c0,0.1,0.1,0.1,0.1,0.1s0.1-0.1,0.1-0.1v-0.9c0-0.1-0.1-0.1-0.1-0.1
		S553.2,507.1,553.2,507.2z"/>
</g>
<g>
	<path fill="#3A4C37" d="M553,515.7c0,0.1,0.1,0.2,0.2,0.2l0,0c0.1,0,0.2-0.1,0.2-0.2v-0.9c0-0.1-0.1-0.2-0.2-0.2l0,0
		c-0.1,0-0.2,0.1-0.2,0.2V515.7z"/>
	<path fill="#11180F" d="M553,515.7v-0.9c0-0.2,0.1-0.3,0.3-0.3c0.2,0,0.3,0.1,0.3,0.3v0.9c0,0.2-0.1,0.3-0.3,0.3
		S553,515.8,553,515.7z M553.1,514.8v0.9c0,0.1,0.1,0.1,0.1,0.1s0.1-0.1,0.1-0.1v-0.9c0-0.1-0.1-0.1-0.1-0.1
		S553.1,514.7,553.1,514.8z"/>
</g>
<rect x="521.1" y="505.9" transform="matrix(1.561347e-002 -0.9999 0.9999 1.561347e-002 20.619 1032.9468)" fill="#11180F" width="27.6" height="0.1"/>
<polygon fill="#070B07" points="533.4,519.4 564.5,520 563.4,520.8 533.3,520.1 "/>
<linearGradient id="SVGID_12_" gradientUnits="userSpaceOnUse" x1="1670.5763" y1="-471.6" x2="1773.9841" y2="-471.6" gradientTransform="matrix(-0.2954 0 0 -0.2954 1056.8745 381.3793)">
	<stop  offset="0" style="stop-color:#BBBABB"/>
	<stop  offset="1" style="stop-color:#3E3E3D"/>
</linearGradient>
<path fill="url(#SVGID_12_)" d="M563.4,520.8l-30.3-0.7c0,0-0.3,0.1-0.2,0.4c0,0.2,0.2,0.3,0.2,0.3l29.4,0.5L563.4,520.8z"/>
<rect x="466.4" y="502.9" fill="#11180F" width="62.8" height="0.3"/>
<rect x="466.4" y="506.1" fill="#11180F" width="62.8" height="0.3"/>
<rect x="466.4" y="509.2" fill="#11180F" width="62.8" height="0.3"/>
<rect x="466.4" y="512.3" fill="#11180F" width="62.8" height="0.3"/>
<g>
	<rect x="506" y="499.9" fill="#3A4C37" width="0.8" height="13.6"/>
	<path fill="#11180F" d="M505.9,499.9h0.9v13.8h-0.9V499.9z M506.7,500H506v13.5h0.6V500z"/>
</g>
<g>
	<rect x="524.5" y="499.9" fill="#3A4C37" width="0.8" height="13.6"/>
	<path fill="#11180F" d="M524.5,499.9h0.9v13.8h-0.9V499.9z M525.3,500h-0.6v13.5h0.6V500z"/>
</g>
<g>
	<rect x="489.3" y="499.9" fill="#3A4C37" width="0.8" height="13.6"/>
	<path fill="#11180F" d="M489.2,499.9h0.9v13.8h-0.9V499.9z M490,500h-0.6v13.5h0.6V500z"/>
</g>
<g>
	<rect x="470.5" y="499.9" fill="#3A4C37" width="0.8" height="13.6"/>
	<path fill="#11180F" d="M470.5,499.9h0.9v13.8h-0.9V499.9z M471.3,500h-0.6v13.5h0.6V500z"/>
</g>
<polygon fill="#11180F" points="506.5,500.9 506.6,500.7 506.5,500.5 506.2,500.5 506.1,500.7 506.2,500.9 "/>
<polygon fill="#11180F" points="506.5,502.7 506.6,502.5 506.5,502.3 506.2,502.3 506.1,502.5 506.2,502.7 "/>
<polygon fill="#11180F" points="506.5,504.1 506.6,503.9 506.5,503.7 506.2,503.7 506.1,503.9 506.2,504.1 "/>
<polygon fill="#11180F" points="506.5,505.8 506.6,505.6 506.5,505.4 506.2,505.4 506.1,505.6 506.2,505.8 "/>
<polygon fill="#11180F" points="506.5,507 506.6,506.8 506.5,506.6 506.2,506.6 506.1,506.8 506.2,507 "/>
<polygon fill="#11180F" points="506.5,509 506.6,508.8 506.5,508.6 506.2,508.6 506.1,508.8 506.2,509 "/>
<polygon fill="#11180F" points="506.5,510.1 506.6,509.9 506.5,509.7 506.2,509.7 506.1,509.9 506.2,510.1 "/>
<polygon fill="#11180F" points="506.5,512 506.6,511.8 506.5,511.6 506.2,511.6 506.1,511.8 506.2,512 "/>
<polygon fill="#11180F" points="506.5,513.2 506.6,513 506.5,512.8 506.2,512.8 506.1,513 506.2,513.2 "/>
<polygon fill="#11180F" points="525,500.9 525.2,500.7 525,500.5 524.8,500.5 524.7,500.7 524.8,500.9 "/>
<polygon fill="#11180F" points="525,502.7 525.2,502.5 525,502.3 524.8,502.3 524.7,502.5 524.8,502.7 "/>
<polygon fill="#11180F" points="525,504.1 525.2,503.9 525,503.7 524.8,503.7 524.7,503.9 524.8,504.1 "/>
<polygon fill="#11180F" points="525,505.8 525.2,505.6 525,505.4 524.8,505.4 524.7,505.6 524.8,505.8 "/>
<polygon fill="#11180F" points="525,507 525.2,506.8 525,506.6 524.8,506.6 524.7,506.8 524.8,507 "/>
<polygon fill="#11180F" points="525,509 525.2,508.8 525,508.6 524.8,508.6 524.7,508.8 524.8,509 "/>
<polygon fill="#11180F" points="525,510.1 525.2,509.9 525,509.7 524.8,509.7 524.7,509.9 524.8,510.1 "/>
<polygon fill="#11180F" points="525,512 525.2,511.8 525,511.6 524.8,511.6 524.7,511.8 524.8,512 "/>
<polygon fill="#11180F" points="525,513.2 525.2,513 525,512.8 524.8,512.8 524.7,513 524.8,513.2 "/>
<polygon fill="#11180F" points="489.8,500.9 490,500.7 489.8,500.5 489.6,500.5 489.5,500.7 489.6,500.9 "/>
<polygon fill="#11180F" points="489.8,502.7 490,502.5 489.8,502.2 489.6,502.2 489.5,502.5 489.6,502.7 "/>
<polygon fill="#11180F" points="489.8,504.1 490,503.9 489.8,503.7 489.6,503.7 489.5,503.9 489.6,504.1 "/>
<polygon fill="#11180F" points="489.8,505.8 490,505.6 489.8,505.4 489.6,505.4 489.5,505.6 489.6,505.8 "/>
<polygon fill="#11180F" points="489.8,507 490,506.8 489.8,506.6 489.6,506.6 489.5,506.8 489.6,507 "/>
<polygon fill="#11180F" points="489.8,508.9 490,508.8 489.8,508.6 489.6,508.6 489.5,508.8 489.6,508.9 "/>
<polygon fill="#11180F" points="489.8,510.1 490,509.9 489.8,509.7 489.6,509.7 489.5,509.9 489.6,510.1 "/>
<polygon fill="#11180F" points="489.8,512 490,511.8 489.8,511.6 489.6,511.6 489.5,511.8 489.6,512 "/>
<polygon fill="#11180F" points="489.8,513.1 490,513 489.8,512.8 489.6,512.8 489.5,513 489.6,513.1 "/>
<polygon fill="#11180F" points="471,500.9 471.1,500.7 471,500.5 470.8,500.5 470.7,500.7 470.8,500.9 "/>
<polygon fill="#11180F" points="471,502.6 471.1,502.4 471,502.2 470.8,502.2 470.7,502.4 470.8,502.6 "/>
<polygon fill="#11180F" points="471,504.1 471.1,503.9 471,503.7 470.8,503.7 470.7,503.9 470.8,504.1 "/>
<polygon fill="#11180F" points="471,505.8 471.1,505.6 471,505.4 470.8,505.4 470.7,505.6 470.8,505.8 "/>
<polygon fill="#11180F" points="471,506.9 471.1,506.7 471,506.6 470.8,506.6 470.7,506.7 470.8,506.9 "/>
<polygon fill="#11180F" points="471,508.9 471.1,508.7 471,508.5 470.8,508.5 470.7,508.7 470.8,508.9 "/>
<polygon fill="#11180F" points="471,510.1 471.1,509.9 471,509.7 470.8,509.7 470.7,509.9 470.8,510.1 "/>
<polygon fill="#11180F" points="471,512 471.1,511.8 471,511.6 470.8,511.6 470.7,511.8 470.8,512 "/>
<polygon fill="#11180F" points="471,513.1 471.1,512.9 471,512.7 470.8,512.7 470.7,512.9 470.8,513.1 "/>
<g>
	
		<linearGradient id="SVGID_13_" gradientUnits="userSpaceOnUse" x1="1711.6534" y1="-400.4229" x2="1724.1075" y2="-412.8771" gradientTransform="matrix(-0.2954 0 0 -0.2954 1056.8745 381.3793)">
		<stop  offset="3.688520e-002" style="stop-color:#494A4A"/>
		<stop  offset="0.3238" style="stop-color:#9A9A99"/>
		<stop  offset="0.6721" style="stop-color:#BABABA"/>
	</linearGradient>
	<path fill="url(#SVGID_13_)" d="M547.5,503.2l3.1-3.6c0.1-0.2,0.4-0.2,0.6,0c0.1,0.1,0.2,0.4,0,0.6l-2.7,3.1L547.5,503.2
		L547.5,503.2z"/>
	<path fill="#2C2B2B" d="M550.6,499.5c0.1-0.2,0.5-0.2,0.6-0.1c0.1,0.1,0.1,0.2,0.1,0.3s0,0.2-0.1,0.3l-2.7,3.1h-1.2L550.6,499.5z
		 M551.2,500c0.1-0.1,0.1-0.1,0.1-0.2s-0.1-0.1-0.1-0.2c-0.1-0.1-0.3-0.1-0.4,0l-3,3.5h0.8L551.2,500z"/>
</g>
<linearGradient id="SVGID_14_" gradientUnits="userSpaceOnUse" x1="1707.9755" y1="-411.0001" x2="1763.3762" y2="-411.0001" gradientTransform="matrix(-0.2954 0 0 -0.2954 1056.8745 381.3793)">
	<stop  offset="0" style="stop-color:#4A5B42"/>
	<stop  offset="0.8566" style="stop-color:#8A9D8F"/>
	<stop  offset="1" style="stop-color:#8B9E93"/>
</linearGradient>
<path fill="url(#SVGID_14_)" d="M536.3,502.7c0.3,0.4,0.8,0.3,0.8,0.3s13.4,0,14,0c0.6,0,0.7,0,1-0.2c0.2-0.1,0.2-0.4,0.3-0.6l0,0
	v0.7c0,0,0,0.5-0.6,0.5s-14.9,0-14.9,0s-0.5-0.1-0.7-0.4c-0.2-0.3-0.2-0.5-0.2-0.5v-0.5l0,0C536.1,502.2,536.1,502.5,536.3,502.7z"
	/>
<g>
	
		<linearGradient id="SVGID_15_" gradientUnits="userSpaceOnUse" x1="1704.3762" y1="-390.5752" x2="1704.3762" y2="-386.0225" gradientTransform="matrix(-0.2954 0 0 -0.2954 1056.8745 381.3793)">
		<stop  offset="3.688520e-002" style="stop-color:#2B2C2C"/>
		<stop  offset="1" style="stop-color:#9A9A99"/>
	</linearGradient>
	<path fill="url(#SVGID_15_)" d="M553.2,496.4c0,0.2,0.1,0.3,0.3,0.3l0,0c0.2,0,0.3-0.1,0.3-0.3v-0.7c0-0.2-0.1-0.3-0.3-0.3l0,0
		c-0.2,0-0.3,0.1-0.3,0.3V496.4z"/>
	<path fill="#2C2B2B" d="M553.1,496.4v-0.7c0-0.2,0.2-0.4,0.4-0.4c0.2,0,0.4,0.2,0.4,0.4v0.7c0,0.2-0.2,0.4-0.4,0.4
		S553.1,496.6,553.1,496.4z M553.2,495.7v0.7c0,0.1,0.1,0.2,0.2,0.2s0.2-0.1,0.2-0.2v-0.7c0-0.1-0.1-0.2-0.2-0.2
		C553.3,495.5,553.2,495.6,553.2,495.7z"/>
</g>
<g>
	
		<linearGradient id="SVGID_16_" gradientUnits="userSpaceOnUse" x1="1708.4763" y1="-394.2168" x2="1708.4763" y2="-381.1045" gradientTransform="matrix(-0.2954 0 0 -0.2954 1056.8745 381.3793)">
		<stop  offset="3.688520e-002" style="stop-color:#2B2C2C"/>
		<stop  offset="1" style="stop-color:#9A9A99"/>
	</linearGradient>
	<ellipse fill="url(#SVGID_16_)" cx="552.2" cy="495.9" rx="0.6" ry="1.9"/>
	<path fill="#2C2B2B" d="M551.6,495.9c0-1,0.2-2,0.6-2c0.4,0,0.6,1,0.6,2s-0.2,2-0.6,2C551.8,497.9,551.6,496.9,551.6,495.9z
		 M551.7,495.9c0,1.1,0.3,1.9,0.5,1.9c0.2,0,0.5-0.8,0.5-1.9c0-1.1-0.3-1.9-0.5-1.9C552,494,551.7,494.8,551.7,495.9z"/>
</g>
<g>
	<path fill="#BABABA" d="M535.7,505.4c0,0.3,0.2,0.5,0.5,0.5h0.1c0.3,0,0.5-0.2,0.5-0.5l0,0c0-0.3-0.2-0.5-0.5-0.5h-0.1
		C535.9,504.9,535.7,505.1,535.7,505.4L535.7,505.4z"/>
	<path fill="#2C2B2B" d="M535.6,505.4c0-0.3,0.2-0.6,0.6-0.6h0.1c0.3,0,0.6,0.2,0.6,0.6s-0.2,0.6-0.6,0.6h-0.1
		C535.9,505.9,535.6,505.7,535.6,505.4z M536.2,505c-0.2,0-0.4,0.2-0.4,0.4c0,0.2,0.2,0.4,0.4,0.4h0.1c0.2,0,0.4-0.2,0.4-0.4
		c0-0.2-0.2-0.4-0.4-0.4H536.2z"/>
</g>
<g>
	<path fill="#BABABA" d="M536.1,505.4c0,0.1,0.1,0.2,0.2,0.2h2.1c0.1,0,0.2-0.1,0.2-0.2l0,0c0-0.1-0.1-0.2-0.2-0.2h-2.1
		C536.2,505.2,536.1,505.3,536.1,505.4L536.1,505.4z"/>
	<path fill="#2C2B2B" d="M536.1,505.4c0-0.1,0.1-0.3,0.2-0.3h2.1c0.1,0,0.3,0.1,0.3,0.3c0,0.1-0.1,0.3-0.3,0.3h-2.1
		C536.2,505.7,536.1,505.6,536.1,505.4z M536.3,505.3c-0.1,0-0.1,0.1-0.1,0.1s0.1,0.1,0.1,0.1h2.1c0.1,0,0.1-0.1,0.1-0.1
		c0-0.1-0.1-0.1-0.1-0.1H536.3z"/>
</g>
<g>
	<path fill="#474749" d="M552.1,496c0,0.1,0.1,0.3,0.3,0.3h0.8c0.1,0,0.3-0.1,0.3-0.3l0,0c0-0.1-0.1-0.3-0.3-0.3h-0.8
		C552.2,495.7,552.1,495.9,552.1,496L552.1,496z"/>
	<path fill="#2C2B2B" d="M552.1,496c0-0.2,0.1-0.3,0.3-0.3h0.8c0.2,0,0.3,0.1,0.3,0.3c0,0.2-0.1,0.3-0.3,0.3h-0.8
		C552.2,496.3,552.1,496.2,552.1,496z M552.4,495.8c-0.1,0-0.2,0.1-0.2,0.2c0,0.1,0.1,0.2,0.2,0.2h0.8c0.1,0,0.2-0.1,0.2-0.2
		s-0.1-0.2-0.2-0.2H552.4z"/>
</g>
<g>
	
		<radialGradient id="SVGID_17_" cx="1685.15" cy="-496.4552" r="35.8" gradientTransform="matrix(0.2954 0 0 -0.2954 0 381.3793)" gradientUnits="userSpaceOnUse">
		<stop  offset="0.8975" style="stop-color:#4E5254"/>
		<stop  offset="1" style="stop-color:#242626"/>
	</radialGradient>
	<circle fill="url(#SVGID_17_)" cx="497.7" cy="528" r="10.6"/>
	
		<radialGradient id="SVGID_18_" cx="1685.15" cy="-496.4552" r="26.1516" gradientTransform="matrix(0.2954 0 0 -0.2954 0 381.3793)" gradientUnits="userSpaceOnUse">
		<stop  offset="0.9016" style="stop-color:#0C0D0C"/>
		<stop  offset="1" style="stop-color:#4E5254"/>
	</radialGradient>
	<circle fill="url(#SVGID_18_)" cx="497.7" cy="528" r="7.7"/>
	<circle fill="#0C0D0C" cx="497.7" cy="528" r="6.6"/>
	
		<radialGradient id="SVGID_19_" cx="1685.1024" cy="-496.4548" r="20.5506" gradientTransform="matrix(0.2954 0 0 -0.2954 0 381.3793)" gradientUnits="userSpaceOnUse">
		<stop  offset="0.5574" style="stop-color:#4E5254"/>
		<stop  offset="1" style="stop-color:#8D8F91"/>
	</radialGradient>
	<path fill="url(#SVGID_19_)" d="M503.8,528c0,3.3-2.7,6.1-6.1,6.1c-3.3,0-6.1-2.7-6.1-6.1s2.7-6.1,6.1-6.1
		C501.1,521.9,503.8,524.6,503.8,528z"/>
	<circle fill="#0C0D0C" cx="497.7" cy="528" r="3.1"/>
	<circle fill="#171919" cx="497.7" cy="528" r="2.7"/>
	
		<radialGradient id="SVGID_20_" cx="1685.1019" cy="-496.4552" r="5.1859" gradientTransform="matrix(0.2954 0 0 -0.2954 0 381.3793)" gradientUnits="userSpaceOnUse">
		<stop  offset="0.5615" style="stop-color:#8D8F91"/>
		<stop  offset="1" style="stop-color:#4E5254"/>
	</radialGradient>
	<circle fill="url(#SVGID_20_)" cx="497.7" cy="528" r="1.5"/>
	<circle fill="#0C0D0C" cx="497.7" cy="528" r="1.3"/>
	<path fill="#070805" d="M495.8,532.7c0-0.5,1.1-1.2,1.5-1.2s1.4,0.9,1.4,1.4c0,0.5-0.7,0.9-1.5,0.9
		C496.3,533.7,495.7,533.2,495.8,532.7z"/>
	<path fill="#070805" d="M496.7,523.2c0.2,0.5-0.3,1.6-0.6,1.8s-1.6,0-1.9-0.4c-0.2-0.5,0.1-1.1,0.8-1.5
		C495.7,522.7,496.4,522.7,496.7,523.2z"/>
	<path fill="#070805" d="M502,525.6c-0.4,0.4-1.6,0.2-1.9-0.1c-0.3-0.3-0.5-1.5-0.2-1.9c0.4-0.4,1.1-0.2,1.7,0.3
		C502.2,524.4,502.3,525.2,502,525.6z"/>
	<path fill="#070805" d="M501.5,531.3c-0.5-0.2-0.7-1.5-0.6-1.9s1.3-1,1.8-0.8c0.5,0.2,0.6,1,0.2,1.7
		C502.6,531.1,501.9,531.5,501.5,531.3z"/>
	<path fill="#070805" d="M492.7,527.5c0.5-0.1,1.5,0.7,1.5,1.2c0.1,0.4-0.5,1.6-1,1.7c-0.5,0.1-1.1-0.4-1.2-1.2
		C491.9,528.3,492.2,527.6,492.7,527.5z"/>
	<path fill="#0C0D0C" d="M497.7,533.8c-3.2,0-5.8-2.6-5.8-5.8c0-3.2,2.6-5.8,5.8-5.8c3.2,0,5.8,2.6,5.8,5.8
		C503.5,531.2,500.9,533.8,497.7,533.8z M497.7,522.5c-3,0-5.5,2.5-5.5,5.5c0,3,2.5,5.5,5.5,5.5c3,0,5.5-2.5,5.5-5.5
		C503.2,525,500.8,522.5,497.7,522.5z"/>
</g>
<g>
	
		<radialGradient id="SVGID_21_" cx="1972.4" cy="-496.4552" r="35.8" gradientTransform="matrix(0.2954 0 0 -0.2954 0 381.3793)" gradientUnits="userSpaceOnUse">
		<stop  offset="0.8975" style="stop-color:#4E5254"/>
		<stop  offset="1" style="stop-color:#242626"/>
	</radialGradient>
	<circle fill="url(#SVGID_21_)" cx="582.6" cy="528" r="10.6"/>
	
		<radialGradient id="SVGID_22_" cx="1972.4" cy="-496.4552" r="26.1516" gradientTransform="matrix(0.2954 0 0 -0.2954 0 381.3793)" gradientUnits="userSpaceOnUse">
		<stop  offset="0.9016" style="stop-color:#0C0D0C"/>
		<stop  offset="1" style="stop-color:#4E5254"/>
	</radialGradient>
	<circle fill="url(#SVGID_22_)" cx="582.6" cy="528" r="7.7"/>
	<circle fill="#0C0D0C" cx="582.6" cy="528" r="6.6"/>
	
		<radialGradient id="SVGID_23_" cx="1972.3524" cy="-496.4548" r="20.5506" gradientTransform="matrix(0.2954 0 0 -0.2954 0 381.3793)" gradientUnits="userSpaceOnUse">
		<stop  offset="0.5574" style="stop-color:#4E5254"/>
		<stop  offset="1" style="stop-color:#8D8F91"/>
	</radialGradient>
	<path fill="url(#SVGID_23_)" d="M588.6,528c0,3.3-2.7,6.1-6.1,6.1s-6.1-2.7-6.1-6.1s2.7-6.1,6.1-6.1
		C585.9,521.9,588.6,524.6,588.6,528z"/>
	<circle fill="#0C0D0C" cx="582.6" cy="528" r="3.1"/>
	<circle fill="#171919" cx="582.6" cy="528" r="2.7"/>
	
		<radialGradient id="SVGID_24_" cx="1972.3519" cy="-496.4552" r="5.1859" gradientTransform="matrix(0.2954 0 0 -0.2954 0 381.3793)" gradientUnits="userSpaceOnUse">
		<stop  offset="0.5615" style="stop-color:#8D8F91"/>
		<stop  offset="1" style="stop-color:#4E5254"/>
	</radialGradient>
	<circle fill="url(#SVGID_24_)" cx="582.6" cy="528" r="1.5"/>
	<circle fill="#0C0D0C" cx="582.6" cy="528" r="1.3"/>
	<path fill="#070805" d="M580.6,532.7c0-0.5,1.1-1.2,1.5-1.2c0.4,0,1.4,0.9,1.4,1.4c0,0.5-0.7,0.9-1.5,0.9
		C581.2,533.7,580.6,533.2,580.6,532.7z"/>
	<path fill="#070805" d="M581.5,523.2c0.2,0.5-0.3,1.6-0.6,1.8s-1.6,0-1.9-0.4c-0.2-0.5,0.1-1.1,0.8-1.5
		C580.5,522.7,581.3,522.7,581.5,523.2z"/>
	<path fill="#070805" d="M586.8,525.6c-0.4,0.4-1.6,0.2-1.9-0.1c-0.3-0.3-0.5-1.5-0.2-1.9s1.1-0.2,1.7,0.3
		C587,524.4,587.2,525.2,586.8,525.6z"/>
	<path fill="#070805" d="M586.3,531.3c-0.5-0.2-0.7-1.5-0.6-1.9c0.2-0.4,1.3-1,1.8-0.8c0.5,0.2,0.6,1,0.2,1.7
		C587.4,531.1,586.8,531.5,586.3,531.3z"/>
	<path fill="#070805" d="M577.6,527.5c0.5-0.1,1.5,0.7,1.5,1.2c0.1,0.4-0.5,1.6-1,1.7c-0.5,0.1-1.1-0.4-1.2-1.2
		C576.8,528.3,577.1,527.6,577.6,527.5z"/>
	<path fill="#0C0D0C" d="M582.6,533.8c-3.2,0-5.8-2.6-5.8-5.8c0-3.2,2.6-5.8,5.8-5.8c3.2,0,5.8,2.6,5.8,5.8
		C588.3,531.2,585.7,533.8,582.6,533.8z M582.6,522.5c-3,0-5.5,2.5-5.5,5.5c0,3,2.5,5.5,5.5,5.5c3,0,5.5-2.5,5.5-5.5
		C588.1,525,585.6,522.5,582.6,522.5z"/>
</g>
</svg>
