<!-- Generator: Adobe Illustrator 21.1.0, SVG Export Plug-In  -->
<svg version="1.1"
	 xmlns="http://www.w3.org/2000/svg" xmlns:xlink="http://www.w3.org/1999/xlink" xmlns:a="http://ns.adobe.com/AdobeSVGViewerExtensions/3.0/"
	 x="0px" y="0px" viewBox="0 0 127.9 57" style="enable-background:new 0 0 127.9 57;"
	 xml:space="preserve"  onload="Custom.initSvg(evt)">
<style type="text/css">
	.st0{fill:#7A8D8A;}
	.st1{fill:#010703;}
	.st2{fill:#001600;}
	.st3{fill:#001418;}
	.st4{fill:#536F74;}
	.st5{fill:#193136;}
	.st6{fill:#504C00;}
	.st7{fill:#3B3900;}
	.st8{fill:#183000;}
	.st9{fill:#1C1E00;}
	.st10{fill:#333400;}
	.st11{fill:#FFFFFF;}
	.st12{fill:#000600;}
	.st13{fill:#8DB1B0;}
	.st14{fill:url(#SVGID_1_);}
	.st15{fill:#262D00;}
	.st16{fill:#191919;}
	.st17{fill:#556F5D;}
	.st18{fill:url(#SVGID_2_);}
	.st19{fill:url(#SVGID_3_);}
	.st20{fill:#203934;}
	.st21{fill:url(#SVGID_4_);}
	.st22{fill:#08100A;}
	.st23{fill:#585A00;}
	.st24{fill:#0D2420;}
	.st25{fill:url(#SVGID_5_);}
	.st26{fill:url(#SVGID_6_);}
	.st27{fill:#4B4B4B;}
	.st28{fill:#00100D;}
	.st29{fill:#728E93;}
	.st30{fill:#637664;}
	.st31{fill:#9CB19E;}
	.st32{fill:#788372;}
	.st33{fill:#26290C;}
	.st34{fill:url(#SVGID_7_);}
	.st35{fill:#5E7F40;}
	.st36{fill:#484A00;}
	.st37{fill:url(#SVGID_8_);}
	.st38{fill:url(#SVGID_9_);}
	.st39{fill:#51682F;}
	.st40{fill:url(#SVGID_10_);}
	.st41{fill:url(#SVGID_11_);}
	.st42{fill:url(#SVGID_12_);}
	.st43{fill:url(#SVGID_13_);}
	.st44{fill:#4D8F9F;}
	.st45{fill:#182121;}
	.st46{fill:#203131;}
	.st47{fill:#131400;}
	.st48{fill:url(#SVGID_14_);}
	.st49{fill:#000304;}
	.st50{fill:#6E4400;}
	.st51{fill:#AF9126;}
	.st52{fill:url(#SVGID_15_);}
	.st53{fill:url(#SVGID_16_);}
	.st54{fill:url(#SVGID_17_);}
	.st55{fill:url(#SVGID_18_);}
	.st56{fill:url(#SVGID_19_);}
	.st57{fill:url(#SVGID_20_);}
	.st58{fill:url(#SVGID_21_);}
	.st59{fill:url(#SVGID_22_);}
	.st60{fill:url(#SVGID_23_);}
	.st61{fill:url(#SVGID_24_);}
	.st62{fill:url(#SVGID_25_);}
	.st63{fill:url(#SVGID_26_);}
	.st64{fill:url(#SVGID_27_);}
	.st65{fill:url(#SVGID_28_);}
	.st66{fill:url(#SVGID_29_);}
	.st67{fill:url(#SVGID_30_);}
</style>
<defs>
</defs>
<rect x="78.7" y="18" class="st0" width="1.8" height="0.3"/>
<path class="st0" d="M1.4,39.3H0.6c0,0-0.1-0.1-0.2-0.1c-0.1,0.1-0.1,0.4-0.1,0.6c0,0.1,0.1,0.1,0.2,0.1c0.1-0.1,0.1-0.1,0.1-0.1
	h0.9L1.4,39.3z"/>
<path class="st0" d="M0.7,27.2c0.4,0,1-0.1,1-0.1v-1.8l0.8-1.7c0,0-0.1-0.1-0.2-0.2c-0.1,0-0.2,0.1-0.2,0.3c-0.1,0.2-0.5,0.8-1,1.3
	c-0.4,0.6-0.3,1-0.3,1s-0.6-0.1-0.7,0.3C0,26.8,0.3,27.2,0.7,27.2z M0.3,26.6c0-0.1,0.1-0.3,0.3-0.3c0.1,0,0.3,0.1,0.3,0.3
	s-0.1,0.3-0.3,0.3S0.3,26.8,0.3,26.6z"/>
<g>
	<polygon class="st1" points="106.4,47.4 107.5,48.9 102.3,48.8 102.4,47.7 	"/>
	<path class="st1" d="M0.7,44.9c0.7,0,1.1,0.1,1.1,0.1v0.7H3c0,0-0.1,1,0.2,1.1S4,46.7,4,46.7h2.2c0,0-1.1,0.5-1.1,0.7
		s0.8,0.2,2.2-0.1C8.7,46.9,9,46.6,9,46.6h4.3V45h2.2l4.2-2.2l6.3-2.2c0,0,0.2,1.6,0.3,1.7s4.3,7.4,4.3,7.4s16.2-0.9,23.6-1.2
		c7.4-0.4,10.6-0.5,14.3-0.8c3.8-0.2,5.9-0.1,5.9-0.1s0,0.2,0.2,0.4c0.1,0.2,0.7,0.3,2.7,0.6c2,0.3,2.1,0.5,2.1,0.5h1.2
		c0,0,0-1.3,0-1.6c0-0.3,0-0.3,0.8-0.3s0.7,0.7,0.7,0.7v0.8h0.3v0.9h0.2c0,0,0,0.1,0,0.3c0.1,0.5,0.4,0.4,0.4,0.4s2.8-0.1,8.5-0.5
		c5.7-0.3,9.2-0.4,9.2-0.4s0.4-1.2,1.7-1.6c1-0.3,1.5-0.4,2.5-1.3c0.6,0.1,1.5,0.2,1.6,0.2l0.2-1l-0.9-0.2c1.7-1.8,7.7-0.8,7.7-0.8
		s1.6-1.2,3.9-0.3c2.3,0.9,6.1-0.2,6.1-0.2s0.3-0.1,1.2-0.7c0.9-0.6,1.1-0.4,1.1-0.4h2.1v-1.7c0,0-1.6,0-2.3,0c-0.7,0-1,0-1.2,0.1
		s-1.1,0.4-1.1,0.4s-1.1-3.3-1.4-4.3s-0.6-2.1-0.4-2.5s0.6-0.1,1,0s0.6,0.3,1.6,0.4s1.5-0.1,1.5-0.1c0.2-0.5-0.1-0.7-0.7-0.9
		c-0.6-0.2-1.7-1.6-4.9-3.6c-3.7-2.2-6.8-2.7-6.8-2.7l-1.1-1.5l-1.3-8.3c0,0-20.6-0.1-26.6-0.1c-5.9-0.1-7.9-0.2-8.5-0.2
		c-0.5,0-0.5-0.4-0.5-0.4s-1.3-5.5-1.6-7.1s-0.3-3-0.3-3L72,7.3c0,0-40.4-4.3-49.7-3.4c-9.3,1-9.1,13.7-9.1,13.7l0.2,2.9
		c0,0-7.1,0.7-9.5,2.1S2,27.1,2,27.1s0.1,7.2-0.1,10.5c-0.2,3.3-1.2,6.1-1.4,6.6C-0.1,44.6,0,44.9,0.7,44.9z M116.6,42l0.5-0.4
		l0.9,0.1l0.4,0.7L116.6,42z M88.6,45.9h0.3c0,0,0.1,1.1,0.5,1.7c0.5,0.7,0.6,0.7,0.6,0.7l-1.4,0.2V45.9z M56.5,18.1
		c0-0.1-0.1-6.7-0.1-7.1c0-0.2,0.1-0.3,0.3-0.3s14.1-0.3,14.1-0.3c0.3,0,0.4,0.7,0.4,0.7s1.3,6.5,1.4,6.9c0,0.4-0.3,0.4-0.3,0.4
		s-15.1,0-15.4,0S56.5,18.3,56.5,18.1z M48,18.2l0.1-8.1h3.1l0.1,8.2L48,18.2z M31.9,17.5l0.3-7.8l14,0.4l0.1,0.3l-0.2,7.5l-0.2,0.3
		c0,0-13.5-0.4-13.7-0.4C31.9,17.7,31.9,17.5,31.9,17.5z M21.7,16.3l1.4-4.3l5.4-2l0.1,7.7c0,0,0,0.2-0.3,0.2S22.2,18,22.2,18
		l-0.6-0.9c0,0,0.1-0.2,0.1-0.5C21.8,16.4,21.7,16.3,21.7,16.3z M20.4,18.1v-1.4l0.8,1.3L20.4,18.1z M20.3,15v-2l2-0.7l-1.2,3.9
		L20.3,15z"/>
</g>
<path class="st2" d="M1.8,44.9c0,0-0.4-0.1-1.1-0.1c-0.7,0-0.8-0.3-0.6-0.7c0.2-0.4,1.2-3.2,1.4-6.6C1.7,34.2,1.6,27,1.6,27
	s-0.5-3,1.9-4.5c2.4-1.4,9.2-2.1,9.5-2.1l3.9,10.8L8.4,45.8l-3.3,1.4c0-0.2,1.1-0.7,1.1-0.7H4c0,0-0.5,0.2-0.8,0.1S3,45.5,3,45.5
	H1.8L1.8,44.9L1.8,44.9z"/>
<path class="st3" d="M1.6,29.2L1.6,29.2l13.5,0.2v0.7L1.6,29.9l0,0l0,0c-0.2,0-0.3-0.2-0.3-0.4C1.2,29.4,1.4,29.2,1.6,29.2z"/>
<path class="st4" d="M1.6,29.3L1.6,29.3L15,29.5V30L1.6,29.8l0,0c-0.1,0-0.2-0.1-0.2-0.2C1.4,29.4,1.5,29.3,1.6,29.3z"/>
<path class="st5" d="M1.7,25.1c5.1-1.5,11.6-2.3,11.6-2.3h0.1l0.1,0.7h-0.1c-0.1,0-6.6,0.7-11.7,2.3H1.6c-0.2,0-0.3-0.1-0.4-0.4
	C1.3,25.2,1.6,25.1,1.7,25.1z"/>
<path class="st4" d="M13.4,22.9l0.1,0.5c-0.1,0-6.6,0.7-11.7,2.3c-0.1,0-0.3,0-0.3-0.2s0.2-0.3,0.3-0.3
	C6.9,23.6,13.3,22.9,13.4,22.9z"/>
<g>
	<path class="st6" d="M16.5,32.5l0.1,0.5C16.7,33,16.5,32.8,16.5,32.5z"/>
	<path class="st6" d="M12.9,19l5.3,0.2L40.4,18c2.8,0.1,5.3,0.2,5.3,0.2l0.2-0.3v-0.2l2-0.1v0.6l3.3,0.1v-1l5.2-0.3c0,0.6,0,1,0,1
		c0,0.1,0,0.4,0.4,0.4s15.4,0,15.4,0s0.3,0,0.3-0.4c0-0.1-0.1-0.9-0.3-1.9l1.9-0.1c0.4,1.9,0.8,2,1.2,2c0.5,0,2.5,0.1,8.5,0.2
		c5.9,0.1,26.6,0.1,26.6,0.1l0.2,2.2l1.3,8.3l1.1,1.5c0,0-7.9-0.7-15.2,4.3c-6.7,4.7-12.7,8.6-12.7,8.6L44,43.7c0,0-5-19-21.7-14.6
		c-3.7,1-6.5,3.5-6.4,3.3c0,0-1.4-2.1-2.1-6.5C13.1,21.8,12.9,19,12.9,19z"/>
	<path class="st6" d="M74.7,17.1c0,0.1,0,0.2,0.1,0.2C74.7,17.2,74.7,17.1,74.7,17.1z"/>
</g>
<path class="st7" d="M12.9,19l1.1,0.1l3.2,0.8l0.9,2.5c0,0-0.4,1.9,0.4,4.1c0.8,2.2,3.7,1.9,3.7,1.9L20.3,30
	c-2.7,1.2-4.5,2.8-4.3,2.6c0,0-1.4-2.1-2.1-6.5C13.1,21.8,12.9,19,12.9,19z"/>
<path class="st6" d="M74.7,17.1c0,0.1,0,0.2,0.1,0.2C74.7,17.2,74.7,17.1,74.7,17.1z"/>
<path class="st8" d="M11.8,2.7c0,0-0.4,0.1-0.4,1c0.1,0.6,0.2,1.9,0.4,3.6c0.5,4.3,1.1,11.9,1.1,11.9s1.1,0.6,2.2,0.6
	s0.9-5.2,0.9-5.2l-0.1-4.8L11.8,2.7z"/>
<g>
	<path class="st6" d="M86.2,37c0,0.4,0.4,0.8,0.8,0.8h19.8c0.4,0,0.8-0.4,0.8-0.8V26.7c0-0.4-0.4-0.8-0.8-0.8H87
		c-0.4,0-0.8,0.4-0.8,0.8V37z"/>
	<path class="st9" d="M86,37V26.7c0-0.5,0.4-1,1-1h19.8c0.5,0,1,0.4,1,1V37c0,0.5-0.4,1-1,1H87C86.5,38,86,37.5,86,37z M87,26.1
		c-0.4,0-0.6,0.3-0.6,0.6V37c0,0.4,0.3,0.6,0.6,0.6h19.8c0.4,0,0.6-0.3,0.6-0.6V26.7c0-0.4-0.3-0.6-0.6-0.6H87z"/>
</g>
<path class="st10" d="M115.1,22c1.1-0.4,1.5-0.1,1.5-0.1s0.2,0.1,0.2,0.3v6.3c0,0.9-0.9,0.8-1.9,0.4c-1.7-0.7-2.4-2.3-2.2-4
	C113,23.5,114.2,22.3,115.1,22z"/>
<ellipse class="st11" cx="0.4" cy="39.3" rx="0.1" ry="0.1"/>
<path class="st12" d="M15.5,9.7c0,0-0.8,6-0.5,7.9s0.5,3.6,2.2,4.4s2.4,0.7,2.4,0.7s-2.5-0.9-3-2.5s-1.1-5.1-1.1-5.1l0.3-4.5V9.7
	H15.5z"/>
<g>
	<g>
		<path class="st9" d="M87.5,36.6h0.4v-9.5c0-0.1,0-0.1,0-0.1H88c0.1,0,0.1,0.1,0.2,0.1l0.2-0.3c-0.1-0.1-0.1-0.1-0.2-0.1
			c-0.1-0.1-0.3-0.1-0.4,0c-0.1,0-0.2,0.1-0.2,0.4L87.5,36.6L87.5,36.6z"/>
		<path class="st9" d="M88.4,36.6h0.4v-9.5c0-0.1,0-0.1,0-0.1h0.1c0.1,0,0.1,0.1,0.2,0.1l0.2-0.3c-0.1-0.1-0.1-0.1-0.2-0.1
			c-0.1-0.1-0.3-0.1-0.4,0c-0.1,0-0.2,0.1-0.2,0.4L88.4,36.6L88.4,36.6z"/>
		<path class="st9" d="M89.4,36.6h0.4v-9.5c0-0.1,0-0.1,0-0.1h0.1c0.1,0,0.1,0.1,0.2,0.1l0.2-0.3c-0.1-0.1-0.1-0.1-0.2-0.1
			c-0.1-0.1-0.3-0.1-0.4,0c-0.1,0-0.2,0.1-0.2,0.4L89.4,36.6L89.4,36.6z"/>
		<path class="st9" d="M90.3,36.6h0.4v-9.5c0-0.1,0-0.1,0-0.1h0.1c0.1,0,0.1,0.1,0.2,0.1l0.2-0.3c-0.1-0.1-0.1-0.1-0.2-0.1
			c-0.1-0.1-0.3-0.1-0.4,0c-0.1,0-0.2,0.1-0.2,0.4L90.3,36.6L90.3,36.6z"/>
		<path class="st9" d="M91.3,36.6h0.4v-9.5c0-0.1,0-0.1,0-0.1h0.1c0.1,0,0.1,0.1,0.2,0.1l0.2-0.3c-0.1-0.1-0.1-0.1-0.2-0.1
			c-0.1-0.1-0.3-0.1-0.4,0c-0.1,0-0.2,0.1-0.2,0.4L91.3,36.6L91.3,36.6z"/>
		<path class="st9" d="M92.2,36.6h0.4v-9.5c0-0.1,0-0.1,0-0.1h0.1c0.1,0,0.1,0.1,0.2,0.1l0.2-0.3c-0.1-0.1-0.1-0.1-0.2-0.1
			c-0.1-0.1-0.3-0.1-0.4,0c-0.1,0-0.2,0.1-0.2,0.4L92.2,36.6L92.2,36.6z"/>
		<path class="st9" d="M93.2,36.6h0.4v-9.5c0-0.1,0-0.1,0-0.1h0.1c0.1,0,0.1,0.1,0.2,0.1l0.2-0.3c-0.1-0.1-0.1-0.1-0.2-0.1
			c-0.1-0.1-0.3-0.1-0.4,0c-0.1,0-0.2,0.1-0.2,0.4L93.2,36.6L93.2,36.6z"/>
		<path class="st9" d="M94.1,36.6h0.4v-9.5c0-0.1,0-0.1,0-0.1h0.1c0.1,0,0.1,0.1,0.2,0.1l0.2-0.3c-0.1-0.1-0.1-0.1-0.2-0.1
			c-0.1-0.1-0.3-0.1-0.4,0c-0.1,0-0.2,0.1-0.2,0.4L94.1,36.6L94.1,36.6z"/>
		<path class="st9" d="M95.1,36.6h0.4v-9.5c0-0.1,0-0.1,0-0.1h0.1c0.1,0,0.1,0.1,0.2,0.1l0.2-0.3c-0.1-0.1-0.1-0.1-0.2-0.1
			c-0.1-0.1-0.3-0.1-0.4,0c-0.1,0-0.2,0.1-0.2,0.4L95.1,36.6L95.1,36.6z"/>
		<path class="st9" d="M96,36.6h0.4v-9.5c0-0.1,0-0.1,0-0.1h0.1c0.1,0,0.1,0.1,0.2,0.1l0.2-0.3c-0.1-0.1-0.1-0.1-0.2-0.1
			c-0.1-0.1-0.3-0.1-0.4,0c-0.1,0-0.2,0.1-0.2,0.4L96,36.6L96,36.6z"/>
		<path class="st9" d="M96.9,36.6h0.4v-9.5c0-0.1,0-0.1,0-0.1h0.1c0.1,0,0.1,0.1,0.2,0.1l0.2-0.3c-0.1-0.1-0.1-0.1-0.2-0.1
			c-0.1-0.1-0.3-0.1-0.4,0c-0.1,0-0.2,0.1-0.2,0.4L96.9,36.6L96.9,36.6z"/>
		<path class="st9" d="M97.9,36.6h0.4v-9.5c0-0.1,0-0.1,0-0.1h0.1c0.1,0,0.1,0.1,0.2,0.1l0.2-0.3c-0.1-0.1-0.1-0.1-0.2-0.1
			c-0.1-0.1-0.3-0.1-0.4,0c-0.1,0-0.2,0.1-0.2,0.4L97.9,36.6L97.9,36.6z"/>
		<path class="st9" d="M98.9,36.6h0.4v-9.5c0-0.1,0-0.1,0-0.1h0.1c0.1,0,0.1,0.1,0.2,0.1l0.2-0.3c-0.1-0.1-0.1-0.1-0.2-0.1
			c-0.1-0.1-0.3-0.1-0.4,0c-0.1,0-0.2,0.1-0.2,0.4L98.9,36.6L98.9,36.6z"/>
		<path class="st9" d="M99.8,36.6h0.4v-9.5c0-0.1,0-0.1,0-0.1h0.1c0.1,0,0.1,0.1,0.2,0.1l0.2-0.3c-0.1-0.1-0.1-0.1-0.2-0.1
			c-0.1-0.1-0.3-0.1-0.4,0c-0.1,0-0.2,0.1-0.2,0.4L99.8,36.6L99.8,36.6z"/>
		<path class="st9" d="M100.8,36.6h0.4v-9.5c0-0.1,0-0.1,0-0.1h0.1c0.1,0,0.1,0.1,0.2,0.1l0.2-0.3c-0.1-0.1-0.1-0.1-0.2-0.1
			c-0.1-0.1-0.3-0.1-0.4,0c-0.1,0-0.2,0.1-0.2,0.4L100.8,36.6L100.8,36.6z"/>
		<path class="st9" d="M101.7,36.6h0.4v-9.5c0-0.1,0-0.1,0-0.1h0.1c0.1,0,0.1,0.1,0.2,0.1l0.2-0.3c-0.1-0.1-0.1-0.1-0.2-0.1
			c-0.1-0.1-0.3-0.1-0.4,0c-0.1,0-0.2,0.1-0.2,0.4L101.7,36.6L101.7,36.6z"/>
		<path class="st9" d="M102.6,36.6h0.4v-9.5c0-0.1,0-0.1,0-0.1h0.1c0.1,0,0.1,0.1,0.2,0.1l0.2-0.3c-0.1-0.1-0.1-0.1-0.2-0.1
			c-0.1-0.1-0.3-0.1-0.4,0c-0.1,0-0.2,0.1-0.2,0.4L102.6,36.6L102.6,36.6z"/>
		<path class="st9" d="M103.6,36.6h0.4v-9.5c0-0.1,0-0.1,0-0.1h0.1c0.1,0,0.1,0.1,0.2,0.1l0.2-0.3c-0.1-0.1-0.1-0.1-0.2-0.1
			c-0.1-0.1-0.3-0.1-0.4,0c-0.1,0-0.2,0.1-0.2,0.4L103.6,36.6L103.6,36.6z"/>
		<path class="st9" d="M104.5,36.6h0.4v-9.5c0-0.1,0-0.1,0-0.1h0.1c0.1,0,0.1,0.1,0.2,0.1l0.2-0.3c-0.1-0.1-0.1-0.1-0.2-0.1
			c-0.1-0.1-0.3-0.1-0.4,0c-0.1,0-0.2,0.1-0.2,0.4L104.5,36.6L104.5,36.6z"/>
		<path class="st9" d="M105.5,36.6h0.4v-9.5c0-0.1,0-0.1,0-0.1h0.1c0.1,0,0.1,0.1,0.2,0.1l0.2-0.3c-0.1-0.1-0.1-0.1-0.2-0.1
			c-0.1-0.1-0.3-0.1-0.4,0c-0.1,0-0.2,0.1-0.2,0.4L105.5,36.6L105.5,36.6z"/>
	</g>
	<g>
		<path class="st1" d="M111.1,29.6c0,0-9.5,0-15.6,6.1S89,43.3,89,43.3s15.4-5.5,17.4-7.4C108.3,34.1,111.1,29.6,111.1,29.6z"/>
		<path class="st1" d="M88.8,43.3c0-0.1,0.4-1.7,6.6-7.7c6.1-6,15.6-6.1,15.7-6.1h0.2l-0.1,0.2c0,0.1-2.7,4.5-4.7,6.4
			S89.7,43.3,89,43.5l-0.2,0.1V43.3z M95.5,35.7c-4.8,4.7-6.1,6.7-6.4,7.4c2-0.7,15.3-5.6,17.1-7.3c1.7-1.6,4-5.3,4.6-6.1
			C109.4,29.7,101.1,30.3,95.5,35.7z"/>
	</g>
</g>
<path class="st7" d="M74.6,23c0,0-0.5,0.3-1.4,0.2c-0.9,0-2.9-0.3-4.1-0.1c-1.2,0.1-2.9,0.2-3.8,0.2c-0.9,0-3.3-0.3-4.4-0.2
	c-1.1,0.1-2.8,0.1-4,0c-1.3-0.1-3.4,0-4.4,0s-1.9,0.2-2.9,0.1s-3,0-4.1,0c-1.1,0.1-2.3-0.3-3.1-0.4c-0.9-0.1-3.5-0.4-5.3-0.1
	c-1.7,0.3-3.3,0.1-4.1,0.1s-1.4,0.1-2.2,0.1c-0.8-0.1-3.5,0.1-4.6,0s-2.2-0.1-3.3-0.1c-1.1,0.1-2.2,0.1-3-0.1
	c-0.8-0.1-1.5-0.5-1.5-0.5s4.1,0.2,5.8,0.2s11.5-0.5,14.8-0.5c3.2,0,4.3,0.1,6,0.2c1.6,0.1,6.9,0.1,11.6-0.2
	c4.7-0.3,6.6-0.3,8.7-0.3c2.1,0,7.8,1,7.8,1l1.6,0.1L74.6,23z"/>
<rect x="74.3" y="22.5" class="st9" width="0.2" height="18.5"/>
<rect x="54.6" y="22.5" class="st9" width="0.2" height="18.5"/>
<rect x="50.6" y="22.5" class="st9" width="0.2" height="18.5"/>
<rect x="30.2" y="22.5" class="st9" width="0.2" height="5.6"/>
<rect x="111" y="18.2" class="st0" width="1.8" height="0.3"/>
<path class="st13" d="M113.6,28.7c0,0,0-9.5,0-9.7s0-0.5-0.4-0.5c-0.5,0-2.7,0-2.7,0v9.9L113.6,28.7z"/>
<path class="st13" d="M113,18.3h-2.1c0,0-0.1-0.3,0.2-0.5c0.3-0.2,1.3-0.2,1.6,0C113.2,18,113,18.3,113,18.3z"/>
<path class="st13" d="M80.6,18h-2.1c0,0-0.1-0.3,0.2-0.5s1.3-0.2,1.6,0C80.9,17.7,80.6,18,80.6,18z"/>
<linearGradient id="SVGID_1_" gradientUnits="userSpaceOnUse" x1="-1180.5597" y1="468.4224" x2="-1180.5596" y2="501.9362" gradientTransform="matrix(-0.2954 0 0 0.2954 -238.3963 -119.8285)">
	<stop  offset="0.2848" style="stop-color:#242200"/>
	<stop  offset="0.5687" style="stop-color:#202200"/>
	<stop  offset="0.8674" style="stop-color:#132200"/>
	<stop  offset="1" style="stop-color:#0B2200"/>
</linearGradient>
<polygon class="st14" points="110.3,18.5 110.3,28.3 110.4,28.4 110.4,18.5 "/>
<path class="st9" d="M110.3,22.6v-0.2c0,0-3.6-0.1-7.2,0c-2,0-6.9,0-11.3-0.1c-3.5,0-6.9-0.1-8.2-0.1c-3,0-4.5-0.3-6.4-0.9
	S74.6,17,74.6,17l-0.2,0.1c0,0.1,0.8,3.8,2.7,4.5c1.9,0.6,3.4,1,6.5,0.9c1.3,0,4.6,0,8.2,0.1c4.3,0.1,9.2,0.1,11.3,0.1
	C106.7,22.6,110.3,22.6,110.3,22.6z"/>
<path class="st15" d="M124.3,34.9c-1.3-0.1-1.7-0.4-4.7-1.9c-3-1.4-12.2-4.4-21.8,1.6c-9.7,6.1-14.8,11.5-17.7,12
	s-37.2,0.1-37.2,0.1S42.4,47,42,44.5c-0.5-3.7-2.5-14-14.7-14.2C15.1,30.2,12.8,40,10.4,44c-0.9,1.4-1.9,2.4-2.8,2.9
	c-0.1,0-0.2,0.1-0.3,0.1c-1.4,0.4-2.2,0.3-2.2,0.1c0-0.2,1.1-0.7,1.1-0.7c1.6-0.5,2.5-1.7,5.1-7.7c3.2-7.3,9.2-13,19.6-11.1
	s12.9,14,12.9,14l41.6-0.1c0,0,1-0.9,3.8-3.2s8.4-7.9,15.3-9.9c3.2-0.9,6.8-0.5,9.7-0.1c1.2,0.3,3.2,1.1,5.4,2.5
	c3.3,2,4.3,3.3,4.9,3.6c0.4,0.1,0.6,0.2,0.7,0.4C125.1,35,124.8,35,124.3,34.9z"/>
<path class="st16" d="M16.8,21.4c1.8,1.9,5.3,1.2,7,1.2s5.1,0.1,6.7,0.3c1.6,0.1,2.5,0.1,5.4-0.3s5.7-0.1,7.6,0.1
	c1.9,0.2,2.4,0.4,3.7,0.2c1.3-0.1,2.7-0.1,3.9-0.1s3.1,0,4.5,0.1s2.2,0,4.3,0s4,0,6,0.1c1.9,0.1,3.3-0.1,5.3-0.1s3.4,0.1,3.4,0.1
	s-0.1-1.5-0.2-2.6s-0.1-4.6-0.1-4.6s-0.6-2.6-1.1-5.1s-0.4-3.5-0.4-3.5s-4,0.3-12.7-0.7S27.3,5.2,22.4,5.2c-4.8,0.1-6.8,3.9-6.8,3.9
	s-0.5,4.9-0.5,6.3C15.2,16.9,15,19.6,16.8,21.4z M56.5,18.1c0-0.1-0.1-6.7-0.1-7.1c0-0.2,0.1-0.3,0.3-0.3s14.1-0.3,14.1-0.3
	c0.3,0,0.4,0.7,0.4,0.7s1.3,6.5,1.4,6.9c0,0.4-0.3,0.4-0.3,0.4s-15.1,0-15.4,0S56.5,18.3,56.5,18.1z M48,18.2l0.1-8.1h3.1l0.1,8.2
	L48,18.2z M31.9,17.5l0.3-7.8l14,0.4l0.1,0.3l-0.2,7.5l-0.2,0.3c0,0-13.5-0.4-13.7-0.4C31.9,17.7,31.9,17.5,31.9,17.5z M21.7,16.3
	l1.4-4.3l5.4-2l0.1,7.7c0,0,0,0.2-0.3,0.2S22.2,18,22.2,18l-0.6-0.9c0,0,0.1-0.2,0.1-0.5C21.8,16.4,21.7,16.3,21.7,16.3z M20.4,18.1
	v-1.4l0.8,1.3L20.4,18.1z M20.3,15.1V13l2-0.7l-1.2,3.9L20.3,15.1z"/>
<path class="st17" d="M5.2,47.5c4.1-0.3,5.5-3.1,7.2-6.6c0.7-1.4,1.4-2.8,2.3-4.3c4.2-6.5,13.1-7.4,18.9-4.5
	c3.2,1.6,7.2,5.1,8.2,12.5v0.1c0.2,1.5,0.4,2.3,1.3,2.3c0.8,0,16.2,0,26.2,0.1c1.3,0,2.4,0,3.3,0c6.8,0,7.2,0,9.4-1.2
	c1.5-0.8,3.3-2.2,5.7-4c2.1-1.6,4.5-3.4,7.5-5.4c6-4,9.6-5.3,15.7-5.3c2.4,0,6.3,0.6,11.3,3.5c0.1,0.1,0.2,0.1,0.3,0.1
	c0.6,0.3,2.2,0.3,2.2,0.3v-0.4c-0.4,0-1.7-0.1-2.1-0.3c-0.1,0-0.1-0.1-0.2-0.1c-5.1-3-9.1-3.6-11.5-3.6c-6.1,0-9.9,1.2-15.9,5.3
	c-2.9,2-5.3,3.8-7.5,5.4c-2.3,1.7-4.2,3.1-5.6,3.9c-2.2,1.2-2.5,1.2-9.2,1.1c-1,0-2.1,0-3.3,0c-10,0-25.4-0.1-26.2-0.1
	c-0.6,0-0.7-0.3-1-1.9v-0.1c-1-7.6-5.1-11.1-8.4-12.8c-6-3-15.1-2-19.4,4.6c-1,1.5-1.7,3-2.4,4.3c-1.7,3.4-3,6.2-6.9,6.4L5.2,47.5z"
	/>
<polygon class="st17" points="43,42 85.5,42 85.5,41.7 42.7,41.7 "/>
<linearGradient id="SVGID_2_" gradientUnits="userSpaceOnUse" x1="-1009.0599" y1="487.6548" x2="-997.2581" y2="487.6548" gradientTransform="matrix(-0.2954 0 0 0.2954 -238.3963 -119.8285)">
	<stop  offset="0.4303" style="stop-color:#A5ADAD"/>
	<stop  offset="0.9939" style="stop-color:#C9D1D0"/>
</linearGradient>
<path class="st18" d="M59.6,24c0,0-0.4,0.3-1.4,0.2c-0.6-0.1-0.9-0.2-1.2-0.3c-0.3-0.1-0.5-0.1-0.6,0c-0.3,0.2-0.2,0.6,0,0.6
	c0.2,0.1,0.4,0,0.4-0.3c0.2,0.1,0.8,0.3,1.7,0.2C59.4,24.3,59.6,24.2,59.6,24C59.7,24.2,59.8,23.9,59.6,24z"/>
<linearGradient id="SVGID_3_" gradientUnits="userSpaceOnUse" x1="-927.259" y1="486.6393" x2="-915.4573" y2="486.6393" gradientTransform="matrix(-0.2954 0 0 0.2954 -238.3963 -119.8285)">
	<stop  offset="0.4303" style="stop-color:#A5ADAD"/>
	<stop  offset="0.9939" style="stop-color:#C9D1D0"/>
</linearGradient>
<path class="st19" d="M35.4,23.7c0,0-0.4,0.3-1.4,0.2c-0.6-0.1-0.9-0.2-1.2-0.3c-0.3-0.1-0.5-0.1-0.6,0c-0.3,0.2-0.2,0.6,0,0.6
	c0.2,0.1,0.4,0,0.4-0.3c0.2,0.1,0.8,0.3,1.7,0.2C35.2,24,35.4,23.9,35.4,23.7C35.5,23.9,35.6,23.6,35.4,23.7z"/>
<path class="st20" d="M68.2,18.6L68.2,18.6c0.2,0,0.4,0,0.6,0H68.2z"/>
<path class="st20" d="M71.5,14.4c0.4,0,0.4,0.4-0.3,1.4s-1.8,2.7-1.8,2.7h-0.6c-0.2,0-0.4,0-0.6,0c0,0,0.6-1,1.7-2.5
	C71,14.6,71.3,14.4,71.5,14.4z"/>
<linearGradient id="SVGID_4_" gradientUnits="userSpaceOnUse" x1="-1048.7786" y1="461.933" x2="-1040.0692" y2="461.933" gradientTransform="matrix(-0.2954 0 0 0.2954 -238.3963 -119.8285)">
	<stop  offset="0.2121" style="stop-color:#5A7671"/>
	<stop  offset="0.6121" style="stop-color:#3A5550"/>
	<stop  offset="0.9939" style="stop-color:#203934"/>
</linearGradient>
<path class="st21" d="M71.5,15c0,0.4-2.5,3.4-2.5,3.4l-0.1-0.1c0,0,1.4-2.3,1.9-2.9C71.3,14.7,71.5,14.6,71.5,15z"/>
<path class="st12" d="M54.4,8c0,2.8,0,3.5,0.1,7.1c0,3-0.1,5.9-0.1,6.6S54.3,23,54.3,23h-0.8c0,0,0.2-1,0.3-1.9s0.1-4.9,0-6.4
	s-0.7-3.6-1.2-4.9s-0.9-1.5-0.9-1.5L53.4,8L54.4,8z"/>
<path class="st22" d="M51.2,8c0,0,0.1,1.7,0,2.5l0,0v-0.2h-0.7c0.1-0.3,0.1-0.9-0.6-1c-1-0.3-2.6-0.1-4.6-0.4
	c-2-0.4-1.4,0.3-2.9,0.3s-2-0.5-4.4-0.6s-4.7,0-5.5-0.2s-1.9-1.1-1.9-1.1l-0.3-0.7L51.2,8z"/>
<path class="st12" d="M30.3,6.1c0,0,0.1,6.5,0.2,7.7c0.1,1.2,0,6.1-0.1,7.1s-0.1,1.2,0.1,1.4c0.3,0.2,1.1,0.6,1.1,0.6
	s-0.9,0.1-1.2,0s-0.2,0-0.4-0.4s-0.5-0.8-0.4-1.7c0.2-0.9-0.1-2.8,0.1-4.7c0.2-1.9-0.1-4.1-0.1-5.7s-0.2-3.7-0.3-3.9
	C29.4,6.4,30.3,6.1,30.3,6.1z"/>
<path class="st12" d="M50.4,19.8c0.3-0.1,0.2-0.2-0.2-0.6c-0.3-0.3-0.7-0.7-0.9-0.9l2,0.1c0,0-0.1,3.6-0.1,4s0.3,0.6,0.3,0.6h-1.2
	c0,0-0.1,0-0.1-0.2c0-0.3-0.4-1-0.8-1.6c-0.4-0.5-0.8-0.9-0.8-1.2C48.5,19.7,50.1,19.9,50.4,19.8z"/>
<path class="st12" d="M49.2,18.2L49.2,18.2l2.1,0.2l-2-0.1C49.2,18.2,49.2,18.2,49.2,18.2z"/>
<path class="st9" d="M74,37.7c0,0.1,0.1,0.2,0.3,0.2l0,0c0.1,0,0.3-0.1,0.3-0.2v-1.4c0-0.1-0.1-0.2-0.3-0.2l0,0
	c-0.1,0-0.3,0.1-0.3,0.2V37.7z"/>
<path class="st23" d="M74.2,37.6c0,0.1,0.1,0.2,0.2,0.2l0,0c0.1,0,0.2-0.1,0.2-0.2v-1.3c0-0.1-0.1-0.2-0.2-0.2l0,0
	c-0.1,0-0.2,0.1-0.2,0.2V37.6z"/>
<path class="st9" d="M74,25.7c0,0.1,0.1,0.2,0.3,0.2l0,0c0.1,0,0.3-0.1,0.3-0.2v-1.4c0-0.1-0.1-0.2-0.3-0.2l0,0
	c-0.1,0-0.3,0.1-0.3,0.2V25.7z"/>
<path class="st23" d="M74.2,25.5c0,0.1,0.1,0.2,0.2,0.2l0,0c0.1,0,0.2-0.1,0.2-0.2v-1.3c0-0.1-0.1-0.2-0.2-0.2l0,0
	c-0.1,0-0.2,0.1-0.2,0.2V25.5z"/>
<path class="st9" d="M50.4,37.7c0,0.1,0.1,0.2,0.3,0.2l0,0c0.1,0,0.3-0.1,0.3-0.2v-1.4c0-0.1-0.1-0.2-0.3-0.2l0,0
	c-0.1,0-0.3,0.1-0.3,0.2V37.7z"/>
<path class="st23" d="M50.6,37.6c0,0.1,0.1,0.2,0.2,0.2l0,0c0.1,0,0.2-0.1,0.2-0.2v-1.3c0-0.1-0.1-0.2-0.2-0.2l0,0
	c-0.1,0-0.2,0.1-0.2,0.2V37.6z"/>
<path class="st9" d="M50.4,25.7c0,0.1,0.1,0.2,0.3,0.2l0,0c0.1,0,0.3-0.1,0.3-0.2v-1.4c0-0.1-0.1-0.2-0.3-0.2l0,0
	c-0.1,0-0.3,0.1-0.3,0.2V25.7z"/>
<path class="st23" d="M50.6,25.5c0,0.1,0.1,0.2,0.2,0.2l0,0c0.1,0,0.2-0.1,0.2-0.2v-1.3c0-0.1-0.1-0.2-0.2-0.2l0,0
	c-0.1,0-0.2,0.1-0.2,0.2V25.5z"/>
<path class="st24" d="M69.4,18.6h-1.2l0,0C68.6,18.6,69,18.5,69.4,18.6L69.4,18.6z"/>
<path class="st24" d="M69,18c0,0.3,0.4,0.1,0.7-0.3c0.4-0.4,1.9-2.5,1.8-3c0-0.2-0.3-0.1-0.5,0c0.3-0.3,0.4-0.3,0.5-0.3
	c0.4,0,0.4,0.4-0.3,1.4s-1.8,2.7-1.8,2.7c-0.4,0-0.8,0-1.2,0c0,0,0.4-0.6,1.1-1.6C69.2,17.2,69,17.7,69,18z"/>
<circle class="st12" cx="53.1" cy="22.3" r="0.2"/>
<path class="st10" d="M85.7,41.7c0.3-0.3,1.4-1.3,3.6-3.1c2.8-2.3,8.2-8,15.2-9.9c3.2-0.9,6.8-0.6,9.7-0.1c1.2,0.3,3.2,1,5.4,2.3
	c3,1.8,4.1,3.1,4.8,3.5c-0.3,0-1-0.2-2.4-0.8c-3.3-1.4-10.5-6-19.2-2.5S87.1,41.3,86.1,41.8C85.9,41.9,85.8,41.9,85.7,41.7z"/>
<linearGradient id="SVGID_5_" gradientUnits="userSpaceOnUse" x1="-947.8244" y1="520.4986" x2="-875.6244" y2="520.4986" gradientTransform="matrix(-0.2954 0 0 0.2954 -238.3963 -119.8285)">
	<stop  offset="0" style="stop-color:#BBB745"/>
	<stop  offset="0.166" style="stop-color:#B1AD3E"/>
	<stop  offset="0.451" style="stop-color:#95912D"/>
	<stop  offset="0.8185" style="stop-color:#696510"/>
	<stop  offset="1" style="stop-color:#504C00"/>
</linearGradient>
<path class="st25" d="M20.3,29.9c0,0,6.9-3,13.7,0c5.8,2.6,7.6,9.3,7.6,9.3S39,32.3,32.7,30C26.4,27.9,20.3,29.9,20.3,29.9z"/>
<linearGradient id="SVGID_6_" gradientUnits="userSpaceOnUse" x1="-1221.6904" y1="511.5001" x2="-1142.8143" y2="511.5001" gradientTransform="matrix(-0.2954 0 0 0.2954 -238.3963 -119.8285)">
	<stop  offset="0" style="stop-color:#BBB745"/>
	<stop  offset="0.166" style="stop-color:#B1AD3E"/>
	<stop  offset="0.451" style="stop-color:#95912D"/>
	<stop  offset="0.8185" style="stop-color:#696510"/>
	<stop  offset="1" style="stop-color:#504C00"/>
</linearGradient>
<path class="st26" d="M99.2,32c0,0,6.4-4.2,13.2-2.9s10.1,4.5,10.1,4.5s-5.9-3.8-11.6-4.1C104.7,29.2,99.2,32,99.2,32z"/>
<path class="st27" d="M47.6,22.9c0,0-1,0.1-1.8,0.1c-0.8-0.1-3.4-0.4-3.4-0.4s1.9,0.1,2.4,0.1C45.4,22.8,47.5,23,47.6,22.9z"/>
<path class="st27" d="M69.1,23c0,0-1.8,0.2-3.3,0.1c-1.6-0.1-3.5,0-3.5,0c0.1,0,2.7-0.3,3.5-0.2C66.6,22.8,69.1,23,69.1,23z"/>
<path class="st27" d="M74.5,21.3c0,0,0,0.8,0.1,1.1c0.1,0.2,0.1,0.7,0.1,0.7s0-0.1-0.7-0.1s-2.1-0.1-2-0.1s1.7,0,2.1-0.1
	s0.4,0,0.4,0S74.4,21.7,74.5,21.3z"/>
<path class="st27" d="M30.7,18c0,0-0.1,2.5-0.2,2.9c-0.1,0.4-0.1,1,0,1.2c0,0.1,0.9,0.5,0.9,0.5s-0.6-0.3-0.8-0.8
	C30.5,21.2,30.9,19,30.7,18z"/>
<path class="st27" d="M23.8,22.7c0,0-1.9-0.1-2.8-0.1s-1.9,0-2.7-0.3c-0.8-0.4-0.9-0.6-0.9-0.6s0.8,0.4,1.9,0.6
	C20.6,22.5,23.8,22.7,23.8,22.7z"/>
<path class="st28" d="M69.4,18.6h-1.2l0,0C68.6,18.6,69,18.5,69.4,18.6L69.4,18.6z"/>
<path class="st28" d="M68.9,18.5c0.7,0,2.9-3.5,2.8-3.8c-0.1-0.3-0.3-0.2-0.5-0.2c0.1-0.1,0.2-0.1,0.3-0.1c0.4,0,0.4,0.4-0.3,1.4
	s-1.8,2.7-1.8,2.7c-0.4,0-0.8,0-1.2,0c0,0,0.1-0.1,0.2-0.3C68.4,18.4,68.5,18.5,68.9,18.5z"/>
<polygon class="st3" points="20.4,16.8 15.6,9.7 16.2,9.2 24.8,22 24.2,22.4 21,17.6 20.4,16.7 "/>
<polygon class="st3" points="20.4,16.7 21,17.6 20.4,16.8 "/>
<path class="st3" d="M24,6.5l0.7,0.2L23.2,12h-0.1l-1.4,4.3c0,0,0.1,0.1,0.1,0.4c0,0.1,0,0.2,0,0.3v0.1c0,0.1,0,0.1,0,0.1l0,0
	l-0.1,0.4L21,17.4L24,6.5z"/>
<path class="st3" d="M21.7,17v0.1l0,0C21.7,17.1,21.7,17.1,21.7,17z"/>
<path class="st3" d="M23.2,12l-1.4,4.9c0-0.1,0-0.2,0-0.3c0-0.3-0.1-0.4-0.1-0.4L23.2,12L23.2,12z"/>
<path class="st4" d="M23.9,7.2l0.4-0.1l-2.4,8.4l-0.3,0.8l0,0l-0.3,1l-0.4-0.2L23.9,7.2z"/>
<path class="st4" d="M21.7,16.3L21.7,16.3l0.2-0.8L21.7,16.3z"/>
<path class="st3" d="M20.6,17c-0.1-0.4-0.2-0.8,0.4-0.9l0.1,0.1l0.1-0.2c0.2,0,0.4,0.1,0.5,0.2v0.1c0,0,0.1,0.1,0.1,0.4
	s-0.1,0.5-0.1,0.5l0.1,0.1c-0.1,0.3-0.3,0.5-0.3,0.5S20.7,17.3,20.6,17z"/>
<path class="st3" d="M21,16L21,16c0.1,0,0.1,0,0.2,0l-0.1,0.2L21,16z"/>
<path class="st3" d="M21.8,16.6c0-0.3-0.1-0.4-0.1-0.4v-0.1c0.2,0.2,0.2,0.4,0.2,0.6c0,0.1-0.1,0.2-0.1,0.4L21.7,17
	C21.7,17.1,21.8,16.9,21.8,16.6z"/>
<path class="st4" d="M16.2,9.4l4.6,6.8c0,0,0.1-0.1,0.3-0.1l0,0l0.1,0.1v-0.1c0.5,0,0.7,0.4,0.6,0.8c0,0.1-0.1,0.2-0.1,0.2
	c0,0.1-0.1,0.1-0.1,0.2l3.2,4.8l-0.3,0.3L15.9,9.6C16,9.4,16.2,9.4,16.2,9.4z"/>
<path class="st4" d="M21.1,16.1L21.1,16.1L21.1,16.1L21.1,16.1z"/>
<path class="st4" d="M21.7,16.9c0,0.1,0,0.1-0.1,0.2C21.7,17.1,21.7,17,21.7,16.9L21.7,16.9z"/>
<circle class="st3" cx="21.2" cy="16.7" r="0.3"/>
<path class="st29" d="M21.1,16.2L21.1,16.2c0.1-0.1,0.2-0.1,0.3,0c0.2,0.1,0.3,0.4,0.3,0.4s-0.1-0.3-0.4-0.4s-0.4-0.1-0.4-0.1
	S21,16.2,21.1,16.2L21.1,16.2z"/>
<path class="st29" d="M21.1,16.2L21.1,16.2L21.1,16.2L21.1,16.2z"/>
<path class="st12" d="M24.1,22.8c0,0,0.1,0.2,0.4,0.3c0.3,0.1,0.6-0.2,0.6-0.2s-0.1-0.1-0.4-0.1c-0.2,0-0.4,0-0.4,0L24.1,22.8z"/>
<circle class="st3" cx="24.8" cy="22.4" r="0.6"/>
<circle class="st4" cx="24.8" cy="22.4" r="0.4"/>
<circle class="st3" cx="24.8" cy="22.4" r="0.3"/>
<circle class="st30" cx="53.1" cy="22.3" r="0.2"/>
<ellipse class="st31" cx="53.2" cy="22.2" rx="0.1" ry="0.1"/>
<circle class="st12" cx="56.8" cy="22.3" r="0.2"/>
<circle class="st30" cx="56.9" cy="22.3" r="0.2"/>
<ellipse class="st31" cx="56.9" cy="22.2" rx="0.1" ry="0.1"/>
<circle class="st12" cx="72.6" cy="22.3" r="0.2"/>
<path class="st30" d="M72.4,22.2c0,0.1,0.1,0.2,0.2,0.2s0.2-0.1,0.2-0.2S72.7,22,72.6,22C72.5,22,72.4,22.1,72.4,22.2z"/>
<ellipse class="st31" cx="72.6" cy="22.2" rx="0.1" ry="0.1"/>
<circle class="st12" cx="46.8" cy="22.2" r="0.2"/>
<circle class="st30" cx="46.8" cy="22.2" r="0.2"/>
<ellipse class="st31" cx="46.8" cy="22.1" rx="0.1" ry="0.1"/>
<circle class="st12" cx="31.7" cy="22.1" r="0.2"/>
<circle class="st30" cx="31.8" cy="22" r="0.2"/>
<ellipse class="st31" cx="31.8" cy="22" rx="0.1" ry="0.1"/>
<circle class="st12" cx="29.4" cy="22" r="0.2"/>
<circle class="st30" cx="29.4" cy="22" r="0.2"/>
<ellipse class="st31" cx="29.4" cy="21.9" rx="0.1" ry="0.1"/>
<circle class="st12" cx="17.2" cy="20.3" r="0.2"/>
<circle class="st30" cx="17.2" cy="20.3" r="0.2"/>
<ellipse class="st31" cx="17.2" cy="20.2" rx="0.1" ry="0.1"/>
<path class="st12" d="M22.5,9.4c0.2-0.8-0.2-1.1-0.2-1.1h0.4c0.2,0.1,0.4,0.9,0.4,0.9l-0.9,3.1l-0.6,0.2
	C21.7,12.5,22.3,10.1,22.5,9.4z"/>
<polygon class="st12" points="15.5,10.1 15.5,9.6 20.4,16.8 20.4,16.9 20.4,17.2 "/>
<path class="st12" d="M20.4,16.8L20.4,16.8L20.4,16.8z"/>
<path class="st12" d="M21.2,18l2.9,4.3c0,0,0,0.2,0.1,0.3c0.1,0.1,0.1,0.1,0.1,0.1l-0.4-0.1c0,0,0-0.2,0-0.3c0-0.1,0-0.1,0-0.1
	l-3.1-4.3L21.2,18z"/>
<path class="st32" d="M9.8,31.7c0,0-0.1-0.2-0.4-0.1c-0.3,0-0.3,0.2-0.3,0.2s0,2.3,0,2.5c0,0.1,0.4,0.3,0.8,0.1
	C9.9,34.3,9.8,31.7,9.8,31.7z"/>
<path class="st33" d="M11.6,32.9c-0.3-0.4-0.5-1-1.2-1.2c-0.6-0.2-0.9-0.1-0.9-0.1v2.8c0,0,0.7,0.1,1.2-0.2c0.2-0.1,0.3-0.2,0.4-0.3
	l0.1,0.1l1.6,2.1l0.8-1.2C13.6,34.8,11.9,33.3,11.6,32.9z"/>
<path class="st12" d="M72.8,8c0,0-2.7,1.1-4.9,1.1s-6.3,0.3-7.7,0.3S57.8,9.2,55.9,9s-4.7-0.2-4.7-0.2s-1.6,0.1-3.3-0.1
	c-1.7-0.1-7.6-0.6-9.5-0.9c-1.9-0.3-7.2-0.4-8-0.4c-0.8,0.1-1.6-0.1-3.2,0.1C25.6,7.6,24.6,8,24.6,8L25,6.8l0.6-0.5
	c0,0,20.1,0.7,24.7,1C55,7.6,59.5,8.1,63.7,8c4.1-0.1,8.1-0.3,8.1-0.3l1.1-0.1L72.8,8L72.8,8z"/>
<path class="st12" d="M23.1,9.3c0,0-0.1-1.1-1.7-1.1s-2.8,0.8-3.5,1c-0.6,0.1-1.2,0.7-1.2,0.7l-0.4-0.8c0,0,1.9-1.3,3.4-1.6
	c1.5-0.3,4.2-0.6,4.2-0.6L23.1,9.3z"/>
<linearGradient id="SVGID_7_" gradientUnits="userSpaceOnUse" x1="-1095.8561" y1="570.1488" x2="-1091.072" y2="570.1488" gradientTransform="matrix(-0.2954 0 0 0.2954 -238.3963 -119.8285)">
	<stop  offset="1.212120e-02" style="stop-color:#5C726E"/>
	<stop  offset="1" style="stop-color:#B5C0C0"/>
</linearGradient>
<path class="st34" d="M85.4,48.4h-1.2c0,0-0.2,0.3-0.1,0.3c0.1,0,1.4,0,1.4,0L85.4,48.4L85.4,48.4z"/>
<path class="st35" d="M57.2,3.6c0,0,3.4,0.9,7.9,1.7c4.5,0.7,8.5,1.1,9.3,1.2s1.5,0.5,1.1,0.8c-0.4,0.4-1.4,0.4-3.7,0.6
	c-2.2,0.2-14.7,0.6-20,0.4s-18.1-1.4-23-1.5s-9.7,1-11.3,1.7c-1.7,0.7-2.1,1.1-2.1,1.1s-4.8-5.8-3.9-6.8s1.3,0.3,5.4-0.4
	c6.6-1.1,8.4-2.1,9.5-2.4s1.7,1,15.3,2.4c3.1,0.3,7.2,0.6,9.9,0.9C55.1,3.6,57,3.5,57.2,3.6z"/>
<path class="st36" d="M10,31.8c0,0,0.5,0.2,0.6,0.6c0.2,0.4,0.1,0.6,0.1,0.6s-0.3-0.1-0.6,0c-0.2,0.1-0.5,0.1-0.5-0.1s0-0.9,0.1-1
	C9.9,31.7,10,31.8,10,31.8z"/>
<path class="st10" d="M13,35.4l-0.1,0.4l-1.3-1.7c0,0,0.9,0.8,1.1,1C12.9,35.3,13,35.4,13,35.4z"/>
<linearGradient id="SVGID_8_" gradientUnits="userSpaceOnUse" x1="-852.8112" y1="518.0162" x2="-841.9606" y2="518.0162" gradientTransform="matrix(-0.2954 0 0 0.2954 -238.3963 -119.8285)">
	<stop  offset="0" style="stop-color:#BBB745"/>
	<stop  offset="0.166" style="stop-color:#B1AD3E"/>
	<stop  offset="0.451" style="stop-color:#95912D"/>
	<stop  offset="0.8185" style="stop-color:#696510"/>
	<stop  offset="1" style="stop-color:#504C00"/>
</linearGradient>
<path class="st37" d="M10.4,31.6c0,0,0.6,0.1,1.1,0.9c0.4,0.8,2.1,2.2,2.1,2.2s-1.1-0.7-1.9-1.8C11.1,32.5,11.3,32.2,10.4,31.6z"/>
<linearGradient id="SVGID_9_" gradientUnits="userSpaceOnUse" x1="-850.4381" y1="524.2788" x2="-844.3854" y2="524.2788" gradientTransform="matrix(-0.2954 0 0 0.2954 -238.3963 -119.8285)">
	<stop  offset="0" style="stop-color:#BBB745"/>
	<stop  offset="0.166" style="stop-color:#B1AD3E"/>
	<stop  offset="0.451" style="stop-color:#95912D"/>
	<stop  offset="0.8185" style="stop-color:#696510"/>
	<stop  offset="1" style="stop-color:#504C00"/>
</linearGradient>
<path class="st38" d="M11.1,33.9c0,0,0.1,0,0.5,0.6c0.3,0.5,1.2,1.6,1.2,1.6l0.1-0.1c0,0-1-1.2-1.3-1.7
	C11.3,33.9,11.3,33.9,11.1,33.9z"/>
<path class="st39" d="M72.5,7.8c0,0-5.8-0.1-8.9,0.1c-3.1,0.2-9.4,0.4-9.4,0.4S69.8,8.4,72.5,7.8z"/>
<linearGradient id="SVGID_10_" gradientUnits="userSpaceOnUse" x1="-1178.4961" y1="471.6383" x2="-1065.7676" y2="471.6383" gradientTransform="matrix(-0.2954 0 0 0.2954 -238.3963 -119.8285)">
	<stop  offset="0" style="stop-color:#BBB745"/>
	<stop  offset="0.166" style="stop-color:#B1AD3E"/>
	<stop  offset="0.451" style="stop-color:#95912D"/>
	<stop  offset="0.8185" style="stop-color:#696510"/>
	<stop  offset="1" style="stop-color:#504C00"/>
</linearGradient>
<path class="st40" d="M109.8,20c0,0-29.4,0-30.2,0c-2.3,0-3.1-1.1-3.1-1.1h33.3V20z"/>
<path class="st9" d="M83.8,17.9c0.2,0,0.3,0.1,0.3,0.3v22.6c0,0.2-0.1,0.3-0.3,0.3s-0.3-0.1-0.3-0.3V18.2
	C83.4,18.1,83.6,17.9,83.8,17.9z"/>
<path class="st6" d="M83.6,40.9c0,0.1,0.1,0.2,0.2,0.2l0,0c0.1,0,0.2-0.1,0.2-0.2V18.3c0-0.1-0.1-0.2-0.2-0.2l0,0
	c-0.1,0-0.2,0.1-0.2,0.2V40.9z"/>
<linearGradient id="SVGID_11_" gradientUnits="userSpaceOnUse" x1="-1190.5338" y1="471.2998" x2="-1181.5231" y2="471.2998" gradientTransform="matrix(-0.2954 0 0 0.2954 -238.3963 -119.8285)">
	<stop  offset="1.212120e-02" style="stop-color:#FFFFFF"/>
	<stop  offset="0.1699" style="stop-color:#FAFBFB"/>
	<stop  offset="0.3685" style="stop-color:#EAF1F0"/>
	<stop  offset="0.589" style="stop-color:#D0DFDF"/>
	<stop  offset="0.8237" style="stop-color:#ADC7C6"/>
	<stop  offset="1" style="stop-color:#8DB1B0"/>
</linearGradient>
<path class="st41" d="M110.6,18.8h2.4c0,0,0.2,0,0.2,0.3s0,0.8,0,0.8h-2.7v-1.1H110.6z"/>
<linearGradient id="SVGID_12_" gradientUnits="userSpaceOnUse" x1="-1198.8827" y1="480.5462" x2="-1198.8827" y2="489.2012" gradientTransform="matrix(-0.2954 0 0 0.2954 -238.3963 -119.8285)">
	<stop  offset="0" style="stop-color:#BBB745"/>
	<stop  offset="0.166" style="stop-color:#B1AD3E"/>
	<stop  offset="0.451" style="stop-color:#95912D"/>
	<stop  offset="0.8185" style="stop-color:#696510"/>
	<stop  offset="1" style="stop-color:#504C00"/>
</linearGradient>
<path class="st42" d="M116,24.6c0,0-0.7-2.1-0.4-2.4c0.2-0.2,0.4-0.1,0.4-0.1V24.6z"/>
<path class="st13" d="M116.2,29.1v-7.3c0.4,0,0.5,0.1,0.5,0.1s0.2,0.1,0.2,0.3v6.3C116.9,28.9,116.6,29.1,116.2,29.1z"/>
<linearGradient id="SVGID_13_" gradientUnits="userSpaceOnUse" x1="-1201.3789" y1="480.1072" x2="-1201.3789" y2="490.9031" gradientTransform="matrix(-0.2954 0 0 0.2954 -238.3963 -119.8285)">
	<stop  offset="1.212120e-02" style="stop-color:#FFFFFF"/>
	<stop  offset="0.1699" style="stop-color:#FAFBFB"/>
	<stop  offset="0.3685" style="stop-color:#EAF1F0"/>
	<stop  offset="0.589" style="stop-color:#D0DFDF"/>
	<stop  offset="0.8237" style="stop-color:#ADC7C6"/>
	<stop  offset="1" style="stop-color:#8DB1B0"/>
</linearGradient>
<path class="st43" d="M116.3,22c0,0,0.5-0.1,0.5,0.2c0,0.1-0.1,1.1-0.2,1.6c-0.1,0.6-0.4,1.4-0.4,1.4V22H116.3z"/>
<polygon class="st44" points="21.2,16 21.2,16 22.3,12.4 "/>
<path class="st44" d="M21.7,12.6l0.6-0.2L21.7,12.6z"/>
<polygon class="st44" points="21,16 21,16.1 20.8,15.8 20.8,15.8 "/>
<polygon class="st44" points="21.1,16.2 21,16 21.2,16 "/>
<polygon class="st44" points="21.7,12.6 22.3,12.4 21.2,16 21,16 20.8,15.8 "/>
<polygon class="st44" points="20.4,17.1 20.4,16.8 20.4,16.8 20.4,17.2 "/>
<polygon class="st44" points="21.2,18.1 20.9,18.1 20.9,18 21.2,18 "/>
<polygon class="st44" points="20.4,16.7 21.2,18 21.2,18 20.4,16.8 "/>
<polygon class="st44" points="20.4,16.8 21.2,18 20.9,18 20.4,17.2 "/>
<g class="wheel_1">
	<ellipse class="st45" cx="27.2" cy="44.3" rx="5.5" ry="5.6"/>
	<ellipse class="st46" cx="27.2" cy="44.3" rx="5.1" ry="5.2"/>
	<path class="st47" d="M27.1,31.8c-6.8,0-12.3,5.6-12.3,12.6c0,6.9,5.5,12.6,12.3,12.6s12.3-5.6,12.3-12.6
		C39.3,37.4,33.8,31.8,27.1,31.8z M27.1,52.2c-4.3,0-7.7-3.6-7.7-8s3.5-8,7.7-8c4.3,0,7.7,3.6,7.7,8S31.3,52.2,27.1,52.2z"/>
	<path class="st47" d="M27.1,34.9c-4.9,0-8.9,4.1-8.9,9.2s4,9.2,8.9,9.2s8.9-4.1,8.9-9.2C36,39.1,32,34.9,27.1,34.9z M27.1,52.8
		c-4.6,0-8.4-3.9-8.4-8.7c0-4.8,3.8-8.7,8.4-8.7c4.6,0,8.4,3.9,8.4,8.7C35.4,48.9,31.7,52.8,27.1,52.8z"/>
	<path class="st17" d="M27.1,35.5c-4.6,0-8.4,3.9-8.4,8.7c0,4.8,3.8,8.7,8.4,8.7c4.6,0,8.4-3.9,8.4-8.7
		C35.4,39.4,31.7,35.5,27.1,35.5z M27.1,52.2c-4.3,0-7.7-3.6-7.7-8s3.5-8,7.7-8c4.3,0,7.7,3.6,7.7,8S31.3,52.2,27.1,52.2z"/>

		<linearGradient id="SVGID_14_" gradientUnits="userSpaceOnUse" x1="1397.8833" y1="572.535" x2="1397.8833" y2="513.335" gradientTransform="matrix(0.2954 0 0 0.2954 -386.0567 -119.8285)">
		<stop  offset="0" style="stop-color:#131400"/>
		<stop  offset="8.112125e-02" style="stop-color:#181702"/>
		<stop  offset="0.5105" style="stop-color:#2C240A"/>
		<stop  offset="0.8" style="stop-color:#33290D"/>
	</linearGradient>
	<path class="st48" d="M27.1,31.8c-6.6,0-12,5.3-12.2,12c0.1,1.3,0.4,2.3,0.6,2.6c0.8,1.5,1.9,1.3,1.9,1.3s-1-2.6-0.4-5.7
		c0.8-3.8,4.5-9.1,10.9-8.5c5.5,0.5,9.1,5.3,9.5,9.2c0.4,4-0.9,6.5-0.9,6.5c2.1-1.2,2.2-4.4,2.3-4.9C39.6,37.4,33.8,31.8,27.1,31.8z
		"/>
	<path class="st49" d="M29.2,55.2c-8.5,1.8-13.1-6.2-13.9-9c-0.3-1.1-0.4-2.1-0.5-2.8c0,0.3,0,0.6,0,0.9c0,6.9,5.5,12.6,12.3,12.6
		c6.6,0,11.9-5.3,12.2-12C38.8,47.4,36.9,53.7,29.2,55.2z"/>
	<polygon class="st17" points="35.2,44.2 35.2,44 27.4,44.1 33.5,39.3 33.4,39.1 27.3,43.9 29.5,36.5 29.3,36.4 27,43.8 24.8,36.4
		24.5,36.5 26.8,43.9 20.5,39.4 20.4,39.6 26.7,44.1 18.9,44.3 18.9,44.5 26.7,44.4 20.6,49.2 20.7,49.4 26.8,44.6 24.6,52
		24.8,52.1 27,44.7 29.3,52.1 29.6,52 27.3,44.6 33.6,49.1 33.7,48.9 27.4,44.4 	"/>
	<polygon class="st17" points="19.4,46.2 19.2,46 21.2,44.3 19.2,42.9 19.3,42.7 21.6,44.3 	"/>
	<polygon class="st17" points="35.1,46 35.3,45.8 33.3,44.1 35.4,42.7 35.2,42.5 32.9,44.1 	"/>
	<polygon class="st17" points="19.7,41.4 19.7,41.1 22.3,40.9 21.4,38.5 21.7,38.4 22.6,41.1 	"/>
	<polygon class="st17" points="32.5,50.5 32.8,50.4 32.1,47.9 34.6,47.9 34.6,47.6 31.8,47.7 	"/>
	<polygon class="st17" points="22.8,37.1 23,36.9 25.2,38.3 26,35.9 26.2,36 25.3,38.7 	"/>
	<polygon class="st17" points="27.6,52.5 27.9,52.6 28.9,50.2 30.9,51.8 31.1,51.6 28.8,49.8 	"/>
	<polygon class="st17" points="27.6,36 27.8,36 28.8,38.3 30.8,36.8 31,37 28.7,38.7 	"/>
	<polygon class="st17" points="22.9,51.4 23.1,51.6 25.2,50.2 26,52.6 26.2,52.6 25.4,49.8 	"/>
	<polygon class="st17" points="32.4,37.8 32.6,37.8 32,40.4 34.5,40.3 34.5,40.6 31.7,40.6 	"/>
	<polygon class="st17" points="19.6,47.6 19.6,47.9 22.2,48 21.4,50.4 21.6,50.5 22.5,47.8 	"/>
	<ellipse class="st50" cx="27.1" cy="44.3" rx="2.2" ry="2.2"/>
	<ellipse class="st51" cx="27.1" cy="44.3" rx="2" ry="2.1"/>
	<g>
		<path class="st50" d="M27.1,43.2c-0.6,0-1.1,0.5-1.1,1.1s0.5,1.1,1.1,1.1s1.1-0.5,1.1-1.1S27.7,43.2,27.1,43.2z M27.1,45.2
			c-0.5,0-0.9-0.4-0.9-1s0.4-1,0.9-1s0.9,0.4,0.9,1S27.6,45.2,27.1,45.2z"/>
		<path class="st50" d="M27.1,42.9c-0.7,0-1.3,0.6-1.3,1.3c0,0.7,0.6,1.3,1.3,1.3s1.3-0.6,1.3-1.3S27.8,42.9,27.1,42.9z M27.1,45.5
			c-0.6,0-1.2-0.5-1.2-1.2c0-0.6,0.5-1.2,1.2-1.2s1.2,0.5,1.2,1.2C28.3,44.9,27.8,45.5,27.1,45.5z"/>
	</g>
</g>
<g class="wheel_2">
	<ellipse class="st45" cx="110" cy="44.3" rx="5.5" ry="5.6"/>
	<ellipse class="st46" cx="110" cy="44.3" rx="5.1" ry="5.2"/>
	<path class="st47" d="M109.9,31.8c-6.8,0-12.3,5.6-12.3,12.6c0,6.9,5.5,12.6,12.3,12.6s12.3-5.6,12.3-12.6
		C122.1,37.4,116.7,31.8,109.9,31.8z M109.9,52.2c-4.3,0-7.7-3.6-7.7-8s3.5-8,7.7-8c4.3,0,7.7,3.6,7.7,8S114.1,52.2,109.9,52.2z"/>
	<path class="st47" d="M109.9,34.9c-4.9,0-8.9,4.1-8.9,9.2s4,9.2,8.9,9.2s8.9-4.1,8.9-9.2C118.8,39.1,114.8,34.9,109.9,34.9z
		 M109.9,52.8c-4.6,0-8.4-3.9-8.4-8.7c0-4.8,3.8-8.7,8.4-8.7s8.4,3.9,8.4,8.7C118.2,48.9,114.5,52.8,109.9,52.8z"/>
	<path class="st17" d="M109.9,35.5c-4.6,0-8.4,3.9-8.4,8.7c0,4.8,3.8,8.7,8.4,8.7s8.4-3.9,8.4-8.7C118.2,39.4,114.5,35.5,109.9,35.5
		z M109.9,52.2c-4.3,0-7.7-3.6-7.7-8s3.5-8,7.7-8c4.3,0,7.7,3.6,7.7,8S114.1,52.2,109.9,52.2z"/>

		<linearGradient id="SVGID_15_" gradientUnits="userSpaceOnUse" x1="1678.183" y1="572.535" x2="1678.183" y2="513.335" gradientTransform="matrix(0.2954 0 0 0.2954 -386.0567 -119.8285)">
		<stop  offset="0" style="stop-color:#131400"/>
		<stop  offset="8.112125e-02" style="stop-color:#181702"/>
		<stop  offset="0.5105" style="stop-color:#2C240A"/>
		<stop  offset="0.8" style="stop-color:#33290D"/>
	</linearGradient>
	<path class="st52" d="M109.9,31.8c-6.6,0-12,5.3-12.2,12c0.1,1.3,0.4,2.3,0.6,2.6c0.8,1.5,1.9,1.3,1.9,1.3s-1-2.6-0.4-5.7
		c0.8-3.8,4.5-9.1,10.9-8.5c5.5,0.5,9.1,5.3,9.5,9.2c0.4,4-0.9,6.5-0.9,6.5c2.1-1.2,2.2-4.4,2.3-4.9
		C122.4,37.4,116.7,31.8,109.9,31.8z"/>
	<path class="st49" d="M112,55.2c-8.5,1.8-13.1-6.2-13.9-9c-0.3-1.1-0.4-2.1-0.5-2.8c0,0.3,0,0.6,0,0.9c0,6.9,5.5,12.6,12.3,12.6
		c6.6,0,11.9-5.3,12.2-12C121.6,47.4,119.7,53.7,112,55.2z"/>
	<polygon class="st17" points="118,44.2 118,44 110.2,44.1 116.4,39.3 116.2,39.1 110.1,43.9 112.3,36.5 112.1,36.4 109.9,43.8
		107.6,36.4 107.3,36.5 109.7,43.9 103.4,39.4 103.2,39.6 109.5,44.1 101.7,44.3 101.7,44.5 109.5,44.4 103.4,49.2 103.5,49.4
		109.7,44.6 107.4,52 107.6,52.1 109.9,44.7 112.2,52.1 112.4,52 110.1,44.6 116.4,49.1 116.5,48.9 110.2,44.4 	"/>
	<polygon class="st17" points="102.2,46.2 102.1,46 104,44.3 102,42.9 102.1,42.7 104.4,44.3 	"/>
	<polygon class="st17" points="117.9,46 118.1,45.8 116.1,44.1 118.2,42.7 118,42.5 115.7,44.1 	"/>
	<polygon class="st17" points="102.6,41.4 102.5,41.1 105.1,40.9 104.2,38.5 104.5,38.4 105.5,41.1 	"/>
	<polygon class="st17" points="115.4,50.5 115.6,50.4 114.9,47.9 117.4,47.9 117.4,47.6 114.6,47.7 	"/>
	<polygon class="st17" points="105.7,37.1 105.8,36.9 108,38.3 108.8,35.9 109,36 108.1,38.7 	"/>
	<polygon class="st17" points="110.4,52.5 110.7,52.6 111.7,50.2 113.7,51.8 113.9,51.6 111.6,49.8 	"/>
	<polygon class="st17" points="110.4,36 110.6,36 111.6,38.3 113.6,36.8 113.8,37 111.5,38.7 	"/>
	<polygon class="st17" points="105.7,51.4 105.9,51.6 108.1,50.2 108.8,52.6 109.1,52.6 108.2,49.8 	"/>
	<polygon class="st17" points="115.2,37.8 115.4,37.8 114.8,40.4 117.3,40.3 117.4,40.6 114.5,40.6 	"/>
	<polygon class="st17" points="102.4,47.6 102.4,47.9 105,48 104.2,50.4 104.4,50.5 105.3,47.8 	"/>
	<ellipse class="st50" cx="109.9" cy="44.3" rx="2.2" ry="2.2"/>
	<ellipse class="st51" cx="109.9" cy="44.3" rx="2" ry="2.1"/>
	<g>
		<path class="st50" d="M109.9,43.2c-0.6,0-1.1,0.5-1.1,1.1s0.5,1.1,1.1,1.1s1.1-0.5,1.1-1.1S110.5,43.2,109.9,43.2z M109.9,45.2
			c-0.5,0-0.9-0.4-0.9-1s0.4-1,0.9-1s0.9,0.4,0.9,1S110.4,45.2,109.9,45.2z"/>
		<path class="st50" d="M109.9,42.9c-0.7,0-1.3,0.6-1.3,1.3c0,0.7,0.6,1.3,1.3,1.3c0.7,0,1.3-0.6,1.3-1.3
			C111.2,43.5,110.6,42.9,109.9,42.9z M109.9,45.5c-0.6,0-1.2-0.5-1.2-1.2c0-0.6,0.5-1.2,1.2-1.2s1.2,0.5,1.2,1.2
			C111.1,44.9,110.6,45.5,109.9,45.5z"/>
	</g>
</g>
</svg>
