<?xml version="1.0" encoding="utf-8"?>
<!-- Generator: Adobe Illustrator 18.1.1, SVG Export Plug-In . SVG Version: 6.00 Build 0)  -->
<svg version="1.1" id="Layer_1" xmlns="http://www.w3.org/2000/svg" xmlns:xlink="http://www.w3.org/1999/xlink" x="0px" y="0px"
	 viewBox="0 0 446.9 166.4" enable-background="new 0 0 446.9 166.4" xml:space="preserve">
<polygon opacity="0.3" fill="#4888C8" enable-background="new    " points="121,19.2 284,10.5 319.7,43.2 309.9,51.1 106.8,56.8 
	94.2,48.5 "/>
<ellipse opacity="0.2" fill="#857C6F" enable-background="new    " cx="224.4" cy="147.3" rx="222.5" ry="19.2"/>
<g>
	<path fill="#181717" d="M427.7,107.9c0,0-6.3,5.9-11.2,5.9c-4.9,0-9.9,2.1-9.9,2.1s-24.8-1.6-41.9,1.8c-17.1,3.4-24.4-1-24.4-1
		s-5.4,7.8-14.2,7.8c-8.8,0-166.7,0.2-166.7,0.2s-6.1-6.1-10-5.6c-3.9,0.5-60-1.5-60-1.5H76.7c0,0-24.4-21-20.5-24.9
		c3.9-3.9,46.4-20.5,54.2-20.5c7.8,0,53.7-1,57.6-1c3.9,0,125.5-4.4,125.5-4.4l120.1,7.3L427.7,107.9z"/>
	<circle fill="#1A1D24" cx="119.9" cy="117.2" r="33.3"/>
	<circle fill="#FFFFFF" cx="119.9" cy="117.2" r="21.6"/>
	<path fill="#C3C3C3" d="M101.2,117.2c0,10.4,8.4,18.8,18.8,18.8c10.4,0,18.8-8.4,18.8-18.8c0-10.4-8.4-18.8-18.8-18.8
		C109.6,98.4,101.2,106.9,101.2,117.2z"/>
	<circle fill="#ACACAC" cx="119.9" cy="117.2" r="13.4"/>
	<circle fill="#C3C3C3" cx="119.9" cy="117.2" r="9.2"/>
	<g>
		<g>
			<path fill="#010101" d="M126.8,101.5l-1,2.2c-1.8-0.8-3.8-1.2-5.9-1.2c-2.1,0-4,0.4-5.8,1.2l-1-2.2c2.1-0.9,4.4-1.4,6.8-1.4
				C122.4,100,124.7,100.5,126.8,101.5z"/>
			<path fill="#010101" d="M113.2,133l1-2.2c1.8,0.8,3.8,1.2,5.8,1.2c2.1,0,4.1-0.4,5.9-1.2l1,2.2c-2.1,0.9-4.4,1.4-6.8,1.4
				C117.5,134.4,115.2,133.9,113.2,133z"/>
		</g>
	</g>
	<path fill="#B21F24" d="M26,113.2c16.4,3.3,30.4,3.4,41.8,3.9c11.4,0.5,15,2,15.8-3.3c0.8-5.2,1.7-11,5.9-13.2
		c3.2-1.7,12.7-2.7,30.1-3.2c20-0.5,29.4-1.2,32.3,3.3c2.1,3.2,5,15.1,4.7,19.9c-0.3,4.7,3.6,4.2,3.6,4.2s62.8,0.3,109,0
		c46.2-0.3,57-0.3,57-0.3s1.3,0.3,2.4-5.9c1.1-6.2,8.5-26.9,12.4-29.9c3.9-2.9,9.5-2.8,28.9-3.2c19.4-0.3,24.9-1.9,29.8,4.3
		c2.6,3.3,7.8,16.2,7.8,16.2l17.1-1.1c0,0,8.8-11.2,11.2-18.4c2.4-7.2,2.6-12,2.6-12l-0.2-19.2c0,0-15.9-0.5-15.8-0.7
		c0.2-0.2-16.1-3.9-44.6-7.8c-28.5-3.9-58.3-3.7-58.3-3.7L284,10.5c0,0-4.5-3.3-9.8-5.3c-5.4-2-20.3-3.6-57.3-3.6
		c-36.9,0-59,2.6-69.2,4.7c-8.3,1.7-18.9,7-25.6,12.5c0.7,1.7,3,7.5,2.4,9.7c-0.7,2.7-11.1,18.4-13.6,22.3c-1.6,2.4-3.5,3.7-5.2,4.2
		c-2-0.1-3.3-0.2-3.3-0.2l-8.1-4.6c-0.4-0.3-0.8-0.5-1-0.7c-1,1.1-1.6,1.7-1.6,1.7s-9.5,0.2-28.4,4.1C44.4,59.4,30.7,66,30.7,66
		l-4.6,1.8l-6.6,22.6l-4.2,5.3l-3.4,11C12,106.7,9.5,109.9,26,113.2z M306.5,47.4c0,0-26.8-28.1-28.7-30c-1.9-2-0.3-2.6-0.3-2.6
		l6.6-4.3l33.7,31c-1.9,2.8-6.5,5.8-8.1,6.6C308,48.9,306.5,47.4,306.5,47.4z M271.1,48.5c-0.1-1.4-2.1-26.7-2.1-26.7l24,24.9
		c0,0,1.3,1.1,0.9,2c-0.4,0.9-2.8,0.7-2.8,0.7s-16.7,0.4-17.7,0.4C272.4,49.9,271.3,49.9,271.1,48.5z M222.7,20.2h42.3
		c2.1,0,2.1,1.9,2.1,1.9l2.1,28c0,0-41.8,1.4-44.4,1.4c-2.4,0-2.7-2-2.7-2s-2.4-23-2.7-26.2C219,19.7,222.7,20.2,222.7,20.2z
		 M159.4,26.4c0,0,2.2-1.1,11.3-3.1c9.9-2.3,26.5-2.4,29.7-2.5c2.4,0,6.5-0.4,7.9,0.2c1.5,0.7,1.4,3.4,1.4,3.4s2.1,23.3,1.9,25.6
		c-0.2,2.3-3.4,2.2-3.4,2.2l-47.8,1L159.4,26.4z M141.8,39.9c0.5-1.1,2.6-4.1,5.9-7c3-2.6,9.6-5.8,9.6-5.8l1,26.1l-10.5,0.4
		c0,0-3.4,0.2-4.5-2.3C142.3,48.9,141.2,41,141.8,39.9z"/>
	<path fill="#B21F24" d="M15.4,95.7l4.2-5.3l6.6-22.6l0,0c9.7-2.3,35.4-7.2,78.5-8c56.3-1,115-0.1,166.6-0.6
		c41.8-0.5,133.4,1.5,167,2.3l0.1,13.2c0,0-0.2,4.9-2.6,12c-2.4,7.2-11.2,18.4-11.2,18.4l-17.1,1.1c0,0-5-11.8-7.4-15.2
		c-4.8-6.7-10.8-5.6-30.2-5.3c-19.4,0.3-25,0.2-28.9,3.2c-3.9,2.9-11.3,23.7-12.4,29.9c-1.1,6.2-2.4,5.9-2.4,5.9s-10.7,0-57,0.3
		c-46.2,0.3-109,0-109,0s-4.3,0.6-4.7-4.1c-0.5-5.1-2.2-18.6-5-21.2c-4.6-4.1-14-2.7-31.4-2.1c-18.9,0.6-25.6,1.7-29,3
		c-3.4,1.3-5.7,8.1-6.5,13.3c-0.8,5.2-4.4,3.7-15.8,3.3c-11.4-0.5-25.4-0.7-41.8-3.9c-16.4-3.3-14-6.5-14-6.5L15.4,95.7z"/>
	<path fill="#EFECDF" d="M102.4,54.9c0,0,0.7,0.1,1.8,0.1C103.1,55,102.4,54.9,102.4,54.9z"/>
	<path fill="#EFECDF" d="M119.6,21c-0.1,0.1-0.2,0.2-0.4,0.4C119.4,21.3,119.5,21.2,119.6,21z"/>
	<path fill="#EFECDF" d="M94.3,50.3l-1.1-0.6c4.9-5.2,20.4-21.6,25-27.2c-4.6,5.6-19.9,21.8-24.9,27.1
		C93.6,49.8,93.9,50.1,94.3,50.3z"/>
	<path fill="#EFECDF" d="M122.1,18.7C122.1,18.7,122.1,18.8,122.1,18.7c0,0-0.1,0.1-0.1,0.1C122,18.8,122,18.8,122.1,18.7z"/>
	<path fill="#EFECDF" d="M110.9,50.9c2.5-3.9,12.9-19.6,13.6-22.3c0.6-2.3-1.8-8.3-2.4-9.9c6.5-5.5,16.6-10.8,25-12.5
		c10.3-2.1,32.9-5,69.8-5c36.9,0,51.9,1.8,57.3,3.7c1.2,0.4,2.3,0.9,3.4,1.5c1.7,0.8,2.1,1.1,2.1,1.1s-6.7,5.7-15.2,5.7
		c-8.5,0-52.4,0.2-66.7,0.2c-14.3,0-24.9,0.2-36,4.3c-11.1,4-19.8,9.8-24.1,16.4c-4.3,6.6-13.4,18.3-13.8,19.4
		c-0.4,1.1-0.6,2.1-3.4,2.3c-1.9,0.1-10-0.4-14.6-0.7C107.4,54.6,109.4,53.3,110.9,50.9z"/>
	<path fill="#EFECDF" d="M120.8,19.9c-0.1,0.1-0.3,0.3-0.4,0.4C120.5,20.1,120.7,20,120.8,19.9z"/>
	
		<linearGradient id="SVGID_1_" gradientUnits="userSpaceOnUse" x1="26.6277" y1="49.2861" x2="130.28" y2="49.2861" gradientTransform="matrix(-1 0 0 1 446.8664 0)">
		<stop  offset="0.1148" style="stop-color:#CC2027"/>
		<stop  offset="1" style="stop-color:#DA5948"/>
	</linearGradient>
	<path fill="url(#SVGID_1_)" d="M323.1,43.7c0,0,17.2-0.2,47.5,3.1c30.3,3.3,49.6,8.1,49.6,8.1s-26.9-3.6-51.1-3.6
		c-24.2,0-52.6,0.3-52.6,0.3s2.9-2.9,4.4-4.9C322.4,44.8,323.1,43.7,323.1,43.7z"/>
	<path fill="#6C0D0F" d="M322.4,54.4c7.2-4.9,7.9-10.7,7.9-10.9l-1-0.1c0,0.1-0.7,5.6-7.5,10.2L322.4,54.4z"/>
	<g>
		<g>
			<path fill="#010101" d="M105.2,117.2c0,2.1,0.4,4.1,1.2,5.9l-2.2,1c-0.9-2.1-1.4-4.4-1.4-6.8c0-2.4,0.5-4.7,1.4-6.8l2.2,1
				C105.6,113.2,105.2,115.2,105.2,117.2z"/>
			<path fill="#010101" d="M134.7,117.2c0-2.1-0.4-4-1.2-5.8l2.2-1c0.9,2.1,1.4,4.4,1.4,6.8c0,2.4-0.5,4.7-1.4,6.8l-2.2-1
				C134.3,121.3,134.7,119.3,134.7,117.2z"/>
		</g>
	</g>
	<circle fill="#1A1D24" cx="369.9" cy="117.2" r="33.3"/>
	<circle fill="#FFFFFF" cx="369.9" cy="117.2" r="21.6"/>
	<path fill="#C3C3C3" d="M351.1,117.2c0,10.4,8.4,18.8,18.8,18.8c10.4,0,18.8-8.4,18.8-18.8c0-10.4-8.4-18.8-18.8-18.8
		C359.5,98.4,351.1,106.9,351.1,117.2z"/>
	<circle fill="#ACACAC" cx="369.9" cy="117.2" r="13.4"/>
	<circle fill="#C3C3C3" cx="369.9" cy="117.2" r="9.2"/>
	<g>
		<g>
			<path fill="#010101" d="M376.7,101.5l-1,2.2c-1.8-0.8-3.8-1.2-5.9-1.2c-2.1,0-4,0.4-5.8,1.2l-1-2.2c2.1-0.9,4.4-1.4,6.8-1.4
				C372.3,100,374.6,100.5,376.7,101.5z"/>
			<path fill="#010101" d="M363.1,133l1-2.2c1.8,0.8,3.8,1.2,5.8,1.2c2.1,0,4.1-0.4,5.9-1.2l1,2.2c-2.1,0.9-4.4,1.4-6.8,1.4
				C367.5,134.4,365.2,133.9,363.1,133z"/>
		</g>
	</g>
	<g>
		<g>
			<path fill="#010101" d="M355.1,117.2c0,2.1,0.4,4.1,1.2,5.9l-2.2,1c-0.9-2.1-1.4-4.4-1.4-6.8c0-2.4,0.5-4.7,1.4-6.8l2.2,1
				C355.5,113.2,355.1,115.2,355.1,117.2z"/>
			<path fill="#010101" d="M384.6,117.2c0-2.1-0.4-4-1.2-5.8l2.2-1c0.9,2.1,1.4,4.4,1.4,6.8c0,2.4-0.5,4.7-1.4,6.8l-2.2-1
				C384.2,121.3,384.6,119.3,384.6,117.2z"/>
		</g>
	</g>
	<path fill="#ABBBC5" d="M217.6,22c0.5,4.9,2.7,28.6,2.7,28.6s0.3,2.7,3.6,2.6c5.5-0.2,69.6-2,69.6-2s5-0.9,2.1-4.6L271,20.6
		c0,0-1.3-1.3-2.5-1.8c-1.1-0.5-2.6-0.8-4.6-0.7c-5.2,0.2-41.9,0.2-41.9,0.2S217.2,17.9,217.6,22z M271.1,48.5
		c-0.1-1.4-2.1-26.7-2.1-26.7l24,24.9c0,0,1.3,1.1,0.9,2c-0.4,0.9-2.8,0.7-2.8,0.7s-16.7,0.4-17.7,0.4
		C272.4,49.9,271.3,49.9,271.1,48.5z M222.7,20.2h42.3c2.1,0,2.1,1.9,2.1,1.9l2.1,28c0,0-41.8,1.4-44.4,1.4c-2.4,0-2.7-2-2.7-2
		s-2.4-23-2.7-26.2C219,19.7,222.7,20.2,222.7,20.2z"/>
	<path fill="#ABBBC5" d="M141.7,52.9c0.9,2.7,3.9,2.7,3.9,2.7l38.2-0.6c0,0,14.8,0.1,23-0.4c2.4-0.1,3.9-0.5,4.6-0.8
		c3.3-1.5,2.4-5.6,2.4-5.6l-2.4-25.8c-0.2-4-3.2-3.7-4.4-3.7c-1.2-0.1-8-0.5-31.7,1.8c-26.2,2.6-33.3,15.8-34.8,18.2
		C138.9,41.2,140.8,50.2,141.7,52.9z M159.4,26.4c0,0,2.2-1.1,11.3-3.1c9.9-2.3,26.5-2.4,29.7-2.5c2.4,0,6.5-0.4,7.9,0.2
		c1.5,0.7,1.4,3.4,1.4,3.4s2.1,23.3,1.9,25.6c-0.2,2.3-3.4,2.2-3.4,2.2l-47.8,1L159.4,26.4z M141.8,39.9c0.5-1.1,2.6-4.1,5.9-7
		c3-2.6,9.6-5.8,9.6-5.8l1,26.1l-10.5,0.4c0,0-3.4,0.2-4.5-2.3C142.3,48.9,141.2,41,141.8,39.9z"/>
	<path fill="#ABBBC5" d="M406.6,115.9c0,0,27.7,0.1,30.6,0.1c3,0,4.1-2.2,6.3-4c2.7-2.1,1.8-2,1.3-3.5c-0.7-2.2-2-6.1-5.5-6.1
		c-3.4,0-33.9,0-33.9,0L406.6,115.9z"/>
	<path fill="#ABBBC5" d="M275.8,13.5c0.7-0.7,5-3.4,6.5-4.3c1.1,0.7,1.8,1.3,1.8,1.3l27.1,24.9l-27.1-24.9l-6.6,4.3
		c0,0-1.5,0.6,0.3,2.6c1.9,2,28.7,30,28.7,30s1.5,1.5,3.3,0.7c1.6-0.7,6.1-3.7,8.1-6.6l1.3,1.2c-2.4,4.1-6.6,6.1-9.1,7.2
		c-2.5,1.1-4.9-0.9-4.9-0.9s-27.5-29.5-29.4-31.4C273.9,15.7,275,14.3,275.8,13.5z"/>
	
		<rect x="87.6" y="51.8" transform="matrix(-0.9962 8.704115e-002 -8.704115e-002 -0.9962 180.7229 104.0616)" fill="#6C0D0F" width="1" height="8.3"/>
	<path fill="#6C0D0F" d="M92.1,51c0,0.1,4.4,5.8,14.1,7.7l-0.2,1c-10.1-2-14.5-7.9-14.7-8.1L92.1,51z"/>
	<path fill="#ABBBC5" d="M28,120.1c0,0-1.7-3.5,2.4-4.9c1.3-0.4,3.3-0.6,3.9-2.5c0.2-0.5,0.2-2.5,0.2-3.1c-0.2-2.1-0.3-2.8-13.6-2.9
		c-13.9-0.1-17.8-0.2-19.3,1.4c-1.5,1.6-1.4,2.2-0.7,3.4c1.1,2,4.1,3.2,4.1,3.2s2.4,4,4.6,4.8c2.2,0.8,2.2,0.3,6.5,0.4
		C20.4,120.1,28,120.1,28,120.1z"/>
	<path fill="#B24926" d="M27.2,67.4c0,0-5.2,0.4-8.5,3.5C15.5,74,14.7,77,14.7,77h-2.2c0,0-0.3,0.8-0.3,3c0,2.2,0.3,2.9,0.3,2.9
		l1,0.2l-2.2,8.3l4.2,3.9c0,0,3.4-3.1,4.3-4.2C20.6,90.1,27.2,67.4,27.2,67.4z"/>
	<path fill="#ABBBC5" d="M442,76.9c1.2-0.2-0.8,3.4-4.1,10.3c-3.4,7.3-4.5,9.1-4.5,9.1l-4-1.4c0,0,1-1.1,3.2-5.9
		c2-4.4,3.6-8.1,4.6-10.4C437.8,76.9,440.7,77,442,76.9z"/>
	<path fill="#6C808B" d="M405.5,102.3l17.4,0c0,0-7.3,0.8-9.7,2.3c-3,1.9-1.2,4.8,4.2,5.2c3.5,0.2,21,1.7,24.9-0.8
		c1.5-0.9,1.6-2.8,0.3-4.3c-1.6-1.9-4.1-2.1-5.1-2.3c0.9,0,1.6-0.1,2-0.1c3.4,0,5.5,3.1,6.7,5c0.8,1.3,1.5,3.1-1.2,5.2
		c-2.3,1.8-5.3,3.3-8.3,3.3c-3,0-30,0-30,0L405.5,102.3z"/>
	<path fill="#6C808B" d="M1.7,108.1c-0.1,0.3-0.4,0.8-0.3,1.3c0.1,1.2,1.1,1.6,3.8,1.7c2.4,0.1,20.4-0.1,23.7-0.2
		c3.3-0.1,3.9-0.3,4.1-1c0.2-0.7-0.1-1.4-0.8-1.9c-0.7-0.6-1.7-0.8-1.7-0.8c4.6,0.2,4,2.2,4.1,3.3c0.1,1.8,0.2,4-4,5.1
		c-1.7,0.5-2.5,4.6-2.5,4.6s-8.3,0-12.6,0c-4.3,0-4.6-0.2-6.8-1c-2.2-0.8-3.7-4.3-3.7-4.3s-3.3-1.1-4.6-2.9
		C-0.6,110.5,0.6,108.8,1.7,108.1z"/>
	<path fill="#ABBBC5" d="M27.4,67.3l-7.1,24.9l-4.9,3.5l-4.1-3.8l0.8-3.1l0.6,1.8h4.7c0,0,1,0.2,1.4-0.9c0.4-1,6.5-22,6.5-22
		L27.4,67.3z"/>
	<path fill="#D8E6EE" d="M440.3,104.1c0,0,3.9,1.9,1.4,2.6c-3.2,0.9-14.6-0.2-14.6-0.2s2.6-1.7,5.7-2.3
		C435.8,103.7,438.3,103.1,440.3,104.1z"/>
	
		<linearGradient id="SVGID_2_" gradientUnits="userSpaceOnUse" x1="296.2497" y1="57.3601" x2="9.5437" y2="57.3601" gradientTransform="matrix(-1 0 0 1 446.8664 0)">
		<stop  offset="0.1148" style="stop-color:#CC2027"/>
		<stop  offset="1" style="stop-color:#E38068"/>
	</linearGradient>
	<path fill="url(#SVGID_2_)" d="M394.9,54.6c31.5,0.9,42.5,0.3,42.5,0.3l-0.5,5.9c0,0-30.5-0.4-81.5-1.6
		c-51-1.2-204.7-2.1-204.7-2.1s38.8-0.8,94.2-1.8c19.2-0.4,39.3-1,58.3-1.1C344.6,53.7,381.3,54.2,394.9,54.6z"/>
	
		<linearGradient id="SVGID_3_" gradientUnits="userSpaceOnUse" x1="249.0198" y1="86.1231" x2="400.3894" y2="86.1231" gradientTransform="matrix(-1 0 0 1 446.8664 0)">
		<stop  offset="0.1148" style="stop-color:#D02027"/>
		<stop  offset="1" style="stop-color:#B21F24"/>
	</linearGradient>
	<path fill="url(#SVGID_3_)" d="M46.5,74.8c0,0,69-10.8,108.7-8.2c39.7,2.6,43.4,6.5,42.5,10.8c-1,4.8-15.7,28.7-15.7,28.7l-4.6,0
		c0,0,11.1-18.7,13.3-22.4c3.9-6.6,1.1-9.5-9.9-11.2c-11.1-1.6-51.1-4.7-81-1.4C69.7,74.3,46.5,74.8,46.5,74.8z"/>
	
		<linearGradient id="SVGID_4_" gradientUnits="userSpaceOnUse" x1="265.5732" y1="96.1081" x2="306.2976" y2="96.1081" gradientTransform="matrix(-1 0 0 1 446.8664 0)">
		<stop  offset="0" style="stop-color:#9A1C1F"/>
		<stop  offset="1" style="stop-color:#B21F24"/>
	</linearGradient>
	<path fill="url(#SVGID_4_)" d="M140.6,77.9v-2.8c0,0,27.3,3.2,34.4,3.8c7,0.6,7.3,2.4,5.1,6.8c-5.3,10.9-5,12.5-18.9,31.4l-0.1-6.8
		c3-4.1,3.5-4.9,6.6-10.5c4.3-7.9,8.5-14.6,5.2-16.4C169.6,81.7,140.6,77.9,140.6,77.9z"/>
	
		<linearGradient id="SVGID_5_" gradientUnits="userSpaceOnUse" x1="279.3279" y1="75.4841" x2="249.5812" y2="75.4841" gradientTransform="matrix(-1 0 0 1 446.8664 0)">
		<stop  offset="0.1148" style="stop-color:#D02027"/>
		<stop  offset="1" style="stop-color:#D86847"/>
	</linearGradient>
	<path fill="url(#SVGID_5_)" d="M167.5,68c0,0,18.5,1.5,24.5,3.8c6,2.3,5.5,4,4.8,6.2c-0.7,2.2-2.3,4.9-2.3,4.9s4.1-6.7-1-9.2
		C188.5,71.2,167.5,68,167.5,68z"/>
	
		<linearGradient id="SVGID_6_" gradientUnits="userSpaceOnUse" x1="327.3293" y1="124.799" x2="327.3293" y2="93.189" gradientTransform="matrix(-1 0 0 1 446.8664 0)">
		<stop  offset="0.3607" style="stop-color:#B21F24"/>
		<stop  offset="0.5738" style="stop-color:#B21F24"/>
		<stop  offset="1" style="stop-color:#D42F29"/>
	</linearGradient>
	<path fill="url(#SVGID_6_)" d="M156,122.8c1.1,2.2,3.5,2,3.5,2s-1-0.9-1.2-2.8c-0.4-4.2-1.2-9.9-1.6-12.1c-0.9-5.7-1.9-12-3.9-13.7
		c-3.7-3-14.3-3.4-35.5-2.4c-21.2,1-33.5,0.5-35.2,9c-1.6,8.1-2.5,14.9-2.5,14.9s2.6,0.6,3.6-1.8c0.5-1.2-0.5-12.8,5-15.2
		c3-1.3,6.9-2.4,11.2-2.8c2.5-0.2,38.6-1.3,42.2-1.2c4.4,0.1,7.5,0.6,9.4,2C155.2,102.1,155,120.8,156,122.8z"/>
	<path fill="#9AA9B2" d="M445.5,110.1c0,0-2.2,3.8-12,3.8c-9.8,0-11.9-0.1-14.5,0c-4.1,0.1-11.1,1-11.1,1s10.7,0,20.5,0.3
		C441.4,115.6,444.5,112.4,445.5,110.1z"/>
	<path fill="#6C0D0F" d="M218.3,111.2c0.1,5.4,4.6,5.5,4.8,5.5l80.9,0.2c0.4-2.5,2.5-15.9,3.3-29.2c1-15-1.2-30.7-1.8-32.4
		c-0.6-1.9-2.2-4.2-2.2-4.2c0,0,0,0,0,0l-35-37.4l0.7-0.7l35,37.5c0.1,0.1,1.7,2.5,2.3,4.5c0.6,1.9,2.8,17.5,1.8,32.7
		c-1,14.7-3.4,29.5-3.4,29.7l-0.1,0.4l-81.7-0.2c-0.1,0-5.7-0.1-5.7-6.5L218.3,111.2z"/>
	
		<linearGradient id="SVGID_7_" gradientUnits="userSpaceOnUse" x1="420.0974" y1="64.593" x2="298.7917" y2="64.593" gradientTransform="matrix(-1 0 0 1 446.8664 0)">
		<stop  offset="0" style="stop-color:#E38068"/>
		<stop  offset="1" style="stop-color:#CC2027"/>
	</linearGradient>
	<path fill="url(#SVGID_7_)" d="M148.1,57.1c0,0-51.1,1.1-81.4,5c-30.3,3.9-38.8,5.4-38.8,5.4l-1.1,4.7c0,0,29.7-6.8,61.8-9.9
		C103.4,60.7,103.4,60.6,148.1,57.1z"/>
	
		<linearGradient id="SVGID_8_" gradientUnits="userSpaceOnUse" x1="80.9558" y1="123.4445" x2="80.9558" y2="81.5756" gradientTransform="matrix(-1 0 0 1 446.8664 0)">
		<stop  offset="0.3607" style="stop-color:#B21F24"/>
		<stop  offset="0.5738" style="stop-color:#B21F24"/>
		<stop  offset="1" style="stop-color:#D42F29"/>
	</linearGradient>
	<path fill="url(#SVGID_8_)" d="M408.3,101.5c0,0-8.3-16.6-10.7-18.1c-4.2-2.7-25.4-1.8-39.7-1c-14.3,0.8-22.1-0.2-24.4,9.1
		c-2.3,9.3-10,31.9-10,31.9l4.1-0.7c0,0,6.3-24.5,13.1-33.7c3.4-4.6,27.8-3.5,39.3-3.4c11.6,0.2,15.6-1.1,20.5,6.2
		c1.9,2.8,5.2,10.1,5.2,10.1L408.3,101.5z"/>
	<path fill="#F5F6F6" d="M394.3,56.1c0,0,30,0.5,35.6,0.5c5.6,0,4.5,0.6,4.5,0.6s-0.4,0.6-6.7,0.7C421.4,58,394.3,56.1,394.3,56.1z"
		/>
	<path fill="#6C0D0F" d="M56.5,81.5c-0.2-2.1-0.2-5.8-0.2-6.3c0-0.2-0.1-0.7,0.2-1.2c0.4-0.6,1.2-0.9,2.4-0.9C61.6,73,69,73,69.1,73
		c0.7,0,2.1,0.5,2.1,2l-0.1,6.1c0,0.1,0.1,0.9-0.4,1.6c-0.5,0.6-1.2,0.9-2.2,1c-2.4,0.2-9.2,0.2-9.8,0.2c0,0-0.1,0-0.2,0l0,0
		C58.1,83.9,56.7,83.7,56.5,81.5z M59,74c-1.1,0-1.5,0.3-1.7,0.5c-0.1,0.2-0.1,0.4-0.1,0.4l0,0.1c0,0,0.1,4.1,0.2,6.3
		c0.1,1,0.4,1.5,1,1.5l0.2,0c0.1,0,7.3,0,9.8-0.2c0.7-0.1,1.2-0.3,1.5-0.6c0.3-0.4,0.2-0.8,0.2-0.9l0.1-6.2c0-0.9-1.1-1-1.2-1
		C69,74,61.6,74,59,74z"/>
	
		<linearGradient id="SVGID_9_" gradientUnits="userSpaceOnUse" x1="171.8529" y1="8.2362" x2="282.9831" y2="8.2362" gradientTransform="matrix(-1 0 0 1 446.8664 0)">
		<stop  offset="0" style="stop-color:#FFFFFF"/>
		<stop  offset="1" style="stop-color:#EFECDF"/>
	</linearGradient>
	<path fill="url(#SVGID_9_)" d="M274.9,7c0,0-6.9,3.6-17.2,3.4c-10.3-0.2-48.2,0.4-59.5,0.7c-11.2,0.3-34.3,3-34.3,3
		s7.2-7.6,25.5-10.5c18.3-2.8,65.9-0.6,72.3-0.1C269.9,4.3,276.1,5.8,274.9,7z"/>
	<path fill="#4A585E" d="M407.6,105.7c-1.1,2.1-0.5,10.2-0.5,10.2l-0.4,0l-1.1-13.5l8.7,0C414.2,102.4,408.7,103.5,407.6,105.7z"/>
	<polygon fill="#ABBBC5" points="176.6,114.5 325,114.3 324,118.9 173.9,118.9 	"/>
	<path fill="#6C808B" d="M433.9,93.2c0.6,0,1.1-0.3,1.4-0.6c-1.1,2.3-1.7,3.4-1.9,3.7c-0.1,0-0.3,0-0.4,0l-3.6-1.3
		c0,0,1-1.1,3.2-5.9c2-4.4,3.6-8.1,4.6-10.4c0.7-1.7,3.6-1.5,4.8-1.7c0.6-0.1,0.4,0.7-0.3,2.4c0-0.5-0.1-0.8-0.7-0.8
		c-1.9,0-2.1-0.2-3.1,1.2c-1,1.5-3.9,8.5-4.7,10.3C432.3,91.8,432.9,93.2,433.9,93.2z"/>
	<path fill="#F5F6F6" d="M439.1,82.3c0,0-4.7,7.1-5.1,8.2c-0.4,1.1,0.1,1.6,1,1C435.8,90.9,439.1,82.3,439.1,82.3z"/>
	<path fill="#6C808B" d="M432.9,94.5l-12.1,0.1c0,0-3.8-0.2-3.9,2.9c-0.1,2.3,2.9,2.9,5.1,2.8l9-0.1c0,0,4.8,0.1,4.8-2.8
		C435.8,94.5,432.9,94.5,432.9,94.5z"/>
	<path fill="#ABBBC5" d="M421.7,94.6c0,0-2.2,0.2-2.4,1.2c-0.1,0.9-0.4,2.3,2.3,2.6c1.6,0.2,7.9,0.1,9.4,0.2
		c1.5,0.1,3.6-0.2,3.8-1.8c0.2-1.7-1.3-2.2-2-2.2C432.2,94.4,421.7,94.6,421.7,94.6z"/>
	<path fill="#F5F6F6" d="M423.3,95c0,0,8-0.4,9.8-0.1c1.8,0.3,1.5,1.9,0.2,2c-1.3,0.1-3.4-0.1-6.1-0.7C424.6,95.6,423.3,95,423.3,95
		z"/>
	<path fill="#4F5E65" d="M442.2,77.8c0,0,0-0.7-1.3-0.4c-1.3,0.3-3.3,1.1-3.9,2.4c-0.6,1.3-1.3,2.2-1.3,2.2s1.5-3.5,1.7-3.9
		c0.2-0.4,1.1-0.7,2.4-1.1c1.3-0.3,2.5-0.3,2.5,0C442.3,77.3,442.2,77.8,442.2,77.8z"/>
	<path fill="#ABBBC5" d="M437.5,77.8l5.8-1.2c0,0,1.3,0,1.5-2.2c0.2-2.2,1.1-17.7,1.1-17.7s0.4-0.9-0.9-1.1c-1.3-0.2-7-0.6-7-0.6
		L437.5,77.8z"/>
	<path fill="#F5F6F6" d="M439.4,56.5c0,0,5.4-0.3,5.4,0.2c0,0.6-1.1,4.6-3.3,4.3C439.3,60.8,438.5,56.9,439.4,56.5z"/>
	<path fill="#6C808B" d="M437.9,60c0,0-0.7,18.1-0.5,17.9c0.2-0.2,5.9-1.2,6.6-1.6c1.2-0.8,1.4-10.9,1.4-10.9s-0.9,2.1-2.5,2.9
		c-2,0.9-3.2-2.2-3.7-4C438.6,62,437.9,60,437.9,60z"/>
	<path fill="#6C0D0F" d="M320.2,43.1l0.9,0.3c-0.1,0.2-1.4,4.8-8.7,8.4c-5.3,2.6-6.8,2.7-7,2.7l0-1c0,0,1.5-0.1,6.6-2.6
		C318.9,47.5,320.2,43.2,320.2,43.1z"/>
	<path fill="#D66E27" d="M15.6,76.6c0,0,3-4.8,5.4-6c2.4-1.3,2.7-1.3,2.7-1.3l-1.2,2c0,0-2.6,1.7-4,3.7
		C17.1,76.9,15.6,76.6,15.6,76.6z"/>
	<path fill="#6C808B" d="M18.7,89.8c0.2-0.5,1.4-4.7,2.8-9.3l4.6-8.6l-5.8,20.3l-4.9,3.5l-4-3.9l0.6-3l0.6,1.8h4.7
		C17.3,90.6,18.2,90.8,18.7,89.8z"/>
	<path fill="#D8E6EE" d="M23.2,75.6l2.2-7.3c0,0,0.9-0.6,1,0c0,0.6-0.4,2.5-1,3.2C24.7,72.3,23.2,75.6,23.2,75.6z"/>
	<path fill="#E8B763" d="M19.7,71.9c0.1-0.1,2.6-2.1,2.8-1.8c0.2,0.3-0.2,1.2-0.9,1.5c-0.7,0.3-3,1.5-3,1.5L19.7,71.9z"/>
	<g>
		
			<linearGradient id="SVGID_10_" gradientUnits="userSpaceOnUse" x1="310.6477" y1="9.5246" x2="310.6477" y2="56.0974" gradientTransform="matrix(-1 0 0 1 446.8664 0)">
			<stop  offset="0.123" style="stop-color:#EFECDF"/>
			<stop  offset="0.4426" style="stop-color:#CAC3B5"/>
		</linearGradient>
		<path fill="url(#SVGID_10_)" d="M106.8,54.7c1.4-0.7,2.9-1.9,4.1-3.8c2.5-3.9,12.9-19.6,13.6-22.3c0.2-0.7,0.1-1.8-0.2-3
			c-0.1-3-1.3-5.5-2.1-7c4-3.4,9.5-6.7,15-9.1c0.6,1.4,2.2,3.7,6,5.3c8.6,3.8,22.4,1.2,23.5,1c-0.7,0.1-6.4,1.3-11.3,3.9
			c-0.5,0.3-1.2,0.8-2.1,1.6c-7,3.6-12.5,7.9-15.6,12.8c-4.3,6.6-12.6,18.1-13.1,19.2c-0.2,0.5-0.6,1.2-1.3,1.5
			c-0.5,0.3-2.6,1-2.9,1c-2.3,0.2-11.2,0.3-14.5,0.2C106,55.9,106.3,55.4,106.8,54.7z"/>
		
			<linearGradient id="SVGID_11_" gradientUnits="userSpaceOnUse" x1="331.1555" y1="25.6095" x2="331.1555" y2="54.6886" gradientTransform="matrix(-1 0 0 1 446.8664 0)">
			<stop  offset="0.123" style="stop-color:#EFECDF"/>
			<stop  offset="0.4426" style="stop-color:#CAC3B5"/>
		</linearGradient>
		<path fill="url(#SVGID_11_)" d="M124.3,25.6c0.3,1.2,0.4,2.3,0.2,3c-0.7,2.7-11.1,18.4-13.6,22.3c-1.2,1.9-2.7,3.1-4.1,3.8
			c3.3-4.5,12.9-17.5,16.1-23.4C124,29.3,124.4,27.4,124.3,25.6z"/>
		
			<linearGradient id="SVGID_12_" gradientUnits="userSpaceOnUse" x1="280.1799" y1="15.8478" x2="280.1799" y2="15.8625" gradientTransform="matrix(-1 0 0 1 446.8664 0)">
			<stop  offset="0.1557" style="stop-color:#EFECDF"/>
			<stop  offset="0.8934" style="stop-color:#CAC3B5"/>
		</linearGradient>
		<path fill="url(#SVGID_12_)" d="M166.6,15.9C166.7,15.9,166.7,15.8,166.6,15.9C166.7,15.8,166.7,15.9,166.6,15.9z"/>
	</g>
	
		<linearGradient id="SVGID_13_" gradientUnits="userSpaceOnUse" x1="125.5603" y1="122.3245" x2="285.6745" y2="122.3245" gradientTransform="matrix(-1 0 0 1 446.8664 0)">
		<stop  offset="0" style="stop-color:#B21F24"/>
		<stop  offset="0.4713" style="stop-color:#D42F29"/>
		<stop  offset="1" style="stop-color:#B21F24"/>
	</linearGradient>
	<path fill="url(#SVGID_13_)" d="M320.5,123.8c0,0-49.1,0.1-85.4,0.2c-36.3,0.1-73.9-0.1-73.9-0.1l5.2-2.9c0,0,59.7-0.2,78.8-0.5
		c19-0.2,76.2,0.2,76.2,0.2L320.5,123.8z"/>
	<path fill="#D8E6EE" d="M16.3,107.9c0,0-7-0.3-10-0.1c-3,0.3-4.3,0.6-3.2,1.6c1.1,0.9,5.9,1,9,0.9c3.2-0.1,8.4-0.9,8.4-0.9
		S19.4,108,16.3,107.9z"/>
	<path fill="#ABBBC5" d="M24.8,119.4c0,0-9.5-0.1-12.4-0.2c-2.9-0.1-5.1-3.7-5.1-3.7s4.3,1.3,8,1.3s11.8-0.4,11.8-0.4
		S26.9,119.4,24.8,119.4z"/>
	<path fill="#ABBBC5" d="M92.5,50c0.4-0.4,0.7-0.9,1.1-1.3c0.4-0.4,0.6-0.2,0.6-0.2s0,0,0.1,0.1c-0.4,0.4-0.7,0.7-1,1
		c0.2,0.2,0.6,0.4,1,0.7l8.1,4.6c0,0,1.4,0.1,3.3,0.2c1.7-0.6,3.6-1.8,5.2-4.2c2.5-3.9,12.9-19.6,13.6-22.3c0.6-2.3-1.8-8.3-2.4-9.9
		c-0.4,0.3-0.7,0.6-1,0.9c0,0,0,0,0,0s-0.1-0.2,0-0.4c0.2-0.2,0.5-0.5,1-0.9c0.4-0.3,0.7-0.5,0.9-0.5c0.2-0.1,0.3,0.1,0.3,0.1
		s1.6,4.5,2.3,6.8c0.7,2.3,0.5,3.8-1.1,6.8c-1.5,2.9-13.7,21.2-14.7,22.5c-1.6,2-4.7,2.7-7.6,1.9c-1.7-0.5-3.8-1.3-6.3-2.8
		c-2.5-1.5-3.4-2.5-3.4-2.5S92.1,50.4,92.5,50z"/>
	<path fill="#ABBBC5" d="M124.5,28.6c-0.7,2.7-11.1,18.4-13.6,22.3c-1.6,2.4-3.5,3.7-5.2,4.2c-2-0.1-3.3-0.2-3.3-0.2l-8.1-4.6
		c-0.4-0.3-0.8-0.5-1-0.7c0.3-0.3,0.6-0.7,1-1c0.5,0.4,3.6,2.7,6.8,4.2c2.5,1.2,5.8,1.4,7.2-0.6c1.5-2,14.1-21.3,14.6-22.5
		c0.5-1.2,0.7-2.2-0.2-5.6c-0.9-3.2-1.5-4.3-1.6-4.4c0.3-0.3,0.7-0.6,1-0.9C122.7,20.3,125.1,26.3,124.5,28.6z"/>
	<path fill="#ABBBC5" d="M123.8,52.5c0.4-0.7,12.7-18.7,16.1-22.8c3.4-4.1,10.9-9.6,20.7-12.7c9.8-3.1,20.5-3.8,26.5-3.8
		c3,0,20.3,0,38.3-0.4c18.1-0.4,33.7-0.5,39.2-0.9c3.6-0.3,8.3-1,11-3c2.8-2,2.8-2,2.8-2l2.1,1.1c0,0-2.4,2.1-6.1,4
		c-3.2,1.7-3.9,1.9-16.7,2.4c-12.9,0.5-44.2,0.6-60.3,0.6s-22.3,0.5-30.8,2.6c-8.5,2.1-17.5,5.3-24.2,11.9
		c-4.5,4.5-15.2,21.6-15.2,21.6s-1.5,2.2-2.7,2.9C123.6,54.6,123,53.9,123.8,52.5z"/>
	<path fill="#859299" d="M267,13.1c7.3-0.8,12.1-4.9,12.7-5.4l0.7,0.4c0,0-2.4,2.1-6.1,4c-3.2,1.7-3.9,1.9-16.7,2.4
		c-10.3,0.4-32.4,0.6-49.1,0.6c-1.6,0-2.6,0-2.6,0S259.1,14,267,13.1z"/>
	<path fill="#859299" d="M129.8,45.6c13-23.9,26-27,37.1-29.3c10.7-2.2,35.9-1.4,37.9-1.3c-2.7,0-5.2,0-7.5,0
		c-16.1,0-22.3,0.5-30.8,2.6c-8.5,2.1-17.5,5.3-24.2,11.9c-4.5,4.5-15.2,21.6-15.2,21.6s-0.6,0.8-1.3,1.7
		C126.9,50.9,128.2,48.5,129.8,45.6z"/>
	<path fill="#E9EDEF" d="M276.2,9.1c0,0-1.7,2.4-7.3,3.4c-5.6,1-32.7,1.1-33,1.1c-0.3,0,28.2-0.9,32.5-1.8
		C272.6,11,276.2,9.1,276.2,9.1z"/>
	<path fill="#882E1B" d="M24.3,70.6c0,0-3.3,5-5.5,8.9c-2.2,3.9-4,7.2-4,7.2l-1.4-3.1L12,88.8l0.4,1.9c0,0,4.9,0,5.4-0.1
		c0.5-0.1,0.9-0.4,1.2-1.7C19.4,87.6,24.3,70.6,24.3,70.6z"/>
	<path fill="#882E1B" d="M14.6,78.5l-1.1,4.8l-1-0.2c0,0-0.3-1.5-0.3-2.7C12.4,80.6,13.8,80.5,14.6,78.5z"/>
	<path fill="#D66E27" d="M14.4,77.4l-1.7,0c0,0-0.3,1-0.2,1.6c0,0.6,0.6,0.3,1.1,0C13.9,78.7,14.4,77.4,14.4,77.4z"/>
	<path fill="#859299" d="M121,19.6c0,0-0.1-0.2,0-0.4c0.1-0.1,0.1-0.1,0.2-0.2c0,0.1,0.1,0.2,0.2,0.3
		C121.3,19.4,121.1,19.5,121,19.6C121,19.7,121,19.6,121,19.6z"/>
	<path fill="#859299" d="M113.8,45c-2.1,2.9-4.7,7.6-5.8,8.2c-1.1,0.6-3.1,0.4-3.1,0.4c1.4,0,2.6-0.5,3.3-1.5
		c1.5-2,14.1-21.3,14.6-22.5c0.5-1.2,0.7-2.2-0.2-5.6c-0.9-3.2-1.5-4.3-1.6-4.4c0.1-0.1,0.2-0.2,0.4-0.3c0.8,1.8,2.8,6.5,2.8,8.3
		C124.1,29.8,116,42.1,113.8,45z"/>
	<path fill="#E9EDEF" d="M93.3,49.1c0.2-0.6,0.7-0.5,0.7-0.5s0.1,0.1,0.2,0.1c-0.2,0.2-0.4,0.4-0.5,0.6
		C93.4,49.2,93.3,49.1,93.3,49.1z"/>
	<path fill="#E9EDEF" d="M106.3,54c0,0-2.8,0.8-5.6-0.3c-1.8-0.7-5.9-3.5-7.1-4.3c0.2-0.2,0.3-0.4,0.5-0.6c0.8,0.6,4.2,3.1,6.9,4.4
		C102.9,54.1,106.3,54,106.3,54z"/>
	<path fill="#859299" d="M92.5,50c0.1,0,0.3-0.3,0.3-0.3s5.8,4.2,9,5.2c4,1.2,7-0.1,7-0.1s-1.9,1.8-5.2,1.3
		c-3.3-0.5-6.2-1.9-8.1-3.1c-1.8-1.2-3.2-2.5-3.2-2.5S92.4,50,92.5,50z"/>
	<path fill="#E9EDEF" d="M122.3,18.4c0,0,0.5-0.5,0.6-0.3c0,0,1.7,4.9,2.1,5.9c0.3,1.1,0.6,2.8,0.2,3.9c-0.4,1.1-0.4,1.1-0.4,1.1
		s0.6-1.8-0.1-4.5C123.9,21.9,122.3,18.4,122.3,18.4z"/>
	<g>
		<circle fill="#808D94" cx="222.3" cy="59.7" r="2.6"/>
	</g>
	<g>
		<path fill="#ABBBC5" d="M221.2,59.6c0,0.6,0.5,1.1,1.1,1.1h14.2c0.6,0,1.1-0.5,1.1-1.1l0,0c0-0.6-0.5-1.1-1.1-1.1h-14.2
			C221.7,58.5,221.2,59,221.2,59.6L221.2,59.6z"/>
	</g>
	<g>
		<circle fill="#808D94" cx="144" cy="61.6" r="2.6"/>
	</g>
	<g>
		<path fill="#ABBBC5" d="M142.9,61.5c0,0.6,0.5,1.1,1.1,1.1h14.2c0.6,0,1.1-0.5,1.1-1.1l0,0c0-0.6-0.5-1.1-1.1-1.1H144
			C143.4,60.4,142.9,60.9,142.9,61.5L142.9,61.5z"/>
	</g>
	<path fill="#6C0D0F" d="M136.3,38.7c0,0.1,3.3,12.7,3.6,24.5c0.3,10.6,1,22.6,1.1,24.9c2,0.2,10.4,1.5,13.9,5.1
		c6.7,7,6.3,20.8,6.2,23.7l52.4-0.5c0,0,1.6,0.1,2.7-0.9c0.7-0.7,1.1-1.7,1.1-3.1c0-4.1-0.1-59.7-0.1-59.7l-3.6-37.8l1-0.1l3.6,37.8
		c0,0,0.1,55.6,0.1,59.7c0,1.7-0.5,3-1.4,3.9c-1.4,1.3-3.3,1.2-3.4,1.2L160,118l0-0.5c0-0.2,1.2-16.1-5.9-23.5
		c-3.7-3.8-13.6-4.9-13.7-4.9l-0.4,0l0-0.4c0-0.1-0.8-13.6-1.1-25.4c-0.3-11.7-3.5-24.2-3.6-24.3L136.3,38.7z"/>
	<polygon fill="#859299" points="324.3,117.4 324,118.9 173.9,118.9 174.9,117.2 324.1,117.2 	"/>
	<polygon fill="#D8E6EE" points="176,115.4 176.7,114.5 325,114.3 324.7,115.6 175.9,115.6 	"/>
	<polygon fill="#4F585A" points="324.4,116.9 175.2,116.9 175.7,116.1 324.6,116.1 	"/>
	<path fill="#ABBBC5" d="M182,106.1h-14.4c0,0-3.8,5.2-5.8,8.1c-1.2,1.7-1.2,2.1-0.9,3.7c0.1,0.8,0.8,1.2,2.1,1.2
		c5.6,0,10.9,0,10.9,0L182,106.1z"/>
	<polygon fill="#859299" points="178.7,107.9 168,107.8 161.6,116.7 173.2,116.6 	"/>
	<polygon fill="#D8E6EE" points="167.6,106.2 181.8,106.2 176.8,114.2 180.5,107 167.2,106.9 	"/>
	<polygon fill="#626D71" points="167.8,108.2 168,107.8 178.6,107.9 173.2,116.6 172.9,116.6 177.1,108.9 	"/>
</g>
</svg>
