<?xml version="1.0" encoding="utf-8"?>
<!-- Generator: Adobe Illustrator 18.1.1, SVG Export Plug-In . SVG Version: 6.00 Build 0)  -->
<svg version="1.1" id="Layer_1" xmlns="http://www.w3.org/2000/svg" xmlns:xlink="http://www.w3.org/1999/xlink" x="0px" y="0px"
	 viewBox="0 0 421.6 141.5" enable-background="new 0 0 421.6 141.5" xml:space="preserve">
<polygon opacity="0.3" fill="#4888C8" enable-background="new    " points="304.7,35.7 305.2,52.3 107.1,49.7 109.4,12.8 
	278.6,11.4 "/>
<ellipse opacity="0.6" fill="#857C6F" enable-background="new    " cx="214.6" cy="122.4" rx="206.7" ry="19.2"/>
<g>
	<path fill="#D7B14D" d="M17.7,95.6c2,0.5,11.3,3,11.3,3s30.5,1.8,37.9,2.6c7.4,0.8,8.7-0.4,10.3-3.7c1.7-3.3,4.7-7.1,20.9-7.6
		c16.1-0.5,23.2,1.2,27.9,3.4c4.7,2.3,7.8,12.3,7.8,12.3s3.4,0,9.1,0.1c5.7,0.1,14.4,0,20.3,0c5.9,0,140.7,0.9,148.5,0.5
		c7.8-0.5,8.8-3.8,9.5-7.8c0.7-4,4.9-15,6.9-19.4c2-4.4,9-7.6,19.9-8.7c10.9-1.1,21.5,1.8,25.4,4.3c3.9,2.5,5.9,11.8,7.8,15.6
		c1.9,3.8,5.5,5.6,5.5,5.6s3.4-1.5,7.6-3.3c4.2-1.8,11.4-1.4,11.4-1.4l1.5-13.1c0,0,4.4-23.2-4.6-29.8c-9-6.6-38.1-6.5-56.7-7.1
		c-16.4-0.5-40.1-1.2-40.1-1.2s-1-1-2.6-2.6c-2.6,1-6.9,2.6-7.8,2.3c-1.3-0.5-19.6-18-21.4-21.3c-1.4-2.4,1.2-5.7,2.6-7.1
		c-3-2.8-5.2-4.8-5.9-5.1c-3.1-1.7-10.4-2.5-22.4-3.6c-12-1.1-36.1-2.4-65.1-1.9c-29,0.5-53.2,4.4-67.7,7.6
		c-8,1.8-13.9,4.5-18.7,7.4c0.3,0.4,1.6,2.4,0.5,4.3C96.2,22,80.2,36.6,78.8,36.8C77.5,37,74.5,34,74.5,34l-3.1,3.1
		c0,0-32,2-46.4,16c-8.6,8.4-8.4,27.8-8.3,31.7C16.8,88.8,15.7,95.1,17.7,95.6z M222.2,32.1l0.7-14.1c0,0,0.1-3.6,4.9-3.6l26.3,2.2
		c0,0,4.5,0.1,9.6,4.5c5.1,4.3,11.9,12.5,11.9,12.5s3,3.4-0.5,5.3c-2.2,1.3-7.4,0.8-13.2,0.8c-5.8,0-32.5-0.3-32.5-0.3
		s-4.1,0.2-5.9-1.5C221.6,36.2,222.2,32.1,222.2,32.1z M162,35.8c0,0,4.3-11,6.4-15.1c2.1-4.1,4.7-4,6.2-4.3c1.4-0.2,6.9-0.5,17.3-1
		c10.4-0.5,16.9-0.2,16.9-0.2c4.7,0.1,4.4,2.8,4.4,2.8l0.1,17c0,0,0.2,2-0.7,3.5c-1,1.5-3.3,1.4-3.3,1.4s-42.5,0.6-43.2,0.6
		c-0.7,0-2.7,0.2-3.8-0.8C160.9,38.5,162,35.8,162,35.8z M113.3,35.4c0.7-1.3,4.8-4.7,17.6-10.8c11.8-5.5,22.1-6.2,22.1-6.2
		c3.7-0.5,2.3,4.1,2.3,4.1s-5,12.1-6.4,14.8c-1.3,2.8-4.4,2.8-4.4,2.8s-18.3,0.6-23.2,0.7c-4.9,0.1-7-0.5-8.2-1.5
		C112.1,38.4,112.6,36.7,113.3,35.4z"/>
	<path fill="#6B181F" d="M71.1,37.2c0.8,0.8,1.5,1.6,5.1,3.1c6.4,2.7,10.9,4,27.3,5.2s187.3-2.1,187.3-2.1l1.7,1.8
		c0,0,51.3-2.4,83.9,0.3c28.6,2.4,26.2,11.2,30.6,16.4c3-8-1.6-13-3-14.1c-9-6.6-39-7.1-57.6-7.7c-16.4-0.5-38.8-1.2-38.8-1.2
		s-1-0.9-2.5-2.4c-1.3,0.6-8.4,3.4-9.6,3c-1.3-0.5-19.6-18-21.4-21.3c-1.8-3.2,3.2-7.7,3.3-7.8c-2.7-2.4-4.7-4.1-5.3-4.4
		c-3.1-1.7-11.7-2.5-23.7-3.5c-12-1.1-36.1-2.4-65.1-1.9c-29,0.5-53.2,4.4-67.7,7.6c-8,1.8-13.9,4.5-18.7,7.4
		c0.3,0.4,1.6,2.4,0.5,4.3C96.2,22,80.2,36.6,78.8,36.8C77.5,37,74.5,34,74.5,34l-3.1,3.1C71.4,37.1,71.3,37.2,71.1,37.2z
		 M222.2,32.1l0.7-14.1c0,0,0.1-3.6,4.9-3.6l26.3,2.2c0,0,4.5,0.1,9.6,4.5c5.1,4.3,11.9,12.5,11.9,12.5s3,3.4-0.5,5.3
		c-2.2,1.3-7.4,0.8-13.2,0.8c-5.8,0-32.5-0.3-32.5-0.3s-4.1,0.2-5.9-1.5C221.6,36.2,222.2,32.1,222.2,32.1z M162,35.8
		c0,0,4.3-11,6.4-15.1c2.1-4.1,4.7-4,6.2-4.3c1.4-0.2,6.9-0.5,17.3-1c10.4-0.5,16.9-0.2,16.9-0.2c4.7,0.1,4.4,2.8,4.4,2.8l0.1,17
		c0,0,0.2,2-0.7,3.5c-1,1.5-3.3,1.4-3.3,1.4s-42.5,0.6-43.2,0.6c-0.7,0-2.7,0.2-3.8-0.8C160.9,38.5,162,35.8,162,35.8z M113.3,35.4
		c0.7-1.3,4.8-4.7,17.6-10.8c11.8-5.5,22.1-6.2,22.1-6.2c3.7-0.5,2.3,4.1,2.3,4.1s-5,12.1-6.4,14.8c-1.3,2.8-4.4,2.8-4.4,2.8
		s-18.3,0.6-23.2,0.7c-4.9,0.1-7-0.5-8.2-1.5C112.1,38.4,112.6,36.7,113.3,35.4z"/>
	<g>
		<circle fill="#181717" cx="103.3" cy="100.3" r="28.3"/>
		<g>
			<path fill="#0D0D0B" d="M75.6,105.4c0,0.1,0,0.2,0,0.2S75.6,105.5,75.6,105.4z"/>
			<path fill="#0D0D0B" d="M75.1,100.3c0-2.2,0.3-4.3,0.7-6.3c2.3-3.6,9.5-7.3,21.6-8.3c14-1.2,15.6-0.4,21.5,0.6
				c3.9,0.6,6.9,0.1,9.3,0.5c2.2,4,3.5,8.6,3.5,13.5c0,1.6-0.1,3.1-0.4,4.7c-0.3-0.7-2.3-5.4-6.9-7.9c-4.9-2.6-13.4-3.1-22.9-2.6
				c-9.5,0.5-20.7,3.6-23.5,6.6c-2.3,2.5-2.4,3.8-2.3,4.2c-0.1-0.3-0.2-1.1-0.4-2.1C75.1,102.3,75.1,101.3,75.1,100.3z"/>
		</g>
		<circle fill="#A9A89E" cx="103.3" cy="100.3" r="16.6"/>
		<path fill="#8F8E86" d="M90.1,96.6L87,96.9c1-4.9,4.2-9,8.5-11.3c4.6-1.3,9.6-1.5,11.4-1.5c0.1,0,0.2,0,0.3,0
			c5.8,1.4,10.4,5.8,12,11.5c-0.6,0.1-1.5,0.3-2.2,0.4c-1,0.2-1,0.2-1,0.2l-12.6,2.1L90.1,96.6z"/>
		<circle fill="#6C7479" cx="103.3" cy="100.3" r="13.5"/>
		<path fill="#565E61" d="M116.2,96.3C116.1,96.3,116.1,96.3,116.2,96.3l-12.6,2.2l-13.3-1.8c1.6-5.7,6.8-9.9,13-9.9
			C109.4,86.8,114.5,90.8,116.2,96.3z"/>
		<path fill="#5A6165" d="M103.6,100.5c0,0,11.3,2.8,9.6,6.9c-1.7,4.1-7.6,6-10.2,4.7c-2.2-1-2.7-2.1-1.8-5.6
			C102,103.7,103.6,100.5,103.6,100.5z"/>
		<path fill="#3E4344" d="M103.8,100.4c0,0,11.5-1.5,11.4,2.9c-0.1,4.5-4.9,8.3-7.7,8.1c-2.4-0.2-3.3-1-3.7-4.5
			C103.5,104,103.8,100.4,103.8,100.4z"/>
	</g>
	<path fill="#0F0D09" d="M313.8,102.9l76.6-2c0,0-4.8-15.8-5.3-18.7c-0.5-2.8,0.2-15-18.9-15.3c-19.1-0.4-36.9-0.4-40.6,4.6
		C321.8,76.5,313.8,102.9,313.8,102.9z"/>
	<path fill="#D7B14D" d="M26.1,82.5c0.7-5,0.2-13.5,3.3-17.8s9.3-7.6,23-8.5c13.8-1,71.9-2.8,94.7-3.6c22.8-0.7,140.6-0.7,146.3-0.7
		c5.7,0,51.5,0.3,68.3,0.7c18,0.5,37.3,2.3,41.6,3.3c4.3,1,4.2,3.9,4.2,3.9l-0.4,13.8c0,0-0.5,3.8-2.3,5.2c-1.8,1.4-1.5,3-1.5,3.9
		c0,0.8,0,6.7,0,8.3c-3.6,0.3-7.3,0.8-9,1.6c-4.2,1.8-7.6,3.3-7.6,3.3s-3.6-1.8-5.5-5.6c-1.9-3.8-3.9-13.1-7.8-15.6
		c-3.9-2.5-14.5-5.3-25.4-4.3c-10.9,1.1-17.9,4.3-19.9,8.7c-2,4.4-6.2,15.3-6.9,19.4c-0.7,4-1.7,7.4-9.5,7.8
		c-7.8,0.5-142.6-0.5-148.5-0.5c-5.9,0-14.6,0.1-20.3,0c-5.7-0.1-9.1-0.1-9.1-0.1s-3.1-10.1-7.8-12.3c-4.7-2.3-11.8-3.9-27.9-3.4
		c-16.1,0.5-19.2,4.3-20.9,7.6c-1.7,3.3-3,4.5-10.3,3.7c-7.4-0.8-37.9-2.6-37.9-2.6s-2.1-0.6-4.5-1.2C24.3,93.3,25.6,86.5,26.1,82.5
		z"/>
	<path fill="#5D161B" d="M311.8,106.2c-7.8,0.5-142.6-0.5-148.5-0.5c-5.9,0-14.6,0.1-20.3,0c-5.7-0.1-9.1-0.1-9.1-0.1
		s-3.1-10.1-7.8-12.3c-4.7-2.3-11.8-3.9-27.9-3.4c-16.1,0.5-19.2,4.3-20.9,7.6c-1.7,3.3-3,4.5-10.3,3.7c-7.4-0.8-37.9-2.6-37.9-2.6
		s-7.6-0.8-10-1.5c-0.2-4.1,0.6-8.1,1.7-11.9c1.1-3.9,3.5-5.7,5.8-6.3c3.9,0,122.4-0.4,162.8-0.2c41.1,0.2,138.9,0.4,138.9,0.4
		c-2,4.4-6.2,15.3-6.9,19.4C320.6,102.4,319.6,105.8,311.8,106.2z"/>
	<path fill="#6F7370" d="M126,93.3c-1.6-1.1-3.1-1.3-5.1-1.8c1.3-0.5,4.9-2.1,7.2-5c2.8-3.6,0.5-7.9,0.5-7.9h0.4
		c0,0,10.7,0.2,11,0.2c0.2,0,3.4,0.9,3.9,1c-0.7,4.7-2.3,8.7-3.2,11.9c-2.4,8.1-6.2,14-6.2,14s-0.2,0-0.7,0
		c-0.2-0.6-2.4-7.4-5.8-10.8C127.4,94.2,126.6,93.8,126,93.3z"/>
	<path fill="#6F7370" d="M409.3,91.2c0,0-0.5-4.2,3.3-5.2c3.8-1,8-1.7,8.7-0.1c0.9,2.1-0.9,3.7-2.3,6.5c-2,4.2-0.6,6.9-2.3,9.6
		c-1.7,2.6-3.6,2.2-5,2.2c-1.4,0-1.7-2.3-1.7-2.3L409.3,91.2z"/>
	<path fill="#6F7370" d="M12.8,87.1c0,0,0-4.8-0.4-5.1C12,81.8,6.6,80,4,79.7c-2.6-0.3-4.5,0.8-3.9,3.6c0.6,2.9,3,3.4,3.5,6.3
		C4,92.6,3.1,98.1,6.5,99c3.4,1,4.8-0.4,5.2-0.9C12,97.7,12.8,87.1,12.8,87.1z"/>
	<path fill="#6F7370" d="M220.9,37.9c1.7,3.3,6,3.1,6,3.1s39.9,0.3,43.7,0.3c3.8,0,7.4,0.3,8.4-3.3c0.6-2.1-0.6-3.7-1.5-4.8
		c-0.5-0.7-1-1.4-1-1.4s-6.4-7.5-11.3-12.3c-4.8-4.8-9.9-4.7-9.9-4.7L227,12.2c-6.4-0.5-6.4,5.6-6.4,5.6l-0.1,12.8
		C220.4,30.6,220,36.2,220.9,37.9z M222.2,32.1l0.7-14.1c0,0,0.1-3.6,4.9-3.6l26.3,2.2c0,0,4.5,0.1,9.6,4.5
		c5.1,4.3,11.9,12.5,11.9,12.5s3,3.4-0.5,5.3c-2.2,1.3-7.4,0.8-13.2,0.8c-5.8,0-32.5-0.3-32.5-0.3s-4.1,0.2-5.9-1.5
		C221.6,36.2,222.2,32.1,222.2,32.1z"/>
	<path fill="#6F7370" d="M159,39.9c0.6,2.4,3.5,2.5,9.5,2.3c5.9-0.2,40.2-0.3,41.8-0.4c1.5,0,5,0.2,5.1-2.9
		c0.1-4.1,0.1-22.6,0.1-22.6s-0.1-3-3.9-3.6c0,0-7.2,0-17.6,0.1c-4.7,0-9.1,0.4-13.1,0.6c-4.9,0.2-8.9,0.8-10.1,1.3
		c-2.2,0.9-5,5.4-7.2,11.1C161.2,31.6,158.2,36.9,159,39.9z M162,35.8c0,0,4.3-11,6.4-15.1c2.1-4.1,4.7-4,6.2-4.3
		c1.4-0.2,6.9-0.5,17.3-1c10.4-0.5,16.9-0.2,16.9-0.2c4.7,0.1,4.4,2.8,4.4,2.8l0.1,17c0,0,0.2,2-0.7,3.5c-1,1.5-3.3,1.4-3.3,1.4
		s-42.5,0.6-43.2,0.6c-0.7,0-2.7,0.2-3.8-0.8C160.9,38.5,162,35.8,162,35.8z"/>
	<path fill="#6F7370" d="M112.8,41.5c2.1,1.2,8,1.2,12,1.2c4-0.1,19.1-0.1,19.3-0.1c0.3,0,4.4,0.4,6.3-3.1c2-3.5,7.4-16.7,7.4-16.7
		s1.9-3.7-0.1-5.6c-1.7-1.6-4.5-0.9-4.5-0.9s-9.7,1-21.7,5.4c-12,4.5-18.1,9.8-19.8,12.3C110,36.5,110.1,39.9,112.8,41.5z
		 M113.3,35.4c0.7-1.3,4.8-4.7,17.6-10.8c11.8-5.5,22.1-6.2,22.1-6.2c3.7-0.5,2.3,4.1,2.3,4.1s-5,12.1-6.4,14.8
		c-1.3,2.8-4.4,2.8-4.4,2.8s-18.3,0.6-23.2,0.7c-4.9,0.1-7-0.5-8.2-1.5C112.1,38.4,112.6,36.7,113.3,35.4z"/>
	<polygon fill="#6F7370" points="141.1,77.1 329,77.6 328,79.8 327.3,81.2 143.9,79.8 	"/>
	<polygon fill="#3A3D3B" points="152.6,105.9 155.1,109 307.1,107.7 310.3,106.1 	"/>
	<polygon fill="#6F7370" points="143.7,80.7 26.5,80.4 26.5,77.6 144.2,77 	"/>
	<path fill="none" d="M122.4,53.5c0,0,15.4,1.4,19.8,11.2c4.8,10.8,0.3,21.1-1.4,26.9c-2.4,8.1-6.2,14-6.2,14"/>
	<path fill="#1D170F" d="M165.6,11.6l0,0.7c-37,1.4-50.2,13.6-50.3,13.7l-0.5-0.5C115,25.4,128.2,13,165.6,11.6z"/>
	<path fill="#6F7370" d="M24.2,87.7c8.5,0.3,17.1,0.4,20.6,1.9c3.5,1.4,3.5,3.8,2.9,5.2c-0.6,1.3-2.1,2.7-8.4,3.1
		c-6.2,0.4-19.4-0.1-24.3-0.4c-4.9-0.3-6.2-0.2-6.5-0.3c-0.3-0.1-1.5-1.6-1.9-4.7c-0.2-1.7,0.6-3.1,1.4-4c0.7-0.9,2.2-1.4,6.4-1.2
		C17,87.5,20.5,87.6,24.2,87.7z"/>
	<path fill="#6F7370" d="M410.8,90.3l-16.7,0.7c0,0-7.2-0.1-7.2,4.9c0,5,2.6,5.2,6.3,5.5c3.7,0.2,18.3,0.4,18.3,0.4s4.1-0.4,4.5-3.7
		C416.2,94.5,415.7,90.6,410.8,90.3z"/>
	<path fill="#3A3D3B" d="M129.4,82.9h13.9c-0.1,0.4-0.2,0.7-0.3,1.1h-13.8C129.3,83.6,129.4,83.3,129.4,82.9z"/>
	<path fill="#3A3D3B" d="M128.1,86.5c0.1-0.1,0.2-0.2,0.2-0.3h14.1c-0.1,0.4-0.2,0.7-0.3,1.1h-14.7C127.7,87,127.9,86.7,128.1,86.5z
		"/>
	<path fill="#3A3D3B" d="M124.9,89.3h16.5c-0.1,0.4-0.2,0.7-0.3,1.1h-17.9C123.7,90.1,124.3,89.8,124.9,89.3z"/>
	<path fill="#3A3D3B" d="M140.4,92.6c-0.1,0.4-0.2,0.7-0.3,1.1l-13.5,0c-0.2-0.1-1.3-0.9-1.9-1.1L140.4,92.6z"/>
	<path fill="#3A3D3B" d="M128.9,95.8h10.4c-0.1,0.4-0.3,0.7-0.4,1.1h-9.2C129.4,96.5,129.2,96.1,128.9,95.8z"/>
	<path fill="#3A3D3B" d="M131,99h7c-0.2,0.4-0.3,0.7-0.5,1.1h-5.9C131.4,99.7,131.2,99.3,131,99z"/>
	<path fill="#3A3D3B" d="M132.5,102.1h3.9c-0.2,0.4-0.4,0.7-0.6,1.1H133C132.8,102.9,132.7,102.5,132.5,102.1z"/>
	<path fill="#494D4B" d="M45.4,79.2c1.9,0,220.7,0.4,220.7,0.4l27.2,1.4L26.5,80.4l-0.1-1.5C26.4,78.9,42.8,79.2,45.4,79.2z"/>
	
		<linearGradient id="SVGID_1_" gradientUnits="userSpaceOnUse" x1="17.2085" y1="58.8151" x2="274.1313" y2="58.8151" gradientTransform="matrix(-1 0 0 1 421.6153 0)">
		<stop  offset="0" style="stop-color:#DBB95A"/>
		<stop  offset="1.219539e-002" style="stop-color:#E3C774"/>
		<stop  offset="2.644290e-002" style="stop-color:#EBD589"/>
		<stop  offset="4.278252e-002" style="stop-color:#F1E09C"/>
		<stop  offset="6.180811e-002" style="stop-color:#F6EAAB"/>
		<stop  offset="8.523482e-002" style="stop-color:#FAF1B6"/>
		<stop  offset="0.1179" style="stop-color:#FDF6BD"/>
		<stop  offset="0.2059" style="stop-color:#FEF8BF"/>
		<stop  offset="1" style="stop-color:#D7B14D"/>
	</linearGradient>
	<path fill="url(#SVGID_1_)" d="M147.5,54.2c0,0,153.6-4.9,228.4-0.6c26.7,1.5,28.5,3.8,28.5,3.8v8.3c0,0-15.7-2.2-32.8-3.7
		c-36.1-3.1-223.4-4.6-223.4-4.6L147.5,54.2z"/>
	
		<linearGradient id="SVGID_2_" gradientUnits="userSpaceOnUse" x1="21.4569" y1="48.8509" x2="127.6245" y2="48.8509" gradientTransform="matrix(-1 0 0 1 421.6153 0)">
		<stop  offset="0" style="stop-color:#F0DF96"/>
		<stop  offset="1" style="stop-color:#D7B14D"/>
	</linearGradient>
	<path fill="url(#SVGID_2_)" d="M375.6,45.3c-26.1-1.3-57.8-1-65.5-0.5c-7.7,0.5-16.1,0.7-16.1,0.7l1.9,5.1c0,0,51.2,0,69,0
		c20.9,0,32.1,0.2,35.3,2.7C400.5,53.3,397.3,46.4,375.6,45.3z"/>
	
		<linearGradient id="SVGID_3_" gradientUnits="userSpaceOnUse" x1="148.1333" y1="6.1575" x2="283.8178" y2="6.1575" gradientTransform="matrix(-1 0 0 1 421.6153 0)">
		<stop  offset="0" style="stop-color:#9B3034"/>
		<stop  offset="1" style="stop-color:#6B181F"/>
	</linearGradient>
	<path fill="url(#SVGID_3_)" d="M137.8,4.2c12.8-1.8,28.4-3.4,45.7-3.6c29-0.5,53.1,0.8,65.1,1.9c12,1.1,19.6,1.8,22.6,3.1
		c0.4,0.2,1.4,0.6,2.3,1.4c-0.9,1.7-2.6,4.2-4,4.5c-4.5,1.2-6.7-1.3-17.8-2.3c-11.8-1.1-47.4-3.1-74.3-2c-26.8,1.2-34.9,4-34.9,4
		L137.8,4.2z"/>
	
		<linearGradient id="SVGID_4_" gradientUnits="userSpaceOnUse" x1="277.5366" y1="63.8196" x2="388.5835" y2="63.8196" gradientTransform="matrix(-1 0 0 1 421.6153 0)">
		<stop  offset="0" style="stop-color:#F8ECAC"/>
		<stop  offset="0.1583" style="stop-color:#F8ECAC"/>
		<stop  offset="1" style="stop-color:#D7B14D"/>
	</linearGradient>
	<path fill="url(#SVGID_4_)" d="M33,61.1c0,0,49.9-9.3,85.5-7.6c7,0.3,16.6,2.4,21.4,8c4.8,5.5,4.1,12.8,4.1,12.8
		s-4.2-10.4-13.7-12.7c-8.7-2.1-17.2-3.1-36.1-2.6c-20.1,0.5-58.2,5-58.2,5L33,61.1z"/>
	<path fill="#494D4B" d="M7.9,94.3c0,0,12.1,0.9,19.9,0.6c7.8-0.4,9-1.9,8.2-4c-0.5-1.4-3.6-2.4-5.7-2.9c6.2,0.2,11.8,0.6,14.4,1.7
		c3.5,1.4,3.5,3.8,2.9,5.2c-0.6,1.3-2.1,2.7-8.4,3.1c-6.2,0.4-19.4-0.1-24.3-0.4c-4.9-0.3-5.2-0.2-5.5-0.3C8,96.9,7.3,96.1,6.8,94
		L7.9,94.3z"/>
	<g>
		<circle fill="#181717" cx="352.6" cy="100.3" r="28.3"/>
		<circle fill="#A9A89E" cx="352.6" cy="100.3" r="16.6"/>
		<circle fill="#6C7479" cx="352.6" cy="100.3" r="13.5"/>
		<path fill="#DBD8DB" d="M352.4,99.9c0,0-1.2-4.2-3-7.2c-1.2-2-2.2-3.3-3.9-2.6c-3,1.1-3,4.1-1.1,5.5
			C346.2,96.9,352.4,99.9,352.4,99.9z"/>
		<path fill="#5A6165" d="M352.9,100.5c0,0,11.3,2.8,9.6,6.9c-1.7,4.1-7.6,6-10.2,4.7c-2.2-1-2.7-2.1-1.8-5.6
			C351.4,103.7,352.9,100.5,352.9,100.5z"/>
		<path fill="#FFFFFF" d="M344.9,91.7c0,0,0.7-1.1,1.8-0.4c1.1,0.7,2.8,4.7,2.8,4.7s-2.9-1.7-3.8-2.4
			C344.7,93,344.9,91.7,344.9,91.7z"/>
		<path fill="#3E4344" d="M353.1,100.4c0,0,11.5-1.5,11.4,2.9c-0.1,4.5-4.9,8.3-7.7,8.1c-2.4-0.2-3.3-1-3.7-4.5
			C352.8,104,353.1,100.4,353.1,100.4z"/>
		<path fill="#373738" d="M363.1,76c0,0-10.2-4.6-20.5-0.7c-10.3,3.9-14.5,11.4-16.1,18.5c-1.5,6.5-0.2,9.4-0.2,9.4s1.1-8,5.9-15.9
			C337.4,78.6,353.2,71.1,363.1,76z"/>
	</g>
	
		<linearGradient id="SVGID_5_" gradientUnits="userSpaceOnUse" x1="95.271" y1="78.1954" x2="178.7651" y2="78.1954" gradientTransform="matrix(-1 0 0 1 421.6153 0)">
		<stop  offset="0" style="stop-color:#FEF8BF"/>
		<stop  offset="1" style="stop-color:#D7B14D"/>
	</linearGradient>
	<path fill="url(#SVGID_5_)" d="M242.9,78c0,0,64-0.2,70.4-0.2c7,0,13.1,0.3,13.1,0.3s-4.3,0.5-9.7,0.5
		C311.1,78.6,242.9,78,242.9,78z"/>
	<path fill="#855C4E" d="M264.8,79.6c0,0,40,0.1,46.3,0.1c5.7,0.1,15-0.3,15.7,0.2c0.6,0.5-4,0.9-8.8,0.9
		C313,80.9,264.8,79.6,264.8,79.6z"/>
	
		<linearGradient id="SVGID_6_" gradientUnits="userSpaceOnUse" x1="128.2778" y1="55.0718" x2="397.4819" y2="55.0718" gradientTransform="matrix(-1 0 0 1 421.6153 0)">
		<stop  offset="8.333330e-003" style="stop-color:#D29E37"/>
		<stop  offset="1" style="stop-color:#AC7C3D"/>
	</linearGradient>
	<path fill="url(#SVGID_6_)" d="M292.5,46.2c0,0-129.4,0.8-169.6,1.6c-40.2,0.9-54,1.8-54,1.8s-13.6,0.5-26.3,3.2
		C30,55.5,25,62.3,25,62.3L24.1,64c0,0,9.4-7.2,34.8-9.2c25.5-2,160.8-3.6,160.8-3.6l73.5-0.5L292.5,46.2z"/>
	
		<linearGradient id="SVGID_7_" gradientUnits="userSpaceOnUse" x1="277.2036" y1="77.9732" x2="329.8735" y2="77.9732" gradientTransform="matrix(-1 0 0 1 421.6153 0)">
		<stop  offset="0" style="stop-color:#CBCABD"/>
		<stop  offset="1" style="stop-color:#A6997B"/>
	</linearGradient>
	<path fill="url(#SVGID_7_)" d="M144.4,77.7c0,0-0.6,1-10.2,1c-9.6,0-42.4-0.3-42.4-0.3l52.7-1.1V77.7z"/>
	<path fill="#494D4B" d="M386.8,95.8c0-5,7.2-4.9,7.2-4.9l1,0c0,0,0,0-0.1,0c-1.3,0.9-2.5,4,3.6,4c4.9,0,12.8,0.1,17.3,0.1
		c0.1,1.1,0,2.3-0.2,3.3c-0.7,3.7-4.3,3.3-4.3,3.3s-14.6-0.1-18.3-0.4C389.4,101,386.8,100.8,386.8,95.8z"/>
	
		<linearGradient id="SVGID_8_" gradientUnits="userSpaceOnUse" x1="295.5024" y1="94.2887" x2="354.5093" y2="94.2887" gradientTransform="matrix(-1 0 0 1 421.6153 0)">
		<stop  offset="0" style="stop-color:#6B181F"/>
		<stop  offset="0.3277" style="stop-color:#9B3034"/>
		<stop  offset="0.8319" style="stop-color:#6B181F"/>
	</linearGradient>
	<path fill="url(#SVGID_8_)" d="M120.9,91.5c0,0-26.1-2.9-34.7,0.1c-8.5,3-9,5.3-10,7.6c-1,2.3-4.9,2.4-6.6,2.3
		c-1.8-0.1-2.5-0.8-2.5-0.8s5.7,0.2,6.8-1.9c1.1-2.1,1.8-9.5,14-10.8c17.5-1.9,38.2,0.8,38.2,0.8L120.9,91.5z"/>
	
		<linearGradient id="SVGID_9_" gradientUnits="userSpaceOnUse" x1="18.1587" y1="46.5107" x2="123.3159" y2="46.5107" gradientTransform="matrix(-1 0 0 1 421.6153 0)">
		<stop  offset="0" style="stop-color:#9B3034"/>
		<stop  offset="1" style="stop-color:#6B181F"/>
	</linearGradient>
	<path fill="url(#SVGID_9_)" d="M306.9,39.8c4.6,0.1,26.9,0.2,41.3,0.6c18.5,0.6,39,2.8,46.1,4.7c1.7,0.5,7.1,2.7,9.1,8
		c-6.3-5.9-10.9-7.9-29.2-8.7c-29.2-1.3-61.9-0.1-76,0.2C301.5,43.6,305.1,41.7,306.9,39.8z"/>
	<path fill="#6F7370" d="M273,13.9c1-1.9,3.8-4.2,3.8-4.2s1.3-0.3,1.8,1.8c0,0,0,0,0,0l-1-0.9c0,0-5,4.6-3.3,7.8
		c1.3,2.4,11.7,12.7,17.6,18c0.6,0.6,1.2,1.1,1.6,1.5c0.1,0.1,0.2,0.1,0.2,0.2c1,0.9,1.8,1.5,2,1.6c1.3,0.5,9.8-3.1,9.8-3.1
		l-0.8-0.7c0,0,0,0,0,0s1.5,0,1.2,1.6c-0.8,1.3-7.4,3.7-7.4,3.7s-2.8,0.8-5.4-1.1c-2.6-1.9-20.2-20.9-20.2-20.9S272,15.8,273,13.9z"
		/>
	<path fill="#6F7370" d="M295.7,39.5c-0.2-0.1-1-0.7-2-1.6c2.2,1.7,5.1,1.2,8.1-0.4c2.5-1.3,2.9-1.7,3-1.8l0.8,0.7
		C305.5,36.4,297,40,295.7,39.5z"/>
	<path fill="#6F7370" d="M274.8,16.6c0.2,2.5,3.7,5.1,7.4,9.3c3,3.4,7,7.8,9.6,10.4c-5.8-5.3-16.2-15.6-17.6-18
		c-1.8-3.2,3.3-7.8,3.3-7.8l1,0.9C278.4,11.5,274.6,14.1,274.8,16.6z"/>
	
		<linearGradient id="SVGID_10_" gradientUnits="userSpaceOnUse" x1="354.0335" y1="50.5034" x2="400.7524" y2="50.5034" gradientTransform="matrix(-1 0 0 1 421.6153 0)">
		<stop  offset="0" style="stop-color:#FEF8BF"/>
		<stop  offset="1" style="stop-color:#D7B14D"/>
	</linearGradient>
	<path fill="url(#SVGID_10_)" d="M51.1,40.4c14.1-2.5,16-2.5,16-2.5s3.2,5.5-8.2,8.2c-11.4,2.7-29.6,7.5-33.8,12.3
		c-4.3,4.8-4.3,4.8-4.3,4.8s1.3-7.2,4.1-10C28.7,49.4,37.1,42.8,51.1,40.4z"/>
	<path fill="#828684" d="M261.2,39.7C261.3,39.7,261.3,39.7,261.2,39.7C261.3,39.7,261.3,39.7,261.2,39.7z"/>
	<path fill="#828684" d="M252.6,39.6L252.6,39.6c0.2,0,0.3,0,0.5,0C252.9,39.6,252.8,39.6,252.6,39.6z"/>
	<path fill="#828684" d="M260.4,39.7C260.4,39.7,260.4,39.7,260.4,39.7C260.4,39.7,260.4,39.7,260.4,39.7z"/>
	<path fill="#828684" d="M252.7,37.4c0,0,15.9-0.1,18.5-0.1c2.6,0,2.7-0.6,2.7-1.7s-1.2-2.4-1.2-2.4s-7.4-7.8-10.5-10.5
		c-3.1-2.6-3.7-2.9-6-3.6c-2.2-0.7-3.4-0.5-3.7-0.5v-2.2l1.6,0.1c0,0,4.5,0.1,9.6,4.5c5.1,4.3,11.9,12.5,11.9,12.5s3,3.4-0.5,5.3
		c-2.2,1.3-7.4,0.8-13.2,0.8c-0.2,0-0.5,0-0.7,0c0,0,0,0,0,0c-0.3,0-0.5,0-0.8,0c0,0,0,0,0,0c-1.8,0-4.4,0-7.3,0c-0.2,0-0.3,0-0.5,0
		v-14L252.7,37.4z"/>
	<polygon fill="#6F7370" points="250.5,16.2 252.7,16.5 252.7,16.5 250.6,16.3 	"/>
	<path fill="#6F7370" d="M253.6,40h-2.1l0-0.4c0.7,0,1.4,0,2.1,0L253.6,40z"/>
	<path fill="#6F7370" d="M252.7,16.5l0.1,2.1c-0.2,0-0.3,0.1-0.3,0.1l0.2,18.7c0,0,0.3,0,0.8,0l0.1,2.3c-0.7,0-1.4,0-2.1,0l-1-23.3
		L252.7,16.5z"/>
	<path fill="#6F7370" d="M252.5,18.7c0,0,0.1,0,0.3-0.1l0.7,18.7c-0.5,0-0.8,0-0.8,0L252.5,18.7z"/>
	
		<linearGradient id="SVGID_11_" gradientUnits="userSpaceOnUse" x1="38.936" y1="79.5189" x2="93.9048" y2="79.5189" gradientTransform="matrix(-1 0 0 1 421.6153 0)">
		<stop  offset="0" style="stop-color:#F9D968"/>
		<stop  offset="1" style="stop-color:#D7B14D"/>
	</linearGradient>
	<path fill="url(#SVGID_11_)" d="M327.7,76.9c0,0,0.8-5.9,11.6-7.5c10.8-1.5,25.8-1.5,32.3,0.6c6.5,2.1,8.9,4.9,10,11.4
		c1.1,6.5,1.1,9.3,1.1,9.3s-1.1-0.5-1.7-2.6c-0.6-2.1-3.1-11.1-7.2-13.8c-4-2.6-8.7-4.5-23.8-4.1C335,70.5,330,76.4,330,76.4
		L327.7,76.9z"/>
	<path fill="#6F7370" d="M407,52c-0.5-2.3-3.2-4.9-7.5-6.5c-1.2-0.4-4.1-1.3-5.6-1.5c-11.8-2.1-23.6-2.8-23.6-2.8l0.5-2.1
		c0,0,19.6,0.9,25.3,0.4c5.7-0.5,8.2-2,8.2-2l0.5,2.1l-1,4.1C403.6,43.7,406.7,48.2,407,52z"/>
	
		<linearGradient id="SVGID_12_" gradientUnits="userSpaceOnUse" x1="17.4468" y1="38.9977" x2="50.8969" y2="38.9977" gradientTransform="matrix(-1 0 0 1 421.6153 0)">
		<stop  offset="0" style="stop-color:#DBD9CE"/>
		<stop  offset="1" style="stop-color:#858984"/>
	</linearGradient>
	<path fill="url(#SVGID_12_)" d="M404.2,37.4c0,0-1.3,3.9-13.9,3c-4.9-0.4-19.5-0.4-19.5-0.4L371,39c0,0,16.9,0,20.2,0.4
		c2.9,0.3,5.9-0.1,8.2-0.6C402.2,38.3,404.2,37.4,404.2,37.4z"/>
	<polygon fill="#435158" points="404.2,37.4 403.5,38.4 403.8,39.3 402.6,43.9 403.6,43.7 404.8,39.6 	"/>
	
		<linearGradient id="SVGID_13_" gradientUnits="userSpaceOnUse" x1="14.6108" y1="47.542" x2="19.02" y2="47.542" gradientTransform="matrix(-1 0 0 1 421.6153 0)">
		<stop  offset="0" style="stop-color:#DBD9CE"/>
		<stop  offset="1" style="stop-color:#6F7370"/>
	</linearGradient>
	<path fill="url(#SVGID_13_)" d="M402.6,43.9c0,0,1.1,0.9,1.8,2.4c0.7,1.5,1.5,3.3,1.5,3.3l1.1,2c0,0-0.1-1.7-1.4-4.5
		c-1.2-2.7-1.8-3.6-1.8-3.6L402.6,43.9z"/>
	<path fill="#1D170F" d="M16.7,83.4c2.5,0,3.5-2.1,4.2-4.4c0.3-0.9,0.5-2.4,0.8-4.1c0.5-3.3,1.3-7.8,2.9-11
		c2.8-5.8,15.8-11.1,19.8-12.6c3.9-1.5,8.1-2.4,11.8-3.1c3.9-0.8,7.3-1.5,9.4-2.7c5.3-3.2,3-8.1,2.9-8.1l-0.8,0
		c0.1,0.2,2.3,4.6-2.5,7.5c-2,1.2-5.3,1.9-9.2,2.6c-3.7,0.8-7.9,1.6-11.9,3.1c-4,1.5-17.2,7-20.1,13c-1.6,3.3-2.4,7.8-2.9,11.2
		c-0.3,1.7-0.5,3.1-0.8,4c-0.9,2.8-1.9,3.9-3.5,3.9c0,0,0,0-0.1,0L16.7,83.4C16.6,83.4,16.7,83.4,16.7,83.4z"/>
	<path fill="#1D170F" d="M46.5,64.3c0.4,0,0.8-0.1,1.1-0.2c0.1,0,0.3-0.1,0.6-0.2c0.7-0.2,2-0.6,3.4-0.5c1.2,0.1,2.3,0.3,3.2,0.4
		c0.7,0.1,1.2,0.2,1.5,0.2c1.6,0,2.9-1.1,2.9-2.6c0-0.7,0-6.7,0-6.7l-0.7,0c0,0,0,6,0,6.7c0,1-1,1.8-2.2,1.8c-0.2,0-0.7-0.1-1.3-0.2
		c-0.9-0.2-2.1-0.4-3.3-0.5c-1.5-0.1-2.9,0.3-3.6,0.6c-0.2,0.1-0.4,0.1-0.5,0.1l-0.1,0c-0.1,0-1.6,0.6-2.6-0.7
		c-0.2-0.3-0.4-1.2-0.4-1.6l0-4.4h-0.7l0,4.5c0,0.2,0,1.4,0.5,2C44.8,64,45.7,64.3,46.5,64.3z"/>
	<path fill="#BFC2A6" d="M402.8,90.6c0,0,5.2-0.1,7.8,0c2.6,0.1,3.7,0.6,4.3,2c0.7,1.4,0.3,2.1,0.3,2.1s-1.9-1.5-4.9-1.7
		c-3-0.2-15,0.2-15.4-0.1C394.5,92.5,396.5,90.8,402.8,90.6z"/>
	<path fill="#BFC2A6" d="M411.5,86.8c0,0,4.5-1.6,7.2-1.6c2.7,0,3,1.2,2.3,2.4c-0.7,1.2-3,5.2-3.4,6.8c-0.4,1.6-0.6,3.6-0.6,3.6
		s-1.2-5.5-0.4-7.3c0.8-1.8,0-3.3-1.5-3.4C413.6,87.2,411.5,86.8,411.5,86.8z"/>
	<path fill="#616766" d="M405.8,82.4c0,0-2.8-0.1-3.4,0.2c-0.3,0.2-0.7,0.6-0.8,1c-0.2,2.2-1,5.6,0.3,5.8c0.7,0.1,3.2,0,4.5-0.1
		c0.5,0,0.8-0.3,0.8-0.7c0.1-1.7,0.5-6,0-6.1C406.8,82.3,405.8,82.4,405.8,82.4z"/>
	<path fill="#BFC2A6" d="M407.6,83.7c-0.4-0.2-1.7-0.2-3.1-0.2c-0.7,0-1.4,0-1.7,0.3c-0.2,0.2-0.3,0.8-0.3,1.3
		c-0.1,0.7-0.2,1.8-0.2,2.4c0,0.6,0.2,1,1.7,1c0.8,0,1.8,0,2.5,0c0.6,0,1.2-0.2,1.2-1.1C407.7,86,407.9,83.9,407.6,83.7z"/>
	<path fill="#889588" d="M407.7,87c0,0-0.5,0.5-1.3,0.6c-0.7,0-2.5-0.1-2.8-0.6c-0.4-0.5-0.1-2.2,0-2.7c0.1-0.4,1.3-0.9,1.3-0.9
		s-1.8,0-2.1,0.3c-0.4,0.4-0.4,1.5-0.5,2.3c0,0.7-0.1,1.8,0.1,2c0.2,0.2,0.6,0.4,1.4,0.4c0.8,0,2.4,0.1,3.1-0.1
		C407.6,88.2,407.7,87.5,407.7,87z"/>
	<path fill="#FFFFFF" d="M404.9,83.7c0,0,2.4-0.2,2.5,0.2c0.2,0.4,0.2,1.1-0.1,1.2c-0.3,0.1-0.9-0.4-1.4-0.5
		C405.5,84.5,404.4,84,404.9,83.7z"/>
	<path fill="#494C4A" d="M227,12.2l28.3,2.5c0,0,5.1-0.1,9.9,4.7c4.8,4.8,11.3,12.3,11.3,12.3c1.7,2.1,2.2,2,2.7,4.4
		c-0.7-1.1-2.8-3.4-5-5.7c-3.3-3.4-8.5-9.5-10.6-11.2c-2.1-1.7-3.8-3.1-9-3.6c-5.2-0.5-21.4-1.8-24.8-2.3c-3.4-0.4-6.1,0-7.2,1.2
		c-1.7,1.8-1.9,3.4-1.9,3.4S220.5,11.7,227,12.2z"/>
	<path fill="#B5B4B3" d="M220.4,30.6l0-0.4l0-0.5c0,0-0.1,4,0.7,6.7c0.8,2.7,3.8,3.9,9.9,3.9c6.5,0.1,36.4,0.6,41.9,0.3
		c5.2-0.3,5.9-2,6.1-2.9c0,0.1,0,0.1,0,0.2c-1,3.7-4.6,3.3-8.4,3.3c-3.8,0-43.7-0.3-43.7-0.3s-4.2,0.2-6-3.1
		C220,36.2,220.4,30.6,220.4,30.6z"/>
	<path fill="#494C4A" d="M276.6,35.3C276.6,35.3,276.6,35.3,276.6,35.3C276.6,35.3,276.6,35.3,276.6,35.3z"/>
	<path fill="#494C4A" d="M276.1,34.3C276.1,34.3,276.1,34.3,276.1,34.3C276.1,34.3,276.1,34.3,276.1,34.3z"/>
	<polygon fill="#494C4A" points="276.7,37.3 276.7,37.3 276.7,37.3 	"/>
	<path fill="#494C4A" d="M276.8,36.6C276.8,36.6,276.8,36.6,276.8,36.6C276.8,36.6,276.8,36.6,276.8,36.6z"/>
	<path fill="#494C4A" d="M275.7,33.7C275.7,33.7,275.7,33.6,275.7,33.7C275.7,33.6,275.7,33.6,275.7,33.7z"/>
	<path fill="#494C4A" d="M261.5,20.4c-4.5-3.3-8.7-2.9-8.7-2.9l-0.1-0.9l1.4,0.1c0,0,4.5,0.1,9.6,4.5c5.1,4.3,11.9,12.5,11.9,12.5
		s0,0,0.1,0.1c0,0,0,0,0,0c0.1,0.1,0.2,0.3,0.4,0.6c0,0,0,0,0,0c0.2,0.3,0.3,0.6,0.5,1c0,0,0,0,0,0.1c0.1,0.4,0.2,0.8,0.2,1.2
		c0,0,0,0.1,0,0.1c0,0.2-0.1,0.4-0.1,0.6c0,0,0,0,0,0c0-1.2-1.2-2.9-2-3.9C273.3,31.9,266.5,24.1,261.5,20.4z"/>
	<path fill="#494C4A" d="M202.6,13.6c-6.7,0-18.5,0.2-25.5,0.9c-7,0.7-7.2,1.9-8.6,3.4c-1.4,1.5-5.8,10.1-5.8,10.1l0.2-0.7
		c0.2-0.5,0.4-0.9,0.6-1.4c2.2-5.7,5-10.2,7.2-11.1c1.2-0.5,5.2-1.1,10.1-1.3c4-0.2,8.4-0.5,13.1-0.6c10.4-0.1,17.6-0.1,17.6-0.1
		c3.8,0.5,3.9,3.6,3.9,3.6s0,1.6,0,4c0-0.3,0-0.6,0-0.9c-0.1-4.9-1.8-4.9-2.7-5.4C211.7,13.7,209.3,13.6,202.6,13.6z"/>
	<path fill="#B5B4B3" d="M158.9,37.8c0.2,1.3,0.8,3.2,2.8,3.5c3.2,0.4,48.9-0.4,48.9-0.4s2.3,0.1,3.4-1.2c0.8-0.9,1.2-2.4,1.3-3.2
		c0,1,0,1.9,0,2.4c0,3.1-3.6,2.8-5.1,2.9c-1.5,0-36,0.3-41.9,0.6c-6.5,0.3-8.8-0.1-9.4-2.5C158.8,39.3,158.8,38.6,158.9,37.8z"/>
	<path fill="#494C4A" d="M128.8,23.8c-5.9,2.4-10.9,5.1-13.8,6.9c3.2-2.6,8.5-6,16.5-8.9c12-4.5,21.7-5.4,21.7-5.4s2.9-0.7,4.5,0.9
		c2,1.9,0.1,5.6,0.1,5.6s-0.2,0.5-0.5,1.2c0.6-3,0.7-5-0.6-6.2C155,16.3,139.6,19.4,128.8,23.8z"/>
	<path fill="#B5B4B3" d="M115.4,41.3c5.2,0.4,29,0.8,31.8-0.4c1.7-0.8,4.2-4.4,5.9-7c-1,2.4-2,4.5-2.7,5.6c-2,3.5-6.1,3.1-6.3,3.1
		c-0.3,0-15.3,0-19.3,0.1c-4,0.1-9.9,0.1-12-1.2c-1.2-0.7-1.8-1.7-2.1-2.8C111.1,39.7,112.3,41.1,115.4,41.3z"/>
	
		<linearGradient id="SVGID_14_" gradientUnits="userSpaceOnUse" x1="391.2544" y1="90.102" x2="414.1285" y2="90.102" gradientTransform="matrix(-1 0 0 1 421.6153 0)">
		<stop  offset="0" style="stop-color:#6F7370"/>
		<stop  offset="1" style="stop-color:#B5B4B3"/>
	</linearGradient>
	<path fill="url(#SVGID_14_)" d="M30.4,88.4c0,0-16.8-0.3-18.6-0.3c-3-0.1-4.7,3.1-4.2,3.8c0.5,0.7,3,0.2,5.5-0.5
		C15.5,90.6,30.4,88.4,30.4,88.4z"/>
	
		<linearGradient id="SVGID_15_" gradientUnits="userSpaceOnUse" x1="409.2563" y1="83.4604" x2="421.1446" y2="83.4604" gradientTransform="matrix(-1 0 0 1 421.6153 0)">
		<stop  offset="0" style="stop-color:#6F7370"/>
		<stop  offset="1" style="stop-color:#B5B4B3"/>
	</linearGradient>
	<path fill="url(#SVGID_15_)" d="M0.5,82.1c0,0-0.7-1.8,3.1-1.9c3.8-0.1,8,2.5,8,2.5s0.8,2.1,0.8,2.6c0,0.5,0,1.2,0,1.2
		s-0.7,0.4-1.4,0C10.2,86.2,9.4,83,6,82.7c-3.4-0.2-4.5,1.7-4.5,1.7S0.7,83,0.5,82.1z"/>
	<path fill="#494D4B" d="M11.8,97.7c0,0-1.5,0.9-3.8,0.4c-2.3-0.4-2.7-2.9-2.8-5.2c-0.1-2.3-1.3-6.3-2.3-7.3s-2.2-1.1-2.2-1.1
		s0.7,1.4,1.3,2c0.7,0.6,1.2,1.5,1.5,2.7c0.3,1.3,0.4,7.1,1.5,8.4c1,1.3,2.8,2.1,4.8,1.5C11.8,98.6,11.8,97.7,11.8,97.7z"/>
	
		<linearGradient id="SVGID_16_" gradientUnits="userSpaceOnUse" x1="298.9914" y1="29.5768" x2="350.1499" y2="29.5768" gradientTransform="matrix(-1 0 0 1 421.6153 0)">
		<stop  offset="0.3445" style="stop-color:#6B181F"/>
		<stop  offset="0.9454" style="stop-color:#451416"/>
	</linearGradient>
	<path fill="url(#SVGID_16_)" d="M74.5,34c0.7,0.7,3.2,2.9,4.4,2.8c1.3-0.2,17.4-14.8,18.7-16.9c0.7-1.2,0.5-2.4,0.1-3.2
		c10-4.4,30.2,1.1,23.7,4.5c-6.6,3.4-11.8,8.2-14.9,10.4c-3.1,2.3-8.1,6.5-15.9,12.6c-17.7-3.9-19-7.1-19-7.1S72.6,35.7,74.5,34z"/>
	<path fill="#1D170F" d="M110.9,46.1l0-0.7c-32.4-0.5-39.1-8.3-39.2-8.4L71,37.2C71.3,37.5,78,45.6,110.9,46.1z"/>
	<path fill="#6F7370" d="M292.6,45.2c0,0-46.3,0.4-75.2,0.4s-81.2,1.1-106.5,2.1c-25.3,1.1-42,2-42,2s-0.9-2.1,0.9-2.1
		c1.8,0,60.4-2.6,82.3-3.4c20.5-0.8,138.6-1.9,138.6-1.9L292.6,45.2z"/>
	<path fill="#DBD9CE" d="M228.2,43.6c0,0,43.6-0.4,50-0.7c6.4-0.3,10.9-0.1,11.6,0.5c0.7,0.6,1.4,0.9-4,1
		C280.3,44.4,228.2,43.6,228.2,43.6z"/>
	<path fill="#1D170F" d="M151.6,45.7c0.1,18.2,0.3,52.9,0.2,53.9c-0.2,1.2,0.4,2,0.4,2l0.1,0.1h0.2c0.2,0,17,0,24,0.2
		c1.3,0,3.8,0,7.2,0c12.7,0,35.5-0.2,35.7-0.2c0.7,0,66.3,0.5,70.9,0.5c3.2,0,3.7-0.4,3.9-0.8c0.1-0.2,0-0.4-0.1-0.6V82.2
		c0-1.1,0.3-27-0.4-31.6c-0.1-0.4-0.1-0.8-0.2-1.1c-0.6-4-0.9-6.6-7.1-12.4c-3.6-3.5-7.4-7.7-10.7-11.4c-2.7-3-5.2-5.8-7.3-7.8
		c-4.5-4.3-9-4.9-18.1-6l-1.6-0.2c-9.5-1.2-24.5-2-37.2-2c-0.7,0-1.4,0-2.1,0c-22.6,0.1-43.9,1.9-44.1,1.9l-0.2,0L151.6,45.7
		L151.6,45.7z M152.3,45.8l13.4-33.5c2.3-0.2,22.5-1.7,43.8-1.9c0.7,0,1.4,0,2.1,0c14.7,0,29.2,1,37.2,2l1.6,0.2
		c8.9,1.1,13.3,1.6,17.6,5.8c2,2,4.6,4.8,7.2,7.8c3.3,3.7,7.1,8,10.8,11.5c5.9,5.6,6.3,8.2,6.8,12c0.1,0.4,0.1,0.8,0.2,1.2
		c0.7,4.5,0.4,31.2,0.4,31.5v19.1l0.1,0c-0.2,0.1-1,0.3-3.1,0.3c-4.6,0-70.2-0.5-70.9-0.5c-0.2,0-23.1,0.2-35.7,0.2
		c-3.4,0-5.9,0-7.2,0c-6.6-0.2-21.9-0.2-23.9-0.2c-0.1-0.2-0.3-0.7-0.2-1.4C152.6,98.7,152.3,51.5,152.3,45.8z"/>
	
		<rect x="172.6" y="55.5" transform="matrix(-5.187294e-003 1 -1 -5.187294e-003 275.2222 -162.1059)" fill="#1D170F" width="91.3" height="0.7"/>
	<path fill="#E0E3D9" d="M97,15.5c0,0,1.9,2.2,0.5,4.4C96.2,22,80.2,36.6,78.8,36.8C77.5,37,74.5,34,74.5,34s7.3-7.4,10.9-10
		C91.4,19.6,97,15.5,97,15.5z"/>
	<path fill="#6F7370" d="M73.9,33.8c0.5-0.9,1.4-0.7,1.4-0.7s0,0,0.1,0.1c0.3,0.3,1.3,1.5,1.5,1.7c0.4,0.3,1.1,1.3,3.4,0
		c2.3-1.3,15.8-14.3,15.8-14.3s0.9-1.2,0.4-2.7c-0.4-1-0.5-1.3-0.5-1.4c0-0.1,0-0.1,0-0.1s0-1.7,2.3-1.2c0,0,2.2,3,0.5,5.9
		C96.9,24,81.1,36.8,81.1,36.8s-2.5,2-4.1,1C75.4,36.8,73.3,34.8,73.9,33.8z"/>
	<path fill="#919090" d="M405.4,56.6c0,0,6.1,2.3,6.4,8.7c0.3,5.1-1.2,7.8-2.9,9.7c-1.7,2-3.4,2.9-3.4,2.9L405.4,56.6z"/>
	<path fill="#E3D5A5" d="M407.9,58c1.7,1.2,3.7,3.6,3.9,7.2c0.3,5.1-1.2,7.8-2.9,9.7c-0.4,0.5-0.8,0.9-1.2,1.3L407.9,58z"/>
	<path fill="#FFFFFF" d="M408.8,60.2c0,0,1.7,1.1,2.2,3c0.4,1.4,0.2,2.1-0.7,2.1c-0.8,0-1.8-2.1-1.8-2.1S408.1,59.8,408.8,60.2z"/>
	<path fill="#AE9C7B" d="M411.9,66.8c0,0-0.2,2.9-1.8,2.9c-1.8,0-2.4-3.1-2.4-3.1l0,9.6c0,0,2.9-2.9,3.5-5.2
		C411.8,68.7,411.9,66.8,411.9,66.8z"/>
	
		<linearGradient id="SVGID_17_" gradientUnits="userSpaceOnUse" x1="14.9531" y1="57.0928" x2="14.9531" y2="69.1133" gradientTransform="matrix(-1 0 0 1 421.6153 0)">
		<stop  offset="0" style="stop-color:#919090"/>
		<stop  offset="0.1265" style="stop-color:#AEB2AE"/>
		<stop  offset="0.2521" style="stop-color:#CCD5CC"/>
		<stop  offset="0.3853" style="stop-color:#C4CBC4"/>
		<stop  offset="0.6013" style="stop-color:#AFB3AF"/>
		<stop  offset="0.8718" style="stop-color:#919191"/>
		<stop  offset="0.8782" style="stop-color:#919090"/>
	</linearGradient>
	<polygon fill="url(#SVGID_17_)" points="407.7,58.2 405.6,57.1 405.7,69.1 407.6,66.6 	"/>
	<path fill="#616766" d="M406.5,74.2c-0.9-0.4-1.1-7.8-1.1-7.8l0.1,11.5l2.1-1.3l0.1-2.8C407.8,73.8,407.4,74.6,406.5,74.2z"/>
	<circle fill="#6F7370" cx="224.4" cy="49" r="1.7"/>
	<circle fill="#6F7370" cx="212.5" cy="49" r="1.7"/>
	<path fill="#6F7370" d="M223.4,49c0,0.4,0.3,0.7,0.7,0.7h9.3c0.4,0,0.7-0.3,0.7-0.7l0,0c0-0.4-0.3-0.7-0.7-0.7h-9.3
		C223.7,48.3,223.4,48.6,223.4,49L223.4,49z"/>
	<path fill="#6F7370" d="M202.5,49c0,0.4,0.3,0.7,0.7,0.7h9.3c0.4,0,0.7-0.3,0.7-0.7l0,0c0-0.4-0.3-0.7-0.7-0.7h-9.3
		C202.9,48.3,202.5,48.6,202.5,49L202.5,49z"/>
	<path fill="#D7D6D9" d="M232.6,48.4c0,0-8,0-8.4,0c-0.5,0-0.8,1-0.1,1.1c0.7,0.1,1,0.1,1,0.1s-1-0.5-0.5-0.7
		c0.5-0.2,7.2-0.2,7.7-0.2c0.6,0,1-0.3,1-0.3L232.6,48.4z"/>
	<path fill="#D7D6D9" d="M204.3,48.4c0,0,8,0,8.4,0c0.5,0,0.8,1,0.1,1.1c-0.7,0.1-1,0.1-1,0.1s1-0.5,0.5-0.7
		c-0.5-0.2-7.2-0.2-7.7-0.2c-0.6,0-1-0.3-1-0.3L204.3,48.4z"/>
</g>
</svg>
