<!-- Generator: Adobe Illustrator 21.1.0, SVG Export Plug-In  -->
<svg version="1.1"
	 xmlns="http://www.w3.org/2000/svg" xmlns:xlink="http://www.w3.org/1999/xlink" xmlns:a="http://ns.adobe.com/AdobeSVGViewerExtensions/3.0/"
	 x="0px" y="0px" viewBox="0 0 127.3 49.7" style="enable-background:new 0 0 127.3 49.7;"
	 xml:space="preserve" onload="Custom.initSvg(evt)">
<style type="text/css">
	.st0{fill:#070B07;}
	.st1{fill:url(#SVGID_1_);}
	.st2{fill:#3A4C37;}
	.st3{fill:#11180F;}
	.st4{fill:url(#SVGID_2_);}
	.st5{fill:#010002;}
	.st6{fill:url(#SVGID_3_);}
	.st7{fill:#8DB1B0;}
	.st8{fill:url(#SVGID_4_);}
	.st9{fill:#050505;}
	.st10{fill:#110F0F;}
	.st11{fill:url(#SVGID_5_);}
	.st12{fill:#A4A9A3;}
	.st13{fill:url(#SVGID_6_);}
	.st14{fill:url(#SVGID_7_);}
	.st15{fill:url(#SVGID_8_);}
	.st16{fill:#A3A3A3;}
	.st17{fill:#828682;}
	.st18{fill:url(#SVGID_9_);}
	.st19{fill:#596157;}
	.st20{fill:#0F120F;}
	.st21{fill:url(#SVGID_10_);}
	.st22{fill:url(#SVGID_11_);}
	.st23{fill:url(#SVGID_12_);}
	.st24{fill:url(#SVGID_13_);}
	.st25{fill:#2C2B2B;}
	.st26{fill:url(#SVGID_14_);}
	.st27{fill:url(#SVGID_15_);}
	.st28{fill:url(#SVGID_16_);}
	.st29{fill:#BABABA;}
	.st30{fill:#474749;}
	.st31{fill:url(#SVGID_17_);}
	.st32{fill:url(#SVGID_18_);}
	.st33{fill:#0C0D0C;}
	.st34{fill:url(#SVGID_19_);}
	.st35{fill:#171919;}
	.st36{fill:url(#SVGID_20_);}
	.st37{fill:#070805;}
	.st38{fill:url(#SVGID_21_);}
	.st39{fill:url(#SVGID_22_);}
	.st40{fill:url(#SVGID_23_);}
	.st41{fill:url(#SVGID_24_);}
	.st42{fill:url(#SVGID_25_);}
	.st43{fill:url(#SVGID_26_);}
	.st44{fill:url(#SVGID_27_);}
	.st45{fill:url(#SVGID_28_);}
	.st46{fill:url(#SVGID_29_);}
	.st47{fill:url(#SVGID_30_);}
	.st48{fill:url(#SVGID_31_);}
	.st49{fill:url(#SVGID_32_);}
	.st50{fill:url(#SVGID_33_);}
	.st51{fill:url(#SVGID_34_);}
	.st52{fill:url(#SVGID_35_);}
	.st53{fill:url(#SVGID_36_);}
	.st54{fill:url(#SVGID_37_);}
	.st55{fill:url(#SVGID_38_);}
	.st56{fill:url(#SVGID_39_);}
	.st57{fill:url(#SVGID_40_);}
	.st58{fill:url(#SVGID_41_);}
	.st59{fill:url(#SVGID_42_);}
	.st60{fill:url(#SVGID_43_);}
	.st61{fill:url(#SVGID_44_);}
	.st62{fill:url(#SVGID_45_);}
	.st63{fill:url(#SVGID_46_);}
	.st64{fill:url(#SVGID_47_);}
	.st65{fill:url(#SVGID_48_);}
</style>
<defs>
</defs>
<path class="st0" d="M0,26.4v2.9h0.4v1.1H8V33h3.7l0.3,0.4h0.3l0.6-0.5h10.5c0,0,3.9-3.3,9.5-3.2s9.5,7.9,9.5,7.9l24.7-2.5v1.8h-4.3
	c0,0-1,0.1-1.2,0.5s0.2,0.6,0.2,0.6s0.1-0.1,0.5-0.2c0.4-0.1,1-0.1,1-0.1H73l0.1,0.2h1v0.6l13.1,0.1v-0.5h2.2v0.7h3l0.3-0.4v-0.8
	h0.6v0.7l0.6,0.9l0.5-0.8c0,0,0.1,0,0.4,0.3c0.4,0.3,1,0.6,1,0.6l10.5,0.3c0,0,0.1-0.4,0.2-1.2L98,38.3l-0.1-3.5h0.4l0.4,2.9
	c0,0,0.2,0.2,0.6,0.2c0.3,0,7.1,0,7.4,0c0.6-2.1,1.8-5.7,4.4-7.4c3.8-2.4,10.8-0.9,10.8-0.9l1-4c0,0-1.4-1.6-5.1-2.2
	c-5.4-0.9-9.4,1.4-13.6,4.5c-3.4,2.4-6.1,4-6.1,4L67.9,31l-1.7-0.1v-3.7L0,26.4z M54.7,35.3l0.1-0.8l0.3-0.2l5,0.1L60,34.9
	L54.7,35.3z M50.3,34l3.1,0.1l0.7,0.4L54,35.2l-0.2,0.2L50.3,34z M44.7,35.9H45v-0.4h4.2v0.4l-4.4,0.3L44.7,35.9z"/>
<linearGradient id="SVGID_1_" gradientUnits="userSpaceOnUse" x1="-446.6741" y1="728.5652" x2="-341.2742" y2="728.5652" gradientTransform="matrix(-0.2954 0 0 0.2954 -33.7227 -181.496)">
	<stop  offset="0" style="stop-color:#343533"/>
	<stop  offset="1" style="stop-color:#0E1014"/>
</linearGradient>
<path class="st1" d="M98.3,31.4L67.5,31l-0.4,0.3l0.1,4.8l19.6,0.3c0,0,4.1-0.1,7.6-2.2C98,32.2,98.3,31.4,98.3,31.4z"/>
<path class="st2" d="M65.6,17c0.1,0.3,0.3,0.5,0.3,0.5s-0.1,3.5,0.4,7c0.5,3.5,1,5.9,1,5.9h0.3c0,0,0,0.4,0,0.6
	c0,0.1-0.2-0.1-0.2,0.8c0,0.9,0,4.8,0,4.8h19.9c0,0,5.2-0.2,10.8-4.5c5.7-4.3,10.2-6.8,14.1-8.3c1.7-0.7,3.5-0.9,3.5-0.9l0.1-7.2
	l-20-0.6c0,0-2.1-0.1-4-0.4s-3-0.8-3-0.8V6.1c0,0,0.1-0.3,0.5-0.5c0.4-0.3,0.6-0.4,0.6-0.4s0.6,0,1.1-0.2c0.6-0.2,0.8-0.4,0.8-0.4
	L89.9,3c0,0-0.1-0.5-0.4-0.6c-0.3-0.1-8.7-1.6-13.3-2c-4.5-0.4-7.7-0.3-7.7-0.3s-1.2,0-1.9,0.9s-0.8,1.6-0.9,3.8
	c-0.1,2.3-0.1,8.1,0,8.7c0,1.1,0.2,1.4,0.2,1.4s-0.4,0.1-0.4,0.7C65.4,16.4,65.5,16.7,65.6,17z M70.5,4.8c0.4-0.3,1-0.3,1-0.3
	l14.2,0.2c0,0,0.5,0,0.7,0.4s0.1,0.8,0.1,0.8V13c0,0,0,0.6-0.3,0.8c-0.3,0.2-0.4,0.2-1,0.2s-14,0-14,0s-0.6,0-0.8-0.3
	c-0.3-0.4-0.3-0.7-0.3-0.7V5.7C70.1,5.8,70.1,5.1,70.5,4.8z"/>
<g>
	<path class="st3" d="M97.8,28.3v-7.2c0-0.4,0.3-0.6,0.6-0.6h13.9c0.4,0,0.6,0.3,0.6,0.6v7.3c0,0.4-0.3,0.6-0.6,0.6H98.4
		C98.1,29,97.8,28.7,97.8,28.3z M98.4,20.6c-0.3,0-0.5,0.2-0.5,0.5v7.3c0,0.3,0.2,0.5,0.5,0.5h13.9c0.3,0,0.5-0.2,0.5-0.5v-7.3
		c0-0.3-0.2-0.5-0.5-0.5H98.4z"/>
	<g>
		<g>
			<path class="st3" d="M98.8,28.1L98.8,28.1l0.1-6.6v-0.1H99l0.1,0.1l0.1-0.1v-0.1c-0.1,0-0.1-0.1-0.1-0.1c-0.1-0.1-0.2-0.1-0.3,0
				c-0.1,0-0.1,0.1-0.1,0.2L98.8,28.1L98.8,28.1z"/>
			<path class="st3" d="M99.4,28.1L99.4,28.1l0.1-6.6v-0.1h0.1l0.1,0.1l0.1-0.1c-0.1,0-0.1-0.1-0.1-0.1c-0.1-0.1-0.2-0.1-0.3,0
				c-0.1,0-0.1,0.1-0.1,0.2L99.4,28.1L99.4,28.1z"/>
			<path class="st3" d="M100.1,28.1L100.1,28.1l0.1-6.6v-0.1h0.1l0.1,0.1l0.1-0.1c-0.1,0-0.1-0.1-0.1-0.1c-0.1-0.1-0.2-0.1-0.3,0
				c-0.1,0-0.1,0.1-0.1,0.2L100.1,28.1L100.1,28.1z"/>
			<path class="st3" d="M100.8,28.1L100.8,28.1l0.1-6.6v-0.1h0.1l0.1,0.1l0.1-0.1c-0.1,0-0.1-0.1-0.1-0.1c-0.1-0.1-0.2-0.1-0.3,0
				c-0.1,0-0.1,0.1-0.1,0.2L100.8,28.1L100.8,28.1z"/>
			<path class="st3" d="M101.4,28.1L101.4,28.1l0.1-6.6v-0.1h0.1l0.1,0.1l0.1-0.1c-0.1,0-0.1-0.1-0.1-0.1c-0.1-0.1-0.2-0.1-0.3,0
				c-0.1,0-0.1,0.1-0.1,0.2L101.4,28.1L101.4,28.1z"/>
			<path class="st3" d="M102.1,28.1L102.1,28.1l0.1-6.6v-0.1h0.1l0.1,0.1l0.1-0.1c-0.1,0-0.1-0.1-0.1-0.1c-0.1-0.1-0.2-0.1-0.3,0
				c-0.1,0-0.1,0.1-0.1,0.2L102.1,28.1L102.1,28.1z"/>
			<path class="st3" d="M102.8,28.1L102.8,28.1l0.1-6.6v-0.1h0.1l0.1,0.1l0.1-0.1c-0.1,0-0.1-0.1-0.1-0.1c-0.1-0.1-0.2-0.1-0.3,0
				c-0.1,0-0.1,0.1-0.1,0.2L102.8,28.1L102.8,28.1z"/>
			<path class="st3" d="M103.4,28.1L103.4,28.1l0.1-6.6v-0.1h0.1l0.1,0.1l0.1-0.1c-0.1,0-0.1-0.1-0.1-0.1c-0.1-0.1-0.2-0.1-0.3,0
				c-0.1,0-0.1,0.1-0.1,0.2L103.4,28.1L103.4,28.1z"/>
			<path class="st3" d="M104.1,28.1L104.1,28.1l0.1-6.6v-0.1h0.1l0.1,0.1l0.1-0.1c-0.1,0-0.1-0.1-0.1-0.1c-0.1-0.1-0.2-0.1-0.3,0
				c-0.1,0-0.1,0.1-0.1,0.2L104.1,28.1L104.1,28.1z"/>
			<path class="st3" d="M104.8,28.1L104.8,28.1l0.1-6.6v-0.1h0.1l0.1,0.1l0.1-0.1c-0.1,0-0.1-0.1-0.1-0.1c-0.1-0.1-0.2-0.1-0.3,0
				c-0.1,0-0.1,0.1-0.1,0.2L104.8,28.1L104.8,28.1z"/>
			<path class="st3" d="M105.4,28.1L105.4,28.1l0.1-6.6v-0.1h0.1l0.1,0.1l0.1-0.1c-0.1,0-0.1-0.1-0.1-0.1c-0.1-0.1-0.2-0.1-0.3,0
				c-0.1,0-0.1,0.1-0.1,0.2L105.4,28.1L105.4,28.1z"/>
			<path class="st3" d="M106.1,28.1L106.1,28.1l0.1-6.6v-0.1h0.1l0.1,0.1l0.1-0.1c-0.1,0-0.1-0.1-0.1-0.1c-0.1-0.1-0.2-0.1-0.3,0
				c-0.1,0-0.1,0.1-0.1,0.2L106.1,28.1L106.1,28.1z"/>
			<path class="st3" d="M106.8,28.1L106.8,28.1l0.1-6.6v-0.1h0.1l0.1,0.1l0.1-0.1v-0.1c-0.1,0-0.1-0.1-0.1-0.1
				c-0.1-0.1-0.2-0.1-0.3,0c-0.1,0-0.1,0.1-0.1,0.2L106.8,28.1L106.8,28.1z"/>
			<path class="st3" d="M107.4,28.1L107.4,28.1l0.1-6.6v-0.1h0.1l0.1,0.1l0.1-0.1c-0.1,0-0.1-0.1-0.1-0.1c-0.1-0.1-0.2-0.1-0.3,0
				c-0.1,0-0.1,0.1-0.1,0.2L107.4,28.1L107.4,28.1z"/>
			<path class="st3" d="M108.1,28.1L108.1,28.1l0.1-6.6v-0.1h0.1l0.1,0.1l0.1-0.1c-0.1,0-0.1-0.1-0.1-0.1c-0.1-0.1-0.2-0.1-0.3,0
				c-0.1,0-0.1,0.1-0.1,0.2L108.1,28.1L108.1,28.1z"/>
			<path class="st3" d="M108.8,28.1L108.8,28.1l0.1-6.6v-0.1h0.1l0.1,0.1l0.1-0.1c-0.1,0-0.1-0.1-0.1-0.1c-0.1-0.1-0.2-0.1-0.3,0
				c-0.1,0-0.1,0.1-0.1,0.2L108.8,28.1L108.8,28.1z"/>
			<path class="st3" d="M109.4,28.1L109.4,28.1l0.1-6.6v-0.1h0.1l0.1,0.1l0.1-0.1c-0.1,0-0.1-0.1-0.1-0.1c-0.1-0.1-0.2-0.1-0.3,0
				c-0.1,0-0.1,0.1-0.1,0.2L109.4,28.1L109.4,28.1z"/>
			<path class="st3" d="M110.1,28.1L110.1,28.1l0.1-6.6v-0.1h0.1l0.1,0.1l0.1-0.1c-0.1,0-0.1-0.1-0.1-0.1c-0.1-0.1-0.2-0.1-0.3,0
				c-0.1,0-0.1,0.1-0.1,0.2L110.1,28.1L110.1,28.1z"/>
			<path class="st3" d="M110.8,28.1L110.8,28.1l0.1-6.6v-0.1h0.1l0.1,0.1l0.1-0.1v-0.1c-0.1,0-0.1-0.1-0.1-0.1
				c-0.1-0.1-0.2-0.1-0.3,0c-0.1,0-0.1,0.1-0.1,0.2L110.8,28.1L110.8,28.1z"/>
			<path class="st3" d="M111.5,28.1L111.5,28.1l0.1-6.6v-0.1h0.1l0.1,0.1l0.1-0.1c-0.1,0-0.1-0.1-0.1-0.1c-0.1-0.1-0.2-0.1-0.3,0
				c-0.1,0-0.1,0.1-0.1,0.2L111.5,28.1L111.5,28.1z"/>
		</g>
	</g>
</g>
<linearGradient id="SVGID_2_" gradientUnits="userSpaceOnUse" x1="-222.3181" y1="707.7278" x2="-222.318" y2="697.2874" gradientTransform="matrix(-0.2954 0 0 0.2954 -33.7227 -181.496)">
	<stop  offset="0" style="stop-color:#B2B19D"/>
	<stop  offset="5.523817e-02" style="stop-color:#A09F8D"/>
	<stop  offset="0.2218" style="stop-color:#706F63"/>
	<stop  offset="0.3876" style="stop-color:#484740"/>
	<stop  offset="0.5495" style="stop-color:#292825"/>
	<stop  offset="0.7066" style="stop-color:#131212"/>
	<stop  offset="0.8565" style="stop-color:#060506"/>
	<stop  offset="0.9918" style="stop-color:#010002"/>
</linearGradient>
<rect x="1.3" y="24.4" class="st4" width="61.3" height="3.1"/>
<path class="st5" d="M119,17.7c0.8-0.2,1.1-0.1,1.1-0.1s0.1,0.1,0.2,0.2v4.5c0,0.6-0.6,0.6-1.4,0.3c-1.2-0.5-1.7-1.7-1.6-2.9
	C117.4,18.8,118.3,18,119,17.7z"/>
<linearGradient id="SVGID_3_" gradientUnits="userSpaceOnUse" x1="-516.6835" y1="674.882" x2="-516.6835" y2="685.9965" gradientTransform="matrix(-0.2954 0 0 0.2954 -33.7227 -181.496)">
	<stop  offset="0" style="stop-color:#B2B19D"/>
	<stop  offset="0.1059" style="stop-color:#8E8D7D"/>
	<stop  offset="0.2505" style="stop-color:#636258"/>
	<stop  offset="0.3977" style="stop-color:#403F39"/>
	<stop  offset="0.5456" style="stop-color:#242321"/>
	<stop  offset="0.6945" style="stop-color:#111010"/>
	<stop  offset="0.8451" style="stop-color:#050405"/>
	<stop  offset="1" style="stop-color:#010002"/>
</linearGradient>
<path class="st6" d="M119.6,21.1c0,0-2-0.9-1.2-2.6c0.4-0.7,1.2-0.7,1.2-0.7V21.1z"/>
<path class="st7" d="M119.7,22.9v-5.3c0.3,0,0.4,0,0.4,0s0.1,0.1,0.2,0.2v4.5C120.3,22.8,120,22.9,119.7,22.9z"/>
<linearGradient id="SVGID_4_" gradientUnits="userSpaceOnUse" x1="-520.3885" y1="674.5048" x2="-520.3885" y2="682.3157" gradientTransform="matrix(-0.2954 0 0 0.2954 -33.7227 -181.496)">
	<stop  offset="1.212120e-02" style="stop-color:#FFFFFF"/>
	<stop  offset="0.1699" style="stop-color:#FAFBFB"/>
	<stop  offset="0.3685" style="stop-color:#EAF1F0"/>
	<stop  offset="0.589" style="stop-color:#D0DFDF"/>
	<stop  offset="0.8237" style="stop-color:#ADC7C6"/>
	<stop  offset="1" style="stop-color:#8DB1B0"/>
</linearGradient>
<path class="st8" d="M119.8,17.7c0,0,0.4-0.1,0.4,0.1c0,0.1-0.1,0.8-0.1,1.2c-0.1,0.4-0.3,1-0.3,1L119.8,17.7L119.8,17.7z"/>
<polygon class="st5" points="115.6,15.6 117.7,15.6 117.7,22.9 115.6,22.9 "/>
<path class="st9" d="M125,26.6c0,0,0.1,0.5-0.9,0.4c-1.1-0.1-1.9-0.8-4.9-1.6s-6.8-0.7-10.1,0.9s-9.3,6.1-13.1,8.2
	c-5,2.8-9.2,2.9-9.2,2.9v-1c0,0,3.1-0.5,8-3s10.2-7.5,13.8-9.5s8.5-1.9,12-0.7C123.7,24.3,125.2,26.2,125,26.6z"/>
<rect x="65.8" y="18" class="st3" width="49.9" height="0.1"/>
<path class="st3" d="M87.4,15.7v-0.1c-0.2,0-18.9-0.1-19.5-0.1s-1.2-0.1-1.7-0.3c-0.4-0.1-0.4-0.3-0.4-0.3L65.7,15
	c0,0,0.1,0.2,0.5,0.3c0.6,0.2,1.1,0.4,1.8,0.4C68.6,15.6,87.3,15.7,87.4,15.7z"/>
<path class="st3" d="M92.5,17.8v-0.1c-1.8,0-2.5-0.4-3-0.9c-0.8-0.6-0.8-1.6-0.8-1.7v-1.4h-0.1v1.4c0,0.1,0,1.1,0.9,1.7
	C90,17.3,90.7,17.8,92.5,17.8z"/>
<path class="st10" d="M90.7,5c0,0-0.8,0-1.2-0.2c-0.5-0.3-0.6-1.2-0.6-1.2h-0.2v2.6c0,0,0.3-0.6,1.1-0.9C90.4,5,90.7,5,90.7,5z"/>
<linearGradient id="SVGID_5_" gradientUnits="userSpaceOnUse" x1="-406.7134" y1="631.0704" x2="-351.3207" y2="631.0704" gradientTransform="matrix(-0.2954 0 0 0.2954 -33.7227 -181.496)">
	<stop  offset="6.967210e-02" style="stop-color:#283224"/>
	<stop  offset="1" style="stop-color:#273123"/>
</linearGradient>
<path class="st11" d="M86.3,5.1c-0.2-0.4-0.7-0.4-0.7-0.4L71.4,4.5c0,0-0.6,0-1,0.3c-0.2,0.2-0.3,0.4-0.3,0.6V5.3
	c0-1.2,0.9-1.2,0.9-1.2s13.6,0.2,14.6,0.2c0.9,0,0.9,0.7,0.9,0.7v0.7l0,0C86.5,5.7,86.5,5.4,86.3,5.1z"/>
<path class="st10" d="M88.7,3.8c0,0-0.2,0-0.2-0.1c-0.1-0.1-0.1-0.2-0.1-0.2L68.8,3.2l0.1,0.3L88.7,3.8z"/>
<path class="st12" d="M68.7,3.2l19.6,0.3c0,0-0.1-0.1-0.1-0.2S88.3,3,88.3,3L68.7,2.8c0,0-0.1,0-0.1,0.2C68.6,3.1,68.7,3.2,68.7,3.2
	z"/>
<linearGradient id="SVGID_6_" gradientUnits="userSpaceOnUse" x1="-381.086" y1="614.5284" x2="-381.0859" y2="624.6832" gradientTransform="matrix(-0.2954 0 0 0.2954 -33.7227 -181.496)">
	<stop  offset="0" style="stop-color:#686868"/>
	<stop  offset="0.1789" style="stop-color:#5E5E5E"/>
	<stop  offset="0.4862" style="stop-color:#424243"/>
	<stop  offset="0.8823" style="stop-color:#161617"/>
	<stop  offset="1" style="stop-color:#070709"/>
</linearGradient>
<path class="st13" d="M68.8,0l-0.1,2.7l19.8,0.2L89,2.1c0,0-2.1-0.6-9.1-1.5C72.8-0.2,68.8,0,68.8,0z"/>
<linearGradient id="SVGID_7_" gradientUnits="userSpaceOnUse" x1="-504.6741" y1="668.308" x2="-415.3742" y2="668.308" gradientTransform="matrix(-0.2954 0 0 0.2954 -33.7227 -181.496)">
	<stop  offset="0" style="stop-color:#4A5B42"/>
	<stop  offset="0.8566" style="stop-color:#8A9D8F"/>
	<stop  offset="1" style="stop-color:#8B9E93"/>
</linearGradient>
<path class="st14" d="M115.4,16l-0.1,1.3l-22.7-0.8c0,0-1.9,0-2.6-0.7s-0.9-1.3-0.9-1.3s2.1,0.6,4.3,0.8
	C95.4,15.4,115.4,16,115.4,16z"/>
<linearGradient id="SVGID_8_" gradientUnits="userSpaceOnUse" x1="-534.4774" y1="714.3633" x2="-409.474" y2="714.3633" gradientTransform="matrix(-0.2954 0 0 0.2954 -33.7227 -181.496)">
	<stop  offset="0" style="stop-color:#515150"/>
	<stop  offset="1" style="stop-color:#0E1014"/>
</linearGradient>
<path class="st15" d="M124.2,25.8c0,0,0.1,0.6-0.7,0.2c-0.8-0.4-3.8-2.4-8.5-2.2s-7.8,2.1-11.2,4.7c-3.4,2.7-6.9,5-11.3,6.8
	c-3.3,1.3-5.1,1.1-5.1,1.1s4.5-0.3,11.3-4.8s9.7-9.1,17.2-9C121.6,22.7,124.1,25.4,124.2,25.8z"/>
<path class="st16" d="M124.2,26.7c0,0-0.6-0.2-1.8-0.6c-1.1-0.4-2.8-1.1-4.2-1.4c-2.9-0.6-7.5-0.1-10.9,2.1
	c-3.5,2.3-6.2,4.3-9.6,6.3s-6.1,3-7.7,3.5c-1.6,0.4-3.1,0.5-3.1,0.5l-0.1,0.1c0,0,1.4,0.1,3.4-0.6c2.6-0.9,4.6-1.7,7.7-3.5
	c3.1-1.8,5.7-3.8,7.6-4.9c1.9-1.2,4.2-3.2,9.2-3.5C119.8,24.4,122.7,26.8,124.2,26.7z"/>
<path class="st17" d="M68.6,3c0-0.1,0.1-0.2,0.1-0.2h0.1c-0.1,0.1,0,0.2,0.4,0.2s17.7,0.1,19.1,0.2c0,0,0,0,0,0.1s0.1,0.2,0.1,0.2
	L68.8,3.2C68.7,3.2,68.6,3.1,68.6,3z"/>
<polygon class="st16" points="67.3,36.2 86.9,36.5 86.9,37.2 67.3,37 "/>
<linearGradient id="SVGID_9_" gradientUnits="userSpaceOnUse" x1="-414.7688" y1="669.4929" x2="-337.58" y2="669.4929" gradientTransform="matrix(-0.2954 0 0 0.2954 -33.7227 -181.496)">
	<stop  offset="0" style="stop-color:#4A5B42"/>
	<stop  offset="0.5697" style="stop-color:#8A9D8F"/>
	<stop  offset="0.7839" style="stop-color:#889B8D"/>
	<stop  offset="0.8627" style="stop-color:#839586"/>
	<stop  offset="0.9191" style="stop-color:#798B7A"/>
	<stop  offset="0.9645" style="stop-color:#6B7D6A"/>
	<stop  offset="1" style="stop-color:#5B6C56"/>
</linearGradient>
<path class="st18" d="M69.7,15.7c-2.7,0-3.7-0.2-3.7-0.2s-0.1,0.8,1.3,1.2c0.7,0.2,12,0.2,14.8,0.2s6.7,0.1,6.7,0.1l-0.7-1
	C88.1,16,72.5,15.7,69.7,15.7z"/>
<rect x="0.6" y="11.2" class="st2" width="62.6" height="12.3"/>
<rect x="0.6" y="23.7" class="st2" width="62.6" height="0.7"/>
<rect x="62.3" y="24.1" class="st19" width="0.9" height="3.3"/>
<rect x="41.9" y="24.1" class="st19" width="0.9" height="3.3"/>
<rect x="21.4" y="24.1" class="st19" width="0.9" height="3.3"/>
<rect x="0.7" y="24.1" class="st19" width="0.9" height="3.3"/>
<rect x="62.3" y="25.7" class="st20" width="0.9" height="1.7"/>
<rect x="41.9" y="25.7" class="st20" width="0.9" height="1.7"/>
<rect x="21.4" y="25.7" class="st20" width="0.9" height="1.7"/>
<rect x="0.7" y="25.7" class="st20" width="0.9" height="1.7"/>
<linearGradient id="SVGID_10_" gradientUnits="userSpaceOnUse" x1="-509.3864" y1="668.2698" x2="-509.3864" y2="674.2191" gradientTransform="matrix(-0.2954 0 0 0.2954 -33.7227 -181.496)">
	<stop  offset="0" style="stop-color:#B2B19D"/>
	<stop  offset="5.523817e-02" style="stop-color:#A09F8D"/>
	<stop  offset="0.2218" style="stop-color:#706F63"/>
	<stop  offset="0.3876" style="stop-color:#484740"/>
	<stop  offset="0.5495" style="stop-color:#292825"/>
	<stop  offset="0.7066" style="stop-color:#131212"/>
	<stop  offset="0.8565" style="stop-color:#060506"/>
	<stop  offset="0.9918" style="stop-color:#010002"/>
</linearGradient>
<path class="st21" d="M117.6,15.9c-0.1,0-1.7,0-1.7,0v1.7h1.7V15.9z"/>
<linearGradient id="SVGID_11_" gradientUnits="userSpaceOnUse" x1="-449.6741" y1="718.0711" x2="-343.163" y2="718.0711" gradientTransform="matrix(-0.2954 0 0 0.2954 -33.7227 -181.496)">
	<stop  offset="3.278690e-02" style="stop-color:#4A5B42"/>
	<stop  offset="0.6967" style="stop-color:#8A9D8F"/>
	<stop  offset="1" style="stop-color:#4A5B42"/>
</linearGradient>
<path class="st22" d="M99.2,30.7l-31.5-0.6c0,0-0.1,0.3,0.3,0.4c0.4,0.1,30.6,0.6,30.6,0.6L99.2,30.7z"/>
<rect x="95.7" y="19.6" class="st3" width="19.9" height="0.1"/>
<rect x="95.6" y="15" class="st3" width="0.1" height="16.2"/>
<path class="st3" d="M115.7,18.3v-0.2l-48.9-1c-0.1,0-1.1,0.1-1.4-0.8l-0.1,0.1c0.4,1,1.5,0.9,1.5,0.9L115.7,18.3z"/>
<rect x="73.8" y="17.1" transform="matrix(1.307536e-02 -0.9999 0.9999 1.307536e-02 69.1607 104.3919)" class="st3" width="27.4" height="0.1"/>
<g>
	<path class="st2" d="M87.2,19.2c0,0.1,0.1,0.2,0.2,0.2l0,0c0.1,0,0.2-0.1,0.2-0.2v-0.9c0-0.1-0.1-0.2-0.2-0.2l0,0
		c-0.1,0-0.2,0.1-0.2,0.2V19.2z"/>
	<path class="st3" d="M87.1,19.2v-0.9c0-0.2,0.1-0.3,0.3-0.3s0.3,0.1,0.3,0.3v0.9c0,0.2-0.1,0.3-0.3,0.3
		C87.3,19.5,87.1,19.4,87.1,19.2z M87.3,18.3v0.9c0,0.1,0.1,0.1,0.1,0.1l0.1-0.1v-0.9c0-0.1-0.1-0.1-0.1-0.1S87.3,18.2,87.3,18.3z"
		/>
</g>
<g>
	<path class="st2" d="M87.1,26.8c0,0.1,0.1,0.2,0.2,0.2l0,0c0.1,0,0.2-0.1,0.2-0.2v-0.9c0-0.1-0.1-0.2-0.2-0.2l0,0
		c-0.1,0-0.2,0.1-0.2,0.2V26.8z"/>
	<path class="st3" d="M87.1,26.8v-0.9c0-0.2,0.1-0.3,0.3-0.3s0.3,0.1,0.3,0.3v0.9c0,0.2-0.1,0.3-0.3,0.3S87.1,26.9,87.1,26.8z
		 M87.2,25.9v0.9c0,0.1,0.1,0.1,0.1,0.1l0.1-0.1v-0.9C87.4,25.8,87.3,25.8,87.2,25.9C87.3,25.8,87.2,25.8,87.2,25.9z"/>
</g>
<rect x="55.2" y="17.1" transform="matrix(1.561313e-02 -0.9999 0.9999 1.561313e-02 50.7731 85.8165)" class="st3" width="27.6" height="0.1"/>
<polygon class="st0" points="67.5,30.5 98.6,31.1 97.5,31.9 67.4,31.2 "/>
<linearGradient id="SVGID_12_" gradientUnits="userSpaceOnUse" x1="-444.2206" y1="722.1334" x2="-340.9017" y2="722.1334" gradientTransform="matrix(-0.2954 0 0 0.2954 -33.7227 -181.496)">
	<stop  offset="0" style="stop-color:#BBBABB"/>
	<stop  offset="1" style="stop-color:#3E3E3D"/>
</linearGradient>
<path class="st23" d="M97.5,31.9l-30.3-0.7c0,0-0.3,0.1-0.2,0.4c0,0.2,0.2,0.3,0.2,0.3l29.4,0.5L97.5,31.9z"/>
<rect x="0.5" y="14" class="st3" width="62.8" height="0.3"/>
<rect x="0.5" y="17.2" class="st3" width="62.8" height="0.3"/>
<rect x="0.5" y="20.3" class="st3" width="62.8" height="0.3"/>
<rect x="0.5" y="23.4" class="st3" width="62.8" height="0.3"/>
<g>
	<rect x="40.1" y="11" class="st2" width="0.8" height="13.6"/>
	<path class="st3" d="M40,11h0.9v13.8H40V11z M40.8,11.1h-0.7v13.5h0.6V11.1H40.8z"/>
</g>
<g>
	<rect x="58.6" y="11" class="st2" width="0.8" height="13.6"/>
	<path class="st3" d="M58.6,11h0.9v13.8h-0.9V11z M59.4,11.1h-0.6v13.5h0.6V11.1z"/>
</g>
<g>
	<rect x="23.4" y="11" class="st2" width="0.8" height="13.6"/>
	<path class="st3" d="M23.3,11h0.9v13.8h-0.9V11z M24.1,11.1h-0.6v13.5h0.6V11.1z"/>
</g>
<g>
	<rect x="4.6" y="11" class="st2" width="0.8" height="13.6"/>
	<path class="st3" d="M4.6,11h0.9v13.8H4.6V11z M5.4,11.1H4.8v13.5h0.6V11.1z"/>
</g>
<polygon class="st3" points="40.6,12 40.7,11.8 40.6,11.6 40.3,11.6 40.2,11.8 40.3,12 "/>
<polygon class="st3" points="40.6,13.8 40.7,13.6 40.6,13.4 40.3,13.4 40.2,13.6 40.3,13.8 "/>
<polygon class="st3" points="40.6,15.2 40.7,15 40.6,14.8 40.3,14.8 40.2,15 40.3,15.2 "/>
<polygon class="st3" points="40.6,16.9 40.7,16.7 40.6,16.5 40.3,16.5 40.2,16.7 40.3,16.9 "/>
<polygon class="st3" points="40.6,18.1 40.7,17.9 40.6,17.7 40.3,17.7 40.2,17.9 40.3,18.1 "/>
<polygon class="st3" points="40.6,20.1 40.7,19.9 40.6,19.7 40.3,19.7 40.2,19.9 40.3,20.1 "/>
<polygon class="st3" points="40.6,21.2 40.7,21 40.6,20.8 40.3,20.8 40.2,21 40.3,21.2 "/>
<polygon class="st3" points="40.6,23.1 40.7,22.9 40.6,22.7 40.3,22.7 40.2,22.9 40.3,23.1 "/>
<polygon class="st3" points="40.6,24.3 40.7,24.1 40.6,23.9 40.3,23.9 40.2,24.1 40.3,24.3 "/>
<polygon class="st3" points="59.1,12 59.3,11.8 59.1,11.6 58.9,11.6 58.8,11.8 58.9,12 "/>
<polygon class="st3" points="59.1,13.8 59.3,13.6 59.1,13.4 58.9,13.4 58.8,13.6 58.9,13.8 "/>
<polygon class="st3" points="59.1,15.2 59.3,15 59.1,14.8 58.9,14.8 58.8,15 58.9,15.2 "/>
<polygon class="st3" points="59.1,16.9 59.3,16.7 59.1,16.5 58.9,16.5 58.8,16.7 58.9,16.9 "/>
<polygon class="st3" points="59.1,18.1 59.3,17.9 59.1,17.7 58.9,17.7 58.8,17.9 58.9,18.1 "/>
<polygon class="st3" points="59.1,20.1 59.3,19.9 59.1,19.7 58.9,19.7 58.8,19.9 58.9,20.1 "/>
<polygon class="st3" points="59.1,21.2 59.3,21 59.1,20.8 58.9,20.8 58.8,21 58.9,21.2 "/>
<polygon class="st3" points="59.1,23.1 59.3,22.9 59.1,22.7 58.9,22.7 58.8,22.9 58.9,23.1 "/>
<polygon class="st3" points="59.1,24.3 59.3,24.1 59.1,23.9 58.9,23.9 58.8,24.1 58.9,24.3 "/>
<polygon class="st3" points="23.9,12 24.1,11.8 23.9,11.6 23.7,11.6 23.6,11.8 23.7,12 "/>
<polygon class="st3" points="23.9,13.8 24.1,13.6 23.9,13.3 23.7,13.3 23.6,13.6 23.7,13.8 "/>
<polygon class="st3" points="23.9,15.2 24.1,15 23.9,14.8 23.7,14.8 23.6,15 23.7,15.2 "/>
<polygon class="st3" points="23.9,16.9 24.1,16.7 23.9,16.5 23.7,16.5 23.6,16.7 23.7,16.9 "/>
<polygon class="st3" points="23.9,18.1 24.1,17.9 23.9,17.7 23.7,17.7 23.6,17.9 23.7,18.1 "/>
<polygon class="st3" points="23.9,20 24.1,19.9 23.9,19.7 23.7,19.7 23.6,19.9 23.7,20 "/>
<polygon class="st3" points="23.9,21.2 24.1,21 23.9,20.8 23.7,20.8 23.6,21 23.7,21.2 "/>
<polygon class="st3" points="23.9,23.1 24.1,22.9 23.9,22.7 23.7,22.7 23.6,22.9 23.7,23.1 "/>
<polygon class="st3" points="23.9,24.2 24.1,24.1 23.9,23.9 23.7,23.9 23.6,24.1 23.7,24.2 "/>
<polygon class="st3" points="5.1,12 5.2,11.8 5.1,11.6 4.9,11.6 4.8,11.8 4.9,12 "/>
<polygon class="st3" points="5.1,13.7 5.2,13.5 5.1,13.3 4.9,13.3 4.8,13.5 4.9,13.7 "/>
<polygon class="st3" points="5.1,15.2 5.2,15 5.1,14.8 4.9,14.8 4.8,15 4.9,15.2 "/>
<polygon class="st3" points="5.1,16.9 5.2,16.7 5.1,16.5 4.9,16.5 4.8,16.7 4.9,16.9 "/>
<polygon class="st3" points="5.1,18 5.2,17.8 5.1,17.7 4.9,17.7 4.8,17.8 4.9,18 "/>
<polygon class="st3" points="5.1,20 5.2,19.8 5.1,19.6 4.9,19.6 4.8,19.8 4.9,20 "/>
<polygon class="st3" points="5.1,21.2 5.2,21 5.1,20.8 4.9,20.8 4.8,21 4.9,21.2 "/>
<polygon class="st3" points="5.1,23.1 5.2,22.9 5.1,22.7 4.9,22.7 4.8,22.9 4.9,23.1 "/>
<polygon class="st3" points="5.1,24.2 5.2,24 5.1,23.8 4.9,23.8 4.8,24 4.9,24.2 "/>
<g>

		<linearGradient id="SVGID_13_" gradientUnits="userSpaceOnUse" x1="-403.2221" y1="651.0474" x2="-390.768" y2="663.5016" gradientTransform="matrix(-0.2954 0 0 0.2954 -33.7227 -181.496)">
		<stop  offset="3.688520e-02" style="stop-color:#494A4A"/>
		<stop  offset="0.3238" style="stop-color:#9A9A99"/>
		<stop  offset="0.6721" style="stop-color:#BABABA"/>
	</linearGradient>
	<path class="st24" d="M81.6,14.3l3.1-3.6c0.1-0.2,0.4-0.2,0.6,0c0.1,0.1,0.2,0.4,0,0.6l-2.7,3.1L81.6,14.3L81.6,14.3z"/>
	<path class="st25" d="M84.7,10.6c0.1-0.2,0.5-0.2,0.6-0.1s0.1,0.2,0.1,0.3s0,0.2-0.1,0.3l-2.7,3.1h-1.2L84.7,10.6z M85.3,11.1
		c0.1-0.1,0.1-0.1,0.1-0.2s-0.1-0.1-0.1-0.2c-0.1-0.1-0.3-0.1-0.4,0l-3,3.5h0.8L85.3,11.1z"/>
</g>
<linearGradient id="SVGID_14_" gradientUnits="userSpaceOnUse" x1="-406.7749" y1="661.199" x2="-351.3742" y2="661.199" gradientTransform="matrix(-0.2954 0 0 0.2954 -33.7227 -181.496)">
	<stop  offset="0" style="stop-color:#4A5B42"/>
	<stop  offset="0.8566" style="stop-color:#8A9D8F"/>
	<stop  offset="1" style="stop-color:#8B9E93"/>
</linearGradient>
<path class="st26" d="M70.4,13.8c0.3,0.4,0.8,0.3,0.8,0.3s13.4,0,14,0s0.7,0,1-0.2c0.2-0.1,0.2-0.4,0.3-0.6l0,0V14
	c0,0,0,0.5-0.6,0.5s-14.9,0-14.9,0s-0.5-0.1-0.7-0.4s-0.2-0.5-0.2-0.5v-0.5l0,0C70.2,13.3,70.2,13.6,70.4,13.8z"/>
<g>

		<linearGradient id="SVGID_15_" gradientUnits="userSpaceOnUse" x1="-410.7066" y1="641.0745" x2="-410.7066" y2="636.5219" gradientTransform="matrix(-0.2954 0 0 0.2954 -33.7227 -181.496)">
		<stop  offset="3.688520e-02" style="stop-color:#2B2C2C"/>
		<stop  offset="1" style="stop-color:#9A9A99"/>
	</linearGradient>
	<path class="st27" d="M87.3,7.5c0,0.2,0.1,0.3,0.3,0.3l0,0c0.2,0,0.3-0.1,0.3-0.3V6.8c0-0.2-0.1-0.3-0.3-0.3l0,0
		c-0.2,0-0.3,0.1-0.3,0.3V7.5z"/>
	<path class="st25" d="M87.2,7.5V6.8c0-0.2,0.2-0.4,0.4-0.4S88,6.6,88,6.8v0.7c0,0.2-0.2,0.4-0.4,0.4S87.2,7.7,87.2,7.5z M87.3,6.8
		v0.7c0,0.1,0.1,0.2,0.2,0.2s0.2-0.1,0.2-0.2V6.8c0-0.1-0.1-0.2-0.2-0.2S87.3,6.7,87.3,6.8z"/>
</g>
<g>

		<linearGradient id="SVGID_16_" gradientUnits="userSpaceOnUse" x1="-406.3059" y1="644.7161" x2="-406.3059" y2="631.6038" gradientTransform="matrix(-0.2954 0 0 0.2954 -33.7227 -181.496)">
		<stop  offset="3.688520e-02" style="stop-color:#2B2C2C"/>
		<stop  offset="1" style="stop-color:#9A9A99"/>
	</linearGradient>
	<ellipse class="st28" cx="86.3" cy="7" rx="0.6" ry="1.9"/>
	<path class="st25" d="M85.7,7c0-1,0.2-2,0.6-2c0.4,0,0.6,1,0.6,2s-0.2,2-0.6,2S85.7,8,85.7,7z M85.8,7c0,1.1,0.3,1.9,0.5,1.9
		s0.5-0.8,0.5-1.9s-0.3-1.9-0.5-1.9S85.8,5.9,85.8,7z"/>
</g>
<g>
	<path class="st29" d="M69.8,16.5c0,0.3,0.2,0.5,0.5,0.5h0.1c0.3,0,0.5-0.2,0.5-0.5l0,0c0-0.3-0.2-0.5-0.5-0.5h-0.1
		C70,16,69.8,16.2,69.8,16.5L69.8,16.5z"/>
	<path class="st25" d="M69.7,16.5c0-0.3,0.2-0.6,0.6-0.6h0.1c0.3,0,0.6,0.2,0.6,0.6s-0.2,0.6-0.6,0.6h-0.1
		C70,17,69.7,16.8,69.7,16.5z M70.3,16.1c-0.2,0-0.4,0.2-0.4,0.4c0,0.2,0.2,0.4,0.4,0.4h0.1c0.2,0,0.4-0.2,0.4-0.4
		C70.8,16.3,70.6,16.1,70.3,16.1L70.3,16.1z"/>
</g>
<g>
	<path class="st29" d="M70.2,16.5c0,0.1,0.1,0.2,0.2,0.2h2.1c0.1,0,0.2-0.1,0.2-0.2l0,0c0-0.1-0.1-0.2-0.2-0.2h-2.1
		C70.3,16.3,70.2,16.4,70.2,16.5L70.2,16.5z"/>
	<path class="st25" d="M70.2,16.5c0-0.1,0.1-0.3,0.2-0.3h2.1c0.1,0,0.3,0.1,0.3,0.3c0,0.1-0.1,0.3-0.3,0.3h-2.1
		C70.3,16.8,70.2,16.7,70.2,16.5z M70.4,16.4c-0.1,0-0.1,0.1-0.1,0.1l0.1,0.1h2.1c0.1,0,0.1-0.1,0.1-0.1c0-0.1-0.1-0.1-0.1-0.1H70.4
		z"/>
</g>
<g>
	<path class="st30" d="M86.2,7.1c0,0.1,0.1,0.3,0.3,0.3h0.8c0.1,0,0.3-0.1,0.3-0.3l0,0c0-0.1-0.1-0.3-0.3-0.3h-0.8
		C86.3,6.8,86.2,7,86.2,7.1L86.2,7.1z"/>
	<path class="st25" d="M86.2,7.1c0-0.2,0.1-0.3,0.3-0.3h0.8c0.2,0,0.3,0.1,0.3,0.3c0,0.2-0.1,0.3-0.3,0.3h-0.8
		C86.3,7.4,86.2,7.3,86.2,7.1z M86.5,6.9c-0.1,0-0.2,0.1-0.2,0.2s0.1,0.2,0.2,0.2h0.8c0.1,0,0.2-0.1,0.2-0.2s-0.1-0.2-0.2-0.2H86.5z
		"/>
</g>
<g class="wheel_1">

		<radialGradient id="SVGID_17_" cx="2116.1003" cy="746.9545" r="35.8" gradientTransform="matrix(0.2954 0 0 0.2954 -593.2028 -181.496)" gradientUnits="userSpaceOnUse">
		<stop  offset="0.8975" style="stop-color:#4E5254"/>
		<stop  offset="1" style="stop-color:#242626"/>
	</radialGradient>
	<circle class="st31" cx="31.8" cy="39.1" r="10.6"/>

		<radialGradient id="SVGID_18_" cx="2116.1003" cy="746.9545" r="26.1516" gradientTransform="matrix(0.2954 0 0 0.2954 -593.2028 -181.496)" gradientUnits="userSpaceOnUse">
		<stop  offset="0.9016" style="stop-color:#0C0D0C"/>
		<stop  offset="1" style="stop-color:#4E5254"/>
	</radialGradient>
	<circle class="st32" cx="31.8" cy="39.1" r="7.7"/>
	<circle class="st33" cx="31.8" cy="39.1" r="6.6"/>

		<radialGradient id="SVGID_19_" cx="2116.0527" cy="746.9542" r="20.5506" gradientTransform="matrix(0.2954 0 0 0.2954 -593.2028 -181.496)" gradientUnits="userSpaceOnUse">
		<stop  offset="0.5574" style="stop-color:#4E5254"/>
		<stop  offset="1" style="stop-color:#8D8F91"/>
	</radialGradient>
	<path class="st34" d="M37.9,39.1c0,3.3-2.7,6.1-6.1,6.1c-3.3,0-6.1-2.7-6.1-6.1s2.7-6.1,6.1-6.1C35.2,33,37.9,35.7,37.9,39.1z"/>
	<circle class="st33" cx="31.8" cy="39.1" r="3.1"/>
	<circle class="st35" cx="31.8" cy="39.1" r="2.7"/>

		<radialGradient id="SVGID_20_" cx="2116.0522" cy="746.9545" r="5.1859" gradientTransform="matrix(0.2954 0 0 0.2954 -593.2028 -181.496)" gradientUnits="userSpaceOnUse">
		<stop  offset="0.5615" style="stop-color:#8D8F91"/>
		<stop  offset="1" style="stop-color:#4E5254"/>
	</radialGradient>
	<circle class="st36" cx="31.8" cy="39.1" r="1.5"/>
	<circle class="st33" cx="31.8" cy="39.1" r="1.3"/>
	<path class="st37" d="M29.9,43.8c0-0.5,1.1-1.2,1.5-1.2s1.4,0.9,1.4,1.4s-0.7,0.9-1.5,0.9C30.4,44.8,29.8,44.3,29.9,43.8z"/>
	<path class="st37" d="M30.8,34.3c0.2,0.5-0.3,1.6-0.6,1.8s-1.6,0-1.9-0.4c-0.2-0.5,0.1-1.1,0.8-1.5C29.8,33.8,30.5,33.8,30.8,34.3z
		"/>
	<path class="st37" d="M36.1,36.7c-0.4,0.4-1.6,0.2-1.9-0.1s-0.5-1.5-0.2-1.9c0.4-0.4,1.1-0.2,1.7,0.3
		C36.3,35.5,36.4,36.3,36.1,36.7z"/>
	<path class="st37" d="M35.6,42.4c-0.5-0.2-0.7-1.5-0.6-1.9s1.3-1,1.8-0.8s0.6,1,0.2,1.7C36.7,42.2,36,42.6,35.6,42.4z"/>
	<path class="st37" d="M26.8,38.6c0.5-0.1,1.5,0.7,1.5,1.2c0.1,0.4-0.5,1.6-1,1.7c-0.5,0.1-1.1-0.4-1.2-1.2
		C26,39.4,26.3,38.7,26.8,38.6z"/>
	<path class="st33" d="M31.8,44.9c-3.2,0-5.8-2.6-5.8-5.8s2.6-5.8,5.8-5.8c3.2,0,5.8,2.6,5.8,5.8S35,44.9,31.8,44.9z M31.8,33.6
		c-3,0-5.5,2.5-5.5,5.5s2.5,5.5,5.5,5.5s5.5-2.5,5.5-5.5S34.9,33.6,31.8,33.6z"/>
</g>
<g class="wheel_2">

		<radialGradient id="SVGID_21_" cx="2403.3503" cy="746.9545" r="35.8" gradientTransform="matrix(0.2954 0 0 0.2954 -593.2028 -181.496)" gradientUnits="userSpaceOnUse">
		<stop  offset="0.8975" style="stop-color:#4E5254"/>
		<stop  offset="1" style="stop-color:#242626"/>
	</radialGradient>
	<circle class="st38" cx="116.7" cy="39.1" r="10.6"/>

		<radialGradient id="SVGID_22_" cx="2403.3503" cy="746.9545" r="26.1516" gradientTransform="matrix(0.2954 0 0 0.2954 -593.2028 -181.496)" gradientUnits="userSpaceOnUse">
		<stop  offset="0.9016" style="stop-color:#0C0D0C"/>
		<stop  offset="1" style="stop-color:#4E5254"/>
	</radialGradient>
	<circle class="st39" cx="116.7" cy="39.1" r="7.7"/>
	<circle class="st33" cx="116.7" cy="39.1" r="6.6"/>

		<radialGradient id="SVGID_23_" cx="2403.3027" cy="746.9542" r="20.5506" gradientTransform="matrix(0.2954 0 0 0.2954 -593.2028 -181.496)" gradientUnits="userSpaceOnUse">
		<stop  offset="0.5574" style="stop-color:#4E5254"/>
		<stop  offset="1" style="stop-color:#8D8F91"/>
	</radialGradient>
	<path class="st40" d="M122.7,39.1c0,3.3-2.7,6.1-6.1,6.1s-6.1-2.7-6.1-6.1s2.7-6.1,6.1-6.1C120,33,122.7,35.7,122.7,39.1z"/>
	<circle class="st33" cx="116.7" cy="39.1" r="3.1"/>
	<circle class="st35" cx="116.7" cy="39.1" r="2.7"/>

		<radialGradient id="SVGID_24_" cx="2403.3022" cy="746.9545" r="5.1859" gradientTransform="matrix(0.2954 0 0 0.2954 -593.2028 -181.496)" gradientUnits="userSpaceOnUse">
		<stop  offset="0.5615" style="stop-color:#8D8F91"/>
		<stop  offset="1" style="stop-color:#4E5254"/>
	</radialGradient>
	<circle class="st41" cx="116.7" cy="39.1" r="1.5"/>
	<circle class="st33" cx="116.7" cy="39.1" r="1.3"/>
	<path class="st37" d="M114.7,43.8c0-0.5,1.1-1.2,1.5-1.2s1.4,0.9,1.4,1.4s-0.7,0.9-1.5,0.9C115.3,44.8,114.7,44.3,114.7,43.8z"/>
	<path class="st37" d="M115.6,34.3c0.2,0.5-0.3,1.6-0.6,1.8s-1.6,0-1.9-0.4c-0.2-0.5,0.1-1.1,0.8-1.5
		C114.6,33.8,115.4,33.8,115.6,34.3z"/>
	<path class="st37" d="M120.9,36.7c-0.4,0.4-1.6,0.2-1.9-0.1c-0.3-0.3-0.5-1.5-0.2-1.9s1.1-0.2,1.7,0.3
		C121.1,35.5,121.3,36.3,120.9,36.7z"/>
	<path class="st37" d="M120.4,42.4c-0.5-0.2-0.7-1.5-0.6-1.9c0.2-0.4,1.3-1,1.8-0.8s0.6,1,0.2,1.7C121.5,42.2,120.9,42.6,120.4,42.4
		z"/>
	<path class="st37" d="M111.7,38.6c0.5-0.1,1.5,0.7,1.5,1.2c0.1,0.4-0.5,1.6-1,1.7c-0.5,0.1-1.1-0.4-1.2-1.2
		C110.9,39.4,111.2,38.7,111.7,38.6z"/>
	<path class="st33" d="M116.7,44.9c-3.2,0-5.8-2.6-5.8-5.8s2.6-5.8,5.8-5.8s5.8,2.6,5.8,5.8C122.4,42.3,119.8,44.9,116.7,44.9z
		 M116.7,33.6c-3,0-5.5,2.5-5.5,5.5s2.5,5.5,5.5,5.5s5.5-2.5,5.5-5.5S119.7,33.6,116.7,33.6z"/>
</g>

</svg>
