<?xml version="1.0" encoding="utf-8"?>
<!-- Generator: Adobe Illustrator 18.1.1, SVG Export Plug-In . SVG Version: 6.00 Build 0)  -->
<svg version="1.1" id="Layer_1" xmlns="http://www.w3.org/2000/svg" xmlns:xlink="http://www.w3.org/1999/xlink" x="0px" y="0px"
	 viewBox="0 0 434.6 204.9" enable-background="new 0 0 434.6 204.9" xml:space="preserve">
<ellipse opacity="0.6" fill="#857C6F" enable-background="new    " cx="217.5" cy="185.7" rx="217.1" ry="19.2"/>
<g>
	<polygon opacity="0.3" fill="#4888C8" enable-background="new    " points="266.9,43.2 314.7,43.2 331.6,67.4 327.9,75.5 
		266.9,86.4 	"/>
	<rect x="0.3" y="85.9" fill="#994522" width="243.2" height="45.7"/>
	<path fill="#4E231A" d="M145.5,131.7c0,0-11-17.6-34.6-16c-23.7,1.6-32.7,16-32.7,16H145.5z"/>
	<path fill="#D9C173" d="M252.3,132.8h77.6l0.4,3.9l2.4,0.1l3.7-3l88.4,0.3v-0.6l0.1-2.4c0,0-0.3-35.1-0.5-38.9
		c-0.3-3.8,0.5-5-0.9-7.4c-1.4-2.4-6.5-3.3-20.4-6.8c-13.9-3.5-46-6.9-56.3-7.8c-8.9-0.8-13.9-0.9-13.9-0.9S312.5,40,311,37.8
		c-1.5-2.1-5-3.1-8.7-3.4c-3.7-0.3-31-1.4-41.4,0.9c-10.5,2.3-8.4,14.6-8.4,14.6s-0.8,24.8-0.6,29.4c0.1,4.5-1.9,7.8-1.9,7.8
		s0.4,35.5,0,39.8C249.5,131.2,252.3,132.8,252.3,132.8z M323.6,63c-2.8-4.1-10.4-15.3-11.1-17.5c-0.7-2.2,2.3-2.4,2.3-2.4
		l16.9,24.2c0,0-1.3,2-2.4,2C327.8,69.2,325.3,65.6,323.6,63z M304.5,49.1c0,0,2.3-0.5,3.8,2l13.8,21.2c0,0,2,2.9-2,2.9
		c-3.9,0-13.7,0-13.7,0s-2,0.3-2-2.5C304.5,70,304.5,49.1,304.5,49.1z M272.1,71.5V51.6c0,0-0.2-2.6,3-2.6c3.2,0,27,0,27,0v26.2
		h-26.2c0,0-1.3,0-2.7-1.1C271.8,73,272.1,71.5,272.1,71.5z"/>
	<path fill="#994522" d="M249.9,126.9c0.4-4.1,0-37.4,0-39.7h174.4c0.1,1.3-0.1,2.6,0.1,4.9c0.3,3.8,0.5,38.9,0.5,38.9l-0.1,2.4v0.6
		l-88.4-0.3l-3.7,3l-2.4-0.1l-0.4-3.9h-77.6C252.3,132.8,249.5,131.2,249.9,126.9z"/>
	
		<linearGradient id="SVGID_1_" gradientUnits="userSpaceOnUse" x1="10.2656" y1="110.8693" x2="17.2783" y2="110.8693" gradientTransform="matrix(-1 0 0 1 434.6416 0)">
		<stop  offset="7.983190e-002" style="stop-color:#802B19"/>
		<stop  offset="0.5462" style="stop-color:#994522"/>
		<stop  offset="0.8866" style="stop-color:#994522"/>
	</linearGradient>
	<rect x="417.4" y="87.3" fill="url(#SVGID_1_)" width="7" height="47.1"/>
	<path fill="#BE934C" d="M251.8,79.3c-0.1-4.5,0.6-29.4,0.6-29.4s-1.6-9.6,5.2-13.4c-0.2,0.3-0.7,1.5,0,5.7c0.5,2.9,2.6,4.6,2.6,4.6
		s-0.6,27.1-0.2,31.9c0.4,4.8-1.4,8.7-1.9,8.7c-0.5,0-8.3-0.1-8.3-0.1v0c0-0.1,0-0.1,0-0.1S251.9,83.8,251.8,79.3z"/>
	<path fill="#7D3219" d="M258.2,87.3l-0.1,0.9c0,0,0.1,29.2,0.1,33.8c0,4.5,1.4,8.2,10.1,8.2c8.7,0,64.9,0,64.9,0l1.3,0.4l-1.9,4.7
		c0,0-0.9,0.1-2.4,0.3l-0.3-2.7h-77.6c0,0-2.8-1.6-2.4-5.9c0.4-4,0-35.9,0-39.5L258.2,87.3z"/>
	<rect x="141.8" y="134" fill="#0F0D09" width="191.8" height="14.8"/>
	<path fill="#7D3219" d="M142,131.5c-6.8-8.4-18.9-15.4-30.6-15.4c-11.7,0-24.1,6.9-30.9,15.4h-7.7c7.7-12.1,21.3-20.2,36.7-20.2
		c15.4,0,29,8,36.7,20.2H142z"/>
	<path fill="#491D0D" d="M266.8,127c0,0.1-0.1,2.5,1.5,4.2c1.1,1.1,2.6,1.7,4.6,1.7c6.1,0,56.6,0.1,57.1,0.1l0.3,0l-0.5-56.6l0-0.1
		c-0.2-0.3-18.1-27-19.5-29.3c-1.4-2.3-3.4-3.5-9.6-3.5c-1.1,0-2.5,0-3.9,0c-8.9,0-22.4,0.1-22.7,0.1c0,0-0.1,0-0.1,0
		c-0.7,0-6.7,0.2-6.9,7.2C266.5,59.1,266.8,126.3,266.8,127z M267.3,127c0-0.7-0.3-68,0-76.1c0.2-6.4,5.4-6.7,6.4-6.7
		c0.1,0,0.1,0,0.1,0c0.2,0,13.7-0.1,22.7-0.1c1.4,0,2.7,0,3.9,0c6.1,0,7.8,1.1,9.2,3.3c1.4,2.2,18.5,27.8,19.5,29.2l0.5,55.9
		c-3.9,0-50.9-0.1-56.8-0.1c-1.8,0-3.3-0.5-4.2-1.5C267.2,129.3,267.3,127.1,267.3,127z"/>
	<path fill="#7E5722" d="M273,74.3c1.4,1.1,2.8,1.1,2.8,1.1h26.5V48.8l-0.3,0c0,0-23.8,0-27,0c-1.1,0-2,0.3-2.6,0.9
		c-0.8,0.8-0.7,1.9-0.7,2v19.9C271.8,71.5,271.6,73.1,273,74.3z M272.1,71.5V51.6c0,0-0.2-2.6,3-2.6c3.2,0,27,0,27,0v26.2h-26.2
		c0,0-1.3,0-2.7-1.1C271.8,73,272.1,71.5,272.1,71.5z"/>
	<path fill="#7E5722" d="M272.1,71.5c0,0-0.3,1.5,1.1,2.6c1.3,1.1,2.7,1.1,2.7,1.1h26.2V49c0,0-23.8,0-27,0c-3.2,0-3,2.6-3,2.6V71.5
		z M272.3,71.5l0-19.9c0,0,0-0.9,0.6-1.6c0.5-0.5,1.2-0.8,2.2-0.8c3,0,24.2,0,26.7,0v25.7h-25.9h0h0c0,0-1.3,0-2.5-1
		C272.1,72.9,272.3,71.6,272.3,71.5z"/>
	<rect x="252.9" y="49.8" fill="#491D0D" width="14.2" height="0.5"/>
	
		<rect x="341.1" y="87.1" transform="matrix(-1 1.501234e-003 -1.501234e-003 -1 765.618 174.222)" fill="#491D0D" width="83.3" height="0.5"/>
	
		<rect x="315.9" y="95.2" transform="matrix(-9.934067e-003 1 -1 -9.934067e-003 440.0629 -244.834)" fill="#491D0D" width="50.7" height="0.5"/>
	<rect x="417.1" y="87.3" fill="#491D0D" width="0.5" height="46.7"/>
	<rect x="385.1" y="107.4" fill="#491D0D" width="32.5" height="0.5"/>
	<rect x="341.1" y="107.4" fill="#491D0D" width="20.2" height="0.5"/>
	<path fill="#A84B25" d="M392.8,110.4c0,0,4.3-3,8.9-4c3.1-0.7,5.4,0.1,5.4,0.1v14.7c0,0-2-2.4-6.3-5.9
		C396.3,111.7,392.8,110.4,392.8,110.4z"/>
	<path fill="#7E5722" d="M312.2,45.6c0.7,2.2,8.5,13.8,11.1,17.5c2.1,3,4.4,6.3,5.8,6.4c0,0,0.1,0,0.1,0c1.2,0,2.4-1.9,2.5-2.1
		l0.1-0.1l-17-24.4l-0.1,0c-0.1,0-1.7,0.1-2.3,1.1C312.1,44.5,312,45,312.2,45.6z M314.7,43.2l16.9,24.2c0,0-1.3,2-2.4,2
		c-1.4-0.1-3.9-3.8-5.6-6.3c-2.8-4.1-10.4-15.3-11.1-17.5C311.8,43.4,314.7,43.2,314.7,43.2z"/>
	<path fill="#7E5722" d="M312.5,45.6c0.7,2.2,8.3,13.4,11.1,17.5c1.7,2.5,4.3,6.2,5.6,6.3c1.1,0.1,2.4-2,2.4-2l-16.9-24.2
		C314.7,43.2,311.8,43.4,312.5,45.6z M312.8,44.3c0.4-0.6,1.4-0.8,1.8-0.8l16.7,23.9c-0.4,0.6-1.3,1.7-2,1.7l-0.1,0
		c-1.3-0.1-4.1-4.2-5.5-6.2c-2.6-3.8-10.4-15.2-11.1-17.4C312.6,45,312.6,44.6,312.8,44.3z"/>
	<path fill="#0F0D09" d="M417.7,141.8h7.2v3.4h9.7V131h-9.8v3.1h-9.8c0,0,1,1.8,1.6,3.7C417.3,139.8,417.7,141.8,417.7,141.8z"/>
	<polygon fill="#0F0D09" points="407.8,148.8 416.7,146.6 416.5,142 406.6,142.4 	"/>
	<polygon fill="#0F0D09" points="337.1,147.6 326.9,148.3 326.8,152 336.6,153.3 	"/>
	<polygon fill="#0F0D09" points="83.9,134.2 30.6,134.2 30.6,143.4 60.5,143.4 79.4,147.3 	"/>
	<path fill="#7C7C7C" d="M278.7,81.6c0,0-5.5-0.6-7.3-0.6c-0.9,0-1.7,0.1-1.9,0.9c-0.1,0.6,0.5,1.2,1.9,1.1c1-0.1,5.1-0.2,6.8-0.3
		C279.7,82.7,279.8,81.7,278.7,81.6z"/>
	<circle fill="#7C7C7C" cx="271.7" cy="88.7" r="1.2"/>
	<path fill="#491D0D" d="M325.7,117.4h4.3v6.2h-4.3V117.4z M329.5,117.9h-3.3v5.2h3.3V117.9z"/>
	<path fill="#491D0D" d="M326.9,118.5h2.1v3.8h-2.1V118.5z M328.5,119h-1.1v2.8h1.1V119z"/>
	<path fill="#491D0D" d="M325.4,80.8h4.3V87h-4.3V80.8z M329.2,81.3h-3.3v5.2h3.3V81.3z"/>
	<path fill="#491D0D" d="M326.5,81.8h2.1v3.8h-2.1V81.8z M328.1,82.3H327v2.8h1.1V82.3z"/>
	<path fill="#7D3219" d="M258.4,93.9l2.1,5.5c0,0,0.1,2.5-1,4.3c-1.1,1.8-3,2.3-3.7,0.6c-0.8-1.8-3.1-7.9-3.1-7.9s2.3,0.5,3.8-0.5
		C257.8,94.8,258.4,93.9,258.4,93.9z"/>
	<path fill="#7C7C7C" d="M253.3,91.1c0,0,2.1-1.1,3.8-0.3c1.7,0.8,1.6,2.7,0.4,4.2c-1.3,1.5-4.6,1.6-5.4,0.9
		C251.2,95.2,250.3,92.8,253.3,91.1z"/>
	
		<linearGradient id="SVGID_2_" gradientUnits="userSpaceOnUse" x1="14.3066" y1="78.2449" x2="92.2695" y2="78.2449" gradientTransform="matrix(-1 0 0 1 434.6416 0)">
		<stop  offset="0" style="stop-color:#FEF8BC"/>
		<stop  offset="1" style="stop-color:#D9C173"/>
	</linearGradient>
	<path fill="url(#SVGID_2_)" d="M343.1,71.2c0,0,42,4,59.1,7.7c7.1,1.5,11.8,2.8,15,3.8c4.4,1.4,3.9,2.5,0.1,2.5
		c-3.9,0-8.1,0.1-8.1,0.1s-15.5-2.4-34.1-4.5c-21.5-2.4-32.6-4.7-32.6-4.7L343.1,71.2z"/>
	
		<linearGradient id="SVGID_3_" gradientUnits="userSpaceOnUse" x1="126.3119" y1="40.3917" x2="174.0195" y2="40.3917" gradientTransform="matrix(-1 0 0 1 434.6416 0)">
		<stop  offset="0" style="stop-color:#FEF8BC"/>
		<stop  offset="1" style="stop-color:#D9C173"/>
	</linearGradient>
	<path fill="url(#SVGID_3_)" d="M260.6,35.8c0,0,13.5-2,26.5-1.3c10.6,0.6,22.5-0.2,21.1,3.6c-1.5,4.1-3.3,4.5-5.7,4.3
		c-3.7-0.3-12.1-0.5-22.7-0.3c-15.4,0.3-17.5,4.2-17.5,4.2L260.6,35.8z"/>
	<path fill="#6A2E24" d="M393,110.2c0.1,0,0.2,0.1,0.3,0.1c2.1,0.7,4.4,2.8,7.1,4.2c3.8,1.9,6,2,6.6,1.9v4.8c0,0-2-2.4-6.3-5.9
		c-4.3-3.5-7.9-4.8-7.9-4.8S392.9,110.3,393,110.2z"/>
	<path fill="#4E231A" d="M413.8,142l-7.2,0.4c0,0-18.8-21.5-35.4-19.3c-16.6,2.3-33,24.2-33,24.2l-6.8,0.6c0,0,7.7-39.9,41.3-39.6
		C406.4,108.7,413.8,142,413.8,142z"/>
	<path fill="#B35D31" d="M413.2,144.4c-3.3-19.3-19.8-34.1-39.7-34.1c-22.1,0-40,18.1-40.3,40.6l-5-0.5
		c0.8-24.6,20.8-44.4,45.3-44.4c22.2,0,40.7,16.2,44.6,37.5L413.2,144.4z"/>
	
		<linearGradient id="SVGID_4_" gradientUnits="userSpaceOnUse" x1="25.5088" y1="115.0645" x2="87.9873" y2="115.0645" gradientTransform="matrix(-1 0 0 1 434.6416 0)">
		<stop  offset="0.2185" style="stop-color:#C0724A"/>
		<stop  offset="1" style="stop-color:#B35D31"/>
	</linearGradient>
	<path fill="url(#SVGID_4_)" d="M346.7,115.2c0,0,12.7-10,29.2-8.8c23.6,1.6,33.3,17.5,33.3,17.5s-10.6-10.4-27.1-14
		C364.5,106.1,346.7,115.2,346.7,115.2z"/>
	
		<linearGradient id="SVGID_5_" gradientUnits="userSpaceOnUse" x1="27.9863" y1="109.2311" x2="40.54" y2="109.2311" gradientTransform="matrix(-1 0 0 1 434.6416 0)">
		<stop  offset="0.2185" style="stop-color:#BE5E29"/>
		<stop  offset="1" style="stop-color:#B35D31"/>
	</linearGradient>
	<path fill="url(#SVGID_5_)" d="M394.8,110.8c0,0,5.5-0.1,7.8,0.1c2.3,0.3,4,1,4,1v-5.3c0,0-2.7-0.4-6,0.6c-3.2,1-6.6,3.1-6.6,3.1
		L394.8,110.8z"/>
	
		<linearGradient id="SVGID_6_" gradientUnits="userSpaceOnUse" x1="28.0273" y1="108.5673" x2="41.1904" y2="108.5673" gradientTransform="matrix(-1 0 0 1 434.6416 0)">
		<stop  offset="0.2185" style="stop-color:#E29D57"/>
		<stop  offset="1" style="stop-color:#B35D31"/>
	</linearGradient>
	<path fill="url(#SVGID_6_)" d="M393.5,110.6c0,0,4.2-2.6,6.9-3.5c2.7-0.9,6.2-0.5,6.2-0.5v1.8c0,0-3.1-0.4-6.3,0.3
		C397,109.4,393.5,110.6,393.5,110.6z"/>
	<path fill="#808679" d="M407,121l1.3,1.6l0.1-16c0,0-0.3-0.1-0.8-0.1c-0.5,0-0.7,0.1-0.7,0.1V121z"/>
	<path fill="#50544D" d="M407,116.4c0.3,0,1.1-0.1,1.4-0.1l0,6.2L407,121L407,116.4C407,116.4,407,116.4,407,116.4z"/>
	
		<linearGradient id="SVGID_7_" gradientUnits="userSpaceOnUse" x1="26.9697" y1="112.4868" x2="26.9697" y2="106.559" gradientTransform="matrix(-1 0 0 1 434.6416 0)">
		<stop  offset="7.563020e-002" style="stop-color:#808679"/>
		<stop  offset="0.7563" style="stop-color:#B6BFAE"/>
		<stop  offset="0.9874" style="stop-color:#808679"/>
	</linearGradient>
	<path fill="url(#SVGID_7_)" d="M407,106.6c0,0,0.5-0.1,0.7-0.1c0.2,0,0.4,0.1,0.6,0.1v5.8h-1.4L407,106.6z"/>
	<g>
		<circle fill="#212020" cx="372.4" cy="153.3" r="35.8"/>
		<circle fill="#7C7C7C" cx="372.4" cy="153.3" r="23.2"/>
		<circle fill="#5E5F5F" cx="372.4" cy="153.3" r="13.6"/>
		<circle fill="#7C7C7C" cx="372.4" cy="153.3" r="5.3"/>
		<circle fill="#505151" cx="372.4" cy="153.3" r="2.6"/>
		<ellipse fill="#181717" cx="372.4" cy="135.5" rx="5.5" ry="2.7"/>
		<ellipse fill="#181717" cx="372.4" cy="171.4" rx="5.5" ry="2.7"/>
		<ellipse transform="matrix(-0.5 0.866 -0.866 -0.5 660.3835 -92.2869)" fill="#181717" cx="356.8" cy="144.5" rx="5.5" ry="2.7"/>
		
			<ellipse transform="matrix(-0.4999 0.8661 -0.8661 -0.4999 722.5929 -92.3423)" fill="#181717" cx="388" cy="162.5" rx="5.5" ry="2.7"/>
		
			<ellipse transform="matrix(0.503 0.8643 -0.8643 0.503 317.8148 -227.6657)" fill="#181717" cx="356.9" cy="162.5" rx="5.5" ry="2.7"/>
		
			<ellipse transform="matrix(0.503 0.8643 -0.8643 0.503 317.6096 -263.4969)" fill="#181717" cx="387.9" cy="144.4" rx="5.5" ry="2.7"/>
		<circle fill="#7C7C7C" cx="372.4" cy="144" r="1.6"/>
		<circle fill="#7C7C7C" cx="372.4" cy="163" r="1.6"/>
		<circle fill="#7C7C7C" cx="364.6" cy="148" r="1.6"/>
		<circle fill="#7C7C7C" cx="380.2" cy="158.9" r="1.6"/>
		<circle fill="#7C7C7C" cx="363.8" cy="157.7" r="1.6"/>
		<circle fill="#7C7C7C" cx="380.9" cy="149.3" r="1.6"/>
	</g>
	<g>
		<circle fill="#212020" cx="112" cy="153.3" r="35.8"/>
		<circle fill="#7C7C7C" cx="112" cy="153.3" r="23.2"/>
		<circle fill="#5E5F5F" cx="112" cy="153.3" r="13.6"/>
		<circle fill="#7C7C7C" cx="112" cy="153.3" r="5.3"/>
		<circle fill="#505151" cx="112" cy="153.3" r="2.6"/>
		<ellipse fill="#181717" cx="112.1" cy="135.5" rx="5.5" ry="2.7"/>
		<ellipse fill="#181717" cx="112.1" cy="171.4" rx="5.5" ry="2.7"/>
		<ellipse transform="matrix(-0.5 0.866 -0.866 -0.5 269.881 133.1563)" fill="#181717" cx="96.5" cy="144.5" rx="5.5" ry="2.7"/>
		<ellipse transform="matrix(-0.5 0.866 -0.866 -0.5 332.1305 133.1383)" fill="#181717" cx="127.6" cy="162.5" rx="5.5" ry="2.7"/>
		
			<ellipse transform="matrix(0.5031 0.8642 -0.8642 0.5031 188.418 -2.6745)" fill="#181717" cx="96.5" cy="162.5" rx="5.5" ry="2.7"/>
		<path fill="#181717" d="M130.4,149.2c1.3-0.7,1.1-3.5-0.5-6.1c-1.5-2.6-3.8-4.2-5.1-3.4c-1.3,0.7-1.1,3.5,0.5,6.1
			C126.8,148.4,129.1,150,130.4,149.2z"/>
		<circle fill="#7C7C7C" cx="112" cy="144" r="1.6"/>
		<circle fill="#7C7C7C" cx="112" cy="163" r="1.6"/>
		<circle fill="#7C7C7C" cx="104.2" cy="148" r="1.6"/>
		<circle fill="#7C7C7C" cx="119.9" cy="158.9" r="1.6"/>
		<circle fill="#7C7C7C" cx="103.5" cy="157.7" r="1.6"/>
		<circle fill="#7C7C7C" cx="120.6" cy="149.3" r="1.6"/>
	</g>
	<path fill="#7E5722" d="M304.3,48.9v23.8c0,1.1,0.3,1.8,0.8,2.3c0.5,0.4,1,0.4,1.2,0.4c0.1,0,0.2,0,0.2,0l13.7,0
		c1.3,0,2.2-0.3,2.5-1c0.5-1-0.3-2.3-0.4-2.3L308.5,51c-1.6-2.7-4.1-2.1-4.1-2.1L304.3,48.9z M304.5,49.1c0,0,2.3-0.5,3.8,2
		l13.8,21.2c0,0,2,2.9-2,2.9c-3.9,0-13.7,0-13.7,0s-2,0.3-2-2.5C304.5,70,304.5,49.1,304.5,49.1z"/>
	<path fill="#7E5722" d="M304.5,49.1c0,0,0,20.9,0,23.6c0,2.7,2,2.5,2,2.5s9.8,0,13.7,0c3.9,0,2-2.9,2-2.9l-13.8-21.2
		C306.8,48.5,304.5,49.1,304.5,49.1z M304.8,49.3c0.1,0,0.2,0,0.3,0c0.7,0,2.1,0.3,3.1,1.9l13.8,21.2c0,0,0.7,1.1,0.3,1.8
		c-0.2,0.5-1,0.7-2.1,0.7h-13.7c0,0-0.1,0-0.1,0c-0.2,0-0.6,0-0.9-0.3c-0.4-0.4-0.7-1-0.7-1.9V49.3z"/>
	<path fill="#994522" d="M254.7,96.9c0,0,3.4,4.3,4.2,4.3c0.8-0.1,1.1-0.8,1-1.1c-0.1-0.3-1.6-5.5-1.6-5.5s-0.2,1.4-1.6,1.9
		C255.3,96.9,254.7,96.9,254.7,96.9z"/>
	<path fill="#602014" d="M253,97c0,0,3.1,7.5,3.4,7.7c0.3,0.3,1.1,0.3,1.8-0.2c0.6-0.5,1.1-1.9,1.1-1.9s-1.7,0.7-2.6-0.1
		c-0.9-0.8-3.1-5.5-3.1-5.5L253,97z"/>
	<path fill="#B0ADA9" d="M257.1,91.2c0,0,1,0.4,0.9,1.6c-0.1,1.2-1.2,2.5-2.8,2.9c-1.6,0.3-0.4-0.3,0.1-0.8c0.5-0.6,1.5-1.8,1.2-2.6
		C256.3,91.5,256.5,90.9,257.1,91.2z"/>
	<path fill="#BEC1BC" d="M279,81.8c0,0-5.6-0.5-6.9-0.6c-1.3,0-2.1,0-2.3,0.5c-0.3,0.4,0.2,0.6,0.2,0.6s0.1-0.6,1.1-0.6
		c1,0,7.4,0.6,7.7,0.5C279.2,82.2,279,81.8,279,81.8z"/>
	<path fill="#3E403E" d="M271.5,89.1c0,0.1,0.1,0.3,0.3,0.3l0,0c0.1,0,0.3-0.1,0.3-0.3v-0.8c0-0.1-0.1-0.3-0.3-0.3l0,0
		c-0.1,0-0.3,0.1-0.3,0.3V89.1z"/>
	<path fill="#BEC1BC" d="M270.9,88.1c0,0,0.3-0.6,1-0.5c0.7,0.1,0.8,0.5,0.8,0.5s-0.4-0.3-0.9-0.3C271.2,87.9,270.9,88.1,270.9,88.1
		z"/>
	<rect x="0.4" y="91.3" fill="#7D3219" width="243.2" height="2.4"/>
	<rect x="0.1" y="0" fill="#D9C173" width="243.8" height="85.9"/>
	<rect x="0.1" y="9.1" fill="#BE934C" width="243.5" height="4"/>
	<rect x="0" y="0" fill="#EED68F" width="243.9" height="2.1"/>
	<rect x="0" y="86.2" fill="#B35D31" width="243.9" height="2.1"/>
	<path fill="#B35D31" d="M141.4,131.5c-6.8-8.4-17.3-13.9-29-13.9c-11.7,0-22.2,5.4-29,13.9h-7.7c7.7-12.1,21.3-20.2,36.7-20.2
		c15.4,0,29,8,36.7,20.2H141.4z"/>
	
		<linearGradient id="SVGID_8_" gradientUnits="userSpaceOnUse" x1="287.9355" y1="120.0419" x2="346.3828" y2="120.0419" gradientTransform="matrix(-1 0 0 1 434.6416 0)">
		<stop  offset="0.2185" style="stop-color:#D37E4A"/>
		<stop  offset="1" style="stop-color:#B35D31"/>
	</linearGradient>
	<path fill="url(#SVGID_8_)" d="M146.7,128.7c0,0-8.9-13.5-25.9-16.5c-20.6-3.7-32.5,7.1-32.5,7.1s14.1-7,31.7-4.2
		C135.9,117.6,146.7,128.7,146.7,128.7z"/>
	
		<linearGradient id="SVGID_9_" gradientUnits="userSpaceOnUse" x1="22.6103" y1="104.5087" x2="68.9668" y2="104.5087" gradientTransform="matrix(-1 0 0 1 434.6416 0)">
		<stop  offset="0.2185" style="stop-color:#BE5E29"/>
		<stop  offset="1" style="stop-color:#B35D31"/>
	</linearGradient>
	<path fill="url(#SVGID_9_)" d="M365.7,104.5c0,0.3,0.3,0.6,0.6,0.6h45.2c0.3,0,0.6-0.3,0.6-0.6l0,0c0-0.3-0.3-0.6-0.6-0.6h-45.2
		C365.9,103.9,365.7,104.2,365.7,104.5L365.7,104.5z"/>
	
		<linearGradient id="SVGID_10_" gradientUnits="userSpaceOnUse" x1="47.9922" y1="99.1134" x2="74.3828" y2="99.1134" gradientTransform="matrix(-1 0 0 1 434.6416 0)">
		<stop  offset="0.2185" style="stop-color:#BE5E29"/>
		<stop  offset="1" style="stop-color:#B35D31"/>
	</linearGradient>
	<path fill="url(#SVGID_10_)" d="M360.3,99.1c0,0.3,0.3,0.6,0.6,0.6h25.3c0.3,0,0.6-0.3,0.6-0.6l0,0c0-0.3-0.3-0.6-0.6-0.6h-25.3
		C360.5,98.5,360.3,98.8,360.3,99.1L360.3,99.1z"/>
	
		<linearGradient id="SVGID_11_" gradientUnits="userSpaceOnUse" x1="47.4248" y1="101.8112" x2="71.4219" y2="101.8112" gradientTransform="matrix(-1 0 0 1 434.6416 0)">
		<stop  offset="0.2185" style="stop-color:#BE5E29"/>
		<stop  offset="1" style="stop-color:#B35D31"/>
	</linearGradient>
	<path fill="url(#SVGID_11_)" d="M363.2,101.8c0,0.3,0.3,0.6,0.6,0.6h22.9c0.3,0,0.6-0.3,0.6-0.6l0,0c0-0.3-0.3-0.6-0.6-0.6h-22.9
		C363.5,101.2,363.2,101.5,363.2,101.8L363.2,101.8z"/>
</g>
</svg>
