<?xml version="1.0" encoding="utf-8"?>
<!-- Generator: Adobe Illustrator 18.1.1, SVG Export Plug-In . SVG Version: 6.00 Build 0)  -->
<svg version="1.1" id="Layer_1" xmlns="http://www.w3.org/2000/svg" xmlns:xlink="http://www.w3.org/1999/xlink" x="0px" y="0px"
	 viewBox="0 0 411.8 193.3" enable-background="new 0 0 411.8 193.3" xml:space="preserve">
<ellipse opacity="0.6" fill="#857C6F" cx="205.9" cy="177.8" rx="205.9" ry="15.5"/>
<polygon opacity="0.3" fill="#4888C8" points="278,67.7 12.1,67.7 12.1,31 278,31 "/>
<g>
	<polygon fill="#0B0C0B" points="396.1,131.7 403.2,131.7 403.2,129.2 411.8,129.2 411.8,138.3 403.2,138.3 403.2,136.1 
		396.7,136.1 	"/>
	<path fill="#0B0C0B" d="M336.8,152.5l-30.2-1c0,0-0.5-1.3-2.1-2.1c-1.6-0.8-7.4-1.4-7.4-1.4s0.3,0.8-1,1.8c-1.3,1-1.8,0.6-1.8,0.6
		h-9.7c0,0-0.3-1.5-1.6-1.9c-1.3-0.4-2.9-0.6-2.9-0.6v3.3h-40.8v-2h-32.6c0,0-2-0.5-4.1,0.3c-2.1,0.8-2.6,1-2.6,1s-0.9-0.5-0.6-1.9
		c0.3-1.4,2.8-2.7,5-2.9c2.2-0.2,31.6,0.2,31.6,0.2l0.6-0.6l2.5,0.1l0.1-0.5h-22.1v-1.7h-15.2l-62.2,7.2v-2.6l43.5-4.9h-35.8
		l-7.9,1.1l-53.8,3.4l-10.7-2.5l-1.2-0.8l-8.7-0.7l-28.2-18l26.5-29.2l67.5-14.9l166.1,51.3l18.9-4.2h29.1L336.8,152.5z"/>
	<g>
		<path fill="#1D3E60" d="M2.4,74.7c0.3,10,0.2,18.8,0.6,25.6c0.4,6.7,2.5,20.9,4.7,29.3c2.2,8.4,2.2,6.7,4,10.3
			c1.8,3.5,3.5,3.4,3.5,3.4h51.9c0,0,2.5-8.6,4.7-14.1c2.2-5.5,9.4-14.8,19.3-19.7c9.9-4.9,26.4-5.5,40.5,5.7
			c14.1,11.3,14.6,26.9,14.6,26.9l2.2,0.8c0,0,96.3,0,121.3,0c25,0,36.3-6.7,42.3-12.1c6-5.4,18.1-17,33.8-24.4
			c15.6-7.4,20.6-5.9,20.6-5.9V77.9c0,0-56.4-2.7-67.8-3.3c-11.4-0.6-15.1-2.4-15.1-2.4v-30h8.1V28.8c0,0,2.9-0.7,0.3-4.4
			c-4.4-6.2-20.7-13.5-47.2-18C217,1.6,193.6,1,193.6,1h-70.9c0,0-78.2-0.1-83.9,0c-5.7,0.1-11-0.8-21.4,4C7,9.9,4.2,18.5,4,21.2
			c-0.3,2.7-0.8,6.9-1,14.4C2.8,43,2,64.7,2.4,74.7z M228.7,32.5h46v33.9h-46V32.5z M167.5,32.5h50.2v33.9h-50.2V32.5z M111.2,32.5
			h49.6v33.9h-49.6V32.5z M54.3,32.5h50.2v33.9H54.3V32.5z M16.3,32.5h31.4v33.9H16.3V32.5z"/>
		<path fill="#212312" d="M2.1,74.7C2.3,79,2.3,83,2.4,86.9c0.1,5.1,0.1,9.5,0.4,13.4c0.5,7.1,2.6,21.1,4.7,29.3
			c1.6,6.3,2.1,7,2.9,8.4c0.3,0.5,0.6,1,1.1,1.9c1.7,3.4,3.4,3.5,3.8,3.5h52.1l0.1-0.2c0-0.1,2.5-8.6,4.7-14.1
			c2.4-6.1,9.9-15,19.2-19.5c4.4-2.1,9.7-3.3,15.1-3.3c6.3,0,15.8,1.6,25.1,9c13.9,11.1,14.5,26.5,14.5,26.7l0,0.2l2.4,0.9h121.3
			c19.4,0,33.3-4,42.5-12.2c0.6-0.5,1.2-1.1,1.9-1.7c6.6-6,17.7-16,31.8-22.6c11-5.2,16.7-6,19.1-6c0.9,0,1.3,0.1,1.3,0.1l0.3,0.1
			l0-0.3V77.7l-0.2,0c-0.6,0-56.5-2.7-67.8-3.3c-10-0.5-14.1-2-14.9-2.3V42.5h8.1V29c0.3-0.1,1-0.5,1.3-1.2c0.3-0.9,0-2.1-1-3.5
			c-5-7-23.1-14-47.3-18.1c-27.6-4.7-51-5.5-51.3-5.5h-70.9c0,0-34.8,0-59.6,0c-14.4,0-22.6,0-24.3,0c-0.8,0-1.7,0-2.5,0
			c-0.6,0-1.1,0-1.7,0c-4.2,0-9.3,0.3-17.3,4.1C7,9.6,4,18.2,3.7,21.2c0,0.5-0.1,1.1-0.2,1.7c-0.3,2.6-0.7,6.6-0.8,12.7
			c0,1.5-0.1,3.6-0.2,6C2.3,51,1.8,66.7,2.1,74.7z M3,41.6c0.1-2.4,0.1-4.5,0.2-6c0.1-6.1,0.6-10,0.8-12.7c0.1-0.6,0.1-1.2,0.2-1.7
			c0.3-2.8,3.2-11.3,13.3-16c9-4.2,14-4.1,18.8-4c0.8,0,1.7,0,2.5,0c1.7,0,9.9,0,24.3,0c24.9,0,59.6,0,59.6,0h70.9
			c0.2,0,23.7,0.7,51.2,5.5c28.8,4.9,43.2,12.5,47,17.9c0.9,1.3,1.2,2.3,0.9,3c-0.3,0.8-1.1,1-1.1,1l-0.2,0l0,0.2v13.1h-8.1v30.4
			l0.1,0.1c0.2,0.1,3.9,1.9,15.2,2.5c10.9,0.6,63.5,3.1,67.5,3.3v22.1c-1.3-0.2-6.9-0.4-20.4,6c-14.2,6.7-25.3,16.7-32,22.7
			c-0.7,0.6-1.3,1.2-1.9,1.7c-9.1,8.1-22.9,12-42.2,12H148.6l-2-0.8c-0.1-1.7-1.4-16.3-14.7-26.9c-9.4-7.5-19-9.1-25.4-9.1
			c-5.5,0-10.9,1.2-15.4,3.4c-9.4,4.6-17,13.6-19.4,19.8c-2,5-4.3,12.7-4.7,14H15.3c-0.2,0-1.7-0.1-3.3-3.3c-0.5-0.9-0.8-1.5-1.1-2
			c-0.8-1.3-1.3-2-2.9-8.2c-2.1-8.2-4.3-22.2-4.7-29.2C3,96.4,2.9,92,2.9,86.9C2.8,83,2.8,79,2.6,74.7C2.3,66.7,2.8,51,3,41.6z"/>
	</g>
	<path fill="#DDDCD5" d="M4,21.2C4.2,18.5,7,9.9,17.4,5C27.8,0.1,33.1,1,38.8,1c5.7-0.1,83.9,0,83.9,0h70.9c0,0,23.4,0.7,51.2,5.5
		c26.5,4.5,42.8,11.8,47.2,18c0.5,0.7,0.8,1.4,1,1.9H3.4C3.6,24.1,3.8,22.5,4,21.2z"/>
	<path fill="#3C491F" d="M2.3,72.5h282.1c-0.6-0.2-0.9-0.3-0.9-0.3v-30h8.1V28.8c0,0,1.3-0.3,1.4-1.7H3.4c-0.2,2.2-0.3,5-0.4,8.4
		C2.8,42.5,2.1,61.8,2.3,72.5z M228.7,32.5h46v33.9h-46V32.5z M167.5,32.5h50.2v33.9h-50.2V32.5z M111.2,32.5h49.6v33.9h-49.6V32.5z
		 M54.3,32.5h50.2v33.9H54.3V32.5z M16.3,32.5h31.4v33.9H16.3V32.5z"/>
	<path fill="#1D3E60" d="M378,84.3c2.6-0.8,3.7-0.4,3.7-0.4s0.5,0.1,0.6,0.7v14.9c-0.1,2-2.2,1.9-4.4,0.9c-4.1-1.7-5.6-5.5-5.3-9.4
		C372.9,87.8,375.8,85,378,84.3z"/>
	
		<linearGradient id="SVGID_1_" gradientUnits="userSpaceOnUse" x1="32.5473" y1="84.4698" x2="32.5473" y2="90.5303" gradientTransform="matrix(-1 0 0 1 412.0005 0)">
		<stop  offset="0" style="stop-color:#83A9C6"/>
		<stop  offset="0.1385" style="stop-color:#799DBA"/>
		<stop  offset="0.3766" style="stop-color:#6483A1"/>
		<stop  offset="0.6854" style="stop-color:#446080"/>
		<stop  offset="1" style="stop-color:#1D3E60"/>
	</linearGradient>
	<path fill="url(#SVGID_1_)" d="M380,90.5c0,0-1.6-4.9-1-5.7c0.5-0.6,1-0.4,1-0.4L380,90.5z"/>
	<path fill="#8EB2B1" d="M380.5,101.1V83.8c0.8,0,1.2,0.1,1.2,0.1s0.5,0.2,0.6,0.7v14.9C382.2,100.7,381.5,101.1,380.5,101.1z"/>
	
		<linearGradient id="SVGID_2_" gradientUnits="userSpaceOnUse" x1="30.655" y1="84.1566" x2="30.655" y2="91.7129" gradientTransform="matrix(-1 0 0 1 412.0005 0)">
		<stop  offset="1.212120e-002" style="stop-color:#FFFFFF"/>
		<stop  offset="0.167" style="stop-color:#F7F8F8"/>
		<stop  offset="0.362" style="stop-color:#E7ECEB"/>
		<stop  offset="0.5785" style="stop-color:#CEDBDA"/>
		<stop  offset="0.8088" style="stop-color:#AEC5C4"/>
		<stop  offset="1" style="stop-color:#8EB2B1"/>
	</linearGradient>
	<path fill="url(#SVGID_2_)" d="M380.7,84.2c0,0,1.3-0.3,1.3,0.4c0,0.4-0.2,2.6-0.4,3.9c-0.3,1.4-0.8,3.2-0.8,3.2L380.7,84.2z"/>
	<g>
		<path fill="#1D3E60" d="M311.7,118.7c0,1,0.8,1.8,1.8,1.8h44.3c1,0,1.8-0.8,1.8-1.8V95.6c0-1-0.8-1.8-1.8-1.8h-44.3
			c-1,0-1.8,0.8-1.8,1.8V118.7z"/>
		<path fill="#010101" d="M311.5,118.7V95.6c0-1.1,0.9-2,2-2h44.3c1.1,0,2,0.9,2,2v23.1c0,1.1-0.9,2-2,2h-44.3
			C312.4,120.7,311.5,119.8,311.5,118.7z M313.5,94.1c-0.8,0-1.5,0.7-1.5,1.5v23.1c0,0.8,0.7,1.5,1.5,1.5h44.3
			c0.8,0,1.5-0.7,1.5-1.5V95.6c0-0.8-0.7-1.5-1.5-1.5H313.5z"/>
	</g>
	<g>
		<g>
			<path fill="#010101" d="M314.6,117.9h0.5V96.7c0-0.1,0-0.3,0.1-0.3c0.1-0.1,0.2,0,0.3,0c0.1,0.1,0.3,0.2,0.4,0.3l0.3-0.4
				c-0.2-0.1-0.3-0.2-0.4-0.3c-0.2-0.2-0.6-0.2-0.8,0c-0.1,0.1-0.4,0.3-0.4,0.8V117.9z"/>
			<path fill="#010101" d="M316.8,117.9h0.5V96.7c0-0.1,0-0.3,0.1-0.3c0.1-0.1,0.2,0,0.3,0c0.1,0.1,0.3,0.2,0.4,0.3l0.3-0.4
				c-0.2-0.1-0.3-0.2-0.4-0.3c-0.2-0.2-0.6-0.2-0.8,0c-0.1,0.1-0.4,0.3-0.4,0.8V117.9z"/>
			<path fill="#010101" d="M318.9,117.9h0.5V96.7c0-0.1,0-0.3,0.1-0.3c0.1-0.1,0.2,0,0.3,0c0.1,0.1,0.3,0.2,0.4,0.3l0.3-0.4
				c-0.2-0.1-0.3-0.2-0.4-0.3c-0.2-0.2-0.6-0.2-0.8,0c-0.1,0.1-0.4,0.3-0.4,0.8V117.9z"/>
			<path fill="#010101" d="M321,117.9h0.5V96.7c0-0.1,0-0.3,0.1-0.3c0.1-0.1,0.2,0,0.3,0c0.1,0.1,0.3,0.2,0.4,0.3l0.3-0.4
				c-0.2-0.1-0.3-0.2-0.4-0.3c-0.2-0.2-0.6-0.2-0.8,0c-0.1,0.1-0.4,0.3-0.4,0.8V117.9z"/>
			<path fill="#010101" d="M323.1,117.9h0.5V96.7c0-0.1,0-0.3,0.1-0.3c0.1-0.1,0.2,0,0.3,0c0.1,0.1,0.3,0.2,0.4,0.3l0.3-0.4
				c-0.2-0.1-0.3-0.2-0.4-0.3c-0.2-0.2-0.6-0.2-0.8,0c-0.1,0.1-0.4,0.3-0.4,0.8V117.9z"/>
			<path fill="#010101" d="M325.3,117.9h0.5V96.7c0-0.1,0-0.3,0.1-0.3c0.1-0.1,0.2,0,0.3,0c0.1,0.1,0.3,0.2,0.4,0.3l0.3-0.4
				c-0.2-0.1-0.3-0.2-0.4-0.3c-0.2-0.2-0.6-0.2-0.8,0c-0.1,0.1-0.4,0.3-0.4,0.8V117.9z"/>
			<path fill="#010101" d="M327.4,117.9h0.5V96.7c0-0.1,0-0.3,0.1-0.3c0.1-0.1,0.2,0,0.3,0c0.1,0.1,0.3,0.2,0.4,0.3l0.3-0.4
				c-0.2-0.1-0.3-0.2-0.4-0.3c-0.2-0.2-0.6-0.2-0.8,0c-0.1,0.1-0.4,0.3-0.4,0.8V117.9z"/>
			<path fill="#010101" d="M329.5,117.9h0.5V96.7c0-0.1,0-0.3,0.1-0.3c0.1-0.1,0.2,0,0.3,0c0.1,0.1,0.3,0.2,0.4,0.3l0.3-0.4
				c-0.2-0.1-0.3-0.2-0.4-0.3c-0.2-0.2-0.6-0.2-0.8,0c-0.1,0.1-0.4,0.3-0.4,0.8V117.9z"/>
			<path fill="#010101" d="M331.6,117.9h0.5V96.7c0-0.1,0-0.3,0.1-0.3c0.1-0.1,0.2,0,0.3,0c0.1,0.1,0.3,0.2,0.4,0.3l0.3-0.4
				c-0.2-0.1-0.3-0.2-0.4-0.3c-0.2-0.2-0.6-0.2-0.8,0c-0.1,0.1-0.4,0.3-0.4,0.8V117.9z"/>
			<path fill="#010101" d="M333.7,117.9h0.5V96.7c0-0.1,0-0.3,0.1-0.3c0.1-0.1,0.2,0,0.3,0c0.1,0.1,0.3,0.2,0.4,0.3l0.3-0.4
				c-0.2-0.1-0.3-0.2-0.4-0.3c-0.2-0.2-0.6-0.2-0.8,0c-0.1,0.1-0.4,0.3-0.4,0.8V117.9z"/>
			<path fill="#010101" d="M335.9,117.9h0.5V96.7c0-0.1,0-0.3,0.1-0.3c0.1-0.1,0.2,0,0.3,0c0.1,0.1,0.3,0.2,0.4,0.3l0.3-0.4
				c-0.2-0.1-0.3-0.2-0.4-0.3c-0.2-0.2-0.6-0.2-0.8,0c-0.1,0.1-0.4,0.3-0.4,0.8V117.9z"/>
			<path fill="#010101" d="M338,117.9h0.5V96.7c0-0.1,0-0.3,0.1-0.3c0.1-0.1,0.2,0,0.3,0c0.1,0.1,0.3,0.2,0.4,0.3l0.3-0.4
				c-0.2-0.1-0.3-0.2-0.4-0.3c-0.2-0.2-0.6-0.2-0.8,0c-0.1,0.1-0.4,0.3-0.4,0.8V117.9z"/>
			<path fill="#010101" d="M340.1,117.9h0.5V96.7c0-0.1,0-0.3,0.1-0.3c0.1-0.1,0.2,0,0.3,0c0.1,0.1,0.3,0.2,0.4,0.3l0.3-0.4
				c-0.2-0.1-0.3-0.2-0.4-0.3c-0.2-0.2-0.6-0.2-0.8,0c-0.1,0.1-0.4,0.3-0.4,0.8V117.9z"/>
			<path fill="#010101" d="M342.2,117.9h0.5V96.7c0-0.1,0-0.3,0.1-0.3c0.1,0,0.2,0,0.3,0c0.1,0.1,0.3,0.2,0.4,0.3l0.3-0.4
				c-0.2-0.1-0.3-0.2-0.4-0.3c-0.2-0.2-0.6-0.2-0.8,0c-0.1,0.1-0.4,0.3-0.4,0.8V117.9z"/>
			<path fill="#010101" d="M344.3,117.9h0.5V96.7c0-0.1,0-0.3,0.1-0.3c0.1,0,0.2,0,0.3,0c0.1,0.1,0.3,0.2,0.4,0.3l0.3-0.4
				c-0.2-0.1-0.3-0.2-0.4-0.3c-0.2-0.2-0.6-0.2-0.8,0c-0.1,0.1-0.4,0.3-0.4,0.8V117.9z"/>
			<path fill="#010101" d="M346.5,117.9h0.5V96.7c0-0.1,0-0.3,0.1-0.3c0.1-0.1,0.2,0,0.3,0c0.1,0.1,0.3,0.2,0.4,0.3l0.3-0.4
				c-0.2-0.1-0.3-0.2-0.4-0.3c-0.2-0.2-0.6-0.2-0.8,0c-0.1,0.1-0.4,0.3-0.4,0.8V117.9z"/>
			<path fill="#010101" d="M348.6,117.9h0.5V96.7c0-0.1,0-0.3,0.1-0.3c0.1-0.1,0.2,0,0.3,0c0.1,0.1,0.3,0.2,0.4,0.3l0.3-0.4
				c-0.2-0.1-0.3-0.2-0.4-0.3c-0.2-0.2-0.6-0.2-0.8,0c-0.1,0.1-0.4,0.3-0.4,0.8V117.9z"/>
			<path fill="#010101" d="M350.7,117.9h0.5V96.7c0-0.1,0-0.3,0.1-0.3c0.1,0,0.2,0,0.3,0c0.1,0.1,0.3,0.2,0.4,0.3l0.3-0.4
				c-0.2-0.1-0.3-0.2-0.4-0.3c-0.2-0.2-0.6-0.2-0.8,0c-0.1,0.1-0.4,0.3-0.4,0.8V117.9z"/>
			<path fill="#010101" d="M352.8,117.9h0.5V96.7c0-0.1,0-0.3,0.1-0.3c0.1-0.1,0.2,0,0.3,0c0.1,0.1,0.3,0.2,0.4,0.3l0.3-0.4
				c-0.2-0.1-0.3-0.2-0.4-0.3c-0.2-0.2-0.6-0.2-0.8,0c-0.1,0.1-0.4,0.3-0.4,0.8V117.9z"/>
			<path fill="#010101" d="M354.9,117.9h0.5V96.7c0-0.1,0-0.3,0.1-0.3c0.1-0.1,0.2,0,0.3,0c0.1,0.1,0.3,0.2,0.4,0.3l0.3-0.4
				c-0.2-0.1-0.3-0.2-0.4-0.3c-0.2-0.2-0.6-0.2-0.8,0c-0.1,0.1-0.4,0.3-0.4,0.8V117.9z"/>
		</g>
	</g>
	<path fill="#010101" d="M368.1,76.6c0,0,0.3-1.2,2.4-1.2c1.8,0,2.3,1.1,2.3,1.1l0.2,0.4l-4.9,0L368.1,76.6z M370.5,75.9
		c-1,0-1.4,0.3-1.7,0.5l3.2,0C371.8,76.2,371.3,75.9,370.5,75.9z"/>
	<path fill="#010101" d="M291.7,29.1l0.1-0.5c0,0-4.8-0.8-15.4-0.7H3.4v0.5h273C286.9,28.3,291.6,29.1,291.7,29.1z"/>
	<path fill="#010101" d="M366.2,99.4V77.6l0.3,0c0,0,4.3,0,6.5,0c0.6,0,1,0.2,1.4,0.5c0.6,0.6,0.5,1.5,0.5,1.6v19.4l-0.3,1.1
		L366.2,99.4z M374.4,79.7c0,0,0-0.7-0.4-1.2c-0.2-0.2-0.6-0.4-1-0.4c0,0,0,0,0,0c-1.8,0-5.3,0-6.2,0v20.8l7.5,0.8l0.2-0.6
		L374.4,79.7z"/>
	<path fill="#010101" d="M367.6,76.5h6v1.7h-6V76.5z M373.1,77h-5v0.7h5V77z"/>
	<rect x="368.2" y="77.3" fill="#7A8D8A" width="4.5" height="0.7"/>
	<path fill="#8EB2B1" d="M374.6,103.7c0,0,0-23.9,0-24.5c0-0.6,0-1.3-1.1-1.3c-1.3,0-6.8,0-6.8,0v24.9L374.6,103.7z"/>
	<path fill="#8EB2B1" d="M373.1,77.4h-5.3c0,0-0.3-0.7,0.5-1.3c0.8-0.5,3.2-0.5,4.1,0C373.6,76.7,373.1,77.4,373.1,77.4z"/>
	
		<linearGradient id="SVGID_3_" gradientUnits="userSpaceOnUse" x1="47.0114" y1="80.2554" x2="124.6286" y2="80.2554" gradientTransform="matrix(-1 0 0 1 412.0005 0)">
		<stop  offset="0" style="stop-color:#83A9C6"/>
		<stop  offset="0.1385" style="stop-color:#799DBA"/>
		<stop  offset="0.3766" style="stop-color:#6483A1"/>
		<stop  offset="0.6854" style="stop-color:#446080"/>
		<stop  offset="1" style="stop-color:#1D3E60"/>
	</linearGradient>
	<path fill="url(#SVGID_3_)" d="M365,81.7c0,0-67.8-0.1-69.9-0.1c-5.7,0-7.7-2.7-7.7-2.7l77.6-0.1V81.7z"/>
	
		<linearGradient id="SVGID_4_" gradientUnits="userSpaceOnUse" x1="38.0705" y1="80.2652" x2="44.7477" y2="80.2652" gradientTransform="matrix(-1 0 0 1 412.0005 0)">
		<stop  offset="1.212120e-002" style="stop-color:#FFFFFF"/>
		<stop  offset="0.167" style="stop-color:#F7F8F8"/>
		<stop  offset="0.362" style="stop-color:#E7ECEB"/>
		<stop  offset="0.5785" style="stop-color:#CEDBDA"/>
		<stop  offset="0.8088" style="stop-color:#AEC5C4"/>
		<stop  offset="1" style="stop-color:#8EB2B1"/>
	</linearGradient>
	<path fill="url(#SVGID_4_)" d="M367.3,78.9h6.1c0,0,0.6,0,0.6,0.8c0,0.8,0,2,0,2h-6.7V78.9z"/>
	<rect x="304.5" y="75" fill="#010101" width="0.5" height="53.6"/>
	<path fill="#010101" d="M366.6,84.9v-0.5h-71.2c-0.1,0-7.3-0.7-11.4-6.3l-0.4,0.3c4.2,5.8,11.7,6.5,11.8,6.5L366.6,84.9z"/>
	<rect x="304.9" y="90.3" fill="#010101" width="61.6" height="0.5"/>
	<rect x="283.3" y="72.2" fill="#010101" width="0.5" height="69.2"/>
	<rect x="283.7" y="128.1" fill="#010101" width="27.6" height="0.5"/>
	<path fill="#122336" d="M390.4,111.2c0,0-1.4,2.6-1.6,5.3c-0.3,2.6,0.3,5.9,0.3,5.9l-29.7-2l-14.6,8l-25.9,0l-2.3-2.4
		c0,0,15.7-11.9,27.6-16.5c11.8-4.7,31.8-6.3,38.4-4.2C389.2,107.6,390.4,111.2,390.4,111.2z"/>
	<path fill="#2D507E" d="M216.8,142.2v2.5h61.8c0,0,9.1-0.2,17.3-3.4c8.2-3.2,22.3-11.2,33.9-20.5c11.6-9.3,26.5-14.7,38.6-14.7
		c12.1,0,18.2,3.8,21,4.8c2.9,1,4.3,0.8,6.2,0.7c1.8-0.1,2-0.2,1.9-0.7c-0.4-1.5-9-11.4-28.6-12.2c-14.2-0.6-29.6,6.1-40.2,15.4
		c-10.5,9.3-21.1,16.6-26.8,19.9c-5.7,3.3-16.3,8.1-23.5,8.2L216.8,142.2z"/>
	<g>
		<circle fill="#493D35" cx="368.4" cy="145.9" r="31.9"/>
		<circle fill="#1E2021" cx="368.4" cy="145.9" r="25.7"/>
		<circle fill="#0F0F0E" cx="368.4" cy="145.9" r="20"/>
		
			<radialGradient id="SVGID_5_" cx="43.579" cy="145.9355" r="18.1014" gradientTransform="matrix(-1 0 0 1 412.0005 0)" gradientUnits="userSpaceOnUse">
			<stop  offset="0.5615" style="stop-color:#8D9092"/>
			<stop  offset="1" style="stop-color:#4F5355"/>
		</radialGradient>
		<circle fill="url(#SVGID_5_)" cx="368.4" cy="145.9" r="18.1"/>
		<circle fill="#363939" cx="368.4" cy="145.9" r="9.4"/>
		
			<radialGradient id="SVGID_6_" cx="43.5788" cy="145.9355" r="4.6196" gradientTransform="matrix(-1 0 0 1 412.0005 0)" gradientUnits="userSpaceOnUse">
			<stop  offset="0.5615" style="stop-color:#8D9092"/>
			<stop  offset="1" style="stop-color:#4F5355"/>
		</radialGradient>
		<circle fill="url(#SVGID_6_)" cx="368.4" cy="145.9" r="4.6"/>
		<path fill="#0B0C0B" d="M374.7,160.8c-0.1-1.7-3.5-3.9-4.8-3.8c-1.4,0.1-4.4,2.7-4.4,4.4c0.1,1.7,2.2,2.9,4.8,2.7
			C372.8,163.9,374.8,162.5,374.7,160.8z"/>
		<path fill="#0B0C0B" d="M371.7,130.6c-0.8,1.5,0.9,5.1,2.1,5.8c1.2,0.6,5.2,0,6-1.4c0.8-1.5-0.4-3.6-2.6-4.8
			C374.9,128.9,372.5,129.1,371.7,130.6z"/>
		<path fill="#0B0C0B" d="M354.8,138.1c1.1,1.2,5.2,0.8,6.2-0.2c1-0.9,1.7-4.9,0.5-6.1c-1.1-1.2-3.6-0.8-5.4,1
			C354.3,134.5,353.7,136.9,354.8,138.1z"/>
		<path fill="#0B0C0B" d="M356.5,156.3c1.5-0.7,2.3-4.7,1.8-5.9c-0.6-1.2-4.2-3.1-5.7-2.4c-1.5,0.7-1.9,3.1-0.8,5.4
			C352.9,155.7,355,157,356.5,156.3z"/>
		<path fill="#0B0C0B" d="M384.3,144.2c-1.6-0.3-4.7,2.4-4.9,3.7c-0.3,1.3,1.5,5,3.1,5.3c1.6,0.3,3.4-1.4,3.9-3.9
			C386.8,146.9,385.9,144.6,384.3,144.2z"/>
	</g>
	<g>
		<circle fill="#493D35" cx="107.4" cy="147" r="33.2"/>
		<circle fill="#1E2021" cx="107.4" cy="147" r="26.7"/>
		<circle fill="#0F0F0E" cx="107.4" cy="147" r="20.8"/>
		
			<radialGradient id="SVGID_7_" cx="304.5573" cy="147.0273" r="18.8154" gradientTransform="matrix(-1 0 0 1 412.0005 0)" gradientUnits="userSpaceOnUse">
			<stop  offset="0.5615" style="stop-color:#8D9092"/>
			<stop  offset="1" style="stop-color:#4F5355"/>
		</radialGradient>
		<circle fill="url(#SVGID_7_)" cx="107.4" cy="147" r="18.8"/>
		<circle fill="#363939" cx="107.4" cy="147" r="9.8"/>
		
			<radialGradient id="SVGID_8_" cx="304.5568" cy="147.0278" r="4.8022" gradientTransform="matrix(-1 0 0 1 412.0005 0)" gradientUnits="userSpaceOnUse">
			<stop  offset="0.5615" style="stop-color:#8D9092"/>
			<stop  offset="1" style="stop-color:#4F5355"/>
		</radialGradient>
		<circle fill="url(#SVGID_8_)" cx="107.4" cy="147" r="4.8"/>
		<path fill="#0B0C0B" d="M114,162.5c-0.1-1.7-3.6-4.1-5-4c-1.4,0.1-4.6,2.8-4.5,4.5c0.1,1.7,2.3,3,4.9,2.8
			C112,165.7,114.1,164.2,114,162.5z"/>
		<path fill="#0B0C0B" d="M110.9,131.1c-0.8,1.5,0.9,5.3,2.2,6c1.2,0.7,5.4,0,6.2-1.5c0.8-1.5-0.4-3.8-2.7-5
			C114.2,129.3,111.7,129.5,110.9,131.1z"/>
		<path fill="#0B0C0B" d="M93.3,138.9c1.2,1.3,5.4,0.8,6.4-0.2c1-1,1.7-5.1,0.6-6.4c-1.2-1.3-3.7-0.8-5.6,1
			C92.7,135.1,92.1,137.6,93.3,138.9z"/>
		<path fill="#0B0C0B" d="M95.1,157.8c1.6-0.7,2.4-4.8,1.8-6.1c-0.6-1.3-4.3-3.3-5.9-2.5c-1.6,0.7-1.9,3.3-0.8,5.7
			C91.3,157.2,93.5,158.5,95.1,157.8z"/>
		<path fill="#0B0C0B" d="M123.9,145.3c-1.7-0.3-4.8,2.4-5.1,3.8c-0.3,1.4,1.5,5.2,3.2,5.5c1.7,0.3,3.5-1.5,4-4.1
			C126.6,148,125.6,145.6,123.9,145.3z"/>
	</g>
	
		<linearGradient id="SVGID_9_" gradientUnits="userSpaceOnUse" x1="121.0241" y1="14.2281" x2="198.6374" y2="14.2281" gradientTransform="matrix(-1 0 0 1 412.0005 0)">
		<stop  offset="0" style="stop-color:#FFFFFF"/>
		<stop  offset="0.3832" style="stop-color:#F3F2EF"/>
		<stop  offset="1" style="stop-color:#DDDCD5"/>
	</linearGradient>
	<path fill="url(#SVGID_9_)" d="M213.4,4c1.3,0,42,9.7,52.8,14.1c10.8,4.4,13.1,6.4,13.1,6.4H291c0,0-2.7-4.6-22.2-11.1
		C244,5.1,213.4,4,213.4,4z"/>
	
		<linearGradient id="SVGID_10_" gradientUnits="userSpaceOnUse" x1="220.1393" y1="11.7481" x2="407.0954" y2="11.7481" gradientTransform="matrix(-1 0 0 1 412.0005 0)">
		<stop  offset="0" style="stop-color:#FFFFFF"/>
		<stop  offset="0.3832" style="stop-color:#F3F2EF"/>
		<stop  offset="1" style="stop-color:#DDDCD5"/>
	</linearGradient>
	<path fill="url(#SVGID_10_)" d="M191.9,3.3c0,0-141.1-1.3-156.6,0c-15.5,1.3-23.8,5-27.6,11.4c-3.8,6.5-2.7,6-2.7,6
		S11.9,7.9,30.9,7.3C46.4,6.9,190.9,6,190.9,6L191.9,3.3z"/>
	<path fill="#717370" d="M292,24.5H3.7c0,0-0.4,0.1-0.5,1.9c0,1.1,0.3,1.7,0.3,1.7s272.3,0,277.5,0c5.3,0,10.8,0.9,10.8,0.9
		s1.5-0.7,1.2-2.1C292.9,25.6,292,24.5,292,24.5z"/>
	<rect x="2.6" y="71" fill="#DDDCD5" width="281" height="2.7"/>
	<path fill="#2D507E" d="M150.2,145c0,0-3.9,0.6-4.6-2.1c-0.3-1-2.1-9.4-5.3-15.4c-3.2-6-11.4-14.8-21.7-18.1
		c-15.1-4.7-27.6,2.4-32.4,5.1c-4.1,2.4-11.1,10.6-14,17c-3.8,8.3-3.4,14.7-5.2,16.1c-1.4,1.2-3,0.4-3,0.4s1.2-0.9,1.4-2.9
		c0.3-2,1.5-11.2,6.3-19.4c7.8-13.4,20.1-21.2,35.2-21.2c15.1,0,25.3,7.4,30,12.8c5.3,6,8.1,12.5,9,15.3
		C147.9,138.8,148.4,144.2,150.2,145z"/>
	
		<linearGradient id="SVGID_11_" gradientUnits="userSpaceOnUse" x1="16.5319" y1="113.8633" x2="101.1999" y2="113.8633" gradientTransform="matrix(-1 0 0 1 412.0005 0)">
		<stop  offset="0" style="stop-color:#83A9C6"/>
		<stop  offset="0.1385" style="stop-color:#799DBA"/>
		<stop  offset="0.3766" style="stop-color:#6483A1"/>
		<stop  offset="0.6854" style="stop-color:#446080"/>
		<stop  offset="1" style="stop-color:#1D3E60"/>
	</linearGradient>
	<path fill="url(#SVGID_11_)" d="M364,99.2c-23.4,1-53.2,29.3-53.2,29.3s31.8-21.9,48.6-25c16.8-3.1,26.1,4.6,30.5,5.8
		c4.4,1.2,5.5,0.5,5.5,0.5S386.7,98.3,364,99.2z"/>
	
		<linearGradient id="SVGID_12_" gradientUnits="userSpaceOnUse" x1="271.0446" y1="118.9439" x2="341.9694" y2="118.9439" gradientTransform="matrix(-1 0 0 1 412.0005 0)">
		<stop  offset="0" style="stop-color:#83A9C6"/>
		<stop  offset="0.1385" style="stop-color:#799DBA"/>
		<stop  offset="0.3766" style="stop-color:#6483A1"/>
		<stop  offset="0.6854" style="stop-color:#446080"/>
		<stop  offset="1" style="stop-color:#1D3E60"/>
	</linearGradient>
	<path fill="url(#SVGID_12_)" d="M141,127.4c0,0-11.7-21.8-33.2-20.1c-30,2.4-37.7,24.8-37.7,24.8s5-20.2,29.3-25.4
		C119,102.5,138.3,113.5,141,127.4z"/>
	<path fill="#0B0C0B" d="M10.2,123.8H0.6c0,0-0.2,1.6-0.4,3.3c-0.2,1.7,0.5,6.3,0.5,6.3l11.1,0.1L10.2,123.8z"/>
	<polygon fill="#010101" points="278.7,29.5 278.7,142.2 278.2,142.2 278.2,30 225.5,30 225.5,142.2 225,142.2 225,29.5 	"/>
	<polygon fill="#010101" points="167.8,27.8 167.8,32.5 167.5,32.5 167.5,66.5 167.8,66.5 167.8,142.2 167.2,142.2 167.2,27.8 	"/>
	<rect x="167.5" y="32.5" fill="#010101" width="0.3" height="33.9"/>
	<polygon fill="#010101" points="111.5,27.9 111.5,32.5 111.2,32.5 111.2,66.5 111.5,66.5 111.5,103.9 111,103.9 111,27.9 	"/>
	<rect x="111.2" y="32.5" fill="#010101" width="0.3" height="33.9"/>
	<polygon fill="#010101" points="54.5,27.6 54.5,32.5 54.3,32.5 54.3,66.5 54.5,66.5 54.5,142.2 54,142.2 54,27.6 	"/>
	<rect x="54.3" y="32.5" fill="#010101" width="0.3" height="33.9"/>
	<g>
		<path fill="#1D3E60" d="M277.5,85.5c0,0.5,0.4,1,1,1l0,0c0.5,0,1-0.4,1-1v-3.2c0-0.5-0.4-1-1-1l0,0c-0.5,0-1,0.4-1,1V85.5z"/>
		<path fill="#212312" d="M277.2,85.5v-3.2c0-0.7,0.6-1.2,1.2-1.2c0.7,0,1.2,0.5,1.2,1.2v3.2c0,0.7-0.6,1.2-1.2,1.2
			C277.8,86.7,277.2,86.2,277.2,85.5z M277.7,82.3v3.2c0,0.4,0.3,0.7,0.7,0.7c0.4,0,0.7-0.3,0.7-0.7v-3.2c0-0.4-0.3-0.7-0.7-0.7
			C278.1,81.6,277.7,81.9,277.7,82.3z"/>
	</g>
	<g>
		<path fill="#1D3E60" d="M277.5,131c0,0.5,0.4,1,1,1l0,0c0.5,0,1-0.4,1-1v-3.2c0-0.5-0.4-1-1-1l0,0c-0.5,0-1,0.4-1,1V131z"/>
		<path fill="#212312" d="M277.2,131v-3.2c0-0.7,0.6-1.2,1.2-1.2c0.7,0,1.2,0.6,1.2,1.2v3.2c0,0.7-0.6,1.2-1.2,1.2
			C277.8,132.2,277.2,131.7,277.2,131z M277.7,127.8v3.2c0,0.4,0.3,0.7,0.7,0.7c0.4,0,0.7-0.3,0.7-0.7v-3.2c0-0.4-0.3-0.7-0.7-0.7
			C278.1,127.1,277.7,127.4,277.7,127.8z"/>
	</g>
	<g>
		<path fill="#3C491F" d="M277.5,41c0,0.5,0.4,1,1,1l0,0c0.5,0,1-0.4,1-1v-3.2c0-0.5-0.4-1-1-1l0,0c-0.5,0-1,0.4-1,1V41z"/>
		<path fill="#010101" d="M277.2,41v-3.2c0-0.7,0.6-1.2,1.2-1.2c0.7,0,1.2,0.5,1.2,1.2V41c0,0.7-0.6,1.2-1.2,1.2
			C277.8,42.3,277.2,41.7,277.2,41z M277.7,37.8V41c0,0.4,0.3,0.7,0.7,0.7c0.4,0,0.7-0.3,0.7-0.7v-3.2c0-0.4-0.3-0.7-0.7-0.7
			C278.1,37.1,277.7,37.4,277.7,37.8z"/>
	</g>
</g>
</svg>
