<?xml version="1.0" encoding="utf-8"?>
<!-- Generator: Adobe Illustrator 18.1.1, SVG Export Plug-In . SVG Version: 6.00 Build 0)  -->
<svg version="1.1" id="Layer_1" xmlns="http://www.w3.org/2000/svg" xmlns:xlink="http://www.w3.org/1999/xlink" x="0px" y="0px"
	 viewBox="0 502 612 290" enable-background="new 0 502 612 290" xml:space="preserve">
<ellipse opacity="0.6" fill="#857C6F" enable-background="new    " cx="306" cy="769.5" rx="306" ry="23"/>
<polygon opacity="0.3" fill="#4888C8" enable-background="new    " points="413.2,605.9 18,605.9 18,551.3 413.2,551.3 "/>
<g>
	<polygon fill="#0B0C0B" points="588.7,701 599.2,701 599.2,697.3 612,697.3 612,710.8 599.2,710.8 599.2,707.5 589.6,707.5 	"/>
	<path fill="#0B0C0B" d="M500.5,731.9l-44.9-1.5c0,0-0.7-1.9-3.1-3.1c-2.4-1.2-11-2.1-11-2.1s0.4,1.2-1.5,2.7s-2.7,0.9-2.7,0.9H423
		c0,0-0.4-2.2-2.4-2.8c-1.9-0.6-4.3-0.9-4.3-0.9v4.9h-60.6v-3h-48.4c0,0-3-0.7-6.1,0.4s-3.9,1.5-3.9,1.5s-1.3-0.7-0.9-2.8
		s4.2-4,7.4-4.3c3.3-0.3,47,0.3,47,0.3l0.9-0.9l3.7,0.1l0.1-0.7h-32.8v-2.5h-22.6l-92.4,10.7v-3.9l64.6-7.3h-53.2l-11.7,1.6l-80,5.1
		l-15.9-3.7l-1.8-1.2l-12.9-1l-41.9-26.8l39.4-43.4l100.3-22.1l246.9,76.2l28.1-6.2h43.2L500.5,731.9z"/>
	<g>
		<path fill="#1D3E60" d="M3.6,616.3c0.4,14.9,0.3,27.9,0.9,38c0.6,10,3.7,31.1,7,43.5c3.3,12.5,3.3,10,5.9,15.3
			c2.7,5.2,5.2,5.1,5.2,5.1h77.1c0,0,3.7-12.8,7-21s14-22,28.7-29.3s39.2-8.2,60.2,8.5c21,16.8,21.7,40,21.7,40l3.3,1.2
			c0,0,143.1,0,180.3,0s53.9-10,62.9-18c8.9-8,26.9-25.3,50.2-36.3c23.2-11,30.6-8.8,30.6-8.8v-33.6c0,0-83.8-4-100.8-4.9
			c-16.9-0.9-22.4-3.6-22.4-3.6v-44.6h12v-19.9c0,0,4.3-1,0.4-6.5c-6.5-9.2-30.8-20.1-70.1-26.8c-41.2-7.1-75.9-8-75.9-8H182.4
			c0,0-116.2-0.1-124.7,0s-16.3-1.2-31.8,5.9C10.4,519.8,6.3,532.6,6,536.6c-0.4,4-1.2,10.3-1.5,21.4C4.2,569.2,3,601.4,3.6,616.3z
			 M339.9,553.6h68.4v50.3h-68.4V553.6L339.9,553.6z M248.9,553.6h74.6v50.3h-74.6V553.6z M165.3,553.6H239v50.3h-73.7V553.6
			L165.3,553.6z M80.7,553.6h74.6v50.3H80.7V553.6z M24.2,553.6h46.7v50.3H24.2V553.6z"/>
		<path fill="#212312" d="M3.1,616.3c0.3,6.4,0.3,12.3,0.4,18.1c0.1,7.6,0.1,14.1,0.6,19.9c0.7,10.6,3.9,31.4,7,43.5
			c2.4,9.4,3.1,10.4,4.3,12.5c0.4,0.7,0.9,1.5,1.6,2.8c2.5,5.1,5.1,5.2,5.6,5.2H100l0.1-0.3c0-0.1,3.7-12.8,7-21
			c3.6-9.1,14.7-22.3,28.5-29c6.5-3.1,14.4-4.9,22.4-4.9c9.4,0,23.5,2.4,37.3,13.4c20.7,16.5,21.5,39.4,21.5,39.7v0.3l3.6,1.3H401
			c28.8,0,49.5-5.9,63.2-18.1c0.9-0.7,1.8-1.6,2.8-2.5c9.8-8.9,26.3-23.8,47.3-33.6c16.3-7.7,24.8-8.9,28.4-8.9
			c1.3,0,1.9,0.1,1.9,0.1l0.4,0.1v-0.4v-33.9h-0.3c-0.9,0-84-4-100.8-4.9c-14.9-0.7-21-3-22.1-3.4v-44h12v-20.1
			c0.4-0.1,1.5-0.7,1.9-1.8c0.4-1.3,0-3.1-1.5-5.2c-7.4-10.4-34.3-20.8-70.3-26.9c-41-7-75.8-8.2-76.2-8.2H182.4c0,0-51.7,0-88.6,0
			c-21.4,0-33.6,0-36.1,0c-1.2,0-2.5,0-3.7,0c-0.9,0-1.6,0-2.5,0c-6.2,0-13.8,0.4-25.7,6.1C10.5,519.3,6,532.1,5.6,536.6
			c0,0.7-0.1,1.6-0.3,2.5c-0.4,3.9-1,9.8-1.2,18.9c0,2.2-0.1,5.4-0.3,8.9C3.4,581.1,2.7,604.4,3.1,616.3z M4.5,567.1
			c0.1-3.6,0.1-6.7,0.3-8.9c0.1-9.1,0.9-14.9,1.2-18.9c0.1-0.9,0.1-1.8,0.3-2.5c0.4-4.2,4.8-16.8,19.8-23.8
			c13.4-6.2,20.8-6.1,27.9-5.9c1.2,0,2.5,0,3.7,0c2.5,0,14.7,0,36.1,0c37,0,88.6,0,88.6,0h105.4c0.3,0,35.2,1,76.1,8.2
			c42.8,7.3,64.2,18.6,69.8,26.6c1.3,1.9,1.8,3.4,1.3,4.5c-0.4,1.2-1.6,1.5-1.6,1.5h-0.3v0.3v19.5h-12v45.2l0.1,0.1
			c0.3,0.1,5.8,2.8,22.6,3.7c16.2,0.9,94.4,4.6,100.3,4.9v32.8c-1.9-0.3-10.3-0.6-30.3,8.9c-21.1,10-37.6,24.8-47.6,33.7
			c-1,0.9-1.9,1.8-2.8,2.5c-13.5,12-34,17.8-62.7,17.8H220.8l-3-1.2c-0.1-2.5-2.1-24.2-21.8-40c-14-11.1-28.2-13.5-37.7-13.5
			c-8.2,0-16.2,1.8-22.9,5.1c-14,6.8-25.3,20.2-28.8,29.4c-3,7.4-6.4,18.9-7,20.8H22.7c-0.3,0-2.5-0.1-4.9-4.9
			c-0.7-1.3-1.2-2.2-1.6-3c-1.2-1.9-1.9-3-4.3-12.2c-3.1-12.2-6.4-33-7-43.4c-0.4-5.9-0.6-12.5-0.6-20.1c-0.1-5.8-0.1-11.7-0.4-18.1
			C3.4,604.4,4.2,581.1,4.5,567.1z"/>
	</g>
	<path fill="#DDDCD5" d="M5.9,536.8c0.3-4,4.5-16.8,19.9-24.1c15.5-7.3,23.3-5.9,31.8-5.9c8.5-0.1,124.7,0,124.7,0h105.4
		c0,0,34.8,1,76.1,8.2c39.4,6.7,63.6,17.5,70.1,26.8c0.7,1,1.2,2.1,1.5,2.8H5.1C5.4,541.1,5.6,538.7,5.9,536.8z"/>
	<path fill="#3C491F" d="M3.4,613h419.2c-0.9-0.3-1.3-0.4-1.3-0.4V568h12v-19.9c0,0,1.9-0.4,2.1-2.5H5.1c-0.3,3.3-0.4,7.4-0.6,12.5
		C4.2,568.4,3.1,597.1,3.4,613z M339.9,553.6h68.4v50.3h-68.4V553.6L339.9,553.6z M248.9,553.6h74.6v50.3h-74.6V553.6z M165.3,553.6
		H239v50.3h-73.7V553.6L165.3,553.6z M80.7,553.6h74.6v50.3H80.7V553.6z M24.2,553.6h46.7v50.3H24.2V553.6z"/>
	<path fill="#1D3E60" d="M561.8,630.5c3.9-1.2,5.5-0.6,5.5-0.6s0.7,0.1,0.9,1V653c-0.1,3-3.3,2.8-6.5,1.3c-6.1-2.5-8.3-8.2-7.9-14
		C554.2,635.7,558.5,631.6,561.8,630.5z"/>
	
		<linearGradient id="SVGID_1_" gradientUnits="userSpaceOnUse" x1="32.5992" y1="84.4698" x2="32.5992" y2="90.5303" gradientTransform="matrix(-1.4862 0 0 1.4862 612.298 505.2299)">
		<stop  offset="0" style="stop-color:#83A9C6"/>
		<stop  offset="0.1385" style="stop-color:#799DBA"/>
		<stop  offset="0.3766" style="stop-color:#6483A1"/>
		<stop  offset="0.6854" style="stop-color:#446080"/>
		<stop  offset="1" style="stop-color:#1D3E60"/>
	</linearGradient>
	<path fill="url(#SVGID_1_)" d="M564.7,639.8c0,0-2.4-7.3-1.5-8.5c0.7-0.9,1.5-0.6,1.5-0.6V639.8z"/>
	<path fill="#8EB2B1" d="M565.5,655.5v-25.7c1.2,0,1.8,0.1,1.8,0.1s0.7,0.3,0.9,1V653C568,654.9,567,655.5,565.5,655.5z"/>
	
		<linearGradient id="SVGID_2_" gradientUnits="userSpaceOnUse" x1="30.6473" y1="84.1566" x2="30.6473" y2="91.7129" gradientTransform="matrix(-1.4862 0 0 1.4862 612.298 505.2299)">
		<stop  offset="1.212120e-002" style="stop-color:#FFFFFF"/>
		<stop  offset="0.167" style="stop-color:#F7F8F8"/>
		<stop  offset="0.362" style="stop-color:#E7ECEB"/>
		<stop  offset="0.5785" style="stop-color:#CEDBDA"/>
		<stop  offset="0.8088" style="stop-color:#AEC5C4"/>
		<stop  offset="1" style="stop-color:#8EB2B1"/>
	</linearGradient>
	<path fill="url(#SVGID_2_)" d="M565.8,630.4c0,0,1.9-0.4,1.9,0.6c0,0.6-0.3,3.9-0.6,5.8c-0.4,2.1-1.2,4.8-1.2,4.8L565.8,630.4z"/>
	<g>
		<path fill="#1D3E60" d="M463.2,681.7c0,1.5,1.2,2.7,2.7,2.7h65.8c1.5,0,2.7-1.2,2.7-2.7v-34.3c0-1.5-1.2-2.7-2.7-2.7h-65.8
			c-1.5,0-2.7,1.2-2.7,2.7V681.7z"/>
		<path fill="#010101" d="M462.9,681.7v-34.3c0-1.6,1.3-3,3-3h65.8c1.6,0,3,1.3,3,3v34.3c0,1.6-1.3,3-3,3h-65.8
			C464.3,684.6,462.9,683.3,462.9,681.7z M465.9,645.1c-1.2,0-2.2,1-2.2,2.2v34.3c0,1.2,1,2.2,2.2,2.2h65.8c1.2,0,2.2-1,2.2-2.2
			v-34.3c0-1.2-1-2.2-2.2-2.2H465.9z"/>
	</g>
	<g>
		<g>
			<path fill="#010101" d="M467.5,680.5h0.7V649c0-0.1,0-0.4,0.1-0.4c0.1-0.1,0.3,0,0.4,0c0.1,0.1,0.4,0.3,0.6,0.4l0.4-0.6
				c-0.3-0.1-0.4-0.3-0.6-0.4c-0.3-0.3-0.9-0.3-1.2,0c-0.1,0.1-0.6,0.4-0.6,1.2v31.3H467.5z"/>
			<path fill="#010101" d="M470.8,680.5h0.7V649c0-0.1,0-0.4,0.1-0.4c0.1-0.1,0.3,0,0.4,0c0.1,0.1,0.4,0.3,0.6,0.4l0.4-0.6
				c-0.3-0.1-0.4-0.3-0.6-0.4c-0.3-0.3-0.9-0.3-1.2,0c-0.1,0.1-0.6,0.4-0.6,1.2v31.3H470.8z"/>
			<path fill="#010101" d="M473.9,680.5h0.7V649c0-0.1,0-0.4,0.1-0.4c0.1-0.1,0.3,0,0.4,0c0.1,0.1,0.4,0.3,0.6,0.4l0.4-0.6
				c-0.3-0.1-0.4-0.3-0.6-0.4c-0.3-0.3-0.9-0.3-1.2,0c-0.1,0.1-0.6,0.4-0.6,1.2v31.3H473.9z"/>
			<path fill="#010101" d="M477.1,680.5h0.7V649c0-0.1,0-0.4,0.1-0.4c0.1-0.1,0.3,0,0.4,0c0.1,0.1,0.4,0.3,0.6,0.4l0.4-0.6
				c-0.3-0.1-0.4-0.3-0.6-0.4c-0.3-0.3-0.9-0.3-1.2,0c-0.1,0.1-0.6,0.4-0.6,1.2v31.3H477.1z"/>
			<path fill="#010101" d="M480.2,680.5h0.7V649c0-0.1,0-0.4,0.1-0.4c0.1-0.1,0.3,0,0.4,0c0.1,0.1,0.4,0.3,0.6,0.4l0.4-0.6
				c-0.3-0.1-0.4-0.3-0.6-0.4c-0.3-0.3-0.9-0.3-1.2,0c-0.1,0.1-0.6,0.4-0.6,1.2v31.3H480.2z"/>
			<path fill="#010101" d="M483.4,680.5h0.7V649c0-0.1,0-0.4,0.1-0.4c0.1-0.1,0.3,0,0.4,0c0.1,0.1,0.4,0.3,0.6,0.4l0.4-0.6
				c-0.3-0.1-0.4-0.3-0.6-0.4c-0.3-0.3-0.9-0.3-1.2,0c-0.1,0.1-0.6,0.4-0.6,1.2v31.3H483.4z"/>
			<path fill="#010101" d="M486.6,680.5h0.7V649c0-0.1,0-0.4,0.1-0.4c0.1-0.1,0.3,0,0.4,0c0.1,0.1,0.4,0.3,0.6,0.4l0.4-0.6
				c-0.3-0.1-0.4-0.3-0.6-0.4c-0.3-0.3-0.9-0.3-1.2,0c-0.1,0.1-0.6,0.4-0.6,1.2v31.3H486.6z"/>
			<path fill="#010101" d="M489.7,680.5h0.7V649c0-0.1,0-0.4,0.1-0.4c0.1-0.1,0.3,0,0.4,0c0.1,0.1,0.4,0.3,0.6,0.4l0.4-0.6
				c-0.3-0.1-0.4-0.3-0.6-0.4c-0.3-0.3-0.9-0.3-1.2,0c-0.1,0.1-0.6,0.4-0.6,1.2v31.3H489.7z"/>
			<path fill="#010101" d="M492.8,680.5h0.7V649c0-0.1,0-0.4,0.1-0.4c0.1-0.1,0.3,0,0.4,0c0.1,0.1,0.4,0.3,0.6,0.4l0.4-0.6
				c-0.3-0.1-0.4-0.3-0.6-0.4c-0.3-0.3-0.9-0.3-1.2,0c-0.1,0.1-0.6,0.4-0.6,1.2v31.3H492.8z"/>
			<path fill="#010101" d="M495.9,680.5h0.7V649c0-0.1,0-0.4,0.1-0.4c0.1-0.1,0.3,0,0.4,0c0.1,0.1,0.4,0.3,0.6,0.4l0.4-0.6
				c-0.3-0.1-0.4-0.3-0.6-0.4c-0.3-0.3-0.9-0.3-1.2,0c-0.1,0.1-0.6,0.4-0.6,1.2v31.3H495.9z"/>
			<path fill="#010101" d="M499.2,680.5h0.7V649c0-0.1,0-0.4,0.1-0.4c0.1-0.1,0.3,0,0.4,0c0.1,0.1,0.4,0.3,0.6,0.4l0.4-0.6
				c-0.3-0.1-0.4-0.3-0.6-0.4c-0.3-0.3-0.9-0.3-1.2,0c-0.1,0.1-0.6,0.4-0.6,1.2v31.3H499.2z"/>
			<path fill="#010101" d="M502.3,680.5h0.7V649c0-0.1,0-0.4,0.1-0.4c0.1-0.1,0.3,0,0.4,0c0.1,0.1,0.4,0.3,0.6,0.4l0.4-0.6
				c-0.3-0.1-0.4-0.3-0.6-0.4c-0.3-0.3-0.9-0.3-1.2,0c-0.1,0.1-0.6,0.4-0.6,1.2v31.3H502.3z"/>
			<path fill="#010101" d="M505.4,680.5h0.7V649c0-0.1,0-0.4,0.1-0.4c0.1-0.1,0.3,0,0.4,0c0.1,0.1,0.4,0.3,0.6,0.4l0.4-0.6
				c-0.3-0.1-0.4-0.3-0.6-0.4c-0.3-0.3-0.9-0.3-1.2,0c-0.1,0.1-0.6,0.4-0.6,1.2v31.3H505.4z"/>
			<path fill="#010101" d="M508.6,680.5h0.7V649c0-0.1,0-0.4,0.1-0.4s0.3,0,0.4,0c0.1,0.1,0.4,0.3,0.6,0.4l0.4-0.6
				c-0.3-0.1-0.4-0.3-0.6-0.4c-0.3-0.3-0.9-0.3-1.2,0c-0.1,0.1-0.6,0.4-0.6,1.2v31.3H508.6z"/>
			<path fill="#010101" d="M511.7,680.5h0.7V649c0-0.1,0-0.4,0.1-0.4s0.3,0,0.4,0c0.1,0.1,0.4,0.3,0.6,0.4l0.4-0.6
				c-0.3-0.1-0.4-0.3-0.6-0.4c-0.3-0.3-0.9-0.3-1.2,0c-0.1,0.1-0.6,0.4-0.6,1.2v31.3H511.7z"/>
			<path fill="#010101" d="M515,680.5h0.7V649c0-0.1,0-0.4,0.1-0.4c0.1-0.1,0.3,0,0.4,0c0.1,0.1,0.4,0.3,0.6,0.4l0.4-0.6
				c-0.3-0.1-0.4-0.3-0.6-0.4c-0.3-0.3-0.9-0.3-1.2,0c-0.1,0.1-0.6,0.4-0.6,1.2v31.3H515z"/>
			<path fill="#010101" d="M518.1,680.5h0.7V649c0-0.1,0-0.4,0.1-0.4c0.1-0.1,0.3,0,0.4,0c0.1,0.1,0.4,0.3,0.6,0.4l0.4-0.6
				c-0.3-0.1-0.4-0.3-0.6-0.4c-0.3-0.3-0.9-0.3-1.2,0c-0.1,0.1-0.6,0.4-0.6,1.2v31.3H518.1z"/>
			<path fill="#010101" d="M521.2,680.5h0.7V649c0-0.1,0-0.4,0.1-0.4s0.3,0,0.4,0c0.1,0.1,0.4,0.3,0.6,0.4l0.4-0.6
				c-0.3-0.1-0.4-0.3-0.6-0.4c-0.3-0.3-0.9-0.3-1.2,0c-0.1,0.1-0.6,0.4-0.6,1.2v31.3H521.2z"/>
			<path fill="#010101" d="M524.3,680.5h0.7V649c0-0.1,0-0.4,0.1-0.4c0.1-0.1,0.3,0,0.4,0c0.1,0.1,0.4,0.3,0.6,0.4l0.4-0.6
				c-0.3-0.1-0.4-0.3-0.6-0.4c-0.3-0.3-0.9-0.3-1.2,0c-0.1,0.1-0.6,0.4-0.6,1.2v31.3H524.3z"/>
			<path fill="#010101" d="M527.4,680.5h0.7V649c0-0.1,0-0.4,0.1-0.4c0.1-0.1,0.3,0,0.4,0c0.1,0.1,0.4,0.3,0.6,0.4l0.4-0.6
				c-0.3-0.1-0.4-0.3-0.6-0.4c-0.3-0.3-0.9-0.3-1.2,0c-0.1,0.1-0.6,0.4-0.6,1.2v31.3H527.4z"/>
		</g>
	</g>
	<path fill="#010101" d="M547.1,619.1c0,0,0.4-1.8,3.6-1.8c2.7,0,3.4,1.6,3.4,1.6l0.3,0.6h-7.3V619.1z M550.6,618.1
		c-1.5,0-2.1,0.4-2.5,0.7h4.8C552.6,618.5,551.8,618.1,550.6,618.1z"/>
	<path fill="#010101" d="M433.5,548.5l0.1-0.7c0,0-7.1-1.2-22.9-1H5.1v0.7h405.7C426.4,547.3,433.4,548.5,433.5,548.5z"/>
	<path fill="#010101" d="M544.2,653v-32.4h0.4c0,0,6.4,0,9.7,0c0.9,0,1.5,0.3,2.1,0.7c0.9,0.9,0.7,2.2,0.7,2.4v28.8l-0.4,1.6
		L544.2,653z M556.4,623.7c0,0,0-1-0.6-1.8c-0.3-0.3-0.9-0.6-1.5-0.6l0,0c-2.7,0-7.9,0-9.2,0v30.9l11.1,1.2l0.3-0.9L556.4,623.7z"/>
	<path fill="#010101" d="M546.3,619h8.9v2.5h-8.9V619z M554.5,619.7h-7.4v1h7.4V619.7z"/>
	<rect x="547.2" y="620.1" fill="#7A8D8A" width="6.7" height="1"/>
	<path fill="#8EB2B1" d="M556.7,659.4c0,0,0-35.5,0-36.4c0-0.9,0-1.9-1.6-1.9c-1.9,0-10.1,0-10.1,0v37L556.7,659.4z"/>
	<path fill="#8EB2B1" d="M554.5,620.3h-7.9c0,0-0.4-1,0.7-1.9c1.2-0.7,4.8-0.7,6.1,0C555.2,619.3,554.5,620.3,554.5,620.3z"/>
	
		<linearGradient id="SVGID_3_" gradientUnits="userSpaceOnUse" x1="47.0313" y1="80.319" x2="124.6117" y2="80.319" gradientTransform="matrix(-1.4862 0 0 1.4862 612.298 505.2299)">
		<stop  offset="0" style="stop-color:#83A9C6"/>
		<stop  offset="0.1385" style="stop-color:#799DBA"/>
		<stop  offset="0.3766" style="stop-color:#6483A1"/>
		<stop  offset="0.6854" style="stop-color:#446080"/>
		<stop  offset="1" style="stop-color:#1D3E60"/>
	</linearGradient>
	<path fill="url(#SVGID_3_)" d="M542.4,626.7c0,0-100.8-0.1-103.9-0.1c-8.5,0-11.4-4-11.4-4l115.3-0.1V626.7z"/>
	
		<linearGradient id="SVGID_4_" gradientUnits="userSpaceOnUse" x1="38.0705" y1="80.319" x2="44.7477" y2="80.319" gradientTransform="matrix(-1.4862 0 0 1.4862 612.298 505.2299)">
		<stop  offset="1.212120e-002" style="stop-color:#FFFFFF"/>
		<stop  offset="0.167" style="stop-color:#F7F8F8"/>
		<stop  offset="0.362" style="stop-color:#E7ECEB"/>
		<stop  offset="0.5785" style="stop-color:#CEDBDA"/>
		<stop  offset="0.8088" style="stop-color:#AEC5C4"/>
		<stop  offset="1" style="stop-color:#8EB2B1"/>
	</linearGradient>
	<path fill="url(#SVGID_4_)" d="M545.9,622.5h9.1c0,0,0.9,0,0.9,1.2c0,1.2,0,3,0,3h-10V622.5z"/>
	<rect x="452.5" y="616.7" fill="#010101" width="0.7" height="79.7"/>
	<path fill="#010101" d="M544.8,631.4v-0.7H439c-0.1,0-10.8-1-16.9-9.4l-0.6,0.4c6.2,8.6,17.4,9.7,17.5,9.7H544.8z"/>
	<rect x="453.1" y="639.5" fill="#010101" width="91.5" height="0.7"/>
	<rect x="421" y="612.6" fill="#010101" width="0.7" height="102.8"/>
	<rect x="421.6" y="695.6" fill="#010101" width="41" height="0.7"/>
	<path fill="#122336" d="M580.2,670.5c0,0-2.1,3.9-2.4,7.9c-0.4,3.9,0.4,8.8,0.4,8.8l-44.1-3l-21.7,11.9h-38.5l-3.4-3.6
		c0,0,23.3-17.7,41-24.5c17.5-7,47.3-9.4,57.1-6.2C578.4,665.2,580.2,670.5,580.2,670.5z"/>
	<path fill="#2D507E" d="M322.2,716.6v3.7H414c0,0,13.5-0.3,25.7-5.1c12.2-4.8,33.1-16.6,50.4-30.5c17.2-13.8,39.4-21.8,57.4-21.8
		s27,5.6,31.2,7.1c4.3,1.5,6.4,1.2,9.2,1c2.7-0.1,3-0.3,2.8-1c-0.6-2.2-13.4-16.9-42.5-18.1c-21.1-0.9-44,9.1-59.7,22.9
		c-15.6,13.8-31.4,24.7-39.8,29.6c-8.5,4.9-24.2,12-34.9,12.2L322.2,716.6z"/>
	<g>
		<circle fill="#493D35" cx="547.5" cy="722.1" r="47.4"/>
		<circle fill="#1E2021" cx="547.5" cy="722.1" r="38.2"/>
		<circle fill="#0F0F0E" cx="547.5" cy="722.1" r="29.7"/>
		
			<radialGradient id="SVGID_5_" cx="43.5998" cy="145.9226" r="18.062" gradientTransform="matrix(-1.4862 0 0 1.4862 612.298 505.2299)" gradientUnits="userSpaceOnUse">
			<stop  offset="0.5615" style="stop-color:#8D9092"/>
			<stop  offset="1" style="stop-color:#4F5355"/>
		</radialGradient>
		<circle fill="url(#SVGID_5_)" cx="547.5" cy="722.1" r="26.9"/>
		<circle fill="#363939" cx="547.5" cy="722.1" r="14"/>
		
			<radialGradient id="SVGID_6_" cx="43.5788" cy="145.9355" r="4.6196" gradientTransform="matrix(-1.4862 0 0 1.4862 612.298 505.2299)" gradientUnits="userSpaceOnUse">
			<stop  offset="0.5615" style="stop-color:#8D9092"/>
			<stop  offset="1" style="stop-color:#4F5355"/>
		</radialGradient>
		<circle fill="url(#SVGID_6_)" cx="547.5" cy="722.1" r="6.8"/>
		<path fill="#0B0C0B" d="M556.9,744.2c-0.1-2.5-5.2-5.8-7.1-5.6c-2.1,0.1-6.5,4-6.5,6.5c0.1,2.5,3.3,4.3,7.1,4
			C554,748.8,557,746.8,556.9,744.2z"/>
		<path fill="#0B0C0B" d="M552.4,699.4c-1.2,2.2,1.3,7.6,3.1,8.6c1.8,0.9,7.7,0,8.9-2.1c1.2-2.2-0.6-5.4-3.9-7.1
			C557.2,696.8,553.6,697.1,552.4,699.4z"/>
		<path fill="#0B0C0B" d="M527.3,710.5c1.6,1.8,7.7,1.2,9.2-0.3c1.5-1.3,2.5-7.3,0.7-9.1c-1.6-1.8-5.4-1.2-8,1.5
			C526.5,705.2,525.7,708.7,527.3,710.5z"/>
		<path fill="#0B0C0B" d="M529.8,737.5c2.2-1,3.4-7,2.7-8.8c-0.9-1.8-6.2-4.6-8.5-3.6c-2.2,1-2.8,4.6-1.2,8S527.6,738.6,529.8,737.5
			z"/>
		<path fill="#0B0C0B" d="M571.1,719.6c-2.4-0.4-7,3.6-7.3,5.5c-0.4,1.9,2.2,7.4,4.6,7.9c2.4,0.4,5.1-2.1,5.8-5.8
			C574.8,723.6,573.5,720.2,571.1,719.6z"/>
	</g>
	<g>
		<circle fill="#493D35" cx="159.6" cy="723.7" r="49.3"/>
		<circle fill="#1E2021" cx="159.6" cy="723.7" r="39.7"/>
		<circle fill="#0F0F0E" cx="159.6" cy="723.7" r="30.9"/>
		
			<radialGradient id="SVGID_7_" cx="304.5573" cy="146.9991" r="18.7946" gradientTransform="matrix(-1.4862 0 0 1.4862 612.298 505.2299)" gradientUnits="userSpaceOnUse">
			<stop  offset="0.5615" style="stop-color:#8D9092"/>
			<stop  offset="1" style="stop-color:#4F5355"/>
		</radialGradient>
		<circle fill="url(#SVGID_7_)" cx="159.6" cy="723.7" r="27.9"/>
		<circle fill="#363939" cx="159.6" cy="723.7" r="14.6"/>
		
			<radialGradient id="SVGID_8_" cx="304.5568" cy="147.0278" r="4.8022" gradientTransform="matrix(-1.4862 0 0 1.4862 612.298 505.2299)" gradientUnits="userSpaceOnUse">
			<stop  offset="0.5615" style="stop-color:#8D9092"/>
			<stop  offset="1" style="stop-color:#4F5355"/>
		</radialGradient>
		<circle fill="url(#SVGID_8_)" cx="159.6" cy="723.7" r="7.1"/>
		<path fill="#0B0C0B" d="M169.4,746.8c-0.1-2.5-5.4-6.1-7.4-5.9c-2.1,0.1-6.8,4.2-6.7,6.7s3.4,4.5,7.3,4.2
			C166.4,751.5,169.6,749.3,169.4,746.8z"/>
		<path fill="#0B0C0B" d="M164.8,700.1c-1.2,2.2,1.3,7.9,3.3,8.9c1.8,1,8,0,9.2-2.2c1.2-2.2-0.6-5.6-4-7.4
			C169.7,697.4,166,697.7,164.8,700.1z"/>
		<path fill="#0B0C0B" d="M138.7,711.7c1.8,1.9,8,1.2,9.5-0.3s2.5-7.6,0.9-9.5c-1.8-1.9-5.5-1.2-8.3,1.5
			C137.8,706,136.9,709.8,138.7,711.7z"/>
		<path fill="#0B0C0B" d="M141.3,739.8c2.4-1,3.6-7.1,2.7-9.1s-6.4-4.9-8.8-3.7c-2.4,1-2.8,4.9-1.2,8.5
			C135.7,738.9,139,740.8,141.3,739.8z"/>
		<path fill="#0B0C0B" d="M184.1,721.2c-2.5-0.4-7.1,3.6-7.6,5.6s2.2,7.7,4.8,8.2c2.5,0.4,5.2-2.2,5.9-6.1
			C188.1,725.2,186.7,721.6,184.1,721.2z"/>
	</g>
	
		<linearGradient id="SVGID_9_" gradientUnits="userSpaceOnUse" x1="120.9783" y1="14.2781" x2="198.626" y2="14.2781" gradientTransform="matrix(-1.4862 0 0 1.4862 612.298 505.2299)">
		<stop  offset="0" style="stop-color:#FFFFFF"/>
		<stop  offset="0.3832" style="stop-color:#F3F2EF"/>
		<stop  offset="1" style="stop-color:#DDDCD5"/>
	</linearGradient>
	<path fill="url(#SVGID_9_)" d="M317.1,511.2c1.9,0,62.4,14.4,78.5,21c16.1,6.5,19.5,9.5,19.5,9.5h17.4c0,0-4-6.8-33-16.5
		C362.6,512.8,317.1,511.2,317.1,511.2z"/>
	
		<linearGradient id="SVGID_10_" gradientUnits="userSpaceOnUse" x1="220.0901" y1="11.7453" x2="407.0849" y2="11.7453" gradientTransform="matrix(-1.4862 0 0 1.4862 612.298 505.2299)">
		<stop  offset="0" style="stop-color:#FFFFFF"/>
		<stop  offset="0.3832" style="stop-color:#F3F2EF"/>
		<stop  offset="1" style="stop-color:#DDDCD5"/>
	</linearGradient>
	<path fill="url(#SVGID_10_)" d="M285.2,510.2c0,0-209.7-1.9-232.7,0c-23,1.9-35.4,7.4-41,16.9c-5.6,9.7-4,8.9-4,8.9
		s10.3-19,38.5-19.9c23-0.6,237.8-1.9,237.8-1.9L285.2,510.2z"/>
	<path fill="#717370" d="M434,541.7H5.5c0,0-0.6,0.1-0.7,2.8c0,1.6,0.4,2.5,0.4,2.5s404.7,0,412.4,0c7.9,0,16.1,1.3,16.1,1.3
		s2.2-1,1.8-3.1C435.3,543.3,434,541.7,434,541.7z"/>
	<rect x="3.9" y="610.8" fill="#DDDCD5" width="417.6" height="4"/>
	<path fill="#2D507E" d="M223.2,720.8c0,0-5.8,0.9-6.8-3.1c-0.4-1.5-3.1-14-7.9-22.9c-4.8-8.9-16.9-22-32.2-26.9
		c-22.4-7-41,3.6-48.2,7.6c-6.1,3.6-16.5,15.8-20.8,25.3c-5.6,12.3-5.1,21.8-7.7,23.9c-2.1,1.8-4.5,0.6-4.5,0.6s1.8-1.3,2.1-4.3
		c0.4-3,2.2-16.6,9.4-28.8c11.6-19.9,29.9-31.5,52.3-31.5s37.6,11,44.6,19c7.9,8.9,12,18.6,13.4,22.7
		C219.8,711.5,220.5,719.6,223.2,720.8z"/>
	
		<linearGradient id="SVGID_11_" gradientUnits="userSpaceOnUse" x1="16.6182" y1="113.8369" x2="101.1963" y2="113.8369" gradientTransform="matrix(-1.4862 0 0 1.4862 612.298 505.2299)">
		<stop  offset="0" style="stop-color:#83A9C6"/>
		<stop  offset="0.1385" style="stop-color:#799DBA"/>
		<stop  offset="0.3766" style="stop-color:#6483A1"/>
		<stop  offset="0.6854" style="stop-color:#446080"/>
		<stop  offset="1" style="stop-color:#1D3E60"/>
	</linearGradient>
	<path fill="url(#SVGID_11_)" d="M541,652.7c-34.8,1.5-79.1,43.5-79.1,43.5s47.3-32.5,72.2-37.2c25-4.6,38.8,6.8,45.3,8.6
		c6.5,1.8,8.2,0.7,8.2,0.7S574.7,651.4,541,652.7z"/>
	
		<linearGradient id="SVGID_12_" gradientUnits="userSpaceOnUse" x1="271.0254" y1="118.9844" x2="341.8773" y2="118.9844" gradientTransform="matrix(-1.4862 0 0 1.4862 612.298 505.2299)">
		<stop  offset="0" style="stop-color:#83A9C6"/>
		<stop  offset="0.1385" style="stop-color:#799DBA"/>
		<stop  offset="0.3766" style="stop-color:#6483A1"/>
		<stop  offset="0.6854" style="stop-color:#446080"/>
		<stop  offset="1" style="stop-color:#1D3E60"/>
	</linearGradient>
	<path fill="url(#SVGID_12_)" d="M209.5,694.6c0,0-17.4-32.4-49.3-29.9c-44.6,3.6-56,36.9-56,36.9s7.4-30,43.5-37.7
		C176.9,657.6,205.5,673.9,209.5,694.6z"/>
	<path fill="#0B0C0B" d="M15.2,689.2H0.9c0,0-0.3,2.4-0.6,4.9C0,696.7,1,703.5,1,703.5l16.5,0.1L15.2,689.2z"/>
	<polygon fill="#010101" points="414.2,549.1 414.2,716.6 413.4,716.6 413.4,549.8 335.1,549.8 335.1,716.6 334.4,716.6 
		334.4,549.1 	"/>
	<polygon fill="#010101" points="249.4,546.6 249.4,553.6 248.9,553.6 248.9,604.1 249.4,604.1 249.4,716.6 248.5,716.6 
		248.5,546.6 	"/>
	<rect x="248.9" y="553.6" fill="#010101" width="0.4" height="50.4"/>
	<polygon fill="#010101" points="165.7,546.7 165.7,553.6 165.3,553.6 165.3,604.1 165.7,604.1 165.7,659.7 165,659.7 165,546.7 	
		"/>
	<rect x="165.3" y="553.6" fill="#010101" width="0.4" height="50.4"/>
	<polygon fill="#010101" points="81,546.3 81,553.6 80.7,553.6 80.7,604.1 81,604.1 81,716.6 80.3,716.6 80.3,546.3 	"/>
	<rect x="80.7" y="553.6" fill="#010101" width="0.4" height="50.4"/>
	<g>
		<path fill="#1D3E60" d="M412.4,632.3c0,0.7,0.6,1.5,1.5,1.5l0,0c0.7,0,1.5-0.6,1.5-1.5v-4.8c0-0.7-0.6-1.5-1.5-1.5l0,0
			c-0.7,0-1.5,0.6-1.5,1.5V632.3z"/>
		<path fill="#212312" d="M412,632.3v-4.8c0-1,0.9-1.8,1.8-1.8c1,0,1.8,0.7,1.8,1.8v4.8c0,1-0.9,1.8-1.8,1.8
			C412.9,634.1,412,633.4,412,632.3z M412.7,627.6v4.8c0,0.6,0.4,1,1,1s1-0.4,1-1v-4.8c0-0.6-0.4-1-1-1
			C413.3,626.5,412.7,627,412.7,627.6z"/>
	</g>
	<g>
		<path fill="#1D3E60" d="M412.4,699.9c0,0.7,0.6,1.5,1.5,1.5l0,0c0.7,0,1.5-0.6,1.5-1.5v-4.8c0-0.7-0.6-1.5-1.5-1.5l0,0
			c-0.7,0-1.5,0.6-1.5,1.5V699.9z"/>
		<path fill="#212312" d="M412,699.9v-4.8c0-1,0.9-1.8,1.8-1.8c1,0,1.8,0.9,1.8,1.8v4.8c0,1-0.9,1.8-1.8,1.8S412,701,412,699.9z
			 M412.7,695.2v4.8c0,0.6,0.4,1,1,1s1-0.4,1-1v-4.8c0-0.6-0.4-1-1-1C413.3,694.2,412.7,694.6,412.7,695.2z"/>
	</g>
	<g>
		<path fill="#3C491F" d="M412.4,566.2c0,0.7,0.6,1.5,1.5,1.5l0,0c0.7,0,1.5-0.6,1.5-1.5v-4.8c0-0.7-0.6-1.5-1.5-1.5l0,0
			c-0.7,0-1.5,0.6-1.5,1.5V566.2z"/>
		<path fill="#010101" d="M412,566.2v-4.8c0-1,0.9-1.8,1.8-1.8c1,0,1.8,0.7,1.8,1.8v4.8c0,1-0.9,1.8-1.8,1.8
			C412.9,568.1,412,567.2,412,566.2z M412.7,561.4v4.8c0,0.6,0.4,1,1,1s1-0.4,1-1v-4.8c0-0.6-0.4-1-1-1
			C413.3,560.4,412.7,560.8,412.7,561.4z"/>
	</g>
</g>
</svg>
