<?xml version="1.0" encoding="utf-8"?>
<!-- Generator: Adobe Illustrator 18.1.1, SVG Export Plug-In . SVG Version: 6.00 Build 0)  -->
<svg version="1.1" id="Isolation_Mode" xmlns="http://www.w3.org/2000/svg" xmlns:xlink="http://www.w3.org/1999/xlink" x="0px"
	 y="0px" viewBox="44.7 33.1 127.3 53" enable-background="new 44.7 33.1 127.3 53" xml:space="preserve">
<g>
	
		<linearGradient id="SVGID_1_" gradientUnits="userSpaceOnUse" x1="3137.5334" y1="-350.7195" x2="3149.9875" y2="-338.2653" gradientTransform="matrix(-0.2954 0 0 0.2954 1056.8745 147.4225)">
		<stop  offset="3.688520e-002" style="stop-color:#494A4A"/>
		<stop  offset="0.3238" style="stop-color:#9A9A99"/>
		<stop  offset="0.6721" style="stop-color:#BABABA"/>
	</linearGradient>
	<path fill="url(#SVGID_1_)" d="M126.3,47.3l3.1-3.6c0.1-0.2,0.4-0.2,0.6,0c0.1,0.1,0.2,0.4,0,0.6l-2.7,3.1L126.3,47.3L126.3,47.3z"
		/>
	<path fill="#2C2B2B" d="M129.4,43.6c0.1-0.2,0.5-0.2,0.6-0.1s0.1,0.2,0.1,0.3s0,0.2-0.1,0.3l-2.7,3.1h-1.2L129.4,43.6z M130,44.1
		c0.1-0.1,0.1-0.1,0.1-0.2s-0.1-0.1-0.1-0.2c-0.1-0.1-0.3-0.1-0.4,0l-3,3.5h0.8L130,44.1z"/>
</g>
<rect x="114.6" y="37" opacity="0.3" fill="#0092FF" width="16.8" height="10.7"/>
<ellipse opacity="0.6" fill="#847B6E" cx="108.1" cy="82.1" rx="62.9" ry="4.1"/>
<path fill="#070B07" d="M44.7,59.6v2.9h0.4v1.1h7.6v2.6h3.7l0.3,0.4H57l0.6-0.5h10.5c0,0,3.9-3.3,9.5-3.2s9.5,7.9,9.5,7.9l24.7-2.5
	v1.8h-4.3c0,0-1,0.1-1.2,0.5s0.2,0.6,0.2,0.6s0.1-0.1,0.5-0.2c0.4-0.1,1-0.1,1-0.1h9.7l0.1,0.2h1v0.6l13.1,0.1v-0.5h2.2V72h3
	l0.3-0.4v-0.8h0.6v0.7l0.6,0.9l0.5-0.8c0,0,0.1,0,0.4,0.3c0.4,0.3,1,0.6,1,0.6l10.5,0.3c0,0,0.1-0.4,0.2-1.2l-8.5-0.1l-0.1-3.5h0.4
	l0.4,2.9c0,0,0.2,0.2,0.6,0.2c0.3,0,7.1,0,7.4,0c0.6-2.1,1.8-5.7,4.4-7.4c3.8-2.4,10.8-0.9,10.8-0.9l1-4c0,0-1.4-1.6-5.1-2.2
	c-5.4-0.9-9.4,1.4-13.6,4.5c-3.4,2.4-6.1,4-6.1,4l-30.2-0.9l-1.7-0.1v-3.7L44.7,59.6z M99.4,68.5l0.1-0.8l0.3-0.2l5,0.1l-0.1,0.5
	L99.4,68.5z M95,67.2l3.1,0.1l0.7,0.4l-0.1,0.7l-0.2,0.2L95,67.2z M89.4,69.1h0.3v-0.4h4.2v0.4l-4.4,0.3L89.4,69.1z"/>
<linearGradient id="SVGID_2_" gradientUnits="userSpaceOnUse" x1="3094.0552" y1="-272.7153" x2="3199.4551" y2="-272.7153" gradientTransform="matrix(-0.2954 0 0 0.2954 1056.8745 147.4225)">
	<stop  offset="0" style="stop-color:#343533"/>
	<stop  offset="1" style="stop-color:#0E1014"/>
</linearGradient>
<path fill="url(#SVGID_2_)" d="M143,64.6l-30.8-0.4l-0.4,0.3l0.1,4.8l19.6,0.3c0,0,4.1-0.1,7.6-2.2C142.7,65.4,143,64.6,143,64.6z"
	/>
<path fill="#3A4C37" d="M110.3,50.2c0.1,0.3,0.3,0.5,0.3,0.5s-0.1,3.5,0.4,7c0.5,3.5,1,5.9,1,5.9h0.3c0,0,0,0.4,0,0.6
	c0,0.1-0.2-0.1-0.2,0.8c0,0.9,0,4.8,0,4.8H132c0,0,5.2-0.2,10.8-4.5c5.7-4.3,10.2-6.8,14.1-8.3c1.7-0.7,3.5-0.9,3.5-0.9l0.1-7.2
	l-20-0.6c0,0-2.1-0.1-4-0.4s-3-0.8-3-0.8v-7.8c0,0,0.1-0.3,0.5-0.5c0.4-0.3,0.6-0.4,0.6-0.4s0.6,0,1.1-0.2c0.6-0.2,0.8-0.4,0.8-0.4
	l-1.9-1.6c0,0-0.1-0.5-0.4-0.6c-0.3-0.1-8.7-1.6-13.3-2c-4.5-0.4-7.7-0.3-7.7-0.3s-1.2,0-1.9,0.9s-0.8,1.6-0.9,3.8
	c-0.1,2.3-0.1,8.1,0,8.7c0,1.1,0.2,1.4,0.2,1.4s-0.4,0.1-0.4,0.7C110.1,49.6,110.2,49.9,110.3,50.2z M115.2,38c0.4-0.3,1-0.3,1-0.3
	l14.2,0.2c0,0,0.5,0,0.7,0.4s0.1,0.8,0.1,0.8v7.1c0,0,0,0.6-0.3,0.8c-0.3,0.2-0.4,0.2-1,0.2s-14,0-14,0s-0.6,0-0.8-0.3
	c-0.3-0.4-0.3-0.7-0.3-0.7v-7.3C114.8,39,114.8,38.3,115.2,38z"/>
<g>
	<path fill="#11180F" d="M142.5,61.5v-7.2c0-0.4,0.3-0.6,0.6-0.6H157c0.4,0,0.6,0.3,0.6,0.6v7.3c0,0.4-0.3,0.6-0.6,0.6h-13.9
		C142.8,62.2,142.5,61.9,142.5,61.5z M143.1,53.8c-0.3,0-0.5,0.2-0.5,0.5v7.3c0,0.3,0.2,0.5,0.5,0.5H157c0.3,0,0.5-0.2,0.5-0.5v-7.3
		c0-0.3-0.2-0.5-0.5-0.5H143.1z"/>
	<g>
		<g>
			<path fill="#11180F" d="M143.5,61.3L143.5,61.3l0.1-6.6v-0.1h0.1l0.1,0.1l0.1-0.1v-0.1c-0.1,0-0.1-0.1-0.1-0.1
				c-0.1-0.1-0.2-0.1-0.3,0c-0.1,0-0.1,0.1-0.1,0.2L143.5,61.3L143.5,61.3z"/>
			<path fill="#11180F" d="M144.1,61.3L144.1,61.3l0.1-6.6v-0.1h0.1l0.1,0.1l0.1-0.1c-0.1,0-0.1-0.1-0.1-0.1c-0.1-0.1-0.2-0.1-0.3,0
				c-0.1,0-0.1,0.1-0.1,0.2L144.1,61.3L144.1,61.3z"/>
			<path fill="#11180F" d="M144.8,61.3L144.8,61.3l0.1-6.6v-0.1h0.1l0.1,0.1l0.1-0.1c-0.1,0-0.1-0.1-0.1-0.1c-0.1-0.1-0.2-0.1-0.3,0
				c-0.1,0-0.1,0.1-0.1,0.2L144.8,61.3L144.8,61.3z"/>
			<path fill="#11180F" d="M145.5,61.3L145.5,61.3l0.1-6.6v-0.1h0.1l0.1,0.1l0.1-0.1c-0.1,0-0.1-0.1-0.1-0.1c-0.1-0.1-0.2-0.1-0.3,0
				c-0.1,0-0.1,0.1-0.1,0.2L145.5,61.3L145.5,61.3z"/>
			<path fill="#11180F" d="M146.1,61.3L146.1,61.3l0.1-6.6v-0.1h0.1l0.1,0.1l0.1-0.1c-0.1,0-0.1-0.1-0.1-0.1c-0.1-0.1-0.2-0.1-0.3,0
				c-0.1,0-0.1,0.1-0.1,0.2L146.1,61.3L146.1,61.3z"/>
			<path fill="#11180F" d="M146.8,61.3L146.8,61.3l0.1-6.6v-0.1h0.1l0.1,0.1l0.1-0.1c-0.1,0-0.1-0.1-0.1-0.1c-0.1-0.1-0.2-0.1-0.3,0
				c-0.1,0-0.1,0.1-0.1,0.2L146.8,61.3L146.8,61.3z"/>
			<path fill="#11180F" d="M147.5,61.3L147.5,61.3l0.1-6.6v-0.1h0.1l0.1,0.1l0.1-0.1c-0.1,0-0.1-0.1-0.1-0.1c-0.1-0.1-0.2-0.1-0.3,0
				c-0.1,0-0.1,0.1-0.1,0.2L147.5,61.3L147.5,61.3z"/>
			<path fill="#11180F" d="M148.1,61.3L148.1,61.3l0.1-6.6v-0.1h0.1l0.1,0.1l0.1-0.1c-0.1,0-0.1-0.1-0.1-0.1c-0.1-0.1-0.2-0.1-0.3,0
				c-0.1,0-0.1,0.1-0.1,0.2L148.1,61.3L148.1,61.3z"/>
			<path fill="#11180F" d="M148.8,61.3L148.8,61.3l0.1-6.6v-0.1h0.1l0.1,0.1l0.1-0.1c-0.1,0-0.1-0.1-0.1-0.1c-0.1-0.1-0.2-0.1-0.3,0
				c-0.1,0-0.1,0.1-0.1,0.2L148.8,61.3L148.8,61.3z"/>
			<path fill="#11180F" d="M149.5,61.3L149.5,61.3l0.1-6.6v-0.1h0.1l0.1,0.1l0.1-0.1c-0.1,0-0.1-0.1-0.1-0.1c-0.1-0.1-0.2-0.1-0.3,0
				c-0.1,0-0.1,0.1-0.1,0.2L149.5,61.3L149.5,61.3z"/>
			<path fill="#11180F" d="M150.1,61.3L150.1,61.3l0.1-6.6v-0.1h0.1l0.1,0.1l0.1-0.1c-0.1,0-0.1-0.1-0.1-0.1c-0.1-0.1-0.2-0.1-0.3,0
				c-0.1,0-0.1,0.1-0.1,0.2L150.1,61.3L150.1,61.3z"/>
			<path fill="#11180F" d="M150.8,61.3L150.8,61.3l0.1-6.6v-0.1h0.1l0.1,0.1l0.1-0.1c-0.1,0-0.1-0.1-0.1-0.1c-0.1-0.1-0.2-0.1-0.3,0
				c-0.1,0-0.1,0.1-0.1,0.2L150.8,61.3L150.8,61.3z"/>
			<path fill="#11180F" d="M151.5,61.3L151.5,61.3l0.1-6.6v-0.1h0.1l0.1,0.1l0.1-0.1v-0.1c-0.1,0-0.1-0.1-0.1-0.1
				c-0.1-0.1-0.2-0.1-0.3,0c-0.1,0-0.1,0.1-0.1,0.2L151.5,61.3L151.5,61.3z"/>
			<path fill="#11180F" d="M152.1,61.3L152.1,61.3l0.1-6.6v-0.1h0.1l0.1,0.1l0.1-0.1c-0.1,0-0.1-0.1-0.1-0.1c-0.1-0.1-0.2-0.1-0.3,0
				c-0.1,0-0.1,0.1-0.1,0.2L152.1,61.3L152.1,61.3z"/>
			<path fill="#11180F" d="M152.8,61.3L152.8,61.3l0.1-6.6v-0.1h0.1l0.1,0.1l0.1-0.1c-0.1,0-0.1-0.1-0.1-0.1c-0.1-0.1-0.2-0.1-0.3,0
				c-0.1,0-0.1,0.1-0.1,0.2L152.8,61.3L152.8,61.3z"/>
			<path fill="#11180F" d="M153.5,61.3L153.5,61.3l0.1-6.6v-0.1h0.1l0.1,0.1l0.1-0.1c-0.1,0-0.1-0.1-0.1-0.1c-0.1-0.1-0.2-0.1-0.3,0
				c-0.1,0-0.1,0.1-0.1,0.2L153.5,61.3L153.5,61.3z"/>
			<path fill="#11180F" d="M154.1,61.3L154.1,61.3l0.1-6.6v-0.1h0.1l0.1,0.1l0.1-0.1c-0.1,0-0.1-0.1-0.1-0.1c-0.1-0.1-0.2-0.1-0.3,0
				c-0.1,0-0.1,0.1-0.1,0.2L154.1,61.3L154.1,61.3z"/>
			<path fill="#11180F" d="M154.8,61.3L154.8,61.3l0.1-6.6v-0.1h0.1l0.1,0.1l0.1-0.1c-0.1,0-0.1-0.1-0.1-0.1c-0.1-0.1-0.2-0.1-0.3,0
				c-0.1,0-0.1,0.1-0.1,0.2L154.8,61.3L154.8,61.3z"/>
			<path fill="#11180F" d="M155.5,61.3L155.5,61.3l0.1-6.6v-0.1h0.1l0.1,0.1l0.1-0.1v-0.1c-0.1,0-0.1-0.1-0.1-0.1
				c-0.1-0.1-0.2-0.1-0.3,0c-0.1,0-0.1,0.1-0.1,0.2L155.5,61.3L155.5,61.3z"/>
			<path fill="#11180F" d="M156.2,61.3L156.2,61.3l0.1-6.6v-0.1h0.1l0.1,0.1l0.1-0.1c-0.1,0-0.1-0.1-0.1-0.1c-0.1-0.1-0.2-0.1-0.3,0
				c-0.1,0-0.1,0.1-0.1,0.2L156.2,61.3L156.2,61.3z"/>
		</g>
	</g>
</g>
<linearGradient id="SVGID_3_" gradientUnits="userSpaceOnUse" x1="3318.4111" y1="-293.5527" x2="3318.4114" y2="-303.9931" gradientTransform="matrix(-0.2954 0 0 0.2954 1056.8745 147.4225)">
	<stop  offset="0" style="stop-color:#B2B19D"/>
	<stop  offset="5.523817e-002" style="stop-color:#A09F8D"/>
	<stop  offset="0.2218" style="stop-color:#706F63"/>
	<stop  offset="0.3876" style="stop-color:#484740"/>
	<stop  offset="0.5495" style="stop-color:#292825"/>
	<stop  offset="0.7066" style="stop-color:#131212"/>
	<stop  offset="0.8565" style="stop-color:#060506"/>
	<stop  offset="0.9918" style="stop-color:#010002"/>
</linearGradient>
<rect x="46" y="57.6" fill="url(#SVGID_3_)" width="61.3" height="3.1"/>
<path fill="#010002" d="M163.7,50.9c0.8-0.2,1.1-0.1,1.1-0.1s0.1,0.1,0.2,0.2v4.5c0,0.6-0.6,0.6-1.4,0.3c-1.2-0.5-1.7-1.7-1.6-2.9
	C162.1,52,163,51.2,163.7,50.9z"/>
<linearGradient id="SVGID_4_" gradientUnits="userSpaceOnUse" x1="3024.0459" y1="-326.3985" x2="3024.0459" y2="-315.2841" gradientTransform="matrix(-0.2954 0 0 0.2954 1056.8745 147.4225)">
	<stop  offset="0" style="stop-color:#B2B19D"/>
	<stop  offset="0.1059" style="stop-color:#8E8D7D"/>
	<stop  offset="0.2505" style="stop-color:#636258"/>
	<stop  offset="0.3977" style="stop-color:#403F39"/>
	<stop  offset="0.5456" style="stop-color:#242321"/>
	<stop  offset="0.6945" style="stop-color:#111010"/>
	<stop  offset="0.8451" style="stop-color:#050405"/>
	<stop  offset="1" style="stop-color:#010002"/>
</linearGradient>
<path fill="url(#SVGID_4_)" d="M164.3,54.3c0,0-2-0.9-1.2-2.6c0.4-0.7,1.2-0.7,1.2-0.7V54.3z"/>
<path fill="#8DB1B0" d="M164.4,56.1v-5.3c0.3,0,0.4,0,0.4,0s0.1,0.1,0.2,0.2v4.5C165,56,164.7,56.1,164.4,56.1z"/>
<linearGradient id="SVGID_5_" gradientUnits="userSpaceOnUse" x1="3020.3408" y1="-326.7757" x2="3020.3408" y2="-318.9648" gradientTransform="matrix(-0.2954 0 0 0.2954 1056.8745 147.4225)">
	<stop  offset="1.212120e-002" style="stop-color:#FFFFFF"/>
	<stop  offset="0.1699" style="stop-color:#FAFBFB"/>
	<stop  offset="0.3685" style="stop-color:#EAF1F0"/>
	<stop  offset="0.589" style="stop-color:#D0DFDF"/>
	<stop  offset="0.8237" style="stop-color:#ADC7C6"/>
	<stop  offset="1" style="stop-color:#8DB1B0"/>
</linearGradient>
<path fill="url(#SVGID_5_)" d="M164.5,50.9c0,0,0.4-0.1,0.4,0.1c0,0.1-0.1,0.8-0.1,1.2c-0.1,0.4-0.3,1-0.3,1L164.5,50.9L164.5,50.9z
	"/>
<polygon fill="#010002" points="160.3,48.8 162.4,48.8 162.4,56.1 160.3,56.1 "/>
<path fill="#050505" d="M169.7,59.8c0,0,0.1,0.5-0.9,0.4c-1.1-0.1-1.9-0.8-4.9-1.6c-3-0.8-6.8-0.7-10.1,0.9s-9.3,6.1-13.1,8.2
	c-5,2.8-9.2,2.9-9.2,2.9v-1c0,0,3.1-0.5,8-3s10.2-7.5,13.8-9.5s8.5-1.9,12-0.7C168.4,57.5,169.9,59.4,169.7,59.8z"/>
<rect x="110.5" y="51.2" fill="#11180F" width="49.9" height="0.1"/>
<path fill="#11180F" d="M132.1,48.9v-0.1c-0.2,0-18.9-0.1-19.5-0.1s-1.2-0.1-1.7-0.3c-0.4-0.1-0.4-0.3-0.4-0.3l-0.1,0.1
	c0,0,0.1,0.2,0.5,0.3c0.6,0.2,1.1,0.4,1.8,0.4C113.3,48.8,132,48.9,132.1,48.9z"/>
<path fill="#11180F" d="M137.2,51v-0.1c-1.8,0-2.5-0.4-3-0.9c-0.8-0.6-0.8-1.6-0.8-1.7v-1.4h-0.1v1.4c0,0.1,0,1.1,0.9,1.7
	C134.7,50.5,135.4,51,137.2,51z"/>
<path fill="#110F0F" d="M135.4,38.2c0,0-0.8,0-1.2-0.2c-0.5-0.3-0.6-1.2-0.6-1.2h-0.2v2.6c0,0,0.3-0.6,1.1-0.9
	C135.1,38.2,135.4,38.2,135.4,38.2z"/>
<linearGradient id="SVGID_6_" gradientUnits="userSpaceOnUse" x1="3134.0159" y1="-370.2101" x2="3189.4087" y2="-370.2101" gradientTransform="matrix(-0.2954 0 0 0.2954 1056.8745 147.4225)">
	<stop  offset="6.967210e-002" style="stop-color:#283224"/>
	<stop  offset="1" style="stop-color:#273123"/>
</linearGradient>
<path fill="url(#SVGID_6_)" d="M131,38.3c-0.2-0.4-0.7-0.4-0.7-0.4l-14.2-0.2c0,0-0.6,0-1,0.3c-0.2,0.2-0.3,0.4-0.3,0.6v-0.1
	c0-1.2,0.9-1.2,0.9-1.2s13.6,0.2,14.6,0.2c0.9,0,0.9,0.7,0.9,0.7v0.7l0,0C131.2,38.9,131.2,38.6,131,38.3z"/>
<path fill="#110F0F" d="M133.4,37c0,0-0.2,0-0.2-0.1c-0.1-0.1-0.1-0.2-0.1-0.2l-19.6-0.3l0.1,0.3L133.4,37z"/>
<path fill="#A4A9A3" d="M113.4,36.4l19.6,0.3c0,0-0.1-0.1-0.1-0.2s0.1-0.3,0.1-0.3L113.4,36c0,0-0.1,0-0.1,0.2
	C113.3,36.3,113.4,36.4,113.4,36.4z"/>
<linearGradient id="SVGID_7_" gradientUnits="userSpaceOnUse" x1="3159.6433" y1="-386.752" x2="3159.6433" y2="-376.5973" gradientTransform="matrix(-0.2954 0 0 0.2954 1056.8745 147.4225)">
	<stop  offset="0" style="stop-color:#686868"/>
	<stop  offset="0.1789" style="stop-color:#5E5E5E"/>
	<stop  offset="0.4862" style="stop-color:#424243"/>
	<stop  offset="0.8823" style="stop-color:#161617"/>
	<stop  offset="1" style="stop-color:#070709"/>
</linearGradient>
<path fill="url(#SVGID_7_)" d="M113.5,33.2l-0.1,2.7l19.8,0.2l0.5-0.8c0,0-2.1-0.6-9.1-1.5C117.5,33,113.5,33.2,113.5,33.2z"/>
<linearGradient id="SVGID_8_" gradientUnits="userSpaceOnUse" x1="3036.0552" y1="-332.9725" x2="3125.3552" y2="-332.9725" gradientTransform="matrix(-0.2954 0 0 0.2954 1056.8745 147.4225)">
	<stop  offset="0" style="stop-color:#4A5B42"/>
	<stop  offset="0.8566" style="stop-color:#8A9D8F"/>
	<stop  offset="1" style="stop-color:#8B9E93"/>
</linearGradient>
<path fill="url(#SVGID_8_)" d="M160.1,49.2l-0.1,1.3l-22.7-0.8c0,0-1.9,0-2.6-0.7s-0.9-1.3-0.9-1.3s2.1,0.6,4.3,0.8
	C140.1,48.6,160.1,49.2,160.1,49.2z"/>
<linearGradient id="SVGID_9_" gradientUnits="userSpaceOnUse" x1="3006.252" y1="-286.9171" x2="3131.2554" y2="-286.9171" gradientTransform="matrix(-0.2954 0 0 0.2954 1056.8745 147.4225)">
	<stop  offset="0" style="stop-color:#515150"/>
	<stop  offset="1" style="stop-color:#0E1014"/>
</linearGradient>
<path fill="url(#SVGID_9_)" d="M168.9,59c0,0,0.1,0.6-0.7,0.2c-0.8-0.4-3.8-2.4-8.5-2.2s-7.8,2.1-11.2,4.7c-3.4,2.7-6.9,5-11.3,6.8
	c-3.3,1.3-5.1,1.1-5.1,1.1s4.5-0.3,11.3-4.8s9.7-9.1,17.2-9C166.3,55.9,168.8,58.6,168.9,59z"/>
<path fill="#A3A3A3" d="M168.9,59.9c0,0-0.6-0.2-1.8-0.6c-1.1-0.4-2.8-1.1-4.2-1.4c-2.9-0.6-7.5-0.1-10.9,2.1
	c-3.5,2.3-6.2,4.3-9.6,6.3s-6.1,3-7.7,3.5c-1.6,0.4-3.1,0.5-3.1,0.5l-0.1,0.1c0,0,1.4,0.1,3.4-0.6c2.6-0.9,4.6-1.7,7.7-3.5
	c3.1-1.8,5.7-3.8,7.6-4.9c1.9-1.2,4.2-3.2,9.2-3.5C164.5,57.6,167.4,60,168.9,59.9z"/>
<path fill="#828682" d="M113.3,36.2c0-0.1,0.1-0.2,0.1-0.2h0.1c-0.1,0.1,0,0.2,0.4,0.2s17.7,0.1,19.1,0.2c0,0,0,0,0,0.1
	s0.1,0.2,0.1,0.2l-19.6-0.3C113.4,36.4,113.3,36.3,113.3,36.2z"/>
<polygon fill="#A3A3A3" points="112,69.4 131.6,69.7 131.6,70.4 112,70.2 "/>
<linearGradient id="SVGID_10_" gradientUnits="userSpaceOnUse" x1="3125.9604" y1="-331.7876" x2="3203.1492" y2="-331.7876" gradientTransform="matrix(-0.2954 0 0 0.2954 1056.8745 147.4225)">
	<stop  offset="0" style="stop-color:#4A5B42"/>
	<stop  offset="0.5697" style="stop-color:#8A9D8F"/>
	<stop  offset="0.7839" style="stop-color:#889B8D"/>
	<stop  offset="0.8627" style="stop-color:#839586"/>
	<stop  offset="0.9191" style="stop-color:#798B7A"/>
	<stop  offset="0.9645" style="stop-color:#6B7D6A"/>
	<stop  offset="1" style="stop-color:#5B6C56"/>
</linearGradient>
<path fill="url(#SVGID_10_)" d="M114.4,48.9c-2.7,0-3.7-0.2-3.7-0.2s-0.1,0.8,1.3,1.2c0.7,0.2,12,0.2,14.8,0.2s6.7,0.1,6.7,0.1
	l-0.7-1C132.8,49.2,117.2,48.9,114.4,48.9z"/>
<rect x="45.3" y="44.4" fill="#3A4C37" width="62.6" height="12.3"/>
<rect x="45.3" y="56.9" fill="#3A4C37" width="62.6" height="0.7"/>
<rect x="107" y="57.3" fill="#596157" width="0.9" height="3.3"/>
<rect x="86.6" y="57.3" fill="#596157" width="0.9" height="3.3"/>
<rect x="66.1" y="57.3" fill="#596157" width="0.9" height="3.3"/>
<rect x="45.4" y="57.3" fill="#596157" width="0.9" height="3.3"/>
<rect x="107" y="58.9" fill="#0F120F" width="0.9" height="1.7"/>
<rect x="86.6" y="58.9" fill="#0F120F" width="0.9" height="1.7"/>
<rect x="66.1" y="58.9" fill="#0F120F" width="0.9" height="1.7"/>
<rect x="45.4" y="58.9" fill="#0F120F" width="0.9" height="1.7"/>
<linearGradient id="SVGID_11_" gradientUnits="userSpaceOnUse" x1="3031.343" y1="-333.0107" x2="3031.343" y2="-327.0615" gradientTransform="matrix(-0.2954 0 0 0.2954 1056.8745 147.4225)">
	<stop  offset="0" style="stop-color:#B2B19D"/>
	<stop  offset="5.523817e-002" style="stop-color:#A09F8D"/>
	<stop  offset="0.2218" style="stop-color:#706F63"/>
	<stop  offset="0.3876" style="stop-color:#484740"/>
	<stop  offset="0.5495" style="stop-color:#292825"/>
	<stop  offset="0.7066" style="stop-color:#131212"/>
	<stop  offset="0.8565" style="stop-color:#060506"/>
	<stop  offset="0.9918" style="stop-color:#010002"/>
</linearGradient>
<path fill="url(#SVGID_11_)" d="M162.3,49.1c-0.1,0-1.7,0-1.7,0v1.7h1.7V49.1z"/>
<linearGradient id="SVGID_12_" gradientUnits="userSpaceOnUse" x1="3091.0552" y1="-283.2094" x2="3197.5664" y2="-283.2094" gradientTransform="matrix(-0.2954 0 0 0.2954 1056.8745 147.4225)">
	<stop  offset="3.278690e-002" style="stop-color:#4A5B42"/>
	<stop  offset="0.6967" style="stop-color:#8A9D8F"/>
	<stop  offset="1" style="stop-color:#4A5B42"/>
</linearGradient>
<path fill="url(#SVGID_12_)" d="M143.9,63.9l-31.5-0.6c0,0-0.1,0.3,0.3,0.4c0.4,0.1,30.6,0.6,30.6,0.6L143.9,63.9z"/>
<rect x="140.4" y="52.8" fill="#11180F" width="19.9" height="0.1"/>
<rect x="140.3" y="48.2" fill="#11180F" width="0.1" height="16.2"/>
<path fill="#11180F" d="M160.4,51.5v-0.2l-48.9-1c-0.1,0-1.1,0.1-1.4-0.8l-0.1,0.1c0.4,1,1.5,0.9,1.5,0.9L160.4,51.5z"/>
<rect x="118.4" y="50.3" transform="matrix(-1.307538e-002 0.9999 -0.9999 -1.307538e-002 184.1532 -81.1594)" fill="#11180F" width="27.4" height="0.1"/>
<g>
	<path fill="#3A4C37" d="M131.9,52.4c0,0.1,0.1,0.2,0.2,0.2l0,0c0.1,0,0.2-0.1,0.2-0.2v-0.9c0-0.1-0.1-0.2-0.2-0.2l0,0
		c-0.1,0-0.2,0.1-0.2,0.2V52.4z"/>
	<path fill="#11180F" d="M131.8,52.4v-0.9c0-0.2,0.1-0.3,0.3-0.3s0.3,0.1,0.3,0.3v0.9c0,0.2-0.1,0.3-0.3,0.3
		C132,52.7,131.8,52.6,131.8,52.4z M132,51.5v0.9c0,0.1,0.1,0.1,0.1,0.1l0.1-0.1v-0.9c0-0.1-0.1-0.1-0.1-0.1S132,51.4,132,51.5z"/>
</g>
<g>
	<path fill="#3A4C37" d="M131.8,60c0,0.1,0.1,0.2,0.2,0.2l0,0c0.1,0,0.2-0.1,0.2-0.2v-0.9c0-0.1-0.1-0.2-0.2-0.2l0,0
		c-0.1,0-0.2,0.1-0.2,0.2V60z"/>
	<path fill="#11180F" d="M131.8,60v-0.9c0-0.2,0.1-0.3,0.3-0.3s0.3,0.1,0.3,0.3V60c0,0.2-0.1,0.3-0.3,0.3S131.8,60.1,131.8,60z
		 M131.9,59.1V60c0,0.1,0.1,0.1,0.1,0.1l0.1-0.1v-0.9C132.1,59,132,59,131.9,59.1C132,59,131.9,59,131.9,59.1z"/>
</g>
<rect x="99.8" y="50.2" transform="matrix(-1.561308e-002 0.9999 -0.9999 -1.561308e-002 165.6664 -62.5749)" fill="#11180F" width="27.6" height="0.1"/>
<polygon fill="#070B07" points="112.2,63.7 143.3,64.3 142.2,65.1 112.1,64.4 "/>
<linearGradient id="SVGID_13_" gradientUnits="userSpaceOnUse" x1="3096.5088" y1="-279.1472" x2="3199.8276" y2="-279.1472" gradientTransform="matrix(-0.2954 0 0 0.2954 1056.8745 147.4225)">
	<stop  offset="0" style="stop-color:#BBBABB"/>
	<stop  offset="1" style="stop-color:#3E3E3D"/>
</linearGradient>
<path fill="url(#SVGID_13_)" d="M142.2,65.1l-30.3-0.7c0,0-0.3,0.1-0.2,0.4c0,0.2,0.2,0.3,0.2,0.3l29.4,0.5L142.2,65.1z"/>
<rect x="45.2" y="47.2" fill="#11180F" width="62.8" height="0.3"/>
<rect x="45.2" y="50.4" fill="#11180F" width="62.8" height="0.3"/>
<rect x="45.2" y="53.5" fill="#11180F" width="62.8" height="0.3"/>
<rect x="45.2" y="56.6" fill="#11180F" width="62.8" height="0.3"/>
<g>
	<rect x="84.8" y="44.2" fill="#3A4C37" width="0.8" height="13.6"/>
	<path fill="#11180F" d="M84.7,44.2h0.9V58h-0.9V44.2z M85.5,44.3h-0.7v13.5h0.6V44.3H85.5z"/>
</g>
<g>
	<rect x="103.3" y="44.2" fill="#3A4C37" width="0.8" height="13.6"/>
	<path fill="#11180F" d="M103.3,44.2h0.9V58h-0.9V44.2z M104.1,44.3h-0.6v13.5h0.6V44.3z"/>
</g>
<g>
	<rect x="68.1" y="44.2" fill="#3A4C37" width="0.8" height="13.6"/>
	<path fill="#11180F" d="M68,44.2h0.9V58H68V44.2z M68.8,44.3h-0.6v13.5h0.6V44.3z"/>
</g>
<g>
	<rect x="49.3" y="44.2" fill="#3A4C37" width="0.8" height="13.6"/>
	<path fill="#11180F" d="M49.3,44.2h0.9V58h-0.9V44.2z M50.1,44.3h-0.6v13.5h0.6V44.3z"/>
</g>
<polygon fill="#11180F" points="85.3,45.2 85.4,45 85.3,44.8 85,44.8 84.9,45 85,45.2 "/>
<polygon fill="#11180F" points="85.3,47 85.4,46.8 85.3,46.6 85,46.6 84.9,46.8 85,47 "/>
<polygon fill="#11180F" points="85.3,48.4 85.4,48.2 85.3,48 85,48 84.9,48.2 85,48.4 "/>
<polygon fill="#11180F" points="85.3,50.1 85.4,49.9 85.3,49.7 85,49.7 84.9,49.9 85,50.1 "/>
<polygon fill="#11180F" points="85.3,51.3 85.4,51.1 85.3,50.9 85,50.9 84.9,51.1 85,51.3 "/>
<polygon fill="#11180F" points="85.3,53.3 85.4,53.1 85.3,52.9 85,52.9 84.9,53.1 85,53.3 "/>
<polygon fill="#11180F" points="85.3,54.4 85.4,54.2 85.3,54 85,54 84.9,54.2 85,54.4 "/>
<polygon fill="#11180F" points="85.3,56.3 85.4,56.1 85.3,55.9 85,55.9 84.9,56.1 85,56.3 "/>
<polygon fill="#11180F" points="85.3,57.5 85.4,57.3 85.3,57.1 85,57.1 84.9,57.3 85,57.5 "/>
<polygon fill="#11180F" points="103.8,45.2 104,45 103.8,44.8 103.6,44.8 103.5,45 103.6,45.2 "/>
<polygon fill="#11180F" points="103.8,47 104,46.8 103.8,46.6 103.6,46.6 103.5,46.8 103.6,47 "/>
<polygon fill="#11180F" points="103.8,48.4 104,48.2 103.8,48 103.6,48 103.5,48.2 103.6,48.4 "/>
<polygon fill="#11180F" points="103.8,50.1 104,49.9 103.8,49.7 103.6,49.7 103.5,49.9 103.6,50.1 "/>
<polygon fill="#11180F" points="103.8,51.3 104,51.1 103.8,50.9 103.6,50.9 103.5,51.1 103.6,51.3 "/>
<polygon fill="#11180F" points="103.8,53.3 104,53.1 103.8,52.9 103.6,52.9 103.5,53.1 103.6,53.3 "/>
<polygon fill="#11180F" points="103.8,54.4 104,54.2 103.8,54 103.6,54 103.5,54.2 103.6,54.4 "/>
<polygon fill="#11180F" points="103.8,56.3 104,56.1 103.8,55.9 103.6,55.9 103.5,56.1 103.6,56.3 "/>
<polygon fill="#11180F" points="103.8,57.5 104,57.3 103.8,57.1 103.6,57.1 103.5,57.3 103.6,57.5 "/>
<polygon fill="#11180F" points="68.6,45.2 68.8,45 68.6,44.8 68.4,44.8 68.3,45 68.4,45.2 "/>
<polygon fill="#11180F" points="68.6,47 68.8,46.8 68.6,46.5 68.4,46.5 68.3,46.8 68.4,47 "/>
<polygon fill="#11180F" points="68.6,48.4 68.8,48.2 68.6,48 68.4,48 68.3,48.2 68.4,48.4 "/>
<polygon fill="#11180F" points="68.6,50.1 68.8,49.9 68.6,49.7 68.4,49.7 68.3,49.9 68.4,50.1 "/>
<polygon fill="#11180F" points="68.6,51.3 68.8,51.1 68.6,50.9 68.4,50.9 68.3,51.1 68.4,51.3 "/>
<polygon fill="#11180F" points="68.6,53.2 68.8,53.1 68.6,52.9 68.4,52.9 68.3,53.1 68.4,53.2 "/>
<polygon fill="#11180F" points="68.6,54.4 68.8,54.2 68.6,54 68.4,54 68.3,54.2 68.4,54.4 "/>
<polygon fill="#11180F" points="68.6,56.3 68.8,56.1 68.6,55.9 68.4,55.9 68.3,56.1 68.4,56.3 "/>
<polygon fill="#11180F" points="68.6,57.4 68.8,57.3 68.6,57.1 68.4,57.1 68.3,57.3 68.4,57.4 "/>
<polygon fill="#11180F" points="49.8,45.2 49.9,45 49.8,44.8 49.6,44.8 49.5,45 49.6,45.2 "/>
<polygon fill="#11180F" points="49.8,46.9 49.9,46.7 49.8,46.5 49.6,46.5 49.5,46.7 49.6,46.9 "/>
<polygon fill="#11180F" points="49.8,48.4 49.9,48.2 49.8,48 49.6,48 49.5,48.2 49.6,48.4 "/>
<polygon fill="#11180F" points="49.8,50.1 49.9,49.9 49.8,49.7 49.6,49.7 49.5,49.9 49.6,50.1 "/>
<polygon fill="#11180F" points="49.8,51.2 49.9,51 49.8,50.9 49.6,50.9 49.5,51 49.6,51.2 "/>
<polygon fill="#11180F" points="49.8,53.2 49.9,53 49.8,52.8 49.6,52.8 49.5,53 49.6,53.2 "/>
<polygon fill="#11180F" points="49.8,54.4 49.9,54.2 49.8,54 49.6,54 49.5,54.2 49.6,54.4 "/>
<polygon fill="#11180F" points="49.8,56.3 49.9,56.1 49.8,55.9 49.6,55.9 49.5,56.1 49.6,56.3 "/>
<polygon fill="#11180F" points="49.8,57.4 49.9,57.2 49.8,57 49.6,57 49.5,57.2 49.6,57.4 "/>
<linearGradient id="SVGID_14_" gradientUnits="userSpaceOnUse" x1="3133.9543" y1="-340.0815" x2="3189.3552" y2="-340.0815" gradientTransform="matrix(-0.2954 0 0 0.2954 1056.8745 147.4225)">
	<stop  offset="0" style="stop-color:#4A5B42"/>
	<stop  offset="0.8566" style="stop-color:#8A9D8F"/>
	<stop  offset="1" style="stop-color:#8B9E93"/>
</linearGradient>
<path fill="url(#SVGID_14_)" d="M115.1,47c0.3,0.4,0.8,0.3,0.8,0.3s13.4,0,14,0s0.7,0,1-0.2c0.2-0.1,0.2-0.4,0.3-0.6l0,0v0.7
	c0,0,0,0.5-0.6,0.5s-14.9,0-14.9,0s-0.5-0.1-0.7-0.4s-0.2-0.5-0.2-0.5v-0.5l0,0C114.9,46.5,114.9,46.8,115.1,47z"/>
<g>
	
		<linearGradient id="SVGID_15_" gradientUnits="userSpaceOnUse" x1="3130.0227" y1="-360.206" x2="3130.0227" y2="-364.7587" gradientTransform="matrix(-0.2954 0 0 0.2954 1056.8745 147.4225)">
		<stop  offset="3.688520e-002" style="stop-color:#2B2C2C"/>
		<stop  offset="1" style="stop-color:#9A9A99"/>
	</linearGradient>
	<path fill="url(#SVGID_15_)" d="M132,40.7c0,0.2,0.1,0.3,0.3,0.3l0,0c0.2,0,0.3-0.1,0.3-0.3V40c0-0.2-0.1-0.3-0.3-0.3l0,0
		c-0.2,0-0.3,0.1-0.3,0.3V40.7z"/>
	<path fill="#2C2B2B" d="M131.9,40.7V40c0-0.2,0.2-0.4,0.4-0.4s0.4,0.2,0.4,0.4v0.7c0,0.2-0.2,0.4-0.4,0.4S131.9,40.9,131.9,40.7z
		 M132,40v0.7c0,0.1,0.1,0.2,0.2,0.2s0.2-0.1,0.2-0.2V40c0-0.1-0.1-0.2-0.2-0.2S132,39.9,132,40z"/>
</g>
<g>
	
		<linearGradient id="SVGID_16_" gradientUnits="userSpaceOnUse" x1="3134.4233" y1="-356.5644" x2="3134.4233" y2="-369.6767" gradientTransform="matrix(-0.2954 0 0 0.2954 1056.8745 147.4225)">
		<stop  offset="3.688520e-002" style="stop-color:#2B2C2C"/>
		<stop  offset="1" style="stop-color:#9A9A99"/>
	</linearGradient>
	<ellipse fill="url(#SVGID_16_)" cx="131" cy="40.2" rx="0.6" ry="1.9"/>
	<path fill="#2C2B2B" d="M130.4,40.2c0-1,0.2-2,0.6-2c0.4,0,0.6,1,0.6,2s-0.2,2-0.6,2S130.4,41.2,130.4,40.2z M130.5,40.2
		c0,1.1,0.3,1.9,0.5,1.9s0.5-0.8,0.5-1.9s-0.3-1.9-0.5-1.9S130.5,39.1,130.5,40.2z"/>
</g>
<g>
	<path fill="#BABABA" d="M114.5,49.7c0,0.3,0.2,0.5,0.5,0.5h0.1c0.3,0,0.5-0.2,0.5-0.5l0,0c0-0.3-0.2-0.5-0.5-0.5H115
		C114.7,49.2,114.5,49.4,114.5,49.7L114.5,49.7z"/>
	<path fill="#2C2B2B" d="M114.4,49.7c0-0.3,0.2-0.6,0.6-0.6h0.1c0.3,0,0.6,0.2,0.6,0.6s-0.2,0.6-0.6,0.6H115
		C114.7,50.2,114.4,50,114.4,49.7z M115,49.3c-0.2,0-0.4,0.2-0.4,0.4c0,0.2,0.2,0.4,0.4,0.4h0.1c0.2,0,0.4-0.2,0.4-0.4
		C115.5,49.5,115.3,49.3,115,49.3L115,49.3z"/>
</g>
<g>
	<path fill="#BABABA" d="M114.9,49.7c0,0.1,0.1,0.2,0.2,0.2h2.1c0.1,0,0.2-0.1,0.2-0.2l0,0c0-0.1-0.1-0.2-0.2-0.2h-2.1
		C115,49.5,114.9,49.6,114.9,49.7L114.9,49.7z"/>
	<path fill="#2C2B2B" d="M114.9,49.7c0-0.1,0.1-0.3,0.2-0.3h2.1c0.1,0,0.3,0.1,0.3,0.3c0,0.1-0.1,0.3-0.3,0.3h-2.1
		C115,50,114.9,49.9,114.9,49.7z M115.1,49.6c-0.1,0-0.1,0.1-0.1,0.1l0.1,0.1h2.1c0.1,0,0.1-0.1,0.1-0.1c0-0.1-0.1-0.1-0.1-0.1
		H115.1z"/>
</g>
<g>
	<path fill="#474749" d="M130.9,40.3c0,0.1,0.1,0.3,0.3,0.3h0.8c0.1,0,0.3-0.1,0.3-0.3l0,0c0-0.1-0.1-0.3-0.3-0.3h-0.8
		C131,40,130.9,40.2,130.9,40.3L130.9,40.3z"/>
	<path fill="#2C2B2B" d="M130.9,40.3c0-0.2,0.1-0.3,0.3-0.3h0.8c0.2,0,0.3,0.1,0.3,0.3c0,0.2-0.1,0.3-0.3,0.3h-0.8
		C131,40.6,130.9,40.5,130.9,40.3z M131.2,40.1c-0.1,0-0.2,0.1-0.2,0.2s0.1,0.2,0.2,0.2h0.8c0.1,0,0.2-0.1,0.2-0.2s-0.1-0.2-0.2-0.2
		H131.2z"/>
</g>
<g>
	
		<radialGradient id="SVGID_17_" cx="259.1711" cy="-254.326" r="35.8" gradientTransform="matrix(0.2954 0 0 0.2954 0 147.4225)" gradientUnits="userSpaceOnUse">
		<stop  offset="0.8975" style="stop-color:#4E5254"/>
		<stop  offset="1" style="stop-color:#242626"/>
	</radialGradient>
	<circle fill="url(#SVGID_17_)" cx="76.5" cy="72.3" r="10.6"/>
	
		<radialGradient id="SVGID_18_" cx="259.1711" cy="-254.326" r="26.1516" gradientTransform="matrix(0.2954 0 0 0.2954 0 147.4225)" gradientUnits="userSpaceOnUse">
		<stop  offset="0.9016" style="stop-color:#0C0D0C"/>
		<stop  offset="1" style="stop-color:#4E5254"/>
	</radialGradient>
	<circle fill="url(#SVGID_18_)" cx="76.5" cy="72.3" r="7.7"/>
	<circle fill="#0C0D0C" cx="76.5" cy="72.3" r="6.6"/>
	
		<radialGradient id="SVGID_19_" cx="259.1235" cy="-254.3264" r="20.5506" gradientTransform="matrix(0.2954 0 0 0.2954 0 147.4225)" gradientUnits="userSpaceOnUse">
		<stop  offset="0.5574" style="stop-color:#4E5254"/>
		<stop  offset="1" style="stop-color:#8D8F91"/>
	</radialGradient>
	<path fill="url(#SVGID_19_)" d="M82.6,72.3c0,3.3-2.7,6.1-6.1,6.1c-3.3,0-6.1-2.7-6.1-6.1s2.7-6.1,6.1-6.1
		C79.9,66.2,82.6,68.9,82.6,72.3z"/>
	<circle fill="#0C0D0C" cx="76.5" cy="72.3" r="3.1"/>
	<circle fill="#171919" cx="76.5" cy="72.3" r="2.7"/>
	
		<radialGradient id="SVGID_20_" cx="259.123" cy="-254.326" r="5.1859" gradientTransform="matrix(0.2954 0 0 0.2954 0 147.4225)" gradientUnits="userSpaceOnUse">
		<stop  offset="0.5615" style="stop-color:#8D8F91"/>
		<stop  offset="1" style="stop-color:#4E5254"/>
	</radialGradient>
	<circle fill="url(#SVGID_20_)" cx="76.5" cy="72.3" r="1.5"/>
	<circle fill="#0C0D0C" cx="76.5" cy="72.3" r="1.3"/>
	<path fill="#070805" d="M74.6,77c0-0.5,1.1-1.2,1.5-1.2s1.4,0.9,1.4,1.4s-0.7,0.9-1.5,0.9C75.1,78,74.5,77.5,74.6,77z"/>
	<path fill="#070805" d="M75.5,67.5c0.2,0.5-0.3,1.6-0.6,1.8s-1.6,0-1.9-0.4c-0.2-0.5,0.1-1.1,0.8-1.5C74.5,67,75.2,67,75.5,67.5z"
		/>
	<path fill="#070805" d="M80.8,69.9c-0.4,0.4-1.6,0.2-1.9-0.1s-0.5-1.5-0.2-1.9c0.4-0.4,1.1-0.2,1.7,0.3
		C81,68.7,81.1,69.5,80.8,69.9z"/>
	<path fill="#070805" d="M80.3,75.6c-0.5-0.2-0.7-1.5-0.6-1.9s1.3-1,1.8-0.8s0.6,1,0.2,1.7C81.4,75.4,80.7,75.8,80.3,75.6z"/>
	<path fill="#070805" d="M71.5,71.8C72,71.7,73,72.5,73,73c0.1,0.4-0.5,1.6-1,1.7c-0.5,0.1-1.1-0.4-1.2-1.2
		C70.7,72.6,71,71.9,71.5,71.8z"/>
	<path fill="#0C0D0C" d="M76.5,78.1c-3.2,0-5.8-2.6-5.8-5.8s2.6-5.8,5.8-5.8c3.2,0,5.8,2.6,5.8,5.8S79.7,78.1,76.5,78.1z M76.5,66.8
		c-3,0-5.5,2.5-5.5,5.5s2.5,5.5,5.5,5.5s5.5-2.5,5.5-5.5S79.6,66.8,76.5,66.8z"/>
</g>
<g>
	
		<radialGradient id="SVGID_21_" cx="546.4211" cy="-254.326" r="35.8" gradientTransform="matrix(0.2954 0 0 0.2954 0 147.4225)" gradientUnits="userSpaceOnUse">
		<stop  offset="0.8975" style="stop-color:#4E5254"/>
		<stop  offset="1" style="stop-color:#242626"/>
	</radialGradient>
	<circle fill="url(#SVGID_21_)" cx="161.4" cy="72.3" r="10.6"/>
	
		<radialGradient id="SVGID_22_" cx="546.4211" cy="-254.326" r="26.1516" gradientTransform="matrix(0.2954 0 0 0.2954 0 147.4225)" gradientUnits="userSpaceOnUse">
		<stop  offset="0.9016" style="stop-color:#0C0D0C"/>
		<stop  offset="1" style="stop-color:#4E5254"/>
	</radialGradient>
	<circle fill="url(#SVGID_22_)" cx="161.4" cy="72.3" r="7.7"/>
	<circle fill="#0C0D0C" cx="161.4" cy="72.3" r="6.6"/>
	
		<radialGradient id="SVGID_23_" cx="546.3735" cy="-254.3264" r="20.5506" gradientTransform="matrix(0.2954 0 0 0.2954 0 147.4225)" gradientUnits="userSpaceOnUse">
		<stop  offset="0.5574" style="stop-color:#4E5254"/>
		<stop  offset="1" style="stop-color:#8D8F91"/>
	</radialGradient>
	<path fill="url(#SVGID_23_)" d="M167.4,72.3c0,3.3-2.7,6.1-6.1,6.1s-6.1-2.7-6.1-6.1s2.7-6.1,6.1-6.1
		C164.7,66.2,167.4,68.9,167.4,72.3z"/>
	<circle fill="#0C0D0C" cx="161.4" cy="72.3" r="3.1"/>
	<circle fill="#171919" cx="161.4" cy="72.3" r="2.7"/>
	
		<radialGradient id="SVGID_24_" cx="546.373" cy="-254.326" r="5.1859" gradientTransform="matrix(0.2954 0 0 0.2954 0 147.4225)" gradientUnits="userSpaceOnUse">
		<stop  offset="0.5615" style="stop-color:#8D8F91"/>
		<stop  offset="1" style="stop-color:#4E5254"/>
	</radialGradient>
	<circle fill="url(#SVGID_24_)" cx="161.4" cy="72.3" r="1.5"/>
	<circle fill="#0C0D0C" cx="161.4" cy="72.3" r="1.3"/>
	<path fill="#070805" d="M159.4,77c0-0.5,1.1-1.2,1.5-1.2s1.4,0.9,1.4,1.4s-0.7,0.9-1.5,0.9C160,78,159.4,77.5,159.4,77z"/>
	<path fill="#070805" d="M160.3,67.5c0.2,0.5-0.3,1.6-0.6,1.8s-1.6,0-1.9-0.4c-0.2-0.5,0.1-1.1,0.8-1.5
		C159.3,67,160.1,67,160.3,67.5z"/>
	<path fill="#070805" d="M165.6,69.9c-0.4,0.4-1.6,0.2-1.9-0.1c-0.3-0.3-0.5-1.5-0.2-1.9s1.1-0.2,1.7,0.3
		C165.8,68.7,166,69.5,165.6,69.9z"/>
	<path fill="#070805" d="M165.1,75.6c-0.5-0.2-0.7-1.5-0.6-1.9c0.2-0.4,1.3-1,1.8-0.8s0.6,1,0.2,1.7
		C166.2,75.4,165.6,75.8,165.1,75.6z"/>
	<path fill="#070805" d="M156.4,71.8c0.5-0.1,1.5,0.7,1.5,1.2c0.1,0.4-0.5,1.6-1,1.7c-0.5,0.1-1.1-0.4-1.2-1.2
		C155.6,72.6,155.9,71.9,156.4,71.8z"/>
	<path fill="#0C0D0C" d="M161.4,78.1c-3.2,0-5.8-2.6-5.8-5.8s2.6-5.8,5.8-5.8s5.8,2.6,5.8,5.8C167.1,75.5,164.5,78.1,161.4,78.1z
		 M161.4,66.8c-3,0-5.5,2.5-5.5,5.5s2.5,5.5,5.5,5.5s5.5-2.5,5.5-5.5S164.4,66.8,161.4,66.8z"/>
</g>
</svg>
