<?xml version="1.0" encoding="utf-8"?>
<!-- Generator: Adobe Illustrator 18.1.1, SVG Export Plug-In . SVG Version: 6.00 Build 0)  -->
<svg version="1.1" id="Layer_1" xmlns="http://www.w3.org/2000/svg" xmlns:xlink="http://www.w3.org/1999/xlink" x="0px" y="0px"
	 viewBox="0 0 430.2 184.2" enable-background="new 0 0 430.2 184.2" xml:space="preserve">
<rect x="192.8" y="13.5" opacity="0.3" fill="#4888C8" width="65.8" height="41.2"/>
<ellipse opacity="0.6" fill="#857C6F" cx="215.4" cy="168.7" rx="214.6" ry="15.5"/>
<g>
	<path fill="#C2C1AA" d="M169.4,134.4c0,0,26.5,1,49.6,0.2c23-0.8,57-3.9,65.5-5.8c8.5-1.9,36.5-10,42.3-17.2
		c5.8-7.3,31.1-22.4,51.6-24.3c20.5-1.9,36.1,10.6,36.1,10.6s-8.3-31.7-10-39c-1.7-7.3-3.7-7-3.7-7l-129.4-5c0,0-9.4-27.4-11.3-31.2
		c-1.9-3.7-2.3-7.3-13.1-9.7c-10.8-2.5-46.4-5-61.4-5.8c-14.9-0.8-16.6,16.4-16.6,16.4s-0.8,26.3-1.2,62.2
		C167.5,114.7,169.4,134.4,169.4,134.4z M197.3,45.3c0,0,0.2-11.5,0.2-15.4c0-3.9,0.7-7.9,2.9-9.8c3.4-2.9,16.4-1.8,26.9-0.8
		c10,1,22.6,3.4,25.9,6.2c4.8,4.3,6.2,13.9,6.8,16.8c0.6,2.9,0.3,5.3-1.3,7.4c-1.6,2.1-7.5,2.2-7.5,2.2s-43.5-0.1-45.3-0.1
		c-1.8,0-4.1,0.6-6.6-1.4C196.7,48.4,197.3,45.3,197.3,45.3z"/>
	<path fill="#D4D2B8" d="M161.4,71.4c0-0.2,0.1-2.2-0.5-4c-0.5-1.5-1.3-2.9-2.4-3.9c-3.1-3-7.1-3-7.3-3
		c-5.4-0.1-132.7-3.5-135.5-3.5c-4.5,0-7.3,1.4-9.5,4.8c-0.5,0.8-1,1.7-1.4,2.7c-0.5,1.3-0.7,3-0.8,3.2L8.3,68
		c0-0.4,0.2-1.5,0.5-2.2c0.3-0.7,0.6-1.3,1-1.9c1.2-1.9,2.6-2.9,6-2.9c2.8,0,134.2,3.5,135.5,3.5c0.1,0,2.6,0.1,4.4,1.8
		c0.6,0.6,1,1.3,1.3,2.2c0.3,0.9,0.3,2.2,0.3,2.6L161.4,71.4z"/>
	<path fill="#A4A090" d="M8.1,66.4c0.4-0.9,0.8-1.8,1.3-2.6c2.1-3.3,4.9-4.6,9.2-4.6c2.7,0,125.7,3.3,130.8,3.4c0.2,0,4,0,7,2.9
		c1.1,1,1.8,2.3,2.3,3.8c0.2,0.7,0.3,1.4,0.4,2l-1.9-0.1c0-0.4,0-1.7-0.3-2.6c-0.3-0.9-0.7-1.6-1.3-2.2c-1.8-1.8-4.4-1.8-4.4-1.8
		c-1.3,0-132.7-3.5-135.5-3.5c-3.4,0-4.8,1-6,2.9c-0.4,0.6-0.7,1.3-1,1.9c-0.3,0.7-0.5,1.8-0.5,2.2L7.7,68
		C7.8,67.5,7.9,66.9,8.1,66.4z"/>
	<path fill="#C2C1AA" d="M164.7,70.8L2.1,67.2l-1.4,56.4h8.6l18.8,9c0,0,12.4,1.5,21,0.4c8.6-1.1,9.4-1.4,12.7-5.8
		c3.3-4.4,5.3-18.2,17.7-26c12.4-7.7,26-10.8,41.8-3.3c15.8,7.5,20,21.6,21.3,33c0.5,4.3,5.8,5,5.8,5l14.8,0.1L164.7,70.8z"/>
	<path fill="#F2F7E2" d="M44.7,99.4c0,0-2.4,0.9-2.4,4.6c0,3.7,2.4,4.9,2.4,4.9V99.4z"/>
	<path fill="#E1DEC8" d="M63.8,106.2H53.1l-3.7,0.2c0,0-1.6,1.8-3.6,2.4c-1.1,0.3-1.1,0.1-1.1,0.1v-2.6v-3.6v-3.2
		c0,0,0.1-0.2,1.1,0.1c1.4,0.5,3.6,2.4,3.6,2.4l3.7,0.2h11.6L63.8,106.2z"/>
	<path fill="#A4A090" d="M47.4,105.2c1.6-0.5,2.2-1.1,2.2-1.1h12.8l-1.5,2.2h-7.8l-3.7,0.2c0,0-1.6,1.8-3.6,2.4
		c-1.1,0.3-1.1,0.1-1.1,0.1v-2.6v-0.8C45.2,105.6,46.3,105.6,47.4,105.2z"/>
	<path fill="#FFFFFF" d="M48.8,102.4c0,0-1.8-1.5-2.6-1.8c-0.8-0.4-0.8-0.4-0.8-0.4v1.9C45.4,102.2,46.8,102.6,48.8,102.4z"/>
	<polygon fill="#A4A090" points="164.5,78.6 164.5,79.2 160.9,80.3 158.8,131.6 154.6,131.4 154.6,81.5 5.1,78.4 4.1,123.4 
		0.8,123.6 1.9,75.4 	"/>
	<path fill="#E1DEC8" d="M168.5,61.2l0.8-3.7c0,0,84.3,0,93.2-0.6c8.8-0.6,11.8,0.4,11.8-2.6c0-2.4-1.8-6-2.6-7.3l116.7,4.5l2.6,5.4
		l1.3,9l-223.5-1.7C168.6,64.3,168.5,63,168.5,61.2z"/>
	<path fill="#7F868B" d="M297.7,74.3v3l-7,0l0,1.2l98.7,0.6l0-1.2l-2.4,0v-3l1.3,0l0-1.2l-1.3,0v-3l1.6,0l0-1.2l-101.6-0.6l0,1.2
		l10.8,0.1v3l-9-0.1l0,1.2L297.7,74.3z M359.9,73.4v-3l5.5,0v3L359.9,73.4z M365.4,74.7v3l-5.5,0v-3L365.4,74.7z M372.2,73.5l-5.5,0
		v-3l5.5,0V73.5z M380.2,74.8l5.5,0v3l-5.5,0V74.8z M380.2,70.5l5.5,0v3l-5.5,0V70.5z M373.4,74.7l5.5,0v3l-5.5,0V74.7z M373.4,70.5
		l5.5,0v3l-5.5,0V70.5z M372.2,77.8l-5.5,0v-3l5.5,0V77.8z M353.1,74.6l5.5,0v3l-5.5,0V74.6z M353.1,70.3l5.5,0v3l-5.5,0V70.3z
		 M346.3,74.6l5.5,0v3l-5.5,0V74.6z M346.3,70.3l5.5,0v3l-5.5,0V70.3z M339.6,74.5l5.5,0v3l-5.5,0V74.5z M339.6,70.3l5.5,0v3l-5.5,0
		V70.3z M332.8,74.5l5.5,0v3l-5.5,0V74.5z M332.8,70.2l5.5,0v3l-5.5,0V70.2z M326,74.5l5.5,0v3l-5.5,0V74.5z M326,70.2l5.5,0v3
		l-5.5,0V70.2z M319.3,74.4l5.5,0v3l-5.5,0V74.4z M319.3,70.1l5.5,0v3l-5.5,0V70.1z M312.5,74.4l5.5,0v3l-5.5,0V74.4z M312.5,70.1
		l5.5,0v3l-5.5,0V70.1z M305.7,74.3l5.5,0v3l-5.5,0V74.3z M305.7,70l5.5,0v3l-5.5,0V70z M299,74.3l5.5,0v3l-5.5,0V74.3z M299,70
		l5.5,0v3l-5.5,0V70z"/>
	<path fill="#4D5253" d="M297.2,74.6v2.7l-6.6,0l-0.5,0.3l0,1.2l98.7,0.6l0-0.3l0.5,0l0-1.2l-2.4,0v-2.7l0.8,0l0.5-0.3l0-1.2l-1.3,0
		v-2.7l1.1,0l0.5-0.3l0-1.2l-101.6-0.6l-0.5,0.3l0,1.2l10.8,0.1V73l-8.5-0.1l-0.5,0.3l0,1.2L297.2,74.6z M304,70.4v2.7l-5.1,0v-2.7
		L304,70.4z M304,77.3l-5.1,0v-2.7l5.1,0V77.3z M310.8,70.4v2.7l-5.1,0v-2.7L310.8,70.4z M310.8,77.4l-5.1,0v-2.7l5.1,0V77.4z
		 M317.6,70.5v2.7l-5.1,0v-2.7L317.6,70.5z M317.6,77.4l-5.1,0v-2.7l5.1,0V77.4z M324.3,70.5v2.7l-5.1,0v-2.7L324.3,70.5z
		 M324.3,77.5l-5.1,0v-2.7l5.1,0V77.5z M331.1,70.5v2.7l-5.1,0v-2.7L331.1,70.5z M331.1,77.5l-5.1,0v-2.7l5.1,0V77.5z M337.9,70.6
		v2.7l-5.1,0v-2.7L337.9,70.6z M337.9,77.6l-5.1,0v-2.7l5.1,0V77.6z M344.6,70.6v2.7l-5.1,0v-2.7L344.6,70.6z M344.6,77.6l-5.1,0
		v-2.7l5.1,0V77.6z M351.4,70.7v2.7l-5.1,0v-2.7L351.4,70.7z M351.4,77.6l-5.1,0v-2.7l5.1,0V77.6z M358.2,70.7v2.7l-5.1,0v-2.7
		L358.2,70.7z M358.2,77.7l-5.1,0V75l5.1,0V77.7z M364.9,70.8v2.7l-5.1,0v-2.7L364.9,70.8z M364.9,77.7l-5.1,0V75l5.1,0V77.7z
		 M371.7,70.8v2.7l-5.1,0v-2.7L371.7,70.8z M371.7,77.8l-5.1,0V75l5.1,0V77.8z M378.5,70.8v2.7l-5.1,0v-2.7L378.5,70.8z M378.5,77.8
		l-5.1,0v-2.7l5.1,0V77.8z M385.2,70.9v2.7l-5.1,0v-2.7L385.2,70.9z M385.2,77.9l-5.1,0v-2.7l5.1,0V77.9z"/>
	<path fill="#7F868B" d="M297.7,74.3v3l-7,0l0,1.2l98.7,0.6l0-1.2l-2.4,0v-3l1.3,0l0-1.2l-1.3,0v-3l1.6,0l0-1.2l-101.6-0.6l0,1.2
		l10.8,0.1v3l-9-0.1l0,1.2L297.7,74.3z M359.9,73.4v-3l5.5,0v3L359.9,73.4z M365.4,74.7v3l-5.5,0v-3L365.4,74.7z M372.2,73.5l-5.5,0
		v-3l5.5,0V73.5z M380.2,74.8l5.5,0v3l-5.5,0V74.8z M380.2,70.5l5.5,0v3l-5.5,0V70.5z M373.4,74.7l5.5,0v3l-5.5,0V74.7z M373.4,70.5
		l5.5,0v3l-5.5,0V70.5z M372.2,77.8l-5.5,0v-3l5.5,0V77.8z M353.1,74.6l5.5,0v3l-5.5,0V74.6z M353.1,70.3l5.5,0v3l-5.5,0V70.3z
		 M346.3,74.6l5.5,0v3l-5.5,0V74.6z M346.3,70.3l5.5,0v3l-5.5,0V70.3z M339.6,74.5l5.5,0v3l-5.5,0V74.5z M339.6,70.3l5.5,0v3l-5.5,0
		V70.3z M332.8,74.5l5.5,0v3l-5.5,0V74.5z M332.8,70.2l5.5,0v3l-5.5,0V70.2z M326,74.5l5.5,0v3l-5.5,0V74.5z M326,70.2l5.5,0v3
		l-5.5,0V70.2z M319.3,74.4l5.5,0v3l-5.5,0V74.4z M319.3,70.1l5.5,0v3l-5.5,0V70.1z M312.5,74.4l5.5,0v3l-5.5,0V74.4z M312.5,70.1
		l5.5,0v3l-5.5,0V70.1z M305.7,74.3l5.5,0v3l-5.5,0V74.3z M305.7,70l5.5,0v3l-5.5,0V70z M299,74.3l5.5,0v3l-5.5,0V74.3z M299,70
		l5.5,0v3l-5.5,0V70z"/>
	
		<linearGradient id="SVGID_1_" gradientUnits="userSpaceOnUse" x1="38.8877" y1="64.1443" x2="263.2217" y2="64.1443" gradientTransform="matrix(-1 0 0 1 430.9863 0)">
		<stop  offset="0.1557" style="stop-color:#FFFFFF"/>
		<stop  offset="0.9918" style="stop-color:#E1DEC8"/>
	</linearGradient>
	<polygon fill="url(#SVGID_1_)" points="167.8,62.2 391.8,63.9 392.1,66.1 167.8,64.4 	"/>
	
		<linearGradient id="SVGID_2_" gradientUnits="userSpaceOnUse" x1="266.2637" y1="70.1839" x2="428.9756" y2="70.1839" gradientTransform="matrix(-1 0 0 1 430.9863 0)">
		<stop  offset="0.1557" style="stop-color:#FFFFFF"/>
		<stop  offset="0.9918" style="stop-color:#E1DEC8"/>
	</linearGradient>
	<polygon fill="url(#SVGID_2_)" points="2,67.2 164.7,70.8 164.7,73.2 2,69.4 	"/>
	<path fill="#E1DEC8" d="M175.5,6.6C175.3,6,174.9,5,174.9,4c2.5-2.4,5.9-4,10.8-3.8c14.9,0.8,50.6,3.3,61.4,5.8
		c10.8,2.5,11.2,6,13.1,9.7C262,19.5,271.4,47,271.4,47l0.5,0l0.1,0.8c0,0,0.6,2.8,1.2,4.3c0.6,1.5,1.1,3.6-0.3,4.3
		c-1.4,0.7-3,0.8-3,0.8s-3.3-9.3-5.4-17.7c-2.1-8.4-5.4-16.7-7.9-18.5c-2.5-1.8-7.3-3.7-25.4-5.4c-18.1-1.7-40.2-2.5-46.3-3.2
		C178.8,11.7,176.3,8.7,175.5,6.6z"/>
	
		<linearGradient id="SVGID_3_" gradientUnits="userSpaceOnUse" x1="41.2031" y1="55.314" x2="149.7436" y2="55.314" gradientTransform="matrix(-1 0 0 1 430.9863 0)">
		<stop  offset="0.1557" style="stop-color:#FFFFFF"/>
		<stop  offset="0.9918" style="stop-color:#E1DEC8"/>
	</linearGradient>
	<path fill="url(#SVGID_3_)" d="M283.8,48.6l102.6,4.4c0,0,1.1,1.5,2.2,4.1c0.5,1.3,1.1,5,1.1,5L284,60.6c0,0-2.5-3.7-2.8-7.5
		C281,49.2,283.8,48.6,283.8,48.6z"/>
	<path fill="#555F64" d="M400.2,57.2c1.6-0.8,2.7-1,3.6-1.1c0.3,0.8,0.5,1.7,0.8,2.8c1.2,5.2,5.9,23.2,8.3,32.8c0,0-0.1,0-0.1,0
		l-10.9-7c0,0-3.2-14.7-3.8-17C397.5,65.5,395.7,59.4,400.2,57.2z"/>
	<polygon fill="#D4D2B8" points="9.5,75.3 8.2,123.4 2.8,123.4 4.5,75.3 	"/>
	<path fill="#F9F5C6" d="M402.8,68.3c0,0,3.6,2.1,4.8,8.6c1.2,6.4-1.2,10.2-1.2,10.2l-2.6-1.5L402.8,68.3z"/>
	<path fill="none" stroke="#838275" stroke-miterlimit="10" d="M283.8,47.4c0,0-5.1,1.9-4.1,6.2c1,4.3,3.6,13.4,8.4,26.8
		c4.8,13.4,10.1,26.8,10.1,26.8s3.3,8.6,12.9,8"/>
	<path fill="none" stroke="#838275" stroke-miterlimit="10" d="M168.3,57.2c0,0,89.7,0,96.2-0.3c3.7-0.1,6.5-0.3,7.5-0.4
		c2.6-0.3,1.9-3,1.9-3l-2.4-6.6"/>
	<path fill="#A0A08E" d="M197.3,51.9c1.7,1.6,4,1.9,5.5,1.9c1.5,0,38.5,0.1,44,0c5.5-0.1,10.9,0.3,13.5-2.7c2.6-3,2.2-6.8,1.5-10.4
		c-0.7-3.5-3.2-12.2-4.8-14.2c-1.6-2-3.5-5-16.8-7.4c-13.3-2.4-31.1-3.1-35-2.8c-3.9,0.3-8.6,1.1-9.3,7.4l-0.7,22.2
		C195.1,45.9,194.9,49.6,197.3,51.9z M197.3,45.3c0,0,0.2-11.5,0.2-15.4c0-3.9,0.7-7.9,2.9-9.8c3.4-2.9,16.4-1.8,26.9-0.8
		c10,1,22.6,3.4,25.9,6.2c4.8,4.3,6.2,13.9,6.8,16.8c0.6,2.9,0.3,5.3-1.3,7.4c-1.6,2.1-7.5,2.2-7.5,2.2s-43.5-0.1-45.3-0.1
		c-1.8,0-4.1,0.6-6.6-1.4C196.7,48.4,197.3,45.3,197.3,45.3z"/>
	<path fill="#D4D2B8" d="M138.7,99c-11.5-15.3-34.5-22.4-52.4-14.7c-17.1,7.4-19.2,16.3-32.3,27.5c-13.6,11.6-19.6,14.5-22.5,15.9
		c-2.9,1.4-3.3,4.8-3.3,4.8s19.8,1.2,25,0.6c5.3-0.7,8.7-2.5,10.4-7.3c1.7-4.8,6.6-20,21.4-27.2c14.8-7.2,28.9-4.8,40.4,2.1
		c8.6,5.1,13.7,14.4,16.2,24.3c1.1,4.6,0.5,8.8,2.8,10.2c2.2,1.3,4.1,1.2,4.1,1.2S150.2,114.3,138.7,99z"/>
	<polygon fill="#D4D2B8" points="163.1,78.6 157.8,78.5 156.4,131.6 161.3,131.7 	"/>
	<path fill="#7F868B" d="M400.8,52c0,0,1.8-0.2,3.4,5.7c-0.2-0.2-0.4-0.3-0.6-0.5c-0.6-0.4-1.2-0.5-2.7,0.4
		c-1.5,0.9-2.9,2.9-2.8,7.1c0.1,4.1,5.7,20.9,5.7,20.9l-8.7-3.5c0,0-4-19.4-4.8-23.7c-0.4-2.7-1.3-5.2-1.8-6.8L400.8,52z"/>
	<path fill="#7F868B" d="M383.5,51.3c0,0,0.2-1.2-0.3-2c-0.7-1.1-2.1-1.3-2.1-1.3s11.1,0.2,13.1,0.2c3.2,1.8,3,3.6,3.1,3.6
		C397.3,51.8,383.5,51.3,383.5,51.3z"/>
	<path fill="#7F868B" d="M255,68c0,0,1.2-0.2,1.6-0.3c1.2-0.2,2.9-0.7,4.9-1c4-0.8,6.4-1.1,7.9,0.2c1.2,1,1.4,4.1-1.1,3.8
		c-2-0.2-1.3-2.4-1.3-2.4s-1-0.2-5.3,0.8C256.3,70.3,255,68,255,68z"/>
	<path fill="#7F868B" d="M318.5,106.9c0,0-1.2,0.2-1.6,0.3c-1.2,0.2-2.9,0.7-4.9,1c-4,0.8-6.4,1.1-7.9-0.2c-1.2-1-1.4-4.1,1.1-3.8
		c2,0.2,1.3,2.4,1.3,2.4s1,0.2,5.3-0.8C317.1,104.6,318.5,106.9,318.5,106.9z"/>
	<circle fill="#3D4142" cx="381.8" cy="133.9" r="37.8"/>
	<path fill="#181717" d="M381.5,97.2c17.8,0,32.8,12.3,36.7,28.9c-2.7-5.2-12-20.3-29.1-22c-26.8-2.6-35.1,8.8-40,17.3
		c-4.9,8.6-5.2,13.9-5.5,13.5C343.7,114.1,360.7,97.2,381.5,97.2z"/>
	<circle fill="#95B2B5" cx="381.5" cy="134.3" r="20.8"/>
	<circle fill="#546567" cx="381.5" cy="134.3" r="19"/>
	<circle fill="none" cx="381.5" cy="134.3" r="17.1"/>
	<g>
		<defs>
			<circle id="SVGID_4_" cx="381.5" cy="134.3" r="17.1"/>
		</defs>
		<use xlink:href="#SVGID_4_"  overflow="visible" fill="#86A4A6"/>
		<clipPath id="SVGID_5_">
			<use xlink:href="#SVGID_4_"  overflow="visible"/>
		</clipPath>
		<g clip-path="url(#SVGID_5_)">
			<ellipse fill="#010101" cx="381.5" cy="117.3" rx="2.8" ry="3"/>
			<ellipse fill="#010101" cx="381.5" cy="151.2" rx="2.8" ry="3"/>
			<ellipse fill="#010101" cx="364.6" cy="134.3" rx="3" ry="2.8"/>
			<ellipse fill="#010101" cx="398.5" cy="134.3" rx="3" ry="2.8"/>
			
				<ellipse transform="matrix(0.7071 0.7071 -0.7071 0.7071 194.6923 -225.4984)" fill="#010101" cx="369.5" cy="122.3" rx="3" ry="2.8"/>
			
				<ellipse transform="matrix(-0.7071 -0.7071 0.7071 -0.7071 568.3814 527.9766)" fill="#010101" cx="393.5" cy="146.3" rx="3" ry="2.8"/>
			
				<ellipse transform="matrix(0.7071 -0.7071 0.7071 0.7071 4.8037 304.1278)" fill="#010101" cx="369.5" cy="146.3" rx="3" ry="2.8"/>
			
				<ellipse transform="matrix(-0.707 0.7072 -0.7072 -0.707 758.2584 -69.5972)" fill="#010101" cx="393.5" cy="122.3" rx="3" ry="2.8"/>
			<path fill="#010101" d="M376.2,121.4c-1.4,0.6-3.1-0.2-3.8-1.7c-0.6-1.5,0-3.3,1.4-3.9c1.4-0.6,3.1,0.2,3.8,1.7
				C378.3,119.1,377.6,120.8,376.2,121.4z"/>
			
				<ellipse transform="matrix(-0.3847 -0.923 0.923 -0.3847 398.9879 565.8146)" fill="#010101" cx="388.1" cy="149.9" rx="3" ry="2.8"/>
			
				<ellipse transform="matrix(-0.3847 -0.9231 0.9231 -0.3847 376.6706 532.6814)" fill="#010101" cx="365.9" cy="140.8" rx="2.8" ry="3"/>
			
				<ellipse transform="matrix(0.3847 0.923 -0.923 0.3847 362.3006 -288.0438)" fill="#010101" cx="397.2" cy="127.7" rx="2.8" ry="3"/>
			
				<ellipse transform="matrix(0.9246 0.3809 -0.3809 0.9246 76.2472 -129.7045)" fill="#010101" cx="365.9" cy="127.8" rx="3" ry="2.8"/>
			<path fill="#010101" d="M394.4,139.6c0.6-1.4,2.3-2.1,3.9-1.4c1.5,0.6,2.3,2.3,1.7,3.8c-0.6,1.4-2.3,2.1-3.9,1.4
				C394.6,142.7,393.8,141,394.4,139.6z"/>
			
				<ellipse transform="matrix(0.3803 -0.9248 0.9248 0.3803 93.739 439.8214)" fill="#010101" cx="375.1" cy="150" rx="3" ry="2.8"/>
			
				<ellipse transform="matrix(0.3806 -0.9247 0.9247 0.3806 130.678 432.2453)" fill="#010101" cx="388" cy="118.6" rx="3" ry="2.8"/>
		</g>
	</g>
	<circle fill="#6B8183" cx="381.5" cy="134.3" r="10.7"/>
	<circle fill="#8BA6A9" cx="381.5" cy="134.3" r="8.8"/>
	<circle fill="#BFCFD7" cx="381.5" cy="134.3" r="4.5"/>
	<circle fill="#3D4142" cx="102.6" cy="133.9" r="37.8"/>
	<path fill="#181717" d="M102.3,97.2c17.8,0,32.8,12.3,36.7,28.9c-2.7-5.2-12-20.3-29.1-22c-26.8-2.6-35.1,8.8-40,17.3
		c-4.9,8.6-5.2,13.9-5.5,13.5C64.5,114.1,81.4,97.2,102.3,97.2z"/>
	<circle fill="#95B2B5" cx="102.3" cy="134.3" r="20.8"/>
	<circle fill="#546567" cx="102.3" cy="134.3" r="19"/>
	<circle fill="none" cx="102.3" cy="134.3" r="17.1"/>
	<g>
		<defs>
			<circle id="SVGID_6_" cx="102.3" cy="134.3" r="17.1"/>
		</defs>
		<use xlink:href="#SVGID_6_"  overflow="visible" fill="#86A4A6"/>
		<clipPath id="SVGID_7_">
			<use xlink:href="#SVGID_6_"  overflow="visible"/>
		</clipPath>
		<g clip-path="url(#SVGID_7_)">
			<ellipse fill="#010101" cx="102.3" cy="117.3" rx="2.8" ry="3"/>
			<ellipse fill="#010101" cx="102.3" cy="151.2" rx="2.8" ry="3"/>
			<ellipse fill="#010101" cx="85.3" cy="134.3" rx="3" ry="2.8"/>
			<ellipse fill="#010101" cx="119.3" cy="134.3" rx="3" ry="2.8"/>
			
				<ellipse transform="matrix(0.707 0.7072 -0.7072 0.707 112.9172 -28.0355)" fill="#010101" cx="90.3" cy="122.3" rx="3" ry="2.8"/>
			
				<ellipse transform="matrix(-0.7072 -0.707 0.707 -0.7072 91.7222 330.5124)" fill="#010101" cx="114.3" cy="146.3" rx="3" ry="2.8"/>
			
				<ellipse transform="matrix(0.7071 -0.7071 0.7071 0.7071 -76.9798 106.6963)" fill="#010101" cx="90.3" cy="146.3" rx="3" ry="2.8"/>
			
				<ellipse transform="matrix(-0.7072 0.707 -0.707 -0.7072 281.5666 127.9228)" fill="#010101" cx="114.3" cy="122.3" rx="3" ry="2.8"/>
			<path fill="#010101" d="M96.9,121.4c-1.4,0.6-3.1-0.2-3.8-1.7c-0.6-1.5,0-3.3,1.4-3.9c1.4-0.6,3.1,0.2,3.8,1.7
				C99,119.1,98.4,120.8,96.9,121.4z"/>
			
				<ellipse transform="matrix(-0.3846 -0.9231 0.9231 -0.3846 12.2731 308.04)" fill="#010101" cx="108.8" cy="149.9" rx="3" ry="2.8"/>
			
				<ellipse transform="matrix(-0.3848 -0.923 0.923 -0.3848 -9.9806 274.9338)" fill="#010101" cx="86.6" cy="140.8" rx="2.8" ry="3"/>
			
				<ellipse transform="matrix(0.3849 0.923 -0.923 0.3849 190.4539 -30.2984)" fill="#010101" cx="118" cy="127.7" rx="2.8" ry="3"/>
			
				<ellipse transform="matrix(0.9246 0.3809 -0.3809 0.9246 55.2016 -23.3507)" fill="#010101" cx="86.6" cy="127.8" rx="3" ry="2.8"/>
			
				<ellipse transform="matrix(-0.9247 -0.3807 0.3807 -0.9247 173.5226 315.7672)" fill="#010101" cx="118" cy="140.7" rx="3" ry="2.8"/>
			
				<ellipse transform="matrix(0.3806 -0.9247 0.9247 0.3806 -79.3125 181.5042)" fill="#010101" cx="95.8" cy="150" rx="3" ry="2.8"/>
			
				<ellipse transform="matrix(0.3806 -0.9247 0.9247 0.3806 -42.2874 174.0106)" fill="#010101" cx="108.8" cy="118.6" rx="3" ry="2.8"/>
		</g>
	</g>
	<circle fill="#6B8183" cx="102.3" cy="134.3" r="10.7"/>
	<circle fill="#8BA6A9" cx="102.3" cy="134.3" r="8.8"/>
	<circle fill="#BFCFD7" cx="102.3" cy="134.3" r="4.5"/>
	
		<linearGradient id="SVGID_8_" gradientUnits="userSpaceOnUse" x1="287.001" y1="107.4361" x2="397.7207" y2="107.4361" gradientTransform="matrix(-1 0 0 1 430.9863 0)">
		<stop  offset="0.1557" style="stop-color:#FFFFFF"/>
		<stop  offset="0.9918" style="stop-color:#D4D2B8"/>
	</linearGradient>
	<path fill="url(#SVGID_8_)" d="M144,121.9c0,0-5.7-34.2-36.8-37.3c-30-3.1-45.3,23.8-50,32.1c-6,10.5-23.9,13.6-23.9,13.6
		s18.8,2,26.4-5.3c6.3-6.1,10.2-33,45-33.7C133,90.7,144,121.9,144,121.9z"/>
	<path fill="#86A4A6" d="M405,86.4l-1.5-17.7c0,0-0.4-2-3.2-0.6c0.2,0,1.5,16.6,1.5,16.6L405,86.4z"/>
	<path fill="#D4D2B8" d="M385,81.1c0,0,0.3-4.1,5-8.4c5.6-5.1,10.3-4.6,10.3-4.6l1.6,16.7c0,0-2-1.7-8.5-3.1
		C386.9,80.3,385,81.1,385,81.1z"/>
	
		<linearGradient id="SVGID_9_" gradientUnits="userSpaceOnUse" x1="31.4232" y1="73.0285" x2="41.6588" y2="73.0285" gradientTransform="matrix(-1 0 0 1 430.9863 0)">
		<stop  offset="0.1557" style="stop-color:#FFFFFF"/>
		<stop  offset="0.9918" style="stop-color:#D4D2B8"/>
	</linearGradient>
	<path fill="url(#SVGID_9_)" d="M389.9,76.4c-1.7-0.8,0.6-2.8,3.3-4.7c2.7-1.8,5.1-2.9,5.7-2.1c0.5,0.8,1,4.1,0.3,5
		c-0.6,0.9-2,1.2-4.6,1.7C392.3,76.7,390.7,76.8,389.9,76.4z"/>
	<path fill="#979286" d="M384.9,80.9c0,0,5.2-0.2,11.1,1.6c4.3,1.4,5.9,2.2,5.9,2.2l-0.8-8.6c0,0-5,3.5-10.7,2.9
		c-3.6-0.3-3.3-3-3.3-3S385.2,78.8,384.9,80.9z"/>
	<path fill="#495A5A" d="M404.4,79.1c0,0-1,1.9-2,1.2c-1-0.7-1.2-2.7-1.2-2.7l0.7,7.2l3.1,1.7L404.4,79.1z"/>
	<path fill="#E1F1FB" d="M401.3,68.4c0,0,1.5-0.9,1.7,1.1c0.2,2-0.7,6.3-0.7,6.3S400.1,69.6,401.3,68.4z"/>
	
		<linearGradient id="SVGID_10_" gradientUnits="userSpaceOnUse" x1="36.9688" y1="51.374" x2="36.9688" y2="67.8076" gradientTransform="matrix(-1 0 0 1 430.9863 0)">
		<stop  offset="0" style="stop-color:#A2A6AA"/>
		<stop  offset="2.111665e-002" style="stop-color:#ADB0B4"/>
		<stop  offset="6.905643e-002" style="stop-color:#C1C3C6"/>
		<stop  offset="0.1198" style="stop-color:#D0D1D4"/>
		<stop  offset="0.1748" style="stop-color:#DADADD"/>
		<stop  offset="0.2418" style="stop-color:#DDDDE0"/>
		<stop  offset="1" style="stop-color:#7F868B"/>
	</linearGradient>
	<path fill="url(#SVGID_10_)" d="M400.8,52c0,0-2.4,0.9-3.2,4.1c-0.9,3.9,0.3,10.1,0.3,10.1l-5.9,1.6c0,0-1.6-8.2-2.4-11.4
		c-0.8-3.1-2.5-5.1-2.5-5.1L400.8,52z"/>
	<path fill="#DDDDE0" d="M395.2,50c-0.4-0.8-1.5-1.4-1.5-1.4l-11.2-0.1l-0.3-0.1c-0.6-0.4-1.2-0.5-1.2-0.5s11.1,0.2,13.1,0.2
		c3.2,1.8,3.2,3.6,3.2,3.7c0,0-1.1-0.1-1.8-0.1C395.6,51.6,395.7,51,395.2,50z"/>
	<path fill="#D4D2B8" d="M312.9,114.3c21-10.2,42.1-28.4,59.3-32.8c18-4.6,36.9,3.1,47.1,17.4c9.8,13.8,10.8,28.4,10.8,28.4
		s-8.2-15.8-23.5-27.7c-15.3-11.9-39.6-10.6-51,0.8c-9.7,9.7-10.8,15.8-12.3,21.8c-0.8,2.9-1.7,7.5-5.5,9.2
		c-3.7,1.7-9.7,4.2-29.3,5.3c-19.6,1.1-62.9-0.2-62.9-0.2l-1.4-5c0,0,17-0.6,35.5-4.9C291.6,123.8,304.6,118.3,312.9,114.3z"/>
	
		<linearGradient id="SVGID_11_" gradientUnits="userSpaceOnUse" x1="7.6104" y1="107.0538" x2="145.5068" y2="107.0538" gradientTransform="matrix(-1 0 0 1 430.9863 0)">
		<stop  offset="0.1557" style="stop-color:#FFFFFF"/>
		<stop  offset="0.9918" style="stop-color:#D4D2B8"/>
	</linearGradient>
	<path fill="url(#SVGID_11_)" d="M285.7,129.9c0,0,21.4-1.7,40.6-16.8c16.6-13.1,39.3-33.9,62.8-30.3c26.2,4,34.2,28.9,34.2,28.9
		s-2.7-5.3-7.9-8.9c-5.2-3.6-21.1-19.6-45.4-12.8c-25.7,7.3-28.4,25.3-40.9,33.8c-12,8.2-43.8,7.9-43.8,7.9L285.7,129.9z"/>
	
		<linearGradient id="SVGID_12_" gradientUnits="userSpaceOnUse" x1="21.332" y1="105.7054" x2="151.3633" y2="105.7054" gradientTransform="matrix(-1 0 0 1 430.9863 0)">
		<stop  offset="0" style="stop-color:#B7B6A0"/>
		<stop  offset="0.2951" style="stop-color:#B7B6A0"/>
		<stop  offset="0.5315" style="stop-color:#B4B29D"/>
		<stop  offset="0.757" style="stop-color:#A9A695"/>
		<stop  offset="0.9775" style="stop-color:#999488"/>
		<stop  offset="1" style="stop-color:#979286"/>
	</linearGradient>
	<path fill="url(#SVGID_12_)" d="M371.3,84.4c-18.1,5.3-35.4,22-45.1,29.3c-9.7,7.3-21.2,12-30.3,14.4c-9.4,2.5-15.9,3-15.9,3
		l-0.4-4.5c12-2.8,25-8.3,33.2-12.3c21-10.2,42.1-28.4,59.3-32.8c13.3-3.4,27.1-0.1,37.5,7.7C403.1,85.2,389.6,79.1,371.3,84.4z"/>
	<path fill="#7F868B" d="M430.2,129.3c0,0-8.4-14-16.6-22c-8.2-8-17.9-16-36.4-14.5c-16.1,1.3-26.8,14.3-29.4,19.3
		c-2.7,5-4.3,12.9-5.2,16c-0.9,3.1-4.3,5.2-8.4,6c-4.1,0.8-5.2,1.5-22.7,2.5c-17.5,1-28,0.9-28,0.9v-1.7c0,0,21,0.2,31.2-0.8
		c10.3-1,20.9-1.9,23.9-4.9c2.9-2.9,3.5-7.4,5.7-14.2c1.7-5.1,7.5-15.4,20.1-21.5c11.4-5.5,25.3-6.6,39.8,2
		c17,10.2,25.5,30.6,25.5,30.6L430.2,129.3z"/>
	
		<linearGradient id="SVGID_13_" gradientUnits="userSpaceOnUse" x1="302.0684" y1="106.9277" x2="402.8486" y2="106.9277" gradientTransform="matrix(-1 0 0 1 430.9863 0)">
		<stop  offset="0.1434" style="stop-color:#AAA996"/>
		<stop  offset="0.4469" style="stop-color:#A5A492"/>
		<stop  offset="0.736" style="stop-color:#9A9788"/>
		<stop  offset="1" style="stop-color:#8A867A"/>
	</linearGradient>
	<path fill="url(#SVGID_13_)" d="M31.5,127.7c2.9-1.4,8.9-4.3,22.5-15.9c13.1-11.2,15.2-20.1,32.3-27.5c13.5-5.8,29.9-3.3,42,4.9
		c0.4,0.4,0.5,0.6,0.5,0.6s-11.8-8.2-29.6-6.2c-20,2.2-29.9,13.6-40.1,28.2c-8.8,12.6-19.2,14.3-24.1,16.9c-3.3,1.8-3.8,2.9-4.5,4
		c-1.6-0.1-2.6-0.2-2.6-0.2S28.6,129.1,31.5,127.7z"/>
	<path fill="#212632" d="M283.5,125.6l0.1,11.9c0,0-50.7,0.1-72.5,0.1c-21.8,0-60.6,0.3-60.6,0.3l0.1-6.5c0,0,33.8,0.6,56.2,0.8
		C229.1,132.4,268.3,130.6,283.5,125.6z"/>
	
		<linearGradient id="SVGID_14_" gradientUnits="userSpaceOnUse" x1="171.8418" y1="11.399" x2="245.1653" y2="11.399" gradientTransform="matrix(-1 0 0 1 430.9863 0)">
		<stop  offset="0" style="stop-color:#E1DEC8"/>
		<stop  offset="4.233332e-002" style="stop-color:#EBE9DA"/>
		<stop  offset="8.959322e-002" style="stop-color:#F2F1E9"/>
		<stop  offset="0.144" style="stop-color:#F7F7F2"/>
		<stop  offset="0.2213" style="stop-color:#F9F9F5"/>
		<stop  offset="0.9139" style="stop-color:#E1DEC8"/>
	</linearGradient>
	<path fill="url(#SVGID_14_)" d="M188.8,0.9c0,0,34.3,2.4,44.2,3.6c9.8,1.2,19.1,3.5,21.5,5c2.4,1.5,3.4,3.7,3.4,3.7l1.2,8.7
		c0,0-1.5-2.9-8.8-4.4c-7.4-1.5-54.8-5.1-59.5-5.2C186.2,12.3,183.4,0.5,188.8,0.9z"/>
	<path fill="none" stroke="#838275" stroke-miterlimit="10" d="M192.8,13.5c0,0,18.4,0.4,31.5,1.5c13.1,1.1,19.4,1.4,26.5,3.3
		c7.2,1.9,8,4.3,10.4,10.8c2.3,6.5,5.7,21,8.3,27.1c2.6,6.1,3,4.1,7.3,21.6c4.3,17.4,5.7,27,6.1,29.4c0.4,2.5,0.8,9-3.7,13.4
		c-4.6,4.4-8.2,5.1-21,5.8c-12.9,0.7-32.1,2.4-49.5,2.2C194,128.6,192,128,192,128s0-22,0.1-38.8C192.2,72.3,192.8,13.5,192.8,13.5z
		"/>
	<path fill="#7F868B" d="M232.6,19.8C232.6,19.8,232.6,19.9,232.6,19.8l0,32l0,0.1c9.8,0,18.5,0,18.5,0s5.9-0.2,7.5-2.2
		c1.6-2.1,1.9-4.5,1.3-7.4c-0.6-2.9-2-12.6-6.8-16.8C250.5,23,241.3,21,232.6,19.8z M234.9,22.2c0,0,6.5,1.1,10.8,2.4
		c4.3,1.2,6,1.5,8.6,6.4c2.6,4.9,3.4,11.4,3.8,13.4c0.4,2.4-1.2,4.9-4.8,5.3c-3.6,0.4-18.4-0.1-18.4-0.1L234.9,22.2z"/>
	<path fill="#DDE7E3" d="M286.9,68.7c0,0,62.4,1.3,78.8,1.2c8.1-0.1,22.7,0,22.7,0l0.1-0.6L286.9,68.7z"/>
	<polygon fill="#DDE7E3" points="386.7,69.8 386.7,74.7 386.1,69.8 	"/>
	<polygon fill="#DDE7E3" points="380,69.7 380,74.7 379.4,69.8 	"/>
	<polygon fill="#DDE7E3" points="373.1,69.6 373.2,74.5 372.5,69.6 	"/>
	<polygon fill="#DDE7E3" points="366.4,69.6 366.4,74.5 365.8,69.7 	"/>
	<polygon fill="#DDE7E3" points="359.5,69.4 359.6,74.3 359,69.5 	"/>
	<polygon fill="#DDE7E3" points="352.9,69.4 352.9,74.3 352.3,69.4 	"/>
	<path fill="#BBC8C5" d="M412.8,105.8c0,0-10.9-11-23.4-13.2c-17.1-3-28,5.1-28,5.1s10.8-9.8,27.8-6.8
		C406.2,94,412.8,105.8,412.8,105.8z"/>
	<path fill="#FFFFFF" d="M386.5,91.8c0,0,0.1,0,0.3,0c1.2,0,5-0.2,8.6,0.9c4,1.3,6.3,3.6,6.3,3.6s-4.6-2.1-7.8-3.1
		C390.5,92.4,386.5,91.8,386.5,91.8z"/>
	<path fill="#E1DEC8" stroke="#838275" stroke-miterlimit="10" d="M192.3,71.4c0,0.9,0.7,1.6,1.6,1.6l0,0c0.9,0,1.6-0.7,1.6-1.6
		v-3.8c0-0.9-0.7-1.6-1.6-1.6l0,0c-0.9,0-1.6,0.7-1.6,1.6V71.4z"/>
	<path fill="#E1DEC8" stroke="#838275" stroke-miterlimit="10" d="M192,107.2c0,0.9,0.7,1.6,1.6,1.6l0,0c0.9,0,1.6-0.7,1.6-1.6v-3.8
		c0-0.9-0.7-1.6-1.6-1.6l0,0c-0.9,0-1.6,0.7-1.6,1.6V107.2z"/>
	<path fill="#14161B" d="M150.4,137.8l0-2.4l0.1-0.7c0,0,22.7,0.8,40.5,1c17.8,0.2,43.2,0.3,62-1.1c17.3-1.3,28.7-3.5,30.4-3.8
		l0,6.7c0,0-50.7,0.1-72.5,0.1C189.3,137.5,150.4,137.8,150.4,137.8z"/>
	<path fill="#8A9298" d="M247.9,23.4c3.8,1.2,6.1,2.9,7.3,5.6c2.3,4.8,3.2,10,3.2,10s-3-10.8-6.9-13c-3.9-2.2-12.9-4.7-12.9-4.7
		S244.1,22.2,247.9,23.4z"/>
	<line fill="none" stroke="#838275" stroke-miterlimit="10" x1="1.9" y1="75.3" x2="164.6" y2="78.9"/>
	<path fill="#7F868B" d="M28.3,131.8c0.8,0.2,10.1,0.9,16.3,0.9s12.7-0.8,15.7-3.7c3-2.9,5.6-12.8,10.4-19.1
		c4.8-6.3,14.4-16.7,32.5-16.4c19,0.3,26.8,9.8,32,16.2c5.1,6.1,7.7,14.8,8.5,20.6c0.7,5.5,2.4,5,3.8,5.5c0.9,0.3,1.7,0,1.7,0
		s0.3,0.6-2,1c-1.4,0.2-4.6-0.6-4.8-3.5c-0.3-3.3-1.5-15.4-9.1-23.8c-7.6-8.4-16.7-14.3-30.1-14.4c-13.4-0.1-24.1,7-28.5,12.3
		c-4.4,5.3-8.3,12.9-10.1,18.3c-1.8,5.5-5.9,7.2-10.2,8c-4.3,0.8-18.4-0.1-22.2-0.5c-3.8-0.4-3.5-0.5-3.9-0.6
		C27.7,132.5,27.5,131.6,28.3,131.8z"/>
	<g>
		<path fill="#95A4A5" d="M44.7,101.5c-0.1-1-0.6-1.5-1-1.3c0.5-0.5,1-0.7,1-0.7V101.5z"/>
		<path fill="#95A4A5" d="M42.3,104c0-0.1,0-0.1,0-0.2c0.1,2.3,1.6,1.3,2.1-0.4c0.1-0.5,0.2-0.9,0.2-1.3v6.7
			C44.7,108.9,42.3,107.7,42.3,104z"/>
	</g>
	<path fill="#D3BA75" d="M406.1,72.4c0,0,1.8,4.2,0.9,6.9c-0.8,2.5-2.3,1.3-2.5,1c0,0.6,0.4,5.9,0.4,5.9l1.5,0.9
		c0,0,1.4-1.7,1.5-6.1C407.9,75.2,406.1,72.4,406.1,72.4z"/>
	
		<ellipse transform="matrix(-0.9695 0.2451 -0.2451 -0.9695 816.0775 46.7696)" fill="#FFFFFF" cx="405.1" cy="74.2" rx="0.7" ry="1.6"/>
</g>
</svg>
