<?xml version="1.0" encoding="utf-8"?>
<!-- Generator: Adobe Illustrator 18.1.1, SVG Export Plug-In . SVG Version: 6.00 Build 0)  -->
<svg version="1.1" id="Layer_1" xmlns="http://www.w3.org/2000/svg" xmlns:xlink="http://www.w3.org/1999/xlink" x="0px" y="0px"
	 viewBox="0 0 402.8 222.6" enable-background="new 0 0 402.8 222.6" xml:space="preserve">
<ellipse opacity="0.6" fill="#857C6F" enable-background="new    " cx="201" cy="199.6" rx="201" ry="23"/>
<g>
	<polygon fill="#353633" points="281,162 281,168.2 294.1,168.5 301.6,166.4 302.1,162.4 	"/>
	<path fill="#040404" d="M244.9,162.2c0,0,0.2,2.1-2,2.2c-2.2,0.1-9.9,0.5-9.9,0.5s-2,2.6-2.9,2.1c-0.9-0.5-0.8-1.1-1.2-1.1
		c-0.4,0-2,0.8-2.1-0.1c-0.1-0.9,0.7-2.3,0.7-2.3l-10.4,0.8l-0.9,0.8h-7l-0.9-0.7l-23.1,0.1l-0.4,0.6l-4.7,0.1c0,0-2.2,1.7-3.2,0.2
		c-1-1.4-0.3-2.2-0.3-2.2l-21.4-0.3c0,0-1.7,1.3-3.3,1.3c-1.7,0-2.4-1.2-2.4-1.2s-1.7,1-2.7,0c-1-1-1.2-1.4-1.2-1.4L244.9,162.2z"/>
	<path fill="#1F291F" d="M25.9,115.9c0,0-5.3-5.3-6.2-6.1c-0.9-0.8-2.4,0-2.4,0l2.5,5.5l6.1,18.2V115.9z"/>
	<polygon fill="#1F291F" points="26.6,81.7 19.2,79.7 19.1,86.1 	"/>
	<path fill="#1F291F" d="M1,125.9c-0.6-9.3-1-71-1-71.6c0-0.1,0.1-8.7,6.8-8.7h6.4c2.3,0,6.5,1.9,6.5,9l1,71.4
		c0,0.2,0.4,5.2-1.5,7.2c-0.5,0.6-1.2,0.9-2,0.9c-3.5,0-10.4,0.1-11.1,0.1c-0.1,0-0.3,0.1-0.6,0.1l0,0C4,134.3,1.5,133.2,1,125.9z
		 M5.9,133.4L5.9,133.4l0.1,0c0.1,0,7.5-0.1,11.2-0.1c0.6,0,1-0.2,1.4-0.6c1.6-1.8,1.3-6.5,1.3-6.6l-1-71.4c0-6.5-3.7-8.2-5.7-8.2
		H6.8c-5.9,0-6,7.5-6,7.9c0,0.6,0.4,62.3,1,71.6C2.4,134.6,5.9,133.4,5.9,133.4L5.9,133.4z"/>
	<path fill="#20211E" d="M19.3,54.6l1,71.4c0,0,0.6,7.7-3.1,7.7c-3.7,0-11.2,0.1-11.2,0.1s-3.9,1.4-4.6-8c-0.6-9.4-1-71.6-1-71.6
		s0-8.3,6.4-8.3c0,0,4.6,0,6.4,0C15,46,19.3,47.5,19.3,54.6z"/>
	<path fill="#070906" d="M12.1,133.8l-1.8-87.4l0-0.4c0.5,0,1,0,1.5,0l0.1,3.5c1-0.3,2.6-0.6,3.7-0.6c1.2,0,2,0.2,2,0.2l0,0.6
		c0,0-0.9-0.2-2.5,0c-1.3,0.2-2.6,0.6-3.2,0.9l0.1,3.8c0.7-0.3,2.1-0.8,3.8-1c1.5-0.2,2.2,0.2,2.2,0.2l0.1,1.5c0,0-1-0.3-2.2-0.1
		c-1,0.2-3.1,1-3.9,1.4l0.1,3.3c0.8-0.2,2.3-0.8,3-0.9c2.2-0.3,2.9,0.3,2.9,0.3l0.3,1.5c0,0-1.2-0.4-3.1,0.2
		c-1.4,0.5-2.6,0.9-3.1,1.1l0.1,3.7c0.6-0.2,2.2-0.8,3.1-1c1.8-0.4,3.1,0,3.1,0l0.1,1.8c0,0-1.1-0.3-2.8,0.1
		c-1.6,0.4-3.1,1.2-3.4,1.4l0.1,3.3c0.6-0.2,2.1-0.8,3.7-1c1.5-0.2,2.4,0.2,2.4,0.2l0.1,1.9c0,0-1.1-0.1-2.6,0.1
		c-1,0.2-2.8,0.7-3.5,1l0.1,3.7c0.9-0.3,2.7-0.9,3.8-1c1.3-0.1,2.3,0,2.3,0l0.1,2.2c0,0-1.8-0.1-3,0.3c-1,0.4-2.5,0.8-3.1,0.9
		l0.1,3.5c0.9-0.2,2.8-0.6,3.8-0.7c1.3-0.2,2.3-0.1,2.3-0.1l0.1,1.9c0,0-1.3-0.2-2.7,0.3c-1.1,0.4-2.7,0.9-3.4,1.1l0.1,3.5
		c0.9-0.3,2.9-0.8,3.9-0.9c1.3-0.1,2.4,0,2.4,0l0.1,2.6c0,0-1.5-0.3-3,0.1c-1.1,0.3-2.5,0.7-3.2,1l0.1,3.9c0.5-0.2,2.3-1,3.6-1.2
		c1.5-0.3,2.5-0.1,2.5-0.1l0,2.1c0,0-0.8-0.3-3.2,0.5c-1.4,0.5-2.4,0.9-2.9,1.2l0.1,3.7c0.7-0.4,2.5-1.2,3.5-1.3
		c1.3-0.1,2.6,0,2.6,0l0.1,2.4c0,0-1.2-0.4-2.8,0c-1.3,0.3-2.7,1.1-3.4,1.4l0.1,3.3c0.7-0.3,2.3-1,3.6-1.1c1.7-0.2,2.7,0.3,2.7,0.3
		l0.1,2c0,0-2-0.2-3.2,0.2c-1.1,0.4-2.6,1-3.1,1.1l0.1,3.7c0.6-0.3,2.2-1,3.3-1.3c1.4-0.3,2.9,0.2,2.9,0.2l0.1,2
		c0,0-1.8-0.3-3.5,0.4c-1.4,0.5-2.4,1-2.8,1.1L13,120c0.7-0.3,2.3-0.9,3.4-1.2c1.4-0.4,2.9-0.1,2.9-0.1l0.1,1.8c0,0-1.8-0.2-3.1,0.1
		c-1.1,0.3-2.6,1-3.2,1.3L13,125c0.6-0.2,1.7-0.6,2.9-0.9c1.9-0.4,3.4-0.2,3.4-0.2l0.1,2c0,0-3.5,0.1-4.8,0.6
		c-0.7,0.3-1.2,0.4-1.5,0.5l0,2.7c0.5-0.2,1.5-0.5,3.1-0.8c1.5-0.3,2.5-0.2,2.5-0.2l0,1.2c0,0-1.5-0.1-2.9,0.2
		c-1.2,0.2-2.1,0.5-2.6,0.7l0,2.6C12.8,133.7,12.5,133.7,12.1,133.8z"/>
	<path fill="#070906" d="M3.8,55.4c-1.2-0.2-2.2,0.2-2.2,0.2L1.7,54c0,0,0.7-0.4,2.2-0.2c1.7,0.2,3.1,0.6,3.8,0.9l-0.1-3.8
		c-0.6-0.2-2-0.6-3.2-0.8C2.9,49.9,2,50.1,2,50.1l0-0.6c0,0,0.8-0.2,2-0.3c1.1-0.1,2.7,0.3,3.7,0.5L7.6,46c0.4,0,0.9,0,1.5,0l0,0.5
		l1.2,87.2c-0.4,0-0.8,0-1.1,0l0-2.5c-0.6-0.2-1.5-0.4-2.7-0.6c-1.4-0.2-2.9-0.1-2.9-0.1l-0.1-1.2c0,0,1-0.1,2.5,0.1
		c1.6,0.2,2.6,0.5,3.1,0.6l0-2.7c-0.3-0.1-0.8-0.2-1.5-0.4c-1.3-0.5-4.8-0.4-4.8-0.4v-2c0,0,1.5-0.3,3.4,0.1
		c1.2,0.2,2.3,0.6,2.9,0.8L9,122.1c-0.6-0.2-2.1-0.9-3.2-1.2c-1.3-0.3-3.1,0-3.1,0v-1.8c0,0,1.5-0.4,2.9,0c1,0.3,2.7,0.8,3.4,1.1
		l-0.1-3.7c-0.3-0.1-1.4-0.5-2.8-1c-1.7-0.6-3.5-0.2-3.5-0.2v-2c0,0,1.6-0.6,2.9-0.3c1.1,0.2,2.7,0.9,3.3,1.2l-0.1-3.7
		c-0.4-0.1-2-0.6-3.1-1c-1.2-0.4-3.2-0.1-3.2-0.1v-2c0,0,1-0.5,2.7-0.4c1.3,0.1,2.9,0.7,3.6,1l-0.1-3.3c-0.6-0.3-2.1-1-3.4-1.3
		c-1.7-0.4-2.8,0-2.8,0v-2.4c0,0,1.3-0.2,2.6-0.1c1,0,2.8,0.8,3.6,1.1l-0.1-3.7C8,98,7,97.6,5.6,97.2c-2.4-0.7-3.2-0.4-3.2-0.4
		l0-2.1c0,0,0.9-0.2,2.5,0c1.3,0.2,3.2,0.9,3.7,1.1l-0.1-3.9c-0.7-0.2-2.2-0.6-3.3-0.9c-1.5-0.4-3.1,0-3.1,0v-2.6
		c0,0,1.1-0.1,2.4-0.1c1,0,3,0.5,3.9,0.8l-0.1-3.5c-0.7-0.2-2.3-0.6-3.4-1c-1.4-0.4-2.7-0.2-2.7-0.2v-1.9c0,0,0.9-0.1,2.3,0
		c1,0.1,2.9,0.4,3.8,0.6l-0.1-3.5c-0.6-0.1-2.2-0.5-3.2-0.8c-1.2-0.4-3-0.2-3-0.2v-2.2c0,0,1-0.2,2.3-0.1c1,0.1,2.9,0.6,3.8,0.9
		l-0.1-3.7c-0.8-0.2-2.6-0.7-3.6-0.8c-1.6-0.2-2.6-0.1-2.6-0.1v-1.9c0,0,0.9-0.4,2.4-0.3c1.6,0.1,3.1,0.7,3.7,0.9L8,68.1
		c-0.3-0.2-1.8-0.9-3.4-1.3c-1.8-0.4-2.8,0-2.8,0V65c0,0,1.3-0.4,3.1-0.1C5.8,65,7.3,65.5,8,65.8l-0.1-3.7c-0.5-0.2-1.6-0.5-3.1-0.9
		c-2-0.6-3.1-0.1-3.1-0.1L2,59.5c0,0,0.6-0.6,2.8-0.4c0.7,0.1,2.3,0.6,3.1,0.8l-0.1-3.3C7,56.3,4.8,55.5,3.8,55.4z"/>
	<g>
		<path fill="#595A55" d="M217.7,64.5h9.1c0.8,0,1.4-0.6,1.4-1.4s-0.6-1.4-1.4-1.4h-9.1c-0.8,0-1.4,0.6-1.4,1.4
			S216.9,64.5,217.7,64.5z"/>
		<path fill="#20211E" d="M216,63.1c0-0.9,0.7-1.7,1.7-1.7h9.1c0.9,0,1.7,0.7,1.7,1.7s-0.7,1.7-1.7,1.7h-9.1
			C216.8,64.7,216,64,216,63.1z M217.7,61.8c-0.7,0-1.2,0.6-1.2,1.2c0,0.7,0.6,1.2,1.2,1.2h9.1c0.7,0,1.2-0.6,1.2-1.2
			c0-0.7-0.6-1.2-1.2-1.2H217.7z"/>
	</g>
	<g>
		
			<rect x="216.7" y="77.5" transform="matrix(-0.7324 0.6809 -0.6809 -0.7324 440.198 10.7548)" fill="#595A55" width="2.5" height="28.7"/>
		<path fill="#20211E" d="M207,82.2l2.1-2l19.8,21.3l-2.1,2L207,82.2z M209.1,80.8l-1.5,1.4l19.3,20.7l1.5-1.4L209.1,80.8z"/>
	</g>
	<g>
		<circle fill="#595A55" cx="207.9" cy="80.8" r="2.1"/>
		<path fill="#20211E" d="M205.6,80.8c0-1.3,1-2.3,2.3-2.3c1.3,0,2.3,1,2.3,2.3c0,1.3-1,2.3-2.3,2.3
			C206.7,83.1,205.6,82.1,205.6,80.8z M206,80.8c0,1,0.9,1.9,1.9,1.9c1,0,1.9-0.8,1.9-1.9c0-1-0.9-1.9-1.9-1.9
			C206.9,78.9,206,79.8,206,80.8z"/>
	</g>
	<g>
		
			<rect x="204" y="93.2" transform="matrix(-0.1768 0.9842 -0.9842 -0.1768 351.9976 -105.1471)" fill="#464844" width="32" height="2.9"/>
		<path fill="#20211E" d="M215.5,110.3l5.7-31.7l0-0.2l3.3,0.6l-5.7,31.7l0,0.2L215.5,110.3z M221.5,78.8L216,110l2.4,0.4l5.6-31.1
			L221.5,78.8z"/>
	</g>
	<path fill="#20211E" d="M195.3,135.3c0,0,15.7-6.8,18.3-8.3c2.6-1.5,6.2-4,9.4-4c3.2,0,4.4-0.4,4.4-0.4l0.1,13.7
		c0,0-13.1,1.9-19.3,1.6C202,137.6,195.3,135.3,195.3,135.3z"/>
	<path fill="#2A2A2A" d="M193.5,90.1c3.1,1.6,10.3-6.1,16-17.3c5.7-11.1,7.8-21.5,4.6-23.1c-3.1-1.6-10.3,6.1-16,17.3
		C192.4,78.2,190.4,88.5,193.5,90.1z M200.5,68.2c4.7-9.3,9.9-16.1,11.6-15.2c1.7,0.9-0.8,9.1-5.5,18.3c-4.7,9.3-9.9,16.1-11.6,15.2
		C193.4,85.7,195.8,77.5,200.5,68.2z"/>
	<path fill="#0A0A0A" d="M208.3,53.9c0.7,0.6,0.3,2.1,0.3,2.1l-2.1,9.7l8.7-9l-0.6,2.9l-7.8,8.2l-1.8,3.7l-2.2,11.7l-1.4,1.9
		l1.8-12.9l-7.5,7.9c0,0-1.1,0.3-1.7-0.1c-0.7-0.4-0.8-1.4-0.8-1.4l0.9-2.1c0,0,0.7,1.5,1.5,1.3c0.8-0.2,7.2-7.4,7.2-7.4l1.9-3.4
		l2.1-10.6c0,0,0.2-1-0.4-1.3c-0.4-0.2-0.9,0-0.9,0l1.2-1.3C206.8,53.8,207.8,53.5,208.3,53.9z"/>
	<g>
		
			<linearGradient id="SVGID_1_" gradientUnits="userSpaceOnUse" x1="170.3877" y1="76.1065" x2="200.3167" y2="76.1065" gradientTransform="matrix(-1 0 0 1 402.8383 0)">
			<stop  offset="0" style="stop-color:#5A5B5A"/>
			<stop  offset="0.4282" style="stop-color:#585958"/>
			<stop  offset="0.6126" style="stop-color:#515251"/>
			<stop  offset="0.7503" style="stop-color:#444644"/>
			<stop  offset="0.8646" style="stop-color:#323532"/>
			<stop  offset="0.9634" style="stop-color:#1C1E1C"/>
			<stop  offset="1" style="stop-color:#111411"/>
		</linearGradient>
		<path fill="url(#SVGID_1_)" d="M230,85.2c0.9,0,1.7-0.5,2.2-1.3c0.6-1.2,0.2-2.7-1-3.4l-25-13.2c-1.2-0.6-2.7-0.2-3.4,1
			c-0.6,1.2-0.2,2.7,1,3.4l25,13.2C229.2,85.1,229.6,85.2,230,85.2z"/>
		<path fill="#20211E" d="M228.7,85.1l-25-13.2c-1.3-0.7-1.8-2.3-1.1-3.6c0.5-0.9,1.4-1.4,2.4-1.4c0.4,0,0.9,0.1,1.3,0.3l25,13.2
			c1.3,0.7,1.8,2.3,1.1,3.6c-0.5,0.9-1.4,1.4-2.4,1.4C229.5,85.4,229.1,85.3,228.7,85.1z M203,68.4c-0.6,1.1-0.2,2.5,0.9,3.1
			l25,13.2c0.3,0.2,0.7,0.3,1.1,0.3c0.8,0,1.6-0.5,2-1.2c0.6-1.1,0.2-2.5-0.9-3.1l-25-13.2c-0.3-0.2-0.7-0.3-1.1-0.3
			C204.2,67.2,203.4,67.7,203,68.4z"/>
	</g>
	<path fill="#464844" d="M205.9,56.8c0,0-3.4,4.4-6.1,9.8c-2.7,5.4-4.5,9.6-4.5,9.6s-0.1-2.9,4-10.8C203.7,57,205.9,56.8,205.9,56.8
		z"/>
	<path fill="#11100D" d="M170.9,118.1c0,0,23.3-3,28.4-3.9c5.1-0.8,8.6-1.7,9.1,0.4c0.6,2.1-1,11.9-1,11.9l-1.2,0.3c0,0,2.1-1-4.6-1
		c-6.6,0-22.6,1.8-22.6,1.8s-2.3-2.1-2.8-2.3C175.8,125,170.9,118.1,170.9,118.1z"/>
	<g>
		<path fill="#464844" d="M207,137.9c0-0.3,0.3-7.8,0.1-10.6c-0.1-1.4-0.6-2.5-1.5-3c-0.8-0.5-1.7-0.5-2.4-0.3l-24.9,2l0.2,2.9l25-2
			l0.4-0.1l0,0c0,0,0.1,0,0.1,0c0,0.1,0.2,0.3,0.2,0.8c0.2,2.7-0.1,10.2-0.1,10.3L207,137.9z"/>
		<path fill="#20211E" d="M204.1,138l-0.2,0l0-0.2c0-0.8,0.3-7.7,0.1-10.2c0-0.3-0.1-0.5-0.1-0.6l-0.3,0.1l-25,2l-0.2,0l-0.3-3.3
			l25-2c0.3-0.1,0.6-0.1,0.8-0.1c0.6,0,1.2,0.2,1.7,0.5c1,0.6,1.5,1.7,1.6,3.2c0.2,2.9-0.1,10.3-0.1,10.6l0,0.2L204.1,138z
			 M203.2,124.1l-24.7,1.9l0.2,2.5l24.8-1.9l0.4-0.1l0,0c0,0,0,0,0.1,0l0.1,0l0.1,0.1c0.1,0.1,0.2,0.4,0.2,0.9
			c0.2,2.4,0,8.7-0.1,10.1l2.5,0.1c0-1.3,0.3-7.8,0.1-10.4c-0.1-1.4-0.6-2.3-1.4-2.9c-0.5-0.3-1.1-0.4-1.5-0.4
			C203.7,124,203.5,124,203.2,124.1z"/>
	</g>
	<path fill="#11100D" d="M138.8,80.2v-8.6c0,0,3.4,0.3,5.2,0.5c1.9,0.1,4,0.3,4.5,1.5c0.5,1.2,2.3,19.1,2.3,19.1l0.1,1.2L138.8,80.2
		z"/>
	<g>
		<path fill="#464844" d="M146.1,92.3c0,0,0.1,0,0.2,0c0.9-0.1,1.6-0.9,1.5-1.8c0-0.4-0.9-9.9-1.2-11.5c-0.4-2.6-2.4-4.2-2.9-4.6
			l-5.9-5.2c-0.7-0.6-1.7-0.5-2.3,0.1c-0.6,0.7-0.5,1.7,0.1,2.3l6.1,5.4c0,0,1.4,1,1.6,2.4c0.2,1.2,0.9,8.5,1.1,11.2
			C144.5,91.7,145.3,92.3,146.1,92.3z"/>
		<path fill="#20211E" d="M144.3,90.9c-0.2-2.7-0.9-10-1.1-11.2c-0.2-1.3-1.5-2.3-1.5-2.3l-6.1-5.4c-0.4-0.3-0.6-0.8-0.6-1.3
			c0-0.5,0.1-1,0.5-1.3c0.4-0.4,0.9-0.6,1.4-0.6c0.5,0,0.9,0.2,1.2,0.5l5.8,5.2c0.6,0.4,2.6,2.1,3,4.7c0.2,1.6,1.1,11.4,1.2,11.5
			c0,0.5-0.1,1-0.4,1.4c-0.3,0.4-0.8,0.6-1.3,0.7c-0.1,0-0.1,0-0.2,0C145.1,92.6,144.3,91.8,144.3,90.9z M135.7,69.6
			c-0.3,0.3-0.4,0.7-0.4,1c0,0.4,0.2,0.7,0.5,1l6.1,5.4c0.1,0,1.5,1.1,1.7,2.5c0.2,1.2,0.9,8.5,1.1,11.2c0.1,0.8,0.8,1.4,1.6,1.3
			c0.4,0,0.7-0.2,1-0.5c0.2-0.3,0.4-0.7,0.3-1.1c0-0.1-0.9-9.9-1.1-11.4c-0.4-2.5-2.3-4-2.8-4.4l-5.9-5.2c-0.3-0.2-0.6-0.4-1-0.4
			C136.3,69.1,135.9,69.3,135.7,69.6z"/>
	</g>
	<path fill="#1F291F" d="M106.8,57.4l2,15.7l-10-0.3l2.9-13.9l-6.2-4.1l-6.2-5.1c0,0,0.5-0.1-0.6-1.3c-1.1-1.2-2.1-2-2.1-2l2.1-2.6
		l3,2.5l1,0.4l6.3,5.1l8.2,3L106.8,57.4z"/>
	<path fill="#2E3B2D" d="M229.7,60.9c0,0,10.1,1.7,14.1,2.2c3.9,0.5,23.5,1.7,23.5,1.7l104.8,5.1c0,0,2.8,0.6,2.8,3.2
		c0,2.2-0.3,55.5-0.3,55.5s-26-9.4-44.4,0.5c-18.4,9.9-23.2,33.7-23.2,33.7l-4.8,0.4l-146.7-0.8l-10-0.7l-6.4-0.1L120,165l-64.5-8.9
		l-4.8-1.7l-1.2-0.4l-10.1-0.2c0,0-0.4,0.4-3.9,0.6c-3.5,0.2-6-1.9-6-1.9l-3.9-0.2l-0.2-40.1l0.2-37.9l22.8-1.5
		c0,0,33.7-0.2,45.5-0.2c11.8,0,26.5,0.4,29.6,0.4c3.1,0,11.4,1.2,16.6,7.4c5.2,6.2,27.9,32.7,33.7,40.1
		c5.8,7.4,21.1,15.3,27.5,15.7c6.4,0.4,19.5,0.1,19.5,0.1l6.1-0.7L226.5,89l-0.2-26.9l0.4-1.9L229.7,60.9z"/>
	
		<linearGradient id="SVGID_2_" gradientUnits="userSpaceOnUse" x1="33.8886" y1="70.3487" x2="33.8886" y2="88.6905" gradientTransform="matrix(-1 0 0 1 402.8383 0)">
		<stop  offset="0" style="stop-color:#344233"/>
		<stop  offset="2.939996e-002" style="stop-color:#445742"/>
		<stop  offset="6.383826e-002" style="stop-color:#51674E"/>
		<stop  offset="0.1021" style="stop-color:#597156"/>
		<stop  offset="0.1516" style="stop-color:#5B7458"/>
		<stop  offset="1" style="stop-color:#2E3B2D"/>
	</linearGradient>
	<path fill="url(#SVGID_2_)" d="M363.7,76.1v-5.8l8.6,0.1c0,0,1.9,0.4,1.9,1.9c0,1.4,0,16.4,0,16.4l-9.9-1L363.7,76.1z"/>
	
		<linearGradient id="SVGID_3_" gradientUnits="userSpaceOnUse" x1="40.4051" y1="68.6768" x2="167.285" y2="68.6768" gradientTransform="matrix(-1 0 0 1 402.8383 0)">
		<stop  offset="0" style="stop-color:#5B7458"/>
		<stop  offset="1" style="stop-color:#344233"/>
	</linearGradient>
	<path fill="url(#SVGID_3_)" d="M362.4,70.1l-0.1,4.8l-107.7-1.1c0,0-8.7-0.8-13.4-2.5c-4.7-1.7-5.5-4.3-5.5-4.3l-0.3-4.5
		c0,0,10.3,2.9,23.4,3.4C272.1,66.5,362.4,70.1,362.4,70.1z"/>
	<path fill="#171512" d="M145.5,161.5l-6.4-0.1L120,165l-64.5-8.9l-4.8-1.7l-1.2-0.4l-10.1-0.2c0,0-0.4,0.4-3.9,0.6
		c-3.5,0.2-6-1.9-6-1.9l-3.9-0.2l0-4.2h19.4l18.6-44.5h62.2l18.9,45.8v2.6h125.2l36.8-46.1h63.8v21.4c-8.1-2.2-26.3-5.7-40.1,1.8
		c-18.4,9.9-23.2,33.7-23.2,33.7l-4.8,0.4l-146.7-0.8L145.5,161.5z"/>
	<polygon fill="#445540" points="372.2,90.1 295.7,90.1 250.7,148.5 250.7,152.7 269.9,152.7 306.2,106.5 371.9,106.5 	"/>
	<rect x="143.6" y="149.3" fill="#445540" width="126.7" height="3.6"/>
	
		<rect x="238.8" y="119.3" transform="matrix(-0.611 0.7916 -0.7916 -0.611 539.6818 -25.7532)" fill="#1F291F" width="74.8" height="0.8"/>
	
		<rect x="302.1" y="89.6" transform="matrix(-0.9104 0.4138 -0.4138 -0.9104 618.6166 62.9383)" fill="#1F291F" width="0.8" height="17.6"/>
	<polygon fill="#1F291F" points="270.6,149.6 305.6,105.1 372.1,105.1 372.1,104.2 305.2,104.2 305.1,104.4 269.9,149.1 	"/>
	<rect x="371.5" y="106.5" fill="#1F291F" width="0.8" height="17.5"/>
	<rect x="369.8" y="106.5" fill="#1F291F" width="0.8" height="16.1"/>
	<path fill="#1F291F" d="M255.4,82.9c0.1,0,0.2,0,0.2,0l13.3,0v-0.8h-13.3c-0.1,0-3.9,0.2-11-3c-9-4.1-9.3-8.3-9.3-8.8v-8.5h-0.8
		v8.5c0,0.5,0.3,5.2,9.8,9.6C250.6,82.7,254.4,82.9,255.4,82.9z"/>
	<path fill="#171512" d="M49,81.9c0,0-0.8,6.5-0.8,12.5c0.1,6,0.6,13.5,0.6,13.5s-8.1,1.2-17.5,0.8c-9.4-0.3-17.2-5.1-17.1-13.3
		c0.1-8.2,6-11.5,12.4-13.2C36.3,79.5,49,81.9,49,81.9z"/>
	<polygon fill="#445540" points="149.9,149.4 128.7,98.1 60.3,98.1 40.3,148.1 48.1,148.1 65,106.6 123.7,106.6 141.8,149.4 
		143.6,149.4 	"/>
	<polygon fill="#1F291F" points="143.2,149.5 143.9,149.2 124.9,104.6 63.8,104.6 46,148 46.7,148.3 64.4,105.4 124.4,105.4 	"/>
	
		<rect x="121" y="102" transform="matrix(-0.509 0.8608 -0.8608 -0.509 278.4389 46.0889)" fill="#1F291F" width="10.2" height="0.8"/>
	
		<rect x="62.2" y="97.5" transform="matrix(-0.8777 0.4792 -0.4792 -0.8777 166.6036 162.1705)" fill="#1F291F" width="0.8" height="9.8"/>
	<path fill="#040404" d="M379.7,133c0,0,5.4-1.8,8.6-1.8s5,0.3,6.3-1.4c1.3-1.7,0.6-3.6-0.3-4.3c-0.9-0.7-3-0.5-4,0.1
		c-1,0.6-1.2,0.8-1.2,0.8s0.1-3.2,2.5-4.1c2.4-0.9,6.9,0.4,7.6,4.5c0.6,3.6-1,6.6-4,6.9c-3,0.3-15,0.3-15,0.3L379.7,133z"/>
	<path fill="#613F24" d="M66.1,95.2c0,1.6,1.3,2.8,2.9,2.8h74.2c1.6,0,2.9-1.3,2.9-2.8l0,0c0-1.6-1.3-2.8-2.9-2.8H69
		C67.4,92.3,66.1,93.6,66.1,95.2L66.1,95.2z"/>
	<path fill="#171512" d="M46.2,91.9l22.2,0.4c0,0,3.4,0.7,4.6,1.5c1.2,0.8,1.2,1.8,0.1,2.6c-1.6,1.1-3.6,1.7-4.9,1.7
		c-1.3,0.1-19.5,0-21.6,0c-2.1,0-4-1.8-3.9-3.4C42.7,92.9,44.1,92.2,46.2,91.9z"/>
	
		<linearGradient id="SVGID_4_" gradientUnits="userSpaceOnUse" x1="127.4286" y1="63.5562" x2="108.121" y2="63.5562" gradientTransform="matrix(-1 0 0 1 402.8383 0)">
		<stop  offset="0" style="stop-color:#5B7458"/>
		<stop  offset="1" style="stop-color:#344233"/>
	</linearGradient>
	<polygon fill="url(#SVGID_4_)" points="294.7,66.8 275.4,60.2 275.7,66.9 	"/>
	<polygon fill="#2E3B2D" points="293.8,70.8 274.5,64.1 274.8,70.8 	"/>
	
		<linearGradient id="SVGID_5_" gradientUnits="userSpaceOnUse" x1="149.0111" y1="62.4789" x2="157.8383" y2="62.4789" gradientTransform="matrix(-1 0 0 1 402.8383 0)">
		<stop  offset="0" style="stop-color:#070906"/>
		<stop  offset="3.697894e-002" style="stop-color:#171916"/>
		<stop  offset="0.1172" style="stop-color:#343533"/>
		<stop  offset="0.2028" style="stop-color:#4A4B4A"/>
		<stop  offset="0.2954" style="stop-color:#5A5B5A"/>
		<stop  offset="0.3997" style="stop-color:#636463"/>
		<stop  offset="0.541" style="stop-color:#666766"/>
		<stop  offset="0.7305" style="stop-color:#646564"/>
		<stop  offset="0.8122" style="stop-color:#5D5E5D"/>
		<stop  offset="0.8731" style="stop-color:#505250"/>
		<stop  offset="0.9238" style="stop-color:#3E403E"/>
		<stop  offset="0.9675" style="stop-color:#282A28"/>
		<stop  offset="1" style="stop-color:#111411"/>
	</linearGradient>
	<path fill="url(#SVGID_5_)" d="M245,63.3v-1.9c0,0,1.1-0.5,4.7-0.2c3.7,0.3,4.1,1,4.1,1v1.7L245,63.3z"/>
	<polygon fill="#040404" points="384.2,141 398.2,141 400.2,142.2 402.8,142.2 402.8,128.8 401.7,128.8 401.7,133.1 398.5,133.1 
		398.3,134.2 392.6,134.2 380.7,134.2 	"/>
	<path fill="#1F291F" d="M268.7,82.3c0-1,0.8-1.9,1.9-1.9h83c1,0,1.9,0.8,1.9,1.9c0,1-0.8,1.9-1.9,1.9h-83
		C269.5,84.1,268.7,83.3,268.7,82.3z M270.5,81.2c-0.6,0-1,0.5-1,1c0,0.6,0.5,1,1,1h83c0.6,0,1-0.5,1-1c0-0.6-0.5-1-1-1H270.5z"/>
	<path fill="#1F291F" d="M268.5,90h0.8V64.8c0,0,0-0.7-0.4-1.2c-0.2-0.2-0.5-0.4-0.9-0.4c-0.5,0-0.7,0.2-0.8,0.4
		c-0.3,0.4-0.2,0.9-0.1,1.1v17.6h0.8V64.7l0-0.1c0-0.1-0.1-0.4,0-0.4c0,0,0.1,0,0.2,0c0.2,0,0.2,0.1,0.3,0.1
		c0.1,0.2,0.2,0.5,0.2,0.6L268.5,90z"/>
	<circle fill="#2C352D" cx="346.2" cy="160.9" r="1.3"/>
	<circle fill="#2C352D" cx="351.5" cy="153.2" r="1.2"/>
	<circle fill="#2C352D" cx="340" cy="153.9" r="1.2"/>
	<circle fill="#2C352D" cx="337.4" cy="164.6" r="1.2"/>
	<path fill="#2C352D" d="M345.5,169.9c0,0.6,0.5,1.2,1.2,1.2c0.6,0,1.2-0.5,1.2-1.2c0-0.6-0.5-1.2-1.2-1.2
		C346.1,168.7,345.5,169.2,345.5,169.9z"/>
	<circle fill="#2C352D" cx="354.9" cy="163" r="1.2"/>
	<g>
		<circle fill="#666766" cx="94.1" cy="160" r="45"/>
		
			<radialGradient id="SVGID_6_" cx="308.7167" cy="159.9923" r="33.0994" gradientTransform="matrix(-1 0 0 1 402.8383 0)" gradientUnits="userSpaceOnUse">
			<stop  offset="0.4631" style="stop-color:#070906"/>
			<stop  offset="0.9549" style="stop-color:#666766"/>
		</radialGradient>
		<circle fill="url(#SVGID_6_)" cx="94.1" cy="160" r="33.1"/>
		<circle fill="#20211E" cx="94.1" cy="160" r="26.1"/>
		
			<radialGradient id="SVGID_7_" cx="308.7172" cy="159.9923" r="21.3759" gradientTransform="matrix(-1 0 0 1 402.8383 0)" gradientUnits="userSpaceOnUse">
			<stop  offset="0.7295" style="stop-color:#666766"/>
			<stop  offset="0.8975" style="stop-color:#B3B6B3"/>
		</radialGradient>
		<circle fill="url(#SVGID_7_)" cx="94.1" cy="160" r="21.4"/>
		<circle fill="#2C352D" cx="94.1" cy="160" r="14.9"/>
		<path fill="#0A100B" d="M86.9,160c0-4,3.2-7.2,7.2-7.2c4,0,7.2,3.2,7.2,7.2c0,4-3.2,7.2-7.2,7.2C90.1,167.2,86.9,164,86.9,160z
			 M88.1,160c0,3.3,2.7,6,6,6c3.3,0,6-2.7,6-6c0-3.3-2.7-6-6-6C90.8,154,88.1,156.7,88.1,160z"/>
		<path fill="#343434" d="M100.3,122.4c-1.4-0.2-2.9-0.4-4.3-0.5l0.7-6.9c1.3,0.1,2.6,0.2,3.9,0.4L100.3,122.4z"/>
		<path fill="#343434" d="M91.5,115.1l0.7,6.9c-1.5,0.1-3,0.2-4.4,0.5l-0.5-6.9C88.7,115.3,90.1,115.2,91.5,115.1z"/>
		<path fill="#343434" d="M81.9,116.7l2.3,6.5c-1.4,0.4-2.7,0.8-4,1.3l-2.4-6.5C79.1,117.6,80.4,117.1,81.9,116.7z"/>
		<path fill="#343434" d="M73.3,120.1l3.5,6c-1.4,0.7-2.7,1.5-3.9,2.3l-3.4-6C70.8,121.5,72,120.8,73.3,120.1z"/>
		<path fill="#343434" d="M65.8,125.1l4.5,5.2c-1.1,0.9-2.2,1.9-3.3,2.9l-4.6-5.2C63.5,127,64.6,126,65.8,125.1z"/>
		<path fill="#343434" d="M64.6,135.9c-0.9,1.1-1.8,2.3-2.6,3.6l-5.3-4.5c0.8-1.2,1.7-2.4,2.6-3.5C60.7,132.6,63.5,134.9,64.6,135.9
			z"/>
		<path fill="#343434" d="M52.4,143.3c0.5-1.3,1.1-2.6,1.8-3.9l6.2,2.9c-0.7,1.3-1.3,2.6-1.8,4L52.4,143.3z"/>
		<path fill="#343434" d="M49.8,152.4c0.3-1.5,0.6-3.1,1-4.6l6.7,1.8c-0.3,1.2-0.6,2.4-0.8,3.6L49.8,152.4z"/>
		<path fill="#343434" d="M49.3,157l6.9,0.1c-0.1,0.9-0.1,1.9-0.1,2.8c0,0.4,0,0.7,0,1.1l-6.9,0.5c0-0.5,0-1.1,0-1.6
			C49.2,159,49.2,158,49.3,157z"/>
		<path fill="#343434" d="M56.4,165.2c0.2,1.3,0.4,2.6,0.7,3.8l-6.7,1.7c-0.3-1.4-0.6-2.8-0.8-4.3L56.4,165.2z"/>
		<path fill="#343434" d="M58.4,173.2c0.4,1.2,0.9,2.4,1.5,3.5l-6.2,3c-0.6-1.3-1.2-2.6-1.7-3.9L58.4,173.2z"/>
		<path fill="#343434" d="M58.4,187.3c-0.8-1.1-1.6-2.2-2.4-3.4l5.7-3.9c0.7,1.1,1.5,2.2,2.3,3.3L58.4,187.3z"/>
		<path fill="#343434" d="M61.8,191.2l4.9-4.8c0.9,0.9,1.8,1.8,2.7,2.6l-4.8,4.9C63.6,193,62.7,192.1,61.8,191.2z"/>
		<path fill="#343434" d="M72.8,191.5c1,0.7,2.1,1.3,3.1,1.9l-3.7,5.9c-1.3-0.7-2.5-1.5-3.7-2.3C69.7,195.5,71.9,192.6,72.8,191.5z"
			/>
		<path fill="#343434" d="M79.6,195.2c1.2,0.5,2.4,0.9,3.6,1.3l-2.1,6.6c-1.5-0.5-3-1-4.5-1.6L79.6,195.2z"/>
		<path fill="#343434" d="M87.2,197.4c1.2,0.2,2.4,0.4,3.6,0.5l-0.2,6.9c-1.6-0.1-3.2-0.3-4.7-0.6L87.2,197.4z"/>
		<path fill="#343434" d="M99.3,204.7c-1.3,0.2-2.7,0.3-4.1,0.3L95,198c1.3,0,2.6-0.1,3.9-0.3L99.3,204.7z"/>
		<path fill="#343434" d="M103.9,196.8c0.3-0.1,0.6-0.2,0.9-0.3c0,0,0,0,0,0c0.3-0.1,0.6-0.2,0.9-0.3c0,0,0,0,0,0
			c0.3-0.1,0.6-0.2,0.9-0.3l2.4,6.5c-1.5,0.5-3,1-4.5,1.3l-1.7-6.7C103.2,197,103.5,196.9,103.9,196.8
			C103.8,196.8,103.8,196.8,103.9,196.8z"/>
		<path fill="#343434" d="M117.1,198.6c-1.3,0.7-2.5,1.4-3.9,2.1l-3.4-6c1.4-0.6,2.7-1.3,3.9-2.1L117.1,198.6z"/>
		<path fill="#343434" d="M124.6,193.1c-1,0.9-2.1,1.8-3.1,2.6l-4.4-5.3c1.1-0.8,2.1-1.7,3.1-2.6L124.6,193.1z"/>
		<path fill="#343434" d="M128,189.6l-5.2-4.5c0.9-1,1.7-2,2.5-3.1l5.4,4.3C129.8,187.4,128.9,188.5,128,189.6z"/>
		<path fill="#343434" d="M135.3,178c-0.6,1.4-1.3,2.7-2,4l-6-3.3c0.7-1.2,1.3-2.5,1.9-3.8L135.3,178z"/>
		<path fill="#343434" d="M138.2,169.1c-0.3,1.4-0.6,2.8-1.1,4.1l-6.6-2.2c0.4-1.2,0.7-2.5,0.9-3.7L138.2,169.1z"/>
		<path fill="#343434" d="M138.9,164l-6.9-0.6c0.1-1.1,0.1-2.2,0.1-3.4c0-0.2,0-0.5,0-0.7l6.9,0.2c0,0.2,0,0.3,0,0.5
			C139.1,161.3,139,162.7,138.9,164z"/>
		<path fill="#343434" d="M131.9,155.4c-0.2-1.3-0.4-2.6-0.7-3.8l6.8-1.4c0.3,1.5,0.6,3,0.8,4.5L131.9,155.4z"/>
		<path fill="#343434" d="M130,147.1c-0.5-1.3-1-2.6-1.6-3.8l6.3-2.8c0.6,1.3,1.2,2.7,1.7,4.1L130,147.1z"/>
		<path fill="#343434" d="M131.9,135.7l-5.8,3.8c-0.8-1.2-1.6-2.3-2.5-3.4l5.8-3.8C130.3,133.3,131.2,134.5,131.9,135.7z"/>
		<path fill="#343434" d="M120.9,132.9c-1-1-2-1.9-3.1-2.8l4.8-5c1.2,1,2.3,2,3.4,3L120.9,132.9z"/>
		<path fill="#343434" d="M114.3,127.7c-1-0.6-2-1.2-3-1.7l3.1-6.1c1.4,0.7,2.7,1.4,4,2.3L114.3,127.7z"/>
		<path fill="#343434" d="M107.4,124.3c-1.3-0.5-2.7-0.9-4-1.3l2.4-6.5c1.6,0.4,3.2,0.9,4.7,1.6L107.4,124.3z"/>
		<g>
			<defs>
				<circle id="SVGID_8_" cx="94.1" cy="160" r="21.4"/>
			</defs>
			<clipPath id="SVGID_9_">
				<use xlink:href="#SVGID_8_"  overflow="visible"/>
			</clipPath>
			<ellipse clip-path="url(#SVGID_9_)" fill="#070906" cx="94" cy="138.7" rx="3.2" ry="3.5"/>
			<ellipse clip-path="url(#SVGID_9_)" fill="#070906" cx="94" cy="181.4" rx="3.2" ry="3.5"/>
			<path clip-path="url(#SVGID_9_)" fill="#070906" d="M72.7,163.3c1.9,0,3.5-1.4,3.5-3.2c0-1.8-1.6-3.2-3.5-3.2
				c-1.9,0-3.5,1.4-3.5,3.2C69.2,161.8,70.7,163.3,72.7,163.3z"/>
			<ellipse clip-path="url(#SVGID_9_)" fill="#070906" cx="115.4" cy="160.1" rx="3.5" ry="3.2"/>
			
				<ellipse transform="matrix(-0.7073 0.707 -0.707 -0.7073 237.219 191.66)" clip-path="url(#SVGID_9_)" fill="#070906" cx="78.9" cy="144.9" rx="3.2" ry="3.5"/>
			
				<ellipse transform="matrix(-0.707 0.7072 -0.7072 -0.707 310.2035 221.8324)" clip-path="url(#SVGID_9_)" fill="#070906" cx="109.2" cy="175.2" rx="3.2" ry="3.5"/>
			
				<ellipse transform="matrix(0.707 0.7072 -0.7072 0.707 146.9996 -4.4973)" clip-path="url(#SVGID_9_)" fill="#070906" cx="78.9" cy="175.2" rx="3.2" ry="3.5"/>
			
				<ellipse transform="matrix(0.7073 0.707 -0.707 0.7073 134.4215 -34.7347)" clip-path="url(#SVGID_9_)" fill="#070906" cx="109.2" cy="144.9" rx="3.2" ry="3.5"/>
			
				<ellipse transform="matrix(-0.9225 0.3859 -0.3859 -0.9225 219.0994 236.6983)" clip-path="url(#SVGID_9_)" fill="#070906" cx="85.8" cy="140.3" rx="3.2" ry="3.5"/>
			<path clip-path="url(#SVGID_9_)" fill="#070906" d="M99.3,181c0.7,1.8,2.7,2.7,4.3,2c1.6-0.7,2.3-2.7,1.6-4.5
				c-0.7-1.8-2.7-2.7-4.3-2C99.3,177.2,98.6,179.2,99.3,181z"/>
			
				<ellipse transform="matrix(0.3861 0.9225 -0.9225 0.3861 200.8816 34.7641)" clip-path="url(#SVGID_9_)" fill="#070906" cx="74.3" cy="168.3" rx="3.2" ry="3.5"/>
			
				<ellipse transform="matrix(0.386 0.9225 -0.9225 0.386 209.8858 -11.7305)" clip-path="url(#SVGID_9_)" fill="#070906" cx="113.8" cy="151.8" rx="3.2" ry="3.5"/>
			
				<ellipse transform="matrix(-0.3795 0.9252 -0.9252 -0.3795 243.0303 140.8961)" clip-path="url(#SVGID_9_)" fill="#070906" cx="74.3" cy="151.9" rx="3.2" ry="3.5"/>
			<path clip-path="url(#SVGID_9_)" fill="#070906" d="M112.6,171.1c1.8,0.7,3.8,0,4.5-1.6c0.7-1.6-0.2-3.6-2-4.3
				c-1.8-0.7-3.8,0-4.5,1.6C109.9,168.5,110.8,170.4,112.6,171.1z"/>
			
				<ellipse transform="matrix(0.9253 0.3792 -0.3792 0.9253 74.6093 -19.154)" clip-path="url(#SVGID_9_)" fill="#070906" cx="85.9" cy="179.8" rx="3.2" ry="3.5"/>
			<path clip-path="url(#SVGID_9_)" fill="#070906" d="M105.1,141.5c0.7-1.8,0-3.8-1.6-4.5c-1.6-0.7-3.6,0.2-4.3,2
				c-0.7,1.8,0,3.8,1.6,4.5C102.5,144.2,104.4,143.3,105.1,141.5z"/>
		</g>
		<circle fill="#5E5F5F" cx="94.2" cy="159.9" r="1.3"/>
		<circle fill="#5E5F5F" cx="99.5" cy="152.3" r="1.2"/>
		<circle fill="#5E5F5F" cx="88.1" cy="153" r="1.2"/>
		<circle fill="#5E5F5F" cx="85.4" cy="163.6" r="1.2"/>
		<circle fill="#5E5F5F" cx="94.7" cy="168.9" r="1.2"/>
		<circle fill="#5E5F5F" cx="102.9" cy="162" r="1.2"/>
	</g>
	<g>
		<circle fill="#666766" cx="346.1" cy="160" r="45"/>
		
			<radialGradient id="SVGID_10_" cx="56.7475" cy="159.9923" r="33.0994" gradientTransform="matrix(-1 0 0 1 402.8383 0)" gradientUnits="userSpaceOnUse">
			<stop  offset="0.4631" style="stop-color:#070906"/>
			<stop  offset="0.9549" style="stop-color:#666766"/>
		</radialGradient>
		<circle fill="url(#SVGID_10_)" cx="346.1" cy="160" r="33.1"/>
		<circle fill="#20211E" cx="346.1" cy="160" r="26.1"/>
		
			<radialGradient id="SVGID_11_" cx="56.7482" cy="159.9923" r="21.3761" gradientTransform="matrix(-1 0 0 1 402.8383 0)" gradientUnits="userSpaceOnUse">
			<stop  offset="0.7295" style="stop-color:#666766"/>
			<stop  offset="0.8975" style="stop-color:#B3B6B3"/>
		</radialGradient>
		<circle fill="url(#SVGID_11_)" cx="346.1" cy="160" r="21.4"/>
		<circle fill="#2C352D" cx="346.1" cy="160" r="14.9"/>
		<path fill="#0A100B" d="M338.8,160c0-4,3.2-7.2,7.2-7.2c4,0,7.2,3.2,7.2,7.2c0,4-3.2,7.2-7.2,7.2C342.1,167.2,338.8,164,338.8,160
			z M340.1,160c0,3.3,2.7,6,6,6c3.3,0,6-2.7,6-6c0-3.3-2.7-6-6-6C342.8,154,340.1,156.7,340.1,160z"/>
		<path fill="#343434" d="M352.3,122.4c-1.4-0.2-2.9-0.4-4.3-0.5l0.7-6.9c1.3,0.1,2.6,0.2,3.9,0.4L352.3,122.4z"/>
		<path fill="#343434" d="M343.5,115.1l0.7,6.9c-1.5,0.1-2.9,0.2-4.4,0.5l-0.5-6.9C340.7,115.3,342.1,115.2,343.5,115.1z"/>
		<path fill="#343434" d="M333.8,116.7l2.3,6.5c-1.4,0.4-2.7,0.8-4,1.3l-2.4-6.5C331,117.6,332.4,117.1,333.8,116.7z"/>
		<path fill="#343434" d="M325.3,120.1l3.5,6c-1.4,0.7-2.7,1.5-3.9,2.3l-3.4-6C322.7,121.5,324,120.8,325.3,120.1z"/>
		<path fill="#343434" d="M317.8,125.1l4.5,5.2c-1.1,0.9-2.2,1.9-3.3,2.9l-4.6-5.2C315.5,127,316.6,126,317.8,125.1z"/>
		<path fill="#343434" d="M316.6,135.9c-0.9,1.1-1.8,2.3-2.6,3.6l-5.3-4.5c0.8-1.2,1.7-2.4,2.6-3.5
			C312.6,132.6,315.4,134.9,316.6,135.9z"/>
		<path fill="#343434" d="M304.3,143.3c0.5-1.3,1.1-2.6,1.8-3.9l6.2,2.9c-0.7,1.3-1.3,2.6-1.8,4L304.3,143.3z"/>
		<path fill="#343434" d="M301.8,152.4c0.3-1.5,0.6-3.1,1-4.6l6.7,1.8c-0.3,1.2-0.6,2.4-0.8,3.6L301.8,152.4z"/>
		<path fill="#343434" d="M301.2,157l6.9,0.1c-0.1,0.9-0.1,1.9-0.1,2.8c0,0.4,0,0.7,0,1.1l-6.9,0.5c0-0.5,0-1.1,0-1.6
			C301.1,159,301.2,158,301.2,157z"/>
		<path fill="#343434" d="M308.4,165.2c0.2,1.3,0.4,2.6,0.7,3.8l-6.7,1.7c-0.3-1.4-0.6-2.8-0.8-4.3L308.4,165.2z"/>
		<path fill="#343434" d="M310.4,173.2c0.4,1.2,0.9,2.4,1.5,3.5l-6.2,3c-0.6-1.3-1.2-2.6-1.7-3.9L310.4,173.2z"/>
		<path fill="#343434" d="M310.4,187.3c-0.8-1.1-1.6-2.2-2.4-3.4l5.7-3.9c0.7,1.1,1.5,2.2,2.3,3.3L310.4,187.3z"/>
		<path fill="#343434" d="M313.7,191.2l4.9-4.8c0.9,0.9,1.8,1.8,2.7,2.6l-4.8,4.9C315.6,193,314.6,192.1,313.7,191.2z"/>
		<path fill="#343434" d="M324.8,191.5c1,0.7,2.1,1.3,3.1,1.9l-3.7,5.9c-1.3-0.7-2.5-1.5-3.7-2.3
			C321.7,195.5,323.9,192.6,324.8,191.5z"/>
		<path fill="#343434" d="M331.6,195.2c1.2,0.5,2.4,0.9,3.6,1.3l-2.1,6.6c-1.5-0.5-3-1-4.5-1.6L331.6,195.2z"/>
		<path fill="#343434" d="M339.2,197.4c1.2,0.2,2.4,0.4,3.6,0.5l-0.2,6.9c-1.6-0.1-3.2-0.3-4.7-0.6L339.2,197.4z"/>
		<path fill="#343434" d="M351.3,204.7c-1.3,0.2-2.7,0.3-4.1,0.3L347,198c1.3,0,2.6-0.1,3.9-0.3L351.3,204.7z"/>
		<path fill="#343434" d="M355.8,196.8c0.3-0.1,0.6-0.2,0.9-0.3c0,0,0,0,0,0c0.3-0.1,0.6-0.2,0.9-0.3c0,0,0,0,0,0
			c0.3-0.1,0.6-0.2,0.9-0.3l2.4,6.5c-1.5,0.5-3,1-4.5,1.3l-1.7-6.7C355.2,197,355.5,196.9,355.8,196.8
			C355.8,196.8,355.8,196.8,355.8,196.8z"/>
		<path fill="#343434" d="M369.1,198.6c-1.2,0.7-2.5,1.4-3.9,2.1l-3.4-6c1.4-0.6,2.7-1.3,3.9-2.1L369.1,198.6z"/>
		<path fill="#343434" d="M376.5,193.1c-1,0.9-2.1,1.8-3.1,2.6l-4.4-5.3c1.1-0.8,2.1-1.7,3.1-2.6L376.5,193.1z"/>
		<path fill="#343434" d="M380,189.6l-5.2-4.5c0.9-1,1.7-2,2.5-3.1l5.4,4.3C381.8,187.4,380.9,188.5,380,189.6z"/>
		<path fill="#343434" d="M387.3,178c-0.6,1.4-1.3,2.7-2,4l-6-3.3c0.7-1.2,1.3-2.5,1.9-3.8L387.3,178z"/>
		<path fill="#343434" d="M390.1,169.1c-0.3,1.4-0.6,2.8-1.1,4.1l-6.6-2.2c0.4-1.2,0.7-2.5,0.9-3.7L390.1,169.1z"/>
		<path fill="#343434" d="M390.9,164l-6.9-0.6c0.1-1.1,0.1-2.2,0.1-3.4c0-0.2,0-0.5,0-0.7l6.9,0.2c0,0.2,0,0.3,0,0.5
			C391.1,161.3,391,162.7,390.9,164z"/>
		<path fill="#343434" d="M383.9,155.4c-0.2-1.3-0.4-2.6-0.7-3.8l6.8-1.4c0.3,1.5,0.6,3,0.8,4.5L383.9,155.4z"/>
		<path fill="#343434" d="M381.9,147.1c-0.5-1.3-1-2.6-1.6-3.8l6.3-2.8c0.6,1.3,1.2,2.7,1.7,4.1L381.9,147.1z"/>
		<path fill="#343434" d="M383.9,135.7l-5.8,3.8c-0.8-1.2-1.6-2.3-2.5-3.4l5.8-3.8C382.3,133.3,383.1,134.5,383.9,135.7z"/>
		<path fill="#343434" d="M372.8,132.9c-1-1-2-1.9-3.1-2.8l4.8-5c1.2,1,2.3,2,3.4,3L372.8,132.9z"/>
		<path fill="#343434" d="M366.3,127.7c-1-0.6-2-1.2-3-1.7l3.1-6.1c1.4,0.7,2.7,1.4,4,2.3L366.3,127.7z"/>
		<path fill="#343434" d="M359.4,124.3c-1.3-0.5-2.6-0.9-4-1.3l2.4-6.5c1.6,0.4,3.2,0.9,4.7,1.6L359.4,124.3z"/>
		<g>
			<defs>
				<circle id="SVGID_12_" cx="346.1" cy="160" r="21.4"/>
			</defs>
			<clipPath id="SVGID_13_">
				<use xlink:href="#SVGID_12_"  overflow="visible"/>
			</clipPath>
			<ellipse clip-path="url(#SVGID_13_)" fill="#070906" cx="346" cy="138.7" rx="3.2" ry="3.5"/>
			<ellipse clip-path="url(#SVGID_13_)" fill="#070906" cx="346" cy="181.4" rx="3.2" ry="3.5"/>
			<ellipse clip-path="url(#SVGID_13_)" fill="#070906" cx="324.6" cy="160.1" rx="3.5" ry="3.2"/>
			<ellipse clip-path="url(#SVGID_13_)" fill="#070906" cx="367.4" cy="160.1" rx="3.5" ry="3.2"/>
			
				<ellipse transform="matrix(-0.7073 0.707 -0.707 -0.7073 667.3934 13.5274)" clip-path="url(#SVGID_13_)" fill="#070906" cx="330.9" cy="144.9" rx="3.2" ry="3.5"/>
			
				<ellipse transform="matrix(-0.707 0.7072 -0.7072 -0.707 740.3173 43.6246)" clip-path="url(#SVGID_13_)" fill="#070906" cx="361.1" cy="175.2" rx="3.2" ry="3.5"/>
			
				<ellipse transform="matrix(0.707 0.7072 -0.7072 0.707 220.8208 -182.6847)" clip-path="url(#SVGID_13_)" fill="#070906" cx="330.9" cy="175.2" rx="3.2" ry="3.5"/>
			
				<ellipse transform="matrix(0.7072 0.707 -0.707 0.7072 208.2021 -212.8731)" clip-path="url(#SVGID_13_)" fill="#070906" cx="361.1" cy="144.9" rx="3.2" ry="3.5"/>
			
				<ellipse transform="matrix(-0.9226 0.3858 -0.3858 -0.9226 703.5153 139.4952)" clip-path="url(#SVGID_13_)" fill="#070906" cx="337.8" cy="140.3" rx="3.2" ry="3.5"/>
			
				<ellipse transform="matrix(-0.9226 0.3858 -0.3858 -0.9226 750.4446 208.9423)" clip-path="url(#SVGID_13_)" fill="#070906" cx="354.3" cy="179.8" rx="3.2" ry="3.5"/>
			
				<ellipse transform="matrix(0.386 0.9225 -0.9225 0.386 355.6183 -197.6629)" clip-path="url(#SVGID_13_)" fill="#070906" cx="326.3" cy="168.3" rx="3.2" ry="3.5"/>
			
				<ellipse transform="matrix(0.3858 0.9226 -0.9226 0.3858 364.6693 -244.1702)" clip-path="url(#SVGID_13_)" fill="#070906" cx="365.7" cy="151.8" rx="3.2" ry="3.5"/>
			
				<ellipse transform="matrix(-0.3793 0.9253 -0.9253 -0.3793 590.5587 -92.284)" clip-path="url(#SVGID_13_)" fill="#070906" cx="326.2" cy="151.9" rx="3.2" ry="3.5"/>
			<path clip-path="url(#SVGID_13_)" fill="#070906" d="M364.6,171.1c1.8,0.7,3.8,0,4.5-1.6c0.7-1.6-0.2-3.6-2-4.3
				c-1.8-0.7-3.8,0-4.5,1.6C361.9,168.5,362.8,170.4,364.6,171.1z"/>
			
				<ellipse transform="matrix(0.9253 0.3792 -0.3792 0.9253 93.4203 -114.694)" clip-path="url(#SVGID_13_)" fill="#070906" cx="337.9" cy="179.8" rx="3.2" ry="3.5"/>
			
				<ellipse transform="matrix(0.9252 0.3795 -0.3795 0.9252 79.7176 -123.8825)" clip-path="url(#SVGID_13_)" fill="#070906" cx="354.1" cy="140.3" rx="3.2" ry="3.5"/>
		</g>
		<circle fill="#5E5F5F" cx="346.2" cy="159.9" r="1.3"/>
		<circle fill="#5E5F5F" cx="351.5" cy="152.3" r="1.2"/>
		<circle fill="#5E5F5F" cx="340" cy="153" r="1.2"/>
		<circle fill="#5E5F5F" cx="337.4" cy="163.6" r="1.2"/>
		<circle fill="#5E5F5F" cx="346.7" cy="168.9" r="1.2"/>
		<circle fill="#5E5F5F" cx="354.9" cy="162" r="1.2"/>
	</g>
	<path fill="#2E2F2D" d="M395.4,123c2.6,1,3.3,3.7,3.3,3.7s-1.6-2-3.9-2.6c-2.3-0.6-4.7,0.5-4.7,0.5S391.9,121.6,395.4,123z"/>
	<path fill="#1F291F" d="M346.4,90.1c0,0-0.9-5.5,4.6-9.1c5.5-3.6,10-4.4,10-4.4v13.5L346.4,90.1z"/>
	<rect x="360.9" y="76.6" fill="#445540" width="3.9" height="13.5"/>
	<path fill="#F8FAFA" d="M364.8,77.4c0,0,2.2,3.1,3.3,7.9c0.6,2.9,0.4,4.7,0.4,4.7h-3.7L364.8,77.4z"/>
	<rect x="143.6" y="149.3" fill="#717272" width="126.7" height="1.1"/>
	<path fill="#445540" d="M24.9,73.6l23.3-0.7c0,0,33.7-0.2,45.5-0.2c11.8,0,26.5,0.4,29.6,0.4c3.1,0,11.4,1.2,16.6,7.4
		c5.2,6.2,27.9,32.7,33.7,40.1c5.8,7.4,21.1,15.3,27.5,15.7c6.4,0.4,19.5,0.1,19.5,0.1l6.1-0.7l0,3.8l-5.7,0.6l-0.3,0
		c-0.1,0-5.2,0.1-10.6,0.1c-4,0-7.1-0.1-9.2-0.2c-7.6-0.5-23.9-9.1-30.2-17.2c-4-5.1-16.1-19.3-24.9-29.7c-3.8-4.5-7.1-8.4-8.7-10.3
		c-4-4.8-10.7-6.1-13.7-6.1c-1.1,0-3.4,0-6.7-0.1c-6-0.1-15.2-0.3-22.9-0.3c-11.6,0-45.2,0.2-45.5,0.2l-0.2,0l-1.7-0.2L25,77.3
		L24.9,73.6z"/>
	<g>
		<path fill="#1F291F" d="M25.3,77.3l22.9-0.7c0.3,0,33.8-0.2,45.5-0.2c7.8,0,16.9,0.2,22.9,0.3c3.2,0.1,5.6,0.1,6.7,0.1
			c3,0,9.7,1.3,13.7,6.1c1.6,1.9,4.9,5.8,8.7,10.3c8.8,10.4,20.9,24.6,24.9,29.7c6.3,8.1,22.6,16.7,30.2,17.2
			c2.2,0.1,5.3,0.2,9.2,0.2c5.4,0,10.6-0.1,10.6-0.1l0.3,0l5.3-0.6v0.6l-5.3,0.6l-0.4,0c-0.5,0-5.5,0.1-10.6,0.1
			c-4,0-7.1-0.1-9.3-0.2c-7.7-0.5-24.3-9.2-30.7-17.4c-4-5.1-16.1-19.3-24.9-29.7l-0.1-0.1c-3.8-4.5-7.1-8.3-8.6-10.2
			c-3.9-4.7-10.3-5.9-13.2-5.9c-1.1,0-3.4,0-6.6-0.1l0,0c-6-0.1-15.1-0.3-22.9-0.3c-11.4,0-44.1,0.2-45.5,0.2l0.2,0.4l-23,1.3
			L25.3,77.3z"/>
	</g>
	<polygon fill="#3D4E3A" points="226.7,149.8 230.3,149.8 230.3,73.5 226.7,71.8 	"/>
	<polygon fill="#1F291F" points="269.7,90.8 295.7,90.8 295.7,90 269.8,90 227.1,71.7 226.8,72.5 	"/>
	<rect x="229.9" y="73.5" fill="#1F291F" width="0.8" height="76.2"/>
	<rect x="226.3" y="60.3" fill="#1F291F" width="0.8" height="89.4"/>
	
		<linearGradient id="SVGID_14_" gradientUnits="userSpaceOnUse" x1="257.5004" y1="94.0865" x2="329.5072" y2="94.0865" gradientTransform="matrix(-1 0 0 1 402.8383 0)">
		<stop  offset="0" style="stop-color:#996544"/>
		<stop  offset="1" style="stop-color:#613F24"/>
	</linearGradient>
	<path fill="url(#SVGID_14_)" d="M73.3,93c0,0,64.4,0,68,0c3.6,0,4,2.1,4,2.1s-0.9-0.9-4.8-0.9c-3.9,0-65.7,0-65.7,0L73.3,93z"/>
	
		<linearGradient id="SVGID_15_" gradientUnits="userSpaceOnUse" x1="329.7474" y1="94.297" x2="361.4418" y2="94.297" gradientTransform="matrix(-1 0 0 1 402.8383 0)">
		<stop  offset="0" style="stop-color:#3C3732"/>
		<stop  offset="1" style="stop-color:#24211D"/>
	</linearGradient>
	<path fill="url(#SVGID_15_)" d="M68.4,92.9c0,0-18.1-0.3-20.5-0.4c-5.1-0.1-5.7,1-6.2,1.9c-0.6,1.1,0.6,1.7,0.6,1.7
		s0.6-1.1,3.1-1.3l27.8,0C71.3,93.4,68.4,92.9,68.4,92.9z"/>
	<rect x="51.5" y="92.2" fill="#080906" width="5.6" height="6"/>
	
		<linearGradient id="SVGID_16_" gradientUnits="userSpaceOnUse" x1="354.849" y1="88.3066" x2="387.812" y2="88.3066" gradientTransform="matrix(-1 0 0 1 402.8383 0)">
		<stop  offset="0" style="stop-color:#3C3732"/>
		<stop  offset="1" style="stop-color:#171512"/>
	</linearGradient>
	<path fill="url(#SVGID_16_)" d="M48,82.5c0,0-10.2-2.4-21.7,0.8c-9.7,2.8-11.2,11-11.2,11L39.9,95c0,0,0.9-2.9,5.3-3.4
		c1.5-0.2,1.5,0,1.5,0L48,82.5z"/>
	<polygon fill="#20211E" points="219.5,24.9 228.5,55 226,55.4 217.4,25.3 	"/>
	<g>
		<circle fill="#2E3B2D" cx="227.9" cy="57.5" r="3.2"/>
		<path fill="#1F291F" d="M224.3,57.5c0-2,1.6-3.6,3.6-3.6s3.6,1.6,3.6,3.6c0,2-1.6,3.6-3.6,3.6S224.3,59.5,224.3,57.5z M225.1,57.5
			c0,1.5,1.3,2.8,2.8,2.8c1.5,0,2.8-1.3,2.8-2.8c0-1.5-1.3-2.8-2.8-2.8C226.4,54.7,225.1,56,225.1,57.5z"/>
	</g>
	<g>
		<circle fill="#445540" cx="227.9" cy="57.5" r="1.7"/>
		<path fill="#1F291F" d="M225.8,57.5c0-1.1,0.9-2.1,2.1-2.1c1.1,0,2.1,0.9,2.1,2.1c0,1.1-0.9,2.1-2.1,2.1
			C226.8,59.6,225.8,58.7,225.8,57.5z M226.7,57.5c0,0.7,0.6,1.2,1.2,1.2c0.7,0,1.2-0.6,1.2-1.2c0-0.7-0.6-1.2-1.2-1.2
			C227.2,56.3,226.7,56.9,226.7,57.5z"/>
	</g>
	<path fill="#382120" d="M208.9,129.5c0,0,5.1-16.3,5.6-18.4c0.5-2.1,2.2-2.4,2.2-2.4s0.9-0.9,2.2,2.5c1.2,3.4,0.6,8.8,1.2,10.1
		c0.6,1.3,1,2.2,1,2.2L208.9,129.5z"/>
	<path fill="#2E3B2D" d="M353,80.5c2.9-1.8,7.2-2.8,7.2-2.8s0.1,5.4-0.2,7.6c-0.3,2.1-2.2,3.2-4.6,3.1c-4.8-0.3-6.6-1.4-6.7-2.3
		C348.6,85.2,348.3,83.5,353,80.5z"/>
	
		<linearGradient id="SVGID_17_" gradientUnits="userSpaceOnUse" x1="43.6591" y1="81.856" x2="51.6504" y2="81.856" gradientTransform="matrix(-1 0 0 1 402.8383 0)">
		<stop  offset="0" style="stop-color:#5B7458"/>
		<stop  offset="1" style="stop-color:#344233"/>
	</linearGradient>
	<path fill="url(#SVGID_17_)" d="M351.4,82.4c0.5-0.4,1.4-1.2,3.1-2.2c2.1-1.2,4.6-2,4.6-2s0.5,4.2-0.3,5.7
		c-0.8,1.6-3.6,1.6-5.3,1.2C350.3,84.6,351.3,82.5,351.4,82.4z"/>
	
		<linearGradient id="SVGID_18_" gradientUnits="userSpaceOnUse" x1="40.0949" y1="77.2442" x2="40.0949" y2="85.1065" gradientTransform="matrix(-1 0 0 1 402.8383 0)">
		<stop  offset="0" style="stop-color:#678365"/>
		<stop  offset="1" style="stop-color:#445540"/>
	</linearGradient>
	<rect x="361.1" y="77.2" fill="url(#SVGID_18_)" width="3.2" height="7.9"/>
	<path fill="#2E3B2D" d="M364.8,86.5v3.7c0,0-3.8,0-3.8,0c0,0,0.1-4.4,0.1-4.4s0.5,2.8,1.4,3.2C364.5,89.8,364.8,86.5,364.8,86.5z"
		/>
	<path fill="#D6C388" d="M368.5,90h-3.7l0.1-12.6c0,0,0.7,1,1.5,2.8l0,0c0,0-1.3-0.3-1.1,4.7c0.1,1.6,1,4.1,2.2,3.6
		c0.8-0.3,0.8-1.6,0.8-2.6C368.7,88.4,368.5,90,368.5,90z"/>
	<g>
		<path fill="#445540" d="M17.7,119.3c0,0.8,0.7,1.5,1.5,1.5h22.1c0.8,0,1.5-0.7,1.5-1.5l0,0c0-0.8-0.7-1.5-1.5-1.5H19.2
			C18.4,117.8,17.7,118.5,17.7,119.3L17.7,119.3z"/>
		<path fill="#1F291F" d="M17.3,119.3c0-1.1,0.9-1.9,1.9-1.9h22.1c1.1,0,1.9,0.9,1.9,1.9c0,1.1-0.9,1.9-1.9,1.9H19.2
			C18.2,121.2,17.3,120.4,17.3,119.3z M19.2,118.2c-0.6,0-1.1,0.5-1.1,1.1c0,0.6,0.5,1.1,1.1,1.1h22.1c0.6,0,1.1-0.5,1.1-1.1
			c0-0.6-0.5-1.1-1.1-1.1H19.2z"/>
	</g>
	<path fill="#20211E" d="M129.3,29.9L107.4,57c0,0-1.3,1-2.1,0.1c-0.8-0.9-0.4-1.7-0.4-1.7l21.4-25.5H129.3z"/>
	<path fill="#20211E" d="M74.2,31.9l14.3,12.5c0,0,0.7,0.5,0.6,1.4c-0.1,0.9-1.4,0.6-1.4,0.6l-17-13.7L74.2,31.9z"/>
	<rect x="133.3" y="92.3" fill="#3E2917" width="4.6" height="5.7"/>
	<path fill="#787877" d="M21.5,86.3c0,0,0.1-0.1,0.3-0.2c1-0.5,4.5-2.4,9.4-3.3c5.8-1,9.8-0.3,9.8-0.3s-3.7,0-8.9,1.1
		C26.8,84.8,21.5,86.3,21.5,86.3z"/>
	<path fill="#787877" d="M67.8,93c-0.2,0.1-10.4-0.1-10.4-0.1l0.1,0.7L67.8,93z"/>
	<path fill="#787877" d="M51.1,92.7c0,0-5.6-0.2-7.2,0.3c-1.6,0.5-1.9,1.2-1.9,1.2s1.2-0.6,2.9-0.9C46.7,92.9,51.1,92.7,51.1,92.7z"
		/>
	
		<linearGradient id="SVGID_19_" gradientUnits="userSpaceOnUse" x1="52.9559" y1="81.8643" x2="132.3939" y2="81.8643" gradientTransform="matrix(-1 0 0 1 402.8383 0)">
		<stop  offset="0" style="stop-color:#5B7458"/>
		<stop  offset="1" style="stop-color:#344233"/>
	</linearGradient>
	<rect x="270.4" y="81.2" fill="url(#SVGID_19_)" width="79.4" height="1.2"/>
	
		<linearGradient id="SVGID_20_" gradientUnits="userSpaceOnUse" x1="108.4652" y1="91.5694" x2="133.2904" y2="91.5694" gradientTransform="matrix(-1 0 0 1 402.8383 0)">
		<stop  offset="0" style="stop-color:#5B7458"/>
		<stop  offset="1" style="stop-color:#344233"/>
	</linearGradient>
	<polygon fill="url(#SVGID_20_)" points="269.5,92.2 293.1,92.2 294.4,90.9 269.5,90.9 	"/>
	<path fill="#876955" d="M48.3,77.4l0-0.6c0,0-1.3-0.3-0.6-2.5c0.4-1.3,1-1.7,1-1.7l6.8-35.2c0,0,0.1-3.1,6.4-3.8
		c6.3-0.7,26.9-1.6,39.4-2.1c12.5-0.5,58.6-2.9,58.6-2.9l59.2-2.4c0,0,1,0.1,0.7-1.4c-0.3-1.4-2.8-8.8-2.8-8.8s-0.3-1.1-4.4-1.9
		c-4.1-0.8-60.3-12.1-60.3-12.1s-0.1-1.7-1.6-1.8C149.3,0,148.6,1,148.6,1s-27,0.9-46,1C83.6,2.2,37.8,1,37.8,1S36.6-0.6,35,0.3
		C33.4,1.2,33.7,4,33.7,4l-8.6,67.9c0,0-1,0.7-1,2.1c0.1,1.8,1,2.8,1,2.8L25,77.3L48.3,77.4z"/>
	<path fill="#A98168" d="M39.8,4.7c0,0,0.1,0.1,0.4,0.2c2.4,1.5,14.7,9.3,19.5,13c5.3,4.1,10.8,10.2,11.1,10.6
		c0.3,0.3-9.8-7.3-16.3-12.4C47.9,11,39.8,4.7,39.8,4.7z"/>
	<path fill="#A98168" d="M150.4,2.3c0,0-5.1,7.4-11.2,14.4c-6.1,6.9-10.4,10.3-10.4,10.3s8.5-13,11.9-17.3
		C144.1,5.5,150.4,2.3,150.4,2.3z"/>
	<path fill="#1F291F" d="M37.2,122v-5.3c0-2,1.6-3.7,3.7-3.7c2,0,3.7,1.6,3.7,3.7v5.3c0,2-1.6,3.7-3.7,3.7
		C38.9,125.7,37.2,124,37.2,122z M38.1,116.7v5.3c0,1.6,1.3,2.8,2.8,2.8c1.6,0,2.8-1.3,2.8-2.8v-5.3c0-1.6-1.3-2.8-2.8-2.8
		C39.3,113.9,38.1,115.1,38.1,116.7z"/>
	<path fill="#1F291F" d="M39.5,115.6c0-0.8,0.6-1.4,1.4-1.4c0.8,0,1.4,0.6,1.4,1.4c0,0.8-0.6,1.4-1.4,1.4
		C40.2,117,39.5,116.4,39.5,115.6z M40.4,115.6c0,0.3,0.3,0.6,0.6,0.6c0.3,0,0.6-0.3,0.6-0.6c0-0.3-0.3-0.6-0.6-0.6
		C40.6,115,40.4,115.3,40.4,115.6z"/>
	<path fill="#1F291F" d="M39.5,122.9c0-0.8,0.6-1.4,1.4-1.4c0.8,0,1.4,0.6,1.4,1.4c0,0.8-0.6,1.4-1.4,1.4
		C40.2,124.4,39.5,123.7,39.5,122.9z M40.4,122.9c0,0.3,0.3,0.6,0.6,0.6c0.3,0,0.6-0.3,0.6-0.6c0-0.3-0.3-0.6-0.6-0.6
		C40.6,122.3,40.4,122.6,40.4,122.9z"/>
	<g>
		<rect x="131" y="99.7" fill="#595A55" width="8.7" height="1.4"/>
		<path fill="#20211E" d="M130.8,99.5h9.1v1.9h-9.1V99.5z M139.5,99.9h-8.3v1h8.3V99.9z"/>
	</g>
	<g>
		<rect x="131.2" y="89.4" fill="#595A55" width="8.5" height="1.4"/>
		<path fill="#20211E" d="M131,89.2h8.9V91H131V89.2z M139.5,89.6h-8.1v1h8.1V89.6z"/>
	</g>
	<g>
		<rect x="49.8" y="99.7" fill="#595A55" width="8.7" height="1.4"/>
		<path fill="#20211E" d="M49.6,99.5h9.1v1.9h-9.1V99.5z M58.3,99.9H50v1h8.3V99.9z"/>
	</g>
	<g>
		<rect x="50" y="89.4" fill="#595A55" width="8.5" height="1.4"/>
		<path fill="#20211E" d="M49.8,89.2h8.9V91h-8.9V89.2z M58.3,89.6h-8.1v1h8.1V89.6z"/>
	</g>
	
		<linearGradient id="SVGID_21_" gradientUnits="userSpaceOnUse" x1="348.5058" y1="89.0704" x2="348.5058" y2="101.6895" gradientTransform="matrix(-1 0 0 1 402.8383 0)">
		<stop  offset="0.1025" style="stop-color:#11100D"/>
		<stop  offset="0.3852" style="stop-color:#363232"/>
		<stop  offset="0.7336" style="stop-color:#181613"/>
	</linearGradient>
	<rect x="52.6" y="89.1" fill="url(#SVGID_21_)" width="3.4" height="12.6"/>
	<g>
		
			<linearGradient id="SVGID_22_" gradientUnits="userSpaceOnUse" x1="280.1342" y1="88.2023" x2="327.1846" y2="88.2023" gradientTransform="matrix(-1 0 0 1 402.8383 0)">
			<stop  offset="0.1066" style="stop-color:#445540"/>
			<stop  offset="0.1967" style="stop-color:#242F22"/>
			<stop  offset="0.291" style="stop-color:#445540"/>
			<stop  offset="0.7049" style="stop-color:#445540"/>
			<stop  offset="0.7746" style="stop-color:#1E271D"/>
			<stop  offset="0.9754" style="stop-color:#445540"/>
		</linearGradient>
		<path fill="url(#SVGID_22_)" d="M112.8,87.3c0,0,3.9-1.2,5.5-1.2c1.6,0,4.4-0.5,4.4,2c0,2.5-3.1,2-4.4,1.9
			c-1.4-0.1-5.4-1.1-5.4-1.1H85.9c0,0-2.9,0.9-5.1,1.2c-2.3,0.3-4.4,0.3-5-1.3c-0.5-1.2,0.1-2.7,2-2.8c2.2-0.1,3.1,0.1,6,0.6
			c1.5,0.3,2.2,0.6,2.2,0.6L112.8,87.3z"/>
		<path fill="#20211E" d="M75.6,89c-0.3-0.7-0.2-1.5,0.2-2.1c0.3-0.4,0.9-1,2-1c2-0.1,2.9,0.1,5.2,0.5l0.8,0.2
			c1.3,0.2,2,0.5,2.2,0.6l26.7,0c0.4-0.1,4-1.2,5.5-1.2c0.2,0,0.4,0,0.7,0c0.3,0,0.6,0,0.8,0c1.4,0,3.1,0.3,3.1,2.3
			c0,1.5-1,2.2-2.9,2.2c-0.5,0-1,0-1.4-0.1c-0.1,0-0.3,0-0.4,0c-1.3-0.1-5.1-1-5.4-1.1H86c-0.3,0.1-3,0.9-5.1,1.2
			c-0.8,0.1-1.4,0.1-2,0.1C77.1,90.6,76,90,75.6,89z M112.9,88.8c0,0,4,1,5.4,1.1c0.1,0,0.3,0,0.4,0c0.4,0,0.9,0.1,1.3,0.1
			c1.7,0,2.5-0.6,2.5-1.8c0-1.3-0.8-1.9-2.7-1.9c-0.3,0-0.6,0-0.8,0c-0.2,0-0.5,0-0.7,0c-1.5,0-5.4,1.2-5.4,1.2l0,0l-26.9,0H86l0,0
			c0,0-0.7-0.4-2.1-0.6L83,86.8c-2.3-0.4-3.1-0.6-5.1-0.5c-0.8,0-1.4,0.3-1.7,0.8c-0.3,0.5-0.4,1.1-0.1,1.7c0.3,0.9,1.3,1.3,2.9,1.3
			c0.5,0,1.1,0,1.9-0.1c2.2-0.3,5.1-1.2,5.1-1.2L112.9,88.8L112.9,88.8z"/>
	</g>
	
		<linearGradient id="SVGID_23_" gradientUnits="userSpaceOnUse" x1="31.3026" y1="91.7423" x2="103.2938" y2="91.7423" gradientTransform="matrix(-1 0 0 1 402.8383 0)">
		<stop  offset="0.1066" style="stop-color:#5B7458"/>
		<stop  offset="0.9754" style="stop-color:#445540"/>
	</linearGradient>
	<polygon fill="url(#SVGID_23_)" points="299.5,90.6 371.5,90.4 371.5,92.6 300.6,93 	"/>
	
		<linearGradient id="SVGID_24_" gradientUnits="userSpaceOnUse" x1="275.3412" y1="98.9659" x2="341.6088" y2="98.9659" gradientTransform="matrix(-1 0 0 1 402.8383 0)">
		<stop  offset="0.1066" style="stop-color:#5B7458"/>
		<stop  offset="0.9754" style="stop-color:#445540"/>
	</linearGradient>
	<polygon fill="url(#SVGID_24_)" points="127.5,98.3 61.2,98.3 62.3,99.7 126.3,99.7 	"/>
	
		<linearGradient id="SVGID_25_" gradientUnits="userSpaceOnUse" x1="264.3085" y1="99.4473" x2="264.3085" y2="148.8214" gradientTransform="matrix(-1 0 0 1 402.8383 0)">
		<stop  offset="0.1066" style="stop-color:#5B7458"/>
		<stop  offset="0.9754" style="stop-color:#445540"/>
	</linearGradient>
	<polygon fill="url(#SVGID_25_)" points="148.9,148.8 128.9,99.4 128.1,100.7 147.1,148.7 	"/>
	<path fill="#48392F" d="M48.5,72.8c0,0-1.6,1-1.8,1.9c-0.2,0.8-0.4,0.3-7.7,0.8c-7.2,0.5-13-0.6-13.4-0.8c-0.4-0.3-0.8-2.3-1-2.3
		c-0.2,0-1.2,1.2-0.8,2.5c0.4,1.2,1.1,2.8,1.1,2.8l23.4,0l0.2-1.2c0,0-0.6-0.4-0.6-1.6C48,73.7,48.5,72.8,48.5,72.8z"/>
	<g>
		<circle fill="#595A55" cx="95.9" cy="52.3" r="1"/>
		<path fill="#20211E" d="M94.7,52.3c0-0.7,0.6-1.2,1.2-1.2c0.7,0,1.2,0.6,1.2,1.2c0,0.7-0.6,1.2-1.2,1.2
			C95.2,53.6,94.7,53,94.7,52.3z M95.1,52.3c0,0.5,0.4,0.8,0.8,0.8c0.5,0,0.8-0.4,0.8-0.8c0-0.5-0.4-0.8-0.8-0.8
			C95.5,51.5,95.1,51.9,95.1,52.3z"/>
	</g>
	<g>
		<circle fill="#595A55" cx="104.3" cy="58.8" r="1"/>
		<path fill="#20211E" d="M103.1,58.8c0-0.7,0.6-1.2,1.2-1.2c0.7,0,1.2,0.6,1.2,1.2c0,0.7-0.6,1.2-1.2,1.2
			C103.6,60.1,103.1,59.5,103.1,58.8z M103.5,58.8c0,0.5,0.4,0.8,0.8,0.8c0.5,0,0.8-0.4,0.8-0.8c0-0.5-0.4-0.8-0.8-0.8
			C103.9,58,103.5,58.4,103.5,58.8z"/>
	</g>
	<polygon fill="#171716" points="104.6,61.8 107.2,58.2 106.8,58 104.5,61.2 101.7,58.8 101.4,59.1 	"/>
	
		<rect x="95" y="53.2" transform="matrix(-0.6751 0.7377 -0.7377 -0.6751 202.3846 17.7313)" fill="#171716" width="4.6" height="0.4"/>
	
		<linearGradient id="SVGID_26_" gradientUnits="userSpaceOnUse" x1="267.2748" y1="89.0704" x2="267.2748" y2="101.6895" gradientTransform="matrix(-1 0 0 1 402.8383 0)">
		<stop  offset="0.1025" style="stop-color:#11100D"/>
		<stop  offset="0.3852" style="stop-color:#363232"/>
		<stop  offset="0.7336" style="stop-color:#181613"/>
	</linearGradient>
	<rect x="133.8" y="89.1" fill="url(#SVGID_26_)" width="3.4" height="12.6"/>
	
		<linearGradient id="SVGID_27_" gradientUnits="userSpaceOnUse" x1="187.6967" y1="15.7525" x2="272.2035" y2="15.7525" gradientTransform="matrix(-1 0 0 1 402.8383 0)">
		<stop  offset="6.967210e-002" style="stop-color:#876955"/>
		<stop  offset="0.8607" style="stop-color:#5F4B3C"/>
	</linearGradient>
	<path fill="url(#SVGID_27_)" d="M151.7,3l-21.1,25.5c0,0,48-3.6,49.8-3.8c1.8-0.2,34.8-2.6,34.8-2.6s-1.3-5.4-3.8-5.8
		C208.8,15.9,151.7,3,151.7,3z"/>
	
		<linearGradient id="SVGID_28_" gradientUnits="userSpaceOnUse" x1="255.6888" y1="15.8033" x2="363.5384" y2="15.8033" gradientTransform="matrix(-1 0 0 1 402.8383 0)">
		<stop  offset="6.967210e-002" style="stop-color:#876955"/>
		<stop  offset="0.9344" style="stop-color:#5F4B3C"/>
	</linearGradient>
	<polygon fill="url(#SVGID_28_)" points="147.1,3 125.9,27.5 75.7,29.9 39.3,1.7 	"/>
	
		<linearGradient id="SVGID_29_" gradientUnits="userSpaceOnUse" x1="355.506" y1="2.5743" x2="355.506" y2="77.6329" gradientTransform="matrix(-1 0 0 1 402.8383 0)">
		<stop  offset="6.967210e-002" style="stop-color:#876955"/>
		<stop  offset="0.9344" style="stop-color:#5F4B3C"/>
	</linearGradient>
	<path fill="url(#SVGID_29_)" d="M33.7,2.6l36.9,30.2c0,0,0,0.1-0.1,0.2c-3.7,0.2-6.7,0.4-8.6,0.6c-6.3,0.7-6.4,3.8-6.4,3.8
		l-6.8,35.2c0,0-1,0.9-1,2.2c0,0.7,0.7,2,0.7,2s0.1,0.9,0.1,0.9L25,77.3c0,0-1-1.9-0.9-3.5c0.1-1.6,1.1-1.9,1.1-1.9l8.6-68
		C33.7,4,33.6,3.4,33.7,2.6z"/>
	<path fill="#48392F" d="M46.3,72.3c-0.5,0-21.3-0.4-21.3-0.4l2.2-18.6c0,0,0.2,12.5,9.2,16.3C41.4,71.8,46.3,72.3,46.3,72.3z"/>
</g>
</svg>
