<?xml version="1.0" encoding="utf-8"?>
<!-- Generator: Adobe Illustrator 18.1.1, SVG Export Plug-In . SVG Version: 6.00 Build 0)  -->
<svg version="1.1" id="Layer_1" xmlns="http://www.w3.org/2000/svg" xmlns:xlink="http://www.w3.org/1999/xlink" x="0px" y="0px"
	 viewBox="0 0 431.7 170.8" enable-background="new 0 0 431.7 170.8" xml:space="preserve">
<polygon opacity="0.3" fill="#4888C8" enable-background="new    " points="292.3,40.8 293.3,54.3 123.5,54.3 123.5,11.1 
	265.3,11.1 "/>
<ellipse opacity="0.6" fill="#857C6F" enable-background="new    " cx="214.9" cy="151.6" rx="214.9" ry="19.2"/>
<g>
	<path fill="#0D2A4A" d="M306.1,124.2c0,0-1.7,2.3-5.4,4.4c-3.8,2.1-8.7,1.8-13.4,1.1c-4.7-0.8-15.1-0.9-27-0.8
		c-11.9,0.2-91-0.5-91-0.5l-2,2l-5.1-1.4l-0.5-0.9h-3.6l-0.2,1.2h-1.7v1.1h-3.2l-0.3-0.6c0,0-7.7-0.9-9.2-0.2
		c-1.5,0.8-7.5,0.2-7.5,0.2L76,126.9l-23.5-0.1c0,0-0.9-0.9-1.4-1.5c-0.5-0.6-0.5-0.6-0.5-0.6s-1.9,0.3-2.5-0.7
		c-0.6-1-0.6-4.3-0.6-4.3l-2.6-0.6l-6.6,1.1c0,0-1,3.8-5.5,4.7c-4.5,0.9-8.3-3.4-8.3-3.4s-2,0.3-3.5,0.5c-1.6,0.2-2.7-0.9-2.7-0.9
		l-4.8,0.6c0,0-0.5-0.8-0.5-1.2c0-0.5,0.9-0.3,0.9-0.3l4.1-1.3c0,0,0.2-0.8,2-1.3c1.8-0.5,3.2-0.7,3.2-0.7s-0.5-2,1.7-2.9
		c2.1-1,2.5-1,2.5-1s58.6-33.1,81.2-31.6c22.6,1.5,137.5,38.4,137.5,38.4L306.1,124.2z"/>
	<polygon fill="#0D2A4A" points="326.9,126.9 323.4,126.7 321.3,128.7 310.9,128.7 308.1,123.7 324.5,120.4 	"/>
	<path fill="#0D2A4A" d="M394.6,109v4.1c0,0,0.1,1-1.2,1.1c-1.3,0.1-3.3,0-3.3,0l-2.6-6.7L394.6,109z"/>
	<path fill="#181717" d="M401.8,112.7c0,0-2.7-0.9-9.9-2.1c-7.2-1.2-42.8,0-47.9,1.7c-5.1,1.7-14.6,9.2-16.3,10.5
		c-1.7,1.4-8,0.5-8,0.5s-17-37.5,14.6-47.2c31.6-9.6,60.7,16.6,60.7,17C395,93.6,401.8,112.7,401.8,112.7z"/>
	<g>
		<circle fill="#333232" cx="358" cy="118.4" r="33.6"/>
		
			<radialGradient id="SVGID_1_" cx="73.6584" cy="118.3531" r="21.1687" gradientTransform="matrix(-1 0 0 1 431.6861 0)" gradientUnits="userSpaceOnUse">
			<stop  offset="0.2395" style="stop-color:#A9A89E"/>
			<stop  offset="0.6807" style="stop-color:#95948B"/>
			<stop  offset="1" style="stop-color:#E6E6E4"/>
		</radialGradient>
		<circle fill="url(#SVGID_1_)" cx="358" cy="118.4" r="21.2"/>
		<circle fill="#6C7479" cx="358" cy="118.4" r="16.1"/>
		<path fill="#DBD8DB" d="M357.7,117.8c0,0-1.5-5-3.6-8.6c-1.4-2.4-2.6-3.9-4.7-3.1c-3.6,1.4-3.6,4.9-1.4,6.5
			C350.4,114.3,357.7,117.8,357.7,117.8z"/>
		<path fill="#5A6165" d="M358.4,118.5c0,0,13.4,3.3,11.4,8.2c-2,4.9-9,7.1-12.1,5.6c-2.6-1.2-3.2-2.5-2.1-6.6
			C356.5,122.4,358.4,118.5,358.4,118.5z"/>
		<path fill="#FFFFFF" d="M348.8,108.1c0,0,0.8-1.3,2.1-0.5c1.3,0.8,3.3,5.6,3.3,5.6s-3.4-2-4.5-2.8
			C348.6,109.7,348.8,108.1,348.8,108.1z"/>
		<path fill="#3E4344" d="M358.6,118.4c0,0,13.7-1.8,13.6,3.5c-0.1,5.3-5.8,9.9-9.2,9.6c-2.9-0.2-3.9-1.2-4.3-5.4
			C358.2,122.7,358.6,118.4,358.6,118.4z"/>
		<path fill="#49484A" d="M370.7,88.3c0,0-12.4-4.4-24.7,0.3c-12.3,4.7-17.2,13.6-19.2,22.1c-1.8,7.8-0.3,11.2-0.3,11.2
			s1.3-9.5,7.1-18.9C339.9,92.5,357.7,86.2,370.7,88.3z"/>
	</g>
	<g>
		<circle fill="#333232" cx="105.9" cy="118.4" r="33.6"/>
		<path fill="#222221" d="M74.7,105.7c5-12.3,17.1-21,31.2-21c12.6,0,23.5,6.9,29.3,17.1c-2.7-3.1-11.1-10.9-26.4-10.5
			c-19.1,0.6-33.1,13.4-33.7,14C74.9,105.5,74.8,105.6,74.7,105.7z"/>
		
			<radialGradient id="SVGID_2_" cx="325.8322" cy="118.3531" r="21.1687" gradientTransform="matrix(-1 0 0 1 431.6861 0)" gradientUnits="userSpaceOnUse">
			<stop  offset="0.2395" style="stop-color:#A9A89E"/>
			<stop  offset="0.6807" style="stop-color:#95948B"/>
			<stop  offset="1" style="stop-color:#E6E6E4"/>
		</radialGradient>
		<circle fill="url(#SVGID_2_)" cx="105.9" cy="118.4" r="21.2"/>
		<circle fill="#6C7479" cx="105.9" cy="118.4" r="16.1"/>
		<path fill="#DBD8DB" d="M105.6,117.8c0,0-1.5-5-3.6-8.6c-1.4-2.4-2.6-3.9-4.7-3.1c-3.6,1.4-3.6,4.9-1.4,6.5
			C98.2,114.3,105.6,117.8,105.6,117.8z"/>
		<path fill="#5A6165" d="M106.2,118.5c0,0,13.4,3.3,11.4,8.2c-2,4.9-9,7.1-12.1,5.6c-2.6-1.2-3.2-2.5-2.1-6.6
			C104.3,122.4,106.2,118.5,106.2,118.5z"/>
		<path fill="#FFFFFF" d="M96.6,108.1c0,0,0.8-1.3,2.1-0.5c1.3,0.8,3.3,5.6,3.3,5.6s-3.4-2-4.5-2.8
			C96.4,109.7,96.6,108.1,96.6,108.1z"/>
		<path fill="#3E4344" d="M106.4,118.4c0,0,13.7-1.8,13.6,3.5c-0.1,5.3-5.8,9.9-9.2,9.6c-2.9-0.2-3.9-1.2-4.3-5.4
			C106,122.7,106.4,118.4,106.4,118.4z"/>
	</g>
	<path fill="#184478" d="M11.7,78c0.1,1.7,1.2,4.2,2,5.3c0.8,1.1,2.1,1.7,2.1,1.7s0,3.5-0.4,4.6c-0.4,1.1-1.5,1.2-1.5,2
		c0,0.8,0,13,0,13s-0.6,4.7,2.8,6.6c3.4,1.8,13.8,6.5,27.3,7.8c13.5,1.4,24.9,2.6,25.7,1.4c0.8-1.3,1-3.5,1.1-5.3
		c0.1-1.8,5.8-17.5,10.5-21.4c4.7-3.8,8-5.8,13.8-6c5.7-0.2,21.4-0.2,24.3,0c2.9,0.2,12.6,6,16.4,12.3c3.8,6.2,4.9,13.3,5.2,17.1
		c0.3,3.8,0.3,6.3,2.3,7.5c2,1.2,7.3,0.7,11.2,0.7c3.9,0,159.4,0.5,159.4,0.5s4.8,0.8,5.8-1.2c1-2,1.2-4.2,1.3-6.3
		c0.1-2.1,1.7-16.6,8.4-25c6.7-8.4,11.9-10.3,18.2-10.8c6.3-0.5,20.4-0.8,27.2,1.4c6.8,2.2,10.7,8.1,11.9,9.3
		c1.1,1.2,4.8,9.7,7.7,13.4c2.9,3.6,6.2,5.8,6.2,5.8l0-0.4c0.6,0.5,1.2,1,1.8,1.3c1.8,1,3.4,1.4,6.4,1.3c1.6-0.1,8.1-6.2,8.1-6.2
		l1.9-7.7c0,0,0.2-29.4-0.4-37c-0.3-3.8-2.2-7-5-9.6c-1.8-2.1-5.2-4.9-11.7-6.7c-11.4-3.2-34.3-4.1-49.7-4.8
		c-15.4-0.8-57.7-1.8-57.7-1.8l-1.8,0.2l-26.4-29.7L265,9.7c0,0-3.3-4.8-18.7-7.4c-15.4-2.6-48.4-3.2-70.4-0.9
		c-22,2.3-32.5,2.9-55.7,9.3c-23.2,6.5-26.8,8.4-26.8,8.4l-2.6,1.4c0,0-25.6,12.6-25.9,12.7c-0.3,0.2-2.4,1.4-2.4,1.4
		s-14.8,9-25.5,18.2c-10.7,9.2-10,9.8-10,9.8s-3.2-0.3-4.7-0.3c-1.4,0-3.6-0.5-3.5,2c0.1,2.4,0,9.3,0,9.3s0.2,0.8-0.5,0.8
		c-0.7,0-6.3,0.1-6.3,0.1S11.6,76.3,11.7,78z M277.2,38c0-0.3-14.1-17.1-15.5-18.5c-1.4-1.4-3-3.8-2.1-5c0.9-1.2,6.1-3.9,6.1-3.9
		l24.5,28.3c0,0-3.2,1.9-5.2,3.1c-2,1.2-3.2,0.6-3.7,0.5C280.8,42.4,277.2,38.3,277.2,38z M208.6,41.4c0,0,0.1-12.9,0.1-16.7
		s-0.1-3.1,1-5.3c1.1-2.3,5-2,7.2-2c2.3,0,14.2,0.2,22.1,1.1c8,1,12.3,3.7,12.3,3.7c1.4,1,2.6,2.2,3.7,3.9
		c1.1,1.7,10.5,12.3,11.6,13.7c1.1,1.4,1.6,3.9,1.1,5.1c-0.5,1.2-1.4,2.2-2.9,2.3c-1.4,0.1-8.3,0-8.3,0s-37.7-0.4-40.8-0.5
		c-3.1-0.1-3.4-0.2-5.3-1.4C208.8,44.2,208.6,41.4,208.6,41.4z M128.7,43.1c0,0,4.9-7.3,7.3-10.7c2.4-3.4,4.5-6.7,7-8.6
		c2.6-2,7.9-2.4,14-3.3s21.8-2,25.6-2.1c3.8-0.1,6.4-0.5,8.3,0.8c1.9,1.2,1.9,3.6,1.9,3.6l-0.2,17.8c0,0,0.1,2.6-1.7,4.4
		c-1.8,1.8-3.9,2.1-4.8,2.1c-0.9,0-16.1,0.7-22.8,0.9c-6.8,0.3-28.1,1.4-30.2,1.4c-2.2-0.1-3.2-0.2-4.5-2.2
		C127.3,45,128.7,43.1,128.7,43.1z"/>
	<path fill="#6C7479" d="M124.4,45.9c0,1.4,0.8,3.6,2.3,4.8c1,0.8,2.4,1.2,5.2,1.2c1.1,0,2.4,0,4.4-0.2c2.6-0.2,7.1-0.3,12.3-0.5
		c5.4-0.2,11.5-0.4,17.7-0.7c8.2-0.4,23-0.6,33.9-0.7c5.2-0.1,9.7-0.1,12.3-0.2c0.8,0,2,0,3.6,0c8,0,23.7,0.3,34,0.4
		c5.2,0.1,9,0.2,10,0.2c3.9,0,6.4-0.3,8-0.9c2.4-0.9,3.8-2.7,3.9-5c0.1-3-2.2-5.8-2.7-6.3c-0.9-1-10-12.2-12.7-15.6
		c-2.8-3.6-6.4-4.8-10.2-6.2c-4.7-1.7-19.4-2.2-26.5-2.3c-0.7,0-1.5,0-2.4,0c-11.2,0-31.8,0.5-40.5,1c-9.9,0.6-28.1,3-31.4,3.8
		c-4.3,1.1-7.5,4.8-10.4,8.7c-1.7,2.3-3.3,4.8-4.6,7c-1.3,2.1-2.6,4.1-3.7,5.6C125.5,41.9,124.4,44.5,124.4,45.9z M125.9,45.9
		c0-1,0.9-3.2,2.1-4.9c1.2-1.5,2.4-3.6,3.8-5.7c1.4-2.3,2.9-4.6,4.6-6.9c2.7-3.7,5.7-7.2,9.5-8.1c3-0.7,20.7-3.1,31.2-3.8
		c8.7-0.6,29.2-1,40.4-1c0.9,0,1.7,0,2.4,0c8.1,0.1,21.8,0.7,26,2.2c3.7,1.3,6.9,2.4,9.5,5.7c2.8,3.5,11.9,14.6,12.8,15.6
		c1.1,1.2,2.4,3.4,2.3,5.3c-0.1,2.3-1.9,3.2-2.9,3.6c-1.4,0.5-3.8,0.8-7.5,0.8c-1,0-4.8-0.1-10-0.2c-10.4-0.2-26.1-0.4-34.1-0.4
		c-1.6,0-2.8,0-3.7,0c-2.6,0.1-7.1,0.1-12.3,0.2c-10.9,0.2-25.7,0.4-33.9,0.7c-6.1,0.3-12.3,0.5-17.7,0.7c-5.2,0.2-9.7,0.3-12.3,0.5
		c-2,0.1-3.3,0.2-4.3,0.2c-2.3,0-3.5-0.2-4.2-0.8C126.6,48.7,125.9,47,125.9,45.9z"/>
	<path fill="#6C7479" d="M149.4,21.6c-0.1,0-0.1,0-0.2,0C149.3,21.6,149.4,21.6,149.4,21.6z"/>
	<path fill="#6C7479" d="M134.5,49.2c0.1,0,0.1,0,0.2,0C134.6,49.2,134.5,49.2,134.5,49.2z"/>
	<path fill="#6C7479" d="M148.2,21.8c-0.1,0-0.1,0-0.2,0C148,21.8,148.1,21.8,148.2,21.8z"/>
	<path fill="#6C7479" d="M145.9,22.4c-0.1,0-0.2,0.1-0.3,0.1C145.7,22.5,145.8,22.4,145.9,22.4z"/>
	<path fill="#6C7479" d="M133.9,49.2c0.1,0,0.1,0,0.2,0C134,49.2,133.9,49.2,133.9,49.2z"/>
	<path fill="#6C7479" d="M133.4,49.2c0,0,0.1,0,0.1,0C133.5,49.2,133.5,49.2,133.4,49.2z"/>
	<path fill="#6C7479" d="M146.9,22.1c-0.1,0-0.2,0-0.2,0.1C146.7,22.1,146.8,22.1,146.9,22.1z"/>
	<path fill="#6C7479" d="M143.9,23.2c-0.1,0-0.1,0.1-0.2,0.1C143.8,23.3,143.9,23.2,143.9,23.2z"/>
	<path fill="#6C7479" d="M144.7,22.8c-0.1,0-0.1,0-0.2,0.1C144.6,22.9,144.7,22.8,144.7,22.8z"/>
	<path fill="#6C7479" d="M128.6,47c1.3,2,2.4,2.1,4.5,2.2c0.1,0,0.2,0,0.3,0c0,0,0.1,0,0.1,0c0.1,0,0.2,0,0.3,0c0.1,0,0.1,0,0.2,0
		c0.1,0,0.3,0,0.5,0c0.1,0,0.1,0,0.2,0c3.1-0.1,10.1-0.4,16.5-0.8l1-27.3c-1,0.1-1.9,0.3-2.8,0.4c-0.1,0-0.1,0-0.2,0
		c-0.4,0.1-0.7,0.1-1.1,0.2c-0.1,0-0.1,0-0.2,0c-0.4,0.1-0.7,0.2-1.1,0.3c-0.1,0-0.2,0-0.2,0.1c-0.3,0.1-0.5,0.2-0.8,0.2
		c-0.1,0-0.2,0.1-0.3,0.1c-0.3,0.1-0.6,0.2-0.9,0.3c-0.1,0-0.1,0-0.2,0.1c-0.2,0.1-0.4,0.2-0.6,0.3c-0.1,0-0.1,0.1-0.2,0.1
		c-0.2,0.1-0.5,0.3-0.7,0.4c-2.6,2-4.7,5.3-7,8.6c-2.4,3.4-7.3,10.7-7.3,10.7S127.3,45,128.6,47z M130.8,42.8
		c0,0,8.4-11.9,10.2-14.4c1.8-2.5,3.3-3.6,6.2-4.4c2.9-0.8,4.4-0.7,4.4-0.7l-0.4,23.4l-0.8,0.1c0,0-14.1,1-16,1.1
		c-1.9,0.1-2.7,0-3.8-1.3C129.5,45.2,130.8,42.8,130.8,42.8z"/>
	<path fill="#6C7479" d="M153.1,21L153.1,21c-0.4,0.1-0.7,0.1-1,0.2L153.1,21z"/>
	<path fill="#6C7479" d="M150.6,48.5L150.6,48.5c0.6-0.1,1.2-0.1,1.7-0.1L150.6,48.5z"/>
	<path fill="#6C7479" d="M151.6,23.3c0,0-0.3,0-0.9,0l0-2l1.4-0.2c0.3,0,0.7-0.1,1-0.1l-0.3,27.3l-0.4,0c-0.6,0-1.1,0.1-1.7,0.1
		l0-1.7l0.6-0.1L151.6,23.3z"/>
	<path fill="#6C7479" d="M151.6,23.3l-0.4,23.4l-0.6,0.1l0-23.4C151.3,23.3,151.6,23.3,151.6,23.3z"/>
	<path fill="#6C7479" d="M250.5,21.7C250.5,21.7,250.5,21.7,250.5,21.7C250.5,21.7,250.5,21.7,250.5,21.7z"/>
	<path fill="#6C7479" d="M249.9,21.4C249.9,21.3,249.8,21.3,249.9,21.4C249.8,21.3,249.9,21.3,249.9,21.4z"/>
	<path fill="#6C7479" d="M251,21.9C251,21.9,251,21.9,251,21.9C251,21.9,251,21.9,251,21.9z"/>
	<path fill="#6C7479" d="M253.4,47.1c2,0,3.3,0,3.3,0S255.5,47.1,253.4,47.1z"/>
	<path fill="#6C7479" d="M251.3,22.1C251.3,22.1,251.3,22.1,251.3,22.1C251.3,22.1,251.3,22.1,251.3,22.1z"/>
	<path fill="#6C7479" d="M248,20.6c0,0-0.1,0-0.1,0C247.9,20.5,247.9,20.5,248,20.6z"/>
	<polygon fill="#6C7479" points="245.3,19.7 245.3,19.7 245.3,19.7 	"/>
	<path fill="#6C7479" d="M246.8,20.1c0,0-0.1,0-0.1,0C246.7,20.1,246.8,20.1,246.8,20.1z"/>
	<path fill="#6C7479" d="M245.3,19.7l0.2,27.3c3.1,0,5.9,0.1,7.9,0.1c2,0,3.3,0,3.3,0s6.9,0.1,8.3,0c1.4-0.1,2.4-1.1,2.9-2.3
		c0.5-1.2-0.1-3.7-1.1-5.1c-1.1-1.4-10.5-12.1-11.6-13.7c-1.1-1.7-2.4-2.9-3.7-3.9c0,0,0,0-0.1,0c0,0,0,0,0,0
		c-0.1,0-0.1-0.1-0.2-0.1c0,0,0,0,0,0c-0.1-0.1-0.3-0.2-0.5-0.2c0,0,0,0,0,0c-0.2-0.1-0.4-0.2-0.6-0.3c0,0-0.1,0-0.1,0
		c-0.5-0.2-1.1-0.5-1.8-0.8c0,0-0.1,0-0.1,0c-0.3-0.1-0.7-0.3-1.1-0.4c0,0-0.1,0-0.1,0C246.3,20,245.8,19.8,245.3,19.7
		C245.3,19.7,245.3,19.7,245.3,19.7z M245.7,21.7c0,0,1.4,0.1,3.4,1.1c2,1.1,4.2,4.1,6.3,6.5c2.1,2.4,9.2,10.5,9.2,10.5
		s2,1.7,1.5,3.8c-0.5,2.1-1.7,2.3-4,2.3c-2.3,0-16-0.4-16-0.4L245.7,21.7z"/>
	<path fill="#6C7479" d="M244.3,19.4l0.6,0.2C244.7,19.5,244.5,19.5,244.3,19.4L244.3,19.4z"/>
	<path fill="#6C7479" d="M244.5,47L244.5,47c0.4,0,0.7,0,1.1,0L244.5,47z"/>
	<path fill="#6C7479" d="M244.9,19.6l1.6,0.5l0,1.7c-0.5-0.1-0.8-0.1-0.8-0.1l0.4,23.9c0,0,0.2,0,0.4,0l0,1.4l-1,0
		c-0.4,0-0.7,0-1.1,0l-0.2-27.6C244.5,19.5,244.7,19.5,244.9,19.6z"/>
	<path fill="#6C7479" d="M245.7,21.7c0,0,0.3,0,0.8,0.1l0,23.8c-0.3,0-0.4,0-0.4,0L245.7,21.7z"/>
	<rect x="202.2" y="118.2" fill="#0D2A4A" width="83.3" height="0.6"/>
	<rect x="143.1" y="118.3" fill="#0D2A4A" width="54.5" height="0.6"/>
	<path fill="#0D2A4A" d="M41.9,79.9c-0.4-0.5-0.2-1-0.2-1c0,0,0.5-1.8,0.9-3c0.4-1.2,1.1-1.4,3.5-2.2c0.4-0.1,0.8-0.3,1.3-0.4
		c3.5-1.2,8.6-2,8.6-2c0.6-0.1,1,0,1.3,0.4c0.6,0.9,0.1,2.8-0.4,4.2c-1,2.6-2.7,2.7-2.8,2.8c-0.3,0.1-8.2,1.6-10.3,1.8
		c-0.2,0-0.3,0-0.5,0C42.6,80.4,42.2,80.2,41.9,79.9z M56.1,71.7c0,0-5,0.8-8.5,2c-0.5,0.2-0.9,0.3-1.3,0.4c-2.5,0.8-2.9,1-3.1,1.8
		c-0.4,1.2-0.8,3-0.8,3c0,0-0.1,0.3,0.1,0.5c0.2,0.2,0.6,0.3,0.9,0.3c0.1,0,0.3,0,0.4,0c2-0.2,10.1-1.8,10.3-1.8
		c0,0,1.5-0.2,2.3-2.4c0.7-1.8,0.9-3.2,0.5-3.7c-0.1-0.1-0.2-0.2-0.4-0.2C56.2,71.7,56.2,71.7,56.1,71.7z"/>
	
		<linearGradient id="SVGID_3_" gradientUnits="userSpaceOnUse" x1="15.6096" y1="83.316" x2="414.9777" y2="83.316" gradientTransform="matrix(-1 0 0 1 431.6861 0)">
		<stop  offset="9.243700e-002" style="stop-color:#184478"/>
		<stop  offset="0.2647" style="stop-color:#193965"/>
		<stop  offset="0.8487" style="stop-color:#16365E"/>
		<stop  offset="1" style="stop-color:#184478"/>
	</linearGradient>
	<path fill="url(#SVGID_3_)" d="M407.2,64.9c0,0-4.3-1.7-35-3.3C341.5,60,262.3,60.8,247.7,61c-14.7,0.2-87.2-0.6-132.4,2.6
		C70.1,66.8,36.9,71,27.7,82.9c-4.3,5.5-4.1,12.4-4.2,18.1c-0.1,6.6,0.6,12.8,2.9,14.1l-4.1-1.1l-5.6-9.5c0,0,0.5-8.4,0.5-9.9
		c0-1.5,0.6-6.5,0.6-6.5c8.4-14.5,26.5-25.3,81.7-31.6c55.1-6.3,129-4.8,180.2-4.2c51.2,0.6,136.5,5.4,136.5,5.4L407.2,64.9z"/>
	<path fill="#6C7479" d="M23.6,90.9c0,0,0.2-1.3,1.9-0.7c1.8,0.6,1.2,2.2,1.2,3c0,0.8,0,4.5-0.6,4.8c-0.6,0.3-1.6,0.5-2.3,0.3
		c-0.7-0.2-0.7-1-0.7-1L23.6,90.9z"/>
	<path fill="#9F3C22" d="M25.1,91.6c0,0,0.2,0.5,0.2,1.2c0,0.8-0.2,3.3-0.2,3.5s-0.7,0.9-1.5,0.9c-0.8,0-1.4-0.2-1.4-1.1
		c0-1,0.1-3.4,0.1-3.8c0-0.4,0.4-1.4,1.3-1.4C24.4,90.9,24.9,91.2,25.1,91.6z"/>
	<path fill="#6C7479" d="M414.4,99.4c0,0,5.4-0.2,7.1,0.7c1.7,0.9,2.2,2.2,1.2,3.3c-1,1.1-4,2.1-8.1,2.1c-5.3,0-7-0.6-7.9-1
		c-1.4-0.7-1.9-2-0.8-3.3C407.1,99.7,411,99.4,414.4,99.4z"/>
	<path fill="#6C7479" d="M419.9,96.4c3.6-0.5,3.4-2.5,3-3.5c-0.6-1.6-5.1-1.3-7.8-1.3c-2.7,0-2.3,0-4.4,0c-2.1,0-3.3,0.6-3.3,2.6
		c-0.1,2.3,1.1,2.7,4.5,2.6C415.4,96.8,418.1,96.7,419.9,96.4z"/>
	<path fill="#6C7479" d="M412.3,90.2c0-0.8,0.6-2.6,3.6-2.5c3.5,0,4.2,0.2,6.2-0.5c2.3-0.7,3.3-3.1,0-5.4c-3.3-2.3-3.9-0.7-7-0.1
		c-3.1,0.6-4.4,1.4-5.2,3.8c-0.4,1.2-0.2,4.7,0.5,5.6C411.1,92,412.3,91,412.3,90.2z"/>
	<path fill="#6C7479" d="M413.8,71.1c3.4-0.7,7.1,0.1,7.3,1.6c0.2,1.3-0.2,1.7-3,2c-2.8,0.3-3.9,0.1-5.7,0
		C410.6,74.7,410.5,71.8,413.8,71.1z"/>
	<path fill="#FEFBDD" d="M409,66.5c0,0,3.5,2.1,4.1,8.1c0.4,5-2.2,8.3-3.9,9.2C407.4,84.7,409,66.5,409,66.5z"/>
	<path fill="#7C848A" d="M424,109.2c0,0,1.5-0.7,1.5-3.3c0-2.6,0.1-3.8-0.9-5c-1-1.2-0.7-4.2,1.4-4.3c2.1-0.1,4.5,2.4,5.5,10.5
		c0.9,6.8-0.2,10.1-1.9,11.5c-1.7,1.4-4.5,0.8-5.2-0.2c-0.7-1-0.6-1.2,1.2-3.1C427.3,113.4,424,109.2,424,109.2z"/>
	<path fill="#6C7479" d="M414.9,105.3c0,0,2.9-0.1,3.9,0.9c1,1,1.5,1.8,1.5,1.8s2.4,0.1,3.9,0.1c1.5,0,5.4,0.4,5.1,5.6
		c-0.3,4.7-5,4.8-7.6,4.8c-2.6,0-9,0-9,0s-3.3-0.1-3.5-2.6c-0.2-2.5-0.5-5.9,0.7-7.8C411.1,106.2,413,105.5,414.9,105.3z"/>
	<circle fill="#70787D" cx="206.5" cy="65.2" r="1.6"/>
	
		<linearGradient id="SVGID_4_" gradientUnits="userSpaceOnUse" x1="25.7785" y1="68.1842" x2="373.549" y2="68.1842" gradientTransform="matrix(-1 0 0 1 431.6861 0)">
		<stop  offset="0" style="stop-color:#4E7BAA"/>
		<stop  offset="1" style="stop-color:#15467A"/>
	</linearGradient>
	<path fill="url(#SVGID_4_)" d="M58.1,69.9c0,0,20.8-3.7,56.7-6.3c26.8-1.9,63.5-2.2,101.8-2.5c45.9-0.3,84.2-0.8,114.1-0.5
		C360.5,61,382,62,393.6,63c7.5,0.7,12.3,1.6,12.3,1.6l-0.5,11.2c0,0-40.4-5.7-93.9-5.5c-32.3,0.1-122.6-3.7-196.4,0.4
		c-31.1,1.7-56.3,4.1-56.3,4.1L58.1,69.9z"/>
	
		<linearGradient id="SVGID_5_" gradientUnits="userSpaceOnUse" x1="170.8528" y1="15.6013" x2="345.2277" y2="15.6013" gradientTransform="matrix(-1 0 0 1 431.6861 0)">
		<stop  offset="0" style="stop-color:#4E7BAA"/>
		<stop  offset="1" style="stop-color:#15467A"/>
	</linearGradient>
	<path fill="url(#SVGID_5_)" d="M97.9,18.7c0,0,31.6-13.2,79.2-16.9c56.9-4.4,82.3,2.7,83.5,4.8c1.2,2.1-2.7,5.1-4.8,5.7
		c-2.1,0.6-11.9-1.1-24.1-2.3c-20.9-2.1-59.4,0.9-83.3,4.5C119,19.1,86.5,30.8,86.5,30.8L97.9,18.7z"/>
	
		<linearGradient id="SVGID_6_" gradientUnits="userSpaceOnUse" x1="20.1791" y1="48.7905" x2="144.4641" y2="48.7905" gradientTransform="matrix(-1 0 0 1 431.6861 0)">
		<stop  offset="0" style="stop-color:#4E7BAA"/>
		<stop  offset="1" style="stop-color:#15467A"/>
	</linearGradient>
	<path fill="url(#SVGID_6_)" d="M292.8,43.3c4.1-2.2,10.8-1.4,10.8-1.4s50.2,1.6,65.1,2c14.9,0.4,35.9,2.4,41.7,8.1
		c2.2,2.2,0.9,3.8-5.9,3.8c-7.9,0-29.4-1.2-61.6-2.2c-29.3-0.9-55.8-1.8-55.8-1.8S287.7,46.1,292.8,43.3z"/>
	<path fill="#0D2A4A" d="M293.2,45.4c5-3.4,9.7-4.9,9.8-4.9l0.2,0.6c0,0-4.6,1.5-9.6,4.8c-5,3.3-7.7,6.6-7.7,6.6l-0.5-0.4
		C285.4,52.1,288.1,48.8,293.2,45.4z"/>
	<path fill="#0D2A4A" d="M292.4,40.3l0.3,0.5c0,0-4.2,2.5-5.5,4.6c-2.1,3.4-1.6,6.8-1.6,6.8l-0.6,0.1c0-0.1-0.5-3.6,1.7-7.2
		C288,42.9,292.2,40.4,292.4,40.3z"/>
	<path fill="#0D2A4A" d="M197.3,120.4l0.6,0c0-1-0.2-97.4,0-103.8c0.1-2.8-0.4-4.6-1.5-5.5c-0.8-0.7-1.7-0.4-1.7-0.4l0.2,0.6
		l-0.1-0.3l0.1,0.3c0,0,0.6-0.1,1.2,0.3c0.6,0.5,1.3,1.8,1.2,5C197.1,23,197.3,119.4,197.3,120.4z"/>
	<path fill="#0D2A4A" d="M201.9,120.5h0.6V15.6c0-2.8,0.7-4,1.2-4.5c0.5-0.5,1-0.4,1-0.4l0.1-0.6c0,0-0.8-0.1-1.5,0.6
		c-1,0.9-1.5,2.5-1.5,5V120.5z"/>
	<rect x="285.2" y="51.7" fill="#0D2A4A" width="0.6" height="69"/>
	<g>
		<path fill="#184478" d="M197.6,111.4c0,0.4,0.4,0.7,0.9,0.7l0,0c0.5,0,0.9-0.3,0.9-0.7V105c0-0.4-0.4-0.7-0.9-0.7l0,0
			c-0.5,0-0.9,0.3-0.9,0.7V111.4z"/>
		<path fill="#0D2A4A" d="M197.3,111.4V105c0-0.6,0.5-1,1.2-1c0.7,0,1.2,0.5,1.2,1v6.3c0,0.6-0.5,1-1.2,1
			C197.9,112.4,197.3,112,197.3,111.4z M197.9,105v6.3c0,0.2,0.3,0.4,0.6,0.4c0.3,0,0.6-0.2,0.6-0.4V105c0-0.2-0.3-0.4-0.6-0.4
			C198.2,104.6,197.9,104.8,197.9,105z"/>
	</g>
	<g>
		<path fill="#184478" d="M284.9,111.3c0,0.4,0.4,0.7,0.9,0.7l0,0c0.5,0,0.9-0.3,0.9-0.7v-6.3c0-0.4-0.4-0.7-0.9-0.7l0,0
			c-0.5,0-0.9,0.3-0.9,0.7V111.3z"/>
		<path fill="#0D2A4A" d="M284.6,111.3v-6.3c0-0.6,0.5-1,1.2-1c0.7,0,1.2,0.5,1.2,1v6.3c0,0.6-0.5,1-1.2,1
			C285.2,112.3,284.6,111.9,284.6,111.3z M285.2,104.9v6.3c0,0.2,0.3,0.4,0.6,0.4c0.3,0,0.6-0.2,0.6-0.4v-6.3c0-0.2-0.3-0.4-0.6-0.4
			C285.5,104.5,285.2,104.7,285.2,104.9z"/>
	</g>
	<path fill="#0D2A4A" d="M64.5,118.3c5,0,5.8-0.7,6-0.9l-0.6-0.2c0,0,0-0.1,0-0.1c-0.1,0.1-1.6,1.4-18-0.1c-20.2-1.9-28.9-6-29-6
		l-0.3,0.5c0.1,0,8.9,4.1,29.2,6.1C57.8,118.1,61.8,118.3,64.5,118.3z"/>
	<path fill="#9EA9B0" d="M411.1,107.7c0,0,3,2,5.9,1.8c2.9-0.2,7.4-0.9,9.2-0.1c1.8,0.8,2.2,2.2,1.5,2.9c-0.7,0.7-6.2,2-10.8,1.7
		C409.3,113.3,411.1,107.7,411.1,107.7z"/>
	<path fill="#4E5457" d="M429.2,111.8c0,0,0.4,2.1-3.4,2.6c-3.7,0.5-6.3,0.8-10.8,0.9c-4.5,0.1-6-0.8-6-0.8s-0.1,1.9,0.3,2.4
		c0.4,0.5,1.1,1.7,3.1,1.7c2,0,12.2-0.1,13.2-0.1c1,0,3-0.8,3.3-2.6C429.4,114.1,429.2,111.8,429.2,111.8z"/>
	<path fill="#DBD8DB" d="M423,112.2c0,0-4,1.4-6.2,1.1c-2.3-0.3-3.3-1.4-3.1-1.9c0.2-0.5,1-0.9,2.5-0.7
		C417.6,111,425.2,110,423,112.2z"/>
	<path fill="#9EA9B0" d="M430.7,112.7c0,0-0.6-4.3-1.9-6.5c-1.3-2.2-5.2-6.5-4.3-7.8c0.9-1.4,2.6-1.1,4,0.7
		c1.4,1.8,2.6,7.2,2.7,10.4C431.3,111.9,430.7,112.7,430.7,112.7z"/>
	<path fill="#DBD8DB" d="M425.2,98.3c0,0,1.1-0.5,2.1,0.2c1,0.7,2,4.4,2,4.4s-1.4-2-2.4-2.5C425.9,99.9,424.5,98.9,425.2,98.3z"/>
	
		<linearGradient id="SVGID_7_" gradientUnits="userSpaceOnUse" x1="39.7131" y1="90.3226" x2="108.2277" y2="90.3226" gradientTransform="matrix(-1 0 0 1 431.6861 0)">
		<stop  offset="0" style="stop-color:#3C6D9E"/>
		<stop  offset="1" style="stop-color:#15467A"/>
	</linearGradient>
	<path fill="url(#SVGID_7_)" d="M323.5,103.6c0,0,4.9-12.9,12.9-17.6c8-4.7,15-4.1,20.1-4.1c5.1,0,14.8-0.1,21.9,2.9
		c4.7,2,8.7,7.8,10,10.8c1.3,3,3.5,6.6,3.5,6.6s-2.9-10.5-4.9-14.5c-2-3.9-6.5-8.7-18.4-10.2c-11-1.4-26.9,0.4-31.6,2.4
		C326.3,84.8,323.2,94.7,323.5,103.6z"/>
	
		<linearGradient id="SVGID_8_" gradientUnits="userSpaceOnUse" x1="294.3088" y1="96.3935" x2="359.1206" y2="96.3935" gradientTransform="matrix(-1 0 0 1 431.6861 0)">
		<stop  offset="0" style="stop-color:#1B558A"/>
		<stop  offset="1" style="stop-color:#15467A"/>
	</linearGradient>
	<path fill="url(#SVGID_8_)" d="M72.7,109c0,0,4.2-11.7,9.3-15.7c5.1-4,8.6-5.6,10.8-5.7c2.2-0.1,19.7-0.3,23.1-0.2
		c3.4,0.1,5.9,0.7,10.5,3.5c4.6,2.8,5.7,4.2,7.5,6.7c1.8,2.5,3.3,5.5,3.3,5.5s-1.7-8.1-7.1-12.9c-5.6-5-10.9-6.7-20.2-6.4
		c-11.3,0.4-15.1-0.7-24,3.1C78.6,90,71.5,99.8,72.7,109z"/>
	<path fill="#6C7479" d="M259.7,18.5c2.6,3.1,19.6,23.1,20.2,23.8c0.2,0.2,1.1,1.3,2.7,1.3c0.7,0,1.5-0.2,2.2-0.6
		c2.7-1.4,5.8-3.5,5.9-3.6l0.4-0.3L265.2,9.8l-5.5,3.4c-0.3,0.1-1.1,0.6-1.3,1.5C258.1,15.8,258.6,17.1,259.7,18.5z M261.7,19.5
		c-1.4-1.4-3-3.8-2.1-5c0.9-1.2,6.1-3.9,6.1-3.9l24.5,28.3c0,0-3.2,1.9-5.2,3.1c-2,1.2-3.2,0.6-3.7,0.5c-0.5-0.1-4.1-4.2-4.1-4.5
		C277.2,37.7,263.1,20.9,261.7,19.5z"/>
	<path fill="#6C7479" d="M261.7,19.5c1.4,1.4,15.5,18.2,15.5,18.5c0,0.3,3.6,4.4,4.1,4.5c0.5,0.1,1.7,0.7,3.7-0.5
		c2-1.2,5.2-3.1,5.2-3.1l-24.5-28.3c0,0-5.2,2.7-6.1,3.9C258.7,15.7,260.3,18.1,261.7,19.5z M260.9,17.5c-0.8-1-1.2-1.8-1-2.4
		c0.1-0.4,0.5-0.6,0.5-0.6l0.1,0l4.8-3.1l23.9,27.2c-1.1,0.7-3.2,2-5,3c-0.6,0.3-1.1,0.4-1.5,0.4c-1,0-1.5-0.7-1.5-0.7l0-0.1
		C280.9,41.1,263.5,20.7,260.9,17.5z"/>
	<path fill="#0D2A4A" d="M16.5,105.3l0.6,0c0-0.1-0.4-8.4,0.7-15.1c0.9-5.5,3.6-14.2,16.7-25.8c12-10.7,23.7-16.6,23.8-16.6l0.3-0.2
		l-5.2-7.1l-0.5,0.4l4.8,6.5c-2,1-12.7,6.8-23.6,16.6c-13.2,11.8-16,20.6-16.9,26.2C16.1,96.9,16.5,105.2,16.5,105.3z"/>
	<path fill="#D67C27" d="M22.9,91.6c0,0,0.4-0.5,1.1,0c0.7,0.4,0,1.6-0.3,2.2c-0.3,0.7-0.6,1.4-0.6,1.4S22.4,92.5,22.9,91.6z"/>
	<path fill="#CECDBA" d="M25,90.8c0,0,1.6-0.3,1.4,1.1c-0.2,1.4-0.5,2-0.5,2s-0.1-1.5-0.4-2C25.3,91.3,25,90.8,25,90.8z"/>
	<path fill="#9F3C22" d="M408.5,93.4c0.2,2.1-0.9,3.3-1.9,3.8c-1,0.5-1.1,0.3-1.1,0.3s-0.9-3.5-0.5-4.9c0.4-1.5,1.2-2.1,1.2-2.1
		S408.3,91.3,408.5,93.4z"/>
	<path fill="#6C7479" d="M406.9,90.7c0,0-1.4,1.1-1.4,3.3s1,3.5,1,3.5s-0.5,0.3-1.2,0.4c-0.8,0.1-1,0-1,0s-0.8-0.3-1.1-1.9
		c-0.5-2.4,0-4.7,0.9-5.6C404.9,90,406.4,90.1,406.9,90.7z"/>
	<path fill="#D67C27" d="M406.9,91.5c0,0,1.3,0.5,1.1,1.5c-0.3,1-1.4,1.5-1.4,1.5L406.9,91.5z"/>
	<path fill="#C7AE79" d="M413.1,76c0,0-0.3,2-1.7,1.5c-1.4-0.5-2-5.5-2-5.5l0.1,11.6c0,0,1.4-0.7,2.1-2.3
		C412.5,79.7,413.2,77.6,413.1,76z"/>
	<path fill="#6C7479" d="M407.2,64.9v20.6c0,0,0.6-0.2,1.3-0.4c0.7-0.3,1.1-1.5,1.1-1.5V67.2C409.5,67.2,409.2,65.7,407.2,64.9z"/>
	
		<linearGradient id="SVGID_9_" gradientUnits="userSpaceOnUse" x1="23.2795" y1="65.8262" x2="23.2795" y2="76.3731" gradientTransform="matrix(-1 0 0 1 431.6861 0)">
		<stop  offset="0" style="stop-color:#6C7479"/>
		<stop  offset="4.947026e-002" style="stop-color:#86898D"/>
		<stop  offset="0.1133" style="stop-color:#A6A5A7"/>
		<stop  offset="0.1731" style="stop-color:#BFBCBC"/>
		<stop  offset="0.2268" style="stop-color:#D1CCCB"/>
		<stop  offset="0.2689" style="stop-color:#D8D2D1"/>
		<stop  offset="0.7899" style="stop-color:#6C7479"/>
	</linearGradient>
	<path fill="url(#SVGID_9_)" d="M407.5,65.8c0,0,0.8,0.4,1.2,0.7c0.3,0.3,0.6,1,0.6,1l-0.1,6.9l-1.6,1.9V65.8z"/>
	<path fill="#AEADB0" d="M404.8,95.1c0,0-1.2-0.6-1.2-2.2c0-1.6-0.1-2.1,0.8-2.3c0.9-0.2,1.4,0.1,1.4,0.1s0.5,0.2-0.2,1.1
		C405,92.7,404.8,95.1,404.8,95.1z"/>
	<path fill="#E4E4E3" d="M404.4,91c0,0,1.2-0.3,1.2,0.1c0,0.4-0.3,0.5-0.7,0.5C404.5,91.6,404.2,91,404.4,91z"/>
	<path fill="#4D5356" d="M409.5,78.9c0,0-0.4,1.3-1.2,0.7c-0.8-0.6-1.2-2.3-1.2-2.3l0.1,8.2c0,0,0.9-0.1,1.4-0.6
		c0.6-0.5,0.9-1.4,0.9-1.4L409.5,78.9z"/>
	<path fill="#9EA9B0" d="M416.7,82.3c0,0,2.1-0.9,4.4-0.2c2.3,0.7,3,2.6,1.1,3.5c-2,0.8-5.4,0.5-6.4,0.3
		C414.7,85.7,414.4,82.8,416.7,82.3z"/>
	<path fill="#9EA9B0" d="M414.6,71.6c0,0,2.9-0.1,4.6,0.3c1.7,0.4,2.2,1,0.8,1.7c-1.4,0.8-4,0.9-4.7,0.8
		C413.2,74.3,413.1,71.6,414.6,71.6z"/>
	<path fill="#9EA9B0" d="M412.9,92.6c0,0,5.3-0.5,7-0.5c1.7,0.1,3.2,1.4,1.4,2.3c-1.8,1-5,1.1-7.8,1.1c-2.8,0-4.4-1.4-3-2.3
		C411.9,92.5,412.9,92.6,412.9,92.6z"/>
	<path fill="#9EA9B0" d="M412.4,100.2c2-0.5,6-0.3,7.7,0c1.7,0.3,3.1,1.8,1.9,2.7c-0.7,0.5-4.4,1.4-6.8,1.1
		c-2.4-0.4-3.6-1.5-4.1-1.8C410.5,101.8,410.4,100.6,412.4,100.2z"/>
	<path fill="#485C64" d="M422.4,86.7c0,0-3.5,0.3-5.7-0.2c-2.2-0.5-2.7-1.5-4.3-1c-1.6,0.6-2.4,2.8-2.2,4c0.2,1.2,1.5,1.7,1.8,1.3
		c0.3-0.4,1.2-2.6,2.4-2.9C415.7,87.5,419.9,88.3,422.4,86.7z"/>
	<path fill="#485C64" d="M419.8,95.4c0,0-4.8,1-7.3,0.5c-2.5-0.5-3.5-1.6-3.5-1.6l-0.5-1.2l-0.7,2.4c0,0,0.2,1,2.9,1.1
		C413.6,96.7,418.7,96.7,419.8,95.4z"/>
	<path fill="#485C64" d="M420.8,103.9c0,0-4.3,0.9-6.7,0.7c-3.3-0.3-5.3-0.9-5.5-2.1c-0.4-2.1,1.2-2.8,1.2-2.8s-4.2,0.3-4.6,2.4
		c-0.4,2.1,1,2.7,4.6,3.3C412.7,105.8,419.2,105.6,420.8,103.9z"/>
	<ellipse fill="#0D2A4A" cx="215.5" cy="55.9" rx="5.1" ry="3"/>
	<ellipse fill="#0D2A4A" cx="132.9" cy="57.9" rx="5.1" ry="3"/>
	<path fill="#555B5F" d="M209.1,54.2c0,0,0.7,0.4,0.6,1.6c-0.1,1.3-0.8,1.8-0.8,1.8h-4.3c0,0-0.8-0.6-0.8-1.8c0-1.2,0.5-1.6,0.5-1.6
		L209.1,54.2z"/>
	<path fill="#555B5F" d="M126.5,56.1c0,0,0.7,0.4,0.6,1.6c-0.1,1.3-0.8,1.8-0.8,1.8H122c0,0-0.8-0.6-0.8-1.8c0-1.2,0.5-1.6,0.5-1.6
		L126.5,56.1z"/>
	<path fill="#70787D" d="M218.1,55.2h-13.9c0,0-0.4,0.4-0.3,0.7c0,0.4,0.5,0.5,0.5,0.5h12.9c0,0,1.6,0.3,1.6-0.7
		C218.9,55.3,218.1,55.2,218.1,55.2z"/>
	<path fill="#70787D" d="M135.6,57.1h-13.9c0,0-0.4,0.4-0.3,0.7c0,0.4,0.5,0.5,0.5,0.5h12.9c0,0,1.6,0.3,1.6-0.7
		C136.3,57.3,135.6,57.1,135.6,57.1z"/>
	<path fill="#6C7479" d="M6.5,106.7h15c0,0,1.4,1.8,1.4,3.7c-0.1,1.9-0.8,6.2-0.8,6.2l-1.1,0.3H7.8c0,0-0.7,0.9-2.6,1.1
		c-1.9,0.2-4.4-2-5.1-5c-0.7-3.1,1.4-12.8,1.9-14.5c0.5-1.7,1.8-3,3.4-2.9C7,95.8,8,97.4,7,98.6c-1.1,1.3-1.4,3.2-1.2,4.5
		C5.9,104.4,6.5,106.7,6.5,106.7z"/>
	<path fill="#4B5154" d="M11.1,106.9c0,0,2-2,2.4-2.1c0.4-0.1,6.7,0,6.7,0s1.5,0.9,1.4,2L11.1,106.9z"/>
	<path fill="#B8B9B1" d="M21.4,107.4c0,0-12.7-0.2-13.6-0.2c-0.8,0-2.5,1.4-3,2.3c-0.5,1,0.9,2.2,5.3,2.2c4.4,0,11.2-0.2,11.6-0.5
		C22.1,110.8,22.4,108.7,21.4,107.4z"/>
	<path fill="#B8B9B1" d="M0.7,110.3c0,0,0.5-5.6,1.1-8.4c0.5-2.8,2-5.2,3-5.4c1.1-0.2,1.5-0.3,1.5,0.3c0,0.6,0,1.4-1.3,2.6
		c-1.3,1.1-0.1,4.2-0.2,4.8c-0.2,0.6-4.1,7.8-3.8,8.3c0.2,0.5,0.3,1.7,0.3,1.7S-0.2,112.3,0.7,110.3z"/>
	<path fill="#EBE2D9" d="M16.4,110.9c0,0-6.1,0.7-8.3-0.1c-2.2-0.8-2.2-2.4-1-2.4c1.2,0,5.7,0.9,6.5,1.1
		C14.3,109.7,16.4,110.9,16.4,110.9z"/>
	<path fill="#4B5154" d="M22.4,113.1c0,0-0.7,1.9-4.6,1.9c-3.9,0-12.3,0.1-13.3-0.7c-1.1-0.7-1.4-1.3-1.4-1.3s1,3,2,3.3
		c1,0.4,0.9,0.1,2.5,0.2c1.6,0.1,13.2,0.1,13.2,0.1l1-0.2L22.4,113.1z"/>
	<path fill="#4B5154" d="M6.5,106.7c0,0-2.1,1.4-2.8,3.1c-0.7,1.7-0.9,3.3-0.1,3.9c0.8,0.6,2.9,2.8,2.9,2.8S5.9,117,4.5,116
		c-1.5-1-2.8-4.5-1.3-6.7c1.5-2.2,3.1-3.4,3.1-3.4L6.5,106.7z"/>
	<path fill="#193965" d="M27,62.6c0,0-4.4,5-5.7,7.5c-1.4,2.5-2.4,4.1-2.4,4.1l-0.1-10.6c0,0,0.4-1,1-1.2
		C20.4,62.2,26.5,62.3,27,62.6z"/>
	<path fill="#193965" d="M18.9,74.2c0,0-1.8,4.7-2.2,6.4c-0.5,1.7-0.8,4.4-0.8,4.4s-1.5-0.3-2.8-2.7c-1.3-2.5-1.3-7-1.3-7
		s0,3.1,1.7,3.5c1,0.2,4.3-4.2,4.3-4.2L18.9,74.2z"/>
	
		<linearGradient id="SVGID_10_" gradientUnits="userSpaceOnUse" x1="293.7062" y1="41.9741" x2="400.7668" y2="41.9741" gradientTransform="matrix(-1 0 0 1 431.6861 0)">
		<stop  offset="9.243700e-002" style="stop-color:#184478"/>
		<stop  offset="0.5294" style="stop-color:#193965"/>
	</linearGradient>
	<path fill="url(#SVGID_10_)" d="M37.7,60.2c0,0,20.9-16.5,47.6-26.3C112.1,24,138,16.8,138,16.8l-16.3,24.9l-1.2,6
		c0,0-19.5-0.8-53.6,8.4c-19.5,5.3-36,11-36,11L37.7,60.2z"/>
	<path fill="#D4E1F3" d="M91.8,20c0,0-7.6,8.1-12.6,11.1c-5,3-9.6,4.2-12.4,3.9c-2.8-0.3-3.1-1.1-3.1-1.1s7.2-3.7,12.8-6.4
		C82.1,24.8,91.8,20,91.8,20z"/>
	<path fill="#6C7479" d="M67.5,36.1c2.8,0,6.4-1.2,11-3.7c5.6-3,11.6-9.1,13.8-11.5c0.5-0.6,1.3-1.4,0.9-1.5c0,0-0.5-0.4-1.3,0
		c-0.8,0.4-0.4,0.3-1.5,1.4c-2.6,2.7-7.8,7.8-12.6,10.4c-6.7,3.6-11,4.4-13.5,2.6c-0.1-0.1-0.5-0.3-0.9-0.1C63,33.8,63,34.4,63,34.4
		C64.2,35.5,65.7,36.1,67.5,36.1z"/>
	<path fill="#0D2A4A" d="M119.5,48.7c0-0.1,0.3-3.1,2.3-6.2c1.3-2.1,16-24.6,17.3-25.4l0.3,0.5c-1,0.7-14.9,21.7-17.1,25.2
		c-1.8,2.9-2.2,5.9-2.2,5.9l-0.8,35.3c1.7,0.5,12.6,3.6,17.6,11.9c4.6,7.5,5.9,15.5,6.3,20.8c0.1,1.2,0.5,2.1,1.1,2.7
		c0.8,0.7,1.8,0.6,1.8,0.6c1.7,0,166.8,0.2,169.9,0c2.9-0.2,5-3.2,5-3.2l0.5,0.3c-0.1,0.1-2.2,3.2-5.5,3.4
		c-1.1,0.1-20.3,0.1-45.5,0.1c-48.8,0-119.9-0.1-124.4-0.1c-0.1,0-1.2,0.1-2.2-0.8c-0.8-0.7-1.2-1.7-1.3-3.1
		c-0.3-5.3-1.7-13.1-6.2-20.6c-5.3-8.8-17.4-11.7-17.5-11.7l-0.2-0.1L119.5,48.7z"/>
	<path fill="#6C7479" d="M142.5,15.9c23.4-4,40.8-5,56.6-5.7c17.1-0.8,34.4,0.5,44,1.8c11,1.5,15.8,7.5,18.4,10.7l0.2,0.2
		c2.4,3,23.2,26.7,23.4,27l-0.1,1.8c-0.9-1-22-24.8-24.4-27.8l-0.2-0.2c-2.4-3.1-7-8.8-17.4-10.2c-9.5-1.3-26.7-2.6-43.7-1.8
		c-15.7,0.7-33,1.7-56.4,5.7c-40.8,7-84,30.3-84.4,30.5l-0.7-1.3C58.1,46.3,101.4,22.9,142.5,15.9z"/>
</g>
</svg>
