<?xml version="1.0" encoding="utf-8"?>
<!-- Generator: Adobe Illustrator 18.1.1, SVG Export Plug-In . SVG Version: 6.00 Build 0)  -->
<svg version="1.1" id="Layer_1" xmlns="http://www.w3.org/2000/svg" xmlns:xlink="http://www.w3.org/1999/xlink" x="0px" y="0px"
	 viewBox="0 0 431.2 179.9" enable-background="new 0 0 431.2 179.9" xml:space="preserve">
<ellipse opacity="0.3" fill="#857C6F" enable-background="new    " cx="218" cy="160.8" rx="213.2" ry="19.2"/>
<path opacity="0.3" fill="#40A0D9" d="M265.6,16.1l0.1,22.1c0,0,0.4,3,2.8,3c2.3,0,37.2,0,38.7,0c2.3,0,3.7-0.6,4.3-2
	c0.7-1.5,0.3-2.7-0.8-5c-1.1-2.3-9.5-18.2-9.5-18.2s-1.2-2.8-4.8-2.9c-3.6-0.1-27.4,0-27.4,0S265.6,12.9,265.6,16.1z"/>
<path opacity="0.3" fill="#40A0D9" d="M325.6,38.7c-1.5,0.5-2.6-0.6-2.6-0.6S310.7,15.3,310.5,15c-0.2-0.3,0.8-0.8,2-1.7
	c0.9-0.7,1.6-1.2,1.9-1.4L328.8,37C327.9,37.6,326.4,38.4,325.6,38.7z"/>
<g>
	<rect x="235.5" y="76.4" fill="#3B4451" width="5.7" height="24.5"/>
	<rect x="156.1" y="78.9" fill="#3B4451" width="6.8" height="12"/>
	<path fill="#18191B" d="M2.1,78.8v12.1h4v8.7h1.8v10c0,0-0.2,1.2,1.9,1.2c2.1,0,2.3-1.1,2.3-1.1v-9.8h10.9c0,0-0.4,5.8,5.2,6.5
		c4.1,0.5,5.8-3,5.8-3l3.7,0.8v6.1h8.9c0,0,0.2,1.8,1.8,1.8c1.5,0,2.1-1.5,2.1-1.5h16.2c0,0-0.1,0.5,0.4,1.5c0.5,1,1.5,1,1.5,1h8.9
		c0,0,0,0,0,1.1c0,1.1,2.2,1.3,2.2,1.3h95l-26.8,3.1l1.5,6.3l53.5-7.1c4.6,1,14.1,2.9,17.4,3.3c3.8,0.4,12.2,0.3,16.6,0.1v3.1
		l49.7-2.9v-3.4h49.6l61,0.9l3.2,8l3.9,0.3l3.3-10.4h14.6l3.5,1.4h5.4v-11.6l-2-2.1c0,0,0.9-0.6,1.1-1.9c0.2-1.2,0.4-3.3-2-4.3
		c-2-0.8-3.6,0.5-3.6,1.8c0.1,1,0.9,1.2,0.9,1.2s-0.2-1,0.7-1.2c0.5-0.1,1.4-0.1,1.5,0.8c0.1,0.6,0.4,1.4-1.8,2.3
		c-2.1,0.9-4.3,1.2-4.3,1.2l-3,0l-21.1-17.1l-59.8,0.1L275.3,101H220l0.1-0.2c3.8-0.4,6.1-1,7.7-1.3c2.2-0.4,5.7-2.5,5.7-2.5v-2.2
		c0,0,0.1,0,0.1,0v-8.2h-0.1v-1.8c0,0-4.2-2.7-14.3-3.3c-8-0.5-11-0.3-11-0.3l-30.9,0.5c0,0-3,0-4.3,0.1c0,0,0,0,0,0v-3.9H164v8.6
		l-4.4,1.2H89.9v-9.1H66.2v8H25.7v-7.8H2.1z M212.7,116.3l1.1-0.1H237v1.9c-2.7,0.1-7.1,0.2-10.2,0.1
		C224,118.2,217.5,117.2,212.7,116.3z M25.9,100.6c0-1.5,1.2-2.7,2.7-2.7c1.5,0,2.7,1.2,2.7,2.7c0,1.5-1.2,2.7-2.7,2.7
		C27.1,103.4,25.9,102.2,25.9,100.6z"/>
	<path fill="#7BAED8" d="M246.9,94.9c0.2,1.9,0.4,4.7,4.6,4.7v-1.1c0,0,0.9,0.7,2,1.5c1.1,0.8,2.4,1.8,4.3,1.8
		c3.4,0,65.8-0.1,65.8-0.1l-0.9,16.8l5.3,0.1c0,0,3-0.6,3.9-4.4c2-8.9,3.3-15.8,4.8-19.4c1.6-4,2.5-5.6,2.5-5.6l58.1-0.3
		c0,0,2.6,5.9,3.6,12.7c1,6.8,3.9,8.7,5.5,8.8c1.5,0.1,4.1,0,6.6,0c2.5,0,4.3-1.7,5.8-3.7c1.5-2,1.7-3.3,2.1-8.9
		c0.4-5.6,1.1-22.2,1-27.5c-0.1-8.7-1.3-11-3.8-11.6c-1.4-0.3-3.4-0.4-3.4-0.4l0.1-1.5c0,0,0.5-2.4-0.7-4c-3-4.1-10.6-6.3-18.4-7
		c-17.2-1.4-64.3-4.3-64.3-4.3l-2.6-4.5h0l0,0c-1,0.6-2.4,1.4-3.2,1.7c-1.5,0.5-2.6-0.6-2.6-0.6S310.7,15.3,310.5,15
		c-0.2-0.3,0.8-0.8,2-1.7c0.9-0.7,1.6-1.2,1.9-1.4v0l0,0l-0.8-1.4l2.4-2.2c0,0,0.6-0.7-0.2-1.4c-0.8-0.8-2.2-0.4-3.1-0.8
		c-0.8-0.4-2.5-2.6-5.1-3.6c-2.7-1.1-4-1.7-18.5-2C274.8,0,267.3,0,265.2,0c-4.5-0.1-6,0.8-9.5,3.8c-3.5,3.1-4.9,6.5-5.5,8.7
		c-0.5,1.9-3,22.3-3.2,33.4C246.7,57.1,246.7,92.9,246.9,94.9z M265.6,16.1c0-3.1,3.4-3,3.4-3s23.8-0.1,27.4,0
		c3.6,0.1,4.8,2.9,4.8,2.9s8.4,15.9,9.5,18.2c1.1,2.3,1.5,3.5,0.8,5c-0.7,1.5-2,2-4.3,2c-1.5,0-36.3,0-38.7,0c-2.3,0-2.8-3-2.8-3
		L265.6,16.1z"/>
	<path fill="#6E99BD" d="M264.3,37.7V15.5c0,0,0.8-3.7,3.9-3.9c0.5,0,2,0.5,4.1,1.5c-2,0-3.3,0-3.3,0s-3.4-0.1-3.4,3l0.1,22.1
		c0,0,0.4,3,2.8,3c2.3,0,37.2,0,38.7,0c2.3,0,3.7-0.6,4.3-2c0.5-1.2,0.4-2.3-0.3-3.9c0.9,0.7,1.4,1.2,1.5,1.5c0,0,0.3,2-0.4,3.3
		c-0.8,1.4-2.7,2.6-8.5,2.6c-5.8,0-35.5,0-35.5,0s-1.4-0.2-2.9-1.6C264.2,39.8,264.3,37.7,264.3,37.7z"/>
	<path fill="#668FC4" d="M344.6,67.3c8.5-4.7,36.3-4.4,47.8-4.4c11.6,0,17.3,0.2,19.4,0.1c4.8-0.1,4,5.6,4,5.6s-0.4,12.1-0.4,24.4
		c0,12.3,1.2,14,3.3,13.5c-1.5,2-3.3,3.7-5.8,3.7c-2.5,0-5.1,0.1-6.6,0c-1.5-0.1-4.5-2-5.5-8.8c-1-6.8-3.6-12.7-3.6-12.7l-18.6,0.1
		c-2.4-2.8-4.7-4.5-6.3-3.9c-1.9,0.7-6.2,2.3-10.7,4l-22.5,0.1c0,0-0.9,1.6-2.5,5.6c-0.7,1.9-1.4,4.6-2.2,8.1c-2.9,1.1-5,1.9-5,1.9
		S336.1,72,344.6,67.3z"/>
	<path fill="#5B76A8" d="M265.8,13.5c0.4-1.6,1.7-2.3,6.1-2.3c4.5,0.1,25.3-0.1,26.4,0.1c1.1,0.2,3.2,1.5,4.9,5.1
		c1.7,3.7,8.2,17,9.1,18.5c0.9,1.5,0.4,5.6-3.4,6.1c-0.4,0.1-1,0.1-1.7,0.1c2.3,0,3.7-0.6,4.3-2c0.7-1.5,0.3-2.7-0.8-5
		c-1.1-2.3-9.5-18.2-9.5-18.2s-1.2-2.8-4.8-2.9c-3.6-0.1-27.4,0-27.4,0s-3.1-0.1-3.3,2.6C265.7,14.9,265.7,14.1,265.8,13.5z"/>
	<path fill="#385982" d="M411,111.3c1.1-0.5,1.3-2.6,1.3-2.8l0-8.2l0.2-31.7c0.4-0.7,3.1-5.3,3.8-7.1c0.7-1.9,0.5-3.1,0.5-3.1
		l-0.6,0.1l0.3-0.1l-0.3,0.1c0,0,0.2,1-0.5,2.8c-0.7,1.8-3.8,7-3.8,7.1l0,0.1l-0.2,31.8v8.2c0,0.5-0.2,1.9-0.9,2.2L411,111.3z"/>
	<path fill="#18191B" d="M421.8,76.3c0,0,2.2,0,2.2,2.3c0.1,2.3-0.2,10.7-0.2,10.7s0,1.9-1,2.7c-1,0.8-1.6,0.7-1.6,0.7L421.8,76.3z"
		/>
	<path fill="#385982" d="M261.6,44c0-1.7-0.2-25.1,0.1-28.7c0.4-3.7,4.1-6.1,6.7-6.7c1.9-0.4,13.3-0.2,20.1-0.1c1.3,0,2.4,0,3.3,0.1
		c0.6,0,1.1,0,1.6,0c4.1,0,6.1,0.1,8.6,1.3c2.6,1.4,4.7,5.7,10.1,17.3l0.8,1.8c6,12.7,11,24.2,11,24.3l0,0.1l0,48.4h-0.7l0-48.3
		c-0.4-0.9-5.2-12-11-24.2l-0.8-1.7c-5.4-11.4-7.4-15.7-9.8-17c-2.3-1.2-4.1-1.2-8.3-1.3c-0.5,0-1,0-1.6,0c-0.8,0-2,0-3.3-0.1
		c-6.3-0.1-18.1-0.3-19.9,0c-1.9,0.4-5.8,2.3-6.2,6.1c-0.4,3.7-0.1,28.4-0.1,28.7v0.1l0,0.1c0,0-1,2.6-0.9,7.3
		c0.1,4.8,0.4,49.8,0.4,50.3l-0.7,0c0-0.5-0.3-45.4-0.4-50.3C260.6,47,261.5,44.5,261.6,44z"/>
	<path fill="#385982" d="M308,14.3c0.7-0.1,1.8-1.1,2.7-1.8c0.2-0.1,0.3-0.3,0.5-0.4c1.4-1.2,3.8-3,3.8-3l-1.3,1.7
		c0,0-0.7,0.7-2.1,1.9c-0.1,0.1-0.3,0.2-0.5,0.4c-1,0.9-2.2,1.8-3.1,1.9c-0.9,0.1-2.3,0.2-2.3,0.2l-0.1-0.7
		C305.7,14.6,307.2,14.4,308,14.3z"/>
	<path fill="#191918" d="M311.4,12.4c0.3-0.3,1.3-1.1,2.2-1.9l0.7,1.3l0,0v0c-0.3,0.2-1,0.7-1.9,1.4c-1.2,0.9-2.2,1.4-2,1.7
		c0.2,0.3,12.5,23.1,12.5,23.1s1.1,1.2,2.6,0.6c0.8-0.3,2.3-1.1,3.2-1.7l0,0h0l0.9,1.5c-0.5,0.4-1.4,1-2.8,1.6c-2.7,1.2-4.6,1-6.4-2
		c-1.6-2.6-12.3-23.5-12.3-23.5S310.4,13.3,311.4,12.4z"/>
	<path fill="#191918" d="M290.9,13.1v28c0,0,0.5,0.1,1.4,0.1c7.6,0,14.3,0,15,0c2.3,0,3.7-0.6,4.3-2c0.7-1.5,0.3-2.7-0.8-5
		c-1.1-2.3-9.5-18.2-9.5-18.2s-1.2-2.8-4.8-2.9C295.5,13.1,293.5,13.1,290.9,13.1z M292.8,14.8c0,0,0.7,0,3.3,0
		c2.6,0,3.8,2.1,3.8,2.1l9.8,18.8c0,0,0.7,1,0.5,2.1c-0.3,1.5-1.8,1.3-1.8,1.3h-15.5V14.8z"/>
	<path fill="#385982" d="M259.4,13.7l3.3-0.1l0-0.7l-3.1,0.1c-0.4-0.2-2.6-1.3-4.9-1.5c-1.9-0.1-4.3-0.2-4.6,0.4l0.5,0.4
		c0,0-0.1,0.1-0.1,0.1c0,0,0.6-0.4,4.1-0.1C256.9,12.4,259.3,13.7,259.4,13.7L259.4,13.7z"/>
	<g>
		<rect x="0.2" y="28" fill="#697A8C" width="242.7" height="50.9"/>
		<path fill="#363A3B" d="M0,27.8h243.2v51.3H0L0,27.8z M242.7,28.2H0.4v50.5h242.3V28.2z"/>
	</g>
	<circle fill="#C14F27" cx="397.7" cy="72.2" r="2.8"/>
	<path fill="#94C5EA" d="M322.8,117.6c0.6,0,4.5-1,4.9-3c0.5-2,3.6-17.9,5.7-24c2.1-6.1,7.5-12.3,18.4-12.6c9.5-0.3,36,0,36,0
		s10.7,0.1,13.1,8c2.3,7.8,4.9,18.7,5.4,20.3c0.7,2.3,1.9,3.6,2.5,4.1c-1,0-1.8,0-2.5,0c-1.5-0.1-4.5-2-5.5-8.8
		c-1-6.8-3.6-12.7-3.6-12.7l-58.1,0.3c0,0-0.9,1.6-2.5,5.6c-1.4,3.6-2.7,10.4-4.8,19.4c-0.9,3.8-3.9,4.4-3.9,4.4l-5.3-0.1
		L322.8,117.6z"/>
	
		<linearGradient id="SVGID_1_" gradientUnits="userSpaceOnUse" x1="17.3286" y1="61.4403" x2="88.0684" y2="61.4403" gradientTransform="matrix(-1 0 0 1 431.1655 0)">
		<stop  offset="0" style="stop-color:#E0EDF9"/>
		<stop  offset="1" style="stop-color:#94C5EA"/>
	</linearGradient>
	<path fill="url(#SVGID_1_)" d="M413.8,58.4c0,0-40,0.1-53.4,0.7c-13.4,0.5-17.3,2.7-17.3,2.7l0.5,2.6c0,0,4.4-2.4,25.4-3.3
		C392.3,60.2,413.8,58.4,413.8,58.4z"/>
	
		<linearGradient id="SVGID_2_" gradientUnits="userSpaceOnUse" x1="90.207" y1="76.9588" x2="100.9004" y2="76.9588" gradientTransform="matrix(-1 0 0 1 431.1655 0)">
		<stop  offset="0" style="stop-color:#DAEAF8"/>
		<stop  offset="1" style="stop-color:#94C5EA"/>
	</linearGradient>
	<path fill="url(#SVGID_2_)" d="M338.8,63.9c0,0-3.6,2.3-5.4,9.2c-1.7,6.8-3.2,16.9-3.2,16.9s4.1-14.1,5.5-17.1
		c2.2-4.8,5.2-6.4,5.2-6.4L338.8,63.9z"/>
	
		<linearGradient id="SVGID_3_" gradientUnits="userSpaceOnUse" x1="20.6196" y1="51.6788" x2="87.0816" y2="51.6788" gradientTransform="matrix(-1 0 0 1 431.1655 0)">
		<stop  offset="0" style="stop-color:#D9EBF7"/>
		<stop  offset="1" style="stop-color:#94C5EA"/>
	</linearGradient>
	<path fill="url(#SVGID_3_)" d="M410.5,54.4c0,0-3.2-2.7-21.9-4C370,49.1,344.1,49,344.1,49v1.8c0,0,19.4,0.2,34.9,1.1
		C394.4,52.7,410.5,54.4,410.5,54.4z"/>
	<path fill="#5D5D5D" d="M272.9,52.1c0,0-6.4-0.9-7.8-1.2c-1.4-0.3-2.2,0.3-2.1,1.4c0.2,1.1,1.9,0.9,1.9,0.9l7.9-0.3
		C272.8,53,273.8,52.6,272.9,52.1z"/>
	<path fill="#C4D5E0" d="M421.8,66.9c0,0,2.3,0,2.4,2.6c0.1,3.3-2.3,3.5-2.3,3.5L421.8,66.9z"/>
	<g>
		<path fill="#697A8C" d="M211.9,80.6v12.6c0,0,0.1,1.1-1.7,1.2c-1.8,0.1-33.3,0-33.3,0s-1.2-0.1-1.2-1.5c0-1.5,0-10.6,0-11.5
			c0-0.8-0.1-1.8,1.5-1.8c2.7,0,33.2,0,33.2,0S211.8,79.3,211.9,80.6z"/>
		<path fill="#363A3B" d="M176.9,94.5c0,0-1.4-0.1-1.4-1.8V81.3v-0.1c0-0.5,0-1.1,0.4-1.5c0.3-0.3,0.7-0.4,1.3-0.4l33.1,0
			c0,0,0.1,0,0.3,0c0.9,0,1.5,0.5,1.5,1.3l0,12.5c0,0,0.1,0.4-0.3,0.8c-0.3,0.4-0.9,0.6-1.6,0.6c-0.5,0-3.7,0-9.5,0
			C190.9,94.6,176.9,94.5,176.9,94.5z M210.4,79.7h-33.2c-0.5,0-0.8,0.1-1,0.3c-0.3,0.3-0.3,0.7-0.3,1.2v11.6c0,1.2,0.9,1.3,1,1.3
			c0,0,14,0,23.9,0c5.7,0,8.9,0,9.4,0c0.6,0,1.1-0.2,1.3-0.4c0.2-0.2,0.2-0.5,0.2-0.5l0-12.6c0-0.7-0.6-0.9-1.1-0.9
			C210.5,79.7,210.4,79.7,210.4,79.7z"/>
	</g>
	<g>
		<circle fill="#24272C" cx="365.5" cy="127" r="35.6"/>
		<circle fill="#414141" cx="365.5" cy="127" r="33.8"/>
		<circle fill="#0F1011" cx="365.5" cy="127" r="21.8"/>
		
			<radialGradient id="SVGID_4_" cx="65.6685" cy="127.0065" r="19.1121" gradientTransform="matrix(-1 0 0 1 431.1655 0)" gradientUnits="userSpaceOnUse">
			<stop  offset="0.2828" style="stop-color:#646060"/>
			<stop  offset="0.4754" style="stop-color:#646060"/>
			<stop  offset="0.5089" style="stop-color:#5B5859"/>
			<stop  offset="0.616" style="stop-color:#454344"/>
			<stop  offset="0.7209" style="stop-color:#343435"/>
			<stop  offset="0.8217" style="stop-color:#28282A"/>
			<stop  offset="0.9168" style="stop-color:#202123"/>
			<stop  offset="1" style="stop-color:#1E1E20"/>
		</radialGradient>
		<circle fill="url(#SVGID_4_)" cx="365.5" cy="127" r="19.1"/>
		<circle fill="#131517" cx="365.5" cy="127" r="11.3"/>
		<circle fill="#0B0C0B" cx="365.5" cy="127" r="6"/>
		<circle fill="#131517" cx="365.5" cy="127" r="2.9"/>
		<path fill="#0B0C0B" d="M361.3,110.9c0,1.4,3,3.5,4.2,3.5c1.3,0,4.2-2.1,4.2-3.5c0-1.4-1.9-2.6-4.2-2.6
			C363.2,108.4,361.3,109.5,361.3,110.9z"/>
		<path fill="#0B0C0B" d="M361.3,143.1c0-1.4,3-3.5,4.2-3.5c1.3,0,4.2,2.1,4.2,3.5c0,1.4-1.9,2.6-4.2,2.6
			C363.2,145.7,361.3,144.5,361.3,143.1z"/>
		<path fill="#0B0C0B" d="M349.5,122.4c1.2,0.7,4.5-0.8,5.2-1.8c0.6-1.1,0.4-4.7-0.8-5.4c-1.2-0.7-3.2,0.3-4.4,2.3
			C348.3,119.4,348.3,121.7,349.5,122.4z"/>
		<path fill="#0B0C0B" d="M377.1,138.9c-1.2-0.7-1.5-4.4-0.8-5.4c0.6-1.1,4-2.6,5.2-1.8c1.2,0.7,1.2,2.9,0,4.9
			C380.3,138.6,378.3,139.6,377.1,138.9z"/>
		<path fill="#0B0C0B" d="M381.5,122.4c-1.2,0.7-4.5-0.8-5.2-1.8c-0.6-1.1-0.4-4.7,0.8-5.4c1.2-0.7,3.2,0.3,4.4,2.3
			C382.7,119.4,382.7,121.7,381.5,122.4z"/>
		<path fill="#0B0C0B" d="M353.9,138.9c1.2-0.7,1.5-4.4,0.8-5.4c-0.6-1.1-4-2.6-5.2-1.8c-1.2,0.7-1.2,2.9,0,4.9
			C350.7,138.6,352.7,139.6,353.9,138.9z"/>
		<circle fill="#414141" cx="365.5" cy="118.5" r="1.5"/>
		<circle fill="#414141" cx="365.5" cy="135.5" r="1.5"/>
		<circle fill="#414141" cx="358.1" cy="122.7" r="1.5"/>
		<circle fill="#414141" cx="372.9" cy="131.2" r="1.5"/>
		<circle fill="#414141" cx="372.9" cy="122.7" r="1.5"/>
		<circle fill="#414141" cx="358.1" cy="131.2" r="1.5"/>
	</g>
	<g>
		<circle fill="#24272C" cx="113.5" cy="127" r="35.6"/>
		<circle fill="#414141" cx="113.5" cy="127" r="33.8"/>
		<circle fill="#0F1011" cx="113.5" cy="127" r="21.8"/>
		
			<radialGradient id="SVGID_5_" cx="317.6865" cy="127.0065" r="19.1123" gradientTransform="matrix(-1 0 0 1 431.1655 0)" gradientUnits="userSpaceOnUse">
			<stop  offset="0.2828" style="stop-color:#646060"/>
			<stop  offset="0.4754" style="stop-color:#646060"/>
			<stop  offset="0.5089" style="stop-color:#5B5859"/>
			<stop  offset="0.616" style="stop-color:#454344"/>
			<stop  offset="0.7209" style="stop-color:#343435"/>
			<stop  offset="0.8217" style="stop-color:#28282A"/>
			<stop  offset="0.9168" style="stop-color:#202123"/>
			<stop  offset="1" style="stop-color:#1E1E20"/>
		</radialGradient>
		<circle fill="url(#SVGID_5_)" cx="113.5" cy="127" r="19.1"/>
		<circle fill="#131517" cx="113.5" cy="127" r="11.3"/>
		<circle fill="#0B0C0B" cx="113.5" cy="127" r="6"/>
		<circle fill="#131517" cx="113.5" cy="127" r="2.9"/>
		<path fill="#0B0C0B" d="M109.3,110.9c0,1.4,3,3.5,4.2,3.5c1.3,0,4.2-2.1,4.2-3.5c0-1.4-1.9-2.6-4.2-2.6S109.3,109.5,109.3,110.9z"
			/>
		<path fill="#0B0C0B" d="M109.3,143.1c0-1.4,3-3.5,4.2-3.5c1.3,0,4.2,2.1,4.2,3.5c0,1.4-1.9,2.6-4.2,2.6S109.3,144.5,109.3,143.1z"
			/>
		<path fill="#0B0C0B" d="M97.5,122.4c1.2,0.7,4.5-0.8,5.2-1.8c0.6-1.1,0.4-4.7-0.8-5.4c-1.2-0.7-3.2,0.3-4.4,2.3
			C96.3,119.4,96.3,121.7,97.5,122.4z"/>
		<path fill="#0B0C0B" d="M125.1,138.9c-1.2-0.7-1.5-4.4-0.8-5.4c0.6-1.1,4-2.6,5.2-1.8c1.2,0.7,1.2,2.9,0,4.9
			C128.3,138.6,126.3,139.6,125.1,138.9z"/>
		<path fill="#0B0C0B" d="M129.4,122.4c-1.2,0.7-4.5-0.8-5.2-1.8c-0.6-1.1-0.4-4.7,0.8-5.4c1.2-0.7,3.2,0.3,4.4,2.3
			C130.7,119.4,130.7,121.7,129.4,122.4z"/>
		<path fill="#0B0C0B" d="M101.9,138.9c1.2-0.7,1.5-4.4,0.8-5.4c-0.6-1.1-4-2.6-5.2-1.8c-1.2,0.7-1.2,2.9,0,4.9
			C98.7,138.6,100.6,139.6,101.9,138.9z"/>
		<circle fill="#414141" cx="113.5" cy="118.5" r="1.5"/>
		<circle fill="#414141" cx="113.5" cy="135.5" r="1.5"/>
		<circle fill="#414141" cx="106.1" cy="122.7" r="1.5"/>
		<circle fill="#414141" cx="120.8" cy="131.2" r="1.5"/>
		<circle fill="#414141" cx="120.8" cy="122.7" r="1.5"/>
		<circle fill="#414141" cx="106.1" cy="131.2" r="1.5"/>
	</g>
	<path fill="#DFEAF7" d="M381,79.3c0,0,8.3-0.7,11.7,0.5c4.9,1.8,6.6,6.4,6.6,6.4s-2.6-3.6-8.1-5.3C385.9,79.2,381,79.3,381,79.3z"
		/>
	<path fill="#DFEAF7" d="M350.3,79.8c0,0-5-0.5-10,3c-5,3.5-6.8,11.7-6.8,11.7s3.5-7.1,7.7-10.4C345.5,80.8,350.3,79.8,350.3,79.8z"
		/>
	<path fill="#385982" d="M342.8,58.2l0.7,0c0,0-0.1-3-0.1-8.9c0-6-1.5-7.5-1.5-7.6l-0.5,0.5l0.2-0.2l-0.2,0.2c0,0,1.3,1.5,1.3,7.1
		C342.7,55.2,342.8,58.2,342.8,58.2z"/>
	
		<rect x="332.3" y="40.3" transform="matrix(-1.033066e-002 0.9999 -0.9999 -1.033066e-002 386.7488 -281.5002)" fill="#385982" width="0.7" height="20.6"/>
	<g>
		<polygon fill="#697A8C" points="237.6,28 237.6,74.9 241.6,74.9 241.6,28 		"/>
		<path fill="#363A3B" d="M237.3,27.8l4.5,0v47.3h-4.5V27.8z M241.4,28.2l-3.7,0v46.4h3.7V28.2z"/>
	</g>
	<g>
		<polygon fill="#697A8C" points="1,28 1,72.7 5,72.7 5,28 		"/>
		<path fill="#363A3B" d="M0.7,27.8l4.5,0v45.1H0.7V27.8z M4.8,28.2l-3.7,0v44.3h3.7V28.2z"/>
	</g>
	<path fill="#A8ABB0" d="M195.9,84.3l-1.2,7.9c0,0,0,0.9-0.8,0.9c-0.8,0-1-0.8-1-0.8l-1-7.8c0,0-0.3-2.7,2-2.7
		C196.3,81.8,195.9,84.3,195.9,84.3z"/>
	<g>
		<path fill="#697A8C" d="M237.8,66.3c0,0-228.9-1.3-233.1-1.2"/>
		<path fill="#363A3B" d="M237.8,66.5l0-0.4c-2.3,0-228.9-1.3-233.1-1.2l0,0.4C8.9,65.2,235.6,66.5,237.8,66.5z"/>
	</g>
	<g>
		<path fill="#697A8C" d="M5,55.4c0,0,101.5,2,130.2,2.6c28.7,0.7,102.2-0.2,102.2-0.2"/>
		<path fill="#363A3B" d="M166.2,58.4c32,0,70.7-0.5,71.2-0.5l0-0.4c-0.7,0-73.8,0.9-102.2,0.2C106.9,57.1,6.1,55.2,5,55.1l0,0.4
			c1,0,101.8,2,130.2,2.6C143,58.4,154.2,58.4,166.2,58.4z"/>
	</g>
	<g>
		<path fill="#697A8C" d="M238.1,50.5c0,0-115.6-0.2-129.9-0.4C92.1,49.9,5.2,48.6,5.2,48.6"/>
		<path fill="#363A3B" d="M238.1,50.7v-0.4c-1.2,0-115.7-0.2-129.9-0.4c-16-0.2-102.2-1.5-103.1-1.5l0,0.4c0.9,0,87,1.3,103.1,1.5
			C122.4,50.5,237,50.7,238.1,50.7z"/>
	</g>
	<g>
		<line fill="#697A8C" x1="5" y1="41.8" x2="237.5" y2="43.9"/>
		
			<rect x="121" y="-73.4" transform="matrix(-1.345658e-002 0.9999 -0.9999 -1.345658e-002 165.7041 -77.7883)" fill="#363A3B" width="0.4" height="232.5"/>
	</g>
	<g>
		<line fill="#697A8C" x1="237.7" y1="36.1" x2="5.6" y2="34.1"/>
		<rect x="5.6" y="34.8" fill="#363A3B" width="232.1" height="0.4"/>
	</g>
	
		<linearGradient id="SVGID_6_" gradientUnits="userSpaceOnUse" x1="123.7134" y1="3.7451" x2="171.6516" y2="3.7451" gradientTransform="matrix(-1 0 0 1 431.1655 0)">
		<stop  offset="0" style="stop-color:#D9EBF7"/>
		<stop  offset="1" style="stop-color:#94C5EA"/>
	</linearGradient>
	<path fill="url(#SVGID_6_)" d="M307.5,5.1c0,0-3.1-3.3-22.9-3.2c-19.9,0.1-23.9,0.1-24.8,1.8c-0.9,1.6,0.9,2.3,3.1,1.5
		c2.2-0.8,9-1.4,21.5-1.1C296.8,4.5,307.5,5.1,307.5,5.1z"/>
	
		<linearGradient id="SVGID_7_" gradientUnits="userSpaceOnUse" x1="115.7385" y1="9.472" x2="126.125" y2="9.472" gradientTransform="matrix(-1 0 0 1 431.1655 0)">
		<stop  offset="0" style="stop-color:#D9EBF7"/>
		<stop  offset="1" style="stop-color:#94C5EA"/>
	</linearGradient>
	<path fill="url(#SVGID_7_)" d="M309.2,10.1c1.5-1.4,3.3-3.5,3.3-3.5s1.8-0.2,2.6,0.2c0.9,0.4-0.4,0.5-0.8,0.8
		c-0.3,0.2-3.1,3-4.9,4.5c-1.9,1.5-4.4-1.6-4.4-1.6S307.7,11.5,309.2,10.1z"/>
	<path fill="#3B4451" d="M212,38.4c0,0-5.5,2.3-7.9,3.2c-2.4,0.9-69.3-0.7-84.9-0.4c-15.6,0.2-89.9-0.5-89.9-0.5s0-1,0-2.7
		c0-1.9-0.1-3.6-0.1-3.6l2.4-1.5H212V38.4z"/>
	<polygon fill="#A2A2A1" points="285.3,118 237.9,118.9 238,121.3 285.1,119 	"/>
	<g>
		<path fill="#2E4A6D" d="M353.9,82c10.1,0,31.3,0,31.3,0s4.7-0.3,8.4,2.5c1.8,1.4,2.7,2.6,3.6,4.4L339,89.3
			C339,89.3,343.8,82,353.9,82z"/>
		<path fill="#2E4A6D" d="M397.9,90.6c0,0.1,0,0.1,0,0.2c-0.1-0.2-0.1-0.4-0.2-0.5C397.8,90.3,397.9,90.4,397.9,90.6z"/>
	</g>
	
		<linearGradient id="SVGID_8_" gradientUnits="userSpaceOnUse" x1="11.9027" y1="63.2678" x2="14.5498" y2="63.2678" gradientTransform="matrix(-1 0 0 1 431.1655 0)">
		<stop  offset="0" style="stop-color:#FFFFFF"/>
		<stop  offset="1" style="stop-color:#94C5EA"/>
	</linearGradient>
	<path fill="url(#SVGID_8_)" d="M416.6,64.6c0,0,1.1-4.2,2.2-3.1c1.1,1,0,2.8-1.1,3.6C416.6,65.8,416.6,64.6,416.6,64.6z"/>
	
		<linearGradient id="SVGID_9_" gradientUnits="userSpaceOnUse" x1="17.8259" y1="63.6149" x2="21.9346" y2="63.6149" gradientTransform="matrix(-1 0 0 1 431.1655 0)">
		<stop  offset="0" style="stop-color:#FFFFFF"/>
		<stop  offset="1" style="stop-color:#94C5EA"/>
	</linearGradient>
	<path fill="url(#SVGID_9_)" d="M413.3,62.7c0,0-0.2,2.1-1.5,2.3c-1.2,0.2-2.6-1.3-2.6-1.3S413.6,61.2,413.3,62.7z"/>
	<path fill="#416B9F" d="M253.5,100c-1.1-0.8-2-1.5-2-1.5v1.1c-4.2,0-4.4-2.8-4.6-4.7c-0.1-0.8-0.1-6.5-0.1-13.9l5.9,0.5
		c0,0-0.1,4.3,1.1,8.8c2.3,8.6,7.6,7.9,7.6,7.9l58.9-0.3c0,0,7.3-27.1,10.9-32.6c5.3-8.2,15.4-7.9,15.4-7.9s-10.2,2.9-13.2,10.2
		c-2.9,7.3-7.4,33.8-7.4,33.8l-2.3,0.4l-66.6,0C255.6,101.5,254.5,100.7,253.5,100z"/>
	<path fill="#84909F" d="M422.3,77.6c0,0,1.1-0.2,1.2,1.3c0.1,1.6-0.2,4.7-0.2,4.7s-0.6-2.2-0.8-3.3
		C422.3,79.2,422.1,77.8,422.3,77.6z"/>
	<path fill="#DBDADA" d="M422.8,77.9c0,0,0.7,0.4,0.6,0.9c-0.1,0.5-0.6,0.2-0.8,0C422.5,78.6,422.3,77.7,422.8,77.9z"/>
	<path fill="#FFFFFF" d="M422.6,67.9c0,0,0.8,0.1,1,1c0.2,0.9-0.9,1.2-1.1,0.7C422.2,69.2,422.6,67.9,422.6,67.9z"/>
	<path fill="#9BC9EC" d="M412,54c0,0,3.9-5.1-24.3-7.5c-28.2-2.3-44.7-3.7-44.7-3.7s1,2.5,1,3.2c0.1,1,0.1,2.2,0.1,2.2
		S409.1,49.1,412,54z"/>
	
		<linearGradient id="SVGID_10_" gradientUnits="userSpaceOnUse" x1="88.6719" y1="48.9005" x2="109.0899" y2="48.9005" gradientTransform="matrix(-1 0 0 1 431.1655 0)">
		<stop  offset="0" style="stop-color:#C2DFF3"/>
		<stop  offset="1" style="stop-color:#94C5EA"/>
	</linearGradient>
	<polygon fill="url(#SVGID_10_)" points="342.5,48.9 322.1,47.4 323.2,50 342.4,50.4 	"/>
	
		<linearGradient id="SVGID_11_" gradientUnits="userSpaceOnUse" x1="89.1269" y1="44.4041" x2="106.7129" y2="44.4041" gradientTransform="matrix(-1 0 0 1 431.1655 0)">
		<stop  offset="0" style="stop-color:#ADD2EE"/>
		<stop  offset="0.3443" style="stop-color:#ADD2EE"/>
		<stop  offset="0.7828" style="stop-color:#94C5EA"/>
	</linearGradient>
	<path fill="url(#SVGID_11_)" d="M342,48c0,0-11-0.6-13.2-1c-2.2-0.4-4.4-0.8-4.4-1.3c0-0.1,0.3-0.4,0.7-0.8c0.8-0.8,2.2-2,3.1-2.8
		c0.7-0.6,1.6-1.3,1.6-1.3s-0.1,1.2,2.8,1.5c2.5,0.3,8.2,0.5,8.2,0.5S342.1,44.6,342,48z"/>
	
		<linearGradient id="SVGID_12_" gradientUnits="userSpaceOnUse" x1="109.8936" y1="48.4984" x2="169.1182" y2="48.4984" gradientTransform="matrix(-1 0 0 1 431.1655 0)">
		<stop  offset="0" style="stop-color:#B7D8F1"/>
		<stop  offset="1" style="stop-color:#94C5EA"/>
	</linearGradient>
	<path fill="url(#SVGID_12_)" d="M321.3,50.6c0,0-22.4-0.3-38.9-0.5c-16.6-0.2-20.3-0.8-20.3-0.8l1.1-3l56.2,1.2L321.3,50.6z"/>
	<polygon fill="#3B4451" points="224.8,36.6 222.5,74.7 224,74.7 223.4,78.8 225,78.7 225,36.3 	"/>
	<polygon fill="#3B4451" points="151.1,41.5 149.1,74.8 151.1,74.8 148.9,79.3 152.2,78.9 152.6,41.2 	"/>
	<polygon fill="#3B4451" points="84.6,39.9 83.1,74.1 83.6,78.8 85.8,78.2 86.1,40.1 	"/>
	<polygon fill="#3B4451" points="12.9,36.1 12.2,35.8 9.9,73.5 11.5,74.1 9.6,78.6 13.4,78.6 	"/>
	<g>
		<rect x="31.5" y="32.8" fill="#697A8C" width="180.5" height="5.5"/>
		<path fill="#363A3B" d="M31.3,32.6h181v6h-181V32.6z M211.8,33.1H31.7v5.1h180.1V33.1z"/>
	</g>
	<polygon fill="#262B33" points="0.2,72.5 243,74.8 243,75.8 0,73.9 	"/>
	<g>
		<polygon fill="#697A8C" points="229.6,36.1 229.6,80.4 225.1,80.4 225.1,36.1 		"/>
		<path fill="#363A3B" d="M224.9,35.8l4.9,0v44.7h-4.9V35.8z M229.4,36.3l-4.1,0v43.9h4.1V36.3z"/>
	</g>
	<g>
		<polygon fill="#697A8C" points="156.9,36.1 156.9,80.4 152.4,80.4 152.4,36.1 		"/>
		<path fill="#363A3B" d="M152.2,35.8l4.9,0v44.7h-4.9V35.8z M156.7,36.3l-4.1,0v43.9h4.1V36.3z"/>
	</g>
	<g>
		<polygon fill="#697A8C" points="90.5,36.1 90.5,80.4 86,80.4 86,36.1 		"/>
		<path fill="#363A3B" d="M85.8,35.8l4.9,0v44.7h-4.9V35.8z M90.3,36.3l-4.1,0v43.9h4.1V36.3z"/>
	</g>
	<g>
		<polygon fill="#697A8C" points="17.4,36.1 17.4,80.4 12.9,80.4 12.9,36.1 		"/>
		<path fill="#363A3B" d="M12.7,35.8l4.9,0v44.7h-4.9V35.8z M17.2,36.3l-4.1,0v43.9h4.1V36.3z"/>
	</g>
	<polygon fill="#3B4451" points="16.4,37.1 16.4,76.8 14.8,76.8 14.8,36.9 	"/>
	<polygon fill="#3B4451" points="89.3,37.1 89.3,76.8 87.7,76.8 87.7,36.9 	"/>
	<polygon fill="#3B4451" points="155.6,37.1 155.6,76.8 154,76.8 154,36.9 	"/>
	<polygon fill="#3B4451" points="228.3,37.1 228.3,76.8 226.7,76.8 226.7,36.9 	"/>
	<path fill="#385982" d="M323.7,102l2.5-0.4l0-0.2c0-0.2,4.4-21.4,6.3-29.7c2.8-12.5,12.2-14,20.8-14.4c9.4-0.4,61-0.3,61.5-0.3
		l0-0.7c-0.5,0-52.2-0.1-61.6,0.3c-8.8,0.4-18.4,1.9-21.4,14.9c-1.8,7.8-5.7,27.2-6.2,29.5l-2,0.4L323.7,102z"/>
	<path fill="#638FBF" d="M254.8,12.5c0,0-2.3,17.9-2.2,31.3c0.1,16.2,0.3,41.4,0.3,41.4l-5.6-0.3c0,0-1.2-9.1-0.9-19.7
		c0.3-10.7,1.2-34.5,1.8-40.7c0.6-6.1,2.2-11.6,2.2-11.6S251.4,11.6,254.8,12.5z"/>
	<path fill="#1C1D21" d="M220.5,99.7c0,0-5.9,0.2-18.8,0.5c-12.8,0.3-23.1-1.2-23.1-1.2s11.3-3.7,19.7-3.8c2.3,0,5.4-0.5,8.1,0
		C213.6,96.5,220.5,99.7,220.5,99.7z"/>
	<g>
		<path fill="#697A8C" d="M199.6,84.5v4.2c0,0-0.1,1.5,1.4,1.5c1.5,0,6.4,0,6.4,0s1.6,0.1,1.6-1.2c0-1.4,0-4.8,0-4.8
			s0.3-1.2-1.2-1.2c-1.5,0-7,0-7,0S199.6,82.5,199.6,84.5z"/>
		<path fill="#363A3B" d="M207.4,90.4H201c-0.5,0-0.9-0.2-1.2-0.5c-0.5-0.5-0.4-1.3-0.4-1.3v-4.2c0-1.6,0.8-1.8,1.2-1.8
			c0.1,0,0.2,0,0.3,0h7c0.6,0,1,0.2,1.2,0.5c0.3,0.4,0.2,0.9,0.2,1v4.8c0,0.7-0.4,1.1-0.7,1.2c-0.4,0.2-0.8,0.2-1,0.2
			C207.5,90.4,207.4,90.4,207.4,90.4z M200.9,83.1L200.9,83.1c-0.1,0-0.1,0-0.3,0c-0.6,0-0.8,0.8-0.8,1.4l0,4.2c0,0,0,0.6,0.3,1
			c0.2,0.2,0.5,0.3,0.9,0.3l6.5,0c0,0,0.5,0,0.9-0.2c0.3-0.2,0.5-0.5,0.5-0.9v-4.8l0-0.1c0,0,0.1-0.4-0.1-0.6
			c-0.2-0.2-0.4-0.3-0.9-0.3H200.9z"/>
	</g>
	<g>
		<path fill="#697A8C" d="M178.3,84.5v4.2c0,0-0.1,1.5,1.4,1.5c1.5,0,6.4,0,6.4,0s1.6,0.1,1.6-1.2c0-1.4,0-4.8,0-4.8
			s0.3-1.2-1.2-1.2c-1.5,0-7,0-7,0S178.3,82.5,178.3,84.5z"/>
		<path fill="#363A3B" d="M186.1,90.4h-6.4c-0.5,0-0.9-0.2-1.2-0.5c-0.5-0.5-0.4-1.3-0.4-1.3v-4.2c0-1.6,0.8-1.8,1.2-1.8
			c0.1,0,0.2,0,0.3,0h7c0.6,0,1,0.2,1.2,0.5c0.3,0.4,0.2,0.9,0.2,1v4.8c0,0.7-0.4,1.1-0.7,1.2c-0.4,0.2-0.8,0.2-1,0.2
			C186.2,90.4,186.2,90.4,186.1,90.4z M179.6,83.1L179.6,83.1c-0.1,0-0.1,0-0.3,0c-0.6,0-0.8,0.8-0.8,1.4v4.2c0,0,0,0.6,0.3,1
			c0.2,0.2,0.5,0.3,0.9,0.3l6.5,0c0,0,0.5,0,0.9-0.2c0.3-0.2,0.5-0.5,0.5-0.9v-4.8l0-0.1c0,0,0.1-0.4-0.1-0.6
			c-0.2-0.2-0.4-0.3-0.9-0.3H179.6z"/>
	</g>
	<g>
		<circle fill="#7BAED8" cx="339.8" cy="55.4" r="2.5"/>
		<path fill="#385982" d="M337.1,55.4c0-1.5,1.2-2.7,2.7-2.7c1.5,0,2.7,1.2,2.7,2.7c0,1.5-1.2,2.7-2.7,2.7
			C338.3,58,337.1,56.8,337.1,55.4z M337.5,55.4c0,1.2,1,2.2,2.2,2.2c1.2,0,2.2-1,2.2-2.2c0-1.2-1-2.2-2.2-2.2
			C338.5,53.1,337.5,54.1,337.5,55.4z"/>
	</g>
	<g>
		<circle fill="#7BAED8" cx="329.7" cy="54" r="2.4"/>
		<path fill="#385982" d="M327.1,54c0-1.4,1.2-2.6,2.6-2.6c1.4,0,2.6,1.2,2.6,2.6s-1.2,2.6-2.6,2.6C328.3,56.6,327.1,55.4,327.1,54z
			 M327.6,54c0,1.2,1,2.1,2.1,2.1c1.2,0,2.1-1,2.1-2.1c0-1.2-1-2.1-2.1-2.1C328.5,51.9,327.6,52.8,327.6,54z"/>
	</g>
	<path fill="#668FC4" d="M341.1,24.6l-0.3,30.6c0,0,0,0.8-0.7,1c-0.8,0.1-1-0.7-1-0.7l0.5-30.4L341.1,24.6z"/>
	<path fill="#668FC4" d="M338.4,19.3c0,0,1.5,1.9,0.7,2.5c-0.8,0.6-2.4,4.5-2.4,4.5l-5.8,27.6c0,0-0.3,0.8-1,1c-0.8,0.2-1-0.9-1-0.9
		s5.3-23,6.3-28.1C336.2,20.6,338.4,19.3,338.4,19.3z"/>
	<path fill="#1C1D21" d="M337,6.3c0.2,1.4,1.4,19.3,1.4,19.3h1.2c0,0,1.1,0.1,1.4,0c0.4-0.1,1.1-0.4,1-1.6c-0.1-1.3,0-3.4-0.1-6.7
		c-0.1-6.5-1-10.5-1.2-11.3c-0.2-0.8-0.7-1.2-2-1C337.4,5.3,336.9,5.2,337,6.3z"/>
</g>
</svg>
