<?xml version="1.0" encoding="utf-8"?>
<!-- Generator: Adobe Illustrator 18.1.1, SVG Export Plug-In . SVG Version: 6.00 Build 0)  -->
<svg version="1.1" id="Layer_1" xmlns="http://www.w3.org/2000/svg" xmlns:xlink="http://www.w3.org/1999/xlink" x="0px" y="0px"
	 viewBox="0 0 438 148.7" enable-background="new 0 0 438 148.7" xml:space="preserve">
<g>
	<ellipse opacity="0.3" fill="#857C6F" enable-background="new    " cx="219.6" cy="129.6" rx="218.4" ry="19.2"/>
	<path opacity="0.3" fill="#DEEEE1" d="M322,35.9L296.9,6.5c0,0-4.9,4-4.9,5.9c0,2,0.4,5.3,3.1,12.2c2.6,6.9,5.9,13.5,8,14.3
		c2.1,0.7,11.1,0.5,13.8,0.5c2.7,0,5.4-1.7,5.4-2.4S322,35.9,322,35.9z"/>
	<path opacity="0.3" fill="#DEEEE1" d="M115.3,14.8L89.7,38.5c0,0-2.4,1.3,2.8,2c5.2,0.7,17.6,0.1,17.6,0.1l14.8-17.3l-7.5-7.7
		L115.3,14.8z"/>
	<path opacity="0.3" fill="#DEEEE1" d="M243.1,11.7c0,0-2.1-0.1-2.8,0.5c-0.7,0.7-1,1.9-1,1.9l-0.3,24.4c0,0-0.1,1.8,2,1.9
		c2,0.1,45.6,0,45.6,0s2.9-0.6,4.6-2.2c1.6-1.6,0.6-4.6-1.5-10c-2-5.4-5.8-14.7-5.8-14.7s-0.3-1.9-2.9-2
		C277.7,11.5,279,11.4,243.1,11.7z"/>
	<path opacity="0.3" fill="#DEEEE1" d="M167,18.1c0,0,0.7-2.3-1.9-3c-2.6-0.7-11.7,0.7-17.7,2.8c-9.4,3.2-14,6.6-17.9,10.1
		c-3.3,3-6.8,6.5-6.6,9.7c0.2,2.3,1.3,3.1,5.5,3.2c4.3,0,29.8-0.3,29.8-0.3s2.9-0.6,3.8-3.6C162.9,34,167,18.1,167,18.1z"/>
	<path opacity="0.3" fill="#DEEEE1" d="M177.1,15.3l-5.6,20.3c0,0-0.5,3.5,1.6,4c2.1,0.5,8.1,0.5,8.1,0.5h44.5c0,0,2.3-0.2,2.7-2
		c0.3-1.8,0.1-23.7,0.1-23.7s-0.2-1.8-2.2-1.8c-2,0-44.6,0.8-44.6,0.8S177.9,13,177.1,15.3z"/>
	<path fill="#B5B3C5" d="M427.7,76h7.8c0,0,2.2,0.6,2.4,5.5c0.2,3.8-0.5,4-3.8,6c-1.9,1.2-7-3.8-7-3.8L427.7,76z"/>
	<path fill="#FFFFFF" d="M426.5,76.6c0,0,5.9-0.3,7.6,0.1c2,0.4,2.3,1.3,2.1,2.2c-0.2,1-1,1.4-2.4,1.7c-1.4,0.3-5.2,0.3-5.2,0.3
		l-4-0.7c0,0,1.2-2,1.5-2.5C426.5,77.2,426.5,76.6,426.5,76.6z"/>
	<linearGradient id="SVGID_1_" gradientUnits="userSpaceOnUse" x1="428.1903" y1="83.9297" x2="438.001" y2="83.9297">
		<stop  offset="0.4549" style="stop-color:#474747"/>
		<stop  offset="1" style="stop-color:#636666"/>
	</linearGradient>
	<path fill="url(#SVGID_1_)" d="M437.8,80.5c0,0,0.3,2.7,0.1,3.7s-3,3-3,3s0-1.8-0.6-2.3c-0.6-0.5-6.1-2.9-6.1-2.9s4.5,0.2,6.3,0
		C437.7,81.8,437.8,80.5,437.8,80.5z"/>
	<path fill="#0F0D09" d="M316.7,106.4c0,0,18.3-1.3,23.1-0.3c4.9,1,50-3.4,51.2-3.6c1.1-0.2,9-5.1,9-5.1l2.3-2.8
		c0,0,7.8-1.5,8.3-1.5c0.5,0,17.2,1.4,16.3-7.7c-1-9.1,2.3-20.8-10.2-23.9c-12.6-3.1-28.5-7.8-41.1-6.8c-12.6,1-14.3,0.3-25.8,5.2
		c-11.4,4.9-15.8,5.4-18.9,10.6c-3.1,5.2-3.7,12.9-6.2,18.1C322.3,93.9,316.7,106.4,316.7,106.4z"/>
	<g>
		<radialGradient id="SVGID_2_" cx="113.7302" cy="98.7158" r="29.3378" gradientUnits="userSpaceOnUse">
			<stop  offset="0.7049" style="stop-color:#121111"/>
			<stop  offset="0.8484" style="stop-color:#2D2C2D"/>
			<stop  offset="1" style="stop-color:#181717"/>
		</radialGradient>
		<circle fill="url(#SVGID_2_)" cx="113.7" cy="98.7" r="29.3"/>
		<radialGradient id="SVGID_3_" cx="113.7304" cy="98.7163" r="23.7146" gradientUnits="userSpaceOnUse">
			<stop  offset="0.6721" style="stop-color:#858484"/>
			<stop  offset="1" style="stop-color:#DADBD9"/>
		</radialGradient>
		<circle fill="url(#SVGID_3_)" cx="113.7" cy="98.7" r="23.7"/>
		<radialGradient id="SVGID_4_" cx="113.7302" cy="98.7168" r="16.9918" gradientUnits="userSpaceOnUse">
			<stop  offset="0.7131" style="stop-color:#444343"/>
			<stop  offset="0.7746" style="stop-color:#858484"/>
			<stop  offset="0.8602" style="stop-color:#838282"/>
			<stop  offset="0.8996" style="stop-color:#7E7D7C"/>
			<stop  offset="0.9295" style="stop-color:#757473"/>
			<stop  offset="0.9547" style="stop-color:#696767"/>
			<stop  offset="0.9768" style="stop-color:#595858"/>
			<stop  offset="0.9966" style="stop-color:#474646"/>
			<stop  offset="1" style="stop-color:#444343"/>
		</radialGradient>
		<circle fill="url(#SVGID_4_)" cx="113.7" cy="98.7" r="17"/>
		<radialGradient id="SVGID_5_" cx="113.7304" cy="98.7172" r="12.3056" gradientUnits="userSpaceOnUse">
			<stop  offset="0.5656" style="stop-color:#D4D3D4"/>
			<stop  offset="1" style="stop-color:#858484"/>
		</radialGradient>
		<circle fill="url(#SVGID_5_)" cx="113.7" cy="98.7" r="12.3"/>
		<radialGradient id="SVGID_6_" cx="113.7309" cy="98.7173" r="2.4448" gradientUnits="userSpaceOnUse">
			<stop  offset="0.5656" style="stop-color:#858484"/>
			<stop  offset="0.8033" style="stop-color:#D4D3D4"/>
			<stop  offset="0.8509" style="stop-color:#D0CFCF"/>
			<stop  offset="0.9011" style="stop-color:#C5C4C4"/>
			<stop  offset="0.9303" style="stop-color:#BCBABA"/>
			<stop  offset="1" style="stop-color:#858484"/>
		</radialGradient>
		<circle fill="url(#SVGID_6_)" cx="113.7" cy="98.7" r="2.4"/>
		<g>
			<path fill="#272626" d="M113.7,111.5c-0.2,0-0.4,0.2-0.4,0.4v2.8c0,0.2,0.2,0.4,0.4,0.4c0.2,0,0.4-0.2,0.4-0.4V112
				C114.2,111.7,114,111.5,113.7,111.5z"/>
			<path fill="#272626" d="M113.7,82.2c-0.2,0-0.4,0.2-0.4,0.4v2.8c0,0.2,0.2,0.4,0.4,0.4c0.2,0,0.4-0.2,0.4-0.4v-2.8
				C114.2,82.4,114,82.2,113.7,82.2z"/>
			<path fill="#272626" d="M97.7,99.2h2.8c0.2,0,0.4-0.2,0.4-0.4c0-0.2-0.2-0.4-0.4-0.4h-2.8c-0.2,0-0.4,0.2-0.4,0.4
				C97.2,99,97.4,99.2,97.7,99.2z"/>
			<path fill="#272626" d="M129.8,98.3H127c-0.2,0-0.4,0.2-0.4,0.4c0,0.2,0.2,0.4,0.4,0.4h2.8c0.2,0,0.4-0.2,0.4-0.4
				C130.2,98.5,130,98.3,129.8,98.3z"/>
			<path fill="#272626" d="M104.7,107.8c-0.2-0.2-0.5-0.2-0.6,0l-2,2c-0.2,0.2-0.2,0.5,0,0.6c0.2,0.2,0.5,0.2,0.6,0l2-2
				C104.9,108.2,104.9,108,104.7,107.8z"/>
			<path fill="#272626" d="M122.8,89.7c0.2,0.2,0.5,0.2,0.6,0l2-2c0.2-0.2,0.2-0.5,0-0.6c-0.2-0.2-0.4-0.2-0.6,0l-2,2
				C122.6,89.2,122.6,89.5,122.8,89.7z"/>
			<path fill="#272626" d="M104.1,89.7c0.2,0.2,0.5,0.2,0.6,0c0.2-0.2,0.2-0.5,0-0.6l-2-2c-0.2-0.2-0.4-0.2-0.6,0
				c-0.2,0.2-0.2,0.5,0,0.6L104.1,89.7z"/>
			<path fill="#272626" d="M123.4,107.8c-0.2-0.2-0.5-0.2-0.6,0c-0.2,0.2-0.2,0.5,0,0.6l2,2c0.2,0.2,0.5,0.2,0.6,0
				c0.2-0.2,0.2-0.5,0-0.6L123.4,107.8z"/>
			<path fill="#272626" d="M108.7,110.5c-0.2-0.1-0.5,0-0.6,0.2l-1.1,2.6c-0.1,0.2,0,0.5,0.2,0.6c0.2,0.1,0.5,0,0.6-0.2l1.1-2.6
				C109,110.9,108.9,110.6,108.7,110.5z"/>
			<path fill="#272626" d="M118.8,87c0.2,0.1,0.5,0,0.6-0.2l1.1-2.6c0.1-0.2,0-0.5-0.2-0.6c-0.2-0.1-0.5,0-0.6,0.2l-1.1,2.6
				C118.4,86.6,118.5,86.9,118.8,87z"/>
			<path fill="#272626" d="M98.8,92.8l2.6,1.1c0.2,0.1,0.5,0,0.6-0.2c0.1-0.2,0-0.5-0.2-0.6L99.1,92c-0.2-0.1-0.5,0-0.6,0.2
				C98.5,92.5,98.6,92.7,98.8,92.8z"/>
			<path fill="#272626" d="M128.7,104.6l-2.6-1.1c-0.2-0.1-0.5,0-0.6,0.2c-0.1,0.2,0,0.5,0.2,0.6l2.6,1.1c0.2,0.1,0.5,0,0.6-0.2
				C129,105,128.9,104.7,128.7,104.6z"/>
			<path fill="#272626" d="M101.9,103.5c-0.1-0.2-0.3-0.3-0.6-0.2l-2.6,1.1c-0.2,0.1-0.3,0.3-0.2,0.6c0.1,0.2,0.3,0.3,0.6,0.2
				l2.6-1.1C101.8,104,101.9,103.7,101.9,103.5z"/>
			<path fill="#272626" d="M125.6,94c0.1,0.2,0.3,0.3,0.6,0.2l2.6-1.1c0.2-0.1,0.3-0.3,0.2-0.6c-0.1-0.2-0.3-0.3-0.6-0.2l-2.6,1.1
				C125.6,93.5,125.5,93.7,125.6,94z"/>
			<path fill="#272626" d="M108.4,86.6c0.1,0.2,0.3,0.3,0.6,0.2c0.2-0.1,0.3-0.3,0.2-0.6l-1.1-2.6c-0.1-0.2-0.3-0.3-0.6-0.2
				c-0.2,0.1-0.3,0.3-0.2,0.6L108.4,86.6z"/>
			<path fill="#272626" d="M119.1,110.9c-0.1-0.2-0.3-0.3-0.6-0.2c-0.2,0.1-0.3,0.3-0.2,0.6l1.1,2.6c0.1,0.2,0.3,0.3,0.6,0.2
				c0.2-0.1,0.3-0.3,0.2-0.6L119.1,110.9z"/>
			<path fill="#272626" d="M111.2,111.3c-0.2,0-0.5,0.1-0.5,0.3l-0.6,2.8c0,0.2,0.1,0.5,0.3,0.5c0.2,0,0.5-0.1,0.5-0.3l0.6-2.8
				C111.6,111.6,111.4,111.3,111.2,111.3z"/>
			<path fill="#272626" d="M116.3,86.2c0.2,0,0.5-0.1,0.5-0.3l0.6-2.8c0-0.2-0.1-0.5-0.3-0.5c-0.2,0-0.5,0.1-0.5,0.3l-0.6,2.8
				C115.9,85.9,116,86.1,116.3,86.2z"/>
			<path fill="#272626" d="M97.9,96l2.8,0.6c0.2,0,0.5-0.1,0.5-0.3c0-0.2-0.1-0.5-0.3-0.5l-2.8-0.6c-0.2,0-0.5,0.1-0.5,0.3
				C97.5,95.7,97.7,96,97.9,96z"/>
			<path fill="#272626" d="M129.6,101.5l-2.8-0.6c-0.2,0-0.5,0.1-0.5,0.3c0,0.2,0.1,0.5,0.3,0.5l2.8,0.6c0.2,0,0.5-0.1,0.5-0.3
				C130,101.8,129.8,101.5,129.6,101.5z"/>
			<path fill="#272626" d="M103.1,105.8c-0.1-0.2-0.4-0.3-0.6-0.1l-2.4,1.6c-0.2,0.1-0.3,0.4-0.1,0.6c0.1,0.2,0.4,0.3,0.6,0.1
				l2.4-1.6C103.2,106.3,103.2,106,103.1,105.8z"/>
			<path fill="#272626" d="M124.4,91.7c0.1,0.2,0.4,0.3,0.6,0.1l2.4-1.6c0.2-0.1,0.3-0.4,0.1-0.6c-0.1-0.2-0.4-0.3-0.6-0.1l-2.4,1.6
				C124.3,91.2,124.3,91.5,124.4,91.7z"/>
			<path fill="#272626" d="M106,88c0.1,0.2,0.4,0.3,0.6,0.1c0.2-0.1,0.3-0.4,0.1-0.6l-1.6-2.4c-0.1-0.2-0.4-0.3-0.6-0.1
				c-0.2,0.1-0.3,0.4-0.1,0.6L106,88z"/>
			<path fill="#272626" d="M121.4,109.5c-0.1-0.2-0.4-0.3-0.6-0.1c-0.2,0.1-0.3,0.4-0.1,0.6l1.6,2.4c0.1,0.2,0.4,0.3,0.6,0.1
				c0.2-0.1,0.3-0.4,0.1-0.6L121.4,109.5z"/>
			<path fill="#272626" d="M106.5,109.3c-0.2-0.1-0.5-0.1-0.6,0.1l-1.6,2.3c-0.1,0.2-0.1,0.5,0.1,0.6c0.2,0.1,0.5,0.1,0.6-0.1
				l1.6-2.3C106.7,109.7,106.7,109.4,106.5,109.3z"/>
			<path fill="#272626" d="M121,88.2c0.2,0.1,0.5,0.1,0.6-0.1l1.6-2.3c0.1-0.2,0.1-0.5-0.1-0.6c-0.2-0.1-0.5-0.1-0.6,0.1l-1.6,2.3
				C120.7,87.8,120.8,88.1,121,88.2z"/>
			<path fill="#272626" d="M102.6,91.6c0.2,0.1,0.5,0.1,0.6-0.1c0.1-0.2,0.1-0.5-0.1-0.6l-2.3-1.6c-0.2-0.1-0.5-0.1-0.6,0.1
				c-0.1,0.2-0.1,0.5,0.1,0.6L102.6,91.6z"/>
			<path fill="#272626" d="M124.9,105.9c-0.2-0.1-0.5-0.1-0.6,0.1c-0.1,0.2-0.1,0.5,0.1,0.6l2.3,1.6c0.2,0.1,0.5,0.1,0.6-0.1
				c0.1-0.2,0.1-0.5-0.1-0.6L124.9,105.9z"/>
			<path fill="#272626" d="M100.8,101.6c0.2,0,0.4-0.3,0.4-0.5c0-0.2-0.3-0.4-0.5-0.4l-2.8,0.5c-0.2,0-0.4,0.3-0.4,0.5
				c0,0.2,0.3,0.4,0.5,0.4L100.8,101.6z"/>
			<path fill="#272626" d="M126.7,95.9c-0.2,0-0.4,0.3-0.4,0.5c0,0.2,0.3,0.4,0.5,0.4l2.8-0.5c0.2,0,0.4-0.3,0.4-0.5
				c0-0.2-0.3-0.4-0.5-0.4L126.7,95.9z"/>
			<path fill="#272626" d="M111.2,82.9c0-0.2-0.3-0.4-0.5-0.4c-0.2,0-0.4,0.3-0.4,0.5l0.5,2.8c0,0.2,0.3,0.4,0.5,0.4
				c0.2,0,0.4-0.3,0.4-0.5L111.2,82.9z"/>
			<path fill="#272626" d="M116.1,111.3c-0.2,0-0.4,0.3-0.4,0.5l0.5,2.8c0,0.2,0.3,0.4,0.5,0.4c0.2,0,0.4-0.3,0.4-0.5l-0.5-2.8
				C116.5,111.4,116.3,111.3,116.1,111.3z"/>
			<path fill="#272626" d="M112.5,111.5c-0.2,0-0.5,0.2-0.5,0.4l-0.3,2.8c0,0.2,0.2,0.5,0.4,0.5c0.2,0,0.5-0.1,0.5-0.4l0.3-2.8
				C112.9,111.7,112.7,111.5,112.5,111.5z"/>
			<path fill="#272626" d="M115,86c0.2,0,0.5-0.2,0.5-0.4l0.3-2.8c0-0.2-0.2-0.5-0.4-0.5c-0.2,0-0.5,0.2-0.5,0.4l-0.3,2.8
				C114.6,85.8,114.7,86,115,86z"/>
			<path fill="#272626" d="M97.7,97.6l2.8,0.3c0.2,0,0.5-0.2,0.5-0.4c0-0.2-0.2-0.5-0.4-0.5l-2.8-0.3c-0.2,0-0.5,0.2-0.5,0.4
				C97.3,97.4,97.5,97.6,97.7,97.6z"/>
			<path fill="#272626" d="M129.8,99.9l-2.8-0.3c-0.2,0-0.5,0.2-0.5,0.4c0,0.2,0.2,0.5,0.4,0.5l2.8,0.3c0.2,0,0.5-0.2,0.5-0.4
				C130.2,100.1,130,99.9,129.8,99.9z"/>
			<path fill="#272626" d="M103.8,106.9c-0.2-0.2-0.4-0.2-0.6-0.1l-2.2,1.8c-0.2,0.2-0.2,0.4-0.1,0.6c0.2,0.2,0.4,0.2,0.6,0.1
				l2.2-1.8C104,107.3,104,107,103.8,106.9z"/>
			<path fill="#272626" d="M123.6,90.6c0.2,0.2,0.4,0.2,0.6,0.1l2.2-1.8c0.2-0.2,0.2-0.4,0.1-0.6c-0.2-0.2-0.4-0.2-0.6-0.1l-2.2,1.8
				C123.5,90.2,123.5,90.4,123.6,90.6z"/>
			<path fill="#272626" d="M105,88.8c0.2,0.2,0.4,0.2,0.6,0.1c0.2-0.2,0.2-0.4,0.1-0.6l-1.8-2.2c-0.2-0.2-0.4-0.2-0.6-0.1
				c-0.2,0.2-0.2,0.4-0.1,0.6L105,88.8z"/>
			<path fill="#272626" d="M122.5,108.7c-0.2-0.2-0.4-0.2-0.6-0.1c-0.2,0.2-0.2,0.4-0.1,0.6l1.8,2.2c0.2,0.2,0.4,0.2,0.6,0.1
				c0.2-0.2,0.2-0.4,0.1-0.6L122.5,108.7z"/>
			<path fill="#272626" d="M107.6,110c-0.2-0.1-0.5,0-0.6,0.2l-1.4,2.5c-0.1,0.2,0,0.5,0.2,0.6c0.2,0.1,0.5,0,0.6-0.2l1.4-2.5
				C107.9,110.3,107.8,110.1,107.6,110z"/>
			<path fill="#272626" d="M119.9,87.5c0.2,0.1,0.5,0,0.6-0.2l1.4-2.5c0.1-0.2,0-0.5-0.2-0.6c-0.2-0.1-0.5,0-0.6,0.2l-1.4,2.5
				C119.6,87.1,119.7,87.4,119.9,87.5z"/>
			<path fill="#272626" d="M99.4,91.4l2.5,1.4c0.2,0.1,0.5,0,0.6-0.2c0.1-0.2,0-0.5-0.2-0.6l-2.5-1.4c-0.2-0.1-0.5,0-0.6,0.2
				C99.1,91,99.2,91.3,99.4,91.4z"/>
			<path fill="#272626" d="M128,106.1l-2.5-1.4c-0.2-0.1-0.5,0-0.6,0.2c-0.1,0.2,0,0.5,0.2,0.6l2.5,1.4c0.2,0.1,0.5,0,0.6-0.2
				C128.3,106.5,128.2,106.2,128,106.1z"/>
			<path fill="#272626" d="M101.1,102.9c0.2-0.1,0.4-0.3,0.3-0.5c-0.1-0.2-0.3-0.4-0.5-0.3l-2.7,0.8c-0.2,0.1-0.4,0.3-0.3,0.5
				c0.1,0.2,0.3,0.4,0.5,0.3L101.1,102.9z"/>
			<path fill="#272626" d="M126.3,94.6c-0.2,0.1-0.4,0.3-0.3,0.5c0.1,0.2,0.3,0.4,0.5,0.3l2.7-0.8c0.2-0.1,0.4-0.3,0.3-0.5
				c-0.1-0.2-0.3-0.4-0.5-0.3L126.3,94.6z"/>
			<path fill="#272626" d="M109.6,86.2c0.1,0.2,0.3,0.4,0.5,0.3c0.2-0.1,0.4-0.3,0.3-0.5l-0.8-2.7c-0.1-0.2-0.3-0.4-0.5-0.3
				c-0.2,0.1-0.4,0.3-0.3,0.5L109.6,86.2z"/>
			<path fill="#272626" d="M117.9,111.3c-0.1-0.2-0.3-0.4-0.5-0.3c-0.2,0.1-0.4,0.3-0.3,0.5l0.8,2.7c0.1,0.2,0.3,0.4,0.5,0.3
				c0.2-0.1,0.4-0.3,0.3-0.5L117.9,111.3z"/>
			<path fill="#272626" d="M110,111c-0.2-0.1-0.5,0.1-0.5,0.3l-0.8,2.7c-0.1,0.2,0.1,0.5,0.3,0.5c0.2,0.1,0.5-0.1,0.6-0.3l0.8-2.7
				C110.3,111.3,110.2,111,110,111z"/>
			<path fill="#272626" d="M117.5,86.5c0.2,0.1,0.5-0.1,0.5-0.3l0.8-2.7c0.1-0.2-0.1-0.5-0.3-0.5c-0.2-0.1-0.5,0.1-0.5,0.3l-0.8,2.7
				C117.1,86.2,117.2,86.4,117.5,86.5z"/>
			<path fill="#272626" d="M98.2,94.5l2.7,0.8c0.2,0.1,0.5-0.1,0.5-0.3c0.1-0.2-0.1-0.5-0.3-0.5l-2.7-0.8c-0.2-0.1-0.5,0.1-0.5,0.3
				C97.9,94.1,98,94.4,98.2,94.5z"/>
			<path fill="#272626" d="M129.2,103l-2.7-0.8c-0.2-0.1-0.5,0.1-0.5,0.3c-0.1,0.2,0.1,0.5,0.3,0.5l2.7,0.8c0.2,0.1,0.5-0.1,0.6-0.3
				C129.6,103.3,129.5,103.1,129.2,103z"/>
			<path fill="#272626" d="M102.4,104.7c-0.1-0.2-0.4-0.3-0.6-0.2l-2.5,1.3c-0.2,0.1-0.3,0.4-0.2,0.6c0.1,0.2,0.4,0.3,0.6,0.2
				l2.5-1.3C102.5,105.2,102.5,105,102.4,104.7z"/>
			<path fill="#272626" d="M125,92.7c0.1,0.2,0.4,0.3,0.6,0.2l2.5-1.3c0.2-0.1,0.3-0.4,0.2-0.6c-0.1-0.2-0.4-0.3-0.6-0.2l-2.5,1.3
				C125,92.3,124.9,92.5,125,92.7z"/>
			<path fill="#272626" d="M107.1,87.3c0.1,0.2,0.4,0.3,0.6,0.2c0.2-0.1,0.3-0.4,0.2-0.6l-1.3-2.5c-0.1-0.2-0.4-0.3-0.6-0.2
				c-0.2,0.1-0.3,0.4-0.2,0.6L107.1,87.3z"/>
			<path fill="#272626" d="M120.3,110.2c-0.1-0.2-0.4-0.3-0.6-0.2c-0.2,0.1-0.3,0.4-0.2,0.6l1.3,2.5c0.1,0.2,0.4,0.3,0.6,0.2
				c0.2-0.1,0.3-0.4,0.2-0.6L120.3,110.2z"/>
			<path fill="#272626" d="M105.5,108.5c-0.2-0.2-0.5-0.1-0.6,0.1l-1.8,2.2c-0.2,0.2-0.1,0.5,0.1,0.6c0.2,0.2,0.5,0.1,0.6-0.1
				l1.8-2.2C105.7,109,105.7,108.7,105.5,108.5z"/>
			<path fill="#272626" d="M122,89c0.2,0.2,0.5,0.1,0.6-0.1l1.8-2.2c0.2-0.2,0.1-0.5-0.1-0.6c-0.2-0.2-0.5-0.1-0.6,0.1l-1.8,2.2
				C121.8,88.5,121.8,88.8,122,89z"/>
			<path fill="#272626" d="M103.3,90.5c0.2,0.2,0.5,0.1,0.6-0.1c0.2-0.2,0.1-0.5-0.1-0.6l-2.2-1.8c-0.2-0.2-0.5-0.1-0.6,0.1
				c-0.2,0.2-0.1,0.5,0.1,0.6L103.3,90.5z"/>
			<path fill="#272626" d="M124.1,106.9c-0.2-0.2-0.5-0.1-0.6,0.1c-0.2,0.2-0.1,0.5,0.1,0.6l2.2,1.8c0.2,0.2,0.5,0.1,0.6-0.1
				c0.2-0.2,0.1-0.5-0.1-0.6L124.1,106.9z"/>
			<path fill="#272626" d="M100.6,100.3c0.2,0,0.4-0.2,0.4-0.5c0-0.2-0.2-0.4-0.5-0.4l-2.8,0.2c-0.2,0-0.4,0.2-0.4,0.5
				c0,0.2,0.2,0.4,0.5,0.4L100.6,100.3z"/>
			<path fill="#272626" d="M126.9,97.2c-0.2,0-0.4,0.2-0.4,0.5c0,0.2,0.2,0.4,0.5,0.4l2.8-0.2c0.2,0,0.4-0.2,0.4-0.5
				c0-0.2-0.2-0.4-0.5-0.4L126.9,97.2z"/>
			<path fill="#272626" d="M112.3,82.3c-0.2,0-0.4,0.2-0.4,0.5l0.2,2.8c0,0.2,0.2,0.4,0.5,0.4c0.2,0,0.4-0.2,0.4-0.5l-0.2-2.8
				C112.8,82.5,112.6,82.3,112.3,82.3z"/>
			<path fill="#272626" d="M114.8,111.5c-0.2,0-0.4,0.2-0.4,0.5l0.2,2.8c0,0.2,0.2,0.4,0.5,0.4c0.2,0,0.4-0.2,0.4-0.5l-0.2-2.8
				C115.3,111.6,115.1,111.5,114.8,111.5z"/>
		</g>
	</g>
	<path fill="#0E0E0F" d="M434.3,43.8l-29.5-0.1c0,0-24.8-4.2-44-5.1c-19.2-0.8-38.2-1.2-38.2-1.2s-2.6,2.4-3.8,2.7
		c-1.2,0.4-0.6,0.6-7.2,1c-3.6,0.2-4.6,0.1-6.6,0.1c-2.1,0-5-1.2-5-1.2s-7.7-17.5-8.8-21.9s-1.5-7.7-0.7-9.2c0.8-1.5,3-5.1,3-5.1
		s-2.4-1.4-10.7-2c-9.7-0.6-26.8-0.5-46.9-0.4c-29.5,0.1-50.1,0.4-76,1.5c-23.4,1-36.3,6-41.5,8.7c-2,1-2.7,2.5-2.7,2.5
		s0,0.2,0.3,0.8l1.5,0.6l7.5,7.7l-7.2,8.5l-6.1,8.6c0,0-0.5,0-1.3,0l-0.1,0.1c0,0-12.4,0.6-17.6-0.1c-0.5-0.1-0.9-0.1-1.3-0.2
		c-3.9-0.4-3.8-1.3-3.8-1.3s-46.9,1.7-49.6,1.7c-1.8,0-2.4,1.8-2.4,1.8L2.3,43.3L14.2,70L7.4,85.6l0.5,9.3l9.6,1.8l52,5.1
		c0,0,2.4-1.2,6.8-4.2c5.4-3.7,11.2-8,11.2-8s43.8-1,47.1,0c3.3,1,5.1,6.4,6.7,11.2c1.6,4.9,3.9,6.7,3.9,6.7s164.5,0,165.1,0
		c0.7,0,11.9-0.4,11.9-0.4s8.3-9.6,12.5-14.9c7.1-9,16.7-19.6,19.6-21.5c2.9-2,14.8-1.9,26.8-1.7c16.4,0.2,17.4,5.7,21,11.7
		c3.6,6,3.9,10,3.9,10l16.7,2.6l2.6-4.6c-0.5-21.7,0.9-20.7,0.9-21.9c0-1,3.8-12.3,6.2-16.7C435,45.8,434.3,43.8,434.3,43.8z
		 M167,18.1c0,0-4.1,15.9-5,18.8c-1,2.9-3.8,3.6-3.8,3.6s-25.5,0.4-29.8,0.3c-4.2,0-5.3-0.9-5.5-3.2c-0.2-3.3,3.3-6.8,6.6-9.7
		c3.9-3.5,8.5-6.9,17.9-10.1c6.1-2.1,15.1-3.4,17.7-2.8C167.7,15.8,167,18.1,167,18.1z M228.3,38.1c-0.3,1.8-2.7,2-2.7,2h-44.5
		c0,0-6,0-8.1-0.5c-2.1-0.5-1.6-4-1.6-4l5.6-20.3c0.9-2.3,4.6-1.8,4.6-1.8s42.6-0.8,44.6-0.8c2,0,2.2,1.8,2.2,1.8
		S228.7,36.3,228.3,38.1z M291,38.2c-1.6,1.6-4.6,2.2-4.6,2.2s-43.5,0.1-45.6,0c-2-0.1-2-1.9-2-1.9l0.3-24.4c0,0,0.3-1.2,1-1.9
		c0.7-0.7,2.8-0.5,2.8-0.5c36-0.3,34.6-0.2,37.8-0.1c2.5,0.1,2.9,2,2.9,2s3.7,9.3,5.8,14.7C291.6,33.6,292.6,36.6,291,38.2z"/>
	<path fill="#0E0E0F" d="M122.6,24.7l-5,7.1l7.2-8.5l-7.5-7.7l-1.5-0.6c0.3,0.6,0.9,1.7,2.3,3.5C120.7,21.9,122.6,24.7,122.6,24.7z"
		/>
	<linearGradient id="SVGID_7_" gradientUnits="userSpaceOnUse" x1="5.2792" y1="46.8086" x2="434.4359" y2="46.8086">
		<stop  offset="0" style="stop-color:#413F42"/>
		<stop  offset="0.1721" style="stop-color:#2A292A"/>
		<stop  offset="0.4672" style="stop-color:#121111"/>
		<stop  offset="0.7541" style="stop-color:#2C2B2C"/>
		<stop  offset="1" style="stop-color:#403F41"/>
	</linearGradient>
	<path fill="url(#SVGID_7_)" d="M434.3,43.8c-21.1,0-133,0.2-199.3,0.2C161.7,44,5.6,42.4,5.6,42.4l-0.3,1l0.9,2.4
		c0,0,371.4,5.2,425.9,5.5c0.4-0.9,1.1-2.1,1.4-2.8C434.7,45.7,434.5,44.7,434.3,43.8z"/>
	<g>
		<radialGradient id="SVGID_8_" cx="370.4345" cy="98.7158" r="29.3379" gradientUnits="userSpaceOnUse">
			<stop  offset="0.7049" style="stop-color:#121111"/>
			<stop  offset="0.8484" style="stop-color:#2D2C2D"/>
			<stop  offset="1" style="stop-color:#181717"/>
		</radialGradient>
		<circle fill="url(#SVGID_8_)" cx="370.4" cy="98.7" r="29.3"/>
		<radialGradient id="SVGID_9_" cx="370.435" cy="98.7163" r="23.7143" gradientUnits="userSpaceOnUse">
			<stop  offset="0.6721" style="stop-color:#858484"/>
			<stop  offset="1" style="stop-color:#DADBD9"/>
		</radialGradient>
		<circle fill="url(#SVGID_9_)" cx="370.4" cy="98.7" r="23.7"/>
		<radialGradient id="SVGID_10_" cx="370.4345" cy="98.7168" r="16.9917" gradientUnits="userSpaceOnUse">
			<stop  offset="0.7131" style="stop-color:#444343"/>
			<stop  offset="0.7746" style="stop-color:#858484"/>
			<stop  offset="0.8602" style="stop-color:#838282"/>
			<stop  offset="0.8996" style="stop-color:#7E7D7C"/>
			<stop  offset="0.9295" style="stop-color:#757473"/>
			<stop  offset="0.9547" style="stop-color:#696767"/>
			<stop  offset="0.9768" style="stop-color:#595858"/>
			<stop  offset="0.9966" style="stop-color:#474646"/>
			<stop  offset="1" style="stop-color:#444343"/>
		</radialGradient>
		<circle fill="url(#SVGID_10_)" cx="370.4" cy="98.7" r="17"/>
		<radialGradient id="SVGID_11_" cx="370.4355" cy="98.7172" r="12.3059" gradientUnits="userSpaceOnUse">
			<stop  offset="0.5656" style="stop-color:#D4D3D4"/>
			<stop  offset="1" style="stop-color:#858484"/>
		</radialGradient>
		<circle fill="url(#SVGID_11_)" cx="370.4" cy="98.7" r="12.3"/>
		<radialGradient id="SVGID_12_" cx="370.434" cy="98.7173" r="2.4448" gradientUnits="userSpaceOnUse">
			<stop  offset="0.5656" style="stop-color:#858484"/>
			<stop  offset="0.8033" style="stop-color:#D4D3D4"/>
			<stop  offset="0.8509" style="stop-color:#D0CFCF"/>
			<stop  offset="0.9011" style="stop-color:#C5C4C4"/>
			<stop  offset="0.9303" style="stop-color:#BCBABA"/>
			<stop  offset="1" style="stop-color:#858484"/>
		</radialGradient>
		<circle fill="url(#SVGID_12_)" cx="370.4" cy="98.7" r="2.4"/>
		<g>
			<path fill="#272626" d="M370.4,111.5c-0.2,0-0.4,0.2-0.4,0.4v2.8c0,0.2,0.2,0.4,0.4,0.4c0.2,0,0.4-0.2,0.4-0.4V112
				C370.9,111.7,370.7,111.5,370.4,111.5z"/>
			<path fill="#272626" d="M370.4,82.2c-0.2,0-0.4,0.2-0.4,0.4v2.8c0,0.2,0.2,0.4,0.4,0.4c0.2,0,0.4-0.2,0.4-0.4v-2.8
				C370.9,82.4,370.7,82.2,370.4,82.2z"/>
			<path fill="#272626" d="M354.4,99.2h2.8c0.2,0,0.4-0.2,0.4-0.4c0-0.2-0.2-0.4-0.4-0.4h-2.8c-0.2,0-0.4,0.2-0.4,0.4
				C353.9,99,354.1,99.2,354.4,99.2z"/>
			<path fill="#272626" d="M386.5,98.3h-2.8c-0.2,0-0.4,0.2-0.4,0.4c0,0.2,0.2,0.4,0.4,0.4h2.8c0.2,0,0.4-0.2,0.4-0.4
				C386.9,98.5,386.7,98.3,386.5,98.3z"/>
			<path fill="#272626" d="M361.4,107.8c-0.2-0.2-0.4-0.2-0.6,0l-2,2c-0.2,0.2-0.2,0.5,0,0.6c0.2,0.2,0.5,0.2,0.6,0l2-2
				C361.6,108.2,361.6,108,361.4,107.8z"/>
			<path fill="#272626" d="M379.5,89.7c0.2,0.2,0.5,0.2,0.6,0l2-2c0.2-0.2,0.2-0.5,0-0.6c-0.2-0.2-0.5-0.2-0.6,0l-2,2
				C379.3,89.2,379.3,89.5,379.5,89.7z"/>
			<path fill="#272626" d="M360.8,89.7c0.2,0.2,0.5,0.2,0.6,0c0.2-0.2,0.2-0.5,0-0.6l-2-2c-0.2-0.2-0.4-0.2-0.6,0
				c-0.2,0.2-0.2,0.5,0,0.6L360.8,89.7z"/>
			<path fill="#272626" d="M380.1,107.8c-0.2-0.2-0.5-0.2-0.6,0c-0.2,0.2-0.2,0.5,0,0.6l2,2c0.2,0.2,0.5,0.2,0.6,0
				c0.2-0.2,0.2-0.5,0-0.6L380.1,107.8z"/>
			<path fill="#272626" d="M365.4,110.5c-0.2-0.1-0.5,0-0.6,0.2l-1.1,2.6c-0.1,0.2,0,0.5,0.2,0.6c0.2,0.1,0.5,0,0.6-0.2l1.1-2.6
				C365.7,110.9,365.6,110.6,365.4,110.5z"/>
			<path fill="#272626" d="M375.5,87c0.2,0.1,0.5,0,0.6-0.2l1.1-2.6c0.1-0.2,0-0.5-0.2-0.6c-0.2-0.1-0.5,0-0.6,0.2l-1.1,2.6
				C375.1,86.6,375.2,86.9,375.5,87z"/>
			<path fill="#272626" d="M355.5,92.8l2.6,1.1c0.2,0.1,0.5,0,0.6-0.2c0.1-0.2,0-0.5-0.2-0.6l-2.6-1.1c-0.2-0.1-0.5,0-0.6,0.2
				C355.2,92.5,355.3,92.7,355.5,92.8z"/>
			<path fill="#272626" d="M385.4,104.6l-2.6-1.1c-0.2-0.1-0.5,0-0.6,0.2c-0.1,0.2,0,0.5,0.2,0.6l2.6,1.1c0.2,0.1,0.5,0,0.6-0.2
				C385.7,105,385.6,104.7,385.4,104.6z"/>
			<path fill="#272626" d="M358.6,103.5c-0.1-0.2-0.3-0.3-0.6-0.2l-2.6,1.1c-0.2,0.1-0.3,0.3-0.2,0.6c0.1,0.2,0.3,0.3,0.6,0.2
				l2.6-1.1C358.5,104,358.7,103.7,358.6,103.5z"/>
			<path fill="#272626" d="M382.3,94c0.1,0.2,0.3,0.3,0.6,0.2l2.6-1.1c0.2-0.1,0.3-0.3,0.2-0.6c-0.1-0.2-0.3-0.3-0.6-0.2l-2.6,1.1
				C382.3,93.5,382.2,93.7,382.3,94z"/>
			<path fill="#272626" d="M365.1,86.6c0.1,0.2,0.3,0.3,0.6,0.2c0.2-0.1,0.3-0.3,0.2-0.6l-1.1-2.6c-0.1-0.2-0.3-0.3-0.6-0.2
				c-0.2,0.1-0.3,0.3-0.2,0.6L365.1,86.6z"/>
			<path fill="#272626" d="M375.8,110.9c-0.1-0.2-0.3-0.3-0.6-0.2c-0.2,0.1-0.3,0.3-0.2,0.6l1.1,2.6c0.1,0.2,0.3,0.3,0.6,0.2
				c0.2-0.1,0.3-0.3,0.2-0.6L375.8,110.9z"/>
			<path fill="#272626" d="M367.9,111.3c-0.2,0-0.5,0.1-0.5,0.3l-0.6,2.8c0,0.2,0.1,0.5,0.3,0.5c0.2,0,0.5-0.1,0.5-0.3l0.6-2.8
				C368.3,111.6,368.1,111.3,367.9,111.3z"/>
			<path fill="#272626" d="M373,86.2c0.2,0,0.5-0.1,0.5-0.3l0.6-2.8c0-0.2-0.1-0.5-0.3-0.5c-0.2,0-0.5,0.1-0.5,0.3l-0.6,2.8
				C372.6,85.9,372.7,86.1,373,86.2z"/>
			<path fill="#272626" d="M354.6,96l2.8,0.6c0.2,0,0.5-0.1,0.5-0.3c0-0.2-0.1-0.5-0.3-0.5l-2.8-0.6c-0.2,0-0.5,0.1-0.5,0.3
				C354.2,95.7,354.4,96,354.6,96z"/>
			<path fill="#272626" d="M386.3,101.5l-2.8-0.6c-0.2,0-0.5,0.1-0.5,0.3c0,0.2,0.1,0.5,0.3,0.5l2.8,0.6c0.2,0,0.5-0.1,0.5-0.3
				C386.7,101.8,386.5,101.5,386.3,101.5z"/>
			<path fill="#272626" d="M359.8,105.8c-0.1-0.2-0.4-0.3-0.6-0.1l-2.4,1.6c-0.2,0.1-0.3,0.4-0.1,0.6c0.1,0.2,0.4,0.3,0.6,0.1
				l2.4-1.6C359.9,106.3,359.9,106,359.8,105.8z"/>
			<path fill="#272626" d="M381.1,91.7c0.1,0.2,0.4,0.3,0.6,0.1l2.4-1.6c0.2-0.1,0.3-0.4,0.1-0.6c-0.1-0.2-0.4-0.3-0.6-0.1l-2.4,1.6
				C381,91.2,381,91.5,381.1,91.7z"/>
			<path fill="#272626" d="M362.7,88c0.1,0.2,0.4,0.3,0.6,0.1c0.2-0.1,0.3-0.4,0.1-0.6l-1.6-2.4c-0.1-0.2-0.4-0.3-0.6-0.1
				c-0.2,0.1-0.3,0.4-0.1,0.6L362.7,88z"/>
			<path fill="#272626" d="M378.1,109.5c-0.1-0.2-0.4-0.3-0.6-0.1c-0.2,0.1-0.3,0.4-0.1,0.6l1.6,2.4c0.1,0.2,0.4,0.3,0.6,0.1
				c0.2-0.1,0.3-0.4,0.1-0.6L378.1,109.5z"/>
			<path fill="#272626" d="M363.2,109.3c-0.2-0.1-0.5-0.1-0.6,0.1l-1.6,2.3c-0.1,0.2-0.1,0.5,0.1,0.6c0.2,0.1,0.5,0.1,0.6-0.1
				l1.6-2.3C363.4,109.7,363.4,109.4,363.2,109.3z"/>
			<path fill="#272626" d="M377.7,88.2c0.2,0.1,0.5,0.1,0.6-0.1l1.6-2.3c0.1-0.2,0.1-0.5-0.1-0.6c-0.2-0.1-0.5-0.1-0.6,0.1l-1.6,2.3
				C377.4,87.8,377.5,88.1,377.7,88.2z"/>
			<path fill="#272626" d="M359.3,91.6c0.2,0.1,0.5,0.1,0.6-0.1c0.1-0.2,0.1-0.5-0.1-0.6l-2.3-1.6c-0.2-0.1-0.5-0.1-0.6,0.1
				c-0.1,0.2-0.1,0.5,0.1,0.6L359.3,91.6z"/>
			<path fill="#272626" d="M381.6,105.9c-0.2-0.1-0.5-0.1-0.6,0.1c-0.1,0.2-0.1,0.5,0.1,0.6l2.3,1.6c0.2,0.1,0.5,0.1,0.6-0.1
				c0.1-0.2,0.1-0.5-0.1-0.6L381.6,105.9z"/>
			<path fill="#272626" d="M357.5,101.6c0.2,0,0.4-0.3,0.4-0.5c0-0.2-0.3-0.4-0.5-0.4l-2.8,0.5c-0.2,0-0.4,0.3-0.4,0.5
				c0,0.2,0.3,0.4,0.5,0.4L357.5,101.6z"/>
			<path fill="#272626" d="M383.4,95.9c-0.2,0-0.4,0.3-0.4,0.5c0,0.2,0.3,0.4,0.5,0.4l2.8-0.5c0.2,0,0.4-0.3,0.4-0.5
				c0-0.2-0.3-0.4-0.5-0.4L383.4,95.9z"/>
			<path fill="#272626" d="M367.9,82.9c0-0.2-0.3-0.4-0.5-0.4c-0.2,0-0.4,0.3-0.4,0.5l0.5,2.8c0,0.2,0.3,0.4,0.5,0.4
				c0.2,0,0.4-0.3,0.4-0.5L367.9,82.9z"/>
			<path fill="#272626" d="M372.8,111.3c-0.2,0-0.4,0.3-0.4,0.5l0.5,2.8c0,0.2,0.3,0.4,0.5,0.4c0.2,0,0.4-0.3,0.4-0.5l-0.5-2.8
				C373.2,111.4,373,111.3,372.8,111.3z"/>
			<path fill="#272626" d="M369.2,111.5c-0.2,0-0.5,0.2-0.5,0.4l-0.3,2.8c0,0.2,0.2,0.5,0.4,0.5c0.2,0,0.5-0.1,0.5-0.4l0.3-2.8
				C369.6,111.7,369.4,111.5,369.2,111.5z"/>
			<path fill="#272626" d="M371.7,86c0.2,0,0.5-0.2,0.5-0.4l0.3-2.8c0-0.2-0.2-0.5-0.4-0.5c-0.2,0-0.5,0.2-0.5,0.4l-0.3,2.8
				C371.3,85.8,371.5,86,371.7,86z"/>
			<path fill="#272626" d="M354.4,97.6l2.8,0.3c0.2,0,0.5-0.2,0.5-0.4c0-0.2-0.2-0.5-0.4-0.5l-2.8-0.3c-0.2,0-0.5,0.2-0.5,0.4
				C354,97.4,354.2,97.6,354.4,97.6z"/>
			<path fill="#272626" d="M386.5,99.9l-2.8-0.3c-0.2,0-0.5,0.2-0.5,0.4c0,0.2,0.2,0.5,0.4,0.5l2.8,0.3c0.2,0,0.5-0.2,0.5-0.4
				C386.9,100.1,386.7,99.9,386.5,99.9z"/>
			<path fill="#272626" d="M360.5,106.9c-0.2-0.2-0.4-0.2-0.6-0.1l-2.2,1.8c-0.2,0.2-0.2,0.4-0.1,0.6c0.2,0.2,0.4,0.2,0.6,0.1
				l2.2-1.8C360.7,107.3,360.7,107,360.5,106.9z"/>
			<path fill="#272626" d="M380.3,90.6c0.2,0.2,0.4,0.2,0.6,0.1l2.2-1.8c0.2-0.2,0.2-0.4,0.1-0.6c-0.2-0.2-0.4-0.2-0.6-0.1l-2.2,1.8
				C380.2,90.2,380.2,90.4,380.3,90.6z"/>
			<path fill="#272626" d="M361.7,88.8c0.2,0.2,0.4,0.2,0.6,0.1c0.2-0.2,0.2-0.4,0.1-0.6l-1.8-2.2c-0.2-0.2-0.4-0.2-0.6-0.1
				c-0.2,0.2-0.2,0.4-0.1,0.6L361.7,88.8z"/>
			<path fill="#272626" d="M379.2,108.7c-0.2-0.2-0.4-0.2-0.6-0.1c-0.2,0.2-0.2,0.4-0.1,0.6l1.8,2.2c0.2,0.2,0.4,0.2,0.6,0.1
				c0.2-0.2,0.2-0.4,0.1-0.6L379.2,108.7z"/>
			<path fill="#272626" d="M364.3,110c-0.2-0.1-0.5,0-0.6,0.2l-1.4,2.5c-0.1,0.2,0,0.5,0.2,0.6c0.2,0.1,0.5,0,0.6-0.2l1.4-2.5
				C364.6,110.3,364.5,110.1,364.3,110z"/>
			<path fill="#272626" d="M376.6,87.5c0.2,0.1,0.5,0,0.6-0.2l1.4-2.5c0.1-0.2,0-0.5-0.2-0.6c-0.2-0.1-0.5,0-0.6,0.2l-1.4,2.5
				C376.3,87.1,376.4,87.4,376.6,87.5z"/>
			<path fill="#272626" d="M356.1,91.4l2.5,1.4c0.2,0.1,0.5,0,0.6-0.2c0.1-0.2,0-0.5-0.2-0.6l-2.5-1.4c-0.2-0.1-0.5,0-0.6,0.2
				C355.9,91,355.9,91.3,356.1,91.4z"/>
			<path fill="#272626" d="M384.7,106.1l-2.5-1.4c-0.2-0.1-0.5,0-0.6,0.2c-0.1,0.2,0,0.5,0.2,0.6l2.5,1.4c0.2,0.1,0.5,0,0.6-0.2
				C385,106.5,384.9,106.2,384.7,106.1z"/>
			<path fill="#272626" d="M357.9,102.9c0.2-0.1,0.4-0.3,0.3-0.5c-0.1-0.2-0.3-0.4-0.5-0.3l-2.7,0.8c-0.2,0.1-0.4,0.3-0.3,0.5
				c0.1,0.2,0.3,0.4,0.5,0.3L357.9,102.9z"/>
			<path fill="#272626" d="M383,94.6c-0.2,0.1-0.4,0.3-0.3,0.5c0.1,0.2,0.3,0.4,0.5,0.3l2.7-0.8c0.2-0.1,0.4-0.3,0.3-0.5
				c-0.1-0.2-0.3-0.4-0.5-0.3L383,94.6z"/>
			<path fill="#272626" d="M366.3,86.2c0.1,0.2,0.3,0.4,0.5,0.3c0.2-0.1,0.4-0.3,0.3-0.5l-0.8-2.7c-0.1-0.2-0.3-0.4-0.5-0.3
				c-0.2,0.1-0.4,0.3-0.3,0.5L366.3,86.2z"/>
			<path fill="#272626" d="M374.6,111.3c-0.1-0.2-0.3-0.4-0.5-0.3c-0.2,0.1-0.4,0.3-0.3,0.5l0.8,2.7c0.1,0.2,0.3,0.4,0.5,0.3
				c0.2-0.1,0.4-0.3,0.3-0.5L374.6,111.3z"/>
			<path fill="#272626" d="M366.7,111c-0.2-0.1-0.5,0.1-0.5,0.3l-0.8,2.7c-0.1,0.2,0.1,0.5,0.3,0.5c0.2,0.1,0.5-0.1,0.5-0.3l0.8-2.7
				C367.1,111.3,366.9,111,366.7,111z"/>
			<path fill="#272626" d="M374.2,86.5c0.2,0.1,0.5-0.1,0.5-0.3l0.8-2.7c0.1-0.2-0.1-0.5-0.3-0.5s-0.5,0.1-0.5,0.3l-0.8,2.7
				C373.8,86.2,374,86.4,374.2,86.5z"/>
			<path fill="#272626" d="M354.9,94.5l2.7,0.8c0.2,0.1,0.5-0.1,0.6-0.3c0.1-0.2-0.1-0.5-0.3-0.5l-2.7-0.8c-0.2-0.1-0.5,0.1-0.5,0.3
				C354.6,94.1,354.7,94.4,354.9,94.5z"/>
			<path fill="#272626" d="M385.9,103l-2.7-0.8c-0.2-0.1-0.5,0.1-0.5,0.3c-0.1,0.2,0.1,0.5,0.3,0.5l2.7,0.8c0.2,0.1,0.5-0.1,0.6-0.3
				C386.3,103.3,386.2,103.1,385.9,103z"/>
			<path fill="#272626" d="M359.1,104.7c-0.1-0.2-0.4-0.3-0.6-0.2l-2.5,1.3c-0.2,0.1-0.3,0.4-0.2,0.6c0.1,0.2,0.4,0.3,0.6,0.2
				l2.5-1.3C359.2,105.2,359.2,105,359.1,104.7z"/>
			<path fill="#272626" d="M381.7,92.7c0.1,0.2,0.4,0.3,0.6,0.2l2.5-1.3c0.2-0.1,0.3-0.4,0.2-0.6c-0.1-0.2-0.4-0.3-0.6-0.2l-2.5,1.3
				C381.7,92.3,381.6,92.5,381.7,92.7z"/>
			<path fill="#272626" d="M363.8,87.3c0.1,0.2,0.4,0.3,0.6,0.2c0.2-0.1,0.3-0.4,0.2-0.6l-1.3-2.5c-0.1-0.2-0.4-0.3-0.6-0.2
				c-0.2,0.1-0.3,0.4-0.2,0.6L363.8,87.3z"/>
			<path fill="#272626" d="M377,110.2c-0.1-0.2-0.4-0.3-0.6-0.2c-0.2,0.1-0.3,0.4-0.2,0.6l1.3,2.5c0.1,0.2,0.4,0.3,0.6,0.2
				c0.2-0.1,0.3-0.4,0.2-0.6L377,110.2z"/>
			<path fill="#272626" d="M362.2,108.5c-0.2-0.2-0.5-0.1-0.6,0.1l-1.8,2.2c-0.2,0.2-0.1,0.5,0.1,0.6c0.2,0.2,0.5,0.1,0.6-0.1
				l1.8-2.2C362.4,109,362.4,108.7,362.2,108.5z"/>
			<path fill="#272626" d="M378.7,89c0.2,0.2,0.5,0.1,0.6-0.1l1.8-2.2c0.2-0.2,0.1-0.5-0.1-0.6c-0.2-0.2-0.5-0.1-0.6,0.1l-1.8,2.2
				C378.5,88.5,378.5,88.8,378.7,89z"/>
			<path fill="#272626" d="M360,90.5c0.2,0.2,0.5,0.1,0.6-0.1c0.2-0.2,0.1-0.5-0.1-0.6l-2.2-1.8c-0.2-0.2-0.5-0.1-0.6,0.1
				c-0.2,0.2-0.1,0.5,0.1,0.6L360,90.5z"/>
			<path fill="#272626" d="M380.8,106.9c-0.2-0.2-0.5-0.1-0.6,0.1c-0.2,0.2-0.1,0.5,0.1,0.6l2.2,1.8c0.2,0.2,0.5,0.1,0.6-0.1
				c0.2-0.2,0.1-0.5-0.1-0.6L380.8,106.9z"/>
			<path fill="#272626" d="M357.3,100.3c0.2,0,0.4-0.2,0.4-0.5c0-0.2-0.2-0.4-0.5-0.4l-2.8,0.2c-0.2,0-0.4,0.2-0.4,0.5
				c0,0.2,0.2,0.4,0.5,0.4L357.3,100.3z"/>
			<path fill="#272626" d="M383.6,97.2c-0.2,0-0.4,0.2-0.4,0.5c0,0.2,0.2,0.4,0.5,0.4l2.8-0.2c0.2,0,0.4-0.2,0.4-0.5
				c0-0.2-0.2-0.4-0.5-0.4L383.6,97.2z"/>
			<path fill="#272626" d="M369,82.3c-0.2,0-0.4,0.2-0.4,0.5l0.2,2.8c0,0.2,0.2,0.4,0.5,0.4c0.2,0,0.4-0.2,0.4-0.5l-0.2-2.8
				C369.5,82.5,369.3,82.3,369,82.3z"/>
			<path fill="#272626" d="M371.5,111.5c-0.2,0-0.4,0.2-0.4,0.5l0.2,2.8c0,0.2,0.2,0.4,0.5,0.4c0.2,0,0.4-0.2,0.4-0.5l-0.2-2.8
				C372,111.6,371.8,111.5,371.5,111.5z"/>
		</g>
	</g>
	<linearGradient id="SVGID_13_" gradientUnits="userSpaceOnUse" x1="179.9162" y1="106.7471" x2="179.9162" y2="86.375">
		<stop  offset="7.377050e-002" style="stop-color:#242322"/>
		<stop  offset="1" style="stop-color:#0E0E0F"/>
	</linearGradient>
	<path fill="url(#SVGID_13_)" d="M322.7,106.4c1-0.5,2-1,2.9-1.7c2.6-3,7.9-9.3,11-13.3c1.1-1.4,2.3-2.9,3.6-4.4l-319-0.6L19.6,96
		l51.9,5c0,0,2.4-1.2,6.8-4.2c5.4-3.7,11.2-8,11.2-8s43.8-1,47.1,0c3.3,1,5.1,6.4,6.7,11.2c1.6,4.9,3.9,6.7,3.9,6.7s164.5,0,165.1,0
		C312.8,106.7,319.6,106.5,322.7,106.4z"/>
	<path fill="#040404" d="M320.7,39.5c-0.7,0.2-1.7,0.6-3.6,0.9l-0.9,0.9l90.5,2.5c0,0-24.8-5.1-44-5.9c-18.2-0.8-38.4-1.5-40.5-1.6
		c0,0.1,0,0.3,0,0.6c0,0.2-0.1,0.4-0.4,0.6C321.7,38.3,321.4,39.3,320.7,39.5z"/>
	<path fill="#B5B3C5" d="M407.1,85.7c2.3-0.1,12.6-0.1,15-0.8c0-0.1,0.1-2,0.1-2s2.1-3.4,2.5-3.5c0.4-0.1,6.7,2.9,9,4.3
		c2.3,1.5,1.5,2.9,0.7,4.2c-0.9,1.4-1.8,2.1-1.8,2.1s-0.7,5-2.8,7.9c-2.4,3.4-5.2,3-9.2,3.9c-4.1,0.9-8.1,0.6-9.1-0.4
		c-4-3.9-5-9-5-9s-2-0.5-2.6-2.4C403.5,88.7,403.8,85.9,407.1,85.7z"/>
	<path fill="#3E474A" d="M433.1,89.4l-3.7,1.7c0,0-1,5.9-2.4,7.1c-1.4,1.2-6.6,2.1-11,2c-4.4-0.1-5.2-7.5-5.2-7.5l-5.2-2.1
		c0,0-0.1,0.6-0.2,1.4c0.6,0.4,1.1,0.5,1.1,0.5s1,5.1,5,9c1,1,5,1.3,9.1,0.4c4-0.9,6.8-0.5,9.2-3.9c2.1-2.9,2.8-7.9,2.8-7.9
		s0.2-0.2,0.6-0.6C433.1,89.5,433.1,89.4,433.1,89.4z"/>
	<path fill="#7B7B7E" d="M407.8,91.3l1.7,3.8c0,0,2,3.3,2.7,4.4c0.3,0.4,2,2.5,8.6,1.3c7.7-1.4,8.5-2.8,9.2-4.4
		c0.7-1.6,0.9-5.8,0.9-5.8s-6.1,1.2-12.2,1.3C412.5,92,407.8,91.3,407.8,91.3z"/>
	<path fill="#3E474A" d="M409.5,85.6c0,0-3.4,0.4-2.9,2.7c0.6,2.6,9.6,2.6,15.7,1.9c7.7-0.9,11.3-2.8,12.3-3.9
		c0.5-0.6,0.3-1.2,0.3-1.2s1.7,2.8-2.4,5.2c-2.6,1.5-5.5,2.6-13.3,2.9c-7.8,0.4-11.9-0.3-13.3-0.8c-1.5-0.6-2.2-1.9-2.3-3.5
		c-0.1-1.2,0.5-2.4,2.2-3C406.9,85.5,409.5,85.6,409.5,85.6z"/>
	<linearGradient id="SVGID_14_" gradientUnits="userSpaceOnUse" x1="409.8134" y1="98.2093" x2="426.3163" y2="98.2093">
		<stop  offset="0" style="stop-color:#ADAAC0"/>
		<stop  offset="1" style="stop-color:#7B7B7E"/>
	</linearGradient>
	<path fill="url(#SVGID_14_)" d="M409.8,95.3c0,0,1.9,5.1,4.7,5.6c6.1,1.1,11.8-1.4,11.8-1.4s-3.7,0.1-9.8-0.7
		C414,98.5,409.8,95.3,409.8,95.3z"/>
	<path fill="#FFFFFF" d="M408.8,87.1c0,0-1,1.8,5.3,1.9c6.4,0.1,14.1-1.5,15.4-2c1.2-0.4-3.3-0.9-6.6-0.5
		C419.4,86.9,408.3,85.9,408.8,87.1z"/>
	<path fill="#FFFFFF" d="M432.8,84.9c0,0-4.8-1-5-1.3c-0.2-0.3,0-2.2,0-2.2s2,1.1,3.2,2.1C432.2,84.5,432.8,84.9,432.8,84.9z"/>
	<path fill="#B7B2B2" d="M11.5,55.8c0,0-0.6-0.7,4.7-0.7c5.4,0,174.7-0.1,174.7-0.1s4.4-0.5,6.8,1.8c2.4,2.3,2.8,5.1,2.8,5.1
		s55.4,0.4,110.7,0.4c55.6,0,114-0.3,114.7-0.3c1.3,0,1.3,0.2,1.2,0.9c-0.2,1.1-2.7,0.9-2.7,0.9l-103.9,0.9c0,0-56.2,0.7-76.2,2.1
		c-19.9,1.3-31.2,2.3-46.7,9.7c-14.7,7.1-22.4,14.9-22.4,14.9l-0.9-0.4c0,0,14.3-14.2,16.6-16.6c5.1-5.4,8.6-10.6,5.8-15
		c-1.7-2.7-6.2-2.5-6.2-2.5L15.2,56.7C15.2,56.7,12,56.7,11.5,55.8z"/>
	<path fill="#B7B2B2" d="M402.8,80.1c-0.6-1.8-2.1-4.6-4.3-6.7c-4-3.9-8.6-3.6-8.6-3.6s-5.6-0.2-12.1-0.2c-5.7,0-13,0.2-14.3,0.4
		c-3.7,0.5-7.1,0.9-12,6.2c-4.9,5.4-17,19.8-20.2,23.8c-4.6,5.9-8.1,6.4-8.1,6.4s7.1-8.4,14.3-17.7c7.2-9.3,15.3-18,18.6-19.6
		c3.3-1.6,5.9-2.2,13.8-2.2c7.3,0,49.1-0.4,56.2-0.4c0.7,0,0.9,0.4,1.1,0.6c0.2,0.2,0.3,0.6,0.3,1.2c0,0,0,11.1,0,12.7
		c0,2-3.4,1.9-3.4,1.9l-17.1,0C407.1,82.8,403.7,83.1,402.8,80.1z"/>
	<path fill="#909193" d="M148,98.3c0,0-2-0.9-2.6-2.2c-0.6-1.3-2.1-5.7-3.2-7c-1.1-1.2-3.8-2.6-6.6-2.6S19,86.4,19,86.4L18.2,84
		l0.6-0.9l113.3,0.5c0,0,6.1-0.2,9.7,2.4C145.3,88.7,147.2,93.3,148,98.3z"/>
	<path fill="#191A1D" d="M164.2,13.1c0,0-4.7-0.2-12.2,1.6c-7.5,1.9-14.1,4.6-18.8,7.8c-4.7,3.3-9.9,8.6-11.5,12
		c-0.9,1.9-1.2,5.5,1.1,6.8c1.1,0.7,1.9,1,7.7,1c6,0,27.5-0.3,29-0.4c1.5-0.1,3.2-0.8,4.4-5.2c1.2-4.4,5-19.1,5-19.1
		S170.3,13.4,164.2,13.1z M167,18.1c0,0-4.1,15.9-5,18.8c-1,2.9-3.8,3.6-3.8,3.6s-25.5,0.4-29.8,0.3c-4.2,0-5.3-0.9-5.5-3.2
		c-0.2-3.3,3.3-6.8,6.6-9.7c3.9-3.5,8.5-6.9,17.9-10.1c6.1-2.1,15.1-3.4,17.7-2.8C167.7,15.8,167,18.1,167,18.1z"/>
	<path fill="#B7B2B2" d="M273.4,5.7c-16,0.2-55.6-0.2-81.7,0.9c-25.9,1.1-45.4,1.2-58.9,10.2c-3.7,2.5-6.4,4.2-8.6,5.8l0.6,0.7
		l-14.8,17.3c0,0-0.4,0-1,0l3.9,0c0,0,16.4-21.7,30.7-26.8C158,8.8,192.4,8.1,210.5,8c18.1-0.2,52.8-0.7,62.7-0.7
		c9.9,0,13.8,0.3,15.2,1.7l2.5-1.5C290.8,7.5,289.4,5.5,273.4,5.7z"/>
	<path fill="#B7B2B2" d="M124.8,23.3l-0.6-0.7c-5.7,4.1-8.2,7.1-17.4,18l2.3,0c0.6,0,1,0,1,0L124.8,23.3z"/>
	<path fill="#191A1D" d="M285.9,14.6c-0.8-2-1.7-3.8-3.3-4.1c-1.1-0.2-2.8-0.4-5.4-0.3c-6.4,0.2-36.1,0.1-36.1,0.1s-3.2,0.2-3.3,3.3
		c-0.2,3.1-0.3,25.6-0.3,25.6s0.2,2,2.6,2.4c2.4,0.5,38.3,0.3,38.3,0.3s7.9,0.1,9.5-0.3c1.5-0.4,5.3-1.6,5.7-5.1
		C293.8,34.6,288.5,20.9,285.9,14.6z M291,38.2c-1.6,1.6-4.6,2.2-4.6,2.2s-43.5,0.1-45.6,0c-2-0.1-2-1.9-2-1.9l0.3-24.4
		c0,0,0.3-1.2,1-1.9c0.7-0.7,2.8-0.5,2.8-0.5c36-0.3,34.6-0.2,37.8-0.1c2.5,0.1,2.9,2,2.9,2s3.7,9.3,5.8,14.7
		C291.6,33.6,292.6,36.6,291,38.2z"/>
	<g>
		<path fill="#0F0D09" d="M290,28c-1.9-5.1-5.5-13.9-5.8-14.6c-0.2-0.8-1.1-2.2-3.3-2.3l-0.7,0c-1.1,0-2-0.1-5.5-0.1
			c-4.9,0-14.3,0.1-31.6,0.2c0,0-0.2,0-0.4,0c-0.9,0-2.1,0.1-2.7,0.7c-0.8,0.7-1.2,2.1-1.2,2.1l-0.3,24.5c0,0,0,0.9,0.6,1.6
			c0.4,0.5,1,0.7,1.8,0.8c0.6,0,4.9,0,12.7,0c13.5,0,32.8,0,32.9,0c0.1,0,3.1-0.6,4.8-2.3C293.3,36.6,292,33.2,290,28z M291,38.2
			c-1.6,1.6-4.6,2.2-4.6,2.2s-43.5,0.1-45.6,0c-2-0.1-2-1.9-2-1.9l0.3-24.4c0,0,0.3-1.2,1-1.9c0.7-0.7,2.8-0.5,2.8-0.5
			c36-0.3,34.6-0.2,37.8-0.1c2.5,0.1,2.9,2,2.9,2s3.7,9.3,5.8,14.7C291.6,33.6,292.6,36.6,291,38.2z"/>
		<path fill="#0F0D09" d="M289.5,28.2c-2-5.4-5.8-14.7-5.8-14.7s-0.3-1.9-2.9-2c-3.2-0.1-1.9-0.2-37.8,0.1c0,0-2.1-0.1-2.8,0.5
			c-0.7,0.7-1,1.9-1,1.9l-0.3,24.4c0,0-0.1,1.8,2,1.9c2,0.1,45.6,0,45.6,0s2.9-0.6,4.6-2.2C292.6,36.6,291.6,33.6,289.5,28.2z
			 M290.7,37.9c-1.5,1.5-4.3,2.1-4.2,2.1c-0.2,0-19.4,0-32.8,0c-7.8,0-12.1,0-12.7,0c-1.5-0.1-1.5-1.1-1.5-1.4l0.3-24.4
			c0.1-0.2,0.3-1.1,0.9-1.6c0.3-0.3,1.1-0.4,2.1-0.4c0.2,0,0.4,0,0.4,0c17.3-0.2,26.8-0.2,31.6-0.2c3.5,0,4.4,0,5.5,0.1l0.7,0
			c2.1,0.1,2.4,1.5,2.4,1.6l0,0.1c0,0.1,3.8,9.3,5.8,14.7C291,33.5,292,36.5,290.7,37.9z"/>
	</g>
	<polygon fill="#7B7B7E" points="428.1,77.3 411.6,77.4 410.1,74.5 427.7,74.5 428,74 428,72.7 405.9,72.7 405.6,73.2 408.6,80.1 
		427.6,80.1 428,79.6 	"/>
	<path fill="#B7B2B2" d="M126.4,22.9c0,0-3.7-3.2-5.9-5.9c-2.1-2.7-2.7-5.1-2.7-5.1s-2,1.3-2.4,1.9c-0.1,0.2-0.1,0.6,0,1.1l1.9,0.7
		l7.5,7.7l-1.5,1.7l0.3,0.9L126.4,22.9z"/>
	<path fill="#B7B2B2" d="M117.3,15.6l-1.9-0.7c0.2,1,0.9,2.5,1.9,4c1.5,2.2,5.8,5.6,5.8,5.6l0.1,0.5l1.5-1.7L117.3,15.6z"/>
	<path fill="#D05027" d="M9.1,67.9H5.9c0,0-0.9,0.4-0.9,2C5,71.4,6,72,6,72h3.1L9.1,67.9z"/>
	<path fill="#909193" d="M3.1,88.5c0,0-1,1.7-0.9,3.7c0.3,3.5,2.3,4,2.6,4.3h14.6l-0.1-7.9c0,0,1-1.3,0.9-3.3
		c-0.2-2.2-1.3-2.6-1.3-2.6h-7.2c0,0,4.3-9.9,4.9-11.4c0.6-1.5,0.6-2.4,0-3.4C16.2,67,5.2,42.4,5.2,42.4h-2c0,0-1.6,0-0.7,2.2
		c0.9,2.2,10.8,22.2,10.8,22.2l-3.7-0.1c0,0-1.7,0.4-1.7,2.8c0,2.4,1.5,3.5,1.5,3.5l2.4,0.1l-3.4,7.3l-7.1,3c0,0-1.5,0.7-1.3,2
		C0.2,86.7,3.1,88.5,3.1,88.5z"/>
	<path fill="#B7B2B2" d="M323.5,37.8c0.2-0.6-0.4-1.5-0.9-1.9c-0.4-0.3-0.8-0.2-0.8-0.2s0.4,0.6-0.2,1.5c-0.5,0.8-1.7,1.5-5,1.8
		c-2.7,0.2-11.5,0.6-13.6-0.2c-2.1-0.7-5.3-7.3-8-14.3c-2.6-6.9-3.1-10.3-3.1-12.2c0-2,4.9-5.9,4.9-5.9l0,0.1c0.3-0.4,0.4-0.7,0-0.9
		c-0.8-0.6-2.1-1.4-3.6-1.7c-0.6-0.1-1,0.1-2.4,1.1c-1.7,1.2-2.6,2.4-2.9,4.2c-0.4,2.1,7.7,22.1,10.1,28.1c0.8,2.1,2.1,4.3,4,4.4
		c3,0.1,6.8,0.3,14.4-0.4C321.9,40.7,323.1,38.8,323.5,37.8z"/>
	<path fill="#B7B2B2" d="M292,12.4c0,2,0.4,5.3,3.1,12.2c2.6,6.9,5.9,13.5,8,14.3c2.1,0.7,11.1,0.5,13.8,0.5c2.7,0,5.4-1.7,5.4-2.4
		c0-0.7-0.1-1-0.2-1c0,0.6-0.1,1.6-1.6,2.1c-2.2,0.7-5.9,0.9-9.3,0.9c-3.4,0-7.1,0.2-9.3-1.7c-2.2-1.9-6.6-13.1-8.6-18.6
		c-2-5.5-1.1-7.5,1-9.6c1.2-1.2,2.2-2,2.6-2.5l0-0.1C296.9,6.5,292,10.4,292,12.4z"/>
	<path fill="#EAEAEA" d="M304.5,39.4c-4.9-0.7-5-3.7-6.8-7.9c-4.3-10-6.5-16.5-6.4-19.4c0.2-2.9,5.2-6.1,5.2-6.1s-3.4,0.3-3.1-1.6
		c-0.7,0.5-2.7,1.7-3.3,2.3c-1.2,1.3-1.4,3-0.5,6c0.7,2.4,7.3,19.5,9,23.6c1.6,4.2,2.8,4.6,6.3,4.7c6.7,0,11.6-1.3,11.6-1.3
		S309.4,40.1,304.5,39.4z"/>
	<path fill="#3E474A" d="M16.6,71.7c-0.5,0-2.6,0.1-5.7,0.1c-1.7,0-2.5-0.3-2.9-0.7C8.4,72.2,9,72.8,9.2,73c0.8,0,1.5,0.1,2.2,0.1
		c2,0,4-0.2,4.8-0.3C16.4,72.3,16.5,71.9,16.6,71.7z"/>
	<path fill="#3E474A" d="M3.9,86.2c-1.8,0-3-0.2-3.7-0.5c0.3,0.7,1.3,1.5,2,2.1l-0.1,0c0,0,1.3,1.5,5.2,1.5
		c3.9-0.1,10.8-0.2,10.8-0.2l0.1,4.5c0,0-6.9-0.1-12.1,0c-2.9,0.1-3.7-2.8-3.7-2.8S1.8,93.2,3.1,95c0.7,0.9,1.8,1.5,1.8,1.5
		l14.8-0.1l-0.3-7.8c0.1-0.1,0.2-0.4,0.3-0.5c0.1-0.2,0.3-0.6,0.4-1c0.2-0.5,0.2-0.9,0.2-0.9S13.6,86.2,3.9,86.2z"/>
	<path fill="#FFFFFF" d="M10.7,85.1c-1.5,0-7.5,0.3-9,0.1c-1.5-0.2-1.5-0.7,0.4-1.2C3.9,83.4,10.7,85.1,10.7,85.1z"/>
	<path fill="#FFFFFF" d="M14.7,67.8c0,0-5-0.6-5.5,0c-0.5,0.6-0.7,1.7,0.1,1.9c0.7,0.2,4.5-0.5,4.6-0.7C14.1,69,14.7,67.8,14.7,67.8
		z"/>
	<path fill="#707173" d="M16.8,68l-3.4-1.3c0,0-8.1-16.6-9.5-19.1c-1.4-2.6-1.5-4.2-1.5-4.5c0-0.3,0.7-0.6,1.3-0.6s1.6-0.1,1.6-0.1
		L16.8,68z"/>
	<path fill="#E09126" d="M7.6,68.3l-1.6,0c0,0-0.5,0.1-0.6,0.8c-0.1,0.7,0.3,1,0.9,0.7C6.9,69.5,7.6,68.3,7.6,68.3z"/>
	<linearGradient id="SVGID_15_" gradientUnits="userSpaceOnUse" x1="2.9948" y1="91.7395" x2="13.2245" y2="91.7395">
		<stop  offset="0" style="stop-color:#ADAAC0"/>
		<stop  offset="1" style="stop-color:#7B7B7E"/>
	</linearGradient>
	<path fill="url(#SVGID_15_)" d="M3,90.2c0,0-0.1,2.2,1.7,2.8c1.8,0.7,4.4,0.2,5.6,0.2c1.2,0,3-0.2,3-0.2S4.1,91.2,3,90.2z"/>
	<polygon fill="#E3DEDC" points="428,72.7 405.9,72.7 409,79.6 428,79.6 428.1,77.3 411.6,77.4 409.8,74 428,74 	"/>
	<polygon fill="#FFFFFF" points="428,74 428,77.3 411.6,77.3 409.8,74 	"/>
	<linearGradient id="SVGID_16_" gradientUnits="userSpaceOnUse" x1="418.7675" y1="83.0759" x2="427.5914" y2="83.0759">
		<stop  offset="0.4549" style="stop-color:#474747"/>
		<stop  offset="1" style="stop-color:#636666"/>
	</linearGradient>
	<path fill="url(#SVGID_16_)" d="M418.8,85.4c0,0,4.8,0.2,7-0.7c2.2-0.9,1.8-3.9,1.8-3.9s-0.1,1.9-2.6,2c-2.2,0.1-3.1,0.1-3.1,0.1
		S422.9,85.3,418.8,85.4z"/>
	<path fill="#3E474A" d="M20.3,85.7c0,0.5-0.1,0.7-0.1,0.7s112.6,0.1,115.4,0.1c2,0,4,0.7,5.3,1.5c-2.6-2.7-7-3-7-3L20.3,85
		C20.4,85.4,20.3,85.4,20.3,85.7z"/>
	<path fill="#868688" d="M115.7,13.5c-0.1,0.1-0.2,0.2-0.3,0.3c-0.1,0.2-0.1,0.6,0,1.1l0.8,0.3C115.9,14.5,115.8,13.9,115.7,13.5z"
		/>
	<path fill="#868688" d="M122.7,24.2c0.1-0.1,0.2-0.3,0.2-0.5c0-0.5-2-2.4-4.6-5.2c-1.1-1.2-1.7-2.3-2.1-3.3l-0.8-0.3
		c0.2,1,0.9,2.5,1.9,4C118.6,20.7,121.5,23.2,122.7,24.2z"/>
	<path fill="#E3DEDC" d="M122.2,20.6c1.3,0.8,2.3,1.3,2.3,1.3s-3.5-3-4.5-4.3c-1-1.3-2.8-4.6-2.8-4.6s-0.6,0.1-0.7,0.6
		c0,0.2,0.3,1,0.8,1.9l0,0L122.2,20.6z"/>
	<path fill="#E3DEDC" d="M119.9,18.9c0.8,0.6,1.6,1.2,2.3,1.7l-4.9-5l0,0C117.9,16.7,118.8,18,119.9,18.9z"/>
	<path fill="#FFFFFF" d="M289.7,7.2c-0.6,0-2.1-0.7-5.3-0.9c-6.7-0.5-32.7-0.1-32.7-0.1s14.5,0.4,21.5,0.4c7.6,0,12.4,0.5,13.8,0.7
		c2.4,0.4,1.8,3.8,3,5.5c-0.3-0.9-0.3-2.1,0.3-3.6c0.6-1.6,1.8-3.2,3.3-4.2C291,6.1,290.7,7.2,289.7,7.2z"/>
	<path fill="#EAEAEA" d="M134.6,16.5c-4,2.4-8.5,6.3-12.7,10.2l-11.4,13.4l0.5,0c0.1-0.2,13.4-14.9,17.8-18.5
		c4.4-3.6,11.6-8.2,17.7-9.6c6.1-1.4,8.6-1.9,8.6-1.9S145.2,10.2,134.6,16.5z"/>
	<path fill="#EAEAEA" d="M109.3,40l1.2,0.1L122,26.7C115.1,33.3,109.3,40,109.3,40z"/>
	<polygon fill="#A3A09F" points="111.4,40.6 113,40.6 125.1,26.8 	"/>
	<path fill="#040404" d="M89.3,38.8C86.6,38.9,42.4,40,39.8,40c-1.8,0-2.4,1.8-2.4,1.8l-0.7,0l0,0l55.8-1.3
		C88.8,40,88.9,39.3,89.3,38.8z"/>
	<g>
		<path fill="#0F0D09" d="M167.2,16c-0.4-0.7-1.1-1.1-2-1.4c-0.5-0.1-1.1-0.2-2-0.2c-4,0-11.2,1.3-16,3c-9.7,3.3-14.4,6.8-18.1,10.2
			c-3.4,3.1-7,6.7-6.7,10.1c0.2,2.7,1.7,3.6,6,3.6l0.9,0c6,0,28.7-0.3,28.9-0.3l0.1,0c0.1,0,3.1-0.7,4.2-3.9c1-2.9,4.9-18.2,5-18.9
			C167.5,18.2,167.8,17.1,167.2,16z M167,18.1c0,0-4.1,15.9-5,18.8c-1,2.9-3.8,3.6-3.8,3.6s-25.5,0.4-29.8,0.3
			c-4.2,0-5.3-0.9-5.5-3.2c-0.2-3.3,3.3-6.8,6.6-9.7c3.9-3.5,8.5-6.9,17.9-10.1c6.1-2.1,15.1-3.4,17.7-2.8
			C167.7,15.8,167,18.1,167,18.1z"/>
		<path fill="#0F0D09" d="M165.1,15.1c-2.6-0.7-11.7,0.7-17.7,2.8c-9.4,3.2-14,6.6-17.9,10.1c-3.3,3-6.8,6.5-6.6,9.7
			c0.2,2.3,1.3,3.1,5.5,3.2c4.3,0,29.8-0.3,29.8-0.3s2.9-0.6,3.8-3.6c1-2.9,5-18.8,5-18.8S167.7,15.8,165.1,15.1z M166.5,18
			c0,0.2-4.1,15.9-5,18.8c-0.8,2.5-3.1,3.1-3.4,3.2c-1.3,0-23,0.3-28.9,0.3l-0.8,0c-4.1,0-4.9-0.9-5-2.7c-0.2-3,3.2-6.4,6.4-9.3
			c3.6-3.3,8.2-6.7,17.7-10c5.3-1.8,12.2-2.9,15.7-2.9c0.8,0,1.4,0.1,1.8,0.2c0.7,0.2,1.1,0.5,1.4,0.9C166.8,17.2,166.5,18,166.5,18
			z"/>
	</g>
	<circle fill="#868688" cx="247.6" cy="50" r="1.1"/>
	<path fill="#B7B2B2" d="M248.2,49.9c0,0.3-0.2,0.5-0.5,0.5h-8.3c-0.3,0-0.5-0.2-0.5-0.5l0,0c0-0.3,0.2-0.5,0.5-0.5h8.3
		C248,49.4,248.2,49.6,248.2,49.9L248.2,49.9z"/>
	<circle fill="#868688" cx="174" cy="50" r="1.1"/>
	<path fill="#B7B2B2" d="M174.6,49.9c0,0.3-0.2,0.5-0.5,0.5h-8.3c-0.3,0-0.5-0.2-0.5-0.5l0,0c0-0.3,0.2-0.5,0.5-0.5h8.3
		C174.4,49.4,174.6,49.6,174.6,49.9L174.6,49.9z"/>
	<path fill="#EAEAEA" d="M427.1,62.6c0,0.2-0.2,0.4-0.4,0.4H200.9c-0.2,0-0.4-0.2-0.4-0.4l0,0c0-0.2,0.2-0.4,0.4-0.4h225.8
		C426.9,62.2,427.1,62.4,427.1,62.6L427.1,62.6z"/>
	<linearGradient id="SVGID_17_" gradientUnits="userSpaceOnUse" x1="359.6337" y1="67.4235" x2="426.8189" y2="67.4235">
		<stop  offset="0" style="stop-color:#B7B2B2"/>
		<stop  offset="1" style="stop-color:#FFFFFF"/>
	</linearGradient>
	<path fill="url(#SVGID_17_)" d="M359.6,68c0,0,27.1,0.2,46.1,0.1c19-0.1,20.8,0,20.9-0.2c0.2-0.2,0.5-0.9-1.2-1.1
		c-1.7-0.2-22.6,0-38.8,0.1c-16.4,0.1-23.3,0.5-23.3,0.5L359.6,68z"/>
	<path fill="#7B7B7E" d="M394.4,69.1c-3.8-1.4-21.9-0.9-28.5-0.7c-5.6,0.2-9,1.1-13.1,5.1c-4.1,3.9-6.4,8.5-6.4,8.5s2.2-2.8,5.5-6.1
		c0.7-0.7,2.5-2.3,3.5-3c3.5-2.9,6.1-2.7,9.1-3.1c1.3-0.2,7.7-0.4,13.4-0.3c6.5,0,12.1,0.2,12.1,0.2s4.5-0.3,8.6,3.6
		c1.6,1.6,2.9,3.4,3.6,5c0,0,0,0,0,0S399.9,71.1,394.4,69.1z"/>
	<path fill="#7B7B7E" d="M323.1,106.3c0,0,2.1,0.3,3.8-0.7c1.7-1,6.1-6.4,9.1-10.1c3-3.7,10.3-13.6,10.3-13.6s-8.3,8.9-13.2,15.1
		C328.2,103.3,325,105.6,323.1,106.3z"/>
	<g>
		<path fill="#868688" d="M424.4,63.8c0,0,1.6,0.1,2.3-0.3l0.4-0.3l-163.2,0.7c0,0,1.9,1.5-1.1,1.3c-3-0.2-25.1,0-25.1,0h-6.9
			c0,0-0.3,1-1.2,1c-0.9,0-6.4,0-6.4,0s1.1,0.9-0.2,0.9c-1.3,0-5,0-5,0s0.9,1.2-0.5,1.2c-1.4,0-2.8,0-2.8,0s-0.5,0.9-0.9,0.9
			c-0.4,0-0.2,0.5-1.3,0.5c-1.2,0-3.2,0-3.2,0s0.4,0.9,0,0.9c-0.4,0-2.3,0-2.3,0s-0.2,1.2-0.9,1.2c-0.7,0-2.6,0-2.6,0s0.9,1.2,0,1.3
			c-0.9,0-1.3,0-1.3,0s0.1,0.7-0.5,0.7c-0.6,0-0.8,0-0.8,0s0.4,0.6-0.2,0.6c-0.6,0-1.2,0-1.2,0s0.5,0.3,0,0.4
			c-0.5,0.1-0.8,0.1-0.8,0.1s-7.9,4.3-11.2,7c-0.2,0.2-0.5,0.4-0.8,0.6c3-1.9,6.6-4,10.8-6c15.5-7.5,26.8-8.4,46.7-9.7
			c19.9-1.3,76.2-2.1,76.2-2.1L424.4,63.8z"/>
		<path fill="#868688" d="M175.2,91.3c0,0,0.2-0.2,0.6-0.6c-0.3,0.2-0.5,0.4-0.7,0.5L175.2,91.3z"/>
	</g>
	<path fill="#797A7B" d="M197.8,64.7c3.2-6.7-4.9-8.4-4.9-8.4h-30.2c0,0-142.3,0-146.2,0c-1.5,0-4,0.1-4.2-0.1
		c-0.9-0.6-0.3-0.7,0.2-0.9c-1,0.1-1.4,0.5-1.4,0.5c-0.1,0.5,0.1,1.1,1,1.1c0.9,0,178.3-0.1,178.3-0.1s4.5-0.2,6.2,2.5
		c1.4,2.2,1.2,4.7-0.1,7.3C197.2,65.9,197.6,65.3,197.8,64.7z"/>
	<linearGradient id="SVGID_18_" gradientUnits="userSpaceOnUse" x1="12.5663" y1="55.4507" x2="193.3944" y2="55.4507">
		<stop  offset="0" style="stop-color:#EAEAEA"/>
		<stop  offset="0.2213" style="stop-color:#6B6A6C"/>
		<stop  offset="0.3279" style="stop-color:#848385"/>
		<stop  offset="1" style="stop-color:#EAEAEA"/>
	</linearGradient>
	<path fill="url(#SVGID_18_)" d="M193.4,55.4c0,0.2-0.2,0.4-0.4,0.4L13.1,55.9c-0.2,0-0.5-0.3-0.5-0.5l0,0c0-0.2,2-0.3,2.3-0.3
		L191.9,55C192.9,55,193.4,55.2,193.4,55.4L193.4,55.4z"/>
	<path fill="#0F0D09" d="M317.5,66.6c-0.2-13.2-1.3-21.6-3.3-25.1l-0.4,0.2c2,3.4,3,11.8,3.2,24.9c0.2,12.5-1.4,31.7-1.6,33.9h-154
		v-59h4.8l8.4-32.2l-0.5-0.1l-8.3,31.8h-4.9v60h155l0-0.2C315.9,100.7,317.6,79.9,317.5,66.6z"/>
	
		<rect x="186.7" y="54.3" transform="matrix(1.734927e-003 1 -1 1.734927e-003 287.5456 -178.9033)" fill="#0F0D09" width="93.4" height="0.5"/>
	<linearGradient id="SVGID_19_" gradientUnits="userSpaceOnUse" x1="121.8148" y1="11.0556" x2="278.038" y2="11.0556">
		<stop  offset="0" style="stop-color:#141313"/>
		<stop  offset="8.606560e-002" style="stop-color:#413F42"/>
		<stop  offset="0.2992" style="stop-color:#2A292A"/>
		<stop  offset="0.9836" style="stop-color:#121111"/>
	</linearGradient>
	<path fill="url(#SVGID_19_)" d="M183.7,3.1c-30.6,0.7-39.5,1.9-50.3,6c-10.8,4.2-11.6,6.1-11.6,6.1l3.6,4c0,0,10.1-7.6,24.4-10.7
		c18.1-3.9,56.1-3.4,76.6-3.1c20.5,0.2,51.6-1,51.6-1S214.2,2.4,183.7,3.1z"/>
	<linearGradient id="SVGID_20_" gradientUnits="userSpaceOnUse" x1="11.7982" y1="58.5239" x2="183.5458" y2="58.5239">
		<stop  offset="0" style="stop-color:#2A292A"/>
		<stop  offset="1" style="stop-color:#121111"/>
	</linearGradient>
	<path fill="url(#SVGID_20_)" d="M183.5,57.2L11.8,56.9l1.6,3.3c0,0,61-1.5,78.7-1.7C109.8,58.2,183.5,57.2,183.5,57.2z"/>
	<linearGradient id="SVGID_21_" gradientUnits="userSpaceOnUse" x1="273.4745" y1="24.5508" x2="298.6972" y2="24.5508">
		<stop  offset="0.4344" style="stop-color:#0E0E0F"/>
		<stop  offset="1" style="stop-color:#2C2B2C"/>
	</linearGradient>
	<path fill="url(#SVGID_21_)" d="M286,9c-1.6-1.1-12.5-0.6-12.5-0.6s6.5,0.3,10.1,1.6c3.5,1.2,12.1,30.2,12.1,30.2l3,0.5
		C298.7,40.8,287.7,10.2,286,9z"/>
	<g>
		<path fill="#0F0D09" d="M228.9,14.4c-0.1-0.8-0.8-2.2-2.7-2.2c-1.9,0-44.2,0.8-44.5,0.8c0,0-0.3,0-0.8,0c-1.3,0-3.6,0.3-4.4,2.2
			L171,35.5c0,0.2-0.6,3.9,1.9,4.6c2,0.5,7.1,0.5,8.1,0.5l44.7,0c0.1,0,2.7-0.3,3.1-2.4C229.1,36.4,228.9,15.3,228.9,14.4z
			 M228.3,38.1c-0.3,1.8-2.7,2-2.7,2h-44.5c0,0-6,0-8.1-0.5c-2.1-0.5-1.6-4-1.6-4l5.6-20.3c0.9-2.3,4.6-1.8,4.6-1.8
			s42.6-0.8,44.6-0.8c2,0,2.2,1.8,2.2,1.8S228.7,36.3,228.3,38.1z"/>
		<path fill="#0F0D09" d="M226.2,12.6c-2,0-44.6,0.8-44.6,0.8s-3.7-0.4-4.6,1.8l-5.6,20.3c0,0-0.5,3.5,1.6,4
			c2.1,0.5,8.1,0.5,8.1,0.5h44.5c0,0,2.3-0.2,2.7-2c0.3-1.8,0.1-23.7,0.1-23.7S228.2,12.6,226.2,12.6z M227.9,38
			c-0.2,1.4-2.2,1.6-2.2,1.6h-44.6c-0.6,0-6,0-7.9-0.5c-1.6-0.4-1.2-3.4-1.2-3.4l5.5-20.2c0.7-1.8,3.8-1.5,4.1-1.5
			c0.4,0,42.6-0.8,44.6-0.8c1.5,0,1.7,1.2,1.7,1.3C228,22,228.1,36.6,227.9,38z"/>
	</g>
</g>
</svg>
