<?xml version="1.0" encoding="utf-8"?>
<!-- Generator: Adobe Illustrator 18.1.1, SVG Export Plug-In . SVG Version: 6.00 Build 0)  -->
<svg version="1.1" id="Layer_1" xmlns="http://www.w3.org/2000/svg" xmlns:xlink="http://www.w3.org/1999/xlink" x="0px" y="0px"
	 viewBox="0 268.3 612 255.5" enable-background="new 0 268.3 612 255.5" xml:space="preserve">
<ellipse opacity="0.3" fill="#857C6F" enable-background="new    " cx="309.4" cy="496.6" rx="302.6" ry="27.3"/>
<path opacity="0.3" fill="#40A0D9" enable-background="new    " d="M377,291.2l0.1,31.4c0,0,0.6,4.3,4,4.3c3.3,0,52.8,0,54.9,0
	c3.3,0,5.3-0.9,6.1-2.8c1-2.1,0.4-3.8-1.1-7.1S427.5,291,427.5,291s-1.7-4-6.8-4.1c-5.1-0.1-38.9,0-38.9,0S377,286.6,377,291.2z"/>
<path opacity="0.3" fill="#40A0D9" enable-background="new    " d="M462.1,323.3c-2.1,0.7-3.7-0.9-3.7-0.9S441,290,440.7,289.6
	c-0.3-0.4,1.1-1.1,2.8-2.4c1.3-1,2.3-1.7,2.7-2l20.4,35.6C465.4,321.7,463.3,322.8,462.1,323.3z"/>
<g>
	<rect x="334.2" y="376.8" fill="#3B4451" width="8.1" height="34.8"/>
	<rect x="221.6" y="380.3" fill="#3B4451" width="9.7" height="17"/>
	<path fill="#18191B" d="M3,380.2v17.2h5.7v12.3h2.6v14.2c0,0-0.3,1.7,2.7,1.7s3.3-1.6,3.3-1.6v-13.9h15.5c0,0-0.6,8.2,7.4,9.2
		c5.8,0.7,8.2-4.3,8.2-4.3l5.3,1.1v8.7h12.6c0,0,0.3,2.6,2.6,2.6c2.1,0,3-2.1,3-2.1h23c0,0-0.1,0.7,0.6,2.1c0.7,1.4,2.1,1.4,2.1,1.4
		H110c0,0,0,0,0,1.6s3.1,1.8,3.1,1.8H248l-38,4.4l2.1,8.9l75.9-10.1c6.5,1.4,20,4.1,24.7,4.7c5.4,0.6,17.3,0.4,23.6,0.1v4.4
		l70.5-4.1v-4.8h70.4l86.6,1.3l4.5,11.4l5.5,0.4l4.7-14.8h20.7l5,2h7.7v-16.5l-2.8-3c0,0,1.3-0.9,1.6-2.7c0.3-1.7,0.6-4.7-2.8-6.1
		c-2.8-1.1-5.1,0.7-5.1,2.6c0.1,1.4,1.3,1.7,1.3,1.7s-0.3-1.4,1-1.7c0.7-0.1,2-0.1,2.1,1.1c0.1,0.9,0.6,2-2.6,3.3
		c-3,1.3-6.1,1.7-6.1,1.7h-4.3l-29.9-24.3l-84.9,0.1l-88.6,19.3h-78.5l0.1-0.3c5.4-0.6,8.7-1.4,10.9-1.8c3.1-0.6,8.1-3.5,8.1-3.5
		v-3.1h0.1v-11.6h-0.1v-2.6c0,0-6-3.8-20.3-4.7c-11.4-0.7-15.6-0.4-15.6-0.4l-43.9,0.7c0,0-4.3,0-6.1,0.1l0,0v-5.5h-12.8v12.2
		l-6.2,1.7h-98.9v-12.9H94v11.4H36.5v-11.1H3L3,380.2z M301.9,433.4l1.6-0.1h32.9v2.7c-3.8,0.1-10.1,0.3-14.5,0.1
		C317.9,436.1,308.7,434.7,301.9,433.4z M36.8,411.1c0-2.1,1.7-3.8,3.8-3.8c2.1,0,3.8,1.7,3.8,3.8s-1.7,3.8-3.8,3.8
		C38.5,415.1,36.8,413.4,36.8,411.1z"/>
	<path fill="#7BAED8" d="M350.4,403c0.3,2.7,0.6,6.7,6.5,6.7v-1.6c0,0,1.3,1,2.8,2.1c1.6,1.1,3.4,2.6,6.1,2.6
		c4.8,0,93.4-0.1,93.4-0.1l-1.3,23.8l7.5,0.1c0,0,4.3-0.9,5.5-6.2c2.8-12.6,4.7-22.4,6.8-27.5c2.3-5.7,3.5-7.9,3.5-7.9l82.5-0.4
		c0,0,3.7,8.4,5.1,18s5.5,12.3,7.8,12.5c2.1,0.1,5.8,0,9.4,0s6.1-2.4,8.2-5.3c2.1-2.8,2.4-4.7,3-12.6c0.6-7.9,1.6-31.5,1.4-39
		c-0.1-12.3-1.8-15.6-5.4-16.5c-2-0.4-4.8-0.6-4.8-0.6l0.1-2.1c0,0,0.7-3.4-1-5.7c-4.3-5.8-15-8.9-26.1-9.9
		c-24.4-2-91.3-6.1-91.3-6.1l-3.7-6.4l0,0l0,0c-1.4,0.9-3.4,2-4.5,2.4c-2.1,0.7-3.7-0.9-3.7-0.9S441,290,440.7,289.6
		c-0.3-0.4,1.1-1.1,2.8-2.4c1.3-1,2.3-1.7,2.7-2l0,0l0,0l-1.1-2l3.4-3.1c0,0,0.9-1-0.3-2c-1.1-1.1-3.1-0.6-4.4-1.1
		c-1.1-0.6-3.5-3.7-7.2-5.1c-3.8-1.6-5.7-2.4-26.3-2.8c-20.3-0.7-30.9-0.7-33.9-0.7c-6.4-0.1-8.5,1.1-13.5,5.4
		c-5,4.4-7,9.2-7.8,12.3c-0.7,2.7-4.3,31.7-4.5,47.4C350.1,349.4,350.1,400.2,350.4,403z M377,291.2c0-4.4,4.8-4.3,4.8-4.3
		s33.8-0.1,38.9,0c5.1,0.1,6.8,4.1,6.8,4.1s11.9,22.6,13.5,25.8c1.6,3.3,2.1,5,1.1,7.1c-1,2.1-2.8,2.8-6.1,2.8c-2.1,0-51.5,0-54.9,0
		c-3.3,0-4-4.3-4-4.3L377,291.2z"/>
	<path fill="#6E99BD" d="M375.1,321.8v-31.5c0,0,1.1-5.3,5.5-5.5c0.7,0,2.8,0.7,5.8,2.1c-2.8,0-4.7,0-4.7,0s-4.8-0.1-4.8,4.3
		l0.1,31.4c0,0,0.6,4.3,4,4.3c3.3,0,52.8,0,54.9,0c3.3,0,5.3-0.9,6.1-2.8c0.7-1.7,0.6-3.3-0.4-5.5c1.3,1,2,1.7,2.1,2.1
		c0,0,0.4,2.8-0.6,4.7c-1.1,2-3.8,3.7-12.1,3.7c-8.2,0-50.4,0-50.4,0s-2-0.3-4.1-2.3C375,324.8,375.1,321.8,375.1,321.8z"/>
	<path fill="#668FC4" d="M489.1,363.9c12.1-6.7,51.5-6.2,67.8-6.2c16.5,0,24.6,0.3,27.5,0.1c6.8-0.1,5.7,7.9,5.7,7.9
		s-0.6,17.2-0.6,34.6s1.7,19.9,4.7,19.2c-2.1,2.8-4.7,5.3-8.2,5.3c-3.5,0-7.2,0.1-9.4,0c-2.1-0.1-6.4-2.8-7.8-12.5
		c-1.4-9.7-5.1-18-5.1-18l-26.4,0.1c-3.4-4-6.7-6.4-8.9-5.5c-2.7,1-8.8,3.3-15.2,5.7l-31.9,0.1c0,0-1.3,2.3-3.5,7.9
		c-1,2.7-2,6.5-3.1,11.5c-4.1,1.6-7.1,2.7-7.1,2.7S477,370.5,489.1,363.9z"/>
	<path fill="#5B76A8" d="M377.2,287.5c0.6-2.3,2.4-3.3,8.7-3.3c6.4,0.1,35.9-0.1,37.5,0.1c1.6,0.3,4.5,2.1,7,7.2
		c2.4,5.3,11.6,24.1,12.9,26.3c1.3,2.1,0.6,7.9-4.8,8.7c-0.6,0.1-1.4,0.1-2.4,0.1c3.3,0,5.3-0.9,6.1-2.8c1-2.1,0.4-3.8-1.1-7.1
		c-1.6-3.3-13.5-25.8-13.5-25.8s-1.7-4-6.8-4.1c-5.1-0.1-38.9,0-38.9,0s-4.4-0.1-4.7,3.7C377.1,289.5,377.1,288.3,377.2,287.5z"/>
	<path fill="#385982" d="M583.3,426.3c1.6-0.7,1.8-3.7,1.8-4v-11.6l0.3-45c0.6-1,4.4-7.5,5.4-10.1c1-2.7,0.7-4.4,0.7-4.4l-0.9,0.1
		l0.4-0.1l-0.4,0.1c0,0,0.3,1.4-0.7,4c-1,2.6-5.4,9.9-5.4,10.1v0.1l-0.3,45.1v11.6c0,0.7-0.3,2.7-1.3,3.1L583.3,426.3z"/>
	<path fill="#18191B" d="M598.7,376.6c0,0,3.1,0,3.1,3.3c0.1,3.3-0.3,15.2-0.3,15.2s0,2.7-1.4,3.8s-2.3,1-2.3,1L598.7,376.6z"/>
	<path fill="#385982" d="M371.3,330.8c0-2.4-0.3-35.6,0.1-40.7c0.6-5.3,5.8-8.7,9.5-9.5c2.7-0.6,18.9-0.3,28.5-0.1
		c1.8,0,3.4,0,4.7,0.1c0.9,0,1.6,0,2.3,0c5.8,0,8.7,0.1,12.2,1.8c3.7,2,6.7,8.1,14.3,24.6l1.1,2.6c8.5,18,15.6,34.3,15.6,34.5v0.1
		v68.7h-1v-68.6c-0.6-1.3-7.4-17-15.6-34.3l-1.1-2.4c-7.7-16.2-10.5-22.3-13.9-24.1c-3.3-1.7-5.8-1.7-11.8-1.8c-0.7,0-1.4,0-2.3,0
		c-1.1,0-2.8,0-4.7-0.1c-8.9-0.1-25.7-0.4-28.2,0c-2.7,0.6-8.2,3.3-8.8,8.7c-0.6,5.3-0.1,40.3-0.1,40.7v0.1v0.1
		c0,0-1.4,3.7-1.3,10.4c0.1,6.8,0.6,70.7,0.6,71.4h-1c0-0.7-0.4-64.4-0.6-71.4C369.9,335,371.1,331.5,371.3,330.8z"/>
	<path fill="#385982" d="M437.1,288.6c1-0.1,2.6-1.6,3.8-2.6c0.3-0.1,0.4-0.4,0.7-0.6c2-1.7,5.4-4.3,5.4-4.3l-1.8,2.4c0,0-1,1-3,2.7
		c-0.1,0.1-0.4,0.3-0.7,0.6c-1.4,1.3-3.1,2.6-4.4,2.7c-1.3,0.1-3.3,0.3-3.3,0.3l-0.1-1C433.9,289.1,436,288.8,437.1,288.6z"/>
	<path fill="#191918" d="M442,285.9c0.4-0.4,1.8-1.6,3.1-2.7l1,1.8l0,0l0,0c-0.4,0.3-1.4,1-2.7,2c-1.7,1.3-3.1,2-2.8,2.4
		s17.7,32.8,17.7,32.8s1.6,1.7,3.7,0.9c1.1-0.4,3.3-1.6,4.5-2.4l0,0l0,0l1.3,2.1c-0.7,0.6-2,1.4-4,2.3c-3.8,1.7-6.5,1.4-9.1-2.8
		c-2.3-3.7-17.5-33.4-17.5-33.4S440.5,287.2,442,285.9z"/>
	<path fill="#191918" d="M412.9,286.9v39.7c0,0,0.7,0.1,2,0.1c10.8,0,20.3,0,21.3,0c3.3,0,5.3-0.9,6.1-2.8c1-2.1,0.4-3.8-1.1-7.1
		c-1.6-3.3-13.5-25.8-13.5-25.8s-1.7-4-6.8-4.1C419.4,286.9,416.6,286.9,412.9,286.9z M415.6,289.3c0,0,1,0,4.7,0c3.7,0,5.4,3,5.4,3
		l13.9,26.7c0,0,1,1.4,0.7,3c-0.4,2.1-2.6,1.8-2.6,1.8h-22v-34.5H415.6z"/>
	<path fill="#385982" d="M368.2,287.8l4.7-0.1v-1l-4.4,0.1c-0.6-0.3-3.7-1.8-7-2.1c-2.7-0.1-6.1-0.3-6.5,0.6l0.7,0.6l-0.1,0.1
		c0,0,0.9-0.6,5.8-0.1C364.6,285.9,368,287.8,368.2,287.8L368.2,287.8z"/>
	<g>
		<rect x="0.3" y="308.1" fill="#697A8C" width="344.5" height="72.2"/>
		<path fill="#363A3B" d="M0,307.8h345.2v72.8H0V307.8z M344.5,308.4H0.6V380h343.9V308.4z"/>
	</g>
	<circle fill="#C14F27" cx="564.5" cy="370.8" r="4"/>
	<path fill="#94C5EA" d="M458.1,435.2c0.9,0,6.4-1.4,7-4.3c0.7-2.8,5.1-25.4,8.1-34.1c3-8.7,10.6-17.5,26.1-17.9
		c13.5-0.4,51.1,0,51.1,0s15.2,0.1,18.6,11.4c3.3,11.1,7,26.5,7.7,28.8c1,3.3,2.7,5.1,3.5,5.8c-1.4,0-2.6,0-3.5,0
		c-2.1-0.1-6.4-2.8-7.8-12.5s-5.1-18-5.1-18l-82.5,0.4c0,0-1.3,2.3-3.5,7.9c-2,5.1-3.8,14.8-6.8,27.5c-1.3,5.4-5.5,6.2-5.5,6.2
		l-7.5-0.1L458.1,435.2z"/>
	
		<linearGradient id="SVGID_1_" gradientUnits="userSpaceOnUse" x1="17.3655" y1="730.6" x2="88.0655" y2="730.6" gradientTransform="matrix(-1.4193 0 0 -1.4193 611.951 1392.416)">
		<stop  offset="0" style="stop-color:#E0EDF9"/>
		<stop  offset="1" style="stop-color:#94C5EA"/>
	</linearGradient>
	<path fill="url(#SVGID_1_)" d="M587.3,351.2c0,0-56.8,0.1-75.8,1c-19,0.7-24.6,3.8-24.6,3.8l0.7,3.7c0,0,6.2-3.4,36.1-4.7
		C556.8,353.8,587.3,351.2,587.3,351.2z"/>
	
		<linearGradient id="SVGID_2_" gradientUnits="userSpaceOnUse" x1="90.207" y1="715.05" x2="100.907" y2="715.05" gradientTransform="matrix(-1.4193 0 0 -1.4193 611.951 1392.416)">
		<stop  offset="0" style="stop-color:#DAEAF8"/>
		<stop  offset="1" style="stop-color:#94C5EA"/>
	</linearGradient>
	<path fill="url(#SVGID_2_)" d="M480.9,359c0,0-5.1,3.3-7.7,13.1c-2.4,9.7-4.5,24-4.5,24s5.8-20,7.8-24.3c3.1-6.8,7.4-9.1,7.4-9.1
		L480.9,359z"/>
	
		<linearGradient id="SVGID_3_" gradientUnits="userSpaceOnUse" x1="20.6655" y1="740.3" x2="87.0655" y2="740.3" gradientTransform="matrix(-1.4193 0 0 -1.4193 611.951 1392.416)">
		<stop  offset="0" style="stop-color:#D9EBF7"/>
		<stop  offset="1" style="stop-color:#94C5EA"/>
	</linearGradient>
	<path fill="url(#SVGID_3_)" d="M582.6,345.5c0,0-4.5-3.8-31.1-5.7c-26.4-1.8-63.2-2-63.2-2v2.6c0,0,27.5,0.3,49.5,1.6
		C559.8,343.1,582.6,345.5,582.6,345.5z"/>
	<path fill="#5D5D5D" d="M387.3,342.3c0,0-9.1-1.3-11.1-1.7s-3.1,0.4-3,2c0.3,1.6,2.7,1.3,2.7,1.3l11.2-0.4
		C387.2,343.6,388.6,343,387.3,342.3z"/>
	<path fill="#C4D5E0" d="M598.7,363.3c0,0,3.3,0,3.4,3.7c0.1,4.7-3.3,5-3.3,5L598.7,363.3z"/>
	<g>
		<path fill="#697A8C" d="M300.7,382.7v17.9c0,0,0.1,1.6-2.4,1.7c-2.6,0.1-47.3,0-47.3,0s-1.7-0.1-1.7-2.1c0-2.1,0-15,0-16.3
			c0-1.1-0.1-2.6,2.1-2.6c3.8,0,47.1,0,47.1,0S300.6,380.9,300.7,382.7z"/>
		<path fill="#363A3B" d="M251.1,402.5c0,0-2-0.1-2-2.6v-16.2v-0.1c0-0.7,0-1.6,0.6-2.1c0.4-0.4,1-0.6,1.8-0.6h47c0,0,0.1,0,0.4,0
			c1.3,0,2.1,0.7,2.1,1.8v17.7c0,0,0.1,0.6-0.4,1.1c-0.4,0.6-1.3,0.9-2.3,0.9c-0.7,0-5.3,0-13.5,0
			C270.9,402.6,251.1,402.5,251.1,402.5z M298.6,381.5h-47.1c-0.7,0-1.1,0.1-1.4,0.4c-0.4,0.4-0.4,1-0.4,1.7V400
			c0,1.7,1.3,1.8,1.4,1.8c0,0,19.9,0,33.9,0c8.1,0,12.6,0,13.3,0c0.9,0,1.6-0.3,1.8-0.6c0.3-0.3,0.3-0.7,0.3-0.7v-17.9
			c0-1-0.9-1.3-1.6-1.3C298.8,381.5,298.6,381.5,298.6,381.5z"/>
	</g>
	<g>
		<circle fill="#24272C" cx="518.8" cy="448.6" r="50.5"/>
		<circle fill="#414141" cx="518.8" cy="448.6" r="48"/>
		<circle fill="#0F1011" cx="518.8" cy="448.6" r="30.9"/>
		
			<radialGradient id="SVGID_4_" cx="65.6655" cy="665" r="19.1" gradientTransform="matrix(-1.4193 0 0 -1.4193 611.951 1392.416)" gradientUnits="userSpaceOnUse">
			<stop  offset="0.2828" style="stop-color:#646060"/>
			<stop  offset="0.4754" style="stop-color:#646060"/>
			<stop  offset="0.5089" style="stop-color:#5B5859"/>
			<stop  offset="0.616" style="stop-color:#454344"/>
			<stop  offset="0.7209" style="stop-color:#343435"/>
			<stop  offset="0.8217" style="stop-color:#28282A"/>
			<stop  offset="0.9168" style="stop-color:#202123"/>
			<stop  offset="1" style="stop-color:#1E1E20"/>
		</radialGradient>
		<circle fill="url(#SVGID_4_)" cx="518.8" cy="448.6" r="27.1"/>
		<circle fill="#131517" cx="518.8" cy="448.6" r="16"/>
		<circle fill="#0B0C0B" cx="518.8" cy="448.6" r="8.5"/>
		<circle fill="#131517" cx="518.8" cy="448.6" r="4.1"/>
		<path fill="#0B0C0B" d="M512.8,425.7c0,2,4.3,5,6,5c1.8,0,6-3,6-5c0-2-2.7-3.7-6-3.7C515.5,422.2,512.8,423.7,512.8,425.7z"/>
		<path fill="#0B0C0B" d="M512.8,471.4c0-2,4.3-5,6-5c1.8,0,6,3,6,5s-2.7,3.7-6,3.7C515.5,475.1,512.8,473.4,512.8,471.4z"/>
		<path fill="#0B0C0B" d="M496,442.1c1.7,1,6.4-1.1,7.4-2.6c0.9-1.6,0.6-6.7-1.1-7.7c-1.7-1-4.5,0.4-6.2,3.3
			C494.3,437.8,494.3,441.1,496,442.1z"/>
		<path fill="#0B0C0B" d="M535.2,465.5c-1.7-1-2.1-6.2-1.1-7.7c0.9-1.6,5.7-3.7,7.4-2.6c1.7,1,1.7,4.1,0,7S536.9,466.5,535.2,465.5z
			"/>
		<path fill="#0B0C0B" d="M541.5,442.1c-1.7,1-6.4-1.1-7.4-2.6c-0.9-1.6-0.6-6.7,1.1-7.7c1.7-1,4.5,0.4,6.2,3.3
			C543.2,437.8,543.2,441.1,541.5,442.1z"/>
		<path fill="#0B0C0B" d="M502.3,465.5c1.7-1,2.1-6.2,1.1-7.7c-0.9-1.6-5.7-3.7-7.4-2.6c-1.7,1-1.7,4.1,0,7
			C497.7,465,500.6,466.5,502.3,465.5z"/>
		<circle fill="#414141" cx="518.8" cy="436.5" r="2.1"/>
		<circle fill="#414141" cx="518.8" cy="460.6" r="2.1"/>
		<circle fill="#414141" cx="508.2" cy="442.5" r="2.1"/>
		<circle fill="#414141" cx="529.3" cy="454.5" r="2.1"/>
		<circle fill="#414141" cx="529.3" cy="442.5" r="2.1"/>
		<circle fill="#414141" cx="508.2" cy="454.5" r="2.1"/>
	</g>
	<g>
		<circle fill="#24272C" cx="161.1" cy="448.6" r="50.5"/>
		<circle fill="#414141" cx="161.1" cy="448.6" r="48"/>
		<circle fill="#0F1011" cx="161.1" cy="448.6" r="30.9"/>
		
			<radialGradient id="SVGID_5_" cx="317.6655" cy="665" r="19.1196" gradientTransform="matrix(-1.4193 0 0 -1.4193 611.951 1392.416)" gradientUnits="userSpaceOnUse">
			<stop  offset="0.2828" style="stop-color:#646060"/>
			<stop  offset="0.4754" style="stop-color:#646060"/>
			<stop  offset="0.5089" style="stop-color:#5B5859"/>
			<stop  offset="0.616" style="stop-color:#454344"/>
			<stop  offset="0.7209" style="stop-color:#343435"/>
			<stop  offset="0.8217" style="stop-color:#28282A"/>
			<stop  offset="0.9168" style="stop-color:#202123"/>
			<stop  offset="1" style="stop-color:#1E1E20"/>
		</radialGradient>
		<circle fill="url(#SVGID_5_)" cx="161.1" cy="448.6" r="27.1"/>
		<circle fill="#131517" cx="161.1" cy="448.6" r="16"/>
		<circle fill="#0B0C0B" cx="161.1" cy="448.6" r="8.5"/>
		<circle fill="#131517" cx="161.1" cy="448.6" r="4.1"/>
		<path fill="#0B0C0B" d="M155.1,425.7c0,2,4.3,5,6,5c1.8,0,6-3,6-5c0-2-2.7-3.7-6-3.7S155.1,423.7,155.1,425.7z"/>
		<path fill="#0B0C0B" d="M155.1,471.4c0-2,4.3-5,6-5c1.8,0,6,3,6,5s-2.7,3.7-6,3.7S155.1,473.4,155.1,471.4z"/>
		<path fill="#0B0C0B" d="M138.4,442.1c1.7,1,6.4-1.1,7.4-2.6c0.9-1.6,0.6-6.7-1.1-7.7c-1.7-1-4.5,0.4-6.2,3.3
			C136.7,437.8,136.7,441.1,138.4,442.1z"/>
		<path fill="#0B0C0B" d="M177.6,465.5c-1.7-1-2.1-6.2-1.1-7.7c0.9-1.6,5.7-3.7,7.4-2.6c1.7,1,1.7,4.1,0,7
			C182.1,465,179.3,466.5,177.6,465.5z"/>
		<path fill="#0B0C0B" d="M183.7,442.1c-1.7,1-6.4-1.1-7.4-2.6c-0.9-1.6-0.6-6.7,1.1-7.7c1.7-1,4.5,0.4,6.2,3.3
			C185.5,437.8,185.5,441.1,183.7,442.1z"/>
		<path fill="#0B0C0B" d="M144.6,465.5c1.7-1,2.1-6.2,1.1-7.7c-0.9-1.6-5.7-3.7-7.4-2.6c-1.7,1-1.7,4.1,0,7
			C140.1,465,142.8,466.5,144.6,465.5z"/>
		<circle fill="#414141" cx="161.1" cy="436.5" r="2.1"/>
		<circle fill="#414141" cx="161.1" cy="460.6" r="2.1"/>
		<circle fill="#414141" cx="150.6" cy="442.5" r="2.1"/>
		<circle fill="#414141" cx="171.5" cy="454.5" r="2.1"/>
		<circle fill="#414141" cx="171.5" cy="442.5" r="2.1"/>
		<circle fill="#414141" cx="150.6" cy="454.5" r="2.1"/>
	</g>
	<path fill="#DFEAF7" d="M540.8,380.9c0,0,11.8-1,16.6,0.7c7,2.6,9.4,9.1,9.4,9.1s-3.7-5.1-11.5-7.5
		C547.7,380.7,540.8,380.9,540.8,380.9z"/>
	<path fill="#DFEAF7" d="M497.2,381.6c0,0-7.1-0.7-14.2,4.3s-9.7,16.6-9.7,16.6s5-10.1,10.9-14.8C490.4,383,497.2,381.6,497.2,381.6
		z"/>
	<path fill="#385982" d="M486.5,350.9h1c0,0-0.1-4.3-0.1-12.6c0-8.5-2.1-10.6-2.1-10.8l-0.7,0.7l0.3-0.3l-0.3,0.3
		c0,0,1.8,2.1,1.8,10.1C486.4,346.7,486.5,350.9,486.5,350.9z"/>
	
		<rect x="471.7" y="325.5" transform="matrix(1.033117e-002 -0.9999 0.9999 1.033117e-002 127.2217 808.8267)" fill="#385982" width="1" height="29.2"/>
	<g>
		<polygon fill="#697A8C" points="337.2,308.1 337.2,374.6 342.9,374.6 342.9,308.1 		"/>
		<path fill="#363A3B" d="M336.8,307.8h6.4v67.1h-6.4V307.8z M342.6,308.4h-5.3v65.9h5.3V308.4z"/>
	</g>
	<g>
		<polygon fill="#697A8C" points="1.4,308.1 1.4,371.5 7.1,371.5 7.1,308.1 		"/>
		<path fill="#363A3B" d="M1,307.8h6.4v64H1V307.8z M6.8,308.4H1.6v62.9h5.3V308.4z"/>
	</g>
	<path fill="#A8ABB0" d="M278,388l-1.7,11.2c0,0,0,1.3-1.1,1.3s-1.4-1.1-1.4-1.1l-1.4-11.1c0,0-0.4-3.8,2.8-3.8
		C278.6,384.4,278,388,278,388z"/>
	<g>
		<path fill="#697A8C" d="M337.5,362.4c0,0-324.9-1.8-330.8-1.7"/>
		<path fill="#363A3B" d="M337.5,362.7v-0.6c-3.3,0-324.9-1.8-330.8-1.7v0.6C12.6,360.9,334.4,362.7,337.5,362.7z"/>
	</g>
	<g>
		<path fill="#697A8C" d="M7.1,347c0,0,144.1,2.8,184.8,3.7c40.7,1,145.1-0.3,145.1-0.3"/>
		<path fill="#363A3B" d="M235.9,351.2c45.4,0,100.3-0.7,101.1-0.7v-0.6c-1,0-104.7,1.3-145.1,0.3c-40.2-0.9-183.2-3.5-184.8-3.7
			v0.6c1.4,0,144.5,2.8,184.8,3.7C203,351.2,218.9,351.2,235.9,351.2z"/>
	</g>
	<g>
		<path fill="#697A8C" d="M337.9,340c0,0-164.1-0.3-184.4-0.6c-22.9-0.3-146.2-2.1-146.2-2.1"/>
		<path fill="#363A3B" d="M337.9,340.3v-0.6c-1.7,0-164.2-0.3-184.4-0.6C130.9,338.9,8.5,337,7.2,337v0.6c1.3,0,123.5,1.8,146.3,2.1
			C173.7,340,336.4,340.3,337.9,340.3z"/>
	</g>
	<g>
		<line fill="none" x1="7.1" y1="327.7" x2="337.1" y2="330.6"/>
		
			<rect x="171.8" y="164.1" transform="matrix(1.345673e-002 -0.9999 0.9999 1.345673e-002 -159.3408 496.726)" fill="#363A3B" width="0.6" height="330"/>
	</g>
	<g>
		<line fill="none" x1="337.4" y1="319.6" x2="7.9" y2="316.7"/>
		<rect x="7.9" y="317.7" fill="#363A3B" width="329.4" height="0.6"/>
	</g>
	
		<linearGradient id="SVGID_6_" gradientUnits="userSpaceOnUse" x1="123.6655" y1="788.2849" x2="171.6024" y2="788.2849" gradientTransform="matrix(-1.4193 0 0 -1.4193 611.951 1392.416)">
		<stop  offset="0" style="stop-color:#D9EBF7"/>
		<stop  offset="1" style="stop-color:#94C5EA"/>
	</linearGradient>
	<path fill="url(#SVGID_6_)" d="M436.4,275.6c0,0-4.4-4.7-32.5-4.5c-28.2,0.1-33.9,0.1-35.2,2.6c-1.3,2.3,1.3,3.3,4.4,2.1
		s12.8-2,30.5-1.6C421.2,274.7,436.4,275.6,436.4,275.6z"/>
	
		<linearGradient id="SVGID_7_" gradientUnits="userSpaceOnUse" x1="115.7385" y1="782.4701" x2="126.125" y2="782.4701" gradientTransform="matrix(-1.4193 0 0 -1.4193 611.951 1392.416)">
		<stop  offset="0" style="stop-color:#D9EBF7"/>
		<stop  offset="1" style="stop-color:#94C5EA"/>
	</linearGradient>
	<path fill="url(#SVGID_7_)" d="M438.8,282.7c2.1-2,4.7-5,4.7-5s2.6-0.3,3.7,0.3c1.3,0.6-0.6,0.7-1.1,1.1c-0.4,0.3-4.4,4.3-7,6.4
		c-2.7,2.1-6.2-2.3-6.2-2.3S436.7,284.7,438.8,282.7z"/>
	<path fill="#3B4451" d="M300.9,322.8c0,0-7.8,3.3-11.2,4.5c-3.4,1.3-98.4-1-120.5-0.6c-22.1,0.3-127.6-0.7-127.6-0.7s0-1.4,0-3.8
		c0-2.7-0.1-5.1-0.1-5.1l3.4-2.1h256V322.8z"/>
	<polygon fill="#A2A2A1" points="404.9,435.8 337.7,437.1 337.8,440.5 404.6,437.2 	"/>
	<g>
		<path fill="#2E4A6D" d="M502.3,384.7c14.3,0,44.4,0,44.4,0s6.7-0.4,11.9,3.5c2.6,2,3.8,3.7,5.1,6.2l-82.6,0.6
			C481.1,395.1,488,384.7,502.3,384.7z"/>
		<path fill="#2E4A6D" d="M564.7,396.9c0,0.1,0,0.1,0,0.3c-0.1-0.3-0.1-0.6-0.3-0.7C564.6,396.5,564.7,396.6,564.7,396.9z"/>
	</g>
	
		<linearGradient id="SVGID_8_" gradientUnits="userSpaceOnUse" x1="11.9027" y1="728.6822" x2="14.5498" y2="728.6822" gradientTransform="matrix(-1.4193 0 0 -1.4193 611.951 1392.416)">
		<stop  offset="0" style="stop-color:#FFFFFF"/>
		<stop  offset="1" style="stop-color:#94C5EA"/>
	</linearGradient>
	<path fill="url(#SVGID_8_)" d="M591.3,360c0,0,1.6-6,3.1-4.4c1.6,1.4,0,4-1.6,5.1C591.3,361.7,591.3,360,591.3,360z"/>
	
		<linearGradient id="SVGID_9_" gradientUnits="userSpaceOnUse" x1="17.8259" y1="728.3804" x2="21.9346" y2="728.3804" gradientTransform="matrix(-1.4193 0 0 -1.4193 611.951 1392.416)">
		<stop  offset="0" style="stop-color:#FFFFFF"/>
		<stop  offset="1" style="stop-color:#94C5EA"/>
	</linearGradient>
	<path fill="url(#SVGID_9_)" d="M586.6,357.3c0,0-0.3,3-2.1,3.3c-1.7,0.3-3.7-1.8-3.7-1.8S587,355.2,586.6,357.3z"/>
	<path fill="#416B9F" d="M359.8,410.3c-1.6-1.1-2.8-2.1-2.8-2.1v1.6c-6,0-6.2-4-6.5-6.7c-0.1-1.1-0.1-9.2-0.1-19.7l8.4,0.7
		c0,0-0.1,6.1,1.6,12.5c3.3,12.2,10.8,11.2,10.8,11.2l83.6-0.4c0,0,10.4-38.5,15.5-46.3c7.5-11.6,21.9-11.2,21.9-11.2
		s-14.5,4.1-18.7,14.5c-4.1,10.4-10.5,48-10.5,48l-3.3,0.6h-94.5C362.8,412.4,361.2,411.3,359.8,410.3z"/>
	<path fill="#84909F" d="M599.4,378.5c0,0,1.6-0.3,1.7,1.8c0.1,2.3-0.3,6.7-0.3,6.7s-0.9-3.1-1.1-4.7
		C599.4,380.7,599.1,378.8,599.4,378.5z"/>
	<path fill="#DBDADA" d="M600.1,378.9c0,0,1,0.6,0.9,1.3c-0.1,0.7-0.9,0.3-1.1,0C599.7,379.9,599.4,378.6,600.1,378.9z"/>
	<path fill="#FFFFFF" d="M599.8,364.7c0,0,1.1,0.1,1.4,1.4c0.3,1.3-1.3,1.7-1.6,1C599.2,366.5,599.8,364.7,599.8,364.7z"/>
	<path fill="#9BC9EC" d="M584.7,345c0,0,5.5-7.2-34.5-10.6c-40-3.3-63.4-5.3-63.4-5.3s1.4,3.5,1.4,4.5c0.1,1.4,0.1,3.1,0.1,3.1
		S580.6,338,584.7,345z"/>
	
		<linearGradient id="SVGID_10_" gradientUnits="userSpaceOnUse" x1="88.6655" y1="743.1" x2="109.0655" y2="743.1" gradientTransform="matrix(-1.4193 0 0 -1.4193 611.951 1392.416)">
		<stop  offset="0" style="stop-color:#C2DFF3"/>
		<stop  offset="1" style="stop-color:#94C5EA"/>
	</linearGradient>
	<polygon fill="url(#SVGID_10_)" points="486.1,337.7 457.2,335.6 458.7,339.3 486,339.9 	"/>
	
		<linearGradient id="SVGID_11_" gradientUnits="userSpaceOnUse" x1="89.1269" y1="747.6" x2="106.7129" y2="747.6" gradientTransform="matrix(-1.4193 0 0 -1.4193 611.951 1392.416)">
		<stop  offset="0" style="stop-color:#ADD2EE"/>
		<stop  offset="0.3443" style="stop-color:#ADD2EE"/>
		<stop  offset="0.7828" style="stop-color:#94C5EA"/>
	</linearGradient>
	<path fill="url(#SVGID_11_)" d="M485.4,336.5c0,0-15.6-0.9-18.7-1.4s-6.2-1.1-6.2-1.8c0-0.1,0.4-0.6,1-1.1c1.1-1.1,3.1-2.8,4.4-4
		c1-0.9,2.3-1.8,2.3-1.8s-0.1,1.7,4,2.1c3.5,0.4,11.6,0.7,11.6,0.7S485.5,331.6,485.4,336.5z"/>
	
		<linearGradient id="SVGID_12_" gradientUnits="userSpaceOnUse" x1="109.8655" y1="743.55" x2="169.0655" y2="743.55" gradientTransform="matrix(-1.4193 0 0 -1.4193 611.951 1392.416)">
		<stop  offset="0" style="stop-color:#B7D8F1"/>
		<stop  offset="1" style="stop-color:#94C5EA"/>
	</linearGradient>
	<path fill="url(#SVGID_12_)" d="M456,340.2c0,0-31.8-0.4-55.2-0.7c-23.6-0.3-28.8-1.1-28.8-1.1l1.6-4.3l79.8,1.7L456,340.2z"/>
	<polygon fill="#3B4451" points="319.1,320.3 315.8,374.4 317.9,374.4 317.1,380.2 319.3,380 319.3,319.9 	"/>
	<polygon fill="#3B4451" points="214.5,327.2 211.6,374.5 214.5,374.5 211.3,380.9 216,380.3 216.6,326.8 	"/>
	<polygon fill="#3B4451" points="120.1,325 117.9,373.5 118.7,380.2 121.8,379.3 122.2,325.2 	"/>
	<polygon fill="#3B4451" points="18.3,319.6 17.3,319.1 14.1,372.7 16.3,373.5 13.6,379.9 19,379.9 	"/>
	<g>
		<rect x="44.7" y="314.9" fill="#697A8C" width="256.2" height="7.8"/>
		<path fill="#363A3B" d="M44.4,314.6h256.9v8.5H44.4C44.4,323.1,44.4,314.6,44.4,314.6z M300.6,315.3H45v7.2h255.6V315.3z"/>
	</g>
	<polygon fill="#262B33" points="0.3,371.2 344.9,374.5 344.9,375.9 0,373.2 	"/>
	<g>
		<polygon fill="#697A8C" points="325.9,319.6 325.9,382.4 319.5,382.4 319.5,319.6 		"/>
		<path fill="#363A3B" d="M319.2,319.1h7v63.4h-7V319.1z M325.6,319.9h-5.8v62.3h5.8V319.9z"/>
	</g>
	<g>
		<polygon fill="#697A8C" points="222.7,319.6 222.7,382.4 216.3,382.4 216.3,319.6 		"/>
		<path fill="#363A3B" d="M216,319.1h7v63.4h-7V319.1z M222.4,319.9h-5.8v62.3h5.8V319.9z"/>
	</g>
	<g>
		<polygon fill="#697A8C" points="128.4,319.6 128.4,382.4 122.1,382.4 122.1,319.6 		"/>
		<path fill="#363A3B" d="M121.8,319.1h7v63.4h-7V319.1z M128.2,319.9h-5.8v62.3h5.8V319.9z"/>
	</g>
	<g>
		<polygon fill="#697A8C" points="24.7,319.6 24.7,382.4 18.3,382.4 18.3,319.6 		"/>
		<path fill="#363A3B" d="M18,319.1h7v63.4h-7C18,382.6,18,319.1,18,319.1z M24.4,319.9h-5.8v62.3h5.8V319.9z"/>
	</g>
	<polygon fill="#3B4451" points="23.3,321 23.3,377.3 21,377.3 21,320.7 	"/>
	<polygon fill="#3B4451" points="126.7,321 126.7,377.3 124.5,377.3 124.5,320.7 	"/>
	<polygon fill="#3B4451" points="220.8,321 220.8,377.3 218.6,377.3 218.6,320.7 	"/>
	<polygon fill="#3B4451" points="324,321 324,377.3 321.8,377.3 321.8,320.7 	"/>
	<path fill="#385982" d="M459.4,413.1l3.5-0.6v-0.3c0-0.3,6.2-30.4,8.9-42.2c4-17.7,17.3-19.9,29.5-20.4c13.3-0.6,86.6-0.4,87.3-0.4
		v-1c-0.7,0-74.1-0.1-87.4,0.4c-12.5,0.6-26.1,2.7-30.4,21.1c-2.6,11.1-8.1,38.6-8.8,41.9l-2.8,0.6L459.4,413.1z"/>
	<path fill="#638FBF" d="M361.6,286.1c0,0-3.3,25.4-3.1,44.4c0.1,23,0.4,58.8,0.4,58.8l-7.9-0.4c0,0-1.7-12.9-1.3-28
		c0.4-15.2,1.7-49,2.6-57.8c0.9-8.7,3.1-16.5,3.1-16.5S356.8,284.8,361.6,286.1z"/>
	<path fill="#1C1D21" d="M313,409.8c0,0-8.4,0.3-26.7,0.7c-18.2,0.4-32.8-1.7-32.8-1.7s16-5.3,28-5.4c3.3,0,7.7-0.7,11.5,0
		C303.2,405.3,313,409.8,313,409.8z"/>
	<g>
		<path fill="#697A8C" d="M283.3,388.3v6c0,0-0.1,2.1,2,2.1s9.1,0,9.1,0s2.3,0.1,2.3-1.7c0-2,0-6.8,0-6.8s0.4-1.7-1.7-1.7
			s-9.9,0-9.9,0S283.3,385.4,283.3,388.3z"/>
		<path fill="#363A3B" d="M294.4,396.6h-9.1c-0.7,0-1.3-0.3-1.7-0.7c-0.7-0.7-0.6-1.8-0.6-1.8v-6c0-2.3,1.1-2.6,1.7-2.6
			c0.1,0,0.3,0,0.4,0h9.9c0.9,0,1.4,0.3,1.7,0.7c0.4,0.6,0.3,1.3,0.3,1.4v6.8c0,1-0.6,1.6-1,1.7c-0.6,0.3-1.1,0.3-1.4,0.3
			C294.5,396.6,294.4,396.6,294.4,396.6z M285.1,386.3L285.1,386.3c-0.1,0-0.1,0-0.4,0c-0.9,0-1.1,1.1-1.1,2v6c0,0,0,0.9,0.4,1.4
			c0.3,0.3,0.7,0.4,1.3,0.4h9.2c0,0,0.7,0,1.3-0.3c0.4-0.3,0.7-0.7,0.7-1.3v-6.8v-0.1c0,0,0.1-0.6-0.1-0.9c-0.3-0.3-0.6-0.4-1.3-0.4
			H285.1z"/>
	</g>
	<g>
		<path fill="#697A8C" d="M253.1,388.3v6c0,0-0.1,2.1,2,2.1c2.1,0,9.1,0,9.1,0s2.3,0.1,2.3-1.7c0-2,0-6.8,0-6.8s0.4-1.7-1.7-1.7
			s-9.9,0-9.9,0S253.1,385.4,253.1,388.3z"/>
		<path fill="#363A3B" d="M264.1,396.6H255c-0.7,0-1.3-0.3-1.7-0.7c-0.7-0.7-0.6-1.8-0.6-1.8v-6c0-2.3,1.1-2.6,1.7-2.6
			c0.1,0,0.3,0,0.4,0h9.9c0.9,0,1.4,0.3,1.7,0.7c0.4,0.6,0.3,1.3,0.3,1.4v6.8c0,1-0.6,1.6-1,1.7c-0.6,0.3-1.1,0.3-1.4,0.3
			C264.3,396.6,264.3,396.6,264.1,396.6z M254.9,386.3L254.9,386.3c-0.1,0-0.1,0-0.4,0c-0.9,0-1.1,1.1-1.1,2v6c0,0,0,0.9,0.4,1.4
			c0.3,0.3,0.7,0.4,1.3,0.4h9.2c0,0,0.7,0,1.3-0.3c0.4-0.3,0.7-0.7,0.7-1.3v-6.8v-0.1c0,0,0.1-0.6-0.1-0.9c-0.3-0.3-0.6-0.4-1.3-0.4
			H254.9z"/>
	</g>
	<g>
		<circle fill="#7BAED8" cx="482.3" cy="347" r="3.5"/>
		<path fill="#385982" d="M478.4,347c0-2.1,1.7-3.8,3.8-3.8s3.8,1.7,3.8,3.8s-1.7,3.8-3.8,3.8C480.1,350.7,478.4,349,478.4,347z
			 M479,347c0,1.7,1.4,3.1,3.1,3.1c1.7,0,3.1-1.4,3.1-3.1s-1.4-3.1-3.1-3.1C480.4,343.7,479,345.1,479,347z"/>
	</g>
	<g>
		<circle fill="#7BAED8" cx="467.9" cy="345" r="3.4"/>
		<path fill="#385982" d="M464.3,345c0-2,1.7-3.7,3.7-3.7s3.7,1.7,3.7,3.7c0,2-1.7,3.7-3.7,3.7C466,348.7,464.3,347,464.3,345z
			 M465,345c0,1.7,1.4,3,3,3c1.7,0,3-1.4,3-3c0-1.7-1.4-3-3-3C466.2,342,465,343.3,465,345z"/>
	</g>
	<path fill="#668FC4" d="M484.1,303.2l-0.4,43.4c0,0,0,1.1-1,1.4c-1.1,0.1-1.4-1-1.4-1L482,304L484.1,303.2z"/>
	<path fill="#668FC4" d="M480.3,295.7c0,0,2.1,2.7,1,3.5c-1.1,0.9-3.4,6.4-3.4,6.4l-8.2,39.2c0,0-0.4,1.1-1.4,1.4
		c-1.1,0.3-1.4-1.3-1.4-1.3s7.5-32.6,8.9-39.9C477.2,297.6,480.3,295.7,480.3,295.7z"/>
	<path fill="#1C1D21" d="M478.3,277.3c0.3,2,2,27.4,2,27.4h1.7c0,0,1.6,0.1,2,0c0.6-0.1,1.6-0.6,1.4-2.3c-0.1-1.8,0-4.8-0.1-9.5
		c-0.1-9.2-1.4-14.9-1.7-16s-1-1.7-2.8-1.4C478.9,275.9,478.2,275.7,478.3,277.3z"/>
</g>
</svg>
