<?xml version="1.0" encoding="utf-8"?>
<!-- Generator: Adobe Illustrator 18.1.1, SVG Export Plug-In . SVG Version: 6.00 Build 0)  -->
<svg version="1.1" id="Layer_1" xmlns="http://www.w3.org/2000/svg" xmlns:xlink="http://www.w3.org/1999/xlink" x="0px" y="0px"
	 viewBox="0 0 435.2 203.8" enable-background="new 0 0 435.2 203.8" xml:space="preserve">
<polygon opacity="0.3" fill="#4888C8" enable-background="new    " points="327.7,15.2 382.6,15.2 392.7,58.4 327.7,58.4 "/>
<ellipse opacity="0.3" fill="#857C6F" enable-background="new    " cx="219.7" cy="184.6" rx="215.4" ry="19.2"/>
<g>
	<path fill="#0A0A0A" d="M13,114.7v-4.6l72.3-22l156,11l22.9,2.2l42.9,7.4l-4.9,26l-31-0.8l-10.2,0.4c0,0-1.1,0.4-4.1,2.4
		c-3,2.1-3.4,1.9-4.6,1.9c-1.1,0-1.7,0.1-1.7,0.1v0.5H237v1.8h-11.2l-0.4-1.9h-2.3h-3.3v3h-4.3l-0.4,0.4h-2.4V142h-45.3l-0.1-1.8
		l-33.8,8l0.3-6.5l14.4-3h-0.1c0,0-1.9,0.6-2.3-2.1c-0.4-2.7-1.1-4.9-1.1-4.9L14,124.5c0,0-1.8,2.4-5.6,2.3
		c-3.7-0.1-4.8-1.4-4.8-1.4l-0.5,1H0.3v-11.6H13z"/>
	<g>
		<path fill="#3B5628" d="M271.3,104.4h1.6c0.4,0,0.7,0.2,0.8,0.4c0.3,0.3,0.3,0.8,0.3,0.9v23.5c0,0,0,0.8,0.6,1.4
			c0.7,0.6,1.2,0.6,1.2,0.6l0,0l13.8,0c0,0,0.6,0,1.2-0.5c0.6-0.5,0.6-1.6,0.6-1.6v-23.5c0-0.5,0.2-0.8,0.4-0.9
			c0.3-0.3,0.7-0.3,0.8-0.3h1.7v1.1h-1.7c0,0,0,0,0,0.1v23.5c0,0.2,0,1.6-1,2.5c-0.9,0.8-1.7,0.8-1.9,0.8c0,0,0,0,0,0h-13.7
			c-0.2,0-1.1,0-2.1-0.9c-1-0.9-1-2.2-1-2.2v-23.6l0-0.1c0,0,0,0,0,0h-1.6V104.4z"/>
		<path fill="#0A0A0A" d="M295.9,59.4V34.1l-2.2-9.5c0,0-5.5-1-6.7-1.2c-1.5-0.2-2.3-0.3-4.6-0.3c-2.3,0-11.2,1.5-11.2,1.5l-1.6,9.2
			v25v0.5l26,0.3L295.9,59.4z"/>
		<path fill="#28281C" d="M278,37.3V33c0,0-1.2-0.6-3.2-0.5c-2,0.2-3.5,0.8-3.5,0.8v-2.5c0,0,1.3-0.6,3.3-0.6c2,0,3.3,0.5,3.3,0.5
			v-3.1c0,0-1.7-0.5-3.8-0.4c-2.1,0.2-2.6,0.5-2.6,0.5V26c0,0,0.3-0.2,2.6-0.5c1.4-0.2,3.8,0,3.8,0v-1.2c0,0-1.9-0.2-3.6-0.2
			c2.8-0.4,6.4-1,7.7-1c0.2,0,0.4,0,0.6,0v0c1.9,0,2.5,0.1,3.6,0.2c1.9,0.3,7.1,1.3,7.1,1.3V25c-0.4-0.1-1.8-0.4-2.8-0.5
			c-3.2-0.3-3.7-0.2-3.7-0.2v0.8c0,0,2.3,0.1,3,0.2c2.3,0.2,3.4,0.5,3.4,0.5v1.5c0,0-1.3-0.4-3.3-0.6c-2.4-0.2-3.1-0.2-3.1-0.2v1.2
			c0,0,1.1-0.2,3.1,0c1.9,0.2,3.3,0.7,3.3,0.7V30c0,0-1.1-0.4-3.6-0.6c-2.2-0.1-2.8,0.3-2.8,0.3v3.4c0,0,0.7-0.4,3.3-0.5
			c2.2-0.1,3.1,0.3,3.1,0.3l0,2.9c0,0-1-0.2-2.9,0c-1.9,0.2-3.5,0.6-3.5,0.6v4.9c0,0,0.9-0.5,3.2-0.7c1.9-0.2,3.2,0.1,3.2,0.1v3.2
			c0,0-1.5-0.4-3.3-0.1c-2.2,0.4-3.1,1-3.1,1v5.7c0,0,1.2-0.5,3.2-0.7c1.9-0.2,3.1-0.2,3.1-0.2l0.2,4c0,0-5.3,0.1-6.8,0.7
			c-1.5,0.6-3.3,1.5-3.3,1.5l-0.7-1.5l-4.6-1v-3.5c0,0-1.4-0.9-3.3-1.2c-1.9-0.3-3.1-0.1-3.1-0.1v-3.3c0,0,1.6-0.3,3.5-0.1
			c1.4,0.2,2.9,0.9,2.9,0.9V41c0,0-0.2-0.6-2.9-1c-2.7-0.4-3.4,0.3-3.4,0.3l-0.1-3.4c0,0,0.6-0.5,3-0.4
			C276.7,36.6,278,37.3,278,37.3z"/>
		<rect x="290.8" y="53.3" fill="#223019" width="3.4" height="8.4"/>
		<rect x="271.1" y="53.3" fill="#223019" width="3.4" height="8.4"/>
		<rect x="271.2" y="53.3" fill="#3B5628" width="23.1" height="3.6"/>
		<rect x="291.4" y="117.9" fill="#223019" width="1.1" height="0.6"/>
		<rect x="272.9" y="117.9" fill="#223019" width="1.1" height="0.6"/>
		<path fill="#223019" d="M292.5,104.9c0,0-0.7,0-0.9,0.3c-0.2,0.3-0.2,0.7-0.2,0.7l0-0.1v-0.2c0-0.5,0.2-0.8,0.4-0.9
			c0.3-0.3,0.7-0.3,0.8-0.3h1.7v0.5H292.5z"/>
		<path fill="#223019" d="M271.3,104.4h1.6c0.4,0,0.7,0.2,0.8,0.4c0.3,0.3,0.3,0.8,0.3,0.9v0.2c0-0.1,0-0.5-0.2-0.7
			c-0.2-0.4-0.9-0.3-0.9-0.3h-1.6V104.4z"/>
		<path fill="#3B5628" d="M296.5,103.2v0.5c0,0,0.2,1-1.1,1c-1.3,0-25.6,0-25.6,0s-0.8,0.1-0.8-0.8c0-0.9,0-44,0-44
			s-0.2-0.8,0.7-0.8c0.9,0,25.7,0,25.7,0s1.1,0,1.1,0.9C296.6,60.6,296.5,103.2,296.5,103.2z"/>
		<polygon fill="#2E441F" points="296.5,102.7 294.3,102.7 294.3,61 296.6,61 		"/>
		<polygon fill="#223019" points="294.1,102.9 296.5,102.9 296.5,102.6 294.5,102.6 294.5,61.2 296.6,61.2 296.6,60.9 294.1,60.9 		
			"/>
		<rect x="272.4" y="115.1" fill="#3B5628" width="20.4" height="3"/>
	</g>
	<path fill="#D9E6D4" d="M421.6,94.6c0,0,3.2,1.8,3.1,6.7c-0.1,4.1-3.2,6.3-3.2,6.3L421.6,94.6z"/>
	
		<linearGradient id="SVGID_1_" gradientUnits="userSpaceOnUse" x1="10.6967" y1="103.1582" x2="14.1922" y2="103.1582" gradientTransform="matrix(-1 0 0 1 435.161 0)">
		<stop  offset="0" style="stop-color:#A3BCB6"/>
		<stop  offset="0.7664" style="stop-color:#D9E6D4"/>
		<stop  offset="1" style="stop-color:#D9E6D4"/>
	</linearGradient>
	<path fill="url(#SVGID_1_)" d="M424.3,98.6c0,0-0.2,2.6-1.4,3.6c-1.3,1-1.8,1-1.8,1l0.3,4.5c0,0,2.3-2,2.9-4.3
		C424.8,101.1,424.3,98.6,424.3,98.6z"/>
	<path fill="#223019" d="M417,110.8c0,0,0.5,0,1-0.3c0.5-0.4,0.8-0.6,0.8-0.6V92.7c0,0-0.3-0.5-0.7-0.6c-0.4-0.1-1,2.9-1,2.9
		L417,110.8z"/>
	<path fill="#223019" d="M303,58.3l-4.4,3.6c0,0-0.9,0.6-0.9,1.8c0,1.1,0,4.7,0,4.7s0,0.9,1.5,1.8c1.5,0.9,4.8,3.3,4.8,3.3l0.5-15.2
		L303,58.3z"/>
	<path fill="#223019" d="M304.2,76.1c0,0-2.2,1.3-2.2,2.8c0,1.5,2.3,3.1,2.3,3.1L304.2,76.1z"/>
	<path fill="#223019" d="M417.1,67c0,0,1.5,11.2,1.7,15.9c0.2,4.7-1.8,28.9-1.8,28.9l-1.7-33.5L417.1,67z"/>
	<path fill="#0A0A0A" d="M417.2,111.8c0,0,2,0.2,3.8,0.8c1.8,0.6,3.4,2.6,3.4,2.6h3.1c0,0,2.6-0.2,3.4-1.7c0.8-1.5-0.4-2.6-1.2-2.7
		c-1.1-0.2-1.5,0.8-1.5,0.8s-0.7,0-0.7-0.9c0-0.9,1.3-2.7,3.9-2.2c2.8,0.5,3.1,3.2,2.9,5c-0.2,1.8-0.1,2.7-0.1,2.7s0.9,0.4,0.9,0.8
		c0.1,0.3,0,15.5,0,15.5s0,0.7-1,0.8c-1,0.1-3.7,0-3.7,0v-2.9h-2.3h-3.4v6h-15.4v-3.5l-1.3-0.2v3.5h-4.9V131l-3.7,0.2v1.1h-1.8v-0.5
		l-2.9,0.5l-6.5-10.6c0,0-8.3-9.3-15.6-13.5c-7.3-4.3-19.5-4.3-22.5-4.3s-16.1,5.8-16.1,5.8l-18.6,22.7l-0.9,7.3l-11.8-1.3v1h-0.8
		v-23.5h-4.6v-11.3H297v-1h0.4c0,0,0.4-0.5,0.7-0.9c0.3-0.4,0.7-0.7,0.7-0.7h0.9v-0.3c0,0-0.2,0-0.2-0.8c0-0.9,0-5.6,0-5.6
		s0.1-0.7,0.9-0.7c0.8,0,2.4-0.1,2.4-0.1v-3c0,0,0.2-0.8,0.9-0.8c0.5,0,47.4-4.1,80.1,2C404.9,96.6,417.2,111.8,417.2,111.8z"/>
	<path fill="#3B5628" d="M303.1,55.6c0,0,0,10.8,0,11.4c0,0.7,0,0.8,0.4,1.1c0.4,0.3,0.3,0.9,0.3,0.9v20.9c0,0,0,0-0.2,0.1
		c-0.2,0.1-0.2,0.9-0.2,0.9v23c0,0,7.5,0.1,9.4,0c2-0.1,3.2-2.1,6.5-5.5c3.3-3.3,4.4-4.6,7.5-7c2.5-1.9,4-2,4-2h48.7
		c0,0,2.9,0,5.8,3.1c3.8,4.1,10.1,11.7,10.1,11.7h21.7V67.2h0.8c0,0,0-0.4,0-1.2c0-0.7-0.8-0.9-0.8-0.9V65c0,0,0.2-6.9-6.5-8.1
		c-6.7-1.2-16.8-2.5-16.8-2.5l-11.2-42.5l4.5,0c0,0,0.3,0,0.4-0.3c0.2-0.3-0.3-0.5-0.4-0.5c-0.1,0-1.9,0-1.9,0V11c0,0-2.2-5.9-9.2-8
		c-7.1-2.1-21.3-3.3-32.1-3c-10.8,0.3-21.5-0.3-29,2.1c-7.6,2.4-9.9,9.1-9.9,9.1l-1.2,0c0,0,0,0.2,0.1,0.5c0.1,0.4,0.9,0.4,0.9,0.4
		l0.1,5.5l-0.2,0.3c0,0-0.8,35.3-0.8,35.8C303.9,54.3,303.1,55.6,303.1,55.6z M378,16.1c3.1-0.6,3.8,2.4,3.8,2.4s6.3,24.4,7,26.8
		c0.7,2.4,0.8,5-1.9,5.7c-2.7,0.6-3.4-2.5-3.4-2.5l-7.4-28C376.1,20.4,374.8,16.7,378,16.1z M331.5,21.3c0,0,0.1-1.2,1-2.2
		c0.9-1,2.3-1.2,2.3-1.2l29.4-0.1c0,0,0.7,0,1.5,0.9c0.8,0.9,1.2,2.1,1.2,2.1l6.1,23.7c0,0,0.4,2-0.7,3.5c-1.1,1.5-3,1.4-3,1.4
		h-34.3c0,0-1.5-0.4-2.6-1.2c-1.1-0.8-1.1-2.4-1.1-2.4V21.3z"/>
	<path fill="#4D7235" d="M303.1,55.6c0,0,0.8-1.2,0.8-1.7h89.8l0.1,0.5c0,0,10.1,1.3,16.8,2.5c6.7,1.2,6.5,8.1,6.5,8.1
		c-1.4-5.3-4.4-5.7-10.1-6.2c-8.1-0.8-13.2-1.4-13.2-1.4l-90.7-1.2C303.1,55.8,303.1,55.6,303.1,55.6z"/>
	<g>
		<path fill="#D12527" d="M314,144.5c0-22.4,18.2-40.7,40.7-40.7c22.4,0,40.7,18.2,40.7,40.7c0,22.4-18.2,40.7-40.7,40.7
			C332.3,185.2,314,167,314,144.5z M314.3,144.5c0,22.3,18.1,40.4,40.4,40.4s40.4-18.1,40.4-40.4c0-22.3-18.1-40.4-40.4-40.4
			S314.3,122.3,314.3,144.5z"/>
		<circle fill="#28281C" cx="354.7" cy="144.5" r="42"/>
		<path fill="#0A0A0A" d="M312.7,144.5c0,23.2,18.8,42,42,42c23.2,0,42-18.8,42-42c0-23.2-18.8-42-42-42
			C331.5,102.6,312.7,121.4,312.7,144.5z M315,148.3c0.7,0.3,1.6,0.6,2.9,0.8c2.1,0.4,3.4,0.6,4,0.7c-0.2-1.2-0.3-2.3-0.4-3.5
			c-0.5-0.1-1.4-0.2-2.9-0.6c-2.1-0.6-3.2-1-3.2-1l-0.6-1.3c0-1.7,0.2-3.4,0.5-5c0.6,0.4,1.5,1,2.7,1.5c1.9,0.9,3.1,1.4,3.7,1.6
			c0.1-1.2,0.3-2.3,0.5-3.5c-0.5-0.2-1.3-0.6-2.7-1.3c-1.9-1.1-2.9-1.7-2.9-1.7l-0.3-1.3c0.5-1.7,1.1-3.3,1.7-4.9
			c0.5,0.6,1.2,1.3,2.2,2.2c1.6,1.4,2.6,2.2,3.1,2.6c0.4-1.1,0.8-2.2,1.4-3.3c-0.4-0.3-1.1-0.9-2.2-1.9c-1.6-1.6-2.3-2.4-2.3-2.4
			l0.1-1.6c0.9-1.4,1.8-2.8,2.8-4.2c0.3,0.7,0.8,1.6,1.5,2.6c1.3,1.8,2,2.9,2.4,3.3c0.7-1,1.4-1.9,2.1-2.8c-0.3-0.4-0.9-1.1-1.7-2.5
			c-1.1-1.9-1.6-2.9-1.6-2.9l0.5-1.5c1.2-1.2,2.4-2.3,3.7-3.3c0.1,0.7,0.4,1.7,1,3c0.8,1.8,1.3,3,1.6,3.6c0.9-0.8,1.8-1.5,2.7-2.2
			c-0.2-0.5-0.6-1.3-1.1-2.7c-0.7-2.1-1-3.2-1-3.2l0.8-1.2c1.6-1,3.2-1.8,4.9-2.5c-0.1,0.7-0.1,1.7,0,3c0.2,2.2,0.4,3.5,0.4,4.1
			c1.1-0.5,2.1-1,3.3-1.5c-0.1-0.5-0.2-1.4-0.2-2.9c0-2.2,0-3.3,0-3.3l1.3-1.1c1.5-0.4,3.1-0.8,4.8-1c-0.2,0.7-0.5,1.7-0.7,2.9
			c-0.3,2.2-0.4,3.4-0.5,4c1.1-0.3,2.3-0.4,3.5-0.6c0-0.5,0.1-1.4,0.5-3c0.5-2.2,0.8-3.2,0.8-3.2l1.2-0.6c0.4,0,0.8,0,1.3,0
			c1.3,0,2.6,0.1,3.9,0.2c-0.4,0.6-0.9,1.5-1.3,2.7c-0.8,2-1.2,3.3-1.4,3.8c1.2,0,2.4,0.1,3.5,0.3c0.1-0.5,0.5-1.3,1.2-2.8
			c1-2,1.5-3,1.5-3l1.2-0.3c1.8,0.4,3.5,0.9,5.2,1.5c-0.5,0.5-1.2,1.2-2,2.3c-1.3,1.7-2,2.8-2.4,3.3c1.1,0.3,2.3,0.7,3.3,1.2
			c0.3-0.4,0.8-1.2,1.8-2.4c1.5-1.7,2.3-2.5,2.3-2.5l1.4,0c1.5,0.8,2.9,1.6,4.3,2.6c-0.7,0.4-1.5,0.9-2.5,1.7
			c-1.6,1.4-2.6,2.2-3.1,2.6c1,0.6,2,1.3,2.9,2c0.4-0.3,1.1-0.9,2.4-1.9c1.8-1.3,2.8-1.9,2.8-1.9l1.2,0.3c1.3,1.2,2.5,2.4,3.7,3.7
			c-0.7,0.2-1.7,0.5-2.8,1.1c-1.9,0.9-3,1.5-3.6,1.8c0.8,0.8,1.6,1.7,2.3,2.6c0.4-0.2,1.3-0.7,2.7-1.3c2.1-0.8,3.1-1.1,3.1-1.1
			l1.1,0.6c1,1.5,1.9,3.1,2.8,4.7c-0.7,0-1.7,0.1-3,0.3c-2.2,0.4-3.4,0.7-4,0.8c0.6,1,1.1,2.1,1.6,3.1c0.5-0.1,1.4-0.3,3-0.5
			c2.2-0.2,3.3-0.3,3.3-0.3l0.9,0.9c0.6,1.6,1,3.2,1.4,4.9c-0.7-0.2-1.7-0.4-3-0.5c-2.1-0.2-3.4-0.2-4-0.2c0.3,1.1,0.6,2.3,0.8,3.4
			c0.5,0,1.4,0.1,2.9,0.3c2.2,0.3,3.3,0.6,3.3,0.6l0.8,1.3c0.1,1.2,0.2,2.4,0.2,3.7c0,0.4,0,0.8,0,1.2c-0.7-0.3-1.6-0.8-2.8-1.1
			c-2.1-0.6-3.3-1-3.9-1.2c0,0.4,0,0.7,0,1.1c0,0.8,0,1.6-0.1,2.4c0.5,0.1,1.4,0.4,2.9,1c2.1,0.8,3.1,1.3,3.1,1.3l0.4,1.1
			c-0.3,1.8-0.6,3.5-1.1,5.2c-0.5-0.5-1.3-1.1-2.4-1.8c-1.8-1.1-2.9-1.8-3.4-2.1c-0.3,1.2-0.6,2.3-0.9,3.4c0.4,0.2,1.2,0.7,2.5,1.6
			c1.8,1.3,2.6,2,2.6,2l0.1,1.4c-0.7,1.6-1.5,3.2-2.4,4.7c-0.4-0.6-1-1.5-1.9-2.5c-1.4-1.6-2.3-2.5-2.7-3c-0.5,1.1-1.1,2.1-1.8,3.1
			c0.4,0.4,1,1,1.9,2.2c1.4,1.8,2,2.7,2,2.7l-0.4,1.7c-1,1.3-2,2.5-3.2,3.6c-0.2-0.7-0.6-1.6-1.2-2.7c-1.1-1.9-1.7-3-2-3.5
			c-0.8,0.9-1.6,1.7-2.5,2.5c0.3,0.4,0.7,1.2,1.4,2.7c0.9,2,1.3,3.1,1.3,3.1l-0.6,1.2c-1.4,1.1-2.9,2.1-4.4,3c0-0.7-0.2-1.8-0.5-3
			c-0.5-2-0.9-3.2-1.1-3.8c-1,0.7-2,1.3-3,1.8c0.2,0.5,0.4,1.4,0.7,2.9c0.4,2.2,0.5,3.3,0.5,3.3l-0.9,1.1c-1.6,0.7-3.2,1.3-4.8,1.7
			c0.1-0.7,0.3-1.8,0.3-3.1c0-2-0.1-3.2-0.1-3.9c-1.1,0.4-2.2,0.7-3.4,1c0,0.5,0.1,1.4,0,2.9c-0.1,2.2-0.3,3.3-0.3,3.3l-1.2,0.9
			c-1.7,0.3-3.5,0.4-5.3,0.5c0.3-0.7,0.7-1.6,1.1-2.9c0.6-2,0.9-3.3,1-3.9c-1,0.1-2,0.1-3.1,0.1c-0.2,0-0.3,0-0.5,0
			c-0.1,0.5-0.3,1.4-0.8,2.8c-0.7,2.1-1.2,3.1-1.2,3.1l-1.6,0.6c-1.6-0.2-3.2-0.4-4.7-0.8c0.5-0.6,1.1-1.4,1.7-2.5
			c1-1.9,1.6-3,1.9-3.6c-1.2-0.2-2.3-0.4-3.5-0.7c-0.2,0.4-0.6,1.3-1.5,2.6c-1.2,1.9-1.9,2.7-1.9,2.7l-1.3,0.2
			c-1.7-0.6-3.4-1.3-5-2.2c0.6-0.4,1.4-1,2.3-2c1.5-1.6,2.4-2.5,2.8-2.9c-1.1-0.5-2.2-1-3.2-1.6c-0.3,0.4-1,1-2.1,2.1
			c-1.7,1.5-2.6,2.1-2.6,2.1l-1.6-0.3c-1.3-0.9-2.6-1.9-3.8-2.9c0.7-0.3,1.6-0.7,2.7-1.4c1.8-1.2,2.9-1.9,3.4-2.2
			c-0.9-0.7-1.8-1.5-2.7-2.3c-0.4,0.3-1.2,0.8-2.6,1.6c-2,1.1-3,1.5-3,1.5L325,171c-1.2-1.3-2.3-2.7-3.3-4.2c0.7-0.1,1.7-0.3,3-0.7
			c2-0.6,3.2-1.1,3.8-1.3c-0.7-0.9-1.4-1.9-2-2.9c-0.5,0.2-1.3,0.5-2.8,0.9c-2.2,0.5-3.3,0.7-3.3,0.7l-1.2-0.9
			c-0.8-1.5-1.5-3.1-2.1-4.8c0.7,0.1,1.7,0.2,3,0.1c2.2-0.1,3.5-0.2,4.1-0.2c-0.5-1.1-0.9-2.2-1.3-3.3c-0.5,0-1.4,0.1-3,0
			c-2.2-0.1-3.3-0.2-3.3-0.2l-1-1.3C315.4,151.5,315.2,149.9,315,148.3z"/>
		<circle fill="#576154" cx="354.7" cy="144.5" r="21.4"/>
		<circle fill="#464E44" cx="354.7" cy="144.5" r="17.3"/>
		<circle fill="#576154" cx="354.7" cy="144.5" r="14.1"/>
		<circle fill="#464E44" cx="354.7" cy="144.5" r="11.2"/>
		<circle fill="#576154" cx="354.7" cy="144.5" r="7.1"/>
	</g>
	<path fill="#223019" d="M324.2,12.3l0.1,76.5c0,0.1,0,3.4,1.1,4.7c1.1,1.3,2.1,2,4.3,2.1c0.6,0,4.9,0.1,12.8,0.1
		c13.4,0,32.7-0.1,32.9-0.1c0,0,0.2,0,0.5,0c0.9,0,3-0.2,4.4-1.8c1.6-1.9,1.5-4.7,1.5-6c0-0.2,0-0.3,0-0.5V53.9l0,0l-11.7-42
		l-45.9,0.3L324.2,12.3z M324.6,88.8l-0.1-76.4l45.3-0.3l11.6,41.7v33.5c0,0.1,0,0.3,0,0.5c0,1.3,0.1,4.1-1.4,5.8
		c-1.3,1.5-3.3,1.7-4.1,1.7c-0.3,0-0.5,0-0.5,0c0,0,0,0,0,0c-0.3,0-19.6,0.1-33,0.1c-7.9,0-12.2,0-12.8-0.1c-2.1-0.2-3-0.8-4.1-2
		C324.6,92.1,324.6,88.9,324.6,88.8z"/>
	<g>
		<path fill="#4A6D33" d="M329.1,21.2v24.9c0,0,0.1,2.8,1.8,4.4c1.7,1.5,3.6,1.7,3.6,1.7h35.3c0,0,2.7,0,4.3-1.8
			c1.6-1.8,1.4-3.5,1.3-4.2c0-0.6-1.4-6.2-1.8-7.7c-0.4-1.5-4.7-18.6-4.7-18.6s-0.6-1.6-1.9-2.7c-1.3-1.1-3-1.2-3-1.2h-30.5
			c0,0-1.4,0.2-3,1.9C328.9,19.6,329.1,21.2,329.1,21.2z M331.5,21.3c0,0,0.1-1.2,1-2.2c0.9-1,2.3-1.2,2.3-1.2l29.4-0.1
			c0,0,0.7,0,1.5,0.9c0.8,0.9,1.2,2.1,1.2,2.1l6.1,23.7c0,0,0.4,2-0.7,3.5c-1.1,1.5-3,1.4-3,1.4h-34.3c0,0-1.5-0.4-2.6-1.2
			c-1.1-0.8-1.1-2.4-1.1-2.4V21.3z"/>
		<path fill="#223019" d="M329,21.2l0,24.9c0,0.1,0.1,2.9,1.8,4.4c1.7,1.6,3.5,1.7,3.6,1.7l0,0h35.3c0.1,0,2.8-0.1,4.4-1.9
			c1.5-1.6,1.4-3.3,1.4-4c0-0.1,0-0.1,0-0.2c0-0.6-1.1-5-1.7-7.1l-0.2-0.6c-0.4-1.5-4.7-18.5-4.7-18.6c0-0.1-0.6-1.6-1.9-2.8
			c-1.3-1.2-3-1.2-3.1-1.2h-30.5c-0.1,0-1.4,0.2-3.1,2C328.8,19.5,329,21.2,329,21.2z M330.6,17.9c1.5-1.7,2.9-1.9,2.9-1.9l30.5,0
			c0,0,1.7,0,2.9,1.1c1.2,1.1,1.8,2.6,1.8,2.7c0,0.2,4.4,17.1,4.7,18.6l0.2,0.6c0.5,2,1.6,6.5,1.7,7.1c0,0.1,0,0.1,0,0.2
			c0,0.7,0.1,2.3-1.3,3.9c-1.6,1.7-4.2,1.8-4.3,1.8h-35.3c-0.1,0-1.9-0.2-3.5-1.6c-1.6-1.5-1.7-4.3-1.7-4.3V21.2
			C329.2,21.2,329,19.6,330.6,17.9z"/>
	</g>
	<path fill="#2B371C" d="M330.2,21.8c0,0.9,0,24.1,0,24.1s0.2,2.3,1.4,3.6c1.1,1.3,2.8,1.3,2.8,1.3h36.1c0,0,1.8-0.4,3.1-1.9
		c1.3-1.6,0.8-3.2,0.8-3.2s-6.4-24.5-6.6-25.3c-0.2-0.7-1.3-3.3-4-3.3h-29.8c0,0-1.2,0.1-2.3,1.2C330.6,19.5,330.2,20.9,330.2,21.8z
		 M331.5,21.3c0,0,0.1-1.2,1-2.2c0.9-1,2.3-1.2,2.3-1.2l29.4-0.1c0,0,0.7,0,1.5,0.9c0.8,0.9,1.2,2.1,1.2,2.1l6.1,23.7
		c0,0,0.4,2-0.7,3.5c-1.1,1.5-3,1.4-3,1.4h-34.3c0,0-1.5-0.4-2.6-1.2c-1.1-0.8-1.1-2.4-1.1-2.4V21.3z"/>
	<path fill="#223019" d="M318.4,90.5h-15.1l-0.1-0.1l0,0c0-0.2,0.1-0.3,0.2-0.4l0.2-0.1V69c0,0,0-0.6-0.3-0.8
		c-0.2-0.1-0.3-0.3-0.3-0.4l-0.1-0.2l15.6,0c0,0,2.2,0.2,2.2,2.4l0,18c0,0,0.2,1.2-0.6,1.9c-0.6,0.6-1.4,0.6-1.7,0.6
		C318.5,90.5,318.4,90.5,318.4,90.5z M303.4,67.9c0,0,0.1,0.1,0.2,0.1c0.4,0.3,0.4,1,0.4,1v21l-0.3,0.1c0,0,0,0-0.1,0.1l14.9,0
		c0,0,0,0,0.1,0c0.3,0,1-0.1,1.6-0.6c0.7-0.6,0.5-1.7,0.5-1.7V70c0-2-1.9-2.2-2-2.2H303.4z"/>
	<line fill="#3B5628" x1="385.3" y1="11.1" x2="304.8" y2="11.2"/>
	<path fill="#223019" d="M369.7,11.9l13,0l0.9,3.5c0,0-2.2-2.6-5.7-2.7c-3.5-0.1-7.9-0.4-7.9-0.4L369.7,11.9z"/>
	<rect x="303.9" y="53.7" fill="#223019" width="77.7" height="0.2"/>
	<g>
		<path fill="#4A6D33" d="M374.7,20.6c0,0,7,26,7.7,28.3c0.7,2.3,2.5,4.4,5.7,3.2c3.2-1.2,2.1-5.7,2.1-5.7l-7.6-28.9
			c-0.6-1.5-2-3.7-5.5-2.8C373.2,15.7,374.7,20.6,374.7,20.6z M378,16.1c3.1-0.6,3.8,2.4,3.8,2.4s6.3,24.4,7,26.8
			c0.7,2.4,0.8,5-1.9,5.7c-2.7,0.6-3.4-2.5-3.4-2.5l-7.4-28C376.1,20.4,374.8,16.7,378,16.1z"/>
		<path fill="#223019" d="M374.5,20.6c0.1,0.3,7,26,7.7,28.3c0.7,2.3,2.2,3.6,4,3.6c0.6,0,1.2-0.1,1.8-0.4c3.3-1.2,2.2-5.8,2.2-5.8
			l-7.6-28.9c-0.3-0.8-1.3-3.1-4-3.1c-0.5,0-1,0.1-1.6,0.2c-1,0.3-1.8,0.8-2.2,1.7C373.8,18,374.5,20.5,374.5,20.6z M375,16.3
			c0.4-0.8,1.1-1.3,2.1-1.6c0.5-0.2,1.1-0.2,1.5-0.2c1.7,0,3,1,3.8,2.9l7.6,28.9c0,0,1,4.4-2.1,5.6c-0.6,0.2-1.2,0.3-1.7,0.3
			c-2.5,0-3.5-2.4-3.8-3.5c-0.7-2.3-7.7-28-7.7-28.3C374.8,20.5,374.1,18,375,16.3z"/>
	</g>
	<path fill="#223019" d="M304.3,35.3H320c0,0,0.9,0,0.8,0.8c-0.1,0.7-0.8,0.7-0.8,0.7h-15.7C304.3,36.3,304.3,35.8,304.3,35.3z"/>
	<path fill="#223019" d="M304.9,15.9h14.9c0,0,1,0,1,0.8c0,0.8-1.1,0.9-1.1,0.9h-14.8L304.9,15.9z"/>
	<path fill="#223019" d="M303.3,93.4h15.5c0,0,0.9,0,0.7,0.8c-0.1,0.6-1.2,0.4-1.2,0.4h-15.1V93.4z"/>
	<path fill="#4D7235" d="M303.3,114v-3.5h8.8c0,0,0.7,0.2,1.9-1.1c1.3-1.3,7-7.8,10.9-10.4c3.8-2.6,4.2-2.4,5.6-2.4
		c1.4,0,47.5-0.1,47.5-0.1s3.7-0.3,6.3,1.3c2.1,1.2,5.4,5,9.1,9.2c2.9,3.2,5.7,6.9,6.1,7.5h-4c0,0-6.3-7.5-10.1-11.7
		c-2.8-3.1-5.8-3.1-5.8-3.1h-48.7c0,0-1.6,0.2-4,2c-3.1,2.4-4.2,3.6-7.5,7c-3.3,3.3-4.6,5.4-6.5,5.5C310.8,114,303.3,114,303.3,114z
		"/>
	<path fill="#223019" d="M407,92.6c0-0.5,0.4-0.4,0.4-0.4h9.8v1.4c-1.7,0-9.4,0-9.8,0c-0.4,0-0.4-0.2-0.4-0.2S407,93.1,407,92.6z"/>
	<path fill="#223019" d="M406.8,109.2c0-0.5,0.4-0.4,0.4-0.4h10v1.4c-1.2,0-9.6,0-10,0c-0.4,0-0.4-0.2-0.4-0.2
		S406.8,109.7,406.8,109.2z"/>
	<path fill="#223019" d="M404.9,96.3c0-0.5,0.4-0.4,0.4-0.4h11.9v1.4c-2.6,0-11.5,0-11.9,0c-0.4,0-0.4-0.2-0.4-0.2
		S404.9,96.8,404.9,96.3z"/>
	<path fill="#223019" d="M404.9,105.3c0-0.5,0.4-0.4,0.4-0.4h11.8v1.4c-2.7,0-11.5,0-11.8,0c-0.4,0-0.4-0.2-0.4-0.2
		S404.9,105.8,404.9,105.3z"/>
	<path fill="#808080" d="M328.6,60c0,0,1.6,1.2,1.6,2.3s-0.7,1.6-1.6,1.6c-0.9,0-1.6-0.8-1.5-1.6C327.2,61,328.6,60,328.6,60z"/>
	<path fill="#2D3645" d="M328.4,62.6c0,0.1,0.1,0.2,0.2,0.2l0,0c0.1,0,0.2-0.1,0.2-0.2v-0.9c0-0.1-0.1-0.2-0.2-0.2l0,0
		c-0.1,0-0.2,0.1-0.2,0.2V62.6z"/>
	<path fill="#808080" d="M421.7,94.8c0,0-0.2-0.6-0.9-1.2c-1.1-1-1.9-0.9-1.9-0.9v17.1c0,0,0.9-0.1,1.7-0.8c0.9-0.7,0.9-1.2,0.9-1.2
		L421.7,94.8z"/>
	<path fill="#DB6626" d="M418.5,80.8c0,0,1.6,0.6,1.8,2.3c0.3,1.9-0.4,2.6-1.8,3.8L418.5,80.8z"/>
	<polygon fill="#808080" points="417.9,80.4 418.6,80.4 418.6,87.2 417.8,87.2 	"/>
	<path fill="#808080" d="M417.2,79.3c0,0,0.7-0.3,0.7,0.7c0,1,0,7.4,0,8c0,0.6-0.7,0.7-0.7,0.7L417.2,79.3z"/>
	<polygon fill="#4A6D33" points="358.3,16.9 359.7,16.9 359.7,17.8 364.3,17.8 358.3,17.8 	"/>
	<path fill="#4A6D33" d="M364.3,17.8c0,0,0.8,0,1.5,0.8c0.8,0.9,1.2,2.3,1.2,2.3s-0.4-1.1-1.2-2.1C364.9,17.8,364.3,17.8,364.3,17.8
		z"/>
	<rect x="358.3" y="49.4" fill="#4A6D33" width="1.4" height="1.9"/>
	<path fill="#4A6D33" d="M358.3,17.8v31.6h1.4h9.7c0,0,1.9,0.1,3-1.4c1.1-1.5,0.7-3.5,0.7-3.5L367,20.9c0,0-0.4-1.1-1.2-2.1
		c-0.8-0.9-1.5-0.9-1.5-0.9L358.3,17.8z M359.7,48.2V19.1h4.1c0,0,1.2,0,1.9,1.9c0.7,1.9,6.2,23.4,6.2,23.4s0.3,2-0.5,2.8
		c-0.8,0.8-1.7,1-1.7,1H359.7z"/>
	<path fill="#223019" d="M376.5,89.3c0.4-0.5,0.4-1.6,0.4-1.6l-0.4-16.1c0,0,0.1-1.3-1-2.1c-0.5-0.3-1-0.3-2.1-0.3
		c-3.6,0-39.2,0.1-39.2,0.1s0.1,2.5-1.9,3.3c-2.5,1-4,0.5-4.4,2.5v-0.2c0,0-0.1-1.4,1.4-2.1c1.5-0.7,2.4-0.6,3-1.5
		c0.6-1,0.6-3.3,0.6-3.3h42.8c0,0,2.6,0.1,2.6,2.5c0,2.3,0,17.3,0,17.3s0.3,3-3.7,2.7C374.5,90.3,375.8,90.2,376.5,89.3z"/>
	<path fill="#223019" d="M384.9,80.4c0-0.2,0.6-12.2,0.6-12.2s27.8,0.4,29.1,0.4c2.7,0.1,2.6,4,2.6,4v-5.5h-32.3L384.9,80.4z"/>
	<path fill="#4D7235" d="M375.3,90.3h-44.7c0,0-1.2,0-2.1-1c-0.7-0.9-0.6-1.7-0.6-1.7l0.1-12.5l0-0.2c0,0,0.5,11.3,1.1,12.4
		c0.5,1.2,1,1.7,3.2,1.7C334.5,89.1,375.3,90.3,375.3,90.3z"/>
	<g>
		<polygon fill="#3B5628" points="393.8,57.6 393.1,64.9 388.1,64.9 388.8,57.4 		"/>
		<path fill="#223019" d="M388.7,57.3l5.3,0.2l-0.8,7.6H388L388.7,57.3z M393.7,57.7l-4.8-0.2l-0.7,7.3h4.8L393.7,57.7z"/>
	</g>
	<path fill="#28401F" d="M388.8,45.4c1.8-2.6,5-2.8,5-2.8l-0.1,12.5c0,0-0.3,0-0.7-0.2l-0.9,6.3c0,0-0.1,1-1.1,1
		c-1.1,0-1.1-1.2-1.1-1.2l0.7-7.1c-1.2-0.7-2.3-1.8-2.7-3.5C389.5,49.6,389.4,47.5,388.8,45.4z"/>
	<path fill="#28401F" d="M387.8,48.7c0.1-1.4,0.5-2.4,1.1-3.2c0.6,2,0.6,4.1-0.9,5.1C387.8,50,387.7,49.4,387.8,48.7z"/>
	<path fill="#D9E6D4" d="M395.4,43c0,0,1.9,2.5,1.9,6c0,3.5-2,5.8-2,5.8L395.4,43z"/>
	<path fill="#808080" d="M395.4,42.5v12.6c0,0-0.4,0.3-1,0.2c-0.4,0-0.6-0.3-0.6-0.3l0.1-12.4C393.9,42.7,394.6,42.1,395.4,42.5z"/>
	<path fill="#4D7235" d="M385.5,89.4c-0.6-0.6-0.6-1.8-0.6-1.8v-5.9l0.1-4.4c0,0,0.3,8.3,0.4,9.6c0,0.8,0.4,1.8,1.6,1.9
		c0.6,0.1,2.6,0.2,4.3,0.3c4,0.1,21.8,0.9,21.8,0.9l0,0h-26.1C386.9,90,386.2,90.1,385.5,89.4z"/>
	<path fill="#223019" d="M317.8,89.8c1.7-0.1,1.6-2.5,1.6-2.5V70.8c0,0-0.1-0.8-0.6-1.6c-0.6-0.8-2.7-0.7-2.7-0.7h-12.3
		c0-0.2-0.1-0.3-0.3-0.4c-0.1-0.1-0.2-0.2-0.3-0.3h15.4c0,0,2.1,0.2,2.1,2.3c0,2.1,0,18,0,18s0.2,1.1-0.6,1.8
		c-0.8,0.7-1.7,0.6-1.7,0.6h-8.6C309.7,90.4,316.2,89.9,317.8,89.8z"/>
	<path fill="#223019" d="M385.4,89.5c-0.7-0.7-0.6-1.8-0.6-1.8V67.1h32.5v23l-30.3,0c0,0,0,0-0.1,0l0,0
		C386.6,90.2,386,90.1,385.4,89.5z M417,67.3H385v20.3c0,0,0,1.1,0.6,1.7c0.6,0.6,1.1,0.6,1.3,0.6c0,0,0.1,0,0.1,0H417V67.3z"/>
	<path fill="#223019" d="M375.3,90.4c-1,0-5.4,0-13.1,0c-13.1,0-31.4,0-31.6,0c-0.1,0-1.3,0-2.1-1c-0.7-0.9-0.7-1.8-0.7-1.8V74.7
		c0,0-0.1-1.5,1.5-2.2c0.5-0.2,1-0.4,1.4-0.5c0.7-0.2,1.2-0.4,1.6-1c0.6-0.9,0.6-3.2,0.6-3.2v-0.1h43c0,0,2.7,0.1,2.7,2.6v17.3
		c0,0,0.1,1.2-0.7,2c-0.5,0.5-1.3,0.8-2.2,0.8C375.4,90.4,375.3,90.4,375.3,90.4z M332.9,67.9c0,0.5-0.1,2.3-0.6,3.2
		c-0.4,0.7-1,0.8-1.7,1.1c-0.4,0.1-0.8,0.3-1.3,0.5c-1.4,0.6-1.3,2-1.3,2l0,12.9c0,0-0.1,0.8,0.6,1.6c0.8,0.9,1.9,0.9,2,0.9l0,0
		c0.2,0,18.5,0,31.6,0c7.7,0,12.1,0,13.1,0c1,0,1.7-0.2,2.2-0.7c0.7-0.7,0.7-1.8,0.7-1.8V70.3c0-2.2-2.4-2.3-2.5-2.3H332.9z"/>
	<path fill="#808080" d="M329.5,67.3l8.4,0.7c0,0,0.2,0.1,0.2,0.3s-0.3,0.4-0.3,0.4l-8.2,0.5c0,0-0.8,0.7-1.8,0.3
		c-1-0.4-1.1-1.8-0.1-2.5C328.3,66.6,329.2,66.9,329.5,67.3z"/>
	<g>
		<polygon fill="#4A6D33" points="370.8,11.9 382.6,53.3 381.8,53.7 369.9,11.9 		"/>
		<path fill="#223019" d="M369.7,11.8l11.9,42.1l1-0.6l0-0.1l-11.8-41.4L369.7,11.8z M370,12.1l0.7,0l11.7,41.2l-0.6,0.3L370,12.1z"
			/>
	</g>
	<path fill="#B4B5BA" d="M394.8,51.5c0,0-0.5-5.7-0.6-7.2c0-1.5,0.3-2,0.7-1.7C395.3,43,394.8,51.5,394.8,51.5z"/>
	<path fill="#3B5628" d="M389.1,46.8c0-0.1,0.1-0.2,0.1-0.3c0.5-1.8,2.1-2.6,3.1-3c0.5-0.2,0.8,0,0.8,0.5c0,0.3,0,3.9,0,6.2
		c0,1-0.8,1.6-1.7,1.1c-0.5-0.3-1.1-0.7-1.6-1.3c-0.4-0.5-0.6-1-0.8-1.4C389.2,48,389.2,47.4,389.1,46.8z"/>
	<path fill="#3B5628" d="M389.1,46.8c0.1,0.6,0.1,1.2,0,1.8C388.9,47.8,389,47.3,389.1,46.8z"/>
	<path fill="#4D7235" d="M391.7,44.1c0,0-0.8,0.4-0.8,1.9c0,1.5,1.1,2.1,1.6,1.9c0.5-0.2,0.3-3.3,0.1-3.6
		C392.2,43.9,391.8,44,391.7,44.1z"/>
	<path fill="#5E5E5D" d="M417.8,82.2v4.9l0.7,0c0,0-0.5-1.4-0.5-2.5C418,83.5,417.8,82.2,417.8,82.2z"/>
	<polygon fill="#BFBCBF" points="417.9,80.5 418.5,80.5 418.5,83.7 	"/>
	<ellipse fill="#FFFFFF" cx="423.1" cy="98.6" rx="0.7" ry="1.1"/>
	<path fill="#ECA321" d="M419.4,82.1c0,0,0.3,0.1,0.5,0.7c0.2,0.6-0.1,1.1-0.4,0.9C419.2,83.5,419,82,419.4,82.1z"/>
	<path fill="#5E5E5D" d="M421.4,103.8v4c0,0-0.2,0.5-0.9,1.1c-0.9,0.6-1.4,0.7-1.4,0.7l0-12.3c0,0,0.2,7.5,0.6,8.3
		c0.3,0.8,1.2,0.8,1.4,0.3C421.2,105.4,421.4,103.8,421.4,103.8z"/>
	<path fill="#B2AFB4" d="M419.1,94c0,0,0-0.6,0.8-0.5c0.7,0.1,1.3,0.8,1.4,1.3c0.1,0.5-0.1,3.8-0.1,3.8s-1-0.2-1.5-1.7
		C419,94.8,419.1,94,419.1,94z"/>
	<path fill="#3B5628" d="M265.8,82.1v25.4c0,0-7,1.8-10.2-0.2c-3.2-2.1-6.8-7.6-11.6-6.2c-4.9,1.4-8,7.6-11.6,7.6
		c-3.6,0-97.8,0-97.8,0s-6.8-2.4-10-5.6c-3.1-3.1-19.1-9.1-27.5-8c-8.4,1.1-20.8,7.5-26.5,11.1c-5.6,3.6-11.5,3.5-11.5,3.5H0.8V81.7
		L265.8,82.1z"/>
	<path fill="#223019" d="M265.8,83.7c0,0-2-0.1-2.9,0.8c-0.9,0.9-0.7,21.9-0.7,21.9h-0.7V82.9h4.4L265.8,83.7z"/>
	<g>
		<path fill="#D12527" d="M59.2,144.6c0-22.4,18.2-40.7,40.7-40.7c22.4,0,40.7,18.2,40.7,40.7c0,22.4-18.2,40.7-40.7,40.7
			C77.4,185.2,59.2,167,59.2,144.6z M59.4,144.6c0,22.3,18.1,40.4,40.4,40.4c22.3,0,40.4-18.1,40.4-40.4c0-22.3-18.1-40.4-40.4-40.4
			C77.5,104.2,59.4,122.3,59.4,144.6z"/>
		<circle fill="#28281C" cx="99.8" cy="144.6" r="42"/>
		<path fill="#0A0A0A" d="M57.8,144.6c0,23.2,18.8,42,42,42c23.2,0,42-18.8,42-42c0-23.2-18.8-42-42-42
			C76.6,102.6,57.8,121.4,57.8,144.6z M60.2,148.3c0.7,0.3,1.6,0.6,2.9,0.8c2.1,0.4,3.4,0.6,4,0.7c-0.2-1.2-0.3-2.3-0.4-3.5
			c-0.5-0.1-1.4-0.2-2.9-0.6c-2.1-0.6-3.2-1-3.2-1l-0.6-1.3c0-1.7,0.2-3.4,0.5-5c0.6,0.4,1.5,1,2.7,1.5c1.9,0.9,3.1,1.4,3.7,1.6
			c0.1-1.2,0.3-2.3,0.5-3.5c-0.5-0.2-1.3-0.6-2.7-1.3c-1.9-1.1-2.9-1.7-2.9-1.7l-0.3-1.3c0.5-1.7,1.1-3.3,1.7-4.9
			c0.5,0.6,1.2,1.3,2.2,2.2c1.6,1.4,2.6,2.2,3.1,2.6c0.4-1.1,0.8-2.2,1.4-3.3c-0.4-0.3-1.1-0.9-2.2-1.9c-1.6-1.6-2.3-2.4-2.3-2.4
			l0.1-1.6c0.9-1.4,1.8-2.8,2.8-4.2c0.3,0.7,0.8,1.6,1.5,2.6c1.3,1.8,2,2.9,2.4,3.3c0.7-1,1.4-1.9,2.1-2.8c-0.3-0.4-0.9-1.1-1.7-2.5
			c-1.1-1.9-1.6-2.9-1.6-2.9l0.5-1.5c1.2-1.2,2.4-2.3,3.7-3.3c0.1,0.7,0.4,1.7,1,3c0.8,1.8,1.3,3,1.6,3.6c0.9-0.8,1.8-1.5,2.7-2.2
			c-0.2-0.5-0.6-1.3-1.1-2.7c-0.7-2.1-1-3.2-1-3.2l0.8-1.2c1.6-1,3.2-1.8,4.9-2.5c-0.1,0.7-0.1,1.7,0,3c0.2,2.3,0.4,3.5,0.4,4.1
			c1.1-0.5,2.1-1,3.3-1.5c-0.1-0.5-0.2-1.4-0.2-2.9c0-2.2,0-3.3,0-3.3l1.3-1.1c1.5-0.4,3.1-0.8,4.8-1c-0.2,0.7-0.5,1.7-0.7,2.9
			c-0.3,2.2-0.4,3.4-0.5,4c1.1-0.3,2.3-0.4,3.5-0.6c0-0.5,0.1-1.4,0.5-3c0.4-2.2,0.8-3.2,0.8-3.2l1.2-0.6c0.4,0,0.8,0,1.3,0
			c1.3,0,2.6,0.1,3.9,0.2c-0.4,0.6-0.9,1.5-1.3,2.7c-0.8,2-1.2,3.3-1.4,3.8c1.2,0,2.4,0.1,3.5,0.3c0.1-0.5,0.5-1.3,1.2-2.8
			c1-2,1.5-3,1.5-3l1.2-0.3c1.8,0.4,3.5,0.9,5.2,1.5c-0.5,0.5-1.2,1.2-2,2.3c-1.3,1.7-2,2.8-2.4,3.3c1.1,0.3,2.3,0.7,3.3,1.2
			c0.3-0.4,0.8-1.2,1.8-2.3c1.5-1.7,2.3-2.5,2.3-2.5l1.4,0c1.5,0.8,3,1.6,4.3,2.6c-0.7,0.4-1.5,0.9-2.5,1.7
			c-1.6,1.4-2.6,2.2-3.1,2.6c1,0.6,2,1.3,2.9,2c0.4-0.3,1.1-0.9,2.4-1.9c1.8-1.3,2.8-1.9,2.8-1.9l1.2,0.3c1.3,1.2,2.5,2.4,3.7,3.7
			c-0.7,0.2-1.7,0.5-2.8,1.1c-1.9,0.9-3,1.5-3.6,1.8c0.8,0.8,1.6,1.7,2.3,2.6c0.4-0.2,1.3-0.7,2.7-1.3c2.1-0.8,3.1-1.1,3.1-1.1
			l1.1,0.6c1,1.5,1.9,3.1,2.8,4.7c-0.7,0-1.7,0.1-3,0.3c-2.2,0.4-3.4,0.7-4,0.8c0.6,1,1.1,2.1,1.6,3.1c0.5-0.1,1.4-0.3,3-0.5
			c2.2-0.2,3.3-0.3,3.3-0.3l0.9,0.9c0.6,1.6,1,3.2,1.4,4.9c-0.7-0.2-1.7-0.4-3-0.5c-2.1-0.2-3.4-0.2-4-0.2c0.3,1.1,0.6,2.3,0.8,3.4
			c0.5,0,1.4,0.1,2.9,0.3c2.2,0.3,3.3,0.6,3.3,0.6l0.8,1.3c0.1,1.2,0.2,2.4,0.2,3.7c0,0.4,0,0.8,0,1.2c-0.7-0.3-1.6-0.8-2.8-1.1
			c-2.1-0.6-3.3-1-3.9-1.2c0,0.4,0,0.7,0,1.1c0,0.8,0,1.6-0.1,2.4c0.5,0.1,1.4,0.4,2.9,1c2.1,0.8,3.1,1.3,3.1,1.3l0.4,1.1
			c-0.3,1.8-0.6,3.5-1.1,5.2c-0.5-0.5-1.3-1.1-2.4-1.8c-1.8-1.1-2.9-1.8-3.4-2.1c-0.3,1.2-0.6,2.3-0.9,3.4c0.4,0.2,1.2,0.7,2.5,1.6
			c1.8,1.3,2.6,2,2.6,2l0.1,1.4c-0.7,1.6-1.5,3.2-2.4,4.7c-0.4-0.6-1-1.5-1.9-2.5c-1.4-1.6-2.3-2.5-2.7-3c-0.5,1.1-1.1,2.1-1.8,3.1
			c0.4,0.4,1,1,1.9,2.2c1.4,1.8,2,2.7,2,2.7l-0.4,1.7c-1,1.3-2,2.5-3.2,3.6c-0.2-0.7-0.6-1.6-1.2-2.7c-1.1-1.9-1.7-3-2-3.5
			c-0.8,0.9-1.6,1.7-2.5,2.5c0.3,0.4,0.7,1.2,1.4,2.7c0.9,2,1.3,3.1,1.3,3.1l-0.6,1.2c-1.4,1.1-2.9,2.1-4.4,3c0-0.7-0.2-1.8-0.5-3
			c-0.5-2-0.9-3.2-1.1-3.8c-1,0.7-2,1.3-3,1.8c0.2,0.5,0.4,1.4,0.7,2.9c0.4,2.2,0.5,3.3,0.5,3.3l-0.9,1.1c-1.6,0.7-3.2,1.3-4.8,1.7
			c0.1-0.7,0.3-1.8,0.3-3.1c0-2-0.1-3.2-0.1-3.9c-1.1,0.4-2.2,0.7-3.4,1c0,0.5,0,1.4,0,2.9c-0.1,2.2-0.3,3.3-0.3,3.3l-1.2,0.9
			c-1.7,0.3-3.5,0.4-5.3,0.5c0.3-0.7,0.7-1.6,1.1-2.9c0.6-2,0.9-3.3,1-3.9c-1,0.1-2,0.1-3.1,0.1c-0.2,0-0.3,0-0.4,0
			c-0.1,0.5-0.3,1.4-0.8,2.8c-0.7,2.1-1.2,3.1-1.2,3.1l-1.6,0.6c-1.6-0.2-3.2-0.4-4.7-0.8c0.5-0.6,1.1-1.4,1.7-2.5
			c1-1.9,1.6-3,1.9-3.6c-1.2-0.2-2.3-0.4-3.5-0.7c-0.2,0.4-0.6,1.3-1.5,2.6c-1.2,1.9-1.9,2.7-1.9,2.7l-1.3,0.2
			c-1.7-0.6-3.4-1.3-5-2.2c0.6-0.4,1.4-1,2.3-2c1.5-1.6,2.4-2.5,2.8-2.9c-1.1-0.5-2.2-1-3.2-1.6c-0.3,0.4-1,1-2.1,2.1
			c-1.7,1.5-2.6,2.1-2.6,2.1l-1.6-0.3c-1.3-0.9-2.6-1.9-3.8-2.9c0.7-0.3,1.6-0.7,2.7-1.4c1.8-1.2,2.9-1.9,3.4-2.2
			c-0.9-0.7-1.8-1.5-2.7-2.3c-0.4,0.3-1.2,0.8-2.6,1.6c-2,1.1-3,1.5-3,1.5l-1.2-0.5c-1.2-1.3-2.3-2.7-3.3-4.2c0.7-0.1,1.7-0.3,3-0.7
			c2-0.6,3.2-1.1,3.8-1.3c-0.7-0.9-1.4-1.9-2-2.9c-0.5,0.2-1.3,0.5-2.8,0.9c-2.2,0.5-3.3,0.7-3.3,0.7l-1.2-0.9
			c-0.8-1.5-1.5-3.1-2.1-4.8c0.7,0.1,1.7,0.2,3,0.1c2.2-0.1,3.5-0.2,4.1-0.2c-0.5-1.1-0.9-2.2-1.2-3.3c-0.5,0.1-1.4,0.1-3,0
			c-2.2-0.1-3.3-0.2-3.3-0.2l-1-1.3C60.6,151.5,60.3,150,60.2,148.3z"/>
		<circle fill="#576154" cx="99.8" cy="144.6" r="21.4"/>
		<circle fill="#464E44" cx="99.8" cy="144.6" r="17.3"/>
		<circle fill="#576154" cx="99.8" cy="144.6" r="14.1"/>
		<circle fill="#464E44" cx="99.8" cy="144.6" r="11.2"/>
		<circle fill="#576154" cx="99.8" cy="144.6" r="7.1"/>
	</g>
	<path fill="#223019" d="M63.1,106.6c0,0-1.5-18.7-1.7-20c-0.2-1.3-1-2.1-2.6-2.1c-1.6-0.1-49.9-0.4-49.9-0.4L7.5,99.5L6.8,81.7
		l58.6-0.9l-1.1,25.9L63.1,106.6z"/>
	<rect x="1.4" y="81.5" fill="#223019" width="4" height="26.7"/>
	<path fill="#223019" d="M132.1,106.6c0,0-1.5-18.7-1.8-20c-0.2-1.3-1-2.1-2.6-2.1c-1.6-0.1-58.7-0.4-58.7-0.4l-1.4,15.4L67,81.7
		l67.4-0.9l-1.1,25.9L132.1,106.6z"/>
	<path fill="#223019" d="M195.3,106.6c0,0-1.5-18.7-1.7-20c-0.2-1.3-1-2.1-2.6-2.1c-1.6-0.1-52.8-0.4-52.8-0.4l-1.4,15.4l-0.7-17.7
		l61.5-0.9l-1.1,25.9L195.3,106.6z"/>
	<path fill="#223019" d="M257,106.6c0,0-1.5-18.7-1.7-20c-0.2-1.3-1-2.1-2.6-2.1c-1.6-0.1-51.9-0.4-51.9-0.4l-1.4,15.4l-0.7-17.7
		l60.6-0.9l-1.1,25.9L257,106.6z"/>
	<rect x="262.6" y="37.6" fill="#4D7235" width="3.1" height="43.1"/>
	<polygon fill="#4D7235" points="266.9,79.6 0.2,79.6 0.2,82.9 267,82.9 	"/>
	<rect x="5.8" y="51.6" fill="#3B5628" width="253.8" height="10"/>
	<rect x="5.8" y="37.6" fill="#3B5628" width="253.8" height="10"/>
	<rect x="5.8" y="65.8" fill="#3B5628" width="253.8" height="10"/>
	<rect x="260.5" y="37.6" fill="#576154" width="3.2" height="2.2"/>
	<rect x="260.5" y="73.4" fill="#576154" width="3.2" height="2.2"/>
	<rect x="131.1" y="37.6" fill="#223019" width="3.1" height="10"/>
	<rect x="131.1" y="51.6" fill="#223019" width="3.1" height="10"/>
	<rect x="131.1" y="65.8" fill="#223019" width="3.1" height="10"/>
	<rect x="61.8" y="37.6" fill="#223019" width="3.1" height="10"/>
	<rect x="61.8" y="51.6" fill="#223019" width="3.1" height="10"/>
	<rect x="61.8" y="65.8" fill="#223019" width="3.1" height="10"/>
	<rect x="65.3" y="37.6" fill="#223019" width="3.1" height="10"/>
	<rect x="65.3" y="51.6" fill="#223019" width="3.1" height="10"/>
	<rect x="65.3" y="65.8" fill="#223019" width="3.1" height="10"/>
	<rect x="134.3" y="37.6" fill="#223019" width="3.1" height="10"/>
	<rect x="134.3" y="51.6" fill="#223019" width="3.1" height="10"/>
	<rect x="134.3" y="65.8" fill="#223019" width="3.1" height="10"/>
	<rect x="197.2" y="37.6" fill="#223019" width="3.1" height="10"/>
	<rect x="197.2" y="51.6" fill="#223019" width="3.1" height="10"/>
	<rect x="197.2" y="65.8" fill="#223019" width="3.1" height="10"/>
	<rect x="5.7" y="37.6" fill="#223019" width="3.1" height="10"/>
	<rect x="5.7" y="51.6" fill="#223019" width="3.1" height="10"/>
	<rect x="5.7" y="65.8" fill="#223019" width="3.1" height="10"/>
	<rect x="195.1" y="37.6" fill="#223019" width="3.1" height="10"/>
	<rect x="195.1" y="51.6" fill="#223019" width="3.1" height="10"/>
	<rect x="195.1" y="65.8" fill="#223019" width="3.1" height="10"/>
	<rect x="258.3" y="37.6" fill="#4D7235" width="3.1" height="70.5"/>
	<rect x="256.1" y="37.6" fill="#223019" width="3.1" height="10"/>
	<path fill="#4D7235" d="M0.9,110.9h64.4c0,0,3.3-0.1,5.5-2.7c2.2-2.6,13.6-10.9,28.9-10.9c15.3,0,28.9,10.6,28.9,10.6
		s1.8,2.3,6,2.3c4.3,0,98,0,98,0s3,0.1,5.1-1.9c1.5-1.4,3.2-4,6.5-4.4c3.9-0.4,6.2,2.3,7.7,4c1.5,1.7,4.4,2.1,6.4,2.1
		c2,0,7.4,0,7.4,0v-3.7h-7.6c0,0-1.9-0.1-3.7-1.5c-1.7-1.4-3.3-3.7-7.1-4.7c-3.8-1-8.2,0.6-10.5,3.3c-3.1,3.7-5.2,2.7-9.4,2.7h-93.5
		c0,0-1,0.3-3.7-1.7c-2.7-2-11.3-8.2-20.1-9.7c-8.8-1.5-17.5-1.7-25.9,1.3c-8.4,3-11.4,5.8-14.4,7.7c-3,1.9-2.7,2.8-6.4,3
		c-3.7,0.2-62.8,0-62.8,0L0.9,110.9z"/>
	<path fill="#1B1E1A" d="M249.2,114.9c0,0,1.9,0.3,2.6,1.8c0.7,1.5,1.1,4,1.1,4l1.7,12.7c0,0,0.3,3.5-4,3.9c-4.3,0.4-56.8,0-56.8,0
		s-2.7,0.5-4.7-1.4c-1.9-1.9-1.3-3.4-0.9-6.4c0.3-3,2.2-11.8,2.2-11.8s0.5-2,2.5-2.6c2.1-0.6,1.7-0.2,2.7-1.2c1.1-1,3.3-0.9,4.6-0.2
		c1.3,0.7,1.9,1.3,2.7,1.3c0.8,0,37,0,37,0H249.2z"/>
	<path fill="#131614" d="M240.1,137.5c0.1-0.5,0.4-1.7,0.7-2.1c0.5-0.5,1.3-0.3,1.6,0.3c0.2,0.4,0.4,1.3,0.5,1.7
		C242.1,137.4,241.1,137.4,240.1,137.5z"/>
	<path fill="#131614" d="M229.2,137.5c0.1-0.5,0.4-1.7,0.7-2.1c0.5-0.5,1.3-0.3,1.6,0.3c0.2,0.4,0.4,1.3,0.5,1.7
		C231.2,137.4,230.2,137.4,229.2,137.5z"/>
	<path fill="#131614" d="M210.8,137.5c0.1-0.5,0.4-1.7,0.7-2.1c0.5-0.5,1.3-0.3,1.6,0.3c0.2,0.4,0.4,1.3,0.5,1.7
		C212.7,137.4,211.8,137.4,210.8,137.5z"/>
	<path fill="#131614" d="M199.9,137.5c0.1-0.5,0.4-1.7,0.7-2.1c0.5-0.5,1.3-0.3,1.6,0.3c0.2,0.4,0.4,1.3,0.5,1.7
		C201.9,137.4,201,137.4,199.9,137.5z"/>
	<path fill="#131614" d="M220.4,137.4V128c0-0.5,0.4-0.9,0.9-0.9c0.5,0,0.9,0.4,0.9,0.9v9.4C221.7,137.5,221.1,137.5,220.4,137.4z"
		/>
	<path fill="#131614" d="M235.2,137.4V128c0-0.5,0.4-0.9,0.9-0.9c0.5,0,0.9,0.4,0.9,0.9v9.4C236.5,137.5,235.8,137.5,235.2,137.4z"
		/>
	<path fill="#131614" d="M206,137.4V128c0-0.5,0.4-0.9,0.9-0.9c0.5,0,0.9,0.4,0.9,0.9v9.4C207.2,137.5,206.6,137.5,206,137.4z"/>
	<g>
		<path fill="#131614" d="M248.8,137.4c1.9-0.6,3-1.6,3.6-4.1c0.5-1.9,0.8-5.7,1-8.8l1.2,9c0,0,0.3,3.5-4,3.9
			C250.3,137.3,249.7,137.4,248.8,137.4z"/>
		<path fill="#131614" d="M188.3,129.5c0.1-1.3,0.6-3.6,1-5.8c0.2,3.2,0.6,8.8,1.6,11.3c0.4,1,1.4,1.8,2.6,2.4
			c-0.8,0.1-2.8,0-4.3-1.5C187.2,133.9,187.9,132.4,188.3,129.5z"/>
	</g>
	<path fill="#2D322D" d="M190.1,119.8c0.3-1.3,0.4-2.1,0.4-2.1s0.5-2,2.5-2.6c2.1-0.6,1.7-0.2,2.7-1.2c1.1-1,3.3-0.9,4.6-0.2
		c1.3,0.7,1.9,1.3,2.7,1.3c0.8,0,37,0,37,0h9.2c0,0,1.9,0.3,2.6,1.8c0.3,0.7,0.6,1.6,0.8,2.4c0,1-0.2,1.9-0.9,2.6
		c-1.6,1.4-10.8,1.2-15.6,1.2c-4.8,0-41.1,0-41.1,0S192.3,124,190.1,119.8z"/>
	<path fill="#131614" d="M249,114.9c-0.6,1.3-2.3,2.3-4.3,2.3c-2,0-3.7-1-4.3-2.3H249z"/>
	<ellipse fill="#131614" cx="231.6" cy="123.1" rx="1.1" ry="1.5"/>
	<ellipse fill="#131614" cx="221.5" cy="123.1" rx="1.1" ry="1.5"/>
	<ellipse fill="#131614" cx="211.1" cy="123.1" rx="1.1" ry="1.5"/>
	<circle fill="#353C37" cx="244.7" cy="112.4" r="4.1"/>
	<rect x="256.1" y="51.6" fill="#223019" width="3.1" height="10"/>
	<rect x="256.1" y="65.8" fill="#223019" width="3.1" height="10"/>
	<rect x="4.3" y="37.6" fill="#4D7235" width="3.1" height="70.5"/>
	<rect x="0" y="79.6" fill="#4D7235" width="3.1" height="31.2"/>
	<rect x="64.3" y="37.6" fill="#4D7235" width="3.1" height="70.5"/>
	<rect x="133.4" y="37.6" fill="#4D7235" width="3.1" height="70.5"/>
	<rect x="196.4" y="37.6" fill="#4D7235" width="3.1" height="70.5"/>
	<rect x="258.3" y="37.6" fill="#4D7235" width="3.1" height="70.5"/>
	<circle fill="#2E441F" cx="274.5" cy="81.4" r="2.8"/>
	<g>
		<rect x="271.3" y="82" fill="#4D7235" width="8" height="1.6"/>
		<path fill="#223019" d="M271.1,81.8h8.3v2h-8.3V81.8z M279.1,82.2h-7.6v1.3h7.6V82.2z"/>
	</g>
	<g>
		<path fill="#4D7235" d="M293.8,66.7c0,0.3,0.2,0.5,0.5,0.5l0,0c0.3,0,0.5-0.2,0.5-0.5v-3.3c0-0.3-0.2-0.5-0.5-0.5l0,0
			c-0.3,0-0.5,0.2-0.5,0.5V66.7z"/>
		<path fill="#223019" d="M293.6,66.7v-3.3c0-0.4,0.3-0.7,0.7-0.7c0.4,0,0.7,0.3,0.7,0.7v3.3c0,0.4-0.3,0.7-0.7,0.7
			C293.9,67.4,293.6,67.1,293.6,66.7z M294,63.4v3.3c0,0.2,0.1,0.3,0.3,0.3c0.2,0,0.3-0.1,0.3-0.3v-3.3c0-0.2-0.1-0.3-0.3-0.3
			C294.1,63.1,294,63.2,294,63.4z"/>
	</g>
	<g>
		<path fill="#4D7235" d="M293.8,71.5c0,0.3,0.2,0.5,0.5,0.5l0,0c0.3,0,0.5-0.2,0.5-0.5v-3.3c0-0.3-0.2-0.5-0.5-0.5l0,0
			c-0.3,0-0.5,0.2-0.5,0.5V71.5z"/>
		<path fill="#223019" d="M293.6,71.5v-3.3c0-0.4,0.3-0.7,0.7-0.7c0.4,0,0.7,0.3,0.7,0.7v3.3c0,0.4-0.3,0.7-0.7,0.7
			C293.9,72.1,293.6,71.8,293.6,71.5z M294,68.2v3.3c0,0.2,0.1,0.3,0.3,0.3c0.2,0,0.3-0.1,0.3-0.3v-3.3c0-0.2-0.1-0.3-0.3-0.3
			C294.1,67.9,294,68,294,68.2z"/>
	</g>
	<g>
		<path fill="#4D7235" d="M293.8,76.3c0,0.3,0.2,0.5,0.5,0.5l0,0c0.3,0,0.5-0.2,0.5-0.5V73c0-0.3-0.2-0.5-0.5-0.5l0,0
			c-0.3,0-0.5,0.2-0.5,0.5V76.3z"/>
		<path fill="#223019" d="M293.6,76.3V73c0-0.4,0.3-0.7,0.7-0.7c0.4,0,0.7,0.3,0.7,0.7v3.3c0,0.4-0.3,0.7-0.7,0.7
			C293.9,76.9,293.6,76.6,293.6,76.3z M294,73v3.3c0,0.2,0.1,0.3,0.3,0.3c0.2,0,0.3-0.1,0.3-0.3V73c0-0.2-0.1-0.3-0.3-0.3
			C294.1,72.6,294,72.8,294,73z"/>
	</g>
	<g>
		<path fill="#4D7235" d="M293.8,81c0,0.3,0.2,0.5,0.5,0.5l0,0c0.3,0,0.5-0.2,0.5-0.5v-3.3c0-0.3-0.2-0.5-0.5-0.5l0,0
			c-0.3,0-0.5,0.2-0.5,0.5V81z"/>
		<path fill="#223019" d="M293.6,81v-3.3c0-0.4,0.3-0.7,0.7-0.7c0.4,0,0.7,0.3,0.7,0.7V81c0,0.4-0.3,0.7-0.7,0.7
			C293.9,81.7,293.6,81.4,293.6,81z M294,77.7V81c0,0.2,0.1,0.3,0.3,0.3c0.2,0,0.3-0.1,0.3-0.3v-3.3c0-0.2-0.1-0.3-0.3-0.3
			C294.1,77.4,294,77.6,294,77.7z"/>
	</g>
	<g>
		<path fill="#4D7235" d="M293.8,85.8c0,0.3,0.2,0.5,0.5,0.5l0,0c0.3,0,0.5-0.2,0.5-0.5v-3.3c0-0.3-0.2-0.5-0.5-0.5l0,0
			c-0.3,0-0.5,0.2-0.5,0.5V85.8z"/>
		<path fill="#223019" d="M293.6,85.8v-3.3c0-0.4,0.3-0.7,0.7-0.7c0.4,0,0.7,0.3,0.7,0.7v3.3c0,0.4-0.3,0.7-0.7,0.7
			C293.9,86.5,293.6,86.2,293.6,85.8z M294,82.5v3.3c0,0.2,0.1,0.3,0.3,0.3c0.2,0,0.3-0.1,0.3-0.3v-3.3c0-0.2-0.1-0.3-0.3-0.3
			C294.1,82.2,294,82.3,294,82.5z"/>
	</g>
	<g>
		<path fill="#4D7235" d="M293.8,90.6c0,0.3,0.2,0.5,0.5,0.5l0,0c0.3,0,0.5-0.2,0.5-0.5v-3.3c0-0.3-0.2-0.5-0.5-0.5l0,0
			c-0.3,0-0.5,0.2-0.5,0.5V90.6z"/>
		<path fill="#223019" d="M293.6,90.6v-3.3c0-0.4,0.3-0.7,0.7-0.7c0.4,0,0.7,0.3,0.7,0.7v3.3c0,0.4-0.3,0.7-0.7,0.7
			C293.9,91.3,293.6,91,293.6,90.6z M294,87.3v3.3c0,0.2,0.1,0.3,0.3,0.3c0.2,0,0.3-0.1,0.3-0.3v-3.3c0-0.2-0.1-0.3-0.3-0.3
			C294.1,87,294,87.1,294,87.3z"/>
	</g>
	<g>
		<path fill="#4D7235" d="M293.8,95.4c0,0.3,0.2,0.5,0.5,0.5l0,0c0.3,0,0.5-0.2,0.5-0.5v-3.3c0-0.3-0.2-0.5-0.5-0.5l0,0
			c-0.3,0-0.5,0.2-0.5,0.5V95.4z"/>
		<path fill="#223019" d="M293.6,95.4v-3.3c0-0.4,0.3-0.7,0.7-0.7c0.4,0,0.7,0.3,0.7,0.7v3.3c0,0.4-0.3,0.7-0.7,0.7
			C293.9,96,293.6,95.8,293.6,95.4z M294,92.1v3.3c0,0.2,0.1,0.3,0.3,0.3c0.2,0,0.3-0.1,0.3-0.3v-3.3c0-0.2-0.1-0.3-0.3-0.3
			C294.1,91.8,294,91.9,294,92.1z"/>
	</g>
	<g>
		<path fill="#4D7235" d="M293.8,100.2c0,0.3,0.2,0.5,0.5,0.5l0,0c0.3,0,0.5-0.2,0.5-0.5v-3.3c0-0.3-0.2-0.5-0.5-0.5l0,0
			c-0.3,0-0.5,0.2-0.5,0.5V100.2z"/>
		<path fill="#223019" d="M293.6,100.2v-3.3c0-0.4,0.3-0.7,0.7-0.7c0.4,0,0.7,0.3,0.7,0.7v3.3c0,0.4-0.3,0.7-0.7,0.7
			C293.9,100.8,293.6,100.5,293.6,100.2z M294,96.9v3.3c0,0.2,0.1,0.3,0.3,0.3c0.2,0,0.3-0.1,0.3-0.3v-3.3c0-0.2-0.1-0.3-0.3-0.3
			C294.1,96.5,294,96.7,294,96.9z"/>
	</g>
	<path fill="#223019" d="M274,62.6c0,0,0-1.3,1.6-1.3c1.6,0,13.6,0,13.6,0s1.4,0,1.4,1.5c0,1.5,0,37.3,0,37.3s0,1.7-1.8,1.7
		c-0.3,0-0.8,0-1.4,0c0.1,0,0.2,0,0.4,0c1.9,0,1.9-1.4,1.9-1.4s0-34.3,0-36.2c0-1.9-0.8-1.8-0.8-1.8s-12.8-0.5-13.7,0
		c-0.9,0.5-1.2,2.5-1.2,2.5V62.6z"/>
	<path fill="#4D7235" d="M270.4,86c0.9,0,2.4,0.2,3.4,1.6c0.6,0.8,0.9,1.9,1,3.5v8.6c0,0,0,0.6,0.4,0.9c0.5,0.4,1.3,0.5,3.7,0.6
		c2.5,0.1,9.9,0.4,9.9,0.4l-0.4,0.3c-2.9,0-12.9,0-12.9,0s-1.6,0.1-1.6-1.5c0-1.6,0-9.5,0-9.5s0-2.1-1.2-3.4
		C271.9,86.4,270.8,86.1,270.4,86z"/>
	<path fill="#223019" d="M274.5,101.8c-0.3-0.2-0.7-0.6-0.7-1.4v-9.5c0,0,0-2-1.1-3.3c-1.2-1.4-2.5-1.5-2.5-1.5l-0.2,0l0-9l0.1,0
		c0,0,2.2-0.4,3-2.2c0.9-1.8,0.7-3.2,0.7-3.2l0-9.1c0,0,0-1.5,1.8-1.5h13.6c0,0,1.6,0,1.6,1.7v37.3c0,0,0,0.8-0.5,1.4
		c-0.3,0.3-0.8,0.5-1.4,0.5h0c-0.7,0-2.2,0-4.5,0c-3.9,0-8.7,0-8.7,0c0,0,0,0-0.1,0C275.3,102,274.9,102,274.5,101.8z M288.8,101.7
		L288.8,101.7c0.5,0,0.9-0.1,1.2-0.4c0.4-0.4,0.4-1.1,0.4-1.1V62.9c0-1.3-1.2-1.4-1.3-1.4h-13.6c-1.4,0-1.4,1.1-1.4,1.1v9
		c0,0.2,0.2,1.5-0.7,3.4c-0.8,1.7-2.6,2.3-3.1,2.4l0,8.4c0.4,0.1,1.5,0.4,2.6,1.6c1.2,1.3,1.2,3.4,1.2,3.5v9.5
		c0,0.5,0.2,0.9,0.5,1.1c0.3,0.2,0.7,0.2,0.8,0.2c0.1,0,0.1,0,0.1,0c0,0,4.8,0,8.7,0C286.6,101.7,288.1,101.7,288.8,101.7z"/>
	<path fill="#223019" d="M304.8,12.2l30.2-0.1l34.6-0.3l0.1,0c0,0-43.1,0.7-52.2,0.9c-9.1,0.2-12.7,1.3-12.7,1.3L304.8,12.2z"/>
</g>
</svg>
